<?xml version="1.0" encoding="utf-8"?>
<!-- Generator: Adobe Illustrator 16.0.0, SVG Export Plug-In . SVG Version: 6.00 Build 0)  -->
<!DOCTYPE svg PUBLIC "-//W3C//DTD SVG 1.1//EN" "http://www.w3.org/Graphics/SVG/1.1/DTD/svg11.dtd">
<svg version="1.1" id="Calque_1" xmlns="http://www.w3.org/2000/svg" xmlns:xlink="http://www.w3.org/1999/xlink" x="0px" y="0px"
	 width="128px" height="128px" viewBox="0 0 128 128" enable-background="new 0 0 128 128" xml:space="preserve">
<path fill="none" stroke="#FF0000" stroke-width="5" stroke-linecap="round" stroke-linejoin="round" stroke-miterlimit="10" d="
	M75.434,94.178v21.351c0,3.674-3.007,6.681-6.679,6.681H12.246c-3.675,0-6.679-3.007-6.679-6.681V26.141
	c0-3.673,3.003-6.677,6.679-6.677h56.509c3.672,0,6.679,3.004,6.679,6.677"/>
<path fill="#FF0000" d="M61.104,70.18C58.525,61.958,40.5,47.493,40.5,47.493S22.476,61.958,19.897,70.18
	c-2.207,5.877,0,14.792,8.039,15.771c5.338,0.648,5.81-2.272,9.625-4.313c-2.966,4.07-2.827,9.628-7.295,12.541h20.467
	c-4.466-2.913-4.327-8.471-7.292-12.541c3.813,2.041,4.285,4.962,9.622,4.313C61.104,84.972,63.311,76.057,61.104,70.18z"/>
<g id="Calque_3">
	<g>
		<circle fill="#FF0000" cx="77.525" cy="43.161" r="5.046"/>
		
			<line fill="none" stroke="#FF0000" stroke-width="4" stroke-linecap="round" stroke-miterlimit="10" x1="88.143" y1="43.161" x2="118.129" y2="43.161"/>
		<circle fill="#FF0000" cx="77.525" cy="61" r="5.046"/>
		
			<line fill="none" stroke="#FF0000" stroke-width="4" stroke-linecap="round" stroke-miterlimit="10" x1="88.143" y1="61.002" x2="118.129" y2="61.002"/>
		<circle fill="#FF0000" cx="77.525" cy="78.839" r="5.046"/>
		
			<line fill="none" stroke="#FF0000" stroke-width="4" stroke-linecap="round" stroke-miterlimit="10" x1="88.143" y1="78.838" x2="118.129" y2="78.838"/>
	</g>
</g>
</svg>
