<?xml version="1.0" encoding="utf-8"?>
<!-- Generator: Adobe Illustrator 16.0.0, SVG Export Plug-In . SVG Version: 6.00 Build 0)  -->
<!DOCTYPE svg PUBLIC "-//W3C//DTD SVG 1.1//EN" "http://www.w3.org/Graphics/SVG/1.1/DTD/svg11.dtd">
<svg version="1.1" id="Calque_1" xmlns="http://www.w3.org/2000/svg" xmlns:xlink="http://www.w3.org/1999/xlink" x="0px" y="0px"
	 width="128px" height="128px" viewBox="0 0 128 128" enable-background="new 0 0 128 128" xml:space="preserve">
<path fill="none" stroke="#FF0000" stroke-width="5" stroke-miterlimit="10" d="M125.96,106.408c0,2.762-2.238,5-5,5H7.755
	c-2.761,0-5-2.238-5-5V17.132c0-2.761,2.239-5,5-5H120.96c2.762,0,5,2.239,5,5V106.408z"/>
<line fill="none" stroke="#FF0000" stroke-width="10" stroke-miterlimit="10" x1="15.938" y1="38.63" x2="65.527" y2="38.63"/>
<line fill="none" stroke="#FF0000" stroke-width="10" stroke-miterlimit="10" x1="65.527" y1="49.5" x2="88.75" y2="49.5"/>
<line fill="none" stroke="#FF0000" stroke-width="10" stroke-miterlimit="10" x1="35.336" y1="70.989" x2="92.461" y2="70.989"/>
<line fill="none" stroke="#FF0000" stroke-width="10" stroke-miterlimit="10" x1="92.461" y1="81.25" x2="119.169" y2="81.25"/>
<line fill="none" stroke="#FF0000" stroke-width="10" stroke-miterlimit="10" x1="2.755" y1="97.75" x2="52.231" y2="97.75"/>
<polyline fill="none" stroke="#FF0000" stroke-width="2" stroke-linecap="round" stroke-linejoin="round" stroke-miterlimit="10" points="
	14.905,21.599 12.231,26.361 9.222,21.51 120.463,21.51 117.667,26.25 114.516,21.766 "/>
</svg>
