<?xml version="1.0" encoding="utf-8"?>
<!-- Generator: Adobe Illustrator 16.0.0, SVG Export Plug-In . SVG Version: 6.00 Build 0)  -->
<!DOCTYPE svg PUBLIC "-//W3C//DTD SVG 1.1//EN" "http://www.w3.org/Graphics/SVG/1.1/DTD/svg11.dtd">
<svg version="1.1"
	 id="svg9" xmlns:dc="http://purl.org/dc/elements/1.1/" xmlns:cc="http://creativecommons.org/ns#" xmlns:rdf="http://www.w3.org/1999/02/22-rdf-syntax-ns#" xmlns:svg="http://www.w3.org/2000/svg" xmlns:sodipodi="http://sodipodi.sourceforge.net/DTD/sodipodi-0.dtd" xmlns:inkscape="http://www.inkscape.org/namespaces/inkscape" inkscape:version="1.0 (4035a4fb49, 2020-05-01)" sodipodi:docname="iconProject.svg"
	 xmlns="http://www.w3.org/2000/svg" xmlns:xlink="http://www.w3.org/1999/xlink" x="0px" y="0px" width="128px" height="128px"
	 viewBox="0 0 128 128" enable-background="new 0 0 128 128" xml:space="preserve">
<sodipodi:namedview  inkscape:cy="20.329412" inkscape:cx="24" inkscape:zoom="17.708333" showgrid="false" guidetolerance="10" gridtolerance="10" objecttolerance="10" bordercolor="#666666" pagecolor="#ffffff" borderopacity="1" id="namedview11" inkscape:current-layer="svg9" inkscape:window-maximized="1" inkscape:window-y="-8" inkscape:window-x="-8" inkscape:window-height="1017" inkscape:window-width="1920" inkscape:pageshadow="2" inkscape:pageopacity="0" inkscape:document-rotation="0">
	</sodipodi:namedview>
<title  id="title2"></title>
<g id="path17">
	<path fill="#FF0000" d="M71.867,5.142c0.071,0.052,0.158,0.127,0.231,0.2l0.035,4.354l0.046,5.598l0.03,3.637l3.47,1.091
		l1.761,0.554c2.344,0.737,4.605,1.665,6.916,2.836c2.616,1.326,3.319,1.682,4.641,1.682c2.188,0,2.584-0.394,7.431-5.214
		c1.104-1.099,2.559-2.547,3.265-3.134h0.052h0.01c0.898,0.752,2.874,2.746,5.475,5.371l0.27,0.272
		c2.795,2.822,4.919,4.965,5.709,5.933c-0.607,0.724-2.042,2.163-3.135,3.259l-3.785,3.797l-2.535,2.542l1.6,3.214l1.22,2.452
		c1.234,2.48,2.081,4.558,2.832,6.947l0.553,1.761l1.09,3.472l3.64,0.03l5.599,0.046l4.354,0.036
		c0.074,0.073,0.149,0.161,0.201,0.233v7.953v7.955c-0.052,0.072-0.128,0.159-0.201,0.232l-4.363,0.035l-5.605,0.047l-3.677,0.031
		l-1.066,3.519l-0.396,1.31c-0.736,2.432-2.313,6.137-3.665,8.611l-0.563,1.028l-1.799,3.282l2.643,2.65l3.852,3.864
		c1.532,1.538,2.578,2.646,3.142,3.269c-0.761,0.902-2.854,2.999-5.615,5.764l-0.217,0.218c-2.668,2.671-4.7,4.705-5.635,5.487
		c-0.723-0.606-2.15-2.03-3.239-3.117c-4.938-4.919-5.233-5.214-7.412-5.214c-1.281,0-1.826,0.271-4.853,1.771
		c-2.53,1.256-4.366,2.005-6.773,2.764l-1.711,0.539l-3.467,1.092l-0.03,3.635l-0.047,5.6l-0.035,4.354
		c-0.053,0.053-0.112,0.106-0.168,0.15c-0.925,0.05-3.409,0.058-7.505,0.071l-1.559,0.002c-3.738,0-6.145-0.033-6.939-0.062
		c-0.067-0.031-0.147-0.085-0.208-0.14l-0.036-4.389l-0.046-5.605l-0.03-3.677l-3.518-1.067l-1.315-0.398
		c-2.382-0.72-5.877-2.205-8.497-3.61l-1.18-0.634l-3.268-1.754l-2.627,2.617l-3.864,3.85c-1.537,1.53-2.644,2.578-3.268,3.142
		c-0.952-0.792-3.237-3.082-5.834-5.685l-0.183-0.184c-2.644-2.648-4.66-4.669-5.446-5.606c0.614-0.73,2.048-2.168,3.141-3.265
		l3.788-3.801l2.536-2.544l-1.602-3.215l-1.22-2.449c-1.243-2.495-2.091-4.571-2.836-6.943l-0.553-1.761l-1.09-3.472l-3.639-0.03
		L9.54,72.287l-4.353-0.035c-0.073-0.072-0.148-0.159-0.201-0.231v-7.956V56.11c0.052-0.072,0.127-0.159,0.2-0.231l4.357-0.036
		l5.6-0.046l3.655-0.03l1.081-3.491l0.476-1.536c0.666-2.152,1.964-5.3,3.02-7.32l1.103-2.108l1.695-3.241l-2.574-2.597
		l-3.812-3.846c-1.183-1.193-2.614-2.638-3.195-3.343c0-0.015,0-0.031,0-0.047v-0.007c0.752-0.899,2.75-2.879,5.38-5.486
		l0.268-0.265c2.719-2.695,4.941-4.898,5.929-5.707c0.727,0.611,2.146,2.027,3.229,3.106c4.331,4.316,5.232,5.214,7.528,5.214
		c1.113,0,2.211-0.341,3.128-0.96c0.238-0.13,0.804-0.43,1.635-0.846c2.105-1.052,4.482-2.015,6.695-2.71l1.761-0.554l3.469-1.092
		l0.03-3.637l0.046-5.598l0.036-4.365c0.068-0.07,0.149-0.142,0.215-0.189h7.971H71.867 M72.871,0.142h-8.959h-8.96l-0.899,0.362
		c-1.141,0.459-2.353,1.59-2.902,2.708l-0.415,0.845L50.69,9.655l-0.046,5.598l-1.761,0.554c-2.477,0.779-5.084,1.835-7.43,3.008
		c-1.106,0.554-2.075,1.068-2.154,1.143c-0.079,0.074-0.247,0.136-0.373,0.136c-0.127,0-1.926-1.69-3.999-3.756
		c-4.4-4.386-4.716-4.601-6.783-4.601c-2.157,0-2.204,0.035-9.425,7.192c-7.211,7.147-7.122,7.03-7.127,9.297
		c-0.004,2.148,0.169,2.406,4.644,6.921l3.812,3.846l-1.103,2.108c-1.195,2.286-2.613,5.723-3.367,8.161l-0.475,1.535l-5.6,0.046
		l-5.601,0.046L3.045,51.31c-1.089,0.535-2.248,1.787-2.709,2.93l-0.349,0.865v8.96v8.96l0.349,0.865
		c0.461,1.143,1.62,2.395,2.709,2.93l0.857,0.422L9.5,77.287l5.595,0.047l0.553,1.761c0.823,2.62,1.768,4.938,3.131,7.675
		l1.22,2.449l-3.788,3.801c-4.419,4.433-4.632,4.746-4.632,6.812c0,2.187-0.059,2.108,7.123,9.305
		c6.646,6.659,6.887,6.861,8.573,7.179c0.229,0.043,0.479,0.063,0.739,0.063c0.798,0,1.695-0.194,2.385-0.537
		c0.361-0.179,2.174-1.862,4.472-4.151l3.865-3.851l1.18,0.634c2.923,1.567,6.705,3.172,9.416,3.991l1.31,0.397l0.046,5.605
		l0.046,5.607l0.417,0.848c0.764,1.555,2.377,2.736,4.093,2.998c0.371,0.057,3.656,0.096,7.627,0.096
		c0.514,0,1.04-0.001,1.572-0.002c8.427-0.027,8.434-0.027,9.297-0.373c1.144-0.459,2.396-1.615,2.932-2.707l0.421-0.857
		l0.046-5.598l0.047-5.599l1.711-0.539c2.639-0.832,4.742-1.688,7.492-3.053c1.385-0.687,2.569-1.25,2.631-1.25
		c0.063,0,1.81,1.69,3.883,3.756c4.379,4.369,4.713,4.601,6.752,4.601c0.009,0,0.019,0,0.027,0c2.215-0.002,2.12,0.07,9.379-7.197
		c6.707-6.717,6.782-6.807,7.106-8.521c0.171-0.904-0.026-2.193-0.478-3.098c-0.178-0.362-1.861-2.176-4.151-4.475l-3.853-3.865
		l0.563-1.028c1.512-2.769,3.231-6.812,4.065-9.565l0.396-1.309l5.605-0.047l5.607-0.045l0.855-0.422
		c1.091-0.535,2.248-1.787,2.709-2.93l0.351-0.865v-8.96v-8.96l-0.351-0.865c-0.461-1.142-1.618-2.395-2.709-2.93l-0.855-0.421
		l-5.599-0.046l-5.599-0.046l-0.553-1.761c-0.83-2.641-1.77-4.951-3.126-7.677l-1.22-2.452l3.785-3.797
		c4.408-4.422,4.615-4.728,4.623-6.812c0.01-2.156-0.024-2.2-7.187-9.429c-7.146-7.213-7.024-7.12-9.297-7.124
		c-0.025,0-0.051,0-0.075,0c-2.081,0-2.393,0.225-6.777,4.59c-2.078,2.067-3.834,3.758-3.903,3.758s-1.142-0.514-2.381-1.142
		c-2.544-1.29-5.085-2.331-7.675-3.146l-1.762-0.554l-0.046-5.598l-0.046-5.598L76.667,3.2c-0.535-1.089-1.788-2.248-2.931-2.709
		L72.871,0.142L72.871,0.142z"/>
</g>
<path id="path19" fill="#FF0000" d="M61.816,87.85c-1.379-0.146-3.955-0.703-5.245-1.131c-8.315-2.759-14.352-9.656-16.09-18.389
	c-0.481-2.418-0.48-6.247,0.002-8.671c1.965-9.871,9.304-17.207,19.187-19.178c2.396-0.478,6.232-0.476,8.66,0.003
	c6.564,1.297,12.027,4.943,15.65,10.443c5.232,7.945,5.232,18.2,0,26.146c-3.596,5.461-9.127,9.164-15.559,10.42
	C66.828,87.803,63.211,87.999,61.816,87.85L61.816,87.85z M67.206,82.448c3.769-0.657,7.372-2.521,10.046-5.196
	c2.676-2.674,4.539-6.277,5.195-10.046c0.289-1.651,0.289-4.761,0-6.412c-1.354-7.772-7.283-13.743-15.125-15.23
	c-1.643-0.312-5.001-0.312-6.645,0c-5.945,1.127-10.775,4.752-13.439,10.085c-1.332,2.665-1.911,5.198-1.911,8.351
	c0,3.195,0.581,5.691,1.961,8.434c2.659,5.275,7.58,8.955,13.387,10.006C62.233,82.721,65.613,82.727,67.206,82.448L67.206,82.448z"
	/>
<rect x="-125.277" y="51.392" fill="#FF0000" width="0" height="0"/>
</svg>
