<?xml version="1.0" encoding="UTF-8" standalone="no"?>
<svg
   xmlns:dc="http://purl.org/dc/elements/1.1/"
   xmlns:cc="http://creativecommons.org/ns#"
   xmlns:rdf="http://www.w3.org/1999/02/22-rdf-syntax-ns#"
   xmlns:svg="http://www.w3.org/2000/svg"
   xmlns="http://www.w3.org/2000/svg"
   xmlns:sodipodi="http://sodipodi.sourceforge.net/DTD/sodipodi-0.dtd"
   xmlns:inkscape="http://www.inkscape.org/namespaces/inkscape"
   viewBox="0 0 48 48"
   version="1.1"
   id="svg9"
   sodipodi:docname="iconProject.svg"
   inkscape:version="1.0 (4035a4fb49, 2020-05-01)">
  <metadata
     id="metadata15">
    <rdf:RDF>
      <cc:Work
         rdf:about="">
        <dc:format>image/svg+xml</dc:format>
        <dc:type
           rdf:resource="http://purl.org/dc/dcmitype/StillImage" />
      </cc:Work>
    </rdf:RDF>
  </metadata>
  <defs
     id="defs13" />
  <sodipodi:namedview
     inkscape:document-rotation="0"
     pagecolor="#ffffff"
     bordercolor="#666666"
     borderopacity="1"
     objecttolerance="10"
     gridtolerance="10"
     guidetolerance="10"
     inkscape:pageopacity="0"
     inkscape:pageshadow="2"
     inkscape:window-width="1920"
     inkscape:window-height="1017"
     id="namedview11"
     showgrid="false"
     inkscape:zoom="17.708333"
     inkscape:cx="24"
     inkscape:cy="20.329412"
     inkscape:window-x="-8"
     inkscape:window-y="-8"
     inkscape:window-maximized="1"
     inkscape:current-layer="svg9" />
  <title
     id="title2" />
  <path
     style="fill:#ff0000;stroke-width:0.0564706"
     d="m 20.716587,47.970119 c -0.643696,-0.09833 -1.248456,-0.541364 -1.534906,-1.124429 l -0.156092,-0.317726 -0.01727,-2.102673 -0.01726,-2.102674 -0.490971,-0.148772 c -1.016705,-0.308078 -2.434897,-0.909434 -3.530977,-1.497242 l -0.442359,-0.237229 -1.449406,1.443725 c -0.861826,0.858449 -1.541703,1.489566 -1.677079,1.556802 -0.34315,0.170429 -0.822375,0.242994 -1.17119,0.177346 C 9.5967626,43.498243 9.5065386,43.422696 7.0141406,40.925306 4.3209247,38.226695 4.3433261,38.25596 4.3433261,37.4362 c 0,-0.774588 0.079694,-0.891783 1.7369775,-2.554324 l 1.420405,-1.424912 -0.45744,-0.918618 C 6.5322166,31.512069 6.1777236,30.643175 5.869159,29.660507 L 5.66179,29.000108 3.562513,28.98286 1.4632362,28.965611 1.1419098,28.807815 C 0.73337257,28.607192 0.29905747,28.137391 0.12604647,27.708952 l -0.1310456,-0.324517 v -3.36 -3.36 l 0.1310456,-0.324517 c 0.173011,-0.428439 0.6073261,-0.89824 1.01586333,-1.098863 l 0.3213264,-0.157796 2.1001182,-0.01725 2.1001184,-0.01725 0.1779829,-0.575689 c 0.2826749,-0.914319 0.8144459,-2.203217 1.2626509,-3.0604 l 0.413385,-0.790588 -1.429498,-1.442193 C 4.4100039,11.486999 4.3449971,11.390104 4.3466901,10.584435 4.3484801,9.7343796 4.3150051,9.7780426 7.0192786,7.0980233 9.7273706,4.4142201 9.7448656,4.4008702 10.553813,4.4009505 c 0.775161,7.91e-5 0.893728,0.080496 2.5438,1.725345 0.777261,0.7748002 1.451943,1.4087277 1.499294,1.4087277 0.04735,0 0.110234,-0.023043 0.13974,-0.051206 0.02951,-0.028164 0.393031,-0.2209175 0.807834,-0.4283424 0.879749,-0.4399251 1.857335,-0.83575 2.786212,-1.1281384 l 0.660399,-0.2078772 0.01725,-2.099277 0.01725,-2.0992768 0.155702,-0.3169009 c 0.205892,-0.41905491 0.660433,-0.84326541 1.088074,-1.01546971 l 0.337397,-0.1358645 h 3.36 3.36 l 0.324517,0.1310456 c 0.428439,0.173011 0.89824,0.6073261 1.098863,1.01586331 l 0.157796,0.3213264 0.01725,2.0992768 0.01725,2.099277 0.660399,0.2078772 c 0.97102,0.3056539 1.923872,0.696144 2.878102,1.1794809 0.464965,0.2355128 0.866641,0.4282057 0.892615,0.4282057 0.02597,0 0.684659,-0.6342754 1.463744,-1.4095013 1.664314,-1.656072 1.764013,-1.7228549 2.569464,-1.7211624 0.852798,0.00179 0.806961,-0.03333 3.48664,2.6715409 2.685838,2.7110872 2.698443,2.7276262 2.69491,3.5357506 -0.0034,0.781694 -0.08108,0.896084 -1.73415,2.554402 l -1.419467,1.423971 0.457447,0.919559 c 0.50858,1.022346 0.861265,1.888475 1.172227,2.87878 l 0.207369,0.660399 2.099277,0.01725 2.099276,0.01725 0.321327,0.157796 c 0.408537,0.200623 0.842852,0.670424 1.015863,1.098863 l 0.131046,0.324514 v 3.36 3.36 l -0.131046,0.324517 c -0.173011,0.428439 -0.607326,0.89824 -1.015863,1.098863 l -0.321327,0.157796 -2.102673,0.01727 -2.102674,0.01726 -0.148772,0.490971 c -0.312801,1.032293 -0.957417,2.54859 -1.524893,3.586929 l -0.210614,0.38537 1.444243,1.449924 c 0.858799,0.862177 1.490081,1.542216 1.55732,1.677598 0.168584,0.339437 0.242963,0.822948 0.178711,1.161745 -0.121913,0.642846 -0.149939,0.676446 -2.665501,3.195593 -2.721352,2.72523 -2.686072,2.698154 -3.516911,2.699094 -0.773415,8.75e-4 -0.892525,-0.07992 -2.542613,-1.72479 -0.777261,-0.7748 -1.432189,-1.408727 -1.455396,-1.408727 -0.02321,0 -0.467266,0.210916 -0.986799,0.468702 -1.031622,0.51188 -1.819809,0.833031 -2.809361,1.144689 l -0.641923,0.202173 -0.01725,2.099277 -0.01725,2.099276 -0.157796,0.321327 c -0.201076,0.409459 -0.67063,0.843197 -1.098863,1.015045 -0.324283,0.130135 -0.326797,0.130236 -3.48687,0.139811 -1.739294,0.0053 -3.290816,-0.01004 -3.447825,-0.03403 z m 6.243119,-4.253718 c 0,-2.306595 0.0014,-2.334227 0.127059,-2.580224 0.06988,-0.136763 0.190588,-0.294363 0.268235,-0.350223 0.07765,-0.05586 0.522353,-0.205614 0.988236,-0.332787 1.455562,-0.397331 3.030774,-1.053679 4.17365,-1.739048 0.817766,-0.490404 0.991477,-0.541086 1.370909,-0.399974 0.08743,0.03252 0.914987,0.813786 1.839007,1.736154 l 1.680038,1.677034 2.144965,-2.144409 2.144966,-2.144409 -1.685074,-1.695275 c -2.1279,-2.140783 -2.056363,-1.958925 -1.294411,-3.290562 0.739915,-1.293125 1.300625,-2.664742 1.690972,-4.136478 0.202078,-0.761905 0.30285,-0.948524 0.603406,-1.117445 0.219563,-0.123402 0.250927,-0.124908 2.600437,-0.124908 h 2.378193 V 24.05267 21.031494 h -2.331563 c -2.306595,0 -2.334227,-0.0014 -2.580224,-0.127059 -0.136763,-0.06988 -0.294363,-0.190588 -0.350223,-0.268235 -0.05586,-0.07765 -0.205614,-0.522353 -0.332787,-0.988236 -0.409514,-1.500191 -1.055444,-3.018971 -1.884405,-4.430812 -0.328075,-0.558759 -0.378686,-0.780142 -0.254617,-1.113747 0.03252,-0.08743 0.813786,-0.914987 1.736154,-1.839007 L 41.669663,10.58436 39.525254,8.4393946 37.380845,6.2944288 35.68557,7.9795027 c -1.490936,1.4819629 -1.724218,1.6921449 -1.935396,1.7437349 -0.329723,0.08055 -0.533685,0.02198 -1.111058,-0.319046 C 31.390709,8.6668136 29.870667,8.0196341 28.504561,7.6438454 27.50953,7.3701319 27.399185,7.3169892 27.199465,7.0153103 L 27.044412,6.7811002 27.027986,4.3910029 27.01156,2.0009056 h -3.018868 -3.018868 v 2.3315638 c 0,2.3065943 -0.0014,2.3342271 -0.127059,2.5802237 -0.06988,0.1367627 -0.190588,0.2943625 -0.268235,0.3502227 -0.07765,0.05586 -0.522353,0.2056139 -0.988236,0.3327873 -1.497687,0.4088296 -3.032955,1.0571855 -4.315973,1.8226705 -0.605769,0.361418 -0.787457,0.412121 -1.138564,0.317731 -0.218795,-0.05882 -0.452897,-0.269776 -1.930316,-1.7394625 L 10.524117,6.3241176 8.4077946,8.4398766 c -1.163978,1.163667 -2.116323,2.1390814 -2.116323,2.1675864 0,0.02851 0.735159,0.790986 1.633687,1.6944 0.910733,0.915687 1.662359,1.717542 1.69848,1.811984 0.1489,0.38932 0.09234,0.607009 -0.365392,1.406348 -0.771984,1.348114 -1.338509,2.725213 -1.732974,4.212475 -0.202506,0.763518 -0.320661,0.980463 -0.616065,1.131168 -0.206565,0.105381 -0.341878,0.111185 -2.591957,0.111185 H 1.9432362 v 3.021177 3.021176 l 2.3294118,0.0012 c 2.1454356,0.0011 2.3476026,0.0095 2.5597326,0.105846 0.271365,0.123248 0.454429,0.337452 0.530344,0.62056 0.283848,1.058546 0.493986,1.750092 0.685798,2.256904 0.284394,0.751437 0.895755,2.017005 1.30855,2.708807 0.172722,0.289465 0.330625,0.624462 0.350895,0.744439 0.06975,0.412859 -0.0655,0.586096 -1.829333,2.343061 l -1.643727,1.63733 2.15889,2.159437 2.1588904,2.159437 1.695274,-1.685072 c 2.140781,-2.127899 1.958923,-2.056361 3.29056,-1.294409 1.293125,0.739915 2.664742,1.300625 4.136478,1.690971 0.761905,0.202079 0.948524,0.30285 1.117445,0.603406 0.123402,0.219563 0.124908,0.250928 0.124908,2.600437 v 2.378191 h 3.021177 3.021176 z"
     id="path17" />
  <path
     style="fill:#ff0000;stroke-width:0.0564706"
     d="m 23.181176,32.943684 c -0.517093,-0.05535 -1.482939,-0.26364 -1.966729,-0.424136 -3.118331,-1.034495 -5.381937,-3.621384 -6.033957,-6.895714 -0.18054,-0.906636 -0.180196,-2.342693 7.79e-4,-3.25174 0.736935,-3.701685 3.488991,-6.452566 7.194897,-7.191828 0.898428,-0.17922 2.337423,-0.178695 3.247668,0.0012 2.461973,0.486529 4.510649,1.853524 5.869113,3.916209 1.962269,2.979498 1.962269,6.825182 0,9.804679 -1.348363,2.047349 -3.422843,3.436602 -5.834414,3.907236 -0.597731,0.116651 -1.954365,0.190091 -2.477357,0.134109 z m 2.02108,-2.025547 c 1.412838,-0.246379 2.764456,-0.945389 3.767474,-1.948407 1.003018,-1.003018 1.702028,-2.354636 1.948407,-3.767474 0.107988,-0.619252 0.107988,-1.78526 0,-2.404512 -0.508288,-2.914737 -2.731717,-5.153552 -5.672079,-5.711329 -0.616395,-0.116928 -1.875721,-0.116928 -2.492116,0 -2.229326,0.422896 -4.040485,1.782058 -5.039597,3.781902 C 17.215014,21.86779 16.997647,22.817595 16.997647,24 c 0,1.198599 0.217749,2.134688 0.735613,3.162353 0.997116,1.978706 2.842412,3.358044 5.019967,3.752369 0.584065,0.105766 1.851964,0.107534 2.449029,0.0034 z"
     id="path19" />
</svg>
