<?xml version="1.0" encoding="utf-8"?>
<!-- Generator: Adobe Illustrator 16.0.0, SVG Export Plug-In . SVG Version: 6.00 Build 0)  -->
<!DOCTYPE svg PUBLIC "-//W3C//DTD SVG 1.1//EN" "http://www.w3.org/Graphics/SVG/1.1/DTD/svg11.dtd">
<svg version="1.1" id="Calque_1" xmlns="http://www.w3.org/2000/svg" xmlns:xlink="http://www.w3.org/1999/xlink" x="0px" y="0px"
	 width="128px" height="128px" viewBox="0 0 128 128" enable-background="new 0 0 128 128" xml:space="preserve">
<g id="Calque_1_1_" display="none">
</g>
<path fill="none" stroke="#FF0000" stroke-width="5" stroke-linecap="round" stroke-linejoin="round" stroke-miterlimit="10" d="
	M24.122,75.928V37.962c0-2.895,2.368-5.263,5.263-5.263H99.71c2.896,0,5.263,2.369,5.263,5.263v37.966
	c0,2.896-2.367,5.264-5.263,5.264H29.385C26.489,81.191,24.122,78.824,24.122,75.928z"/>
<path fill="none" stroke="#FF0000" stroke-width="5" stroke-linecap="round" stroke-linejoin="round" stroke-miterlimit="10" d="
	M110.154,22.663H18.94c-3.017,0-5.486,2.47-5.486,5.488v57.588c0,3.02,2.469,5.49,5.486,5.49h20.838l4.712,1.919h41.749l4.711-1.919
	h19.205c3.018,0,5.488-2.471,5.488-5.49V28.15C115.643,25.132,113.172,22.663,110.154,22.663z"/>
<polyline fill="none" stroke="#FF0000" stroke-width="5" stroke-linecap="round" stroke-linejoin="round" stroke-miterlimit="10" points="
	90.869,91.284 125.278,91.284 121.537,103.687 9.926,103.687 6.186,91.284 39.856,91.284 "/>
</svg>
