<?xml version="1.0" encoding="utf-8"?>
<!-- Generator: Adobe Illustrator 16.0.0, SVG Export Plug-In . SVG Version: 6.00 Build 0)  -->
<!DOCTYPE svg PUBLIC "-//W3C//DTD SVG 1.1//EN" "http://www.w3.org/Graphics/SVG/1.1/DTD/svg11.dtd">
<svg version="1.1" id="Calque_1" xmlns="http://www.w3.org/2000/svg" xmlns:xlink="http://www.w3.org/1999/xlink" x="0px" y="0px"
	 width="128px" height="128px" viewBox="0 0 128 128" enable-background="new 0 0 128 128" xml:space="preserve">
<g id="Calque_1_1_" display="none">
</g>
<g>
	<path fill="none" stroke="#FF0000" stroke-width="5" stroke-linecap="round" stroke-linejoin="round" stroke-miterlimit="10" d="
		M50.827,117.008l-3.58,2.065c-2.679,1.549-6.137,0.621-7.687-2.058L16.036,76.265c-1.548-2.679-0.621-6.139,2.059-7.685l3.58-2.067
		c2.681-1.549,6.139-0.621,7.687,2.06l23.526,40.749C54.434,112.002,53.508,115.462,50.827,117.008z"/>
	<path fill="none" stroke="#FF0000" stroke-width="5" stroke-linecap="round" stroke-linejoin="round" stroke-miterlimit="10" d="
		M77.129,117.008l3.581,2.065c2.68,1.549,6.139,0.621,7.686-2.058l23.526-40.751c1.548-2.679,0.621-6.139-2.059-7.685l-3.581-2.067
		c-2.68-1.549-6.139-0.621-7.686,2.06l-23.528,40.749C73.522,112.002,74.448,115.462,77.129,117.008z"/>
	<path fill="none" stroke="#FF0000" stroke-width="5" stroke-linecap="round" stroke-linejoin="round" stroke-miterlimit="10" d="
		M111.911,74.421C119.718,7.413,63.978,10.39,63.978,10.39S8.238,7.413,16.047,74.421"/>
	<path fill="none" stroke="#FF0000" stroke-width="5" stroke-linecap="round" stroke-linejoin="round" stroke-miterlimit="10" d="
		M38.528,115.226c0,0-35.192-8.717-21.459-37.171"/>
	<path fill="none" stroke="#FF0000" stroke-width="5" stroke-linecap="round" stroke-linejoin="round" stroke-miterlimit="10" d="
		M89.429,115.226c0,0,35.193-8.717,21.46-37.171"/>
</g>
</svg>
