<?xml version="1.0" encoding="utf-8"?>
<!-- Generator: Adobe Illustrator 16.0.0, SVG Export Plug-In . SVG Version: 6.00 Build 0)  -->
<!DOCTYPE svg PUBLIC "-//W3C//DTD SVG 1.1//EN" "http://www.w3.org/Graphics/SVG/1.1/DTD/svg11.dtd">
<svg version="1.1" id="Calque_1" xmlns="http://www.w3.org/2000/svg" xmlns:xlink="http://www.w3.org/1999/xlink" x="0px" y="0px"
	 width="128px" height="128px" viewBox="0 0 128 128" enable-background="new 0 0 128 128" xml:space="preserve">
<g id="Calque_1_1_" display="none">
</g>
<path fill="none" stroke="#FF0000" stroke-width="5" stroke-miterlimit="10" d="M15.542,40.067
	c-1.43-11.821,3.674-23.486,13.111-30.747l0.924-0.712c3.191-2.454,8.127-2.132,10.972,0.712l10.066,10.066
	c3.273,3.272,3.273,8.625,0,11.896L45.81,37.53c-2.837,3.69-3.457,8.606-1.638,12.891c4.67,11,15.525,31.089,33.75,35.152
	c3.777,0.842,7.741-0.111,10.812-2.473l7.744-5.956c3.271-3.271,8.625-3.271,11.896,0L118.44,87.21
	c2.889,2.89,3.179,7.873,0.646,11.079l-0.646,0.817c-9.43,11.931-25.053,17.316-39.729,13.335
	c-10.762-2.918-23.678-9.509-37.341-23.171C23.25,71.149,17.143,53.307,15.542,40.067z"/>
</svg>
