<?xml version="1.0" encoding="utf-8"?>
<!-- Generator: Adobe Illustrator 16.0.0, SVG Export Plug-In . SVG Version: 6.00 Build 0)  -->
<!DOCTYPE svg PUBLIC "-//W3C//DTD SVG 1.1//EN" "http://www.w3.org/Graphics/SVG/1.1/DTD/svg11.dtd">
<svg version="1.1" id="Calque_1" xmlns="http://www.w3.org/2000/svg" xmlns:xlink="http://www.w3.org/1999/xlink" x="0px" y="0px"
	 width="128px" height="128px" viewBox="0 0 128 128" enable-background="new 0 0 128 128" xml:space="preserve">
<g id="Calque_1_1_" display="none">
</g>
<g>
	<g>
		<path fill="none" stroke="#FF0000" stroke-width="5" stroke-linecap="round" stroke-linejoin="round" stroke-miterlimit="10" d="
			M115.499,93.694H12.026c-3.121,0-5.673-2.555-5.673-5.673V18.523c0-3.12,2.552-5.673,5.673-5.673h103.473
			c3.121,0,5.673,2.553,5.673,5.673v69.498C121.172,91.14,118.62,93.694,115.499,93.694z"/>
		
			<line fill="none" stroke="#FF0000" stroke-width="5" stroke-linecap="round" stroke-linejoin="round" stroke-miterlimit="10" x1="6.354" y1="79.305" x2="121.172" y2="79.305"/>
		
			<line fill="none" stroke="#FF0000" stroke-width="5" stroke-linecap="round" stroke-linejoin="round" stroke-miterlimit="10" x1="58.352" y1="22.636" x2="70.461" y2="22.636"/>
		<path fill="none" stroke="#FF0000" stroke-width="5" stroke-linecap="round" stroke-linejoin="round" stroke-miterlimit="10" d="
			M90.319,107.753H70.461V93.694H58.352v14.059H37.206c-2.256,0-4.099,1.845-4.099,4.102c0,2.255,1.843,4.1,4.099,4.1h53.114
			c2.257,0,4.1-1.845,4.1-4.1C94.419,109.598,92.576,107.753,90.319,107.753z"/>
	</g>
</g>
</svg>
