<?xml version="1.0" encoding="utf-8"?>
<!-- Generator: Adobe Illustrator 16.0.0, SVG Export Plug-In . SVG Version: 6.00 Build 0)  -->
<!DOCTYPE svg PUBLIC "-//W3C//DTD SVG 1.1//EN" "http://www.w3.org/Graphics/SVG/1.1/DTD/svg11.dtd">
<svg version="1.1" id="Calque_1" xmlns="http://www.w3.org/2000/svg" xmlns:xlink="http://www.w3.org/1999/xlink" x="0px" y="0px"
	 width="128px" height="128px" viewBox="0 0 128 128" enable-background="new 0 0 128 128" xml:space="preserve">
<g id="Calque_1_1_" display="none">
</g>
<g>
	<path fill="none" stroke="#FF0000" stroke-width="5" stroke-miterlimit="10" d="M29.61,57.316H11.074
		c-2.824,0-5.113,2.287-5.113,5.113v38.989c0,2.826,2.29,5.113,5.113,5.113H29.61V87.038c0-2.827,2.289-5.113,5.113-5.113h58.164
		c2.826,0,5.113,2.286,5.113,5.113v19.494h19.175c2.826,0,5.113-2.287,5.113-5.113V62.43c0-2.826-2.287-5.113-5.113-5.113H98.001"/>
	<path fill="none" stroke="#FF0000" stroke-width="5" stroke-miterlimit="10" d="M29.61,106.532v6.392
		c0,2.826,2.289,5.113,5.113,5.113h58.164c2.826,0,5.113-2.287,5.113-5.113v-6.392"/>
	<path fill="none" stroke="#FF0000" stroke-width="5" stroke-miterlimit="10" d="M98.001,106.532V87.038
		c0-2.827-2.287-5.113-5.113-5.113H34.724c-2.824,0-5.113,2.286-5.113,5.113v19.494"/>
	<path fill="none" stroke="#FF0000" stroke-width="5" stroke-miterlimit="10" d="M98.001,16.41c0-2.826-2.287-5.113-5.113-5.113
		H34.724c-2.824,0-5.113,2.287-5.113,5.113v40.906h68.391V16.41z"/>
</g>
<line fill="none" stroke="#FF0000" stroke-width="5" stroke-miterlimit="10" x1="37.919" y1="24.844" x2="69.878" y2="24.844"/>
<line fill="none" stroke="#FF0000" stroke-width="5" stroke-miterlimit="10" x1="37.919" y1="40.059" x2="83.939" y2="40.059"/>
<path fill="none" stroke="#FF0000" stroke-width="5" stroke-miterlimit="10" d="M25.181,69.166c0,2.481-2.012,4.494-4.496,4.494l0,0
	c-2.484,0-4.497-2.013-4.497-4.494l0,0c0-2.486,2.013-4.499,4.497-4.499l0,0C23.169,64.667,25.181,66.68,25.181,69.166
	L25.181,69.166z"/>
</svg>
