<?xml version="1.0" encoding="utf-8"?>
<!-- Generator: Adobe Illustrator 16.0.0, SVG Export Plug-In . SVG Version: 6.00 Build 0)  -->
<!DOCTYPE svg PUBLIC "-//W3C//DTD SVG 1.1//EN" "http://www.w3.org/Graphics/SVG/1.1/DTD/svg11.dtd">
<svg version="1.1" id="Calque_2" xmlns="http://www.w3.org/2000/svg" xmlns:xlink="http://www.w3.org/1999/xlink" x="0px" y="0px"
	 width="128px" height="128px" viewBox="0 0 128 128" enable-background="new 0 0 128 128" xml:space="preserve">
<path fill="none" d="M63.552,70.276c7.849,0,12.974-10.796,13.823-21.827H51.93c-0.71,0.088-1.434,0.166-2.184,0.208
	C50.644,59.617,55.752,70.276,63.552,70.276z"/>
<path fill="none" d="M86.813,79.176l-8.05-2.938l-12.879,7.298l-4.956-0.075l-12.94-7.22l-7.983,2.937
	c-1.258,0.605-16.185,8.212-15.295,27.634c0.451,0.712,2.641,3.425,9.623,3.482c-0.22-3.677-0.6-11.881-0.13-19.07l3.955,0.258
	c-0.505,7.751,0.027,17.018,0.206,19.698c4.587,4.063,14.193,6.529,25.29,6.433c10.832-0.08,20.436-2.585,24.839-6.43
	c0.162-2.737,0.651-12.208,0.121-19.824l3.955-0.276c0.495,7.102,0.148,15.489-0.054,19.212c6.9-0.06,9.104-2.727,9.592-3.496
	C102.984,87.411,88.108,79.8,86.813,79.176z"/>
<path fill="#FF0000" d="M39.125,48.45h5.197c0,0.002,0,0.004,0,0.005c-1.089,2.353-1.479,6.399,3.729,11.585
	c2.818,8.085,8.063,14.201,15.501,14.201c7.293,0,12.675-6.244,15.548-14.532c4.871-5.037,4.459-8.957,3.391-11.259h5.202
	c1.013,0,1.835-0.822,1.835-1.835s-0.822-1.835-1.835-1.835h-2.456c0.014-0.279,0.02-0.56,0.02-0.842
	c0-8.819-5.153-16.408-12.563-19.831c0.022,0.867,0.027,1.846,0.027,2.949v3.171c0,9.153-0.497,9.697-8.865,9.697
	c-8.369,0-8.865-0.544-8.865-9.697v-3.171c0-1.107,0.007-2.085,0.035-2.955c-7.411,3.422-12.57,11.014-12.57,19.837
	c0,0.285,0.024,0.562,0.038,0.842h-3.371c-1.013,0-1.835,0.822-1.835,1.835C37.29,47.628,38.111,48.45,39.125,48.45z M51.929,48.45
	h25.444c-0.848,11.031-5.972,21.827-13.822,21.827c-7.8,0-12.908-10.66-13.806-21.618C50.495,48.615,51.219,48.538,51.929,48.45z"/>
<path fill="#FF0000" d="M70.468,23.225c-0.069-1.472-0.233-2.451-0.641-2.909c-0.644-0.722-2.588-0.757-5.97-0.757
	c-3.333,0-5.336,0-5.978,0.712c-0.406,0.451-0.569,1.446-0.637,2.954c2.083-0.688,4.303-1.064,6.61-1.064
	C66.164,22.159,68.386,22.536,70.468,23.225z"/>
<path fill="#FF0000" d="M57.194,30.225c0,3.756,0,6.024,0.687,6.784c0.643,0.711,2.649,0.711,5.976,0.711
	c3.326,0,5.333,0,5.975-0.711c0.688-0.76,0.688-3.026,0.688-6.784v-3.171c0-1.531-0.004-2.798-0.053-3.83
	c-2.082-0.688-4.305-1.064-6.614-1.064c-2.308,0-4.528,0.376-6.611,1.064c-0.045,1.034-0.049,2.302-0.049,3.83v3.171H57.194z"/>
<path fill="none" d="M100.928,70.048c4.401,0,7.273-6.049,7.747-12.232h-14.26c-0.398,0.05-0.804,0.094-1.224,0.117
	C93.695,64.075,96.558,70.048,100.928,70.048z"/>
<path fill="#FF0000" d="M87.239,57.815h2.913c0,0.002,0,0.003,0,0.004c-0.61,1.318-0.829,3.585,2.089,6.493
	c1.58,4.529,4.519,7.957,8.687,7.957c4.089,0,7.104-3.498,8.715-8.144c2.729-2.822,2.499-5.02,1.899-6.311h2.916
	c0.567,0,1.029-0.458,1.029-1.027c0-0.568-0.462-1.029-1.029-1.029h-1.377c0.009-0.156,0.013-0.313,0.013-0.472
	c0-4.942-2.89-9.195-7.04-11.114c0.012,0.486,0.014,1.034,0.014,1.653v1.777c0,5.129-0.276,5.435-4.967,5.435
	c-4.691,0-4.97-0.305-4.97-5.435v-1.777c0-0.62,0.005-1.168,0.02-1.656c-4.152,1.918-7.044,6.173-7.044,11.117
	c0,0.16,0.014,0.315,0.021,0.472h-1.891c-0.565,0-1.027,0.461-1.027,1.029S86.672,57.815,87.239,57.815z M94.415,57.815h14.26
	c-0.476,6.184-3.346,12.232-7.747,12.232c-4.37,0-7.232-5.973-7.736-12.115C93.611,57.91,94.017,57.866,94.415,57.815z"/>
<path fill="#FF0000" d="M104.805,43.679c-0.038-0.824-0.13-1.373-0.359-1.63c-0.359-0.404-1.449-0.424-3.345-0.424
	c-1.869,0-2.99,0-3.352,0.398c-0.228,0.253-0.319,0.811-0.357,1.655c1.169-0.385,2.413-0.596,3.706-0.596
	C102.394,43.083,103.638,43.294,104.805,43.679z"/>
<path fill="#FF0000" d="M97.364,47.603c0,2.105,0,3.376,0.387,3.802c0.359,0.398,1.484,0.398,3.35,0.398
	c1.863,0,2.987,0,3.349-0.398c0.384-0.426,0.384-1.696,0.384-3.802v-1.777c0-0.858-0.002-1.568-0.029-2.146
	c-1.166-0.385-2.412-0.596-3.706-0.596c-1.293,0-2.537,0.211-3.706,0.596c-0.025,0.579-0.027,1.291-0.027,2.146V47.603
	L97.364,47.603z"/>
<path fill="none" d="M26.862,70.048c4.401,0,7.273-6.049,7.747-12.232H20.35c-0.398,0.05-0.804,0.094-1.224,0.117
	C19.63,64.075,22.492,70.048,26.862,70.048z"/>
<path fill="#FF0000" d="M13.174,57.815h2.913c0,0.002,0,0.003,0,0.004c-0.61,1.318-0.829,3.585,2.089,6.493
	c1.58,4.529,4.519,7.957,8.687,7.957c4.089,0,7.104-3.498,8.715-8.144c2.729-2.822,2.499-5.02,1.899-6.311h2.916
	c0.567,0,1.029-0.458,1.029-1.027c0-0.568-0.462-1.029-1.029-1.029h-1.377c0.009-0.156,0.013-0.313,0.013-0.472
	c0-4.942-2.89-9.195-7.04-11.114c0.012,0.486,0.014,1.034,0.014,1.653v1.777c0,5.129-0.276,5.435-4.967,5.435
	c-4.691,0-4.97-0.305-4.97-5.435v-1.777c0-0.62,0.005-1.168,0.02-1.656c-4.152,1.918-7.044,6.173-7.044,11.117
	c0,0.16,0.014,0.315,0.021,0.472h-1.891c-0.565,0-1.027,0.461-1.027,1.029S12.606,57.815,13.174,57.815z M20.35,57.815h14.26
	c-0.476,6.184-3.346,12.232-7.747,12.232c-4.37,0-7.232-5.973-7.736-12.115C19.546,57.91,19.951,57.866,20.35,57.815z"/>
<g>
	<path fill="none" d="M104.995,96.338c4.357-0.488,8.006-1.701,9.911-3.366c0.091-1.532,0.364-6.841,0.068-11.109l2.216-0.153
		c0.277,3.979,0.081,8.68-0.029,10.766c3.864-0.033,5.101-1.528,5.375-1.961c0.492-10.862-7.846-15.127-8.572-15.479l-4.51-1.646
		l-7.218,4.089l-2.777-0.04l-7.251-4.047l-4.476,1.646c-0.054,0.025-0.163,0.082-0.297,0.154l0.973,0.355
		C88.563,75.617,101.146,81.605,104.995,96.338z"/>
	<path fill="none" d="M26.617,98.799c-0.445,0-0.884-0.008-1.32-0.021c-0.49,2.419-0.723,5.088-0.588,8.033
		c0.452,0.712,2.641,3.425,9.623,3.482c-0.151-2.524-0.377-7.183-0.353-12.181c-2.368,0.458-4.832,0.669-7.045,0.685
		C26.829,98.797,26.725,98.799,26.617,98.799z"/>
	<path fill="none" d="M100.683,98.799c-2.857,0-5.519-0.281-7.866-0.805c0.042,5.014-0.164,9.75-0.302,12.299
		c6.899-0.061,9.103-2.727,9.592-3.497c0.133-2.936-0.1-5.597-0.588-8.009c-0.173,0.003-0.349,0.009-0.519,0.01
		C100.895,98.797,100.79,98.799,100.683,98.799z"/>
	<path fill="none" d="M38.41,75.545l0.144-0.06l1.286-0.473l-4.451-1.624l-7.218,4.089l-2.777-0.04l-7.251-4.047l-4.476,1.646
		c-0.705,0.338-9.07,4.604-8.571,15.486c0.254,0.4,1.48,1.921,5.393,1.952c-0.123-2.06-0.337-6.659-0.074-10.688l2.217,0.145
		c-0.284,4.344,0.016,9.536,0.114,11.04c1.836,1.625,5.108,2.79,9.089,3.307C25.702,81.588,38.253,75.616,38.41,75.545z"/>
	<path fill="#FF0000" d="M45.916,77.002l2.073-0.762l12.94,7.219l4.957,0.076l12.879-7.3l2.741,1.001
		c1.166-1.325,2.358-2.313,3.32-3.001l-8.275-3.026l-10.577,6.187H60.78l-10.578-6.192l-7.69,2.827
		C43.462,74.683,44.695,75.661,45.916,77.002z"/>
	<path fill="#FF0000" d="M40.005,79.176l3.686-1.355c-1.797-1.77-3.483-2.637-3.792-2.786l-0.059-0.021l-1.286,0.473l-0.144,0.06
		c-0.157,0.071-12.708,6.043-16.575,20.733c1.271,0.165,2.61,0.266,4.003,0.291C29.237,84.64,38.998,79.66,40.005,79.176z"/>
	<path fill="#FF0000" d="M92.569,91.081l-3.956,0.275c0.066,0.947,0.116,1.923,0.153,2.911c1.128,0.58,2.483,1.065,4.011,1.438
		C92.739,94.145,92.674,92.584,92.569,91.081z"/>
	<path fill="#FF0000" d="M34.202,91.222c-0.099,1.515-0.159,3.073-0.191,4.626c1.489-0.313,2.839-0.721,3.998-1.208
		c0.034-1.067,0.082-2.127,0.149-3.16L34.202,91.222z"/>
	<path fill="#FF0000" d="M102.106,106.796c-0.489,0.771-2.692,3.437-9.592,3.497c0.138-2.549,0.344-7.285,0.302-12.299
		c-1.461-0.325-2.8-0.744-3.985-1.25c0.105,6.191-0.213,12.322-0.34,14.436c-4.401,3.846-14.006,6.351-24.838,6.431
		c-11.097,0.097-20.703-2.37-25.29-6.433c-0.137-2.057-0.48-7.987-0.406-14.138c-1.248,0.451-2.594,0.805-3.977,1.072
		c-0.025,4.998,0.201,9.656,0.353,12.181c-6.982-0.058-9.171-2.771-9.623-3.482c-0.135-2.945,0.098-5.614,0.588-8.033
		c-1.375-0.042-2.694-0.154-3.951-0.324c-0.523,2.72-0.759,5.702-0.574,8.98l0.018,0.295l0.1,0.275
		c0.099,0.269,2.427,6.261,13.667,6.261c0.417,0,0.851-0.013,1.294-0.029c5.327,4.624,15.357,7.342,27.262,7.342
		c0.189,0,0.379-0.002,0.569-0.003c9.339-0.064,21.194-2.047,27.329-7.338c12.313,0.456,14.811-5.954,14.913-6.233l0.103-0.274
		l0.017-0.295c0.184-3.256-0.048-6.219-0.563-8.923c-1.352,0.161-2.69,0.25-3.962,0.276
		C102.007,101.199,102.239,103.86,102.106,106.796z"/>
	<path fill="#FF0000" d="M83.716,78.044l3.098,1.131c1.037,0.5,10.772,5.486,14.165,17.4c0.002,0,0.004,0,0.006,0
		c1.383-0.01,2.726-0.094,4.011-0.237c-3.85-14.732-16.433-20.721-16.587-20.792l-0.973-0.355
		C86.784,75.539,85.278,76.443,83.716,78.044z"/>
	<path fill="#FF0000" d="M114.858,73.003l-6.647-2.432l-5.926,3.469h-2.91l-5.928-3.472l-6.529,2.399l-0.079,0.033
		c-0.029,0.014-0.854,0.406-2.014,1.234l2.61,0.955c0.134-0.072,0.243-0.129,0.297-0.154l4.476-1.646l7.251,4.047l2.777,0.04
		l7.218-4.089l4.51,1.646c0.727,0.353,9.064,4.617,8.572,15.479c-0.274,0.433-1.511,1.928-5.375,1.961
		c0.11-2.086,0.307-6.786,0.029-10.766l-2.216,0.153c0.296,4.269,0.022,9.577-0.068,11.109c-1.905,1.665-5.554,2.878-9.911,3.366
		c0.184,0.703,0.343,1.43,0.485,2.173c4.124-0.493,8.331-1.665,10.838-3.825c6.9,0.254,8.301-3.338,8.356-3.492l0.057-0.155
		l0.011-0.166C125.467,78.04,114.964,73.051,114.858,73.003z"/>
	<path fill="#FF0000" d="M100.984,96.575c-0.002,0-0.004,0-0.006,0c0.203,0.713,0.386,1.448,0.54,2.212
		c1.271-0.026,2.61-0.115,3.962-0.276c-0.143-0.743-0.302-1.47-0.485-2.173C103.71,96.481,102.367,96.565,100.984,96.575z"/>
	<path fill="#FF0000" d="M81.505,77.236l2.211,0.808c1.563-1.601,3.068-2.505,3.72-2.854l-2.61-0.955
		C83.863,74.923,82.671,75.911,81.505,77.236z"/>
	<path fill="#FF0000" d="M88.767,94.268c0.03,0.82,0.051,1.648,0.064,2.477c1.186,0.506,2.524,0.925,3.985,1.25
		c-0.006-0.759-0.02-1.523-0.039-2.288C91.25,95.333,89.895,94.848,88.767,94.268z"/>
	<path fill="#FF0000" d="M12.745,92.972c-0.099-1.504-0.398-6.696-0.114-11.04l-2.217-0.145c-0.263,4.028-0.049,8.628,0.074,10.688
		c-3.912-0.031-5.139-1.552-5.393-1.952c-0.499-10.883,7.866-15.148,8.571-15.486l4.476-1.646l7.251,4.047l2.777,0.04l7.218-4.089
		l4.451,1.624l2.672-0.982c-1.003-0.688-1.692-1.016-1.719-1.027l-6.647-2.432L28.22,74.04h-2.91l-5.928-3.472l-6.529,2.399
		l-0.079,0.033c-0.107,0.05-10.61,5.039-9.884,17.871l0.009,0.166l0.057,0.155C3.01,91.343,4.314,94.7,10.614,94.7
		c0.234,0,0.478-0.006,0.726-0.015c2.157,1.871,5.695,3.182,10.006,3.768c0.143-0.744,0.303-1.472,0.488-2.175
		C17.853,95.762,14.581,94.597,12.745,92.972z"/>
	<path fill="#FF0000" d="M39.898,75.034c0.309,0.149,1.995,1.017,3.792,2.786l2.225-0.818c-1.22-1.341-2.453-2.319-3.404-2.972
		l-2.672,0.982L39.898,75.034z"/>
	<path fill="#FF0000" d="M25.838,96.569c-1.393-0.025-2.733-0.126-4.003-0.291c-0.185,0.703-0.345,1.431-0.488,2.175
		c1.257,0.17,2.577,0.282,3.951,0.324C25.452,98.016,25.635,97.281,25.838,96.569z"/>
	<path fill="#FF0000" d="M34.011,95.848c-0.016,0.759-0.027,1.516-0.031,2.265c1.383-0.268,2.729-0.621,3.977-1.072
		c0.01-0.799,0.026-1.602,0.051-2.4C36.85,95.127,35.5,95.534,34.011,95.848z"/>
</g>
<path fill="#FF0000" d="M30.739,43.679c-0.038-0.824-0.13-1.373-0.359-1.63c-0.359-0.404-1.449-0.424-3.345-0.424
	c-1.869,0-2.99,0-3.352,0.398c-0.228,0.253-0.319,0.811-0.357,1.655c1.169-0.385,2.413-0.596,3.706-0.596
	C28.328,43.083,29.572,43.294,30.739,43.679z"/>
<path fill="#FF0000" d="M23.299,47.603c0,2.105,0,3.376,0.387,3.802c0.359,0.398,1.484,0.398,3.35,0.398
	c1.863,0,2.987,0,3.349-0.398c0.384-0.426,0.384-1.696,0.384-3.802v-1.777c0-0.858-0.002-1.568-0.029-2.146
	c-1.166-0.385-2.412-0.596-3.706-0.596c-1.293,0-2.537,0.211-3.706,0.596c-0.025,0.579-0.027,1.291-0.027,2.146V47.603
	L23.299,47.603z"/>
</svg>
