<?xml version="1.0" encoding="utf-8"?>
<!-- Generator: Adobe Illustrator 16.0.0, SVG Export Plug-In . SVG Version: 6.00 Build 0)  -->
<!DOCTYPE svg PUBLIC "-//W3C//DTD SVG 1.1//EN" "http://www.w3.org/Graphics/SVG/1.1/DTD/svg11.dtd">
<svg version="1.1" id="Calque_1" xmlns="http://www.w3.org/2000/svg" xmlns:xlink="http://www.w3.org/1999/xlink" x="0px" y="0px"
	 width="128px" height="128px" viewBox="0 0 128 128" enable-background="new 0 0 128 128" xml:space="preserve">
<g id="Calque_3_1_" display="none">
	<g id="Calque_3" display="inline">
		<g>
			<path fill="none" stroke="#FF0000" stroke-width="5" stroke-linecap="round" stroke-linejoin="round" stroke-miterlimit="10" d="
				M56.654,55.605c0,0.578-0.469,1.049-1.049,1.049H5.548c-0.579,0-1.048-0.471-1.048-1.049V5.548C4.5,4.969,4.969,4.5,5.548,4.5
				h50.058c0.58,0,1.049,0.469,1.049,1.048L56.654,55.605L56.654,55.605z"/>
			<circle fill="#FF0000" cx="16.424" cy="17.481" r="3.704"/>
			<line fill="none" stroke="#FF0000" stroke-width="4" stroke-miterlimit="10" x1="24.219" y1="17.48" x2="46.23" y2="17.48"/>
			<circle fill="#FF0000" cx="16.424" cy="30.577" r="3.704"/>
			<line fill="none" stroke="#FF0000" stroke-width="4" stroke-miterlimit="10" x1="24.219" y1="30.578" x2="46.23" y2="30.578"/>
			<circle fill="#FF0000" cx="16.424" cy="43.673" r="3.704"/>
			<line fill="none" stroke="#FF0000" stroke-width="4" stroke-miterlimit="10" x1="24.219" y1="43.672" x2="46.23" y2="43.672"/>
		</g>
	</g>
</g>
<g id="Calque_2_2_">
	
		<polygon fill="none" stroke="#FF0000" stroke-width="5" stroke-linecap="round" stroke-linejoin="round" stroke-miterlimit="10" points="
		7.734,30.095 7.734,95.94 64.737,121.986 120.266,93.483 120.266,33.529 64.001,6.014 	"/>
	
		<polyline fill="none" stroke="#FF0000" stroke-width="5" stroke-linecap="round" stroke-linejoin="round" stroke-miterlimit="10" points="
		23.813,37.76 64.001,54.168 64.001,106.885 	"/>
	
		<line fill="none" stroke="#FF0000" stroke-width="5" stroke-linecap="round" stroke-linejoin="round" stroke-miterlimit="10" x1="64.001" y1="54.168" x2="104.076" y2="38.659"/>
</g>
<path fill="#FF0000" d="M41.63,96.611c-0.02,0.651-0.217,1.138-0.568,1.466c-0.363,0.322-0.787,0.391-1.278,0.195l-14.279-5.595
	c-0.492-0.193-0.9-0.6-1.234-1.207c-0.328-0.615-0.478-1.251-0.457-1.901c0.02-0.639,0.207-1.107,0.564-1.425
	c0.363-0.313,0.787-0.373,1.279-0.182l5.433,2.13l0.898-27.809l-5.352-2.099c-0.49-0.191-0.9-0.588-1.23-1.177
	c-0.33-0.593-0.484-1.222-0.462-1.872c0.021-0.658,0.211-1.142,0.572-1.47c0.359-0.322,0.783-0.389,1.273-0.195l8.891,3.483
	L34.627,91.48l3.538,1.386C38.165,92.866,41.722,93.827,41.63,96.611z"/>
</svg>
