<?xml version="1.0" encoding="utf-8"?>
<!-- Generator: Adobe Illustrator 16.0.0, SVG Export Plug-In . SVG Version: 6.00 Build 0)  -->
<!DOCTYPE svg PUBLIC "-//W3C//DTD SVG 1.1//EN" "http://www.w3.org/Graphics/SVG/1.1/DTD/svg11.dtd">
<svg version="1.1" id="Calque_1" xmlns="http://www.w3.org/2000/svg" xmlns:xlink="http://www.w3.org/1999/xlink" x="0px" y="0px"
	 width="128px" height="128px" viewBox="0 0 128 128" enable-background="new 0 0 128 128" xml:space="preserve">
<g id="Calque_1_2_" display="none">
	<g id="Calque_1_1_" display="inline">
	</g>
	
		<line display="inline" fill="none" stroke="#FF0000" stroke-width="11" stroke-miterlimit="10" x1="5.1" y1="35.064" x2="58.226" y2="35.064"/>
	
		<line display="inline" fill="none" stroke="#FF0000" stroke-width="11" stroke-miterlimit="10" x1="58.226" y1="46.698" x2="86.372" y2="46.698"/>
	
		<line display="inline" fill="none" stroke="#FF0000" stroke-width="11" stroke-miterlimit="10" x1="17.83" y1="68.512" x2="45.601" y2="68.512"/>
	
		<line display="inline" fill="none" stroke="#FF0000" stroke-width="11" stroke-miterlimit="10" x1="45.601" y1="81.646" x2="68.682" y2="81.646"/>
	
		<line display="inline" fill="none" stroke="#FF0000" stroke-width="11" stroke-miterlimit="10" x1="67.805" y1="92.5" x2="113.844" y2="92.5"/>
	<path display="inline" fill="none" stroke="#FF0000" stroke-width="5" stroke-miterlimit="10" d="M124.111,105.398
		c0,3.594-2.688,6.509-6.006,6.509H11.022c-3.316,0-6.004-2.915-6.004-6.509V15.383c0-3.594,2.688-6.507,6.004-6.507h107.083
		c3.315,0,6.006,2.914,6.006,6.507V105.398z"/>
</g>
<g id="Calque_1_3_" display="none">
</g>
<g id="Calque_2_1_">
	<path fill="none" stroke="#FF0000" stroke-width="5" stroke-linecap="round" stroke-linejoin="round" stroke-miterlimit="10" d="
		M91.127,55.936c19.012,0,34.426,15.414,34.426,34.425c0,19.013-15.414,34.427-34.426,34.427c-19.014,0-34.425-15.414-34.425-34.427
		"/>
	
		<polyline fill="none" stroke="#FF0000" stroke-width="5" stroke-linecap="round" stroke-linejoin="round" stroke-miterlimit="10" points="
		72.469,92.825 91.514,92.825 107.59,76.75 	"/>
</g>
<g id="Calque_3" display="none">
	<g id="Calque_2" display="inline">
		<g>
			<g>
				
					<path fill="none" stroke="#FF0000" stroke-width="5" stroke-linecap="round" stroke-linejoin="round" stroke-miterlimit="10" d="
					M102.314,74.566c2.097-2.56,1.719-6.362-0.838-8.459c-2.563-2.099-6.369-1.717-8.463,0.84l2.211-2.699
					c2.098-2.559,1.719-6.365-0.843-8.462c-2.562-2.097-6.364-1.72-8.464,0.839l4.066-4.967c2.099-2.558,1.72-6.365-0.84-8.461
					c-2.561-2.097-6.365-1.719-8.463,0.84L97.898,23.03c2.096-2.559,1.719-6.366-0.84-8.463c-2.562-2.096-6.367-1.717-8.463,0.842
					L63.857,45.604l1.516-9.225c0.535-3.261-1.697-6.37-4.96-6.906c-3.265-0.536-6.372,1.696-6.908,4.959
					c0,0-19.643,43.707-11.642,50.261l16.662,13.647c8,6.558,28.286-4.852,28.545-5.172L102.314,74.566L102.314,74.566z"/>
				
					<rect x="21.373" y="90.455" transform="matrix(0.7735 0.6338 -0.6338 0.7735 73.9362 -5.974)" fill="none" stroke="#FF0000" stroke-width="5" stroke-linecap="round" stroke-linejoin="round" stroke-miterlimit="10" width="47.907" height="20.006"/>
			</g>
			<path fill="none" stroke="#FF0000" stroke-width="5" stroke-linecap="round" stroke-linejoin="round" stroke-miterlimit="10" d="
				M82.213,9.857c5-6.103,14.001-6.998,20.104-1.997c6.104,4.999,6.996,14.001,1.996,20.104"/>
		</g>
	</g>
</g>
<line id="line31" fill="none" stroke="#FF0000" stroke-width="12" stroke-miterlimit="10" x1="15.644" y1="18.167" x2="35.794" y2="18.167"/>
<line id="line33" fill="none" stroke="#FF0000" stroke-width="12" stroke-miterlimit="10" x1="35.005" y1="61.5" x2="58.577" y2="61.5"/>
<line id="line37" fill="none" stroke="#FF0000" stroke-width="12" stroke-miterlimit="10" x1="35.779" y1="37.552" x2="64.242" y2="37.552"/>
<path id="path2790" fill="none" stroke="#FF0000" d="M35.553,12.5L35.51,66.834"/>
<g id="Calque_2_2_">
</g>
<rect x="2.686" y="2.561" fill="none" stroke="#FF0000" stroke-width="5" stroke-miterlimit="10" width="74.212" height="74.212"/>
</svg>
