<?xml version="1.0" encoding="utf-8"?>
<!-- Generator: Adobe Illustrator 16.0.0, SVG Export Plug-In . SVG Version: 6.00 Build 0)  -->
<!DOCTYPE svg PUBLIC "-//W3C//DTD SVG 1.1//EN" "http://www.w3.org/Graphics/SVG/1.1/DTD/svg11.dtd">
<svg version="1.1" xmlns="http://www.w3.org/2000/svg" xmlns:xlink="http://www.w3.org/1999/xlink" x="0px" y="0px" width="128px"
	 height="128px" viewBox="0 0 128 128" enable-background="new 0 0 128 128" xml:space="preserve">
<g id="Calque_4">
	<g>
		<path fill="#FF0000" d="M60.899,24.378c8.197,0,14.714,2.143,19.561,6.427c4.843,4.285,7.265,9.272,7.265,14.962
			c0,3.15-0.89,6.131-2.668,8.941c-1.776,2.813-5.578,6.64-11.405,11.482c-3.014,2.509-4.885,4.523-5.613,6.047
			c-0.729,1.524-1.062,4.252-0.993,8.18H54.09c-0.034-1.861-0.05-2.997-0.05-3.403c0-4.2,0.694-7.655,2.082-10.364
			c1.388-2.709,4.167-5.758,8.332-9.146c4.167-3.386,6.658-5.605,7.471-6.656c1.251-1.658,1.879-3.487,1.879-5.487
			c0-2.776-1.11-5.156-3.327-7.138c-2.22-1.981-5.207-2.972-8.968-2.972L60.899,24.378z M54.09,99.623V85.348h14.277v14.275H54.09z"
			/>
	</g>
	<g>
		<path fill="none" stroke="#FF0000" stroke-width="5" stroke-linecap="round" stroke-linejoin="round" stroke-miterlimit="10" d="
			M6.341,64c0,13.789,4.906,26.431,13.065,36.28l1.649,20.488l20.12-4.302c6.788,2.86,14.247,4.442,22.075,4.442
			c31.43,0,56.908-25.479,56.908-56.909c0-31.43-25.479-56.909-56.908-56.909"/>
	</g>
</g>
<g id="Calque_2">
	<g id="Calque_2_1_">
		<g id="Calque_3_1_">
			<g>
				
					<path fill="none" stroke="#FF0000" stroke-width="5" stroke-linecap="round" stroke-linejoin="round" stroke-miterlimit="10" d="
					M56.654,55.605c0,0.578-0.469,1.049-1.049,1.049H5.548c-0.579,0-1.048-0.471-1.048-1.049V5.548C4.5,4.969,4.969,4.5,5.548,4.5
					h50.058c0.58,0,1.049,0.469,1.049,1.048V55.605L56.654,55.605z"/>
				<circle fill="#FF0000" cx="16.424" cy="17.481" r="3.704"/>
				<line fill="none" stroke="#FF0000" stroke-width="4" stroke-miterlimit="10" x1="24.219" y1="17.48" x2="46.23" y2="17.48"/>
				<circle fill="#FF0000" cx="16.424" cy="30.577" r="3.704"/>
				<line fill="none" stroke="#FF0000" stroke-width="4" stroke-miterlimit="10" x1="24.219" y1="30.578" x2="46.23" y2="30.578"/>
				<circle fill="#FF0000" cx="16.424" cy="43.673" r="3.704"/>
				<line fill="none" stroke="#FF0000" stroke-width="4" stroke-miterlimit="10" x1="24.219" y1="43.672" x2="46.23" y2="43.672"/>
			</g>
		</g>
	</g>
</g>
</svg>
