<?xml version="1.0" encoding="utf-8"?>
<!-- Generator: Adobe Illustrator 16.0.0, SVG Export Plug-In . SVG Version: 6.00 Build 0)  -->
<!DOCTYPE svg PUBLIC "-//W3C//DTD SVG 1.1//EN" "http://www.w3.org/Graphics/SVG/1.1/DTD/svg11.dtd">
<svg version="1.1" id="Calque_2" xmlns="http://www.w3.org/2000/svg" xmlns:xlink="http://www.w3.org/1999/xlink" x="0px" y="0px"
	 width="128px" height="128px" viewBox="0 0 128 128" enable-background="new 0 0 128 128" xml:space="preserve">
<line fill="none" stroke="#FF0000" stroke-width="5" stroke-miterlimit="10" x1="26.3" y1="15.313" x2="44.167" y2="15.313"/>
<line fill="none" stroke="#FF0000" stroke-width="5" stroke-miterlimit="10" x1="26.3" y1="26.833" x2="69.327" y2="26.833"/>
<g>
	<path fill="none" stroke="#FF0000" stroke-width="5" stroke-miterlimit="10" d="M80.168,22.5V3.235H23.036c-2.761,0-5,2.239-5,5
		v111.958c0,2.762,2.239,5,5,5h77.479c2.762,0,5-2.238,5-5V27.5H85.168C82.406,27.5,80.168,25.262,80.168,22.5z"/>
</g>
<line fill="none" stroke="#FF0000" stroke-width="5" stroke-linecap="round" stroke-linejoin="round" stroke-miterlimit="10" x1="81.841" y1="3.235" x2="105.516" y2="26.224"/>
<g>
	<path fill="none" stroke="#FF0000" stroke-width="5" stroke-linecap="round" stroke-linejoin="round" stroke-miterlimit="10" d="
		M79.217,57.859c0-6.134-5.023-11.156-11.156-11.156H51.602c-6.137,0-11.155,5.024-11.155,11.156v6.578
		c0,6.139,5.019,11.156,11.155,11.156h16.458c6.133,0,11.156,5.021,11.156,11.158v6.576c0,6.143-5.023,11.16-11.156,11.16H51.602
		c-6.137,0-11.155-5.021-11.155-11.16"/>
	
		<line fill="none" stroke="#FF0000" stroke-width="5" stroke-linecap="round" stroke-linejoin="round" stroke-miterlimit="10" x1="59.83" y1="46.703" x2="59.83" y2="35.339"/>
	
		<line fill="none" stroke="#FF0000" stroke-width="5" stroke-linecap="round" stroke-linejoin="round" stroke-miterlimit="10" x1="59.83" y1="115.853" x2="59.83" y2="104.487"/>
</g>
</svg>
