<?xml version="1.0" encoding="utf-8"?>
<!-- Generator: Adobe Illustrator 16.0.0, SVG Export Plug-In . SVG Version: 6.00 Build 0)  -->
<!DOCTYPE svg PUBLIC "-//W3C//DTD SVG 1.1//EN" "http://www.w3.org/Graphics/SVG/1.1/DTD/svg11.dtd">
<svg version="1.1" id="Calque_1" xmlns="http://www.w3.org/2000/svg" xmlns:xlink="http://www.w3.org/1999/xlink" x="0px" y="0px"
	 width="128px" height="128px" viewBox="0 0 128 128" enable-background="new 0 0 128 128" xml:space="preserve">
<path fill="none" stroke="#FF0000" stroke-width="5" stroke-miterlimit="10" d="M123.479,115.452c0,5.269-4.469,9.538-9.981,9.538
	H15.69c-5.512,0-9.98-4.27-9.98-9.538V14.36c0-5.268,4.468-9.537,9.98-9.537h97.808c5.513,0,9.981,4.27,9.981,9.537V115.452z"/>
<circle fill="#FF0000" cx="23.75" cy="21.25" r="7.25"/>
<circle fill="#FF0000" cx="44.75" cy="21.25" r="7.25"/>
<circle fill="#FF0000" cx="64" cy="21.25" r="7.25"/>
<line fill="none" stroke="#FF0000" stroke-width="5" stroke-miterlimit="10" x1="5.71" y1="34.5" x2="123.479" y2="34.5"/>
<g>
	<path fill="#FF0000" d="M55.375,101.461c0,0.841-0.284,1.543-0.851,2.11c-0.567,0.567-1.334,0.851-2.3,0.851
		c-1.219,0-2.164-0.524-2.835-1.575l-10.837-17.39h-1.134h-8.065v15.688c0,0.925-0.305,1.701-0.914,2.331
		c-0.609,0.63-1.397,0.945-2.363,0.945c-0.924,0-1.701-0.315-2.332-0.945c-0.63-0.63-0.945-1.406-0.945-2.331V58.49
		c0-0.966,0.315-1.753,0.945-2.363c0.63-0.608,1.407-0.914,2.332-0.914h11.341c3.108,0,5.891,0.652,8.348,1.953
		c2.458,1.303,4.368,3.13,5.734,5.481c1.364,2.353,2.048,5.042,2.048,8.065c0,2.983-0.756,5.63-2.269,7.939
		c-1.512,2.311-3.571,4.054-6.174,5.229l9.64,15.499C55.165,100.054,55.375,100.747,55.375,101.461z M37.418,79.408
		c2.856,0,5.208-0.809,7.057-2.426c1.848-1.616,2.772-3.707,2.772-6.27c0-2.771-0.924-5.041-2.772-6.805
		c-1.849-1.764-4.201-2.646-7.057-2.646h-8.065v18.146H37.418z"/>
	<path fill="#FF0000" d="M63.565,103.477c-0.63-0.63-0.945-1.406-0.945-2.331V58.49c0-0.966,0.315-1.753,0.945-2.363
		c0.63-0.608,1.407-0.914,2.331-0.914c0.967,0,1.754,0.305,2.363,0.914c0.607,0.609,0.914,1.397,0.914,2.363v18.083h29.234V58.49
		c0-0.966,0.314-1.753,0.945-2.363c0.631-0.608,1.406-0.914,2.332-0.914c0.922,0,1.689,0.305,2.299,0.914
		c0.609,0.609,0.914,1.397,0.914,2.363v42.656c0,0.967-0.305,1.754-0.914,2.362c-0.609,0.609-1.377,0.914-2.299,0.914
		c-0.926,0-1.701-0.315-2.332-0.945s-0.945-1.406-0.945-2.331V82.369H69.174v18.776c0,0.925-0.307,1.701-0.914,2.331
		c-0.609,0.63-1.396,0.945-2.363,0.945C64.973,104.422,64.196,104.106,63.565,103.477z"/>
</g>
</svg>
