<?xml version="1.0" encoding="utf-8"?>
<!-- Generator: Adobe Illustrator 16.0.0, SVG Export Plug-In . SVG Version: 6.00 Build 0)  -->
<!DOCTYPE svg PUBLIC "-//W3C//DTD SVG 1.1//EN" "http://www.w3.org/Graphics/SVG/1.1/DTD/svg11.dtd">
<svg version="1.1" id="Calque_1" xmlns="http://www.w3.org/2000/svg" xmlns:xlink="http://www.w3.org/1999/xlink" x="0px" y="0px"
	 width="128px" height="128px" viewBox="0 0 128 128" enable-background="new 0 0 128 128" xml:space="preserve">
<g id="Layer_1" xmlns:svg="http://www.w3.org/2000/svg" xmlns:inkscape="http://www.inkscape.org/namespaces/inkscape" xmlns:rdf="http://www.w3.org/1999/02/22-rdf-syntax-ns#" xmlns:sodipodi="http://sodipodi.sourceforge.net/DTD/sodipodi-0.dtd" xmlns:cc="http://creativecommons.org/ns#" xmlns:dc="http://purl.org/dc/elements/1.1/" sodipodi:docname="iconTicketDashboard.svg" inkscape:version="1.0 (4035a4fb49, 2020-05-01)">
	
		<sodipodi:namedview  bordercolor="#666666" borderopacity="1" inkscape:cx="128" guidetolerance="10" showgrid="false" inkscape:zoom="2.8710938" pagecolor="#ffffff" gridtolerance="10" inkscape:cy="128" id="namedview13" objecttolerance="10" inkscape:window-x="-8" inkscape:window-width="1920" inkscape:window-height="1017" inkscape:pageopacity="0" inkscape:current-layer="Layer_1" inkscape:pageshadow="2" inkscape:window-y="-8" inkscape:window-maximized="1">
		</sodipodi:namedview>
</g>
<polyline fill="none" stroke="#FF0000" stroke-width="5" stroke-linecap="round" stroke-linejoin="round" stroke-miterlimit="10" points="
	64.493,43.235 49.165,49.393 37.775,21.041 66.125,9.654 66.813,11.368 "/>
<polyline fill="none" stroke="#FF0000" stroke-width="5" stroke-linecap="round" stroke-linejoin="round" stroke-miterlimit="10" points="
	103.029,62.567 109.829,79.491 68.223,96.21 52.373,56.76 69.21,49.995 "/>
<line fill="none" stroke="#FF0000" stroke-width="5" stroke-linecap="round" stroke-linejoin="round" stroke-miterlimit="10" x1="81.232" y1="109.79" x2="122.411" y2="93.419"/>
<polyline fill="none" stroke="#FF0000" stroke-width="5" stroke-linecap="round" stroke-linejoin="round" stroke-miterlimit="10" points="
	2.499,8.44 26.426,19.209 59.091,98.268 "/>
<path fill="none" stroke="#FF0000" stroke-width="5" stroke-miterlimit="10" d="M74.291,114.178c0,5.586-4.529,10.108-10.108,10.108
	c-5.583,0-10.109-4.522-10.109-10.108c0-5.578,4.525-10.105,10.109-10.105C69.762,104.07,74.291,108.6,74.291,114.178z"/>
<polygon fill="#FF0000" points="48.894,35.209 55.34,32.804 57.22,37.844 66.813,26.223 51.952,23.721 53.832,28.759 47.387,31.162 
	"/>
<g>
	
		<circle fill="none" stroke="#FF0000" stroke-width="5" stroke-linecap="round" stroke-linejoin="round" stroke-miterlimit="10" cx="94.939" cy="29.523" r="26.044"/>
	
		<polyline fill="#FFFFFF" stroke="#FF0000" stroke-width="5" stroke-linecap="round" stroke-linejoin="round" stroke-miterlimit="10" points="
		81.82,29.523 90.742,43.235 108.061,20.522 	"/>
</g>
</svg>
