<?xml version="1.0" encoding="utf-8"?>
<!-- Generator: Adobe Illustrator 16.0.0, SVG Export Plug-In . SVG Version: 6.00 Build 0)  -->
<!DOCTYPE svg PUBLIC "-//W3C//DTD SVG 1.1//EN" "http://www.w3.org/Graphics/SVG/1.1/DTD/svg11.dtd">
<svg version="1.1" id="Calque_1" xmlns:serif="http://www.serif.com/"
	 xmlns="http://www.w3.org/2000/svg" xmlns:xlink="http://www.w3.org/1999/xlink" x="0px" y="0px" width="128px" height="128px"
	 viewBox="0 0 128 128" enable-background="new 0 0 128 128" xml:space="preserve">
<path fill="none" stroke="#FF0000" stroke-width="5" stroke-linecap="round" stroke-linejoin="round" stroke-miterlimit="10" d="
	M56.398,125.253c-27.473,0-49.826-22.354-49.826-49.823c0-27.477,22.353-49.828,49.826-49.828c27.475,0,49.827,22.352,49.827,49.828
	C106.225,102.898,83.873,125.253,56.398,125.253z"/>
<path fill="none" stroke="#FF0000" stroke-width="5" stroke-linecap="round" stroke-linejoin="round" stroke-miterlimit="10" d="
	M56.398,111.898c-20.11,0-36.475-16.361-36.475-36.473c0-20.111,16.365-36.475,36.475-36.475c20.111,0,36.474,16.364,36.474,36.475
	C92.869,95.541,76.509,111.898,56.398,111.898z"/>
<g>
	<path fill="#FF0000" d="M56.398,57.985c9.618,0,17.443,7.824,17.443,17.442c0,9.615-7.825,17.441-17.443,17.441
		c-9.617,0-17.44-7.826-17.44-17.441C38.956,65.813,46.781,57.985,56.398,57.985 M56.398,52.305
		c-12.749,0-23.119,10.372-23.119,23.122c0,12.745,10.371,23.12,23.119,23.12c12.749,0,23.124-10.373,23.124-23.12
		C79.521,62.677,69.146,52.305,56.398,52.305z"/>
</g>
<circle fill="#FF0000" cx="56.398" cy="75.429" r="9.768"/>
<path fill="none" stroke="#FF0000" stroke-width="5" stroke-linecap="round" stroke-linejoin="round" stroke-miterlimit="10" d="
	M56.398,75.43l59.899-59.903"/>
<path fill="none" stroke="#FF0000" stroke-width="2" stroke-linecap="round" stroke-linejoin="round" stroke-miterlimit="10" d="
	M107.277,38.023l-13.354-0.12l17.498-17.5l13.356,0.122L107.277,38.023z"/>
<path fill="none" stroke="#FF0000" stroke-width="2" stroke-linecap="round" stroke-linejoin="round" stroke-miterlimit="10" d="
	M93.801,24.548l0.122,13.355l17.498-17.5L111.3,7.048L93.801,24.548z"/>
</svg>
