<?xml version="1.0" encoding="utf-8"?>
<!-- Generator: Adobe Illustrator 16.0.0, SVG Export Plug-In . SVG Version: 6.00 Build 0)  -->
<!DOCTYPE svg PUBLIC "-//W3C//DTD SVG 1.1//EN" "http://www.w3.org/Graphics/SVG/1.1/DTD/svg11.dtd">
<svg version="1.1" id="Calque_1" xmlns="http://www.w3.org/2000/svg" xmlns:xlink="http://www.w3.org/1999/xlink" x="0px" y="0px"
	 width="128px" height="128px" viewBox="0 0 128 128" enable-background="new 0 0 128 128" xml:space="preserve">
<g id="Calque_2" display="none">
</g>
<g>
	<path fill="none" stroke="#FF0000" stroke-width="5" stroke-linecap="round" stroke-linejoin="round" stroke-miterlimit="10" d="
		M98.398,60.832C75.589,79.025,73.98,85.596,73.98,85.596V44.46h8.718L64.064,19.111L45.43,44.46h8.718v41.135
		c0,0-1.609-6.57-24.417-24.764"/>
	<path fill="none" stroke="#FF0000" stroke-width="5" stroke-linecap="round" stroke-linejoin="round" stroke-miterlimit="10" d="
		M29.497,60.686l3.771-6.067L2.177,57.235l11.391,29.08l4.306-6.928l1.133,0.657c0,0,15.357,4.786,35.275,35.002v7.453"/>
	<path fill="none" stroke="#FF0000" stroke-width="5" stroke-linecap="round" stroke-linejoin="round" stroke-miterlimit="10" d="
		M98.631,60.686l-3.771-6.067l31.091,2.617l-11.389,29.08l-4.307-6.928l-1.133,0.657c0,0-15.355,4.786-35.275,35.002v7.453"/>
</g>
</svg>
