<?xml version="1.0" encoding="utf-8"?>
<!-- Generator: Adobe Illustrator 16.0.0, SVG Export Plug-In . SVG Version: 6.00 Build 0)  -->
<!DOCTYPE svg PUBLIC "-//W3C//DTD SVG 1.1//EN" "http://www.w3.org/Graphics/SVG/1.1/DTD/svg11.dtd">
<svg version="1.1" id="Calque_1" xmlns="http://www.w3.org/2000/svg" xmlns:xlink="http://www.w3.org/1999/xlink" x="0px" y="0px"
	 width="128px" height="128px" viewBox="0 0 128 128" enable-background="new 0 0 128 128" xml:space="preserve">
<g id="Calque_3">
	<g id="Calque_3_2_">
		
			<line fill="none" stroke="#FF0000" stroke-width="5" stroke-linecap="round" stroke-linejoin="round" stroke-miterlimit="10" x1="121.216" y1="19.674" x2="101.384" y2="91.324"/>
		
			<line fill="none" stroke="#FF0000" stroke-width="5" stroke-linecap="round" stroke-linejoin="round" stroke-miterlimit="10" x1="50.384" y1="104.71" x2="83.977" y2="114.008"/>
		<circle fill="none" stroke="#FF0000" stroke-width="5" stroke-miterlimit="10" cx="102.65" cy="110.826" r="13.01"/>
	</g>
</g>
<g>
	<g>
		<path fill="none" stroke="#FF0000" stroke-width="5" stroke-linecap="round" stroke-linejoin="round" stroke-miterlimit="10" d="
			M47.806,48.695c-2.534,0-4.588-2.055-4.588-4.589l0,0c0-2.535,2.053-4.589,4.588-4.589h6.679c2.535,0,4.592,2.054,4.592,4.589l0,0
			"/>
		<path fill="none" stroke="#FF0000" stroke-width="5" stroke-linecap="round" stroke-linejoin="round" stroke-miterlimit="10" d="
			M47.806,48.695h6.679c2.535,0,4.592,2.054,4.592,4.588l0,0c0,2.535-2.057,4.591-4.592,4.591h-6.679
			c-2.534,0-4.588-2.056-4.588-4.591"/>
	</g>
	
		<line fill="none" stroke="#FF0000" stroke-width="5" stroke-linecap="round" stroke-linejoin="round" stroke-miterlimit="10" x1="51.148" y1="39.517" x2="51.148" y2="35.236"/>
	
		<line fill="none" stroke="#FF0000" stroke-width="5" stroke-linecap="round" stroke-linejoin="round" stroke-miterlimit="10" x1="51.148" y1="62.152" x2="51.148" y2="57.874"/>
</g>
<path fill="none" stroke="#FF0000" stroke-width="5" stroke-miterlimit="10" d="M78.456,22.994H23.838
	c0,9.326-6.268,15.687-14,15.687v1v19.448c0.713-0.135,1.44-0.226,2.185-0.226c7.731,0,13.999,3.563,13.999,12.888
	c0,0.77-0.057,1.518-0.139,2.26h52.713c-0.082-0.742-0.14-1.49-0.14-2.26c0-9.325,6.269-12.888,13.999-12.888V38.681
	C84.725,38.68,78.456,32.321,78.456,22.994z"/>
<path fill="none" stroke="#FF0000" stroke-width="5" stroke-miterlimit="10" d="M80.764,31.905"/>
<path fill="none" stroke="#FF0000" stroke-width="5" stroke-miterlimit="10" d="M80.764,31.905"/>
<path fill="none" stroke="#FF0000" stroke-width="5" stroke-miterlimit="10" d="M92.456,73.009c0,0.767-0.621,1.388-1.388,1.388
	H11.225c-0.766,0-1.387-0.621-1.387-1.388V24.38c0-0.766,0.621-1.387,1.387-1.387h79.843c0.767,0,1.388,0.621,1.388,1.387V73.009z"
	/>
</svg>
