<?xml version="1.0" encoding="utf-8"?>
<!-- Generator: Adobe Illustrator 16.0.0, SVG Export Plug-In . SVG Version: 6.00 Build 0)  -->
<!DOCTYPE svg PUBLIC "-//W3C//DTD SVG 1.1//EN" "http://www.w3.org/Graphics/SVG/1.1/DTD/svg11.dtd">
<svg version="1.1" id="Calque_3_3_" xmlns="http://www.w3.org/2000/svg" xmlns:xlink="http://www.w3.org/1999/xlink" x="0px"
	 y="0px" width="128px" height="128px" viewBox="0 0 128 128" enable-background="new 0 0 128 128" xml:space="preserve">
<g>
	<path fill="none" stroke="#FF0000" stroke-width="5" stroke-linecap="round" stroke-linejoin="round" d="M4.143,122.015
		c-0.557-0.935-0.848-3.574,1.054-5.024l70.475-51.787L5.197,13.298c-1.002-0.856-1.506-1.832-1.506-2.921
		c0-1.327,0.719-2.416,2.164-3.277c1.438-0.855,3.167-1.284,5.169-1.284h103.922c2.134,0,8.679,0,8.679,7.925
		c0,6.672-6.545,6.193-8.679,6.193H43.808l59.088,42.23c1.124,0.779,1.691,1.793,1.691,3.039c0,1.171-0.567,2.104-1.691,2.808
		l-54.088,40.344h66.139c2.134,0,8.679,0.271,8.679,8.396c0,8.688-6.545,7.837-8.679,7.837H12.34
		C9.579,124.587,5.839,124.861,4.143,122.015z"/>
</g>
</svg>
