<?xml version="1.0" encoding="utf-8"?>
<!-- Generator: Adobe Illustrator 16.0.0, SVG Export Plug-In . SVG Version: 6.00 Build 0)  -->
<!DOCTYPE svg PUBLIC "-//W3C//DTD SVG 1.1//EN" "http://www.w3.org/Graphics/SVG/1.1/DTD/svg11.dtd">
<svg version="1.1" xmlns="http://www.w3.org/2000/svg" xmlns:xlink="http://www.w3.org/1999/xlink" x="0px" y="0px" width="128px"
	 height="128px" viewBox="0 0 128 128" enable-background="new 0 0 128 128" xml:space="preserve">
<g id="Calque_2_2_" display="none">
	<g id="Calque_2_1_" display="inline">
		<path fill="none" stroke="#FF0000" stroke-width="5" stroke-linecap="round" stroke-linejoin="round" stroke-miterlimit="10" d="
			M35.238,54.231v14.414h4.476"/>
		<path fill="none" stroke="#FF0000" stroke-width="5" stroke-linecap="round" stroke-linejoin="round" stroke-miterlimit="10" d="
			M90.762,41.167V10.472c0-2.573-2.107-4.677-4.682-4.677H35.238v48.438h13.596"/>
		<path fill="none" stroke="#FF0000" stroke-width="5" stroke-linecap="round" stroke-linejoin="round" stroke-miterlimit="10" d="
			M41.131,81.764h-5.893v9.049h5.792"/>
		<path fill="none" stroke="#FF0000" stroke-width="5" stroke-linecap="round" stroke-linejoin="round" stroke-miterlimit="10" d="
			M35.238,5.795"/>
		<path fill="none" stroke="#FF0000" stroke-width="5" stroke-linecap="round" stroke-linejoin="round" stroke-miterlimit="10" d="
			M39.714,68.645"/>
		<path fill="none" stroke="#FF0000" stroke-width="5" stroke-linecap="round" stroke-linejoin="round" stroke-miterlimit="10" d="
			M39.714,81.764"/>
		<path fill="none" stroke="#FF0000" stroke-width="5" stroke-linecap="round" stroke-linejoin="round" stroke-miterlimit="10" d="
			M39.714,90.813"/>
		
			<line fill="none" stroke="#FF0000" stroke-width="5" stroke-linecap="round" stroke-linejoin="round" stroke-miterlimit="10" x1="35.238" y1="56.783" x2="35.238" y2="5.795"/>
		<path fill="none" stroke="#FF0000" stroke-width="5" stroke-linecap="round" stroke-linejoin="round" stroke-miterlimit="10" d="
			M5.04,90.049c0,0.422,0.342,0.764,0.763,0.764h19.051c0.42,0,0.763-0.342,0.763-0.764V6.556c0-0.421-0.343-0.761-0.763-0.761
			H5.803c-0.421,0-0.763,0.34-0.763,0.761V90.049z"/>
		<circle fill="#FF0000" cx="14.756" cy="77.476" r="4.763"/>
	</g>
</g>
<g id="Calque_1">
	
		<g id="svg15" xmlns:svg="http://www.w3.org/2000/svg" xmlns:inkscape="http://www.inkscape.org/namespaces/inkscape" xmlns:rdf="http://www.w3.org/1999/02/22-rdf-syntax-ns#" xmlns:sodipodi="http://sodipodi.sourceforge.net/DTD/sodipodi-0.dtd" xmlns:cc="http://creativecommons.org/ns#" xmlns:dc="http://purl.org/dc/elements/1.1/" sodipodi:docname="iconKanban.svg" inkscape:version="1.0 (4035a4fb49, 2020-05-01)" display="none">
		
			<sodipodi:namedview  bordercolor="#666666" borderopacity="1" inkscape:cx="24.979592" guidetolerance="10" showgrid="false" inkscape:zoom="15.3125" pagecolor="#ffffff" gridtolerance="10" inkscape:cy="24" id="namedview17" objecttolerance="10" inkscape:window-x="-8" inkscape:window-width="1920" inkscape:window-height="1017" inkscape:pageopacity="0" inkscape:document-rotation="0" inkscape:current-layer="svg15" inkscape:pageshadow="2" inkscape:window-y="-8" inkscape:window-maximized="1">
			</sodipodi:namedview>
		<title  id="title6"></title>
		<path id="path844" display="inline" fill="none" stroke="#FF0000" stroke-width="5" stroke-miterlimit="10" d="M112.042,121.777
			c0.752-0.188,2.103-0.704,3.002-1.148c1.379-0.68,1.89-1.057,3.209-2.37c1.313-1.319,1.69-1.827,2.371-3.21
			c0.444-0.898,0.961-2.25,1.149-3c0.336-1.348,0.343-2.012,0.343-47.994c0-52.565,0.137-47.7-1.414-50.914
			c-0.765-1.586-1.062-1.995-2.449-3.384c-1.394-1.391-1.801-1.687-3.387-2.451C111.65,5.755,116.512,5.89,64,5.89
			c-52.511,0-47.652-0.134-50.865,1.416C11.548,8.07,11.14,8.366,9.75,9.757c-1.391,1.389-1.687,1.798-2.451,3.384
			c-1.549,3.214-1.415-1.646-1.415,50.865c0,52.512-0.134,47.65,1.415,50.868c0.763,1.584,1.06,1.991,2.442,3.377
			c1.326,1.322,1.834,1.699,3.214,2.379c0.901,0.444,2.22,0.955,2.932,1.144c1.262,0.322,2.415,0.332,48.042,0.338
			C110.046,122.121,110.698,122.115,112.042,121.777z"/>
		<path id="path846" display="inline" fill="none" stroke="#FF0000" stroke-width="5" stroke-miterlimit="10" d="M41.958,92.074
			c0.467-0.229,0.876-0.605,1.123-1.049l0.389-0.691V54.149V17.96l-0.4-0.588c-0.219-0.323-0.626-0.755-0.902-0.96
			c-0.495-0.368-0.648-0.374-12.094-0.421l-11.592-0.048l-0.801,0.404c-0.586,0.296-0.908,0.617-1.201,1.198l-0.4,0.794
			l0.004,35.844c0.003,34.574,0.016,35.872,0.335,36.576c0.304,0.671,0.96,1.296,1.617,1.546c0.147,0.053,5.424,0.104,11.727,0.11
			C40.875,92.432,41.246,92.42,41.958,92.074z"/>
		<path id="path846_1_" display="inline" fill="none" stroke="#FF0000" stroke-width="5" stroke-miterlimit="10" d="M74.559,112.367
			c0.467-0.077,0.875-0.204,1.123-0.354l0.389-0.233V99.586V87.389l-0.399-0.197c-0.219-0.108-0.625-0.254-0.901-0.323
			c-0.494-0.123-0.647-0.125-12.094-0.142l-11.592-0.018l-0.801,0.137c-0.586,0.1-0.908,0.209-1.201,0.404l-0.4,0.268l0.004,12.08
			c0.003,11.651,0.016,12.09,0.335,12.326c0.304,0.227,0.96,0.438,1.617,0.521c0.147,0.019,5.424,0.035,11.727,0.037
			C73.475,112.486,73.846,112.482,74.559,112.367z"/>
		<path id="path848" display="inline" fill="none" stroke="#FF0000" stroke-width="5" stroke-miterlimit="10" d="M108.916,56.576
			c0.271-0.205,0.686-0.637,0.898-0.96l0.4-0.589V36.493V17.959l-0.4-0.588c-0.217-0.323-0.627-0.755-0.898-0.96
			c-0.498-0.368-0.646-0.374-12.094-0.421l-11.594-0.048l-0.803,0.404c-0.584,0.296-0.908,0.617-1.199,1.198l-0.398,0.794v18.154
			v18.155l0.398,0.794c0.293,0.581,0.615,0.901,1.199,1.196l0.803,0.403l11.594-0.047C108.27,56.947,108.418,56.943,108.916,56.576z
			"/>
	</g>
	<path fill="none" stroke="#FF0000" stroke-width="5" stroke-miterlimit="10" d="M37,91.558H14.752
		c-5.981,0-10.832-4.849-10.832-10.831v-65.35c0-5.981,4.85-10.832,10.832-10.832h65.35c5.982,0,10.831,4.85,10.831,10.832V36.5"/>
	
		<path fill="none" stroke="#FF0000" stroke-width="5" stroke-linecap="round" stroke-linejoin="round" stroke-miterlimit="10" stroke-dasharray="2,8" d="
		M36.236,75.323c0,2.229-1.808,4.037-4.037,4.037h-14.04c-2.229,0-4.037-1.809-4.037-4.037V20.78c0-2.229,1.807-4.037,4.037-4.037
		h14.04c2.229,0,4.037,1.808,4.037,4.037V75.323z"/>
</g>
<g id="Calque_3">
	
		<g id="svg15_1_" xmlns:svg="http://www.w3.org/2000/svg" xmlns:inkscape="http://www.inkscape.org/namespaces/inkscape" xmlns:rdf="http://www.w3.org/1999/02/22-rdf-syntax-ns#" xmlns:sodipodi="http://sodipodi.sourceforge.net/DTD/sodipodi-0.dtd" xmlns:cc="http://creativecommons.org/ns#" xmlns:dc="http://purl.org/dc/elements/1.1/" sodipodi:docname="iconKanban.svg" inkscape:version="1.0 (4035a4fb49, 2020-05-01)">
		
			<sodipodi:namedview  bordercolor="#666666" borderopacity="1" inkscape:cx="24.979592" guidetolerance="10" showgrid="false" inkscape:zoom="15.3125" pagecolor="#ffffff" gridtolerance="10" inkscape:cy="24" id="namedview17" objecttolerance="10" inkscape:window-x="-8" inkscape:window-width="1920" inkscape:window-height="1017" inkscape:pageopacity="0" inkscape:document-rotation="0" inkscape:current-layer="svg15" inkscape:pageshadow="2" inkscape:window-y="-8" inkscape:window-maximized="1">
			</sodipodi:namedview>
		<title  id="title6"></title>
		<g>
			<path fill="#FF0000" d="M80.264,109.997c-1.072-1.071-1.606-2.42-1.606-4.047V91.096H63.8c-1.627,0-2.977-0.556-4.047-1.664
				c-1.072-1.106-1.607-2.476-1.607-4.103c0-1.625,0.535-2.976,1.607-4.047c1.07-1.07,2.42-1.607,4.047-1.607h14.854V64.818
				c0-1.551,0.57-2.881,1.719-3.99c1.146-1.108,2.457-1.663,3.938-1.663c1.623,0,2.974,0.537,4.045,1.608
				c1.07,1.072,1.607,2.421,1.607,4.045v14.854h14.854c1.554,0,2.9,0.556,4.047,1.664c1.146,1.106,1.72,2.478,1.72,4.103
				c0,1.553-0.571,2.884-1.72,3.99c-1.146,1.108-2.493,1.663-4.047,1.663H89.963v14.855c0,1.627-0.537,2.976-1.607,4.047
				c-1.071,1.071-2.422,1.606-4.045,1.606C82.684,111.604,81.332,111.068,80.264,109.997z"/>
		</g>
		<circle fill="none" stroke="#FF0000" stroke-width="5" stroke-miterlimit="10" cx="84.253" cy="85.384" r="37.729"/>
		<g id="Calque_1_1_" display="none">
		</g>
	</g>
</g>
</svg>
