<?xml version="1.0" encoding="utf-8"?>
<!-- Generator: Adobe Illustrator 16.0.0, SVG Export Plug-In . SVG Version: 6.00 Build 0)  -->
<!DOCTYPE svg PUBLIC "-//W3C//DTD SVG 1.1//EN" "http://www.w3.org/Graphics/SVG/1.1/DTD/svg11.dtd">
<svg version="1.1" xmlns="http://www.w3.org/2000/svg" xmlns:xlink="http://www.w3.org/1999/xlink" x="0px" y="0px" width="128px"
	 height="128px" viewBox="0 0 128 128" enable-background="new 0 0 128 128" xml:space="preserve">
<g id="Calque_2">
	<g>
		<g>
			<path fill="none" stroke="#FF0000" stroke-width="5" stroke-linecap="round" stroke-linejoin="round" stroke-miterlimit="10" d="
				M64.124,18.548c-31.972,0-57.892,20.07-57.892,44.829c0,13.12,7.282,24.922,18.885,33.12h-0.004v25.349l17.004-17.004
				c6.786,2.162,14.213,3.362,22.006,3.362c31.974,0,57.892-20.069,57.892-44.827C122.016,38.618,96.098,18.548,64.124,18.548z"/>
		</g>
	</g>
	<text transform="matrix(1 0 0 1 64.124 87.9131)" fill="#FF0000" font-family="'Comfortaa-Regular'" font-size="55.6784">A</text>
</g>
<g id="Calque_3">
	
		<line fill="none" stroke="#FF0000" stroke-width="5" stroke-linecap="round" stroke-linejoin="round" stroke-miterlimit="10" x1="23.495" y1="44.336" x2="64.119" y2="44.336"/>
	<path fill="none" stroke="#FF0000" stroke-width="5" stroke-linecap="round" stroke-linejoin="round" stroke-miterlimit="10" d="
		M31.951,44.336c0,0,1.286,20.405,25.917,28.308"/>
	<path fill="none" stroke="#FF0000" stroke-width="5" stroke-linecap="round" stroke-linejoin="round" stroke-miterlimit="10" d="
		M56.031,44.336c0,0-0.184,22.794-31.433,31.249"/>
	
		<line fill="none" stroke="#FF0000" stroke-width="5" stroke-linecap="round" stroke-linejoin="round" stroke-miterlimit="10" x1="43.807" y1="36.432" x2="47.391" y2="44.336"/>
</g>
</svg>
