<?xml version="1.0" encoding="utf-8"?>
<!-- Generator: Adobe Illustrator 16.0.0, SVG Export Plug-In . SVG Version: 6.00 Build 0)  -->
<!DOCTYPE svg PUBLIC "-//W3C//DTD SVG 1.1//EN" "http://www.w3.org/Graphics/SVG/1.1/DTD/svg11.dtd">
<svg version="1.1" id="Calque_1" xmlns="http://www.w3.org/2000/svg" xmlns:xlink="http://www.w3.org/1999/xlink" x="0px" y="0px"
	 width="128px" height="128px" viewBox="0 0 128 128" enable-background="new 0 0 128 128" xml:space="preserve">
<path fill="#FF0000" d="M25.626,58.604c0-6.211,1.954-12.062,5.396-17.198c0.018-0.005,0.037-0.007,0.055-0.012
	C14.351,45.42,2.18,57.676,2.18,72.171c0,12.849,9.582,23.902,23.379,29.065c-0.274,0.557-0.515,1.129-0.83,1.668
	c-2.698,4.527-6.65,7.955-11.351,10.264c10.418,0.746,20.064-2.372,26.431-8.943c1.062,0.063,2.128,0.131,3.211,0.131
	c10.886,0,20.749-3.381,28.066-8.854C45.858,94.923,25.626,78.641,25.626,58.604z"/>
<path fill="#1A1A1A" d="M71.121,95.501c0.082-0.063,0.152-0.132,0.234-0.194c-0.088,0.067-0.185,0.129-0.271,0.191
	C71.1,95.498,71.109,95.501,71.121,95.501z"/>
<path fill="none" stroke="#FF0000" stroke-width="5" stroke-miterlimit="10" d="M79.001,87.366c0.853-0.024,1.706-0.046,2.547-0.103
	c7.306,7.53,18.371,11.107,30.326,10.256c-5.394-2.646-9.931-6.574-13.024-11.771c-0.354-0.618-0.641-1.277-0.949-1.914
	c15.828-5.92,26.818-18.604,26.818-33.346c0-20.388-20.977-36.915-46.854-36.915c-21.723,0-39.937,11.675-45.227,27.489
	 M32.634,41.077c-1.006,3.011-1.595,6.154-1.595,9.413c0,20.396,20.962,36.924,46.826,36.924c0.371,0,0.729-0.034,1.095-0.045
	 M57.571,57.741c-3.64,0-6.583-2.951-6.583-6.573c0-1.479,0.507-2.831,1.332-3.93c0.012-0.016,0.027-0.032,0.039-0.047
	c0.226-0.294,0.466-0.571,0.736-0.823c0.059-0.056,0.125-0.1,0.183-0.151c0.24-0.208,0.479-0.406,0.745-0.578
	c0.127-0.083,0.268-0.143,0.402-0.219c0.218-0.118,0.432-0.245,0.664-0.341c0.219-0.088,0.451-0.145,0.682-0.212
	c0.171-0.049,0.333-0.116,0.51-0.151c0.417-0.083,0.848-0.129,1.292-0.129c0.442,0,0.873,0.047,1.287,0.129
	c0.161,0.034,0.305,0.093,0.459,0.139c0.248,0.069,0.5,0.129,0.734,0.228c0.208,0.084,0.396,0.2,0.593,0.307
	c0.161,0.085,0.326,0.159,0.476,0.257c0.239,0.156,0.454,0.337,0.669,0.522c0.086,0.071,0.179,0.136,0.257,0.212
	c0.248,0.234,0.469,0.491,0.679,0.758c0.032,0.04,0.067,0.076,0.096,0.118c0.23,0.308,0.426,0.638,0.601,0.983
	c0.001,0.004,0.005,0.011,0.008,0.016c0.439,0.884,0.71,1.862,0.71,2.913C64.141,54.79,61.191,57.741,57.571,57.741z M79.333,57.522
	c-0.515,0.129-1.042,0.219-1.595,0.219c-3.643,0-6.586-2.951-6.586-6.573c0-0.711,0.143-1.383,0.351-2.025
	c0.228-0.694,0.556-1.336,0.983-1.907c0.009-0.014,0.02-0.024,0.029-0.038c0.229-0.296,0.473-0.578,0.746-0.832
	c0.053-0.051,0.11-0.091,0.168-0.14c0.239-0.21,0.487-0.413,0.76-0.587c0.119-0.08,0.254-0.138,0.381-0.207
	c0.227-0.125,0.447-0.257,0.686-0.353c0.215-0.088,0.441-0.143,0.666-0.207c0.178-0.051,0.344-0.118,0.525-0.156
	c0.416-0.083,0.848-0.129,1.291-0.129c0.441,0,0.869,0.047,1.283,0.129c0.176,0.036,0.334,0.1,0.5,0.149
	c0.23,0.067,0.47,0.123,0.688,0.214c0.229,0.094,0.439,0.221,0.654,0.339c0.138,0.076,0.279,0.138,0.41,0.223
	c0.263,0.168,0.496,0.366,0.732,0.569c0.063,0.056,0.131,0.102,0.188,0.158c0.27,0.252,0.511,0.527,0.732,0.819
	c0.012,0.018,0.027,0.035,0.043,0.053c0.819,1.1,1.327,2.449,1.327,3.928C84.303,54.237,82.182,56.802,79.333,57.522z M97.9,57.741
	c-3.645,0-6.582-2.951-6.582-6.573c0-0.189,0.041-0.37,0.057-0.556h-0.002c0-0.011,0.004-0.02,0.004-0.031
	c0.038-0.41,0.107-0.808,0.217-1.191c0-0.002,0-0.004,0.004-0.006c0.107-0.393,0.25-0.767,0.428-1.126
	c0.004-0.007,0.013-0.016,0.016-0.022c0.173-0.348,0.372-0.678,0.604-0.986c0.021-0.031,0.051-0.058,0.073-0.089
	c0.22-0.281,0.446-0.546,0.705-0.787c0.063-0.063,0.142-0.114,0.206-0.171c0.229-0.199,0.467-0.396,0.727-0.561
	c0.127-0.084,0.271-0.147,0.404-0.221c0.221-0.121,0.432-0.247,0.662-0.341c0.219-0.088,0.448-0.145,0.678-0.209
	c0.172-0.049,0.338-0.119,0.514-0.154c0.42-0.083,0.849-0.129,1.293-0.129c0.441,0,0.869,0.047,1.285,0.129
	c0.172,0.036,0.332,0.1,0.498,0.149c0.231,0.067,0.469,0.123,0.688,0.214c0.229,0.094,0.438,0.219,0.648,0.337
	c0.141,0.076,0.285,0.14,0.416,0.225c0.261,0.168,0.496,0.366,0.729,0.567c0.063,0.055,0.136,0.104,0.195,0.163
	c0.267,0.248,0.506,0.521,0.729,0.813c0.014,0.021,0.03,0.036,0.047,0.056c0.821,1.1,1.33,2.451,1.33,3.928
	C104.471,54.79,101.521,57.741,97.9,57.741z"/>
<path fill="none" stroke="#E52420" stroke-miterlimit="10" d="M102.363,46.371c0.267,0.25,0.509,0.521,0.729,0.813
	C102.87,46.892,102.631,46.618,102.363,46.371z"/>
<path fill="none" stroke="#E52420" stroke-miterlimit="10" d="M101.439,45.641c0.26,0.17,0.498,0.364,0.729,0.567
	C101.938,46.007,101.699,45.809,101.439,45.641z"/>
<path fill="none" stroke="#E52420" stroke-miterlimit="10" d="M94.757,45.42c0.216-0.121,0.429-0.245,0.662-0.341
	C95.186,45.173,94.975,45.299,94.757,45.42z"/>
<path fill="none" stroke="#E52420" stroke-miterlimit="10" d="M92.715,47.16c0.215-0.281,0.448-0.546,0.705-0.787
	C93.161,46.613,92.932,46.879,92.715,47.16z"/>
<path fill="none" stroke="#E52420" stroke-miterlimit="10" d="M96.094,44.87c0.172-0.052,0.338-0.119,0.516-0.154
	C96.432,44.751,96.266,44.82,96.094,44.87z"/>
<path fill="none" stroke="#E52420" stroke-miterlimit="10" d="M93.626,46.201c0.229-0.201,0.467-0.393,0.726-0.561
	C94.092,45.806,93.857,46.002,93.626,46.201z"/>
<path fill="none" stroke="#E52420" stroke-miterlimit="10" d="M99.186,44.715c0.172,0.036,0.334,0.1,0.5,0.149
	C99.52,44.815,99.357,44.751,99.186,44.715z"/>
<path fill="none" stroke="#E52420" stroke-miterlimit="10" d="M100.374,45.079c0.228,0.094,0.438,0.219,0.651,0.337
	C100.813,45.297,100.602,45.173,100.374,45.079z"/>
<path fill="none" stroke="#E52420" stroke-miterlimit="10" d="M92.038,48.235c0.173-0.348,0.373-0.676,0.601-0.986
	C92.41,47.557,92.211,47.887,92.038,48.235z"/>
<path fill="none" stroke="#E52420" stroke-miterlimit="10" d="M91.598,49.384c0.107-0.39,0.252-0.767,0.428-1.126
	C91.848,48.617,91.705,48.991,91.598,49.384z"/>
<path fill="none" stroke="#E52420" stroke-miterlimit="10" d="M91.377,50.581c0.038-0.408,0.109-0.808,0.217-1.191
	C91.484,49.773,91.415,50.171,91.377,50.581z"/>
<path fill="none" stroke="#E52420" stroke-miterlimit="10" d="M82.199,46.368c0.265,0.252,0.51,0.527,0.732,0.819
	C82.708,46.895,82.467,46.62,82.199,46.368z"/>
<path fill="none" stroke="#E52420" stroke-miterlimit="10" d="M72.486,47.236c-0.43,0.57-0.756,1.213-0.983,1.907
	c0.007,0.005,0.011,0.007,0.019,0.011C71.744,48.46,72.063,47.809,72.486,47.236z"/>
<path fill="none" stroke="#E52420" stroke-miterlimit="10" d="M75.922,44.872c0.176-0.051,0.344-0.118,0.525-0.156
	C76.266,44.753,76.1,44.82,75.922,44.872z"/>
<path fill="none" stroke="#E52420" stroke-miterlimit="10" d="M79.021,44.715c0.176,0.036,0.334,0.1,0.5,0.149
	C79.355,44.815,79.197,44.751,79.021,44.715z"/>
<path fill="none" stroke="#E52420" stroke-miterlimit="10" d="M74.57,45.432c0.227-0.125,0.447-0.255,0.686-0.353
	C75.018,45.175,74.797,45.306,74.57,45.432z"/>
<path fill="none" stroke="#E52420" stroke-miterlimit="10" d="M73.432,46.226c0.24-0.212,0.488-0.413,0.76-0.587
	C73.92,45.813,73.672,46.016,73.432,46.226z"/>
<path fill="none" stroke="#E52420" stroke-miterlimit="10" d="M72.518,47.198c0.228-0.299,0.475-0.578,0.744-0.832
	C72.988,46.62,72.744,46.901,72.518,47.198z"/>
<path fill="none" stroke="#E52420" stroke-miterlimit="10" d="M80.21,45.079c0.229,0.096,0.44,0.219,0.655,0.339
	C80.65,45.299,80.438,45.173,80.21,45.079z"/>
<path fill="none" stroke="#E52420" stroke-miterlimit="10" d="M81.275,45.641c0.259,0.17,0.5,0.366,0.731,0.569
	C81.771,46.007,81.537,45.809,81.275,45.641z"/>
<path fill="none" stroke="#E52420" stroke-miterlimit="10" d="M52.359,47.191c0.223-0.294,0.469-0.571,0.736-0.823
	C52.825,46.62,52.585,46.896,52.359,47.191z"/>
<path fill="none" stroke="#E52420" stroke-miterlimit="10" d="M61.12,45.646c0.239,0.156,0.454,0.337,0.669,0.522
	C61.574,45.982,61.359,45.802,61.12,45.646z"/>
<path fill="none" stroke="#E52420" stroke-miterlimit="10" d="M60.052,45.082c0.208,0.086,0.396,0.2,0.593,0.307
	C60.448,45.282,60.259,45.166,60.052,45.082z"/>
<path fill="none" stroke="#E52420" stroke-miterlimit="10" d="M58.858,44.715c0.158,0.034,0.305,0.093,0.459,0.139
	C59.163,44.809,59.019,44.749,58.858,44.715z"/>
<path fill="none" stroke="#E52420" stroke-miterlimit="10" d="M55.77,44.867c0.171-0.049,0.333-0.116,0.51-0.151
	C56.104,44.751,55.941,44.818,55.77,44.867z"/>
<path fill="none" stroke="#E52420" stroke-miterlimit="10" d="M62.821,47.256c0.228,0.308,0.429,0.636,0.601,0.983
	C63.248,47.894,63.051,47.564,62.821,47.256z"/>
<path fill="none" stroke="#E52420" stroke-miterlimit="10" d="M54.425,45.42c0.215-0.121,0.432-0.245,0.664-0.341
	C54.857,45.175,54.643,45.302,54.425,45.42z"/>
<path fill="none" stroke="#E52420" stroke-miterlimit="10" d="M62.047,46.379c0.246,0.234,0.472,0.488,0.679,0.758
	C62.516,46.87,62.295,46.613,62.047,46.379z"/>
<path fill="none" stroke="#E52420" stroke-miterlimit="10" d="M53.277,46.217c0.237-0.208,0.479-0.406,0.745-0.578
	C53.757,45.811,53.517,46.009,53.277,46.217z"/>
<path fill="none" stroke="#E52420" stroke-miterlimit="10" d="M99.686,44.865c0.232,0.064,0.469,0.123,0.688,0.214
	C100.152,44.987,99.918,44.932,99.686,44.865z"/>
<path fill="none" stroke="#E52420" stroke-miterlimit="10" d="M93.42,46.373c0.064-0.063,0.139-0.114,0.206-0.171
	C93.559,46.259,93.484,46.31,93.42,46.373z"/>
<path fill="none" stroke="#E52420" stroke-miterlimit="10" d="M92.639,47.249c0.024-0.031,0.053-0.06,0.076-0.089
	C92.689,47.191,92.663,47.218,92.639,47.249z"/>
<path fill="none" stroke="#E52420" stroke-miterlimit="10" d="M92.025,48.257c0.002-0.007,0.01-0.016,0.013-0.022
	C92.035,48.242,92.027,48.25,92.025,48.257z"/>
<path fill="none" stroke="#E52420" stroke-miterlimit="10" d="M91.594,49.39c0-0.002,0-0.004,0.004-0.006
	C91.594,49.386,91.594,49.388,91.594,49.39z"/>
<path fill="none" stroke="#E52420" stroke-miterlimit="10" d="M94.352,45.641c0.129-0.084,0.271-0.147,0.405-0.221
	C94.62,45.494,94.479,45.556,94.352,45.641z"/>
<path fill="#4D4D4D" d="M103.093,47.184c0.015,0.018,0.032,0.036,0.048,0.056C103.125,47.22,103.105,47.205,103.093,47.184z"/>
<path fill="none" stroke="#E52420" stroke-miterlimit="10" d="M101.025,45.416c0.138,0.076,0.283,0.14,0.414,0.225
	C101.311,45.556,101.163,45.492,101.025,45.416z"/>
<path fill="none" stroke="#E52420" stroke-miterlimit="10" d="M91.373,50.612h0.002c0-0.011,0.002-0.02,0.002-0.031
	C91.377,50.593,91.373,50.602,91.373,50.612z"/>
<path fill="none" stroke="#E52420" stroke-miterlimit="10" d="M96.607,44.715c0.42-0.083,0.852-0.129,1.293-0.129
	C97.456,44.586,97.027,44.633,96.607,44.715z"/>
<path fill="none" stroke="#E52420" stroke-miterlimit="10" d="M97.9,44.586c0.438,0,0.869,0.047,1.285,0.129
	C98.771,44.633,98.343,44.586,97.9,44.586z"/>
<path fill="none" stroke="#E52420" stroke-miterlimit="10" d="M95.419,45.079c0.216-0.088,0.448-0.145,0.675-0.209
	C95.867,44.934,95.635,44.99,95.419,45.079z"/>
<path fill="none" stroke="#E52420" stroke-miterlimit="10" d="M102.169,46.208c0.065,0.055,0.136,0.104,0.194,0.163
	C102.305,46.312,102.234,46.263,102.169,46.208z"/>
<path fill="none" stroke="#E52420" stroke-miterlimit="10" d="M82.01,46.21c0.063,0.056,0.131,0.102,0.189,0.158
	C82.141,46.312,82.07,46.266,82.01,46.21z"/>
<path fill="none" stroke="#E52420" stroke-miterlimit="10" d="M73.262,46.366c0.055-0.051,0.113-0.091,0.17-0.14
	C73.375,46.274,73.314,46.315,73.262,46.366z"/>
<path fill="none" stroke="#E52420" stroke-miterlimit="10" d="M74.189,45.639c0.123-0.078,0.254-0.138,0.381-0.207
	C74.443,45.5,74.311,45.559,74.189,45.639z"/>
<path fill="none" stroke="#E52420" stroke-miterlimit="10" d="M82.932,47.187c0.012,0.018,0.028,0.035,0.043,0.053
	C82.96,47.222,82.943,47.205,82.932,47.187z"/>
<path fill="none" stroke="#E52420" stroke-miterlimit="10" d="M72.486,47.236c0.009-0.014,0.02-0.024,0.029-0.038
	C72.506,47.211,72.495,47.222,72.486,47.236z"/>
<path fill="none" stroke="#E52420" stroke-miterlimit="10" d="M75.256,45.079c0.215-0.086,0.441-0.143,0.666-0.207
	C75.697,44.936,75.471,44.99,75.256,45.079z"/>
<path fill="none" stroke="#E52420" stroke-miterlimit="10" d="M76.447,44.715c0.419-0.083,0.85-0.129,1.291-0.129
	C77.295,44.586,76.863,44.633,76.447,44.715z"/>
<path fill="none" stroke="#E52420" stroke-miterlimit="10" d="M77.738,44.586c0.439,0,0.869,0.047,1.283,0.129
	C78.607,44.633,78.182,44.586,77.738,44.586z"/>
<path fill="none" stroke="#E52420" stroke-miterlimit="10" d="M80.865,45.418c0.137,0.074,0.279,0.138,0.41,0.223
	C81.145,45.556,81.002,45.494,80.865,45.418z"/>
<path fill="none" stroke="#E52420" stroke-miterlimit="10" d="M79.521,44.865c0.23,0.067,0.47,0.125,0.688,0.214
	C79.991,44.987,79.755,44.932,79.521,44.865z"/>
<path fill="none" stroke="#E52420" stroke-miterlimit="10" d="M56.28,44.715c0.419-0.083,0.85-0.129,1.292-0.129
	C57.127,44.586,56.697,44.633,56.28,44.715z"/>
<path fill="none" stroke="#E52420" stroke-miterlimit="10" d="M54.022,45.639c0.127-0.08,0.268-0.145,0.402-0.219
	C54.29,45.496,54.149,45.556,54.022,45.639z"/>
<path fill="none" stroke="#E52420" stroke-miterlimit="10" d="M55.088,45.079c0.219-0.088,0.451-0.145,0.682-0.212
	C55.54,44.934,55.308,44.99,55.088,45.079z"/>
<path fill="none" stroke="#E52420" stroke-miterlimit="10" d="M62.726,47.138c0.032,0.04,0.067,0.076,0.096,0.118
	C62.792,47.213,62.757,47.177,62.726,47.138z"/>
<path fill="none" stroke="#E52420" stroke-miterlimit="10" d="M53.095,46.368c0.059-0.056,0.125-0.1,0.183-0.151
	C53.22,46.268,53.153,46.312,53.095,46.368z"/>
<path fill="none" stroke="#E52420" stroke-miterlimit="10" d="M61.79,46.167c0.086,0.071,0.179,0.136,0.257,0.212
	C61.968,46.303,61.875,46.238,61.79,46.167z"/>
<path fill="none" stroke="#E52420" stroke-miterlimit="10" d="M57.571,44.586c0.442,0,0.87,0.047,1.287,0.129
	C58.444,44.633,58.013,44.586,57.571,44.586z"/>
<path fill="none" stroke="#E52420" stroke-miterlimit="10" d="M52.359,47.191c-0.011,0.016-0.026,0.031-0.039,0.047
	C52.333,47.222,52.348,47.207,52.359,47.191z"/>
<path fill="none" stroke="#E52420" stroke-miterlimit="10" d="M63.422,48.239c0.001,0.004,0.005,0.011,0.008,0.016
	C63.428,48.25,63.423,48.244,63.422,48.239z"/>
<path fill="none" stroke="#E52420" stroke-miterlimit="10" d="M59.317,44.854c0.248,0.066,0.498,0.131,0.734,0.228
	C59.817,44.983,59.565,44.923,59.317,44.854z"/>
<path fill="none" stroke="#E52420" stroke-miterlimit="10" d="M60.645,45.389c0.161,0.085,0.326,0.161,0.476,0.257
	C60.97,45.547,60.806,45.474,60.645,45.389z"/>
<circle fill="#FF0000" cx="57.68" cy="51.161" r="6.575"/>
<circle fill="#FF0000" cx="77.738" cy="51.161" r="6.575"/>
<circle fill="#FF0000" cx="97.9" cy="51.161" r="6.575"/>
</svg>
