<?xml version="1.0" encoding="utf-8"?>
<!-- Generator: Adobe Illustrator 16.0.0, SVG Export Plug-In . SVG Version: 6.00 Build 0)  -->
<!DOCTYPE svg PUBLIC "-//W3C//DTD SVG 1.1//EN" "http://www.w3.org/Graphics/SVG/1.1/DTD/svg11.dtd">
<svg version="1.1" xmlns="http://www.w3.org/2000/svg" xmlns:xlink="http://www.w3.org/1999/xlink" x="0px" y="0px" width="128px"
	 height="128px" viewBox="0 0 128 128" enable-background="new 0 0 128 128" xml:space="preserve">
<g id="Calque_1" display="none">
	<g id="Calque_1_2_" display="inline">
		<g id="Calque_1_1_" display="none">
		</g>
		<line fill="none" stroke="#FF0000" stroke-width="11" stroke-miterlimit="10" x1="5.1" y1="26.094" x2="58.226" y2="26.094"/>
		<line fill="none" stroke="#FF0000" stroke-width="11" stroke-miterlimit="10" x1="58.226" y1="37.728" x2="86.372" y2="37.728"/>
		<line fill="none" stroke="#FF0000" stroke-width="11" stroke-miterlimit="10" x1="14.017" y1="68.512" x2="41.788" y2="68.512"/>
		<line fill="none" stroke="#FF0000" stroke-width="11" stroke-miterlimit="10" x1="41.788" y1="81.646" x2="49.415" y2="81.646"/>
		<path fill="none" stroke="#FF0000" stroke-width="5" stroke-miterlimit="10" d="M45.971,111.907H11.022
			c-3.316,0-6.004-2.915-6.004-6.509V15.383c0-3.594,2.688-6.507,6.004-6.507h107.083c3.317,0,6.006,2.914,6.006,6.507v41.316"/>
	</g>
</g>
<g id="Calque_3">
	<path fill="none" stroke="#FF0000" stroke-width="5" stroke-linecap="round" stroke-miterlimit="10" d="M58.154,49.5V4.74"/>
	<path fill="none" stroke="#FF0000" stroke-width="5" stroke-linecap="round" stroke-miterlimit="10" d="M123,67.241H79.5"/>
	<line fill="none" stroke="#FF0000" stroke-width="11" stroke-miterlimit="10" x1="62.526" y1="15.351" x2="110.742" y2="15.351"/>
	<line fill="none" stroke="#FF0000" stroke-width="11" stroke-miterlimit="10" x1="69.324" y1="32.08" x2="94.514" y2="32.08"/>
	<line fill="none" stroke="#FF0000" stroke-width="11" stroke-miterlimit="10" x1="91.334" y1="45.881" x2="116.521" y2="45.881"/>
	<g id="Calque_2_2_">
	</g>
</g>
<g id="Calque_2_1_">
	<g id="Calque_2">
		<path fill="none" stroke="#FF0000" stroke-width="5" stroke-miterlimit="10" d="M76.488,121.169c0,1.421-1.151,2.571-2.571,2.571
			h-60.68c-1.42,0-2.571-1.15-2.571-2.571V83.218c0-1.419,1.151-2.571,2.571-2.571h60.68c1.42,0,2.571,1.152,2.571,2.571V121.169z"
			/>
		<g>
			<path fill="#FF0000" d="M21.85,112.907l-7.189-20.114h4.404l5.09,14.887l4.927-14.887h4.309l-7.202,20.114H21.85z"/>
			<path fill="#FF0000" d="M44.475,112.907h-3.855v-14.53c-1.407,1.316-3.067,2.292-4.979,2.923v-3.499
				c1.007-0.328,2.101-0.953,3.279-1.871c1.18-0.921,1.989-1.992,2.429-3.219h3.129v20.196H44.475z"/>
			<path fill="#FF0000" d="M51.061,112.907v-3.855h3.854v3.855H51.061z"/>
			<path fill="#FF0000" d="M64.563,92.711c1.947,0,3.471,0.695,4.567,2.085c1.31,1.646,1.963,4.377,1.963,8.19
				c0,3.807-0.659,6.541-1.978,8.205c-1.088,1.373-2.605,2.059-4.555,2.059c-1.957,0-3.535-0.752-4.732-2.257
				c-1.198-1.505-1.799-4.187-1.799-8.048c0-3.786,0.66-6.512,1.977-8.178C61.095,93.396,62.613,92.711,64.563,92.711z
				 M64.563,95.908c-0.468,0-0.884,0.148-1.25,0.445c-0.365,0.297-0.648,0.83-0.851,1.599c-0.265,0.997-0.397,2.676-0.397,5.034
				c0,2.361,0.118,3.981,0.356,4.865c0.237,0.883,0.537,1.469,0.897,1.763c0.361,0.293,0.775,0.438,1.242,0.438
				s0.883-0.147,1.248-0.445c0.366-0.297,0.649-0.83,0.852-1.6c0.266-0.986,0.397-2.66,0.397-5.021c0-2.358-0.118-3.979-0.356-4.862
				c-0.237-0.883-0.537-1.474-0.898-1.771S65.027,95.908,64.563,95.908z"/>
		</g>
		<g>
			<path fill="#FF0000" d="M17.891,63.717h-5.02v15.428h2.524V66.241h2.498c0.674,4.969,5.252,8.829,10.782,8.829h9.313V54.878
				h-9.313C23.141,54.878,18.563,58.744,17.891,63.717z"/>
			<path fill="#FF0000" d="M68.197,63.717c-0.567-4.973-4.438-8.838-9.133-8.838H57.04V75.07h2.024c4.691,0,8.561-3.86,9.131-8.829
				h2.728v12.903h2.522V63.717H68.197z"/>
			<rect x="40.513" y="54.878" fill="#FF0000" width="14.009" height="20.192"/>
		</g>
	</g>
</g>
</svg>
