<?xml version="1.0" encoding="utf-8"?>
<!-- Generator: Adobe Illustrator 16.0.0, SVG Export Plug-In . SVG Version: 6.00 Build 0)  -->
<!DOCTYPE svg PUBLIC "-//W3C//DTD SVG 1.1//EN" "http://www.w3.org/Graphics/SVG/1.1/DTD/svg11.dtd">
<svg version="1.1" xmlns="http://www.w3.org/2000/svg" xmlns:xlink="http://www.w3.org/1999/xlink" x="0px" y="0px" width="128px"
	 height="128px" viewBox="0 0 128 128" enable-background="new 0 0 128 128" xml:space="preserve">
<g id="Calque_1">
	<g>
		
			<line fill="none" stroke="#FF0000" stroke-width="5" stroke-linejoin="round" stroke-miterlimit="10" x1="113" y1="112.109" x2="107.853" y2="112.109"/>
		
			<line fill="none" stroke="#FF0000" stroke-width="5" stroke-linejoin="round" stroke-miterlimit="10" x1="20.349" y1="112.109" x2="15.202" y2="112.109"/>
		
			<line fill="none" stroke="#FF0000" stroke-width="5" stroke-linejoin="round" stroke-miterlimit="10" x1="35.791" y1="112.109" x2="30.644" y2="112.109"/>
		
			<line fill="none" stroke="#FF0000" stroke-width="5" stroke-linejoin="round" stroke-miterlimit="10" x1="51.232" y1="112.109" x2="46.085" y2="112.109"/>
		
			<line fill="none" stroke="#FF0000" stroke-width="5" stroke-linejoin="round" stroke-miterlimit="10" x1="66.674" y1="112.109" x2="61.527" y2="112.109"/>
		
			<line fill="none" stroke="#FF0000" stroke-width="5" stroke-linejoin="round" stroke-miterlimit="10" x1="82.116" y1="112.109" x2="76.969" y2="112.109"/>
		
			<line fill="none" stroke="#FF0000" stroke-width="5" stroke-linejoin="round" stroke-miterlimit="10" x1="97.558" y1="112.109" x2="92.41" y2="112.109"/>
		<path fill="none" stroke="#FF0000" stroke-width="5" stroke-linejoin="round" stroke-miterlimit="10" d="M123.294,112.109
			c0-5.686-4.609-10.295-10.294-10.295H15.202c-5.685,0-10.294,4.609-10.294,10.295l0,0c0,5.686,4.609,10.295,10.294,10.295H113
			C118.685,122.404,123.294,117.795,123.294,112.109L123.294,112.109z"/>
		<path fill="none" stroke="#FF0000" stroke-width="5" stroke-linejoin="round" stroke-miterlimit="10" d="M116.659,96.67
			c0.005-1.757-0.139-3.523-0.433-5.29l7.067-3.536l-5.104-12.326l-7.499,2.499c-2.079-2.916-4.598-5.398-7.428-7.42l2.499-7.505
			l-12.323-5.104l-3.541,7.075c-3.429-0.573-6.967-0.598-10.496-0.008l-3.538-7.067L63.54,63.092l2.496,7.5
			c-2.913,2.079-5.399,4.6-7.417,7.427l-7.505-2.501L46.01,87.844l7.075,3.538c-0.292,1.739-0.44,3.504-0.44,5.283"/>
		<path fill="none" stroke="#FF0000" stroke-width="5" stroke-linejoin="round" stroke-miterlimit="10" d="M6.443,53.738l3.38,8.158
			l6.308-2.611c1.27,1.777,2.808,3.295,4.534,4.526l-2.614,6.313l8.158,3.381l2.614-6.311c2.094,0.347,4.252,0.361,6.409,0.005
			l2.611,6.306l8.161-3.381l-2.614-6.306c1.779-1.269,3.297-2.807,4.529-4.536l6.311,2.616l3.38-8.161L51.3,51.124
			c0.35-2.091,0.365-4.253,0.002-6.409l6.309-2.611l-3.38-8.161l-6.306,2.614c-1.269-1.779-2.807-3.297-4.536-4.529l2.616-6.311
			l-8.161-3.38L35.23,28.65c-2.094-0.352-4.253-0.367-6.409-0.005l-2.611-6.308l-8.158,3.378l2.611,6.308
			c-1.777,1.272-3.295,2.808-4.529,4.534l-6.311-2.614l-3.38,8.158l6.313,2.614c-0.35,2.096-0.365,4.255-0.005,6.409L6.443,53.738z"
			/>
		
			<circle fill="none" stroke="#FF0000" stroke-width="5" stroke-linejoin="round" stroke-miterlimit="10" cx="32.027" cy="47.922" r="8.579"/>
		<path fill="none" stroke="#FF0000" stroke-width="5" stroke-linejoin="round" stroke-miterlimit="10" d="M71.821,96.668
			c0-7.105,5.761-12.868,12.868-12.868c7.108,0,12.868,5.763,12.868,12.868"/>
	</g>
</g>
<g id="Calque_3_1_">
</g>
</svg>
