<?xml version="1.0" encoding="utf-8"?>
<!-- Generator: Adobe Illustrator 16.0.0, SVG Export Plug-In . SVG Version: 6.00 Build 0)  -->
<!DOCTYPE svg PUBLIC "-//W3C//DTD SVG 1.1//EN" "http://www.w3.org/Graphics/SVG/1.1/DTD/svg11.dtd">
<svg version="1.1" xmlns="http://www.w3.org/2000/svg" xmlns:xlink="http://www.w3.org/1999/xlink" x="0px" y="0px" width="128px"
	 height="128px" viewBox="0 0 128 128" enable-background="new 0 0 128 128" xml:space="preserve">
<g id="Calque_2">
	<g>
		<g>
			<path fill="none" stroke="#FF0000" stroke-width="5" stroke-linecap="round" stroke-linejoin="round" stroke-miterlimit="10" d="
				M94.968,56.784c0-3.412-2.794-6.203-6.204-6.203c-3.411,0-6.201,2.791-6.201,6.203v-3.602c0-3.412-2.792-6.202-6.203-6.202
				c-3.41,0-6.202,2.791-6.202,6.202V46.56c0-3.411-2.789-6.202-6.201-6.202c-3.41,0-6.203,2.792-6.203,6.202V18.551
				c0-3.411-2.79-6.202-6.199-6.202c-3.412,0-6.204,2.791-6.204,6.202v40.263l-4.819-8.349c-1.705-2.955-5.518-3.976-8.472-2.271
				c-2.955,1.706-3.977,5.518-2.271,8.473c0,0,12.897,47.71,23.564,47.71H75.57c10.667,0,19.397-22.36,19.397-22.786V56.784z"/>
			
				<rect x="41.707" y="104.378" fill="none" stroke="#FF0000" stroke-width="5" stroke-linecap="round" stroke-linejoin="round" stroke-miterlimit="10" width="49.414" height="20.632"/>
		</g>
		<path fill="none" stroke="#FF0000" stroke-width="5" stroke-linecap="round" stroke-linejoin="round" stroke-miterlimit="10" d="
			M36.628,18.294c0-8.138,6.596-14.734,14.733-14.734c8.139,0,14.735,6.597,14.735,14.734"/>
	</g>
</g>
<g id="Calque_3">
</g>
</svg>
