<?xml version="1.0" encoding="utf-8"?>
<!-- Generator: Adobe Illustrator 16.0.0, SVG Export Plug-In . SVG Version: 6.00 Build 0)  -->
<!DOCTYPE svg PUBLIC "-//W3C//DTD SVG 1.1//EN" "http://www.w3.org/Graphics/SVG/1.1/DTD/svg11.dtd">
<svg version="1.1" id="Calque_1" xmlns="http://www.w3.org/2000/svg" xmlns:xlink="http://www.w3.org/1999/xlink" x="0px" y="0px"
	 width="128px" height="128px" viewBox="0 0 128 128" enable-background="new 0 0 128 128" xml:space="preserve">
<g id="Calque_2">
</g>
<g>
	
		<circle fill="none" stroke="#FF0000" stroke-width="5" stroke-linecap="round" stroke-linejoin="round" stroke-miterlimit="10" cx="48.363" cy="47.017" r="43.06"/>
	
		<line fill="none" stroke="#FF0000" stroke-width="5" stroke-linecap="round" stroke-linejoin="round" stroke-miterlimit="10" x1="78.813" y1="77.466" x2="122.697" y2="121.352"/>
</g>
<g id="Calque_4">
</g>
<g id="Calque_1_1_" xmlns:serif="http://www.serif.com/">
	<g id="path17">
		<path fill="none" stroke="#FF0000" stroke-width="5" stroke-linecap="round" stroke-linejoin="round" stroke-miterlimit="10" d="
			M51.543,23.968c0.027,0.02,0.061,0.049,0.089,0.078l0.015,1.697l0.018,2.182l0.012,1.417l1.352,0.426l0.687,0.216
			c0.915,0.287,1.795,0.648,2.694,1.104c1.021,0.518,1.294,0.656,1.81,0.656c0.853,0,1.007-0.154,2.896-2.032
			c0.431-0.429,0.998-0.993,1.273-1.222h0.025c0.349,0.293,1.12,1.07,2.133,2.093l0.105,0.107c1.089,1.099,1.917,1.935,2.225,2.312
			c-0.236,0.282-0.796,0.843-1.222,1.271l-1.476,1.479l-0.986,0.991l0.623,1.252l0.477,0.956c0.48,0.966,0.81,1.777,1.104,2.707
			l0.216,0.686l0.425,1.353l1.419,0.012l2.182,0.017l1.697,0.015c0.028,0.029,0.058,0.063,0.078,0.091v6.199
			c-0.02,0.028-0.05,0.061-0.078,0.09l-1.7,0.015l-2.185,0.017l-1.434,0.013l-0.414,1.37l-0.154,0.511
			c-0.286,0.949-0.901,2.392-1.429,3.355l-0.219,0.4l-0.701,1.279l1.029,1.032l1.502,1.505c0.597,0.6,1.004,1.03,1.224,1.275
			c-0.297,0.35-1.112,1.168-2.188,2.245l-0.086,0.086c-1.04,1.04-1.83,1.832-2.194,2.137c-0.283-0.236-0.838-0.791-1.262-1.213
			c-1.925-1.917-2.04-2.032-2.889-2.032c-0.499,0-0.711,0.106-1.891,0.69c-0.986,0.489-1.701,0.781-2.641,1.077l-0.666,0.21
			l-1.352,0.424l-0.011,1.416l-0.019,2.182l-0.012,1.697c-0.021,0.021-0.045,0.043-0.066,0.059c-0.361,0.02-1.328,0.023-2.926,0.027
			L48.045,69.9c-1.457,0-2.395-0.014-2.704-0.025c-0.025-0.012-0.057-0.033-0.08-0.055l-0.015-1.711l-0.018-2.184l-0.013-1.434
			l-1.371-0.414l-0.513-0.154c-0.928-0.281-2.29-0.859-3.311-1.406l-0.461-0.247l-1.273-0.684l-1.023,1.021l-1.506,1.501
			c-0.6,0.593-1.029,1.001-1.273,1.222c-0.371-0.309-1.262-1.199-2.273-2.214l-0.071-0.073c-1.03-1.029-1.815-1.819-2.122-2.185
			c0.238-0.284,0.798-0.844,1.224-1.272l1.476-1.481l0.989-0.991l-0.625-1.253l-0.475-0.955c-0.485-0.972-0.815-1.781-1.104-2.705
			l-0.217-0.686l-0.424-1.354l-1.419-0.012l-2.184-0.017l-1.696-0.014c-0.029-0.028-0.059-0.062-0.079-0.089v-6.201
			c0.021-0.027,0.05-0.062,0.078-0.089l1.698-0.015l2.182-0.018l1.424-0.011l0.422-1.361l0.185-0.598
			c0.26-0.838,0.766-2.065,1.177-2.852l0.43-0.821l0.661-1.264l-1.004-1.012l-1.485-1.499c-0.461-0.464-1.019-1.027-1.244-1.303
			v-0.021c0.293-0.35,1.071-1.122,2.096-2.138l0.105-0.103c1.059-1.05,1.925-1.909,2.31-2.224c0.284,0.238,0.837,0.791,1.259,1.211
			c1.688,1.682,2.039,2.032,2.934,2.032c0.434,0,0.861-0.133,1.219-0.374c0.094-0.051,0.314-0.168,0.638-0.331
			c0.819-0.41,1.747-0.785,2.609-1.056l0.687-0.217l1.352-0.426l0.012-1.417l0.018-2.182l0.014-1.701
			c0.027-0.027,0.059-0.056,0.084-0.074L51.543,23.968"/>
	</g>
</g>
<g id="Calque_2_1_">
</g>
</svg>
