<?xml version="1.0" encoding="utf-8"?>
<!-- Generator: Adobe Illustrator 16.0.0, SVG Export Plug-In . SVG Version: 6.00 Build 0)  -->
<!DOCTYPE svg PUBLIC "-//W3C//DTD SVG 1.1//EN" "http://www.w3.org/Graphics/SVG/1.1/DTD/svg11.dtd">
<svg version="1.1" id="Calque_1" xmlns="http://www.w3.org/2000/svg" xmlns:xlink="http://www.w3.org/1999/xlink" x="0px" y="0px"
	 width="128px" height="128px" viewBox="0 0 128 128" enable-background="new 0 0 128 128" xml:space="preserve">
<g id="Calque_2" display="none">
</g>
<g>
	<g>
		<path fill="none" stroke="#FF0000" stroke-width="5" stroke-linecap="round" stroke-linejoin="round" stroke-miterlimit="10" d="
			M83.303,28.194c0-1.959-1.604-3.561-3.563-3.561h-5.253c-1.959,0-3.563,1.602-3.563,3.561v2.1c0,1.959,1.603,3.563,3.563,3.563
			h5.253c1.96,0,3.563,1.603,3.563,3.563v2.101c0,1.959-1.604,3.56-3.563,3.56h-5.253c-1.959,0-3.563-1.601-3.563-3.56"/>
		
			<line fill="none" stroke="#FF0000" stroke-width="5" stroke-linecap="round" stroke-linejoin="round" stroke-miterlimit="10" x1="77.112" y1="24.633" x2="77.112" y2="21.001"/>
		
			<line fill="none" stroke="#FF0000" stroke-width="5" stroke-linecap="round" stroke-linejoin="round" stroke-miterlimit="10" x1="77.112" y1="46.71" x2="77.112" y2="43.081"/>
	</g>
	<path fill="none" stroke="#FF0000" stroke-width="5" stroke-linecap="round" stroke-linejoin="round" stroke-miterlimit="10" d="
		M65.485,7.574c3.555-1.575,7.489-2.45,11.628-2.45c15.869,0,28.732,12.864,28.732,28.733S92.982,62.59,77.113,62.59
		c-3.657,0-7.155-0.683-10.373-1.929"/>
</g>
<g>
	<path fill="none" stroke="#FF0000" stroke-width="5" stroke-linecap="round" stroke-linejoin="round" stroke-miterlimit="10" d="
		M60.835,92.516l15.752,8.655l43.636-26.997c0.506-0.314,1.09-0.479,1.682-0.479c2.119,0,3.971,1.443,4.482,3.498l0.447,1.767
		c0.563,2.283-0.291,4.679-2.18,6.084l-46.118,34.252c-1.286,0.956-2.737,1.666-4.286,2.093l-2.18,0.603
		c-1.471,0.415-3.031,0.376-4.475-0.103l-45.714-15.162c-2.079-0.688-4.357-0.527-6.318,0.459l-14.561,7.141"/>
	<path fill="none" stroke="#FF0000" stroke-width="5" stroke-linecap="round" stroke-linejoin="round" stroke-miterlimit="10" d="
		M4.703,84.327l29.366-10.009c1.233-0.412,2.545-0.539,3.832-0.373l50.424,6.385c2.274,0.292,3.913,2.318,3.716,4.604l-0.236,2.736
		c-0.218,2.455-2.246,4.352-4.713,4.396l-26.255,0.447l-10.589-0.373"/>
	<path fill="none" stroke="#FF0000" stroke-width="5" stroke-linecap="round" stroke-linejoin="round" stroke-miterlimit="10" d="
		M86.236,80.066l19.586-7.771c1.055-0.371,2.203-0.374,3.258-0.006l0,0c2.404,0.844,4.018,3.111,4.018,5.661v0.638"/>
</g>
<path fill="#FF0000" d="M20.865,27.275v33.149c0,0-0.628,4.4,4.872,4.4c5.498,0,30.321,0,30.321,0s4.084,0.314,4.084-6.442
	c0-6.756,0-31.107,0-31.107s-0.314-4.871-5.186-4.871c-4.868,0-8.954-2.514-8.954-6.441s5.025-5.813,8.327-5.813
	c0,0,1.943,0.354,1.943-1.081c0-1.432,0-3.225,0-3.225s0.257-0.717-1.996-0.717c-2.253,0-27.856,0-27.856,0s-1.59-0.102-1.59,1.177
	v3.022c0,0-0.101,0.87,2.202,0.87c2.305,0,7.581,1.485,7.581,5.89c0,4.404-4.099,6.297-8.245,6.297
	C22.219,22.381,20.865,25.97,20.865,27.275z"/>
</svg>
