<?xml version="1.0" encoding="utf-8"?>
<!-- Generator: Adobe Illustrator 16.0.0, SVG Export Plug-In . SVG Version: 6.00 Build 0)  -->
<!DOCTYPE svg PUBLIC "-//W3C//DTD SVG 1.1//EN" "http://www.w3.org/Graphics/SVG/1.1/DTD/svg11.dtd">
<svg version="1.1" id="Calque_1" xmlns="http://www.w3.org/2000/svg" xmlns:xlink="http://www.w3.org/1999/xlink" x="0px" y="0px"
	 width="128px" height="128px" viewBox="0 0 128 128" enable-background="new 0 0 128 128" xml:space="preserve">
<g>
	<path fill="#FF0000" d="M66.889,41.587l-23.793-8.385c-2.643-0.928-5.132,0.999-5.132,3.931v14.629
		c0,2.548,1.695,5.067,3.938,5.858l23.791,8.385c0.465,0.162,0.932,0.245,1.395,0.245c1.09,0,2.075-0.459,2.771-1.293
		c0.635-0.759,0.969-1.755,0.969-2.88V47.448C70.826,44.9,69.135,42.381,66.889,41.587z M67.23,62.077
		c0,0.389-0.109,0.562-0.121,0.577c0,0-0.008,0.003-0.023,0.003l-23.991-8.428c-0.71-0.249-1.536-1.382-1.536-2.467V37.133
		c0-0.37,0.097-0.542,0.303-0.542c0.013,0,0.027,0,0.04,0.002l23.792,8.385c0.713,0.251,1.537,1.385,1.537,2.47V62.077L67.23,62.077
		z"/>
	<path fill="#FF0000" d="M25.426,105.07l56.493,22.016c0.274,0.107,0.563,0.159,0.854,0.159c0.467,0,0.928-0.138,1.324-0.407
		c0.381-0.263,0.633-0.641,0.805-1.053c1.338-1.934,2.789-3.553,6.646-5.038c3.477-1.336,5.77-1.233,7.602-1.147
		c0.043,0.004,0.078,0.004,0.119,0.004c0.34,0.191,0.711,0.328,1.129,0.328c1.3,0,2.349-1.05,2.349-2.348V25.393
		c0-0.996-0.625-1.884-1.563-2.216L45.929,3.675c-7.907-2.78-19.836,2.873-21.974,8.806c-0.418,1.163-0.478,2.483-0.024,3.757
		v86.644C23.931,103.852,24.525,104.721,25.426,105.07z M28.628,101.275V20.377c0.019,0.008,0.033,0.016,0.051,0.024l51.745,18.583
		v82.476L28.628,101.275z M87.282,118.782c-0.834,0.47-1.541,0.956-2.162,1.452V37.333c0-0.021-0.011-0.038-0.011-0.06
		c-0.006-0.189-0.063-0.364-0.11-0.542c-0.032-0.119-0.04-0.243-0.089-0.351c-0.064-0.146-0.17-0.262-0.266-0.394
		c-0.084-0.113-0.147-0.24-0.25-0.34c-0.096-0.091-0.22-0.148-0.332-0.224c-0.145-0.097-0.278-0.203-0.44-0.268
		c-0.021-0.008-0.035-0.024-0.058-0.032l-52.54-18.873c0,0-3.332-2.416,4.335-6.416c3.728-1.945,8.682-1.813,8.682-1.813
		c0.105,0.03,0.218,0.049,0.321,0.086l53.684,18.948l0.813,89.112C98.859,116.167,92.037,114.396,87.282,118.782z"/>
</g>
</svg>
