<?xml version="1.0" encoding="utf-8"?>
<!-- Generator: Adobe Illustrator 16.0.0, SVG Export Plug-In . SVG Version: 6.00 Build 0)  -->
<!DOCTYPE svg PUBLIC "-//W3C//DTD SVG 1.1//EN" "http://www.w3.org/Graphics/SVG/1.1/DTD/svg11.dtd">
<svg version="1.1" xmlns="http://www.w3.org/2000/svg" xmlns:xlink="http://www.w3.org/1999/xlink" x="0px" y="0px" width="128px"
	 height="128px" viewBox="0 0 128 128" enable-background="new 0 0 128 128" xml:space="preserve">
<g id="Calque_2_1_">
	<path fill="none" stroke="#E42320" stroke-width="5" stroke-miterlimit="10" d="M64,9.669h20.103c2.598,0,4.703,2.106,4.703,4.703
		v87.356c0,2.597-2.105,4.703-4.703,4.703H25.315c-2.598,0-4.703-2.106-4.703-4.703V64"/>
	<path fill="none" stroke="#E42320" stroke-width="5" stroke-miterlimit="10" d="M64,25.346h7.954c2.598,0,4.703,2.106,4.703,4.703
		v12.149c0,2.596-2.105,4.703-4.703,4.703H64"/>
	<path fill="none" stroke="#E42320" stroke-width="5" stroke-miterlimit="10" d="M92.448,18.747c2.598,0,4.703,2.106,4.703,4.703
		v87.356c0,2.597-2.105,4.703-4.703,4.703H33.661c-2.598,0-4.703-2.106-4.703-4.703"/>
	<path fill="none" stroke="#E42320" stroke-width="5" stroke-miterlimit="10" d="M101.495,27.073c2.598,0,4.703,2.106,4.703,4.703
		v87.356c0,2.597-2.105,4.703-4.703,4.703H42.708c-2.598,0-4.703-2.106-4.703-4.703"/>
</g>
<g id="Calque_4">
</g>
<g id="Calque_3_2_">
	<g id="Calque_3">
		<g>
			<path fill="none" stroke="#FF0000" stroke-width="5" stroke-linecap="round" stroke-linejoin="round" stroke-miterlimit="10" d="
				M56.654,55.605c0,0.578-0.469,1.049-1.049,1.049H5.548c-0.579,0-1.048-0.471-1.048-1.049V5.548C4.5,4.969,4.969,4.5,5.548,4.5
				h50.058c0.58,0,1.049,0.469,1.049,1.048V55.605L56.654,55.605z"/>
			<circle fill="#FF0000" cx="16.424" cy="17.481" r="3.704"/>
			<line fill="none" stroke="#FF0000" stroke-width="4" stroke-miterlimit="10" x1="24.219" y1="17.48" x2="46.23" y2="17.48"/>
			<circle fill="#FF0000" cx="16.424" cy="30.577" r="3.704"/>
			<line fill="none" stroke="#FF0000" stroke-width="4" stroke-miterlimit="10" x1="24.219" y1="30.578" x2="46.23" y2="30.578"/>
			<circle fill="#FF0000" cx="16.424" cy="43.673" r="3.704"/>
			<line fill="none" stroke="#FF0000" stroke-width="4" stroke-miterlimit="10" x1="24.219" y1="43.672" x2="46.23" y2="43.672"/>
		</g>
	</g>
</g>
</svg>
