<?xml version="1.0" encoding="utf-8"?>
<!-- Generator: Adobe Illustrator 16.0.0, SVG Export Plug-In . SVG Version: 6.00 Build 0)  -->
<!DOCTYPE svg PUBLIC "-//W3C//DTD SVG 1.1//EN" "http://www.w3.org/Graphics/SVG/1.1/DTD/svg11.dtd">
<svg version="1.1"
	 id="Layer_1" xmlns:cc="http://creativecommons.org/ns#" xmlns:dc="http://purl.org/dc/elements/1.1/" xmlns:inkscape="http://www.inkscape.org/namespaces/inkscape" xmlns:rdf="http://www.w3.org/1999/02/22-rdf-syntax-ns#" xmlns:sodipodi="http://sodipodi.sourceforge.net/DTD/sodipodi-0.dtd" xmlns:svg="http://www.w3.org/2000/svg" inkscape:version="1.0 (4035a4fb49, 2020-05-01)" sodipodi:docname="iconTicket.svg"
	 xmlns="http://www.w3.org/2000/svg" xmlns:xlink="http://www.w3.org/1999/xlink" x="0px" y="0px" width="128px" height="128px"
	 viewBox="0 0 128 128" enable-background="new 0 0 128 128" xml:space="preserve">
<sodipodi:namedview  id="namedview27" inkscape:zoom="14.75" bordercolor="#666666" guidetolerance="10" objecttolerance="10" borderopacity="1" showgrid="false" inkscape:cx="22.296444" pagecolor="#ffffff" inkscape:cy="24.881783" gridtolerance="10" inkscape:snap-global="false" inkscape:document-rotation="0" inkscape:window-width="1920" inkscape:window-height="1017" inkscape:pageshadow="2" inkscape:window-maximized="1" inkscape:window-x="-8" inkscape:current-layer="Layer_1" inkscape:pageopacity="0" inkscape:window-y="-8">
	</sodipodi:namedview>
<line fill="none" stroke="#E42320" stroke-width="5" stroke-linecap="round" stroke-linejoin="round" stroke-miterlimit="10" x1="4.6" y1="66.22" x2="23.292" y2="66.22"/>
<line fill="none" stroke="#E42320" stroke-width="5" stroke-linecap="round" stroke-linejoin="round" stroke-miterlimit="10" x1="106.708" y1="66.22" x2="125.4" y2="66.22"/>
<line fill="none" stroke="#E42320" stroke-width="5" stroke-linecap="round" stroke-linejoin="round" stroke-miterlimit="10" x1="65.817" y1="26.031" x2="65.817" y2="7.338"/>
<line fill="none" stroke="#E42320" stroke-width="5" stroke-linecap="round" stroke-linejoin="round" stroke-miterlimit="10" x1="95.727" y1="38.014" x2="108.943" y2="24.796"/>
<line fill="none" stroke="#E42320" stroke-width="5" stroke-linecap="round" stroke-linejoin="round" stroke-miterlimit="10" x1="35.409" y1="38.014" x2="22.19" y2="24.796"/>
<path fill="none" stroke="#E42320" stroke-width="5" stroke-miterlimit="10" d="M103.261,95.519h-7.534c0,0,0-28.131,0-31.869
	c0-3.738-4.098-27.104-30.034-27.104S34.274,57.808,34.274,63.416c0,5.607,0,32.103,0,32.103h-6.15c-3.871,0-7.01,3.138-7.01,7.011
	v18.133h89.156v-18.133C110.271,98.656,107.132,95.519,103.261,95.519z"/>
<path fill="none" stroke="#E42320" stroke-width="5" stroke-miterlimit="10" d="M65.817,48.229c0,0-14.486-1.168-19.393,15.188"/>
<line fill="none" stroke="#E42320" stroke-width="5" stroke-miterlimit="10" x1="46.425" y1="70.426" x2="46.425" y2="95.896"/>
<line fill="none" stroke="#E42320" stroke-width="5" stroke-miterlimit="10" x1="34.274" y1="95.519" x2="95.727" y2="95.519"/>
</svg>
