<?xml version="1.0" encoding="utf-8"?>
<!-- Generator: Adobe Illustrator 16.0.0, SVG Export Plug-In . SVG Version: 6.00 Build 0)  -->
<!DOCTYPE svg PUBLIC "-//W3C//DTD SVG 1.1//EN" "http://www.w3.org/Graphics/SVG/1.1/DTD/svg11.dtd">
<svg version="1.1" id="Calque_1" xmlns="http://www.w3.org/2000/svg" xmlns:xlink="http://www.w3.org/1999/xlink" x="0px" y="0px"
	 width="128px" height="128px" viewBox="0 0 128 128" enable-background="new 0 0 128 128" xml:space="preserve">
<g>
	
		<line fill="none" stroke="#FF0000" stroke-width="4" stroke-linecap="round" stroke-linejoin="round" stroke-miterlimit="10" x1="5.964" y1="123.981" x2="90.486" y2="123.981"/>
	<path fill="none" stroke="#FF0000" stroke-width="4" stroke-linecap="round" stroke-linejoin="round" stroke-miterlimit="10" d="
		M8.013,118.626v-4.079l5.337-3.896V99.363c0,0,3.898-13.333,18.463-20.104v12.925"/>
	<path fill="none" stroke="#FF0000" stroke-width="4" stroke-linecap="round" stroke-linejoin="round" stroke-miterlimit="10" d="
		M88.084,118.626v-4.079l-5.337-3.896V99.363c0,0-3.893-13.333-18.46-20.104v12.925"/>
	<path fill="none" stroke="#FF0000" stroke-width="4" stroke-linecap="round" stroke-linejoin="round" stroke-miterlimit="10" d="
		M39.811,99.979V77.938c0,0,0-1.964,3.489-1.964c3.486,0,9.438,0,9.438,0s3.277,0.413,3.277,3.285c0,2.876,0,20.721,0,20.721"/>
</g>
<path fill="none" stroke="#FF0000" stroke-width="5" stroke-linecap="round" stroke-miterlimit="10" d="M125.707,67.604H64.305
	c-1.901,0-3.443-1.67-3.443-3.732V5.102"/>
<line fill="none" stroke="#FF0000" stroke-width="11" stroke-miterlimit="10" x1="65.234" y1="15.713" x2="113.449" y2="15.713"/>
<line fill="none" stroke="#FF0000" stroke-width="11" stroke-miterlimit="10" x1="72.031" y1="32.443" x2="97.221" y2="32.443"/>
<line fill="none" stroke="#FF0000" stroke-width="11" stroke-miterlimit="10" x1="94.041" y1="46.244" x2="119.227" y2="46.244"/>
</svg>
