<?xml version="1.0" encoding="UTF-8" standalone="no"?>
<!DOCTYPE svg PUBLIC "-//W3C//DTD SVG 1.1//EN" "http://www.w3.org/Graphics/SVG/1.1/DTD/svg11.dtd">
<svg width="100%" height="100%" viewBox="0 0 128 128" version="1.1" xmlns="http://www.w3.org/2000/svg" xmlns:xlink="http://www.w3.org/1999/xlink" xml:space="preserve" xmlns:serif="http://www.serif.com/" style="fill-rule:evenodd;clip-rule:evenodd;stroke-linecap:round;stroke-linejoin:round;stroke-miterlimit:10;">
    <g>
        <circle cx="33.182" cy="25.277" r="8.797" style="fill:none;stroke:rgb(255,0,0);stroke-width:5px;"/>
        <path d="M60.477,33.869C60.477,18.795 48.257,6.573 33.183,6.573C18.107,6.573 5.887,18.795 5.887,33.869C5.887,44.478 11.952,53.652 20.794,58.17L20.794,67.225L28.532,74.962L20.205,83.291L27.203,90.288L20.833,96.658L27.683,103.507L20.635,110.555L32.818,122.738L45.75,109.805L45.75,58.096L45.723,58.096C54.481,53.553 60.477,44.419 60.477,33.869Z" style="fill:none;fill-rule:nonzero;stroke:rgb(255,0,0);stroke-width:5px;"/>
    </g>
    <path d="M62.477,63.999L96.242,63.999" style="fill:none;fill-rule:nonzero;stroke:rgb(255,0,0);stroke-width:5px;"/>
    <path d="M62.477,78.116L96.242,78.116" style="fill:none;fill-rule:nonzero;stroke:rgb(255,0,0);stroke-width:5px;"/>
    <path d="M62.477,92.435L96.242,92.435" style="fill:none;fill-rule:nonzero;stroke:rgb(255,0,0);stroke-width:5px;"/>
</svg>
