<?xml version="1.0" encoding="utf-8"?>
<!-- Generator: Adobe Illustrator 16.0.0, SVG Export Plug-In . SVG Version: 6.00 Build 0)  -->
<!DOCTYPE svg PUBLIC "-//W3C//DTD SVG 1.1//EN" "http://www.w3.org/Graphics/SVG/1.1/DTD/svg11.dtd">
<svg version="1.1" xmlns="http://www.w3.org/2000/svg" xmlns:xlink="http://www.w3.org/1999/xlink" x="0px" y="0px" width="128px"
	 height="128px" viewBox="0 0 128 128" enable-background="new 0 0 128 128" xml:space="preserve">
<g id="Calque_1">
	<g id="Calque_3">
		<g>
			<path fill="none" stroke="#FF0000" stroke-width="5" stroke-linecap="round" stroke-linejoin="round" stroke-miterlimit="10" d="
				M61.137,96.43l14.224,7.816L114.76,79.87c0.458-0.285,0.984-0.435,1.518-0.435c1.914,0,3.588,1.305,4.05,3.16l0.401,1.594
				c0.513,2.063-0.26,4.228-1.967,5.496l-41.641,30.922c-1.162,0.867-2.473,1.507-3.87,1.893l-1.968,0.546
				c-1.328,0.373-2.738,0.337-4.043-0.097l-41.272-13.69c-1.879-0.622-3.936-0.473-5.708,0.416l-13.146,6.447"/>
			<path fill="none" stroke="#FF0000" stroke-width="5" stroke-linecap="round" stroke-linejoin="round" stroke-miterlimit="10" d="
				M10.455,89.037L36.968,80c1.114-0.373,2.299-0.484,3.46-0.338l45.528,5.768c2.058,0.26,3.532,2.094,3.354,4.154l-0.213,2.471
				c-0.195,2.217-2.027,3.93-4.257,3.973L61.137,96.43l-9.56-0.34"/>
			<path fill="none" stroke="#FF0000" stroke-width="5" stroke-linecap="round" stroke-linejoin="round" stroke-miterlimit="10" d="
				M84.072,85.189l17.685-7.019c0.95-0.336,1.988-0.337,2.942-0.003l0,0c2.171,0.76,3.624,2.811,3.624,5.109v0.572"/>
		</g>
		<g id="Calque_2">
		</g>
	</g>
	<g id="Calque_2_1_">
		<g id="Calque_1_1_" xmlns:serif="http://www.serif.com/">
			<g id="path17">
				
					<path fill="none" stroke="#FF0000" stroke-width="5" stroke-linecap="round" stroke-linejoin="round" stroke-miterlimit="10" d="
					M18.913,71.598l-3.639-0.029l-5.605-0.045l-4.353-0.034c-0.073-0.071-0.148-0.159-0.201-0.229V55.347
					c0.052-0.071,0.127-0.158,0.2-0.23l4.357-0.036l5.6-0.046l3.655-0.029l1.081-3.492l0.476-1.535c0.666-2.152,1.964-5.3,3.02-7.32
					l1.103-2.108l1.695-3.241l-2.574-2.597l-3.812-3.846c-1.183-1.193-2.614-2.638-3.195-3.343V27.47
					c0.752-0.899,2.75-2.879,5.38-5.486l0.268-0.265c2.719-2.695,4.941-4.898,5.929-5.707c0.727,0.611,2.146,2.027,3.229,3.106
					c4.331,4.316,5.232,5.214,7.528,5.214c1.113,0,2.211-0.341,3.128-0.96c0.238-0.13,0.804-0.43,1.635-0.846
					c2.105-1.052,4.482-2.015,6.695-2.71l1.761-0.554l3.469-1.092l0.03-3.637l0.046-5.598l0.036-4.365
					c0.068-0.07,0.149-0.142,0.215-0.189h15.913"/>
				
					<path fill="none" stroke="#FF0000" stroke-width="5" stroke-linecap="round" stroke-linejoin="round" stroke-miterlimit="10" d="
					M71.982,4.379c0.069,0.052,0.158,0.127,0.229,0.2l0.035,4.354l0.047,5.598l0.029,3.637l3.471,1.091l1.761,0.554
					c2.346,0.737,4.604,1.665,6.916,2.836c2.616,1.326,3.317,1.682,4.643,1.682c2.188,0,2.584-0.394,7.43-5.214
					c1.104-1.099,2.561-2.547,3.268-3.134h0.063c0.896,0.752,2.875,2.746,5.478,5.371l0.27,0.272
					c2.795,2.822,4.92,4.965,5.709,5.933c-0.605,0.724-2.041,2.163-3.135,3.259l-3.785,3.797l-2.535,2.542l1.602,3.214l1.224,2.452
					c1.231,2.479,2.077,4.559,2.832,6.947l0.553,1.761l1.09,3.472l3.642,0.03l5.6,0.046l4.354,0.036
					c0.072,0.073,0.147,0.161,0.199,0.233v12.908"/>
			</g>
			<path id="path19_2_" fill="none" stroke="#FF0000" stroke-width="5" stroke-miterlimit="10" d="M40.495,67.566
				c-0.481-2.418-0.48-6.247,0.002-8.67c1.965-9.871,9.304-17.207,19.187-19.178c2.396-0.478,6.232-0.476,8.66,0.003
				c6.564,1.297,12.027,4.943,15.65,10.443c3.771,5.729,4.822,12.659,3.156,19.059"/>
		</g>
	</g>
</g>
<g id="Calque_2_2_" display="none">
	
		<polyline display="inline" fill="none" stroke="#FF0000" stroke-width="5" stroke-linecap="round" stroke-linejoin="round" stroke-miterlimit="10" points="
		59.051,12.444 64.229,6.311 69.01,12.557 	"/>
	
		<polyline display="inline" fill="none" stroke="#FF0000" stroke-width="5" stroke-linecap="round" stroke-linejoin="round" stroke-miterlimit="10" points="
		99.188,24.971 107.186,24.295 106.15,32.092 	"/>
	
		<polyline display="inline" fill="none" stroke="#FF0000" stroke-width="5" stroke-linecap="round" stroke-linejoin="round" stroke-miterlimit="10" points="
		118.711,62.209 124.844,67.385 118.6,72.166 	"/>
	
		<polyline display="inline" fill="none" stroke="#FF0000" stroke-width="5" stroke-linecap="round" stroke-linejoin="round" stroke-miterlimit="10" points="
		106.185,102.346 106.86,110.342 99.064,109.307 	"/>
	
		<polyline display="inline" fill="none" stroke="#FF0000" stroke-width="5" stroke-linecap="round" stroke-linejoin="round" stroke-miterlimit="10" points="
		68.945,121.869 63.77,128 58.989,121.756 	"/>
	
		<polyline display="inline" fill="none" stroke="#FF0000" stroke-width="5" stroke-linecap="round" stroke-linejoin="round" stroke-miterlimit="10" points="
		28.809,109.342 20.813,110.018 21.849,102.223 	"/>
	
		<polyline display="inline" fill="none" stroke="#FF0000" stroke-width="5" stroke-linecap="round" stroke-linejoin="round" stroke-miterlimit="10" points="
		9.285,72.102 3.154,66.928 9.398,62.146 	"/>
	
		<polyline display="inline" fill="none" stroke="#FF0000" stroke-width="5" stroke-linecap="round" stroke-linejoin="round" stroke-miterlimit="10" points="
		21.813,31.965 21.137,23.971 28.932,25.006 	"/>
	<g id="Calque_1_2_" xmlns:serif="http://www.serif.com/" display="inline">
		<g id="path17_1_">
			<path fill="none" stroke="#FF0000" stroke-width="5" stroke-linecap="round" stroke-linejoin="round" stroke-miterlimit="10" d="
				M67.554,40.198c0.032,0.023,0.071,0.058,0.104,0.089l0.016,1.949l0.021,2.506l0.013,1.627l1.554,0.488l0.788,0.248
				c1.049,0.33,2.061,0.746,3.095,1.27c1.172,0.594,1.485,0.753,2.078,0.753c0.979,0,1.156-0.177,3.325-2.334
				c0.494-0.491,1.146-1.14,1.463-1.402h0.027c0.401,0.337,1.287,1.229,2.451,2.404l0.12,0.121c1.252,1.263,2.203,2.223,2.557,2.656
				c-0.271,0.323-0.914,0.968-1.404,1.458l-1.694,1.699l-1.134,1.138l0.717,1.438l0.547,1.098c0.552,1.109,0.93,2.041,1.268,3.109
				l0.248,0.788l0.487,1.554l1.629,0.014l2.507,0.021l1.948,0.017c0.033,0.032,0.066,0.072,0.09,0.104v7.12
				c-0.023,0.032-0.057,0.071-0.09,0.104l-1.951,0.017l-2.51,0.021l-1.645,0.014L83.7,71.859l-0.177,0.586
				c-0.33,1.089-1.036,2.748-1.641,3.854l-0.253,0.46l-0.805,1.469l1.184,1.187l1.725,1.729c0.686,0.688,1.153,1.184,1.406,1.463
				c-0.341,0.403-1.277,1.343-2.513,2.581l-0.098,0.098c-1.194,1.195-2.104,2.105-2.522,2.455c-0.324-0.271-0.962-0.908-1.449-1.395
				c-2.21-2.202-2.343-2.334-3.316-2.334c-0.574,0-0.818,0.122-2.173,0.792c-1.132,0.563-1.954,0.897-3.032,1.238l-0.766,0.241
				l-1.551,0.488l-0.013,1.627l-0.021,2.506l-0.015,1.948c-0.025,0.024-0.051,0.048-0.075,0.067
				c-0.416,0.023-1.526,0.026-3.36,0.031l-0.698,0.002c-1.672,0-2.75-0.015-3.105-0.028c-0.029-0.014-0.065-0.038-0.093-0.063
				l-0.017-1.965l-0.02-2.508l-0.014-1.645l-1.575-0.479l-0.588-0.178c-1.067-0.322-2.63-0.986-3.804-1.615l-0.527-0.284
				l-1.463-0.785l-1.176,1.171l-1.73,1.725c-0.688,0.684-1.183,1.153-1.462,1.406c-0.426-0.354-1.448-1.38-2.611-2.545l-0.081-0.083
				c-1.184-1.185-2.086-2.09-2.438-2.508c0.274-0.327,0.916-0.971,1.405-1.462l1.696-1.702l1.135-1.139l-0.718-1.438l-0.546-1.097
				c-0.557-1.116-0.936-2.046-1.27-3.107l-0.247-0.788l-0.487-1.554l-1.629-0.013l-2.509-0.02l-1.948-0.017
				c-0.033-0.032-0.066-0.071-0.09-0.103V63.01c0.023-0.032,0.057-0.071,0.09-0.104l1.949-0.016l2.506-0.021l1.637-0.013
				l0.483-1.563l0.214-0.687c0.297-0.964,0.879-2.372,1.351-3.276l0.494-0.943l0.759-1.451l-1.152-1.162l-1.706-1.721
				c-0.53-0.534-1.17-1.182-1.43-1.496v-0.025c0.337-0.402,1.23-1.287,2.407-2.455l0.12-0.118c1.218-1.206,2.212-2.192,2.653-2.554
				c0.326,0.273,0.961,0.906,1.445,1.39c1.938,1.932,2.342,2.333,3.369,2.333c0.499,0,0.99-0.152,1.4-0.43
				c0.106-0.058,0.359-0.191,0.732-0.378c0.941-0.472,2.006-0.902,2.996-1.213l0.788-0.248l1.552-0.489l0.014-1.627l0.021-2.506
				l0.016-1.953c0.031-0.031,0.066-0.064,0.097-0.085H67.554"/>
		</g>
		<path id="path19" fill="none" stroke="#FF0000" stroke-width="5" stroke-miterlimit="10" d="M63.011,77.215
			c-0.617-0.064-1.771-0.314-2.349-0.506c-3.721-1.234-6.423-4.322-7.201-8.23c-0.215-1.082-0.215-2.796,0.001-3.881
			c0.88-4.418,4.165-7.701,8.588-8.583c1.073-0.214,2.789-0.214,3.876,0.001c2.938,0.581,5.383,2.213,7.005,4.674
			c2.341,3.557,2.341,8.146,0,11.702c-1.611,2.444-4.085,4.102-6.965,4.664C65.254,77.194,63.635,77.281,63.011,77.215z"/>
	</g>
	<g display="inline">
		<path fill="#FF0000" d="M42.852,36.906c5.994-4.221,13.289-6.709,21.16-6.709c0.463,0,0.934-0.09,1.393-0.072l0.51-4.879
			c-0.631-0.028-1.265-0.049-1.902-0.049c-9.063,0-17.454,2.905-24.313,7.819L42.852,36.906z"/>
		
			<line fill="none" stroke="#FF0000" stroke-width="5" stroke-linecap="square" stroke-miterlimit="50" x1="64.005" y1="8.291" x2="64.005" y2="27.647"/>
	</g>
	<g display="inline">
		<path fill="#FF0000" d="M70.399,30.9c7.222,1.254,14.141,4.654,19.706,10.219c0.327,0.328,0.724,0.598,1.036,0.934l3.81-3.089
			c-0.426-0.466-0.859-0.929-1.311-1.38c-6.408-6.408-14.396-10.287-22.72-11.662L70.399,30.9z"/>
		
			<line fill="none" stroke="#FF0000" stroke-width="5" stroke-linecap="square" stroke-miterlimit="50" x1="105.591" y1="25.625" x2="91.904" y2="39.312"/>
	</g>
	<g display="inline">
		<path fill="#FF0000" d="M94.125,46.133c4.22,5.994,6.708,13.291,6.709,21.16c-0.001,0.463,0.089,0.936,0.072,1.393l4.878,0.51
			c0.028-0.631,0.049-1.264,0.049-1.902c0-9.063-2.905-17.453-7.819-24.312L94.125,46.133z"/>
		
			<line fill="none" stroke="#FF0000" stroke-width="5" stroke-linecap="square" stroke-miterlimit="50" x1="122.74" y1="67.287" x2="103.385" y2="67.287"/>
	</g>
	<g display="inline">
		<path fill="#FF0000" d="M100.131,73.682c-1.255,7.221-4.654,14.141-10.219,19.705c-0.328,0.327-0.599,0.725-0.934,1.037
			l3.089,3.809c0.466-0.426,0.929-0.858,1.38-1.311c6.408-6.408,10.287-14.396,11.662-22.72L100.131,73.682z"/>
		
			<line fill="none" stroke="#FF0000" stroke-width="5" stroke-linecap="square" stroke-miterlimit="50" x1="105.406" y1="108.873" x2="91.721" y2="95.187"/>
	</g>
	<g display="inline">
		<path fill="#FF0000" d="M84.897,97.408c-5.993,4.218-13.29,6.707-21.159,6.707c-0.463-0.001-0.936,0.09-1.394,0.074l-0.509,4.877
			c0.631,0.027,1.264,0.049,1.902,0.049c9.063,0,17.453-2.906,24.313-7.819L84.897,97.408z"/>
		
			<line fill="none" stroke="#FF0000" stroke-width="5" stroke-linecap="square" stroke-miterlimit="50" x1="63.744" y1="126.021" x2="63.744" y2="106.667"/>
	</g>
	<g display="inline">
		<path fill="#FF0000" d="M57.35,103.413c-7.221-1.255-14.141-4.655-19.705-10.22c-0.327-0.328-0.725-0.598-1.038-0.932
			l-3.808,3.088c0.426,0.465,0.858,0.928,1.311,1.38c6.408,6.408,14.396,10.286,22.721,11.662L57.35,103.413z"/>
		
			<line fill="none" stroke="#FF0000" stroke-width="5" stroke-linecap="square" stroke-miterlimit="50" x1="22.158" y1="108.688" x2="35.844" y2="95.003"/>
	</g>
	<g display="inline">
		<path fill="#FF0000" d="M33.623,88.18c-4.219-5.993-6.707-13.291-6.707-21.16c0-0.463-0.09-0.936-0.075-1.393l-4.876-0.51
			c-0.027,0.631-0.049,1.264-0.049,1.903c0,9.063,2.906,17.452,7.819,24.312L33.623,88.18z"/>
		
			<line fill="none" stroke="#FF0000" stroke-width="5" stroke-linecap="square" stroke-miterlimit="50" x1="5.01" y1="67.025" x2="24.363" y2="67.026"/>
	</g>
	<g display="inline">
		<path fill="#FF0000" d="M27.617,60.631c1.256-7.221,4.656-14.141,10.221-19.705c0.327-0.326,0.598-0.725,0.932-1.037l-3.088-3.809
			c-0.465,0.427-0.928,0.859-1.381,1.311c-6.408,6.408-10.285,14.396-11.661,22.721L27.617,60.631z"/>
		
			<line fill="none" stroke="#FF0000" stroke-width="5" stroke-linecap="square" stroke-miterlimit="50" x1="22.344" y1="25.439" x2="36.028" y2="39.127"/>
	</g>
</g>
</svg>
