<?xml version="1.0" encoding="utf-8"?>
<!-- Generator: Adobe Illustrator 16.0.0, SVG Export Plug-In . SVG Version: 6.00 Build 0)  -->
<!DOCTYPE svg PUBLIC "-//W3C//DTD SVG 1.1//EN" "http://www.w3.org/Graphics/SVG/1.1/DTD/svg11.dtd">
<svg version="1.1" xmlns="http://www.w3.org/2000/svg" xmlns:xlink="http://www.w3.org/1999/xlink" x="0px" y="0px" width="128px"
	 height="128px" viewBox="0 0 128 128" enable-background="new 0 0 128 128" xml:space="preserve">
<g id="Calque_1">
	<g id="Calque_1_1_" display="none">
	</g>
	<line fill="none" stroke="#FF0000" stroke-width="11" stroke-miterlimit="10" x1="5.1" y1="29" x2="58.226" y2="29"/>
	<line fill="none" stroke="#FF0000" stroke-width="11" stroke-miterlimit="10" x1="58.226" y1="40.634" x2="77.229" y2="40.634"/>
	<line fill="none" stroke="#FF0000" stroke-width="11" stroke-miterlimit="10" x1="17.83" y1="68.512" x2="45.601" y2="68.512"/>
	<line fill="none" stroke="#FF0000" stroke-width="11" stroke-miterlimit="10" x1="45.601" y1="81.646" x2="68.682" y2="81.646"/>
	<path fill="none" stroke="#FF0000" stroke-width="5" stroke-miterlimit="10" d="M64,111.907H11.022
		c-3.316,0-6.004-2.915-6.004-6.509V15.383c0-3.594,2.688-6.507,6.004-6.507h48.079"/>
	<path fill="none" stroke="#FF0000" stroke-width="5" stroke-miterlimit="10" d="M98.354,8.876h19.752
		c3.318,0,6.006,2.914,6.006,6.507v31.146"/>
</g>
<g id="Calque_2">
	<g>
		<g>
			<path fill="none" stroke="#FF0000" stroke-width="5" stroke-linecap="round" stroke-linejoin="round" stroke-miterlimit="10" d="
				M123.093,56.234c0-3.306-2.705-6.011-6.011-6.011c-3.309,0-6.014,2.706-6.014,6.011v-3.489c0-3.308-2.705-6.013-6.014-6.013
				c-3.308,0-6.014,2.706-6.014,6.013v-6.421c0-3.306-2.706-6.012-6.012-6.012c-3.309,0-6.014,2.706-6.014,6.012V19.167
				c0-3.306-2.705-6.013-6.013-6.013s-6.013,2.707-6.013,6.013v39.036l-4.673-8.095c-1.653-2.863-5.35-3.853-8.214-2.2
				c-2.865,1.655-3.854,5.351-2.201,8.214c0,0,12.504,46.257,22.847,46.257h21.539c10.344,0,18.805-21.679,18.805-22.092V56.234z"/>
			
				<rect x="71.458" y="102.379" fill="none" stroke="#FF0000" stroke-width="5" stroke-linecap="round" stroke-linejoin="round" stroke-miterlimit="10" width="47.907" height="20.006"/>
		</g>
		<path fill="none" stroke="#FF0000" stroke-width="5" stroke-linecap="round" stroke-linejoin="round" stroke-miterlimit="10" d="
			M66.532,18.919c0-7.89,6.396-14.287,14.286-14.287c7.889,0,14.285,6.397,14.285,14.287"/>
	</g>
</g>
<g id="Calque_3">
</g>
</svg>
