<?xml version="1.0" encoding="utf-8"?>
<!-- Generator: Adobe Illustrator 16.0.0, SVG Export Plug-In . SVG Version: 6.00 Build 0)  -->
<!DOCTYPE svg PUBLIC "-//W3C//DTD SVG 1.1//EN" "http://www.w3.org/Graphics/SVG/1.1/DTD/svg11.dtd">
<svg version="1.1" xmlns="http://www.w3.org/2000/svg" xmlns:xlink="http://www.w3.org/1999/xlink" x="0px" y="0px" width="128px"
	 height="128px" viewBox="0 0 128 128" enable-background="new 0 0 128 128" xml:space="preserve">
<g id="Calque_1" display="none">
	<g id="Calque_1_2_" display="inline">
		<g id="Calque_1_1_" display="none">
		</g>
		<line fill="none" stroke="#FF0000" stroke-width="11" stroke-miterlimit="10" x1="5.1" y1="35.064" x2="58.226" y2="35.064"/>
		<line fill="none" stroke="#FF0000" stroke-width="11" stroke-miterlimit="10" x1="58.226" y1="46.698" x2="86.372" y2="46.698"/>
		<line fill="none" stroke="#FF0000" stroke-width="11" stroke-miterlimit="10" x1="17.83" y1="68.512" x2="45.601" y2="68.512"/>
		<line fill="none" stroke="#FF0000" stroke-width="11" stroke-miterlimit="10" x1="45.601" y1="81.646" x2="53.228" y2="81.646"/>
		<path fill="none" stroke="#FF0000" stroke-width="5" stroke-miterlimit="10" d="M45.971,111.907H11.022
			c-3.316,0-6.004-2.915-6.004-6.509V15.383c0-3.594,2.688-6.507,6.004-6.507h107.083c3.317,0,6.006,2.914,6.006,6.507V69.95"/>
	</g>
</g>
<g id="Calque_3">
	<path fill="none" stroke="#FF0000" stroke-width="5" stroke-linecap="round" stroke-miterlimit="10" d="M124.019,67.387H62.616
		c-1.902,0-3.443-1.67-3.443-3.732V4.885"/>
	<line fill="none" stroke="#FF0000" stroke-width="11" stroke-miterlimit="10" x1="63.545" y1="15.496" x2="111.761" y2="15.496"/>
	<line fill="none" stroke="#FF0000" stroke-width="11" stroke-miterlimit="10" x1="70.343" y1="32.225" x2="95.532" y2="32.225"/>
	<line fill="none" stroke="#FF0000" stroke-width="11" stroke-miterlimit="10" x1="92.353" y1="46.027" x2="117.54" y2="46.027"/>
	<g id="Calque_2_2_">
	</g>
</g>
<g id="Calque_2_1_">
	<path fill="none" stroke="#FF0000" stroke-width="5" stroke-miterlimit="10" d="M79.59,76.5v40.494c0,2.04-1.16,3.69-2.59,3.69
		H9.524c-1.429,0-2.588-1.65-2.588-3.69v-54.46c0-2.037,1.159-3.69,2.588-3.69H49.5"/>
	<g>
		<path fill="#FF0000" d="M20.439,105.846l-7.538-21.09h4.618l5.336,15.608l5.166-15.608h4.518l-7.552,21.09H20.439z"/>
		<path fill="#FF0000" d="M44.162,105.846H40.12V90.61c-1.476,1.38-3.216,2.403-5.221,3.064v-3.669
			c1.056-0.344,2.203-0.999,3.438-1.962c1.237-0.965,2.086-2.089,2.547-3.375h3.28v21.177H44.162z"/>
		<path fill="#FF0000" d="M51.067,105.846v-4.043h4.042v4.043H51.067z"/>
		<path fill="#FF0000" d="M65.225,84.669c2.042,0,3.64,0.729,4.789,2.187c1.373,1.726,2.058,4.589,2.058,8.588
			c0,3.991-0.69,6.858-2.073,8.603c-1.141,1.44-2.731,2.159-4.775,2.159c-2.052,0-3.707-0.789-4.962-2.366
			c-1.257-1.578-1.886-4.39-1.886-8.438c0-3.97,0.692-6.828,2.072-8.574C61.588,85.389,63.181,84.669,65.225,84.669z M65.225,88.021
			c-0.49,0-0.927,0.156-1.311,0.467c-0.383,0.312-0.68,0.871-0.892,1.677c-0.277,1.045-0.417,2.806-0.417,5.278
			c0,2.476,0.124,4.175,0.374,5.102c0.249,0.925,0.563,1.54,0.941,1.848c0.379,0.308,0.813,0.46,1.303,0.46
			c0.489,0,0.926-0.154,1.309-0.467c0.384-0.312,0.681-0.87,0.893-1.678c0.278-1.034,0.417-2.789,0.417-5.265
			c0-2.473-0.124-4.173-0.374-5.099c-0.249-0.926-0.563-1.545-0.941-1.856C66.146,88.178,65.712,88.021,65.225,88.021z"/>
	</g>
</g>
</svg>
