<?xml version="1.0" encoding="utf-8"?>
<!-- Generator: Adobe Illustrator 16.0.0, SVG Export Plug-In . SVG Version: 6.00 Build 0)  -->
<!DOCTYPE svg PUBLIC "-//W3C//DTD SVG 1.1//EN" "http://www.w3.org/Graphics/SVG/1.1/DTD/svg11.dtd">
<svg version="1.1" id="Calque_1" xmlns="http://www.w3.org/2000/svg" xmlns:xlink="http://www.w3.org/1999/xlink" x="0px" y="0px"
	 width="128px" height="128px" viewBox="0 0 128 128" enable-background="new 0 0 128 128" xml:space="preserve">
<g id="Livello_1" xmlns:dc="http://purl.org/dc/elements/1.1/" xmlns:sodipodi="http://sodipodi.sourceforge.net/DTD/sodipodi-0.dtd" xmlns:inkscape="http://www.inkscape.org/namespaces/inkscape" xmlns:rdf="http://www.w3.org/1999/02/22-rdf-syntax-ns#" xmlns:cc="http://creativecommons.org/ns#" xmlns:svg="http://www.w3.org/2000/svg" inkscape:version="1.0 (4035a4fb49, 2020-05-01)" sodipodi:docname="iconHome.svg">
	
		<sodipodi:namedview  inkscape:cx="7.8240306" pagecolor="#ffffff" inkscape:cy="41.675131" borderopacity="1" bordercolor="#666666" showgrid="false" objecttolerance="10" guidetolerance="10" gridtolerance="10" inkscape:zoom="2.8710938" id="namedview7" inkscape:window-width="1519" inkscape:pageopacity="0" inkscape:window-y="0" inkscape:current-layer="Livello_1" inkscape:window-height="845" inkscape:window-maximized="0" inkscape:window-x="0" inkscape:pageshadow="2">
		</sodipodi:namedview>
	<title  id="title2"></title>
	<path fill="none" stroke="#FF0000" stroke-width="4" stroke-miterlimit="10" d="M53.435,57.732c0.142-0.203,0.273-0.412,0.4-0.626
		c3.457-5.827,1.535-13.35-4.293-16.807c-2.141-1.271-4.501-1.807-6.813-1.704c0,0-2.459-0.095-4.995-1.004l14.021-23.637
		L75.34,27.944c0.401-1.218,0.622-2.382,0.762-3.251c0.117-0.868,0.143-1.426,0.143-1.426c-0.104-2.309,0.432-4.671,1.702-6.813
		c3.456-5.826,10.979-7.748,16.804-4.292c5.826,3.455,7.749,10.979,4.294,16.805c-1.271,2.141-3.085,3.747-5.163,4.761l-0.011-0.007
		c0,0-1.915,1.166-3.672,3.035l23.585,13.99l-14.021,23.64c0,0-1.349-1.367-3.277-3.9c-1.017-2.082-2.618-3.896-4.748-5.158
		c-5.825-3.455-13.35-1.537-16.806,4.291c-0.127,0.213-0.243,0.43-0.358,0.65c-0.135,0.203-0.271,0.412-0.396,0.623
		c-3.457,5.828-1.535,13.352,4.292,16.807c2.129,1.264,4.489,1.799,6.801,1.695c0,0,2.453,0.105,4.996,1.002l-14.02,23.637
		l-23.585-13.99c-0.799,2.441-0.905,4.68-0.905,4.68l0.012,0.008c0.107,2.313-0.432,4.672-1.702,6.814
		c-3.456,5.824-10.98,7.75-16.807,4.293c-5.826-3.457-7.747-10.979-4.29-16.809c1.27-2.141,3.086-3.742,5.162-4.758
		c0,0,0.479-0.291,1.183-0.809c0.697-0.541,1.612-1.295,2.491-2.232L14.218,77.238l14.019-23.632
		c2.013,1.791,3.273,3.903,3.273,3.903c1.019,2.078,2.619,3.892,4.761,5.164c5.829,3.456,13.351,1.534,16.807-4.291
		C53.206,58.167,53.327,57.95,53.435,57.732z"/>
</g>
</svg>
