<?xml version="1.0" encoding="utf-8"?>
<!-- Generator: Adobe Illustrator 16.0.0, SVG Export Plug-In . SVG Version: 6.00 Build 0)  -->
<!DOCTYPE svg PUBLIC "-//W3C//DTD SVG 1.1//EN" "http://www.w3.org/Graphics/SVG/1.1/DTD/svg11.dtd">
<svg version="1.1" id="Calque_1" xmlns="http://www.w3.org/2000/svg" xmlns:xlink="http://www.w3.org/1999/xlink" x="0px" y="0px"
	 width="128px" height="128px" viewBox="0 0 128 128" enable-background="new 0 0 128 128" xml:space="preserve">
<g>
	<path fill="none" stroke="#FF0000" stroke-width="5" stroke-linecap="round" stroke-linejoin="round" stroke-miterlimit="10" d="
		M34.087,85.881c-2.569-4.417-4.042-9.548-4.042-15.024c0-8.26,3.349-15.74,8.762-21.153l21.152,21.153h29.914
		c0,16.521-13.392,29.913-29.914,29.913c-7.22,0-13.842-2.558-19.01-6.817"/>
	<path fill="none" stroke="#FF0000" stroke-width="5" stroke-linecap="round" stroke-linejoin="round" stroke-miterlimit="10" d="
		M88.576,62.122c-1.446-4.748-4.045-8.996-7.467-12.418L59.958,70.856h29.914c0-0.777-0.028-1.55-0.089-2.312"/>
	<path fill="none" stroke="#FF0000" stroke-width="5" stroke-linecap="round" stroke-linejoin="round" stroke-miterlimit="10" d="
		M70.618,31.366c-3.312-1.263-6.904-1.955-10.66-1.955c-8.259,0-15.738,3.348-21.152,8.761l21.152,21.152l21.151-21.153
		c-0.817-0.816-1.682-1.587-2.59-2.306"/>
	
		<polyline fill="none" stroke="#FF0000" stroke-width="5" stroke-linecap="round" stroke-linejoin="round" stroke-miterlimit="10" points="
		62.453,39.531 84.141,17.843 104.324,17.843 	"/>
	
		<polyline fill="none" stroke="#FF0000" stroke-width="5" stroke-linecap="round" stroke-linejoin="round" stroke-miterlimit="10" points="
		83.391,62.121 96.423,62.121 108.352,74.047 124.113,74.047 	"/>
	
		<polyline fill="none" stroke="#FF0000" stroke-width="5" stroke-linecap="round" stroke-linejoin="round" stroke-miterlimit="10" points="
		49.023,85.876 24.532,110.367 5.572,110.367 	"/>
</g>
</svg>
