<?xml version="1.0" encoding="utf-8"?>
<!-- Generator: Adobe Illustrator 16.0.0, SVG Export Plug-In . SVG Version: 6.00 Build 0)  -->
<!DOCTYPE svg PUBLIC "-//W3C//DTD SVG 1.1//EN" "http://www.w3.org/Graphics/SVG/1.1/DTD/svg11.dtd">
<svg version="1.1" id="Calque_1" xmlns="http://www.w3.org/2000/svg" xmlns:xlink="http://www.w3.org/1999/xlink" x="0px" y="0px"
	 width="128px" height="128px" viewBox="0 0 128 128" enable-background="new 0 0 128 128" xml:space="preserve">
<g id="Calque_1_3_" display="none">
	<g id="Calque_1_2_" display="inline">
		<g id="Calque_1_1_" display="none">
		</g>
		<line fill="none" stroke="#FF0000" stroke-width="11" stroke-miterlimit="10" x1="5.1" y1="26.094" x2="58.226" y2="26.094"/>
		<line fill="none" stroke="#FF0000" stroke-width="11" stroke-miterlimit="10" x1="58.226" y1="37.728" x2="86.372" y2="37.728"/>
		<line fill="none" stroke="#FF0000" stroke-width="11" stroke-miterlimit="10" x1="14.017" y1="68.512" x2="41.788" y2="68.512"/>
		<line fill="none" stroke="#FF0000" stroke-width="11" stroke-miterlimit="10" x1="41.788" y1="81.646" x2="49.415" y2="81.646"/>
		<path fill="none" stroke="#FF0000" stroke-width="5" stroke-miterlimit="10" d="M45.971,111.907H11.022
			c-3.316,0-6.004-2.915-6.004-6.509V15.383c0-3.594,2.688-6.507,6.004-6.507h107.083c3.316,0,6.006,2.914,6.006,6.507v41.316"/>
	</g>
</g>
<g id="Calque_2_3_">
	
		<polygon fill="none" stroke="#FF0000" stroke-width="5" stroke-linecap="round" stroke-linejoin="round" stroke-miterlimit="10" points="
		66.501,74.493 66.501,108.911 96.296,122.526 125.32,107.626 125.32,76.291 95.911,61.908 	"/>
	
		<polyline fill="none" stroke="#FF0000" stroke-width="5" stroke-linecap="round" stroke-linejoin="round" stroke-miterlimit="10" points="
		71.381,77.062 95.911,87.079 95.911,116.617 	"/>
	
		<line fill="none" stroke="#FF0000" stroke-width="5" stroke-linecap="round" stroke-linejoin="round" stroke-miterlimit="10" x1="95.911" y1="87.079" x2="120.062" y2="78.22"/>
</g>
<path fill="#FF0000" d="M84.941,109.713c-0.01,0.326-0.108,0.569-0.284,0.733c-0.182,0.161-0.394,0.195-0.64,0.098l-7.143-2.799
	c-0.246-0.097-0.45-0.3-0.617-0.604c-0.164-0.308-0.239-0.626-0.229-0.951c0.01-0.319,0.104-0.554,0.282-0.713
	c0.182-0.156,0.394-0.187,0.64-0.091l2.718,1.065l0.449-13.91l-2.677-1.05c-0.245-0.096-0.45-0.294-0.615-0.589
	c-0.165-0.297-0.242-0.611-0.231-0.937c0.011-0.329,0.105-0.571,0.286-0.735c0.18-0.161,0.392-0.194,0.637-0.098l4.447,1.742
	l-0.526,16.271l1.77,0.693C83.208,107.84,84.987,108.32,84.941,109.713z"/>
<path id="path29_1_" fill="none" stroke="#FF0000" stroke-width="5" stroke-miterlimit="10" d="M67.868,124.288H14.354
	c-5.954,0-10.781-4.826-10.781-10.781V14.983c0-5.955,4.827-10.781,10.781-10.781h98.525c5.953,0,10.781,4.827,10.781,10.781v49.262
	"/>
<line id="line31" fill="none" stroke="#FF0000" stroke-width="12" stroke-miterlimit="10" x1="12.498" y1="24.584" x2="41.168" y2="24.584"/>
<line id="line33" fill="none" stroke="#FF0000" stroke-width="12" stroke-miterlimit="10" x1="40.292" y1="78.417" x2="61.009" y2="78.417"/>
<line id="line37" fill="none" stroke="#FF0000" stroke-width="12" stroke-miterlimit="10" x1="41.143" y1="51.53" x2="73.934" y2="51.53"/>
<path id="path2790" fill="none" stroke="#FF0000" d="M40.766,18.707l-0.073,65.684"/>
</svg>
