<?xml version="1.0" encoding="utf-8"?>
<!-- Generator: Adobe Illustrator 16.0.0, SVG Export Plug-In . SVG Version: 6.00 Build 0)  -->
<!DOCTYPE svg PUBLIC "-//W3C//DTD SVG 1.1//EN" "http://www.w3.org/Graphics/SVG/1.1/DTD/svg11.dtd">
<svg version="1.1" id="Calque_1" xmlns:serif="http://www.serif.com/"
	 xmlns="http://www.w3.org/2000/svg" xmlns:xlink="http://www.w3.org/1999/xlink" x="0px" y="0px" width="128px" height="128px"
	 viewBox="0 0 128 128" enable-background="new 0 0 128 128" xml:space="preserve">
<g id="Calque_3">
	<path fill="none" stroke="#FF0000" stroke-width="5" stroke-linecap="round" stroke-linejoin="round" stroke-miterlimit="10" d="
		M16.158,74.57C12.594,81.98,4,80.126,4,80.126V96.5h120V80.126c0,0-13.561-0.722-13.561-13.608
		c0-12.892,13.561-14.563,13.561-14.563V31.503H64"/>
	<g>
		<g>
			
				<path fill="none" stroke="#FF0000" stroke-width="5" stroke-linecap="round" stroke-linejoin="round" stroke-dasharray="5,10" d="
				M86.961,31.5v64.998"/>
		</g>
	</g>
</g>
<g>
	<path fill="none" stroke="#FF0000" stroke-width="5" stroke-linecap="round" stroke-linejoin="round" stroke-miterlimit="10" d="
		M56.199,65.921c0,0.578-0.469,1.048-1.048,1.048H5.093c-0.579,0-1.048-0.47-1.048-1.048V15.863c0-0.579,0.469-1.048,1.048-1.048
		h50.058c0.579,0,1.048,0.469,1.048,1.048V65.921z"/>
	<circle fill="#FF0000" cx="15.969" cy="27.796" r="3.704"/>
	<line fill="none" stroke="#FF0000" stroke-width="4" stroke-miterlimit="10" x1="23.764" y1="27.796" x2="45.776" y2="27.796"/>
	<circle fill="#FF0000" cx="15.969" cy="40.892" r="3.704"/>
	<line fill="none" stroke="#FF0000" stroke-width="4" stroke-miterlimit="10" x1="23.764" y1="40.892" x2="45.776" y2="40.892"/>
	<circle fill="#FF0000" cx="15.969" cy="53.987" r="3.704"/>
	<line fill="none" stroke="#FF0000" stroke-width="4" stroke-miterlimit="10" x1="23.764" y1="53.987" x2="45.776" y2="53.987"/>
</g>
</svg>
