<?xml version="1.0" encoding="utf-8"?>
<!-- Generator: Adobe Illustrator 16.0.0, SVG Export Plug-In . SVG Version: 6.00 Build 0)  -->
<!DOCTYPE svg PUBLIC "-//W3C//DTD SVG 1.1//EN" "http://www.w3.org/Graphics/SVG/1.1/DTD/svg11.dtd">
<svg version="1.1" id="Calque_1" xmlns="http://www.w3.org/2000/svg" xmlns:xlink="http://www.w3.org/1999/xlink" x="0px" y="0px"
	 width="128px" height="128px" viewBox="0 0 128 128" enable-background="new 0 0 128 128" xml:space="preserve">
<g>
	<g>
		<path fill="none" stroke="#FF0000" stroke-width="5" stroke-linecap="round" stroke-linejoin="round" stroke-miterlimit="10" d="
			M60.643,98.457l14.155,7.781l39.208-24.258c0.453-0.283,0.979-0.433,1.51-0.433c1.904,0,3.567,1.298,4.027,3.144l0.4,1.588
			c0.509,2.051-0.26,4.205-1.957,5.467L76.549,122.52c-1.156,0.861-2.459,1.498-3.852,1.883l-1.959,0.541
			c-1.319,0.373-2.725,0.341-4.021-0.094l-41.072-13.623c-1.869-0.621-3.917-0.473-5.679,0.41l-13.081,6.418"/>
		<path fill="none" stroke="#FF0000" stroke-width="5" stroke-linecap="round" stroke-linejoin="round" stroke-miterlimit="10" d="
			M10.207,91.102l26.384-8.992c1.108-0.368,2.289-0.481,3.445-0.336l45.307,5.738c2.046,0.258,3.515,2.082,3.339,4.135l-0.214,2.459
			c-0.194,2.205-2.017,3.91-4.233,3.951l-23.588,0.4l-9.513-0.334"/>
		<path fill="none" stroke="#FF0000" stroke-width="5" stroke-linecap="round" stroke-linejoin="round" stroke-miterlimit="10" d="
			M83.467,87.273l17.598-6.984c0.947-0.334,1.98-0.336,2.931-0.004l0,0c2.157,0.756,3.604,2.797,3.604,5.086v0.57"/>
	</g>
</g>
<g id="Calque_2">
</g>
<g>
	<g>
		<path fill="none" stroke="#FF0000" stroke-width="5" stroke-linecap="round" stroke-linejoin="round" stroke-miterlimit="10" d="
			M73.971,29.872c0-2.428-1.984-4.413-4.413-4.413h-6.511c-2.428,0-4.413,1.985-4.413,4.413v2.604c0,2.425,1.985,4.413,4.413,4.413
			h6.511c2.429,0,4.413,1.985,4.413,4.413v2.604c0,2.425-1.984,4.413-4.413,4.413h-6.511c-2.428,0-4.413-1.988-4.413-4.413"/>
		
			<line fill="none" stroke="#FF0000" stroke-width="5" stroke-linecap="round" stroke-linejoin="round" stroke-miterlimit="10" x1="66.303" y1="25.459" x2="66.303" y2="20.962"/>
		
			<line fill="none" stroke="#FF0000" stroke-width="5" stroke-linecap="round" stroke-linejoin="round" stroke-miterlimit="10" x1="66.303" y1="52.816" x2="66.303" y2="48.319"/>
	</g>
	
		<rect x="12.078" y="12.302" fill="none" stroke="#FF0000" stroke-width="5" stroke-linecap="round" stroke-linejoin="round" stroke-miterlimit="10" width="108.447" height="49.171"/>
	<path fill="none" stroke="#FF0000" stroke-width="5" stroke-linecap="round" stroke-linejoin="round" stroke-miterlimit="10" d="
		M81.229,12.3c4.618,6.026,7.523,14.81,7.523,24.589c0,9.775-2.905,18.558-7.521,24.59"/>
	<path fill="none" stroke="#FF0000" stroke-width="5" stroke-linecap="round" stroke-linejoin="round" stroke-miterlimit="10" d="
		M51.371,61.474c-4.612-6.029-7.521-14.81-7.521-24.584c0-9.777,2.908-18.558,7.523-24.589"/>
	<path fill="none" stroke="#FF0000" stroke-width="5" stroke-linecap="round" stroke-linejoin="round" stroke-miterlimit="10" d="
		M31.01,12.302c0,10.458-8.475,18.933-18.932,18.933"/>
	<path fill="none" stroke="#FF0000" stroke-width="5" stroke-linecap="round" stroke-linejoin="round" stroke-miterlimit="10" d="
		M101.592,12.302c0,10.458,8.476,18.933,18.933,18.933"/>
	<path fill="none" stroke="#FF0000" stroke-width="5" stroke-linecap="round" stroke-linejoin="round" stroke-miterlimit="10" d="
		M31.01,61.479c0-10.46-8.475-18.936-18.932-18.936"/>
	<path fill="none" stroke="#FF0000" stroke-width="5" stroke-linecap="round" stroke-linejoin="round" stroke-miterlimit="10" d="
		M101.592,61.479c0-10.46,8.476-18.936,18.933-18.936"/>
</g>
</svg>
