<?xml version="1.0" encoding="utf-8"?>
<!-- Generator: Adobe Illustrator 16.0.0, SVG Export Plug-In . SVG Version: 6.00 Build 0)  -->
<!DOCTYPE svg PUBLIC "-//W3C//DTD SVG 1.1//EN" "http://www.w3.org/Graphics/SVG/1.1/DTD/svg11.dtd">
<svg version="1.1" xmlns="http://www.w3.org/2000/svg" xmlns:xlink="http://www.w3.org/1999/xlink" x="0px" y="0px" width="128px"
	 height="128px" viewBox="0 0 128 128" enable-background="new 0 0 128 128" xml:space="preserve">
<g id="Calque_2">
	<g>
		<path fill="none" stroke="#FF0000" stroke-width="5" stroke-miterlimit="10" d="M123.31,61.941V40.645c0-2.761-2.238-5-5-5H79.792
			c-2.762,0-5,2.239-5,5v14.441H14.691c-5.523,0-10,4.477-10,10v50.103c0,5.522,4.477,10,10,10h98.619c5.522,0,10-4.478,10-10
			V65.086V61.941z"/>
	</g>
</g>
<g id="Calque_3">
	<line fill="none" stroke="#FF0000" stroke-width="5" stroke-miterlimit="10" x1="22.653" y1="20.053" x2="40.521" y2="20.053"/>
	<line fill="none" stroke="#FF0000" stroke-width="5" stroke-miterlimit="10" x1="22.653" y1="31" x2="65.681" y2="31"/>
	<g>
		<path fill="none" stroke="#FF0000" stroke-width="5" stroke-linecap="round" stroke-linejoin="round" stroke-miterlimit="10" d="
			M78.938,28.321v-8.727H64.601c-1.946,0-3.523-1.577-3.523-3.523V2.497H20.821c-1.946,0-3.523,1.578-3.523,3.523V47.5"/>
	</g>
	
		<line fill="none" stroke="#FF0000" stroke-width="5" stroke-linecap="round" stroke-linejoin="round" stroke-miterlimit="10" x1="62.256" y1="2.497" x2="78.938" y2="18.695"/>
	<line fill="none" stroke="#FF0000" stroke-width="5" stroke-miterlimit="10" x1="22.653" y1="40.167" x2="65.681" y2="40.167"/>
</g>
</svg>
