<?xml version="1.0" encoding="utf-8"?>
<!-- Generator: Adobe Illustrator 16.0.0, SVG Export Plug-In . SVG Version: 6.00 Build 0)  -->
<!DOCTYPE svg PUBLIC "-//W3C//DTD SVG 1.1//EN" "http://www.w3.org/Graphics/SVG/1.1/DTD/svg11.dtd">
<svg version="1.1" xmlns="http://www.w3.org/2000/svg" xmlns:xlink="http://www.w3.org/1999/xlink" x="0px" y="0px" width="128px"
	 height="128px" viewBox="0 0 128 128" enable-background="new 0 0 128 128" xml:space="preserve">
<g id="Calque_1">
	<g>
		<g>
			<path fill="none" stroke="#FF0000" stroke-width="5" stroke-linecap="round" stroke-linejoin="round" stroke-miterlimit="10" d="
				M109.367,58.896c1.796-4.153,2.77-8.598,2.77-13.218c0-22.983-24.06-41.613-53.74-41.613c-29.678,0-53.739,18.63-53.739,41.613
				c0,12.18,6.76,23.135,17.531,30.744h-0.004v23.53l15.784-15.783c6.299,2.007,13.194,3.121,20.427,3.121
				c4.005,0,7.909-0.34,11.663-0.983"/>
		</g>
	</g>
	<g id="Calque_3">
		
			<line fill="none" stroke="#FF0000" stroke-width="5" stroke-linecap="round" stroke-linejoin="round" stroke-miterlimit="10" x1="21.991" y1="34.75" x2="48.364" y2="34.75"/>
		<path fill="none" stroke="#FF0000" stroke-width="5" stroke-linecap="round" stroke-linejoin="round" stroke-miterlimit="10" d="
			M27.481,34.75c0,0,0.835,13.248,16.824,18.378"/>
		<path fill="none" stroke="#FF0000" stroke-width="5" stroke-linecap="round" stroke-linejoin="round" stroke-miterlimit="10" d="
			M43.113,34.75c0,0-0.12,14.798-20.406,20.287"/>
		
			<line fill="none" stroke="#FF0000" stroke-width="5" stroke-linecap="round" stroke-linejoin="round" stroke-miterlimit="10" x1="35.178" y1="29.62" x2="37.504" y2="34.75"/>
	</g>
	<path fill="none" stroke="#FF0000" stroke-width="5" stroke-linecap="round" stroke-linejoin="round" stroke-miterlimit="10" d="
		M92.831,101.18c0,3.92-3.17,7.092-7.09,7.092c-0.62,0-1.22-0.08-1.79-0.229c0,0-0.93-0.341-2.521-0.819
		c-0.959-0.291-2.17-0.632-3.56-0.961v18.239h46.63V77.87h-17.721c0.352-1.261,0.66-2.28,0.891-2.989
		c0.229-0.701,0.37-1.09,0.37-1.09c0.149-0.57,0.229-1.171,0.229-1.791c0-3.92-3.17-7.09-7.09-7.09c-3.91,0-7.08,3.17-7.08,7.09
		c0,0.62,0.08,1.221,0.229,1.791c0,0,0.568,1.559,1.261,4.079h-17.72V96.1c3.66-0.879,6.08-1.771,6.08-1.771
		c0.57-0.149,1.17-0.229,1.789-0.229C89.661,94.1,92.831,97.271,92.831,101.18z"/>
	<g>
		<path fill="#FF0000" d="M77.208,46.506c0,2.846-0.866,5.027-2.599,6.543c-1.732,1.516-4.285,2.274-7.657,2.274
			s-5.922-0.758-7.649-2.274c-1.728-1.516-2.591-3.691-2.591-6.528v-14.71h5.971v14.37c0,1.599,0.335,2.79,1.005,3.573
			c0.67,0.784,1.758,1.176,3.264,1.176c1.485,0,2.57-0.376,3.256-1.129c0.686-0.752,1.029-1.959,1.029-3.62v-14.37h5.971V46.506z"/>
		<path fill="#FF0000" d="M101.2,47.604c0,2.269-0.962,4.112-2.885,5.53c-1.924,1.418-4.535,2.127-7.835,2.127
			c-1.908,0-3.571-0.167-4.989-0.502s-2.745-0.76-3.982-1.276V47.96h0.649c1.227,0.979,2.601,1.732,4.122,2.258
			s2.983,0.789,4.386,0.789c0.36,0,0.835-0.031,1.423-0.093c0.588-0.062,1.067-0.165,1.438-0.309
			c0.454-0.186,0.828-0.418,1.122-0.696c0.293-0.278,0.44-0.691,0.44-1.237c0-0.505-0.214-0.941-0.642-1.307
			c-0.429-0.366-1.055-0.647-1.88-0.843c-0.866-0.206-1.781-0.399-2.746-0.58c-0.964-0.18-1.869-0.41-2.714-0.688
			c-1.939-0.629-3.334-1.482-4.185-2.56s-1.276-2.416-1.276-4.014c0-2.145,0.962-3.896,2.885-5.252
			c1.924-1.356,4.396-2.034,7.417-2.034c1.517,0,3.015,0.146,4.494,0.44s2.761,0.663,3.844,1.106v5.306h-0.634
			c-0.929-0.743-2.065-1.364-3.411-1.864c-1.346-0.5-2.72-0.75-4.122-0.75c-0.495,0-0.988,0.034-1.478,0.101
			c-0.49,0.067-0.962,0.193-1.415,0.379c-0.402,0.155-0.748,0.389-1.037,0.704c-0.288,0.315-0.433,0.673-0.433,1.075
			c0,0.608,0.231,1.075,0.696,1.4c0.464,0.325,1.34,0.622,2.629,0.89c0.846,0.175,1.658,0.345,2.437,0.51s1.616,0.392,2.514,0.681
			c1.764,0.578,3.065,1.364,3.906,2.359C100.779,44.725,101.2,46.016,101.2,47.604z"/>
	</g>
</g>
<g id="Calque_2">
</g>
</svg>
