<?xml version="1.0" encoding="utf-8"?>
<!-- Generator: Adobe Illustrator 16.0.0, SVG Export Plug-In . SVG Version: 6.00 Build 0)  -->
<!DOCTYPE svg PUBLIC "-//W3C//DTD SVG 1.1//EN" "http://www.w3.org/Graphics/SVG/1.1/DTD/svg11.dtd">
<svg version="1.1" id="Calque_1" xmlns="http://www.w3.org/2000/svg" xmlns:xlink="http://www.w3.org/1999/xlink" x="0px" y="0px"
	 width="128px" height="128px" viewBox="0 0 128 128" enable-background="new 0 0 128 128" xml:space="preserve">
<g id="Calque_2" display="none">
</g>
<g id="Livello_1" xmlns:cc="http://creativecommons.org/ns#" xmlns:dc="http://purl.org/dc/elements/1.1/" xmlns:inkscape="http://www.inkscape.org/namespaces/inkscape" xmlns:rdf="http://www.w3.org/1999/02/22-rdf-syntax-ns#" xmlns:sodipodi="http://sodipodi.sourceforge.net/DTD/sodipodi-0.dtd" xmlns:svg="http://www.w3.org/2000/svg" sodipodi:docname="iconHome.svg" inkscape:version="1.0 (4035a4fb49, 2020-05-01)">
	
		<sodipodi:namedview  gridtolerance="10" inkscape:cy="41.675131" pagecolor="#ffffff" inkscape:cx="7.8240306" showgrid="false" borderopacity="1" objecttolerance="10" guidetolerance="10" bordercolor="#666666" inkscape:zoom="2.8710938" id="namedview7" inkscape:current-layer="Livello_1" inkscape:window-maximized="0" inkscape:window-height="845" inkscape:pageopacity="0" inkscape:window-y="0" inkscape:window-x="0" inkscape:pageshadow="2" inkscape:window-width="1519">
		</sodipodi:namedview>
	<title  id="title2"></title>
	
		<rect x="38.767" y="50.195" transform="matrix(-0.7071 -0.7071 0.7071 -0.7071 89.1734 146.3272)" fill="none" stroke="#FF0000" stroke-width="5" stroke-linecap="round" stroke-linejoin="round" stroke-miterlimit="10" width="72.25" height="9.001"/>
	<path fill="none" stroke="#FF0000" stroke-width="5" stroke-linecap="round" stroke-linejoin="round" stroke-miterlimit="10" d="
		M64,26.268l9.723,9.723l17.324-17.324c0,0,4.771-5.833,0.441-10.165c-4.331-4.332-8.75-0.619-9.987,0.265
		C80.264,9.651,64,26.268,64,26.268z"/>
	<path fill="none" stroke="#FF0000" stroke-width="5" stroke-linecap="round" stroke-linejoin="round" stroke-miterlimit="10" d="
		M91.4,53.668l9.723,9.723l17.324-17.324c0,0,4.771-5.833,0.441-10.165c-4.332-4.332-8.75-0.619-9.988,0.265
		C107.664,37.051,91.4,53.668,91.4,53.668z"/>
	<path fill="none" stroke="#FF0000" stroke-width="5" stroke-linecap="round" stroke-linejoin="round" stroke-miterlimit="10" d="
		M40.47,37.612L91.559,88.7c0,0-20.841,24.415-46.572,12.825l-4.419,4.42l-3.634-3.633l-20.33,20.328l-10.43-10.43l20.33-20.33
		l-3.536-3.535l4.419-4.419C27.388,83.928,13.246,62.714,40.47,37.612z"/>
</g>
</svg>
