<?xml version="1.0" encoding="utf-8"?>
<!-- Generator: Adobe Illustrator 16.0.0, SVG Export Plug-In . SVG Version: 6.00 Build 0)  -->
<!DOCTYPE svg PUBLIC "-//W3C//DTD SVG 1.1//EN" "http://www.w3.org/Graphics/SVG/1.1/DTD/svg11.dtd">
<svg version="1.1" xmlns="http://www.w3.org/2000/svg" xmlns:xlink="http://www.w3.org/1999/xlink" x="0px" y="0px" width="128px"
	 height="128px" viewBox="0 0 128 128" enable-background="new 0 0 128 128" xml:space="preserve">
<g id="Calque_1">
	<g id="Calque_1_1_">
		<g id="Calque_3" display="none">
			<g id="Icones" display="inline">
				<g id="Artboard" transform="translate(-1260.000000, -550.000000)">
					<g id="icone-signature-du-contrat-franchise" transform="translate(1249.000000, 539.000000)">
						<g id="Rectangle">
						</g>
						<defs>
							<filter id="Adobe_OpacityMaskFilter" filterUnits="userSpaceOnUse" x="17.292" y="29.685" width="119.208" height="121.625">
								<feColorMatrix  type="matrix" values="1 0 0 0 0  0 1 0 0 0  0 0 1 0 0  0 0 0 1 0"/>
							</filter>
						</defs>
						<mask maskUnits="userSpaceOnUse" x="17.292" y="29.685" width="119.208" height="121.625" id="mask-2_2_">
							<g filter="url(#Adobe_OpacityMaskFilter)">
								<rect id="path-1_2_" x="10.359" y="22.41" fill="#FFFFFF" width="135.157" height="135.158"/>
							</g>
						</mask>
						<g id="Group-16" mask="url(#mask-2_2_)">
							<g transform="translate(11.000000, 11.000000)">
								<path id="Fill-1" fill="none" stroke="#FF0000" stroke-miterlimit="10" d="M32.528,38.442c-0.777,0-1.407,0.605-1.407,1.352
									c0,0.744,0.63,1.352,1.407,1.352h47.193c0.775,0,1.407-0.608,1.407-1.352c0-0.746-0.632-1.352-1.407-1.352H32.528z"/>
								<path id="Fill-3" fill="none" stroke="#FF0000" stroke-miterlimit="10" d="M20.978,38.442h-0.664
									c-0.747,0-1.357,0.605-1.357,1.352c0,0.744,0.61,1.352,1.357,1.352h0.664c0.75,0,1.357-0.608,1.357-1.352
									C22.335,39.048,21.728,38.442,20.978,38.442"/>
								<path id="Fill-5" fill="none" stroke="#FF0000" stroke-miterlimit="10" d="M79.047,51.958c0.775,0,1.406-0.604,1.406-1.352
									c0-0.744-0.631-1.352-1.406-1.352H20.363c-0.774,0-1.406,0.607-1.406,1.352c0,0.746,0.632,1.352,1.406,1.352H79.047z"/>
								<path id="Fill-7" fill="none" stroke="#FF0000" stroke-miterlimit="10" d="M79.047,62.771c0.775,0,1.406-0.607,1.406-1.352
									c0-0.746-0.631-1.352-1.406-1.352H20.363c-0.774,0-1.406,0.605-1.406,1.352c0,0.744,0.632,1.352,1.406,1.352H79.047z"/>
								<path id="Fill-9" fill="none" stroke="#FF0000" stroke-miterlimit="10" d="M48.586,74.26c0.803,0,1.457-0.606,1.457-1.353
									c0-0.745-0.654-1.353-1.457-1.353h-1.141c-0.803,0-1.457,0.607-1.457,1.353c0,0.746,0.654,1.353,1.457,1.353H48.586z"/>
								<path id="Fill-11" fill="none" stroke="#FF0000" stroke-miterlimit="10" d="M37.81,74.26c0.784,0,1.42-0.606,1.42-1.353
									c0-0.745-0.636-1.353-1.42-1.353H20.379c-0.784,0-1.423,0.607-1.423,1.353c0,0.746,0.639,1.353,1.423,1.353H37.81z"/>
								<g id="Group-15">
									<g id="Clip-14">
									</g>
									<defs>
										
											<filter id="Adobe_OpacityMaskFilter_1_" filterUnits="userSpaceOnUse" x="6.292" y="18.685" width="119.208" height="121.625">
											<feColorMatrix  type="matrix" values="1 0 0 0 0  0 1 0 0 0  0 0 1 0 0  0 0 0 1 0"/>
										</filter>
									</defs>
									<mask maskUnits="userSpaceOnUse" x="6.292" y="18.685" width="119.208" height="121.625" id="mask-4_2_">
										<g filter="url(#Adobe_OpacityMaskFilter_1_)">
											<polygon id="path-3_2_" fill="#FFFFFF" points="6.792,19.185 124.999,19.185 124.999,139.81 6.792,139.81 											"/>
										</g>
									</mask>
									<path id="Fill-13" mask="url(#mask-4_2_)" fill="none" stroke="#FF0000" stroke-miterlimit="10" d="M99.139,45.123
										l11.826,6.835l-36.326,62.997l-11.828-6.835L99.139,45.123z M105.314,34.415l11.826,6.838l-4.771,8.272l-11.829-6.836
										L105.314,34.415z M109.445,27.25c1.885-3.262,6.068-4.383,9.328-2.502c1.582,0.914,2.711,2.388,3.182,4.152
										c0.473,1.763,0.23,3.606-0.682,5.188l-2.729,4.73l-11.827-6.835L109.445,27.25z M62.158,110.989l10.324,5.968
										l-11.125,7.354L62.158,110.989z M90.563,137.001H30.73v-19.752c0-0.773-0.629-1.404-1.403-1.404H9.601v-93.85h80.959
										v32.378l-9.465,16.413H58.459c-0.773,0-1.403,0.632-1.403,1.405c0,0.775,0.63,1.406,1.403,1.406h21.018l-4.718,8.178
										H20.796c-0.774,0-1.403,0.632-1.403,1.407c0,0.771,0.629,1.404,1.403,1.404h52.343l-4.716,8.18H20.796
										c-0.774,0-1.403,0.631-1.403,1.402c0,0.776,0.629,1.406,1.403,1.406h46.007l-7.125,12.354
										c-0.106,0.186-0.168,0.389-0.181,0.605l-1.107,18.411c-0.034,0.533,0.235,1.03,0.697,1.3c0.168,0.1,0.357,0.158,0.564,0.18
										c0.489,0.004,12.27,0.01,20.053,0.013c0.774,0,1.403-0.632,1.403-1.406c0-0.772-0.629-1.405-1.403-1.405H64.467
										l11.465-7.582c0.178-0.121,0.332-0.283,0.438-0.466l14.192-24.612V137.001L90.563,137.001z M27.923,135.013l-16.338-16.357
										h16.338V135.013z M8.195,19.185c-0.772,0-1.403,0.631-1.403,1.405v96.659c0,0.371,0.152,0.732,0.412,0.996l21.129,21.153
										c0.265,0.266,0.619,0.411,0.994,0.411h62.64c0.771,0,1.402-0.629,1.402-1.404V88.095l30.334-52.604
										c1.288-2.231,1.631-4.831,0.965-7.321c-0.666-2.488-2.262-4.568-4.488-5.858c-4.604-2.661-10.51-1.076-13.164,3.532
										L93.369,49.506V20.59c0-0.774-0.631-1.405-1.402-1.405H8.195z"/>
								</g>
							</g>
						</g>
					</g>
				</g>
			</g>
		</g>
		<g id="Calque_4">
			<g>
				
					<path fill="none" stroke="#FF0000" stroke-width="5" stroke-linecap="round" stroke-linejoin="round" stroke-miterlimit="10" d="
					M6.253,125.161L6.253,125.161h17.271c1.657,0,63.949,0,63.949,0"/>
				
					<path fill="none" stroke="#FF0000" stroke-width="5" stroke-linecap="round" stroke-linejoin="round" stroke-miterlimit="10" d="
					M5.627,125.161"/>
				
					<path fill="none" stroke="#FF0000" stroke-width="5" stroke-linecap="round" stroke-linejoin="round" stroke-miterlimit="10" d="
					M26.525,125.161"/>
			</g>
		</g>
		<g id="Calque_3_3_">
			
				<line fill="none" stroke="#FF0000" stroke-width="5" stroke-miterlimit="10" x1="120.348" y1="110.605" x2="99.988" y2="110.605"/>
		</g>
		<line fill="none" stroke="#FF0000" stroke-width="5" stroke-miterlimit="10" x1="99.988" y1="63.409" x2="99.988" y2="110.488"/>
		<path fill="none" stroke="#FF0000" stroke-width="5" stroke-miterlimit="10" d="M120.438,63.651H99.99l-0.002-6.506
			c-0.004-2.148,1.736-3.89,3.885-3.892l12.671-0.009c2.147-0.001,3.89,1.738,3.892,3.887L120.438,63.651z"/>
		
			<polyline fill="none" stroke="#FF0000" stroke-width="5" stroke-linecap="round" stroke-linejoin="round" stroke-miterlimit="10" points="
			99.988,110.488 110.303,125.876 120.438,110.722 120.438,63.645 		"/>
	</g>
	<g id="Calque_2_2_">
		<g id="Calque_2">
			
				<polyline fill="none" stroke="#FF0000" stroke-width="5" stroke-linecap="round" stroke-linejoin="round" stroke-miterlimit="10" points="
				87.475,125.161 87.475,41.596 74.412,41.596 74.412,86.204 64.676,86.204 64.676,67.261 44.825,86.204 44.825,67.173 
				25.144,86.245 25.144,67.261 6.253,86.245 			"/>
			
				<line fill="none" stroke="#FF0000" stroke-width="5" stroke-linecap="round" stroke-linejoin="round" stroke-miterlimit="10" x1="6.253" y1="86.245" x2="6.253" y2="125.161"/>
		</g>
	</g>
</g>
<g id="Calque_2_3_">
	<g id="Calque_2_1_">
		<g id="Calque_3_1_">
			<g>
				
					<path fill="none" stroke="#FF0000" stroke-width="5" stroke-linecap="round" stroke-linejoin="round" stroke-miterlimit="10" d="
					M56.654,55.605c0,0.578-0.469,1.049-1.049,1.049H5.548c-0.579,0-1.048-0.471-1.048-1.049V5.548C4.5,4.969,4.969,4.5,5.548,4.5
					h50.058c0.58,0,1.049,0.469,1.049,1.048L56.654,55.605L56.654,55.605z"/>
				<circle fill="#FF0000" cx="16.424" cy="17.481" r="3.704"/>
				<line fill="none" stroke="#FF0000" stroke-width="4" stroke-miterlimit="10" x1="24.219" y1="17.48" x2="46.23" y2="17.48"/>
				<circle fill="#FF0000" cx="16.424" cy="30.577" r="3.704"/>
				<line fill="none" stroke="#FF0000" stroke-width="4" stroke-miterlimit="10" x1="24.219" y1="30.578" x2="46.23" y2="30.578"/>
				<circle fill="#FF0000" cx="16.424" cy="43.673" r="3.704"/>
				<line fill="none" stroke="#FF0000" stroke-width="4" stroke-miterlimit="10" x1="24.219" y1="43.672" x2="46.23" y2="43.672"/>
			</g>
		</g>
	</g>
</g>
</svg>
