<?xml version="1.0" encoding="utf-8"?>
<!-- Generator: Adobe Illustrator 16.0.0, SVG Export Plug-In . SVG Version: 6.00 Build 0)  -->
<!DOCTYPE svg PUBLIC "-//W3C//DTD SVG 1.1//EN" "http://www.w3.org/Graphics/SVG/1.1/DTD/svg11.dtd">
<svg version="1.1" xmlns="http://www.w3.org/2000/svg" xmlns:xlink="http://www.w3.org/1999/xlink" x="0px" y="0px" width="128px"
	 height="128px" viewBox="0 0 128 128" enable-background="new 0 0 128 128" xml:space="preserve">
<g id="Calque_4" display="none">
	<g display="inline">
		<path fill="#4D4D4D" d="M46.888,10.623c0.007-1.629,1.36-2.982,2.99-2.989h29.102c1.63,0.006,2.989,1.36,2.992,2.989v7.272h5.279
			v-7.272c-0.007-4.564-3.703-8.261-8.271-8.269H49.878c-4.568,0.007-8.258,3.705-8.269,8.269v7.272h5.279V10.623z"/>
		<path fill="#4D4D4D" d="M64.437,38.196c-6.017,0-10.909,4.895-10.909,10.908c0,2.558,0.899,4.989,2.479,6.921v13.85h16.846V56.018
			c1.586-1.925,2.485-4.356,2.485-6.914C75.337,43.091,70.442,38.196,64.437,38.196z M67.577,53.756v10.839h-6.29V53.762
			c-1.494-1.01-2.477-2.72-2.477-4.658c0-3.112,2.517-5.629,5.626-5.629c3.101,0,5.617,2.517,5.617,5.629
			C70.054,51.042,69.074,52.747,67.577,53.756z"/>
		<path fill="#4D4D4D" d="M110.679,22.857H18.181C9.395,22.864,2.25,30.009,2.24,38.795v50.15c0.01,8.793,7.154,15.93,15.941,15.938
			h92.498c8.784-0.008,15.929-7.152,15.945-15.938v-50.15C126.607,30.009,119.463,22.864,110.679,22.857z M121.346,88.945
			c-0.014,5.85-4.822,10.65-10.667,10.664H18.181c-5.847-0.014-10.652-4.814-10.662-10.664V67.127
			c15.025,11.752,35,18.889,56.917,18.895c21.902-0.006,41.877-7.143,56.909-18.895V88.945z M121.346,60.275
			c-14.322,12.563-34.501,20.469-56.909,20.469c-22.416,0-42.595-7.893-56.917-20.457V38.795c0.01-5.844,4.815-10.652,10.662-10.666
			h92.498c5.845,0.014,10.653,4.822,10.667,10.666V60.275z"/>
	</g>
</g>
<g id="Calque_5">
</g>
<g id="Calque_3_2_">
	<path fill="none" stroke="#FF0000" stroke-width="5" stroke-linejoin="round" stroke-miterlimit="10" d="M50.012,6.364
		c0,0,46.108,12.637,25.958,45.083c0,0,15.711-1.365,16.394-17.759c0,0,21.517,24.25,15.711,51.914
		c-5.807,27.664-28.006,35.863-42.18,36.202c-14.175,0.343-40.709-7.861-42.864-35.178c-0.903-11.455,5.762-17.564-4.099-34.836
		c0,0,19.81,1.365,18.443,16.395C37.375,68.184,73.92,13.194,50.012,6.364z"/>
	<path fill="none" stroke="#FF0000" stroke-width="5" stroke-linecap="round" stroke-linejoin="round" stroke-miterlimit="10" d="
		M56.501,64.088c0,0-6.516,19.074-8.88,25.269c-3.277,8.585-1.024,18.784,8.88,21.176s18.668,1.354,25.275-6.489
		c7.937-9.423,2.049-25.275-8.881-30.737c0,0,4.782,6.653-4.896,23.193c0,0-0.91-6.8-5.35-15.511
		C58.209,72.281,56.501,71.949,56.501,64.088z"/>
</g>
<g id="Calque_2" display="none">
	<g id="Calque_2_2_" display="inline">
		<g id="Calque_3_1_">
			<g>
				
					<path fill="none" stroke="#FF0000" stroke-width="5" stroke-linecap="round" stroke-linejoin="round" stroke-miterlimit="10" d="
					M56.654,55.605c0,0.578-0.469,1.049-1.049,1.049H5.548c-0.579,0-1.048-0.471-1.048-1.049V5.548C4.5,4.969,4.969,4.5,5.548,4.5
					h50.058c0.58,0,1.049,0.469,1.049,1.048V55.605L56.654,55.605z"/>
				<circle fill="#FF0000" cx="16.424" cy="17.481" r="3.704"/>
				<line fill="none" stroke="#FF0000" stroke-width="4" stroke-miterlimit="10" x1="24.219" y1="17.481" x2="46.23" y2="17.481"/>
				<circle fill="#FF0000" cx="16.424" cy="30.577" r="3.704"/>
				<line fill="none" stroke="#FF0000" stroke-width="4" stroke-miterlimit="10" x1="24.219" y1="30.578" x2="46.23" y2="30.578"/>
				<circle fill="#FF0000" cx="16.424" cy="43.673" r="3.704"/>
				<line fill="none" stroke="#FF0000" stroke-width="4" stroke-miterlimit="10" x1="24.219" y1="43.672" x2="46.23" y2="43.672"/>
			</g>
		</g>
	</g>
</g>
</svg>
