<?xml version="1.0" encoding="utf-8"?>
<!-- Generator: Adobe Illustrator 16.0.0, SVG Export Plug-In . SVG Version: 6.00 Build 0)  -->
<!DOCTYPE svg PUBLIC "-//W3C//DTD SVG 1.1//EN" "http://www.w3.org/Graphics/SVG/1.1/DTD/svg11.dtd">
<svg version="1.1" id="Calque_3_2_" xmlns="http://www.w3.org/2000/svg" xmlns:xlink="http://www.w3.org/1999/xlink" x="0px"
	 y="0px" width="128px" height="128px" viewBox="0 0 128 128" enable-background="new 0 0 128 128" xml:space="preserve">
<g>
	<g>
		<path fill="#FF0000" stroke="#FF0000" stroke-linecap="round" stroke-linejoin="round" stroke-miterlimit="10" d="M124.67,56.32
			l-17.219-23.561c-0.417-0.575-1.094-0.916-1.794-0.916H78.338c-0.057,0-0.107,0.025-0.157,0.025c-0.058,0-0.102-0.025-0.152-0.025
			c-1.231,0-2.229,0.999-2.229,2.224v34.527H19.366L5.754,48.702l10.264-10.264l53.097-2.413V25.906h25.267v-4.44H64.668V31.78
			L14.092,34.08L0,48.165L17.022,73.04h0.202l-5.128,17.447h7.504c0.461,7.636,6.771,13.693,14.509,13.693
			c7.756,0,14.06-6.063,14.515-13.693h29.392c0,0,0.005,0.006,0.012,0.006c0.051,0,0.095-0.031,0.146-0.038
			c0.057,0.007,0.107,0.038,0.164,0.038h6.903c0.469,7.63,6.771,13.682,14.517,13.688c7.75-0.006,14.066-6.063,14.515-13.693h8.604
			c0.594,0,1.155-0.228,1.572-0.651c0.418-0.423,0.645-0.979,0.645-1.573V57.634C125.093,57.154,124.954,56.706,124.67,56.32z
			 M34.11,99.733c-5.577-0.013-10.101-4.528-10.113-10.131c0-0.771,0.107-1.535,0.284-2.293c0.272-1.131,0.695-2.136,1.294-3.089
			l-0.005,0.006c0.165-0.234,0.316-0.454,0.448-0.638l0.058-0.082c0.018-0.025,0.038-0.051,0.075-0.108
			c0.114-0.132,0.228-0.277,0.348-0.416l0.063-0.044l0.152-0.171c0.247-0.271,0.334-0.379,0.404-0.436l0.094-0.088
			c0.038-0.039,0.101-0.089,0.158-0.152c0.107-0.089,0.253-0.202,0.436-0.366l0.076-0.038l0.152-0.119
			c0.214-0.177,0.493-0.374,0.834-0.581c0.145-0.084,0.297-0.178,0.397-0.241c0.038-0.013,0.107-0.058,0.146-0.075l0.12-0.045
			l0.164-0.089c0.152-0.088,0.291-0.151,0.311-0.164c0.095-0.031,0.17-0.068,0.202-0.081l0,0l0.202-0.045l0.228-0.12
			c0,0,0,0,0.031-0.019c0.07-0.013,0.183-0.058,0.341-0.113c0.006-0.007,0.108-0.037,0.189-0.05l0.095-0.032l0.112-0.032
			c0.032-0.012,0.121-0.037,0.374-0.082c0.347-0.069,0.486-0.127,0.519-0.132c0.018,0,0.252-0.038,0.556-0.076
			c0.056,0,0.12-0.02,0.157-0.02h0.07l0.145-0.025c0.228-0.024,0.511-0.031,0.885-0.031c0.392,0,0.649,0.007,0.89,0.038l0.139,0.019
			h0.076c0.057,0.007,0.152,0.02,0.277,0.032c0.184,0.025,0.38,0.051,0.512,0.075c-0.026,0,0.133,0.051,0.392,0.107
			c0.189,0.038,0.272,0.051,0.322,0.07l0.006-0.008l0.177,0.07l0.202,0.039c0.051,0.012,0.102,0.024,0.152,0.05
			c0.259,0.088,0.36,0.125,0.436,0.164l0.184,0.082l0.152,0.038c0.031,0.013,0.101,0.043,0.214,0.088
			c0.038,0.013,0.195,0.089,0.354,0.177l0.101,0.051l0.102,0.044l0,0c0.031,0.02,0.088,0.05,0.157,0.095
			c0.126,0.069,0.265,0.157,0.474,0.266c0.315,0.208,0.575,0.392,0.757,0.544l0.202,0.163l0.108,0.052
			c0.114,0.106,0.227,0.202,0.304,0.271c0.145,0.146,0.271,0.245,0.329,0.295c0.126,0.127,0.258,0.273,0.397,0.424l0.057,0.069
			l0.064,0.058c0.019,0.013,0.031,0.031,0.044,0.038c0.088,0.094,0.202,0.246,0.366,0.448c0.082,0.133,0.177,0.247,0.278,0.354
			c0.031,0.045,0.063,0.096,0.102,0.152l0.005,0.012l0.197,0.329c0.606,0.96,1.042,1.965,1.294,3.069l0.126,0.544
			c0.107,0.593,0.17,1.187,0.17,1.769C44.215,95.205,39.7,99.721,34.11,99.733z M75.799,86.046H48.227l-0.328-1.484h-0.152
			c-0.309-0.827-0.688-1.623-1.144-2.374l-0.025-0.121l-0.247-0.348c-0.107-0.163-0.265-0.416-0.486-0.731l-0.025-0.059
			l-0.126-0.139l-0.101-0.145l-0.057-0.038c-0.101-0.113-0.252-0.315-0.474-0.581l0,0c-0.132-0.157-0.24-0.259-0.304-0.31
			c-0.17-0.195-0.354-0.385-0.543-0.575c-0.132-0.132-0.228-0.208-0.278-0.258h-0.012c-0.265-0.254-0.448-0.404-0.53-0.481
			c-0.202-0.184-0.386-0.315-0.537-0.409c-0.393-0.304-0.759-0.538-1.055-0.74l-0.121-0.069l-0.12-0.063
			c-0.018-0.013-0.164-0.102-0.417-0.24c-0.076-0.038-0.246-0.151-0.531-0.285c-0.177-0.088-0.397-0.202-0.67-0.321
			c-0.076-0.025-0.246-0.113-0.562-0.223c-0.265-0.1-0.474-0.169-0.612-0.226c-0.197-0.076-0.405-0.134-0.614-0.177
			c-0.379-0.134-0.657-0.177-0.846-0.215c-0.019-0.007-0.158-0.045-0.354-0.089c-0.462-0.102-0.758-0.133-0.986-0.158
			c-0.107-0.013-0.107-0.006-0.159-0.025c-0.063,0-0.182-0.025-0.322-0.025c-0.511-0.068-0.965-0.075-1.382-0.075
			c-0.417,0-0.892,0.007-1.416,0.075c-0.284,0.025-0.367,0.058-0.367,0.045c-0.271,0.031-0.581,0.063-1.004,0.151
			c-0.309,0.069-0.435,0.114-0.435,0.114c-0.171,0.031-0.468,0.076-0.847,0.202c-0.159,0.043-0.354,0.094-0.569,0.177
			c-0.095,0.038-0.316,0.089-0.65,0.239c-0.29,0.096-0.449,0.177-0.505,0.196c-0.278,0.119-0.487,0.233-0.645,0.315
			c-0.348,0.146-0.518,0.266-0.575,0.284c-0.297,0.185-0.461,0.285-0.517,0.322c-0.411,0.254-0.796,0.499-1.195,0.81
			c-0.138,0.081-0.353,0.226-0.586,0.466c-0.013,0.008-0.183,0.146-0.43,0.348l-0.202,0.184l-0.026,0.025
			c-0.043,0.045-0.093,0.101-0.157,0.164c-0.214,0.209-0.366,0.387-0.474,0.499c-0.183,0.17-0.265,0.279-0.265,0.279
			c-0.253,0.289-0.448,0.529-0.63,0.751l-0.064,0.068L22.5,80.86c-0.007,0.019-0.025,0.043-0.045,0.068
			c-0.214,0.291-0.404,0.569-0.568,0.816l-0.032,0.038c-0.846,1.345-1.439,2.753-1.813,4.257h-2.009l3.658-12.438
			c0.056-0.189,0.043-0.379,0.051-0.563h54.057V86.046z M92.79,36.284h11.737l14.048,19.24L92.79,55.518V36.284z M99.758,99.733
			c-5.578-0.013-10.106-4.528-10.114-10.131c0-0.778,0.102-1.535,0.279-2.287c0.265-1.117,0.694-2.122,1.275-3.076
			c0.196-0.277,0.341-0.479,0.461-0.65l0.069-0.102l0.007-0.006c0.013-0.013,0.032-0.038,0.058-0.083
			c0.106-0.126,0.227-0.271,0.354-0.416l0.056-0.044l0.164-0.178c0.234-0.252,0.323-0.372,0.399-0.429l0.057-0.058
			c0.045-0.043,0.107-0.1,0.189-0.176c0.107-0.089,0.259-0.209,0.441-0.373l0.083-0.051l0.132-0.106
			c0.228-0.177,0.499-0.374,0.84-0.581c0.159-0.084,0.291-0.172,0.374-0.222c0.068-0.045,0.145-0.082,0.17-0.095
			c0.007,0,0.007,0,0.007,0h-0.007l0.107-0.045l0.157-0.082c0.172-0.088,0.311-0.158,0.336-0.171
			c0.075-0.031,0.145-0.056,0.188-0.076c0-0.005,0-0.005,0-0.005l0.215-0.052l0.228-0.113l0.024-0.019
			c0.063-0.013,0.185-0.058,0.349-0.113c0,0,0.094-0.032,0.183-0.05l0.12-0.032l0.095-0.032c0.032-0.012,0.12-0.037,0.366-0.082
			c0.349-0.075,0.5-0.132,0.525-0.132c0.011-0.008,0.245-0.038,0.549-0.076c0.082,0,0.145-0.02,0.183-0.02h0.038l0.151-0.019
			c0.228-0.031,0.513-0.038,0.892-0.038c0.378,0,0.644,0.007,0.884,0.038l0.146,0.019h0.063c0.057,0.007,0.157,0.02,0.284,0.032
			c0.189,0.025,0.379,0.051,0.499,0.075c0,0,0.145,0.051,0.403,0.102c0.196,0.044,0.285,0.057,0.329,0.076v-0.008l0.17,0.07
			l0.209,0.044c0.037,0.007,0.088,0.02,0.158,0.051c0.259,0.089,0.354,0.119,0.436,0.158l0.184,0.075l0.152,0.045l0,0
			c0.03,0.018,0.119,0.05,0.239,0.101c0,0,0.157,0.076,0.322,0.164l0.113,0.057l0.089,0.038l0,0c0.024,0.02,0.075,0.045,0.132,0.082
			c0.139,0.076,0.278,0.165,0.486,0.271c0.322,0.209,0.582,0.392,0.777,0.551l0.189,0.151l0.102,0.056
			c0.15,0.134,0.271,0.234,0.347,0.304c0.12,0.121,0.222,0.208,0.277,0.253c0.146,0.139,0.278,0.284,0.417,0.441l0.063,0.069
			l0.063,0.058c0.007,0.006,0.02,0.019,0.025,0.031l0.012,0.007c0.089,0.089,0.202,0.246,0.361,0.442
			c0.088,0.139,0.183,0.258,0.291,0.366c0.03,0.044,0.063,0.095,0.106,0.152l0.007,0.037l0.183,0.297
			c0.612,0.96,1.049,1.965,1.302,3.069l0.113,0.487c0.114,0.619,0.177,1.231,0.177,1.825
			C109.863,95.205,105.348,99.721,99.758,99.733z M120.653,86.04h-6.784l-0.329-1.479h-0.151c-0.316-0.847-0.701-1.648-1.156-2.412
			l-0.025-0.102l-0.215-0.315c-0.119-0.164-0.271-0.424-0.506-0.728l-0.024-0.082l-0.17-0.189l-0.058-0.082l-0.031-0.025
			l-0.012-0.006c-0.102-0.113-0.247-0.303-0.469-0.569c-0.139-0.17-0.252-0.277-0.315-0.334c-0.17-0.195-0.354-0.392-0.562-0.581
			c-0.114-0.12-0.202-0.196-0.26-0.247l-0.013-0.005c-0.259-0.24-0.448-0.404-0.556-0.506c-0.196-0.177-0.386-0.304-0.531-0.392
			c-0.385-0.304-0.744-0.537-1.047-0.733l-0.121-0.082l-0.126-0.057c-0.007-0.006-0.152-0.095-0.411-0.24
			c-0.063-0.031-0.247-0.151-0.556-0.291c-0.164-0.088-0.366-0.195-0.612-0.297c-0.108-0.044-0.272-0.125-0.575-0.227
			c-0.266-0.107-0.486-0.183-0.638-0.233c-0.189-0.069-0.379-0.134-0.594-0.177c-0.386-0.134-0.67-0.177-0.865-0.215
			c0.056,0.013-0.108-0.038-0.349-0.096c-0.454-0.095-0.751-0.126-0.979-0.151c-0.106-0.013-0.106-0.006-0.157-0.025
			c-0.063,0-0.189-0.025-0.335-0.025c-0.506-0.068-0.954-0.075-1.364-0.075c-0.417,0-0.885,0.007-1.41,0.075
			c-0.295,0.02-0.371,0.058-0.377,0.045c-0.266,0.031-0.588,0.063-1.012,0.151c-0.303,0.069-0.429,0.114-0.429,0.114
			c-0.165,0.031-0.469,0.076-0.848,0.202c-0.163,0.043-0.359,0.088-0.586,0.177c-0.076,0.044-0.285,0.089-0.626,0.239
			c-0.291,0.096-0.443,0.177-0.499,0.196c-0.298,0.126-0.506,0.233-0.663,0.315c-0.328,0.146-0.513,0.266-0.568,0.291
			c-0.304,0.17-0.475,0.283-0.538,0.322c-0.397,0.252-0.795,0.505-1.199,0.815c-0.14,0.087-0.348,0.232-0.563,0.461
			c0.026-0.032-0.15,0.105-0.429,0.34l-0.195,0.178L89.79,79.01c-0.038,0.038-0.083,0.081-0.139,0.145
			c-0.215,0.215-0.373,0.392-0.486,0.518c-0.184,0.165-0.278,0.291-0.291,0.298c-0.234,0.271-0.437,0.505-0.619,0.739l-0.05,0.063
			l-0.058,0.089l0,0c-0.025,0.03-0.044,0.056-0.106,0.145c-0.19,0.26-0.361,0.506-0.499,0.721l-0.045,0.05l-0.045,0.083
			c-0.795,1.27-1.401,2.671-1.774,4.182h-5.433V36.284h8.099v21.457c0,0.594,0.233,1.15,0.657,1.567
			c0.409,0.423,0.972,0.657,1.565,0.657h30.087V86.04z M31.683,43.769v18.407c0,1.226,0.993,2.224,2.225,2.224
			c1.225,0,2.217-0.998,2.217-2.224V43.769c0-1.231-0.992-2.223-2.217-2.223C32.676,41.546,31.683,42.537,31.683,43.769z
			 M42.428,43.775v18.401c0,1.226,0.999,2.229,2.224,2.229c1.226,0,2.223-1.004,2.223-2.229V43.775c0-1.238-0.997-2.229-2.223-2.229
			C43.427,41.546,42.428,42.537,42.428,43.775z M53.18,43.775v18.401c0,1.232,1.003,2.229,2.229,2.229
			c1.225,0,2.223-0.998,2.223-2.229V43.775c0-1.238-0.999-2.229-2.223-2.229C54.183,41.546,53.18,42.537,53.18,43.775z
			 M63.937,43.775v18.401c0,1.232,0.991,2.224,2.222,2.224c1.227,0,2.225-0.992,2.225-2.224V43.775c0-1.238-0.998-2.223-2.225-2.223
			C64.928,41.552,63.937,42.537,63.937,43.775z"/>
	</g>
</g>
</svg>
