<?xml version="1.0" encoding="utf-8"?>
<!-- Generator: Adobe Illustrator 16.0.0, SVG Export Plug-In . SVG Version: 6.00 Build 0)  -->
<!DOCTYPE svg PUBLIC "-//W3C//DTD SVG 1.1//EN" "http://www.w3.org/Graphics/SVG/1.1/DTD/svg11.dtd">
<svg version="1.1" xmlns="http://www.w3.org/2000/svg" xmlns:xlink="http://www.w3.org/1999/xlink" x="0px" y="0px" width="128px"
	 height="128px" viewBox="0 0 128 128" enable-background="new 0 0 128 128" xml:space="preserve">
<g id="Calque_3">
	<circle fill="none" stroke="#EF0003" stroke-width="5" stroke-miterlimit="10" cx="56.299" cy="50.195" r="40.302"/>
	<path fill="none" stroke="#EF0003" stroke-width="5" stroke-linecap="round" stroke-miterlimit="10" d="M99.001,7.492
		c10.929,10.929,17.688,26.027,17.688,42.704c0,33.351-27.038,60.389-60.391,60.389c-16.457,0-31.375-6.583-42.268-17.259"/>
	<line fill="none" stroke="#EF0003" stroke-width="5" stroke-miterlimit="10" x1="35.948" y1="125.666" x2="78.401" y2="125.666"/>
	<line fill="none" stroke="#EF0003" stroke-width="5" stroke-miterlimit="10" x1="56.299" y1="110.585" x2="56.299" y2="125.666"/>
</g>
<g id="Calque_2">
</g>
<g id="Calque_4">
	<g>
		<path fill="#FF0000" d="M72.604,32.345l-12.328,16.22v0.261l19.595-2.597v8.825l-19.595-2.336v0.259L72.733,68.55l-8.176,4.671
			l-7.785-18.167h-0.26l-8.435,18.298l-7.397-4.672l12.328-15.832v-0.259l-19.205,2.465v-8.825l19.076,2.466v-0.258L40.681,32.604
			l7.918-4.542l8.043,18.04h0.262l7.914-18.169L72.604,32.345z"/>
	</g>
</g>
</svg>
