<?xml version="1.0" encoding="utf-8"?>
<!-- Generator: Adobe Illustrator 16.0.0, SVG Export Plug-In . SVG Version: 6.00 Build 0)  -->
<!DOCTYPE svg PUBLIC "-//W3C//DTD SVG 1.1//EN" "http://www.w3.org/Graphics/SVG/1.1/DTD/svg11.dtd">
<svg version="1.1" xmlns="http://www.w3.org/2000/svg" xmlns:xlink="http://www.w3.org/1999/xlink" x="0px" y="0px" width="128px"
	 height="128px" viewBox="0 0 128 128" enable-background="new 0 0 128 128" xml:space="preserve">
<g id="Calque_1" display="none">
	<g id="Calque_1_1_">
		<g id="Calque_2" display="inline">
		</g>
		<g display="inline">
			<path fill="none" stroke="#FF0000" stroke-width="5" stroke-linecap="round" stroke-linejoin="round" stroke-miterlimit="10" d="
				M25.871,81.3c7.763,0,14.633,3.749,18.957,9.521C45.495,78.328,55.805,68.4,68.46,68.4c7.649,0,14.435,3.638,18.767,9.266
				c1.754-11.357,11.543-20.062,23.391-20.062c5.445,0,10.449,1.856,14.451,4.945C115.395,39.843,92.876,23.92,66.634,23.92
				c-35.066,0-63.493,28.427-63.493,63.492c0,3.066,0.23,6.08,0.65,9.029C7.226,87.584,15.805,81.3,25.871,81.3z"/>
		</g>
		
			<path display="inline" fill="none" stroke="#FF0000" stroke-width="5" stroke-linecap="round" stroke-linejoin="round" stroke-miterlimit="10" d="
			M84.359,26.44c-0.113-0.824-0.172-1.666-0.172-2.521c0-10.118,8.201-18.319,18.318-18.319s18.318,8.201,18.318,18.319
			c0,7.563-4.583,14.056-11.124,16.852"/>
		
			<line display="inline" fill="none" stroke="#FF0000" stroke-width="5" stroke-linecap="round" stroke-linejoin="round" stroke-miterlimit="10" x1="61.331" y1="69.498" x2="78.684" y2="126.247"/>
	</g>
	<g id="Calque_2_1_">
		<g display="inline">
			<path fill="#FF0000" d="M114.307,61.503c0.33-0.635,0.494-1.318,0.494-1.998c0-1.504-0.797-2.974-2.211-3.765
				c-0.646-0.365-1.387-0.55-2.088-0.544c-1.438-0.005-2.845,0.729-3.652,2.032c-3.25-1.229-6.678-1.818-10.141-1.813
				c-7.82,0-15.823,2.98-22.804,8.293l1.723,3.866c0.421-0.079,0.843-0.118,1.251-0.118c0.988,0,1.896,0.219,2.729,0.685
				c1.273,0.719,2.177,1.902,2.703,3.502l0.623,1.937l1.977-0.493c0.566-0.146,1.134-0.214,1.678-0.214
				c0.977,0,1.874,0.219,2.704,0.685c1.269,0.707,2.179,1.891,2.705,3.502l0.617,1.93l1.975-0.487
				c0.416-0.106,0.843-0.162,1.279-0.162c0.539,0,1.11,0.095,1.729,0.298L83.3,104.656c-4.967-0.971-10.504-1.655-16.385-1.661
				c-3.939,0.006-7.721,0.31-11.29,0.797L47.92,50.488c1.431,0.185,2.486,0.673,3.653,1.588l1.684,1.363l1.375-1.684
				c1.745-2.149,3.934-3.501,6.414-3.844c0.421-0.062,0.831-0.089,1.257-0.089c2.06,0,4.096,0.702,5.982,2.026l1.66,1.161
				l1.279-1.571c1.752-2.149,3.922-3.49,6.432-3.844c0.402-0.063,0.818-0.09,1.24-0.09c2.451,0,4.897,0.999,7.047,2.868l3.311-2.727
				C79.455,28.582,63.469,17.494,46.13,17.427c0-0.022,0-0.039,0-0.063c0-0.229-0.017-0.472-0.056-0.724
				C45.692,13.953,43.403,12,40.754,12c-0.258,0-0.516,0.017-0.774,0.056c-2.671,0.376-4.624,2.66-4.624,5.319
				c0,0.258,0.017,0.522,0.056,0.774c0.022,0.219,0.067,0.427,0.124,0.634C19.095,23.218,6.728,37.661,1.605,56.116l3.709,2.048
				c1.661-1.829,3.681-2.985,5.97-3.299c0.416-0.062,0.831-0.09,1.246-0.09c2.054,0,4.096,0.702,5.982,2.02l1.667,1.167l1.279-1.582
				c1.739-2.138,3.917-3.484,6.414-3.838c0.41-0.057,0.825-0.084,1.246-0.084c2.06,0,4.096,0.702,5.993,2.02l1.655,1.173
				l1.285-1.577c1.268-1.554,2.94-2.732,5.51-3.316l7.771,53.733c-13.551,2.521-22.967,7.345-23.09,7.401
				c-0.897,0.455-1.363,1.471-1.122,2.445c0.236,0.977,1.111,1.661,2.11,1.661h75.365c1.005,0,1.88-0.685,2.115-1.661
				c0.235-0.98-0.226-1.99-1.123-2.445c-0.104-0.045-7.183-3.664-17.854-6.273l13.435-24.459c0.196,0.342,0.337,0.713,0.466,1.16
				l0.521,2.115l2.109-0.526c0.584-0.146,1.155-0.214,1.706-0.214c0.976,0,1.867,0.226,2.688,0.68
				c1.273,0.719,2.182,1.896,2.703,3.502l0.623,1.919l1.965-0.478c0.578-0.141,1.145-0.207,1.693-0.207
				c0.978,0,1.881,0.219,2.717,0.679c1.459,0.825,2.457,2.301,2.896,4.292l4.287-0.174c0.247-1.936,0.364-3.85,0.364-5.734
				C125.916,77.482,121.949,67.637,114.307,61.503z M40.597,16.36c0.067-0.011,0.112-0.011,0.157-0.011l0,0
				c0.488,0,0.948,0.381,1.016,0.897c0.006,0.034,0.006,0.073,0.006,0.118c0.005,0.224-0.107,0.499-0.387,0.763l-0.5,0.455
				l-0.606-0.326c-0.371-0.219-0.528-0.438-0.567-0.718c-0.011-0.073-0.017-0.118-0.017-0.163
				C39.7,16.888,40.081,16.428,40.597,16.36z M35.985,49.916c-2.11-1.145-4.444-1.807-6.868-1.807c-0.612,0-1.234,0.04-1.863,0.124
				c-3.053,0.432-5.746,1.891-7.878,3.984c-2.11-1.139-4.433-1.795-6.846-1.79c-0.606,0-1.234,0.04-1.857,0.129
				c-0.999,0.134-1.964,0.387-2.879,0.729c6.015-15.403,17.575-26.406,31.85-28.971l1.386-0.252l2.003-0.163
				c0.993-0.084,1.986-0.123,2.974-0.123c13.254-0.011,26.031,7.334,35.228,19.583c-0.764-0.135-1.549-0.202-2.34-0.202
				c-0.611,0-1.229,0.04-1.856,0.129c-3.06,0.426-5.758,1.891-7.896,3.984c-2.1-1.139-4.428-1.801-6.841-1.801
				c-0.617,0-1.246,0.045-1.874,0.135c-3.019,0.416-5.688,1.863-7.816,3.922c-1.739-0.977-3.731-1.498-5.92-1.481
				c-0.825,0-1.689,0.062-2.592,0.19C40.709,46.695,37.994,48.047,35.985,49.916z M93.141,111.65H40.687
				c3.209-1.026,7.037-2.055,11.268-2.856l0.028,0.213l4.304-0.622l-0.045-0.285c3.389-0.467,6.969-0.759,10.673-0.759
				c10.089,0,19.303,2.109,25.976,4.229C92.973,111.596,93.057,111.622,93.141,111.65z M120.467,85.99
				c-1.504-0.842-3.164-1.229-4.803-1.229c-0.012,0-0.018,0-0.021,0c-0.293,0-0.572,0.012-0.865,0.033
				c-0.887-1.729-2.221-3.227-3.994-4.214c-1.503-0.849-3.17-1.24-4.813-1.24c-0.274,0-0.545,0.013-0.813,0.033
				c-0.836-1.608-2.233-2.962-4.057-3.944c-1.752-0.976-3.535-1.447-5.23-1.441c-0.145,0-0.291,0.006-0.443,0.012
				c-0.886-1.738-2.227-3.243-4.006-4.242c-1.521-0.842-3.182-1.24-4.831-1.234c-0.286,0-0.571,0.013-0.858,0.033
				c-0.893-1.728-2.229-3.215-3.994-4.208c-0.17-0.096-0.344-0.18-0.512-0.264c5.051-2.834,10.394-4.326,15.486-4.32
				c3.822,0,7.508,0.824,10.908,2.547l0.797,0.41l1.1,0.695c7.375,4.681,11.621,13.248,12.01,23.259
				C121.197,86.428,120.844,86.197,120.467,85.99z"/>
		</g>
	</g>
	
		<path display="inline" fill="none" stroke="#FF0000" stroke-width="5" stroke-linecap="round" stroke-linejoin="round" stroke-miterlimit="10" d="
		M24.565,90.287c-1.729,1.729-4.646,1.618-6.515-0.25l-2.559-2.56c-1.868-1.868-1.98-4.786-0.251-6.515l15.362-15.362
		c1.73-1.73,4.647-1.618,6.516,0.25l2.559,2.56c1.868,1.868,1.98,4.784,0.25,6.516L24.565,90.287z"/>
	
		<path display="inline" fill="none" stroke="#FF0000" stroke-width="5" stroke-linecap="round" stroke-linejoin="round" stroke-miterlimit="10" d="
		M34.638,100.358c-1.729,1.73-4.646,1.618-6.515-0.25l-2.559-2.558c-1.868-1.869-1.98-4.787-0.251-6.517l22.416-22.415
		c1.73-1.73,4.647-1.618,6.516,0.25l2.559,2.559c1.868,1.869,1.98,4.785,0.25,6.516L34.638,100.358z"/>
	
		<path display="inline" fill="none" stroke="#FF0000" stroke-width="5" stroke-linecap="round" stroke-linejoin="round" stroke-miterlimit="10" d="
		M44.71,110.43c-1.729,1.731-4.646,1.619-6.515-0.25l-2.559-2.558c-1.868-1.868-1.98-4.786-0.251-6.517L54.321,82.17
		c1.73-1.73,4.647-1.617,6.516,0.251l2.559,2.558c1.868,1.869,1.98,4.786,0.25,6.516L44.71,110.43z"/>
	
		<path display="inline" fill="none" stroke="#FF0000" stroke-width="5" stroke-linecap="round" stroke-linejoin="round" stroke-miterlimit="10" d="
		M54.783,120.503c-1.729,1.729-4.646,1.618-6.515-0.251l-2.559-2.559c-1.868-1.868-1.98-4.786-0.251-6.516L60.82,95.815
		c1.73-1.729,4.648-1.616,6.516,0.252l2.559,2.558c1.868,1.869,1.98,4.786,0.25,6.516L54.783,120.503z"/>
	
		<path display="inline" fill="none" stroke="#FF0000" stroke-width="5" stroke-linecap="round" stroke-linejoin="round" stroke-miterlimit="10" d="
		M20.952,75.25L9.2,62.006c0,0-13.642-21.09,7.177-39.235c26.078-22.728,44.26,3.11,44.26,3.11"/>
	
		<path display="inline" fill="none" stroke="#FF0000" stroke-width="5" stroke-linecap="round" stroke-linejoin="round" stroke-miterlimit="10" d="
		M79.298,47.413l29.427,30.53c0,0,6.22,5.595,1.196,10.619c-5.024,5.023-9.81,2.952-9.81,2.952L83.125,72.533"/>
	
		<path display="inline" fill="none" stroke="#FF0000" stroke-width="5" stroke-linecap="round" stroke-linejoin="round" stroke-miterlimit="10" d="
		M71.372,105.069c0,0,9.361,10.288,15.342,4.307c5.981-5.981,1.914-7.79,1.914-7.79L71.372,84.489"/>
	
		<path display="inline" fill="none" stroke="#FF0000" stroke-width="5" stroke-linecap="round" stroke-linejoin="round" stroke-miterlimit="10" d="
		M101.068,91.938c0,0,2.632,4.28-2.632,8.348c-5.263,4.066-8.458,1.301-8.458,1.301"/>
	
		<path display="inline" fill="none" stroke="#FF0000" stroke-width="5" stroke-linecap="round" stroke-linejoin="round" stroke-miterlimit="10" d="
		M101.727,37.843c0,0-3.699,5.263-11.748,5.263s-9.304-2.631-9.304-2.631s-6.88-4.545-14.296,2.631
		c-7.417,7.178-6.46,8.374-13.876,8.613s-7.93-4.306-8.271-5.742c-0.341-1.436,25.975-27.752,25.975-27.752
		s4.546-4.808,14.833-4.808c10.288,0,16.029,3.373,19.857,5.765s18.661,16.047,19.618,32.545
		c0.956,16.499-17.038,24.921-17.038,24.921"/>
</g>
<g id="Calque_2_2_" display="none">
	<g display="inline">
		<g>
			<g>
				<g>
					<path fill="#FF0000" d="M65.346,78.688v-4.713h48.722c2.929-0.007,5.291-2.382,5.298-5.304l0,0
						c-0.007-2.923-2.369-5.292-5.298-5.298l0,0H65.346v-4.717h48.722c5.532,0.003,10.012,4.483,10.012,10.015l0,0
						c0,5.532-4.479,10.017-10.012,10.017l0,0H65.346L65.346,78.688z"/>
				</g>
			</g>
		</g>
		<g>
			<g>
				<g>
					<path fill="#FF0000" d="M65.349,93.997v-4.713h40.367c2.922-0.007,5.291-2.376,5.297-5.298l0,0
						c-0.006-2.929-2.375-5.298-5.297-5.298l0,0v-4.713c5.531,0,10.012,4.479,10.012,10.011l0,0c0,5.526-4.48,10.011-10.012,10.011
						l0,0H65.349L65.349,93.997z"/>
				</g>
			</g>
		</g>
		<g>
			<g>
				<g>
					<path fill="#FF0000" d="M10.437,104.821c-3.145-3.049-4.78-7.511-4.769-12.832l0,0V55.101c0-3.755,1.771-7.113,4.507-9.257l0,0
						l0.087-0.066l0.099-0.063c0.021-0.012,40.452-25.816,46.978-29.712l0,0c1.33-0.746,4.008-2.528,7.315-2.585l0,0
						c6.494,0,11.749,5.267,11.755,11.755l0,0c0,4.022-2.033,7.588-5.111,9.702l0,0l-10.443,8.475h39.293
						c5.532,0,10.012,4.483,10.012,10.011l0,0c0,5.532-4.479,10.009-10.012,10.014l0,0V58.66c2.923-0.006,5.292-2.375,5.298-5.3l0,0
						c-0.006-2.922-2.375-5.294-5.298-5.297l0,0H47.56l20.948-17.001l0.085-0.048c1.87-1.275,3.102-3.407,3.102-5.841l0,0
						c-0.012-3.887-3.156-7.032-7.04-7.042l0,0c-1.356-0.057-3.695,1.155-4.898,1.921l0,0c-3.141,1.873-14.903,9.308-25.813,16.241
						l0,0C23.694,42.801,14.17,48.875,13.013,49.614l0,0c-1.605,1.293-2.625,3.262-2.63,5.487l0,0v36.889
						c0.015,4.42,1.284,7.438,3.336,9.453l0,0c2.06,1.996,5.129,3.15,9.276,3.156l0,0h63.227c2.935-0.006,5.298-2.375,5.304-5.297
						l0,0c-0.006-2.935-2.369-5.292-5.304-5.305l0,0v-4.713c5.538,0,10.018,4.485,10.018,10.018l0,0
						c0,5.531-4.479,10.005-10.018,10.005l0,0H22.995c-0.019,0.006-0.036,0.006-0.055,0.006l0,0
						C17.952,109.307,13.557,107.852,10.437,104.821L10.437,104.821z"/>
				</g>
			</g>
		</g>
	</g>
</g>
<g id="Calque_3">
	<path fill="none" stroke="#FF0000" stroke-width="5" stroke-miterlimit="10" d="M7.691,56.228v36.106
		c0,0-0.888,14.206,13.91,14.206s63.926,0,63.926,0s9.163,0,9.163-7.208c0-8.773-8.469-8.773-8.469-8.773H65.349h40.304
		c0,0,7.694-0.126,7.694-6.572s-7.631-7.338-7.631-7.338H65.349h50.379c0,0,6.939-0.467,6.939-7.976s-6.939-7.308-6.939-7.308
		H65.349L98.813,61c0,0,9.063-0.098,9.063-8.063c0-8.271-9.313-7.5-9.313-7.5H54.875L71.438,31.75c0,0,5.313-5.375,0.813-12.375
		s-11.188-2.938-11.188-2.938L15.25,45.5C15.25,45.5,7.691,49.125,7.691,56.228z"/>
</g>
</svg>
