<?xml version="1.0" encoding="utf-8"?>
<!-- Generator: Adobe Illustrator 16.0.0, SVG Export Plug-In . SVG Version: 6.00 Build 0)  -->
<!DOCTYPE svg PUBLIC "-//W3C//DTD SVG 1.1//EN" "http://www.w3.org/Graphics/SVG/1.1/DTD/svg11.dtd">
<svg version="1.1" id="Calque_1" xmlns="http://www.w3.org/2000/svg" xmlns:xlink="http://www.w3.org/1999/xlink" x="0px" y="0px"
	 width="128px" height="128px" viewBox="0 0 128 128" enable-background="new 0 0 128 128" xml:space="preserve">
<g id="Calque_2" display="none">
</g>
<g>
	<g>
		<g>
			<path fill="none" stroke="#FF0000" stroke-width="5" stroke-linecap="round" stroke-linejoin="round" stroke-miterlimit="10" d="
				M69.93,28.194c0-1.959-1.604-3.561-3.563-3.561h-5.253c-1.959,0-3.563,1.602-3.563,3.561v2.1c0,1.959,1.603,3.563,3.563,3.563
				h5.253c1.96,0,3.563,1.603,3.563,3.563v2.101c0,1.959-1.604,3.56-3.563,3.56h-5.253c-1.959,0-3.563-1.601-3.563-3.56"/>
			
				<line fill="none" stroke="#FF0000" stroke-width="5" stroke-linecap="round" stroke-linejoin="round" stroke-miterlimit="10" x1="63.739" y1="24.633" x2="63.739" y2="21.001"/>
			
				<line fill="none" stroke="#FF0000" stroke-width="5" stroke-linecap="round" stroke-linejoin="round" stroke-miterlimit="10" x1="63.739" y1="46.71" x2="63.739" y2="43.081"/>
		</g>
		
			<circle fill="none" stroke="#FF0000" stroke-width="5" stroke-linecap="round" stroke-linejoin="round" stroke-miterlimit="10" cx="63.74" cy="33.857" r="28.733"/>
	</g>
	<g>
		<path fill="none" stroke="#FF0000" stroke-width="5" stroke-linecap="round" stroke-linejoin="round" stroke-miterlimit="10" d="
			M60.835,92.515l15.752,8.656l43.636-26.997c0.506-0.314,1.09-0.479,1.682-0.479c2.118,0,3.97,1.444,4.481,3.499l0.448,1.766
			c0.563,2.283-0.291,4.679-2.179,6.084l-46.119,34.252c-1.286,0.956-2.737,1.666-4.286,2.093l-2.18,0.602
			c-1.47,0.415-3.031,0.376-4.475-0.102l-45.713-15.163c-2.079-0.688-4.357-0.527-6.318,0.459l-14.561,7.141"/>
		<path fill="none" stroke="#FF0000" stroke-width="5" stroke-linecap="round" stroke-linejoin="round" stroke-miterlimit="10" d="
			M4.703,84.327l29.366-10.008c1.233-0.413,2.545-0.54,3.832-0.374l50.424,6.385c2.275,0.292,3.913,2.318,3.716,4.604l-0.236,2.736
			c-0.218,2.455-2.246,4.352-4.713,4.396l-26.255,0.448l-10.589-0.373"/>
		<path fill="none" stroke="#FF0000" stroke-width="5" stroke-linecap="round" stroke-linejoin="round" stroke-miterlimit="10" d="
			M86.237,80.067l19.585-7.772c1.055-0.371,2.203-0.374,3.258-0.006l0,0c2.405,0.844,4.017,3.111,4.017,5.661v0.638"/>
	</g>
</g>
</svg>
