<?xml version="1.0" encoding="utf-8"?>
<!-- Generator: Adobe Illustrator 16.0.0, SVG Export Plug-In . SVG Version: 6.00 Build 0)  -->
<!DOCTYPE svg PUBLIC "-//W3C//DTD SVG 1.1//EN" "http://www.w3.org/Graphics/SVG/1.1/DTD/svg11.dtd">
<svg version="1.1" xmlns="http://www.w3.org/2000/svg" xmlns:xlink="http://www.w3.org/1999/xlink" x="0px" y="0px" width="128px"
	 height="128px" viewBox="0 0 128 128" enable-background="new 0 0 128 128" xml:space="preserve">
<g id="Calque_1">
	<g>
		<g>
			<path fill="none" stroke="#FF0000" stroke-width="5" stroke-linecap="round" stroke-linejoin="round" stroke-miterlimit="10" d="
				M109.367,58.896c1.796-4.153,2.77-8.598,2.77-13.218c0-22.983-24.06-41.613-53.74-41.613c-29.678,0-53.739,18.63-53.739,41.613
				c0,12.18,6.76,23.135,17.531,30.744h-0.004v23.53l15.784-15.783c6.299,2.007,13.194,3.121,20.427,3.121
				c4.005,0,7.909-0.34,11.663-0.983"/>
		</g>
	</g>
	<g id="Calque_3">
		
			<line fill="none" stroke="#FF0000" stroke-width="5" stroke-linecap="round" stroke-linejoin="round" stroke-miterlimit="10" x1="21.991" y1="34.75" x2="48.364" y2="34.75"/>
		<path fill="none" stroke="#FF0000" stroke-width="5" stroke-linecap="round" stroke-linejoin="round" stroke-miterlimit="10" d="
			M27.481,34.75c0,0,0.835,13.248,16.824,18.378"/>
		<path fill="none" stroke="#FF0000" stroke-width="5" stroke-linecap="round" stroke-linejoin="round" stroke-miterlimit="10" d="
			M43.113,34.75c0,0-0.12,14.798-20.406,20.287"/>
		
			<line fill="none" stroke="#FF0000" stroke-width="5" stroke-linecap="round" stroke-linejoin="round" stroke-miterlimit="10" x1="35.178" y1="29.62" x2="37.504" y2="34.75"/>
	</g>
	<path fill="none" stroke="#FF0000" stroke-width="5" stroke-linecap="round" stroke-linejoin="round" stroke-miterlimit="10" d="
		M92.831,101.18c0,3.92-3.17,7.092-7.09,7.092c-0.62,0-1.22-0.08-1.79-0.229c0,0-0.93-0.341-2.521-0.819
		c-0.959-0.291-2.17-0.632-3.56-0.961v18.239h46.63V77.87h-17.721c0.352-1.261,0.66-2.28,0.891-2.989
		c0.229-0.701,0.37-1.09,0.37-1.09c0.149-0.57,0.229-1.171,0.229-1.791c0-3.92-3.17-7.09-7.09-7.09c-3.91,0-7.08,3.17-7.08,7.09
		c0,0.62,0.08,1.221,0.229,1.791c0,0,0.568,1.559,1.261,4.079h-17.72V96.1c3.66-0.879,6.08-1.771,6.08-1.771
		c0.57-0.149,1.17-0.229,1.789-0.229C89.661,94.1,92.831,97.271,92.831,101.18z"/>
	<g>
		<path fill="#FF0000" d="M65.637,55.486c-1.712,0-3.293-0.253-4.742-0.758c-1.449-0.505-2.694-1.258-3.736-2.258
			c-1.042-1-1.849-2.248-2.421-3.743s-0.858-3.223-0.858-5.182c0-1.825,0.273-3.48,0.82-4.965c0.546-1.485,1.34-2.759,2.382-3.821
			c1-1.021,2.24-1.81,3.72-2.367c1.479-0.557,3.097-0.835,4.85-0.835c0.969,0,1.842,0.054,2.621,0.163s1.498,0.25,2.158,0.425
			c0.691,0.196,1.316,0.415,1.879,0.657c0.563,0.243,1.055,0.467,1.477,0.673v5.584h-0.68c-0.289-0.246-0.652-0.539-1.09-0.877
			c-0.439-0.339-0.938-0.672-1.494-1.001c-0.566-0.328-1.18-0.605-1.84-0.831c-0.66-0.226-1.367-0.338-2.119-0.338
			c-0.836,0-1.629,0.131-2.382,0.394c-0.753,0.263-1.449,0.697-2.088,1.305c-0.608,0.586-1.101,1.364-1.477,2.331
			c-0.377,0.967-0.565,2.14-0.565,3.52c0,1.44,0.204,2.645,0.611,3.612c0.407,0.968,0.92,1.729,1.539,2.285
			c0.629,0.566,1.33,0.97,2.104,1.212s1.536,0.363,2.29,0.363c0.721,0,1.436-0.107,2.143-0.323c0.705-0.215,1.357-0.508,1.955-0.877
			c0.506-0.297,0.975-0.615,1.408-0.954c0.434-0.339,0.789-0.631,1.068-0.877h0.617v5.507c-0.576,0.258-1.129,0.5-1.654,0.727
			c-0.525,0.227-1.078,0.423-1.654,0.587c-0.754,0.217-1.461,0.382-2.119,0.495C67.699,55.429,66.791,55.486,65.637,55.486z"/>
		<path fill="#FF0000" d="M99.436,55.037h-6.135l-1.604-4.656h-8.523l-1.605,4.656h-5.986l8.508-23.033h6.838L99.436,55.037z
			 M90.27,46.158l-2.834-8.251l-2.834,8.251H90.27z"/>
	</g>
</g>
<g id="Calque_2">
</g>
</svg>
