<?xml version="1.0" encoding="utf-8"?>
<!-- Generator: Adobe Illustrator 16.0.0, SVG Export Plug-In . SVG Version: 6.00 Build 0)  -->
<!DOCTYPE svg PUBLIC "-//W3C//DTD SVG 1.1//EN" "http://www.w3.org/Graphics/SVG/1.1/DTD/svg11.dtd">
<svg version="1.1" xmlns="http://www.w3.org/2000/svg" xmlns:xlink="http://www.w3.org/1999/xlink" x="0px" y="0px" width="128px"
	 height="128px" viewBox="0 0 128 128" enable-background="new 0 0 128 128" xml:space="preserve">
<g id="Calque_1">
	<g id="Calque_2_1_">
	</g>
	
		<sodipodi:namedview  id="namedview13" gridtolerance="10" pagecolor="#ffffff" showgrid="false" inkscape:cx="128" guidetolerance="10" bordercolor="#666666" objecttolerance="10" inkscape:zoom="2.8710938" inkscape:cy="128" borderopacity="1" inkscape:current-layer="Layer_1" inkscape:window-y="-8" inkscape:window-x="-8" inkscape:window-width="1920" inkscape:pageshadow="2" inkscape:window-maximized="1" inkscape:window-height="1017" inkscape:pageopacity="0">
		</sodipodi:namedview>
	<path fill="none" stroke="#FF0000" stroke-width="5" stroke-linecap="round" stroke-linejoin="round" stroke-miterlimit="10" d="
		M64.742,26.3c23.517,3.981,41.482,24.496,41.482,49.129c0,27.47-22.352,49.823-49.827,49.823
		c-27.473,0-49.826-22.354-49.826-49.823c0-4.315,0.551-8.505,1.587-12.501"/>
	<path fill="none" stroke="#FF0000" stroke-width="5" stroke-linecap="round" stroke-linejoin="round" stroke-miterlimit="10" d="
		M63.715,39.689c16.616,3.398,29.157,18.132,29.157,35.738c-0.003,20.114-16.363,36.473-36.474,36.473
		c-20.11,0-36.475-16.362-36.475-36.473c0-4.153,0.698-8.774,1.983-12.498"/>
	<circle fill="#FF0000" cx="56.398" cy="75.429" r="9.768"/>
	
		<line fill="none" stroke="#FF0000" stroke-width="5" stroke-linecap="round" stroke-linejoin="round" stroke-miterlimit="10" x1="56.398" y1="75.43" x2="116.297" y2="15.527"/>
	
		<polygon fill="none" stroke="#FF0000" stroke-width="2" stroke-linecap="round" stroke-linejoin="round" stroke-miterlimit="10" points="
		107.278,38.023 93.923,37.903 111.421,20.403 124.777,20.525 	"/>
	
		<polygon fill="none" stroke="#FF0000" stroke-width="2" stroke-linecap="round" stroke-linejoin="round" stroke-miterlimit="10" points="
		93.801,24.548 93.923,37.903 111.421,20.403 111.3,7.048 	"/>
	<path fill="none" stroke="#FF0000" stroke-width="6" stroke-linecap="round" stroke-miterlimit="10" d="M64.069,56.566
		c7.424,2.998,12.663,10.272,12.663,18.771c0,11.177-9.059,20.235-20.234,20.235c-11.175,0-20.234-9.059-20.234-20.235
		c0-4.177,1.266-8.058,3.435-11.281"/>
</g>
<g id="Calque_2">
	<g id="Calque_3">
		<g>
			<path fill="none" stroke="#FF0000" stroke-width="5" stroke-linecap="round" stroke-linejoin="round" stroke-miterlimit="10" d="
				M56.654,55.605c0,0.578-0.469,1.049-1.049,1.049H5.548c-0.579,0-1.048-0.471-1.048-1.049V5.548C4.5,4.969,4.969,4.5,5.548,4.5
				h50.058c0.58,0,1.049,0.469,1.049,1.048V55.605L56.654,55.605z"/>
			<circle fill="#FF0000" cx="16.424" cy="17.481" r="3.704"/>
			<line fill="none" stroke="#FF0000" stroke-width="4" stroke-miterlimit="10" x1="24.219" y1="17.48" x2="46.23" y2="17.48"/>
			<circle fill="#FF0000" cx="16.424" cy="30.577" r="3.704"/>
			<line fill="none" stroke="#FF0000" stroke-width="4" stroke-miterlimit="10" x1="24.219" y1="30.578" x2="46.23" y2="30.578"/>
			<circle fill="#FF0000" cx="16.424" cy="43.673" r="3.704"/>
			<line fill="none" stroke="#FF0000" stroke-width="4" stroke-miterlimit="10" x1="24.219" y1="43.672" x2="46.23" y2="43.672"/>
		</g>
	</g>
</g>
</svg>
