<?xml version="1.0" encoding="utf-8"?>
<!-- Generator: Adobe Illustrator 16.0.0, SVG Export Plug-In . SVG Version: 6.00 Build 0)  -->
<!DOCTYPE svg PUBLIC "-//W3C//DTD SVG 1.1//EN" "http://www.w3.org/Graphics/SVG/1.1/DTD/svg11.dtd">
<svg version="1.1" id="Calque_1" xmlns="http://www.w3.org/2000/svg" xmlns:xlink="http://www.w3.org/1999/xlink" x="0px" y="0px"
	 width="128px" height="128px" viewBox="0 0 128 128" enable-background="new 0 0 128 128" xml:space="preserve">
<g id="Calque_2_2_" display="none">
	
		<line display="inline" fill="none" stroke="#FF0000" stroke-width="11" stroke-miterlimit="10" x1="4.536" y1="26.757" x2="57.662" y2="26.757"/>
	
		<line display="inline" fill="none" stroke="#FF0000" stroke-width="11" stroke-miterlimit="10" x1="57.662" y1="38.391" x2="85.809" y2="38.391"/>
	
		<line display="inline" fill="none" stroke="#FF0000" stroke-width="11" stroke-miterlimit="10" x1="9.136" y1="68.539" x2="36.907" y2="68.539"/>
	
		<line display="inline" fill="none" stroke="#FF0000" stroke-width="11" stroke-miterlimit="10" x1="36.907" y1="81.674" x2="45.117" y2="81.674"/>
	<path display="inline" fill="none" stroke="#FF0000" stroke-width="5" stroke-miterlimit="10" d="M40.352,111.936H10.458
		c-3.316,0-6.004-2.916-6.004-6.51V15.41c0-3.594,2.688-6.507,6.004-6.507h107.083c3.318,0,6.006,2.914,6.006,6.507v41.201"/>
</g>
<g>
	<path fill="#FF0000" d="M82.911,104.583V87.568c0-0.745,0.205-1.387,0.616-1.929c0.412-0.542,0.898-0.812,1.465-0.812h6.738
		c0.558,0,1.04,0.27,1.446,0.812c0.407,0.542,0.612,1.184,0.612,1.929v17.015c0,0.755-0.205,1.401-0.612,1.937
		c-0.406,0.535-0.898,0.805-1.473,0.805h-6.712c-0.581,0-1.075-0.27-1.478-0.805C83.11,105.984,82.911,105.338,82.911,104.583z
		 M91.654,104.48V87.705H85.07v16.776L91.654,104.48L91.654,104.48z"/>
	<path fill="#FF0000" d="M109.669,105.902c0,0.395-0.106,0.73-0.314,1.007c-0.212,0.277-0.467,0.415-0.767,0.415h-8.717
		c-0.301,0-0.555-0.144-0.767-0.432c-0.209-0.289-0.313-0.631-0.313-1.025c0-0.384,0.104-0.709,0.313-0.981
		c0.212-0.271,0.466-0.405,0.767-0.405h3.317V87.705h-3.268c-0.299,0-0.554-0.14-0.764-0.415c-0.211-0.276-0.315-0.613-0.315-1.007
		c0-0.397,0.104-0.73,0.315-1.009c0.21-0.276,0.465-0.414,0.764-0.414h5.427v19.621h2.161
		C107.508,104.48,109.669,104.225,109.669,105.902z"/>
</g>
<g>
	<path fill="none" stroke="#FF0000" stroke-width="5" stroke-miterlimit="10" d="M119.08,112.79c0,3.355-2.721,6.076-6.076,6.076
		H79.576c-3.356,0-6.076-2.721-6.076-6.076V79.362c0-3.356,2.72-6.077,6.076-6.077h33.428c3.355,0,6.076,2.721,6.076,6.077V112.79z"
		/>
	<g>
		
			<line fill="none" stroke="#FF0000" stroke-width="5" stroke-linecap="round" stroke-miterlimit="10" x1="83.617" y1="73.285" x2="83.617" y2="66.541"/>
		
			<line fill="none" stroke="#FF0000" stroke-width="5" stroke-linecap="round" stroke-miterlimit="10" x1="89.953" y1="73.285" x2="89.953" y2="66.541"/>
		
			<line fill="none" stroke="#FF0000" stroke-width="5" stroke-linecap="round" stroke-miterlimit="10" x1="96.289" y1="73.285" x2="96.289" y2="66.541"/>
		
			<line fill="none" stroke="#FF0000" stroke-width="5" stroke-linecap="round" stroke-miterlimit="10" x1="102.626" y1="73.285" x2="102.626" y2="66.541"/>
		
			<line fill="none" stroke="#FF0000" stroke-width="5" stroke-linecap="round" stroke-miterlimit="10" x1="108.962" y1="73.285" x2="108.962" y2="66.541"/>
	</g>
	<g>
		
			<line fill="none" stroke="#FF0000" stroke-width="5" stroke-linecap="round" stroke-miterlimit="10" x1="83.617" y1="125.61" x2="83.617" y2="118.866"/>
		
			<line fill="none" stroke="#FF0000" stroke-width="5" stroke-linecap="round" stroke-miterlimit="10" x1="89.953" y1="125.61" x2="89.953" y2="118.866"/>
		
			<line fill="none" stroke="#FF0000" stroke-width="5" stroke-linecap="round" stroke-miterlimit="10" x1="96.289" y1="125.61" x2="96.289" y2="118.866"/>
		
			<line fill="none" stroke="#FF0000" stroke-width="5" stroke-linecap="round" stroke-miterlimit="10" x1="102.626" y1="125.61" x2="102.626" y2="118.866"/>
		
			<line fill="none" stroke="#FF0000" stroke-width="5" stroke-linecap="round" stroke-miterlimit="10" x1="108.962" y1="125.61" x2="108.962" y2="118.866"/>
	</g>
	<g>
		
			<line fill="none" stroke="#FF0000" stroke-width="5" stroke-linecap="round" stroke-miterlimit="10" x1="119.079" y1="83.402" x2="125.824" y2="83.402"/>
		
			<line fill="none" stroke="#FF0000" stroke-width="5" stroke-linecap="round" stroke-miterlimit="10" x1="119.079" y1="89.739" x2="125.824" y2="89.739"/>
		
			<line fill="none" stroke="#FF0000" stroke-width="5" stroke-linecap="round" stroke-miterlimit="10" x1="119.079" y1="96.075" x2="125.824" y2="96.075"/>
		
			<line fill="none" stroke="#FF0000" stroke-width="5" stroke-linecap="round" stroke-miterlimit="10" x1="119.079" y1="102.412" x2="125.824" y2="102.412"/>
		
			<line fill="none" stroke="#FF0000" stroke-width="5" stroke-linecap="round" stroke-miterlimit="10" x1="119.079" y1="108.748" x2="125.824" y2="108.748"/>
	</g>
	<g>
		
			<line fill="none" stroke="#FF0000" stroke-width="5" stroke-linecap="round" stroke-miterlimit="10" x1="66.754" y1="83.402" x2="73.499" y2="83.402"/>
		
			<line fill="none" stroke="#FF0000" stroke-width="5" stroke-linecap="round" stroke-miterlimit="10" x1="66.754" y1="89.739" x2="73.499" y2="89.739"/>
		
			<line fill="none" stroke="#FF0000" stroke-width="5" stroke-linecap="round" stroke-miterlimit="10" x1="66.754" y1="96.075" x2="73.499" y2="96.075"/>
		
			<line fill="none" stroke="#FF0000" stroke-width="5" stroke-linecap="round" stroke-miterlimit="10" x1="66.754" y1="102.412" x2="73.499" y2="102.412"/>
		
			<line fill="none" stroke="#FF0000" stroke-width="5" stroke-linecap="round" stroke-miterlimit="10" x1="66.754" y1="108.748" x2="73.499" y2="108.748"/>
	</g>
</g>
<path id="path29_1_" fill="none" stroke="#FF0000" stroke-width="5" stroke-miterlimit="10" d="M49.162,124.288H14.354
	c-5.954,0-10.781-4.826-10.781-10.781V14.983c0-5.955,4.827-10.781,10.781-10.781h98.525c5.953,0,10.781,4.827,10.781,10.781v43.958
	"/>
<line id="line31" fill="none" stroke="#FF0000" stroke-width="12" stroke-miterlimit="10" x1="12.498" y1="24.584" x2="41.168" y2="24.584"/>
<line id="line33" fill="none" stroke="#FF0000" stroke-width="12" stroke-miterlimit="10" x1="40.292" y1="78.417" x2="61.009" y2="78.417"/>
<line id="line37" fill="none" stroke="#FF0000" stroke-width="12" stroke-miterlimit="10" x1="41.143" y1="51.53" x2="73.934" y2="51.53"/>
<path id="path2790" fill="none" stroke="#FF0000" d="M40.766,18.707l-0.073,65.684"/>
</svg>
