<?xml version="1.0" encoding="utf-8"?>
<!-- Generator: Adobe Illustrator 16.0.0, SVG Export Plug-In . SVG Version: 6.00 Build 0)  -->
<!DOCTYPE svg PUBLIC "-//W3C//DTD SVG 1.1//EN" "http://www.w3.org/Graphics/SVG/1.1/DTD/svg11.dtd">
<svg version="1.1" id="Calque_1" xmlns="http://www.w3.org/2000/svg" xmlns:xlink="http://www.w3.org/1999/xlink" x="0px" y="0px"
	 width="128px" height="128px" viewBox="0 0 128 128" enable-background="new 0 0 128 128" xml:space="preserve">
<g>
	
		<polygon fill="none" stroke="#FF0000" stroke-width="5" stroke-linecap="round" stroke-linejoin="round" stroke-miterlimit="10" points="
		63.089,42.654 86.274,65.84 34.669,117.444 9.804,119.124 11.485,94.259 	"/>
	<path fill="none" stroke="#FF0000" stroke-width="5" stroke-linecap="round" stroke-linejoin="round" stroke-miterlimit="10" d="
		M75.535,26.84l26.554,26.552c3.891,3.891,3.891,10.255,0,14.144l0,0c-3.889,3.892-10.254,3.892-14.143,0L61.392,40.981
		c-3.889-3.889-3.889-10.252,0-14.142l0,0C65.28,22.948,71.646,22.948,75.535,26.84z"/>
	<path fill="none" stroke="#FF0000" stroke-width="5" stroke-linecap="round" stroke-linejoin="round" stroke-miterlimit="10" d="
		M78.971,30.274l18.444-18.447c5.415-5.412,14.272-5.412,19.686,0l0,0c5.412,5.415,5.412,14.271,0,19.685L98.654,49.958"/>
</g>
</svg>
