<?xml version="1.0" encoding="utf-8"?>
<!-- Generator: Adobe Illustrator 16.0.0, SVG Export Plug-In . SVG Version: 6.00 Build 0)  -->
<!DOCTYPE svg PUBLIC "-//W3C//DTD SVG 1.1//EN" "http://www.w3.org/Graphics/SVG/1.1/DTD/svg11.dtd">
<svg version="1.1" id="Calque_1" xmlns="http://www.w3.org/2000/svg" xmlns:xlink="http://www.w3.org/1999/xlink" x="0px" y="0px"
	 width="128px" height="128px" viewBox="0 0 128 128" enable-background="new 0 0 128 128" xml:space="preserve">
<g id="Calque_2" display="none">
</g>
<g id="Calque_3">
	<g>
		<path fill="none" stroke="#FF0000" stroke-width="5" stroke-linecap="round" stroke-linejoin="round" stroke-miterlimit="10" d="
			M56.654,55.605c0,0.578-0.469,1.049-1.049,1.049H5.548c-0.579,0-1.048-0.471-1.048-1.049V5.548C4.5,4.969,4.969,4.5,5.548,4.5
			h50.058c0.58,0,1.049,0.469,1.049,1.048L56.654,55.605L56.654,55.605z"/>
		<circle fill="#FF0000" cx="16.424" cy="17.481" r="3.704"/>
		<line fill="none" stroke="#FF0000" stroke-width="4" stroke-miterlimit="10" x1="24.219" y1="17.481" x2="46.23" y2="17.481"/>
		<circle fill="#FF0000" cx="16.424" cy="30.577" r="3.704"/>
		<line fill="none" stroke="#FF0000" stroke-width="4" stroke-miterlimit="10" x1="24.219" y1="30.578" x2="46.23" y2="30.578"/>
		<circle fill="#FF0000" cx="16.424" cy="43.673" r="3.704"/>
		<line fill="none" stroke="#FF0000" stroke-width="4" stroke-miterlimit="10" x1="24.219" y1="43.672" x2="46.23" y2="43.672"/>
	</g>
</g>
<g>
	<path fill="none" stroke="#FF0000" stroke-width="5" stroke-linecap="round" stroke-linejoin="round" d="M82.123,23.272h17.199
		v24.607h9.791L90.723,66.27l-18.391-18.39h9.791V23.272z"/>
</g>
<g>
	<path fill="none" stroke="#FF0000" stroke-width="5" stroke-miterlimit="10" d="M107.829,122.704H38.924V80.673
		c0-2.999,1.486-4.497,4.46-4.497h2.067c1.039,0,1.777-0.164,2.212-0.491c0.435-0.325,0.773-0.96,1.015-1.903l0.363-1.451
		c0.387-1.522,0.883-2.453,1.487-2.792c0.58-0.339,1.982-0.508,4.207-0.508h13.854c2.007,0,3.288,0.157,3.845,0.472
		c0.556,0.314,1.039,1.161,1.45,2.538l0.399,1.343c0.41,1.378,0.791,2.188,1.143,2.43c0.351,0.241,1.322,0.363,2.919,0.363h25.06
		c1.717,0,2.884,0.319,3.5,0.96c0.617,0.641,0.925,1.844,0.925,3.607v3.483 M38.924,122.704h68.905l14.905-33.981
		c0.531-1.16,0.798-1.813,0.798-1.958c-0.072-0.508-0.822-0.762-2.249-0.762H62.75c-1.403,0-2.37,0.157-2.902,0.471
		c-0.532,0.315-1.076,1.028-1.631,2.141L38.924,122.704z"/>
</g>
</svg>
