<?xml version="1.0" encoding="utf-8"?>
<!-- Generator: Adobe Illustrator 16.0.0, SVG Export Plug-In . SVG Version: 6.00 Build 0)  -->
<!DOCTYPE svg PUBLIC "-//W3C//DTD SVG 1.1//EN" "http://www.w3.org/Graphics/SVG/1.1/DTD/svg11.dtd">
<svg version="1.1" xmlns="http://www.w3.org/2000/svg" xmlns:xlink="http://www.w3.org/1999/xlink" x="0px" y="0px" width="128px"
	 height="128px" viewBox="0 0 128 128" enable-background="new 0 0 128 128" xml:space="preserve">
<g id="Calque_1">
	<g id="Calque_2" display="none">
	</g>
	<g id="Calque_2_1_">
		<g>
			
				<circle fill="none" stroke="#FF0000" stroke-width="5" stroke-linecap="round" stroke-linejoin="round" stroke-miterlimit="10" cx="31.232" cy="23.676" r="9.008"/>
			<path fill="none" stroke="#FF0000" stroke-width="5" stroke-linecap="round" stroke-linejoin="round" stroke-miterlimit="10" d="
				M59.182,32.476c0-15.438-12.513-27.952-27.948-27.952c-15.438,0-27.951,12.515-27.951,27.952
				c0,10.862,6.209,20.256,15.264,24.883v9.272l7.923,7.922l-8.526,8.529l7.166,7.165l-6.522,6.523l7.015,7.013L18.383,111
				l12.476,12.476l13.242-13.244V57.282h-0.029C53.043,52.631,59.182,43.278,59.182,32.476z"/>
		</g>
	</g>
	<g>
		<path fill="#FF0000" d="M91.979,50.326L79.65,66.546v0.26l19.595-2.596v8.825L79.65,70.699v0.259l12.458,15.573l-8.176,4.671
			l-7.786-18.167h-0.259l-8.435,18.298l-7.398-4.672l12.329-15.832V70.57l-19.205,2.465V64.21l19.076,2.466v-0.258l-12.2-15.833
			l7.917-4.542l8.044,18.04h0.261l7.915-18.169L91.979,50.326z"/>
	</g>
</g>
<g id="Calque_2_2_">
	<path fill="none" stroke="#FF0000" stroke-width="5" stroke-linecap="round" stroke-miterlimit="10" d="M63.731,119.629
		c0.848-0.101,1.697-0.223,2.551-0.362c4.692-0.797,9.136-2.192,13.271-4.078l12.488,9.622c3.232-2.079,6.251-4.423,9.066-6.987
		l-5.3-14.156c4.018-4.18,7.33-8.997,9.811-14.243l14.403-0.602c1.231-3.672,2.148-7.471,2.744-11.358l-12.179-6.884
		c0.308-4.193,0.129-8.492-0.604-12.823c-0.304-1.808-0.701-3.58-1.176-5.31l10.377-9.468c-1.349-3.609-2.977-7.052-4.866-10.315
		l-13.826,2.568c-3.73-5.106-8.325-9.485-13.533-12.957l1.98-14.804c-3.1-1.772-6.348-3.295-9.704-4.568l-9.712,11.794"/>
</g>
</svg>
