<?xml version="1.0" encoding="utf-8"?>
<!-- Generator: Adobe Illustrator 16.0.0, SVG Export Plug-In . SVG Version: 6.00 Build 0)  -->
<!DOCTYPE svg PUBLIC "-//W3C//DTD SVG 1.1//EN" "http://www.w3.org/Graphics/SVG/1.1/DTD/svg11.dtd">
<svg version="1.1" xmlns="http://www.w3.org/2000/svg" xmlns:xlink="http://www.w3.org/1999/xlink" x="0px" y="0px" width="128px"
	 height="128px" viewBox="0 0 128 128" enable-background="new 0 0 128 128" xml:space="preserve">
<g id="Calque_1">
	
		<line fill="none" stroke="#FF0000" stroke-width="5" stroke-linecap="round" stroke-linejoin="round" stroke-miterlimit="10" x1="3.221" y1="125.354" x2="125.028" y2="125.354"/>
	
		<polyline fill="none" stroke="#FF0000" stroke-width="5" stroke-linecap="round" stroke-linejoin="round" stroke-miterlimit="10" points="
		28.898,71 28.898,115.45 4.537,115.45 4.537,88.5 	"/>
	
		<polyline fill="none" stroke="#FF0000" stroke-width="5" stroke-linecap="round" stroke-linejoin="round" stroke-miterlimit="10" points="
		60.501,84 60.501,115.45 36.141,115.45 36.141,74.5 	"/>
	
		<rect x="67.744" y="60.183" fill="none" stroke="#FF0000" stroke-width="5" stroke-linecap="round" stroke-linejoin="round" stroke-miterlimit="10" width="24.363" height="55.268"/>
	
		<rect x="99.349" y="38.583" fill="none" stroke="#FF0000" stroke-width="5" stroke-linecap="round" stroke-linejoin="round" stroke-miterlimit="10" width="24.361" height="76.867"/>
	
		<circle fill="none" stroke="#FF0000" stroke-width="5" stroke-linecap="round" stroke-linejoin="round" stroke-miterlimit="10" cx="79.926" cy="37.807" r="6.255"/>
	
		<circle fill="none" stroke="#FF0000" stroke-width="5" stroke-linecap="round" stroke-linejoin="round" stroke-miterlimit="10" cx="111.53" cy="10.28" r="6.255"/>
	
		<line fill="none" stroke="#FF0000" stroke-width="5" stroke-linecap="round" stroke-linejoin="round" stroke-miterlimit="10" x1="84.622" y1="33.717" x2="106.816" y2="14.385"/>
	
		<line fill="none" stroke="#FF0000" stroke-width="5" stroke-linecap="round" stroke-linejoin="round" stroke-miterlimit="10" x1="64" y1="32.273" x2="74.027" y2="35.742"/>
</g>
<g id="Calque_2">
	<path fill="none" stroke="#FF0000" stroke-width="5" stroke-linecap="round" stroke-linejoin="round" stroke-miterlimit="10" d="
		M55.574,71.299c0,1.794-0.31,4.897-3.248,3.247c-2.938-1.651-22.598-20.155-22.598-20.155S8.504,73.887,6.861,74.546
		c-2.066,0.662-3.248-1.453-3.248-3.247V6.861c0-1.793,1.454-3.248,3.248-3.248h45.465c1.793,0,3.248,1.454,3.248,3.248V71.299z"/>
	<path fill="none" stroke="#FF0000" stroke-width="5" stroke-linecap="round" stroke-linejoin="round" stroke-miterlimit="10" d="
		M32.464,17.137l1.781,5.484c0.379,1.164,1.464,1.953,2.688,1.953H42.7c2.738,0,3.877,3.504,1.662,5.113l-4.665,3.389
		c-0.991,0.72-1.405,1.996-1.026,3.161l1.781,5.483c0.846,2.604-2.134,4.77-4.35,3.161l-4.665-3.389c-0.991-0.72-2.333-0.72-3.323,0
		L23.45,44.88c-2.215,1.608-5.195-0.558-4.35-3.161l1.782-5.483c0.378-1.165-0.037-2.441-1.027-3.161l-4.665-3.389
		c-2.215-1.609-1.077-5.113,1.661-5.113h5.766c1.225,0,2.311-0.789,2.688-1.953l1.782-5.484
		C27.934,14.533,31.618,14.533,32.464,17.137z"/>
</g>
</svg>
