<?xml version="1.0" encoding="utf-8"?>
<!-- Generator: Adobe Illustrator 16.0.0, SVG Export Plug-In . SVG Version: 6.00 Build 0)  -->
<!DOCTYPE svg PUBLIC "-//W3C//DTD SVG 1.1//EN" "http://www.w3.org/Graphics/SVG/1.1/DTD/svg11.dtd">
<svg version="1.1" xmlns="http://www.w3.org/2000/svg" xmlns:xlink="http://www.w3.org/1999/xlink" x="0px" y="0px" width="128px"
	 height="128px" viewBox="0 0 128 128" enable-background="new 0 0 128 128" xml:space="preserve">
<g id="Calque_1">
	<g>
		<g>
			<path fill="none" stroke="#FF0000" stroke-width="5" stroke-linecap="round" stroke-linejoin="round" stroke-miterlimit="10" d="
				M109.367,58.896c1.796-4.153,2.77-8.598,2.77-13.218c0-22.983-24.06-41.613-53.74-41.613c-29.678,0-53.739,18.63-53.739,41.613
				c0,12.18,6.76,23.135,17.531,30.744h-0.004v23.53l15.784-15.783c6.299,2.007,13.194,3.121,20.427,3.121
				c4.005,0,7.909-0.34,11.663-0.983"/>
		</g>
	</g>
	<g id="Calque_3">
		
			<line fill="none" stroke="#FF0000" stroke-width="5" stroke-linecap="round" stroke-linejoin="round" stroke-miterlimit="10" x1="21.991" y1="34.75" x2="48.364" y2="34.75"/>
		<path fill="none" stroke="#FF0000" stroke-width="5" stroke-linecap="round" stroke-linejoin="round" stroke-miterlimit="10" d="
			M27.481,34.75c0,0,0.835,13.248,16.824,18.378"/>
		<path fill="none" stroke="#FF0000" stroke-width="5" stroke-linecap="round" stroke-linejoin="round" stroke-miterlimit="10" d="
			M43.113,34.75c0,0-0.12,14.798-20.406,20.287"/>
		
			<line fill="none" stroke="#FF0000" stroke-width="5" stroke-linecap="round" stroke-linejoin="round" stroke-miterlimit="10" x1="35.178" y1="29.62" x2="37.504" y2="34.75"/>
	</g>
	<path fill="none" stroke="#FF0000" stroke-width="5" stroke-linecap="round" stroke-linejoin="round" stroke-miterlimit="10" d="
		M92.831,101.18c0,3.92-3.17,7.092-7.09,7.092c-0.62,0-1.22-0.08-1.79-0.229c0,0-0.93-0.341-2.521-0.819
		c-0.959-0.291-2.17-0.632-3.56-0.961v18.239h46.63V77.87h-17.721c0.352-1.261,0.66-2.28,0.891-2.989
		c0.229-0.701,0.37-1.09,0.37-1.09c0.149-0.57,0.229-1.171,0.229-1.791c0-3.92-3.17-7.09-7.09-7.09c-3.91,0-7.08,3.17-7.08,7.09
		c0,0.62,0.08,1.221,0.229,1.791c0,0,0.568,1.559,1.261,4.079h-17.72V96.1c3.66-0.879,6.08-1.771,6.08-1.771
		c0.57-0.149,1.17-0.229,1.789-0.229C89.661,94.1,92.831,97.271,92.831,101.18z"/>
	<g>
		<path fill="#FF0000" d="M74.788,39.693c0,1.032-0.181,2.04-0.542,3.024c-0.36,0.985-0.876,1.813-1.547,2.482
			c-0.918,0.908-1.941,1.593-3.07,2.058c-1.129,0.464-2.534,0.696-4.215,0.696h-3.697v7.502h-5.94V32.423h9.776
			c1.465,0,2.699,0.126,3.705,0.379c1.006,0.253,1.895,0.632,2.668,1.137c0.929,0.608,1.638,1.387,2.127,2.335
			C74.543,37.224,74.788,38.363,74.788,39.693z M68.646,39.826c0-0.648-0.175-1.206-0.525-1.674s-0.758-0.795-1.223-0.98
			c-0.618-0.247-1.222-0.383-1.81-0.409c-0.588-0.025-1.372-0.039-2.351-0.039h-1.021v6.883h1.702c1.01,0,1.843-0.062,2.499-0.185
			c0.654-0.124,1.203-0.371,1.647-0.741c0.381-0.329,0.657-0.723,0.827-1.181C68.562,41.042,68.646,40.484,68.646,39.826z"/>
		<path fill="#FF0000" d="M101.395,43.947c0,3.671-1.052,6.587-3.156,8.748c-2.104,2.161-5.012,3.241-8.724,3.241
			c-3.702,0-6.605-1.08-8.709-3.241c-2.104-2.16-3.155-5.076-3.155-8.748c0-3.702,1.052-6.628,3.155-8.778
			c2.104-2.15,5.007-3.225,8.709-3.225c3.691,0,6.595,1.075,8.709,3.225C100.337,37.319,101.395,40.245,101.395,43.947z
			 M93.521,49.779c0.577-0.701,1.006-1.529,1.284-2.483c0.278-0.954,0.418-2.075,0.418-3.364c0-1.382-0.16-2.558-0.479-3.527
			c-0.32-0.969-0.738-1.753-1.253-2.352c-0.526-0.619-1.133-1.067-1.818-1.346s-1.399-0.417-2.142-0.417
			c-0.753,0-1.462,0.134-2.127,0.402c-0.666,0.269-1.276,0.712-1.833,1.331c-0.517,0.578-0.937,1.375-1.261,2.39
			c-0.325,1.016-0.487,2.194-0.487,3.535c0,1.372,0.156,2.54,0.472,3.504c0.314,0.964,0.729,1.75,1.245,2.359
			s1.119,1.057,1.81,1.346c0.69,0.289,1.418,0.433,2.182,0.433c0.763,0,1.489-0.147,2.181-0.441
			C92.401,50.854,93.005,50.398,93.521,49.779z"/>
	</g>
</g>
<g id="Calque_2">
</g>
</svg>
