<?xml version="1.0" encoding="UTF-8" standalone="no"?>
<!DOCTYPE svg PUBLIC "-//W3C//DTD SVG 1.1//EN" "http://www.w3.org/Graphics/SVG/1.1/DTD/svg11.dtd">
<svg width="100%" height="100%" viewBox="0 0 128 128" version="1.1" xmlns="http://www.w3.org/2000/svg" xmlns:xlink="http://www.w3.org/1999/xlink" xml:space="preserve" xmlns:serif="http://www.serif.com/" style="fill-rule:evenodd;clip-rule:evenodd;stroke-linecap:round;stroke-linejoin:round;stroke-miterlimit:10;">
    <g id="Calque_3">
        <g>
            <path d="M56.654,55.605C56.654,56.183 56.185,56.654 55.605,56.654L5.548,56.654C4.969,56.654 4.5,56.183 4.5,55.605L4.5,5.548C4.5,4.969 4.969,4.5 5.548,4.5L55.606,4.5C56.186,4.5 56.655,4.969 56.655,5.548L56.654,55.605Z" style="fill:none;fill-rule:nonzero;stroke:rgb(255,0,0);stroke-width:5px;"/>
            <circle cx="16.424" cy="17.481" r="3.704" style="fill:rgb(255,0,0);"/>
            <path d="M24.219,17.481L46.23,17.481" style="fill:none;fill-rule:nonzero;stroke:rgb(255,0,0);stroke-width:4px;stroke-linecap:butt;stroke-linejoin:miter;"/>
            <circle cx="16.424" cy="30.577" r="3.704" style="fill:rgb(255,0,0);"/>
            <path d="M24.219,30.578L46.23,30.578" style="fill:none;fill-rule:nonzero;stroke:rgb(255,0,0);stroke-width:4px;stroke-linecap:butt;stroke-linejoin:miter;"/>
            <circle cx="16.424" cy="43.673" r="3.704" style="fill:rgb(255,0,0);"/>
            <path d="M24.219,43.672L46.23,43.672" style="fill:none;fill-rule:nonzero;stroke:rgb(255,0,0);stroke-width:4px;stroke-linecap:butt;stroke-linejoin:miter;"/>
        </g>
    </g>
    <path d="M64.522,31.306L76.939,26.318L86.612,50.402L62.529,60.075" style="fill:none;fill-rule:nonzero;stroke:rgb(255,0,0);stroke-width:5px;"/>
    <g transform="matrix(-0.9279,0.3728,-0.3728,-0.9279,201.186,113.068)">
        <rect x="70.616" y="57.931" width="38.089" height="36.113" style="fill:none;stroke:rgb(255,0,0);stroke-width:5px;"/>
    </g>
    <path d="M89.772,111.379L124.752,97.473" style="fill:none;fill-rule:nonzero;stroke:rgb(255,0,0);stroke-width:5px;"/>
    <path d="M54.894,62.696L70.965,101.591" style="fill:none;fill-rule:nonzero;stroke:rgb(255,0,0);stroke-width:5px;"/>
    <path d="M83.876,115.105C83.876,119.85 80.028,123.691 75.289,123.691C70.546,123.691 66.702,119.85 66.702,115.105C66.702,110.366 70.546,106.52 75.289,106.52C80.028,106.521 83.876,110.366 83.876,115.105Z" style="fill:none;fill-rule:nonzero;stroke:rgb(255,0,0);stroke-width:5px;stroke-linecap:butt;stroke-linejoin:miter;"/>
    <path d="M62.302,48.025L67.778,45.983L69.375,50.264L77.524,40.393L64.9,38.267L66.497,42.547L61.022,44.587L62.302,48.025Z" style="fill:rgb(255,0,0);fill-rule:nonzero;"/>
</svg>
