<?xml version="1.0" encoding="utf-8"?>
<!-- Generator: Adobe Illustrator 16.0.0, SVG Export Plug-In . SVG Version: 6.00 Build 0)  -->
<!DOCTYPE svg PUBLIC "-//W3C//DTD SVG 1.1//EN" "http://www.w3.org/Graphics/SVG/1.1/DTD/svg11.dtd">
<svg version="1.1" xmlns="http://www.w3.org/2000/svg" xmlns:xlink="http://www.w3.org/1999/xlink" x="0px" y="0px" width="128px"
	 height="128px" viewBox="0 0 128 128" enable-background="new 0 0 128 128" xml:space="preserve">
<g id="Calque_3">
	<g>
		<path fill="none" stroke="#FF0000" stroke-width="5" stroke-miterlimit="10" d="M61.5,53.28v6.433V53.28 M22.233,53.28
			c-1.843,2.387-3.643,5.063-5.364,8.085c-17.667,31-6,53,0,57.667s9.667,5.333,18.333,5.333s60.666,0,60.666,0
			s10.001-0.667,17.334-8s14.333-32.666-6.667-58.333c-12.233-14.952-24.35-20.334-33.26-22.264 M54.33,79.43h14.347
			c5.443,0,9.858,4.411,9.858,9.854c0,5.445-4.415,9.857-9.858,9.857H61.5v9.195v-9.195h-7.17c-5.449,0-9.86-4.412-9.86-9.857
			c0,5.445,4.411,9.857,9.86,9.857h7.17h7.177c5.443,0,9.858-4.412,9.858-9.857c0-5.442-4.415-9.854-9.858-9.854H54.33
			c-5.449,0-9.86-4.412-9.86-9.859c0-5.444,4.411-9.856,9.86-9.856h14.347c5.443,0,9.858,4.412,9.858,9.856
			c0-5.444-4.415-9.856-9.858-9.856H54.33c-5.449,0-9.86,4.412-9.86,9.856C44.47,75.018,48.881,79.43,54.33,79.43z"/>
		<path fill="none" stroke="#FF0000" stroke-width="5" stroke-linecap="round" stroke-linejoin="round" stroke-miterlimit="10" d="
			M73.275,34.678C90.468,12.457,87.517,9.305,86.202,5.032c-0.722-2.347-6.92-1.368-12.927,0.233"/>
		<path fill="#FF0000" stroke="#FF0000" stroke-width="2" stroke-miterlimit="10" d="M73.275,35.769v-1.091
			c-0.242,0.313-0.474,0.616-0.725,0.938C72.789,35.663,73.032,35.716,73.275,35.769z"/>
	</g>
</g>
<g id="Calque_2">
	<path fill="#FF0000" stroke="#FF0000" stroke-width="2" stroke-miterlimit="10" d="M59.517,32.518
		c-1.719,0-3.325,0.477-4.707,1.292L42.205,18.72c1.613-1.668,2.611-3.934,2.611-6.443C44.816,7.15,40.66,3,35.536,3
		c-5.124,0-9.277,4.15-9.28,9.277h0.003c0,2.503,0.989,4.765,2.596,6.434L16.253,33.803c-1.378-0.813-2.979-1.286-4.697-1.286
		c-5.127,0-9.283,4.153-9.283,9.28c0,5.125,4.156,9.279,9.283,9.279c5.126,0,9.28-4.152,9.28-9.279c0-2.5-0.995-4.77-2.602-6.438
		l12.599-15.093c1.038,0.612,2.203,1.026,3.449,1.193v11.149c-4.53,0.615-8.022,4.487-8.025,9.188h0.003
		c0,5.125,4.153,9.279,9.277,9.279c5.126,0,9.28-4.152,9.28-9.279c0-4.697-3.492-8.569-8.022-9.188V21.461
		c1.24-0.167,2.401-0.581,3.433-1.187l12.607,15.093c-1.606,1.669-2.602,3.931-2.602,6.435c0,5.123,4.159,9.277,9.283,9.277
		c5.125,0,9.28-4.154,9.28-9.277C68.797,36.67,64.641,32.518,59.517,32.518z M28.772,12.277c0.006-3.739,3.032-6.759,6.765-6.765
		c3.736,0.006,6.755,3.025,6.765,6.765c-0.01,3.736-3.032,6.761-6.765,6.764c-3.733-0.003-6.758-3.028-6.768-6.764H28.772z
		 M11.556,48.562c-3.736-0.006-6.755-3.028-6.768-6.765c0.013-3.735,3.032-6.758,6.768-6.768c3.739,0.01,6.761,3.031,6.768,6.768
		C18.317,45.534,15.295,48.556,11.556,48.562z M42.3,41.797c-0.008,3.736-3.031,6.759-6.764,6.765
		c-3.733-0.006-6.758-3.028-6.768-6.765h0.003c0.006-3.735,3.032-6.762,6.765-6.771C39.269,35.036,42.292,38.062,42.3,41.797z
		 M59.517,48.562c-3.736-0.006-6.762-3.028-6.768-6.761c0.006-3.739,3.03-6.766,6.768-6.769c3.736,0.003,6.754,3.028,6.768,6.769
		C66.271,45.534,63.253,48.556,59.517,48.562z"/>
</g>
</svg>
