<?xml version="1.0" encoding="utf-8"?>
<!-- Generator: Adobe Illustrator 16.0.0, SVG Export Plug-In . SVG Version: 6.00 Build 0)  -->
<!DOCTYPE svg PUBLIC "-//W3C//DTD SVG 1.1//EN" "http://www.w3.org/Graphics/SVG/1.1/DTD/svg11.dtd">
<svg version="1.1"
	 id="Layer_1" xmlns:cc="http://creativecommons.org/ns#" xmlns:dc="http://purl.org/dc/elements/1.1/" xmlns:inkscape="http://www.inkscape.org/namespaces/inkscape" xmlns:rdf="http://www.w3.org/1999/02/22-rdf-syntax-ns#" xmlns:sodipodi="http://sodipodi.sourceforge.net/DTD/sodipodi-0.dtd" xmlns:svg="http://www.w3.org/2000/svg" sodipodi:docname="iconTicket.svg" inkscape:version="1.0 (4035a4fb49, 2020-05-01)"
	 xmlns="http://www.w3.org/2000/svg" xmlns:xlink="http://www.w3.org/1999/xlink" x="0px" y="0px" width="128px" height="128px"
	 viewBox="-40 -40 128 128" enable-background="new -40 -40 128 128" xml:space="preserve">
<sodipodi:namedview  gridtolerance="10" inkscape:cy="24.881783" pagecolor="#ffffff" inkscape:cx="22.296444" showgrid="false" borderopacity="1" objecttolerance="10" guidetolerance="10" bordercolor="#666666" inkscape:zoom="14.75" id="namedview27" inkscape:current-layer="Layer_1" inkscape:window-maximized="1" inkscape:window-height="1017" inkscape:pageopacity="0" inkscape:window-y="-8" inkscape:window-x="-8" inkscape:pageshadow="2" inkscape:window-width="1920" inkscape:document-rotation="0" inkscape:snap-global="false">
	</sodipodi:namedview>
<path fill="none" stroke="#FF0000" stroke-width="5" stroke-linecap="round" stroke-linejoin="round" stroke-miterlimit="10" d="
	M11.964,8.751l2.47,7.598c0.254,0.784,0.987,1.316,1.812,1.316h7.989c1.844,0,2.611,2.361,1.119,3.442l-6.462,4.697
	c-0.669,0.484-0.947,1.346-0.692,2.13l2.469,7.597c0.57,1.752-1.438,3.208-2.929,2.127l-6.463-4.693
	c-0.668-0.483-1.57-0.483-2.236,0l-6.461,4.693c-1.494,1.081-3.502-0.375-2.933-2.127l2.47-7.597
	c0.254-0.784-0.024-1.644-0.692-2.13l-6.463-4.697c-1.493-1.082-0.725-3.442,1.119-3.442h7.99c0.824,0,1.554-0.532,1.811-1.316
	l2.47-7.598C8.914,6.998,11.397,6.998,11.964,8.751z"/>
<g id="Calque_3">
	<path fill="none" stroke="#FF0000" stroke-width="5" stroke-linecap="round" stroke-linejoin="round" stroke-miterlimit="10" d="
		M-36.516-9.267v20.935c0,0,12.938-1.718,12.938,14.909c0,13.929-12.938,13.929-12.938,13.929v16.763H85.289V40.505
		c0,0-13.762-0.736-13.762-13.929c0-13.192,13.762-14.909,13.762-14.909V-9.267H-36.516z"/>
	<g>
		<g>
			
				<line fill="none" stroke="#FF0000" stroke-width="5" stroke-linecap="round" stroke-linejoin="round" stroke-dasharray="5,10" x1="47.693" y1="-9.267" x2="47.693" y2="57.265"/>
		</g>
	</g>
</g>
</svg>
