<?xml version="1.0" encoding="utf-8"?>
<!-- Generator: Adobe Illustrator 16.0.0, SVG Export Plug-In . SVG Version: 6.00 Build 0)  -->
<!DOCTYPE svg PUBLIC "-//W3C//DTD SVG 1.1//EN" "http://www.w3.org/Graphics/SVG/1.1/DTD/svg11.dtd">
<svg version="1.1" id="Calque_1" xmlns="http://www.w3.org/2000/svg" xmlns:xlink="http://www.w3.org/1999/xlink" x="0px" y="0px"
	 width="128px" height="128px" viewBox="0 0 128 128" enable-background="new 0 0 128 128" xml:space="preserve">
<g id="Calque_1_3_" display="none">
	<g id="Calque_1_2_" display="inline">
		<g id="Calque_1_1_" display="none">
		</g>
		<line fill="none" stroke="#FF0000" stroke-width="11" stroke-miterlimit="10" x1="5.1" y1="23.43" x2="58.226" y2="23.43"/>
		<polygon fill="#FF0000" points="59.673,98.5 5.1,98.5 5.1,87.5 49.771,87.5 49.771,93.469 57.501,94.107 		"/>
		<line fill="none" stroke="#FF0000" stroke-width="11" stroke-miterlimit="10" x1="58.226" y1="35.064" x2="86.372" y2="35.064"/>
		<line fill="none" stroke="#FF0000" stroke-width="11" stroke-miterlimit="10" x1="14.986" y1="49.512" x2="42.757" y2="49.512"/>
		<polygon fill="#FF0000" points="57.127,68.146 42.757,68.146 42.757,57.147 65.837,57.147 56.636,65.693 		"/>
		<path fill="none" stroke="#FF0000" stroke-width="5" stroke-linecap="round" stroke-linejoin="round" stroke-miterlimit="10" d="
			M56.148,111.904l-45.126,0.003c-3.316,0-6.004-2.915-6.004-6.509V15.383c0-3.594,2.688-6.507,6.004-6.507h107.083
			c3.317,0,6.006,2.914,6.006,6.507v90.016c0,3.596-2.16,6.479-5.479,6.479l-3.063,0.001"/>
	</g>
</g>
<g id="Calque_3">
	<g id="Calque_1_4_" xmlns:serif="http://www.serif.com/">
		<g id="path17">
			<path fill="none" stroke="#FF0000" stroke-width="5" stroke-linecap="round" stroke-linejoin="round" stroke-miterlimit="10" d="
				M83.92,43.895l8.003,0.633c0.05,0.039,0.104,0.095,0.153,0.149l-0.149,3.018l-0.192,3.879l-0.125,2.544l2.393,0.877l0.891,0.324
				c1.654,0.608,4.154,1.847,5.812,2.88l0.688,0.431l2.198,1.375l1.938-1.724l2.824-2.512c1.125-0.999,1.933-1.677,2.389-2.042
				c0.592,0.562,1.962,2.094,3.764,4.114L114.648,58c1.742,1.952,3.066,3.436,3.572,4.114c-0.449,0.477-1.49,1.406-2.285,2.117
				c-3.601,3.22-3.814,3.414-3.901,4.917c-0.052,0.889,0.114,1.274,1.03,3.429c0.771,1.8,1.215,3.099,1.645,4.794l0.305,1.206
				l0.616,2.44l2.515,0.164l3.871,0.258l3.014,0.195c0.031,0.041,0.066,0.084,0.097,0.123c-0.002,0.645-0.097,2.361-0.251,5.196
				l-0.061,1.078c-0.148,2.586-0.268,4.247-0.318,4.797c-0.023,0.046-0.064,0.101-0.107,0.139l-3.037-0.149l-3.879-0.19
				l-2.543-0.125l-0.879,2.392l-0.326,0.895c-0.594,1.617-1.759,3.979-2.836,5.732l-0.484,0.791l-1.344,2.191l1.705,1.92l2.51,2.827
				c0.996,1.123,1.679,1.933,2.043,2.386c-0.584,0.627-2.26,2.116-4.164,3.809l-0.135,0.119c-1.937,1.725-3.416,3.037-4.096,3.543
				c-0.479-0.453-1.418-1.502-2.135-2.303l-2.479-2.771l-1.66-1.854l-2.287,0.979l-1.741,0.747c-1.776,0.76-3.246,1.264-4.917,1.685
				l-1.24,0.313l-2.443,0.615l-0.166,2.517l-0.254,3.875l-0.197,3.01c-0.053,0.048-0.116,0.097-0.168,0.13l-11.004-0.634
				c-0.049-0.038-0.104-0.094-0.151-0.146l0.149-3.017l0.189-3.875l0.125-2.528l-2.372-0.888l-1.042-0.391
				c-1.462-0.546-3.59-1.57-4.943-2.38l-1.414-0.848l-2.176-1.302l-1.897,1.677l-2.813,2.483c-0.873,0.771-1.929,1.703-2.439,2.075
				l-0.037-0.002c-0.592-0.555-1.882-2.016-3.581-3.938l-0.173-0.197c-1.755-1.986-3.192-3.613-3.711-4.328
				c0.451-0.479,1.487-1.402,2.277-2.109c3.157-2.822,3.814-3.411,3.905-5c0.044-0.77-0.147-1.542-0.54-2.201
				c-0.08-0.171-0.265-0.572-0.52-1.165c-0.644-1.499-1.215-3.18-1.608-4.739l-0.313-1.238l-0.617-2.443l-2.515-0.165l-3.871-0.256
				l-3.018-0.198c-0.046-0.05-0.093-0.109-0.122-0.156v-3.168"/>
		</g>
		<path id="path19_1_" fill="none" stroke="#FF0000" stroke-width="5" stroke-linecap="round" stroke-miterlimit="10" d="
			M89.102,69.439c4.267,1.527,7.664,4.645,9.564,8.771c0.468,1.019,1.193,3.423,1.318,4.386c0.129,0.952,0.178,2.776,0.1,3.717
			c-0.494,6.049-4.148,11.244-9.744,13.844c-1.55,0.721-4.127,1.346-5.838,1.421c-6.968,0.292-13.107-3.447-16.055-9.778
			c-0.715-1.533-1.34-4.117-1.416-5.828"/>
	</g>
</g>
<line id="line31" fill="none" stroke="#FF0000" stroke-width="12" stroke-miterlimit="10" x1="15.496" y1="18.551" x2="35.646" y2="18.551"/>
<line id="line33" fill="none" stroke="#FF0000" stroke-width="12" stroke-miterlimit="10" x1="34.856" y1="61.884" x2="58.429" y2="61.884"/>
<line id="line37" fill="none" stroke="#FF0000" stroke-width="12" stroke-miterlimit="10" x1="35.63" y1="37.936" x2="64.094" y2="37.936"/>
<path id="path2790" fill="none" stroke="#FF0000" d="M35.405,12.884l-0.043,54.335"/>
<rect x="2.538" y="2.945" fill="none" stroke="#FF0000" stroke-width="5" stroke-miterlimit="10" width="74.212" height="74.213"/>
</svg>
