<?xml version="1.0" encoding="utf-8"?>
<!-- Generator: Adobe Illustrator 16.0.0, SVG Export Plug-In . SVG Version: 6.00 Build 0)  -->
<!DOCTYPE svg PUBLIC "-//W3C//DTD SVG 1.1//EN" "http://www.w3.org/Graphics/SVG/1.1/DTD/svg11.dtd">
<svg version="1.1" xmlns="http://www.w3.org/2000/svg" xmlns:xlink="http://www.w3.org/1999/xlink" x="0px" y="0px" width="128px"
	 height="128px" viewBox="0 0 128 128" enable-background="new 0 0 128 128" xml:space="preserve">
<g id="Calque_2">
	<g>
		<g>
			<g>
				
					<path fill="none" stroke="#FF0000" stroke-width="5" stroke-linecap="round" stroke-linejoin="round" stroke-miterlimit="10" d="
					M69.188,38.228"/>
				
					<path fill="none" stroke="#FF0000" stroke-width="5" stroke-linecap="round" stroke-linejoin="round" stroke-miterlimit="10" d="
					M69.503,56.61"/>
			</g>
		</g>
	</g>
	<path fill="none" stroke="#FF0000" stroke-width="5" stroke-miterlimit="10" d="M63.517,28.596h54.538
		c3.74,0,6.773,3.28,6.773,7.325v65.756h0.002v0.001c0,4.047-3.035,7.325-6.775,7.325H11.945c-3.743,0-6.775-3.281-6.775-7.325V64"
		/>
	<g>
		<path fill="none" stroke="#FF0000" stroke-width="5" stroke-miterlimit="10" d="M86.734,68.148
			c2.346,1.61,5.201,2.559,8.281,2.559c7.984,0,14.455-6.343,14.455-14.168c0-7.824-6.471-14.167-14.455-14.167
			c-3.08,0-5.937,0.948-8.281,2.558"/>
		<path fill="none" stroke="#FF0000" stroke-width="5" stroke-miterlimit="10" d="M80.563,56.539c0-4.804,2.439-9.047,6.172-11.608
			c-2.346-1.611-5.2-2.558-8.281-2.558c-7.982,0-14.455,6.343-14.455,14.167s6.473,14.167,14.455,14.167
			c3.081,0,5.938-0.946,8.281-2.557C83.004,65.586,80.563,61.343,80.563,56.539z"/>
		<path fill="none" stroke="#FF0000" stroke-width="5" stroke-miterlimit="10" d="M86.734,44.931
			c-3.73,2.561-6.174,6.804-6.174,11.608c0,4.804,2.442,9.047,6.174,11.609"/>
	</g>
	<path fill="#FF0000" d="M51.652,96.857c0,0.91-1.011,1.648-2.258,1.648H29.617c-1.246,0-2.258-0.738-2.258-1.648v-3.301
		c0-0.91,1.013-1.65,2.258-1.65h19.777c1.248,0,2.258,0.74,2.258,1.65V96.857z"/>
	<path fill="#FF0000" d="M80.563,96.857c0,0.91-1.013,1.648-2.261,1.648H58.527c-1.247,0-2.26-0.738-2.26-1.648v-3.301
		c0-0.91,1.013-1.65,2.26-1.65h19.778c1.246,0,2.258,0.74,2.258,1.65V96.857L80.563,96.857z"/>
	<path fill="#FF0000" d="M109.471,96.857c0,0.91-1.011,1.648-2.26,1.648H87.436c-1.246,0-2.258-0.738-2.258-1.648v-3.301
		c0-0.91,1.012-1.65,2.258-1.65h19.777c1.247,0,2.26,0.74,2.26,1.65L109.471,96.857L109.471,96.857z"/>
	<g>
		<path fill="none" stroke="#FF0000" stroke-width="4" stroke-linecap="round" stroke-linejoin="round" stroke-miterlimit="10" d="
			M29.234,61.871"/>
		<path fill="none" stroke="#FF0000" stroke-width="4" stroke-linecap="round" stroke-linejoin="round" stroke-miterlimit="10" d="
			M29.234,41.176"/>
	</g>
</g>
<g id="Calque_3_1_">
	<g id="Calque_3">
		<g>
			<path fill="none" stroke="#FF0000" stroke-width="5" stroke-linecap="round" stroke-linejoin="round" stroke-miterlimit="10" d="
				M56.654,55.605c0,0.578-0.469,1.049-1.049,1.049H5.548c-0.579,0-1.048-0.471-1.048-1.049V5.548C4.5,4.969,4.969,4.5,5.548,4.5
				h50.058c0.58,0,1.049,0.469,1.049,1.048L56.654,55.605L56.654,55.605z"/>
			<circle fill="#FF0000" cx="16.424" cy="17.481" r="3.704"/>
			<line fill="none" stroke="#FF0000" stroke-width="4" stroke-miterlimit="10" x1="24.219" y1="17.48" x2="46.23" y2="17.48"/>
			<circle fill="#FF0000" cx="16.424" cy="30.577" r="3.704"/>
			<line fill="none" stroke="#FF0000" stroke-width="4" stroke-miterlimit="10" x1="24.219" y1="30.578" x2="46.23" y2="30.578"/>
			<circle fill="#FF0000" cx="16.424" cy="43.673" r="3.704"/>
			<line fill="none" stroke="#FF0000" stroke-width="4" stroke-miterlimit="10" x1="24.219" y1="43.672" x2="46.23" y2="43.672"/>
		</g>
	</g>
</g>
</svg>
