<?xml version="1.0" encoding="utf-8"?>
<!-- Generator: Adobe Illustrator 16.0.0, SVG Export Plug-In . SVG Version: 6.00 Build 0)  -->
<!DOCTYPE svg PUBLIC "-//W3C//DTD SVG 1.1//EN" "http://www.w3.org/Graphics/SVG/1.1/DTD/svg11.dtd">
<svg version="1.1" id="Calque_1" xmlns="http://www.w3.org/2000/svg" xmlns:xlink="http://www.w3.org/1999/xlink" x="0px" y="0px"
	 width="128px" height="128px" viewBox="0 0 128 128" enable-background="new 0 0 128 128" xml:space="preserve">
<g id="Calque_2" display="none">
</g>
<g>
	
		<circle fill="none" stroke="#FF0000" stroke-width="5" stroke-linecap="round" stroke-linejoin="round" stroke-miterlimit="10" cx="32.143" cy="23.468" r="9.008"/>
	<path fill="none" stroke="#FF0000" stroke-width="5" stroke-linecap="round" stroke-linejoin="round" stroke-miterlimit="10" d="
		M60.093,32.267c0-15.437-12.513-27.951-27.949-27.951c-15.438,0-27.951,12.515-27.951,27.951c0,10.863,6.21,20.257,15.264,24.883
		v9.273l7.923,7.922l-8.526,8.529l7.166,7.165l-6.523,6.523l7.014,7.013l-7.217,7.217l12.475,12.476l13.242-13.244V57.074h-0.028
		C53.954,52.423,60.093,43.07,60.093,32.267z"/>
</g>
<g>
	
		<line fill="none" stroke="#FF0000" stroke-width="5" stroke-linecap="round" stroke-linejoin="round" stroke-miterlimit="10" x1="44.504" y1="122.892" x2="123.725" y2="122.892"/>
	
		<line fill="none" stroke="#FF0000" stroke-width="5" stroke-linecap="round" stroke-linejoin="round" stroke-miterlimit="10" x1="7.083" y1="122.892" x2="20.914" y2="122.892"/>
	
		<polyline fill="none" stroke="#FF0000" stroke-width="5" stroke-linecap="round" stroke-linejoin="round" stroke-miterlimit="10" points="
		16.116,116.28 8.343,116.28 8.343,76.208 16.716,76.208 	"/>
	
		<polyline fill="none" stroke="#FF0000" stroke-width="5" stroke-linecap="round" stroke-linejoin="round" stroke-miterlimit="10" points="
		57.898,53.428 61.935,53.428 61.935,116.28 49.102,116.28 	"/>
	
		<rect x="68.87" y="63.357" fill="none" stroke="#FF0000" stroke-width="5" stroke-linecap="round" stroke-linejoin="round" stroke-miterlimit="10" width="23.33" height="52.923"/>
	
		<rect x="99.135" y="42.674" fill="none" stroke="#FF0000" stroke-width="5" stroke-linecap="round" stroke-linejoin="round" stroke-miterlimit="10" width="23.328" height="73.606"/>
	
		<circle fill="none" stroke="#FF0000" stroke-width="5" stroke-linecap="round" stroke-linejoin="round" stroke-miterlimit="10" cx="80.535" cy="41.93" r="5.989"/>
	
		<circle fill="none" stroke="#FF0000" stroke-width="5" stroke-linecap="round" stroke-linejoin="round" stroke-miterlimit="10" cx="110.799" cy="15.571" r="5.99"/>
	
		<line fill="none" stroke="#FF0000" stroke-width="5" stroke-linecap="round" stroke-linejoin="round" stroke-miterlimit="10" x1="85.032" y1="38.014" x2="106.286" y2="19.502"/>
	
		<line fill="none" stroke="#FF0000" stroke-width="5" stroke-linecap="round" stroke-linejoin="round" stroke-miterlimit="10" x1="66.457" y1="37" x2="74.888" y2="39.953"/>
</g>
</svg>
