<?xml version="1.0" encoding="utf-8"?>
<!-- Generator: Adobe Illustrator 16.0.0, SVG Export Plug-In . SVG Version: 6.00 Build 0)  -->
<!DOCTYPE svg PUBLIC "-//W3C//DTD SVG 1.1//EN" "http://www.w3.org/Graphics/SVG/1.1/DTD/svg11.dtd">
<svg version="1.1" id="Calque_1" xmlns="http://www.w3.org/2000/svg" xmlns:xlink="http://www.w3.org/1999/xlink" x="0px" y="0px"
	 width="128px" height="128px" viewBox="0 0 128 128" enable-background="new 0 0 128 128" xml:space="preserve">
<g id="Calque_3">
	<g>
		<g>
			<path fill="none" stroke="#FF0000" stroke-width="5" stroke-linecap="round" stroke-linejoin="round" stroke-miterlimit="10" d="
				M65.052,42.014c3.913,0.07,7.869,1.026,11.574,2.961l13.985-26.78c-8.278-4.322-17.138-6.381-25.872-6.401"/>
			<path fill="none" stroke="#FF0000" stroke-width="5" stroke-linecap="round" stroke-linejoin="round" stroke-miterlimit="10" d="
				M8.329,70.463c0.84,19.412,11.724,37.862,30.188,47.502L52.5,91.186c-8.548-4.465-13.59-13.002-13.982-21.99L8.329,70.463z"/>
			<path fill="none" stroke="#FF0000" stroke-width="5" stroke-linecap="round" stroke-linejoin="round" stroke-miterlimit="10" d="
				M94.745,115.59c8.077-5.123,14.957-12.375,19.703-21.462c4.747-9.09,6.765-18.882,6.348-28.44l-30.188,1.289
				c0.191,4.426-0.741,8.959-2.939,13.168c-2.197,4.209-5.384,7.568-9.123,9.94L94.745,115.59z"/>
		</g>
		<path fill="none" stroke="#FF0000" stroke-width="5" stroke-linecap="round" stroke-linejoin="round" stroke-miterlimit="10" d="
			M64.563,52.466c8.625,0,15.615,6.991,15.615,15.615s-6.99,15.614-15.615,15.614c-8.624,0-15.614-6.99-15.614-15.614"/>
	</g>
</g>
<g id="Calque_2_1_">
</g>
<g id="Calque_2_2_">
	<g id="Calque_3_1_">
		<g>
			<path fill="none" stroke="#FF0000" stroke-width="5" stroke-linecap="round" stroke-linejoin="round" stroke-miterlimit="10" d="
				M56.654,55.605c0,0.578-0.469,1.049-1.049,1.049H5.548c-0.579,0-1.048-0.471-1.048-1.049V5.548C4.5,4.969,4.969,4.5,5.548,4.5
				h50.058c0.58,0,1.049,0.469,1.049,1.048V55.605L56.654,55.605z"/>
			<circle fill="#FF0000" cx="16.424" cy="17.481" r="3.704"/>
			<line fill="none" stroke="#FF0000" stroke-width="4" stroke-miterlimit="10" x1="24.219" y1="17.481" x2="46.23" y2="17.481"/>
			<circle fill="#FF0000" cx="16.424" cy="30.577" r="3.704"/>
			<line fill="none" stroke="#FF0000" stroke-width="4" stroke-miterlimit="10" x1="24.219" y1="30.578" x2="46.23" y2="30.578"/>
			<circle fill="#FF0000" cx="16.424" cy="43.673" r="3.704"/>
			<line fill="none" stroke="#FF0000" stroke-width="4" stroke-miterlimit="10" x1="24.219" y1="43.672" x2="46.23" y2="43.672"/>
		</g>
	</g>
</g>
</svg>
