<?xml version="1.0" encoding="utf-8"?>
<!-- Generator: Adobe Illustrator 16.0.0, SVG Export Plug-In . SVG Version: 6.00 Build 0)  -->
<!DOCTYPE svg PUBLIC "-//W3C//DTD SVG 1.1//EN" "http://www.w3.org/Graphics/SVG/1.1/DTD/svg11.dtd">
<svg version="1.1" id="Calque_1" xmlns="http://www.w3.org/2000/svg" xmlns:xlink="http://www.w3.org/1999/xlink" x="0px" y="0px"
	 width="128px" height="128px" viewBox="0 0 128 128" enable-background="new 0 0 128 128" xml:space="preserve">
<g id="Calque_3">
	<g id="Calque_3_2_">
		
			<line fill="none" stroke="#FF0000" stroke-width="3" stroke-linecap="round" stroke-linejoin="round" stroke-miterlimit="10" x1="77.102" y1="68.427" x2="77.102" y2="91.193"/>
		<path fill="none" stroke="#FF0000" stroke-width="3" stroke-linecap="round" stroke-linejoin="round" stroke-miterlimit="10" d="
			M69.652,94.107v-5.681c0-0.448-0.361-0.813-0.81-0.813H50.662c-0.448,0-0.812,0.362-0.812,0.813v15.679
			c0,0.449,0.363,0.812,0.812,0.812h15.254C65.917,104.917,65.611,99.088,69.652,94.107z"/>
		
			<line fill="none" stroke="#FF0000" stroke-width="3" stroke-linecap="round" stroke-linejoin="round" stroke-miterlimit="10" x1="45.429" y1="109.611" x2="69.648" y2="109.611"/>
		<path fill="none" stroke="#FF0000" stroke-width="3" stroke-linecap="round" stroke-linejoin="round" stroke-miterlimit="10" d="
			M81.275,88.729h5.856l4.74-24.72h18.364l1.197,26.052h9.979v17.434h-1.863c0,0-0.731-6.454-7.538-6.454
			c-7.188,0-7.564,5.829-7.564,5.829h-9.463c0,0-0.053-1.835-0.053-4.299c0-2.063-1.464-11.703-11.979-11.703h-1.68v-2.139H81.275z"
			/>
		<circle fill="none" stroke="#FF0000" stroke-width="3" stroke-miterlimit="10" cx="81.564" cy="104.019" r="9.04"/>
		<circle fill="none" stroke="#FF0000" stroke-width="3" stroke-miterlimit="10" cx="111.543" cy="111.185" r="4.134"/>
	</g>
</g>
<g id="Calque_2">
	<line fill="none" stroke="#FF0000" stroke-width="5" stroke-miterlimit="10" x1="16.556" y1="18.417" x2="33.324" y2="18.417"/>
	<g>
		<path fill="none" stroke="#FF0000" stroke-width="5" stroke-linecap="round" stroke-miterlimit="10" d="M90.9,58.874v-29.02
			H71.805c-2.593,0-4.693-2.1-4.693-4.692V7.081H13.493c-2.591,0-4.692,2.102-4.692,4.692v105.075c0,2.592,2.101,4.691,4.692,4.691
			h57.749"/>
	</g>
	
		<line fill="none" stroke="#FF0000" stroke-width="5" stroke-linecap="round" stroke-linejoin="round" stroke-miterlimit="10" x1="68.682" y1="7.081" x2="90.9" y2="28.657"/>
	<g>
		<path fill="none" stroke="#FF0000" stroke-width="5" stroke-linecap="round" stroke-linejoin="round" stroke-miterlimit="10" d="
			M54.209,43.401c0-4.631-3.792-8.422-8.422-8.422H33.361c-4.633,0-8.421,3.792-8.421,8.422v4.966c0,4.634,3.789,8.422,8.421,8.422
			h12.425c4.63,0,8.421,3.791,8.421,8.425v4.963c0,4.638-3.792,8.425-8.421,8.425H33.361c-4.633,0-8.421-3.789-8.421-8.425"/>
		
			<line fill="none" stroke="#FF0000" stroke-width="5" stroke-linecap="round" stroke-linejoin="round" stroke-miterlimit="10" x1="39.573" y1="34.979" x2="39.573" y2="26.4"/>
		
			<line fill="none" stroke="#FF0000" stroke-width="5" stroke-linecap="round" stroke-linejoin="round" stroke-miterlimit="10" x1="39.573" y1="87.184" x2="39.573" y2="78.602"/>
	</g>
</g>
</svg>
