<?xml version="1.0" encoding="UTF-8" standalone="no"?>
<svg
   xmlns:dc="http://purl.org/dc/elements/1.1/"
   xmlns:cc="http://creativecommons.org/ns#"
   xmlns:rdf="http://www.w3.org/1999/02/22-rdf-syntax-ns#"
   xmlns:svg="http://www.w3.org/2000/svg"
   xmlns="http://www.w3.org/2000/svg"
   xmlns:sodipodi="http://sodipodi.sourceforge.net/DTD/sodipodi-0.dtd"
   xmlns:inkscape="http://www.inkscape.org/namespaces/inkscape"
   inkscape:version="1.0 (4035a4fb49, 2020-05-01)"
   sodipodi:docname="iconView.svg"
   xml:space="preserve"
   enable-background="new 0 0 128 128"
   viewBox="0 0 128 128"
   height="128px"
   width="128px"
   y="0px"
   x="0px"
   id="Calque_1"
   version="1.1"><metadata
   id="metadata24"><rdf:RDF><cc:Work
       rdf:about=""><dc:format>image/svg+xml</dc:format><dc:type
         rdf:resource="http://purl.org/dc/dcmitype/StillImage" /></cc:Work></rdf:RDF></metadata><defs
   id="defs22" /><sodipodi:namedview
   inkscape:current-layer="Calque_1"
   inkscape:window-maximized="1"
   inkscape:window-y="-8"
   inkscape:window-x="-8"
   inkscape:cy="64"
   inkscape:cx="64"
   inkscape:zoom="5.7421875"
   showgrid="false"
   id="namedview20"
   inkscape:window-height="1017"
   inkscape:window-width="1920"
   inkscape:pageshadow="2"
   inkscape:pageopacity="0"
   guidetolerance="10"
   gridtolerance="10"
   objecttolerance="10"
   borderopacity="1"
   bordercolor="#666666"
   pagecolor="#ffffff" />

<g
   style="stroke-width:0.61332"
   transform="matrix(1.5978976,0,0,1.6637049,-36.289585,-47.405627)"
   id="Calque_3">
	<g
   style="stroke-width:0.61332"
   id="g14">
		<g
   style="stroke-width:0.61332"
   id="g10">
			<path
   id="path8"
   d="m 63.026,45.101 c -16.104,0 -30.156,8.753 -37.683,21.756 7.527,13.002 21.578,21.758 37.683,21.758 16.104,0 30.156,-8.758 37.682,-21.76 C 93.182,53.854 79.13,45.101 63.026,45.101 Z m 12.035,33.795 c -3.08,3.082 -7.342,4.979 -12.034,4.979 -9.403,0 -17.018,-7.624 -17.018,-17.015 0,-7.093 4.339,-13.173 10.516,-15.727 1.995,-0.833 4.196,-1.294 6.502,-1.294 9.403,0 17.018,7.621 17.018,17.017 0,4.701 -1.902,8.953 -4.982,12.033"
   stroke-miterlimit="10"
   stroke-width="3.06661"
   stroke="#ff0000"
   fill="none" />
		</g>
		<circle
   style="stroke-width:0.480872"
   id="circle12"
   r="7.579"
   cy="66.860001"
   cx="63.025002"
   fill="#ff0000" />
	</g>
</g>

</svg>
