<?xml version="1.0" encoding="utf-8"?>
<!-- Generator: Adobe Illustrator 16.0.0, SVG Export Plug-In . SVG Version: 6.00 Build 0)  -->
<!DOCTYPE svg PUBLIC "-//W3C//DTD SVG 1.1//EN" "http://www.w3.org/Graphics/SVG/1.1/DTD/svg11.dtd">
<svg version="1.1" id="Calque_1" xmlns="http://www.w3.org/2000/svg" xmlns:xlink="http://www.w3.org/1999/xlink" x="0px" y="0px"
	 width="128px" height="128px" viewBox="0 0 128 128" enable-background="new 0 0 128 128" xml:space="preserve">
<g>
	<g>
		<path fill="none" stroke="#FF0000" stroke-width="5" stroke-linecap="round" stroke-linejoin="round" stroke-miterlimit="10" d="
			M90.809,42.204c0,0-14.256,15.833-31.544,9.927c-2.441-0.793-3.749-0.454-4.442,0.231c-0.684,0.694-1.024,2.002-0.232,4.441
			c5.908,17.292-9.927,31.547-9.927,31.547L12.946,56.634c0,0,14.255-15.834,31.546-9.927c2.439,0.791,3.749,0.452,4.442-0.231
			c0.685-0.694,1.024-2.003,0.23-4.442c-5.906-17.293,9.928-31.548,9.928-31.548L90.809,42.204z"/>
	</g>
</g>
<line fill="none" stroke="#FF0000" stroke-width="5" stroke-linecap="round" stroke-linejoin="round" stroke-miterlimit="10" x1="115.479" y1="25.867" x2="95.482" y2="83.154"/>
<line fill="none" stroke="#FF0000" stroke-width="5" stroke-linecap="round" stroke-linejoin="round" stroke-miterlimit="10" x1="28.432" y1="96.114" x2="71.055" y2="110.99"/>
<circle fill="none" stroke="#FF0000" stroke-width="5" stroke-miterlimit="10" cx="95.461" cy="108.464" r="16.848"/>
</svg>
