<?xml version="1.0" encoding="utf-8"?>
<!-- Generator: Adobe Illustrator 16.0.0, SVG Export Plug-In . SVG Version: 6.00 Build 0)  -->
<!DOCTYPE svg PUBLIC "-//W3C//DTD SVG 1.1//EN" "http://www.w3.org/Graphics/SVG/1.1/DTD/svg11.dtd">
<svg version="1.1" id="Calque_1" xmlns="http://www.w3.org/2000/svg" xmlns:xlink="http://www.w3.org/1999/xlink" x="0px" y="0px"
	 width="128px" height="128px" viewBox="0 0 128 128" enable-background="new 0 0 128 128" xml:space="preserve">
<g id="Calque_2">
</g>
<g>
	
		<circle fill="none" stroke="#FF0000" stroke-width="5" stroke-linecap="round" stroke-linejoin="round" stroke-miterlimit="10" cx="48.363" cy="47.017" r="43.06"/>
	
		<line fill="none" stroke="#FF0000" stroke-width="5" stroke-linecap="round" stroke-linejoin="round" stroke-miterlimit="10" x1="78.813" y1="77.466" x2="122.697" y2="121.352"/>
</g>
<g id="Calque_4">
</g>
<g id="Calque_2_1_">
</g>
<path fill="none" stroke="#FF0000" stroke-width="5" stroke-miterlimit="10" d="M99.088,152.741"/>
<path fill="none" stroke="#FF0000" stroke-width="5" stroke-miterlimit="10" d="M99.088,152.741"/>
<g>
	<path fill="none" stroke="#FF0000" stroke-width="5" stroke-linecap="round" stroke-linejoin="round" stroke-miterlimit="10" d="
		M46.101,25.835c0,0-3.979,0.354-6.101,2.074c0,0-4.245-5.586-13.795-3.525l5.04,8.43c0,0-4.51,4.509-5.04,8.753h-2.719
		c0,0-1.99-0.266-1.99,2.587c0,2.851,0,8.291,0,8.291s-0.265,1.259,1.99,1.259c2.255,0,2.918,0,2.918,0s2.255,5.306,8.356,7.429
		l-1.99,7.294c0,0-0.198,1.658,1.99,1.658c2.188,0,7.029,0,7.029,0s0.73,0.2,1.26-1.789c0.531-1.991,0.862-3.98,0.862-3.98
		s7.561,1.393,12.999,0.266l0.862,3.912c0,0,0.212,1.603,1.798,1.596c1.584-0.005,7.154,0,7.154,0s1.593,0.393,0.996-2.657
		c-0.599-3.051-1.658-6.963-1.658-6.963s10.242-4.962,9.086-17.11C72.706,17.711,46.101,25.835,46.101,25.835z"/>
</g>
</svg>
