<?xml version="1.0" encoding="utf-8"?>
<!-- Generator: Adobe Illustrator 16.0.0, SVG Export Plug-In . SVG Version: 6.00 Build 0)  -->
<!DOCTYPE svg PUBLIC "-//W3C//DTD SVG 1.1//EN" "http://www.w3.org/Graphics/SVG/1.1/DTD/svg11.dtd">
<svg version="1.1" xmlns="http://www.w3.org/2000/svg" xmlns:xlink="http://www.w3.org/1999/xlink" x="0px" y="0px" width="128px"
	 height="128px" viewBox="0 0 128 128" enable-background="new 0 0 128 128" xml:space="preserve">
<g id="Calque_2" display="none">
	
		<image display="inline" overflow="visible" width="600" height="620" xlink:href="4B6E2FEC.jpg"  transform="matrix(0.3654 -0.3654 0.3654 0.3654 -153.2754 60.0884)">
	</image>
</g>
<g id="Livello_1" inkscape:version="1.0 (4035a4fb49, 2020-05-01)" sodipodi:docname="iconHome.svg" xmlns:cc="http://creativecommons.org/ns#" xmlns:dc="http://purl.org/dc/elements/1.1/" xmlns:inkscape="http://www.inkscape.org/namespaces/inkscape" xmlns:rdf="http://www.w3.org/1999/02/22-rdf-syntax-ns#" xmlns:sodipodi="http://sodipodi.sourceforge.net/DTD/sodipodi-0.dtd" xmlns:svg="http://www.w3.org/2000/svg">
	
		<sodipodi:namedview  id="namedview7" inkscape:window-width="1519" inkscape:pageshadow="2" inkscape:window-x="0" inkscape:window-y="0" inkscape:pageopacity="0" inkscape:window-height="845" inkscape:window-maximized="0" inkscape:current-layer="Livello_1" inkscape:zoom="2.8710938" bordercolor="#666666" guidetolerance="10" objecttolerance="10" borderopacity="1" showgrid="false" inkscape:cx="7.8240306" pagecolor="#ffffff" inkscape:cy="41.675131" gridtolerance="10">
		</sodipodi:namedview>
	<title  id="title2"></title>
	
		<rect x="38.767" y="50.196" transform="matrix(0.7071 0.7071 -0.7071 0.7071 60.6111 -36.9371)" fill="none" stroke="#FF0000" stroke-width="5" stroke-miterlimit="10" width="72.251" height="9"/>
	<path fill="none" stroke="#FF0000" stroke-width="5" stroke-miterlimit="10" d="M64,26.268l9.723,9.723l17.324-17.324
		c0,0,4.772-5.833,0.441-10.165s-8.75-0.619-9.987,0.265S64,26.268,64,26.268z"/>
	<path fill="none" stroke="#FF0000" stroke-width="5" stroke-miterlimit="10" d="M91.4,53.668l9.723,9.723l17.324-17.324
		c0,0,4.772-5.833,0.441-10.165s-8.75-0.619-9.987,0.265S91.4,53.668,91.4,53.668z"/>
	<path fill="none" stroke="#FF0000" stroke-width="5" stroke-miterlimit="10" d="M40.47,37.612L91.558,88.7
		c0,0-20.84,24.415-46.571,12.826l-4.419,4.419l-3.634-3.633l-20.33,20.329l-10.43-10.43l20.33-20.33l-3.536-3.535l4.419-4.419
		C27.388,83.928,13.246,62.714,40.47,37.612z"/>
</g>
</svg>
