<?xml version="1.0" encoding="utf-8"?>
<!-- Generator: Adobe Illustrator 16.0.0, SVG Export Plug-In . SVG Version: 6.00 Build 0)  -->
<!DOCTYPE svg PUBLIC "-//W3C//DTD SVG 1.1//EN" "http://www.w3.org/Graphics/SVG/1.1/DTD/svg11.dtd">
<svg version="1.1" xmlns="http://www.w3.org/2000/svg" xmlns:xlink="http://www.w3.org/1999/xlink" x="0px" y="0px" width="128px"
	 height="128px" viewBox="0 0 128 128" enable-background="new 0 0 128 128" xml:space="preserve">
<g id="Calque_1" display="none">
	
		<image display="inline" overflow="visible" width="1024" height="1024" xlink:href="53E3F949.jpg"  transform="matrix(1 0 0 1 -8128 -8128)">
	</image>
	
		<image display="inline" overflow="visible" width="1024" height="1024" xlink:href="53E3F94B.jpg"  transform="matrix(1 0 0 1 -8128 -8128)">
	</image>
	
		<image display="inline" overflow="visible" width="1024" height="1024" xlink:href="53E3F94E.jpg"  transform="matrix(1 0 0 1 -8128 -8128)">
	</image>
	
		<image display="inline" overflow="visible" width="1024" height="1024" xlink:href="53E3F94F.jpg"  transform="matrix(0.125 0 0 0.125 -0.375 0)">
	</image>
</g>
<g id="Calque_2">
	<polygon fill="none" stroke="#FF0000" stroke-linecap="round" stroke-linejoin="round" stroke-miterlimit="10" points="64,24.667 
		57.167,42.833 39.167,42.833 53,55.333 48,73.333 63.625,63.625 79.167,73.333 74.667,55.167 89.5,43.667 70.5,43.667 	"/>
	<path fill="none" stroke="#FF0000" stroke-linecap="round" stroke-linejoin="round" stroke-miterlimit="10" d="M103.665,114.025
		c0,2.779-0.48,7.588-5.031,5.031S63.625,87.833,63.625,87.833s-32.879,30.202-35.424,31.224c-3.201,1.026-5.031-2.252-5.031-5.031
		V14.201c0-2.778,2.253-5.031,5.031-5.031h70.433c2.778,0,5.031,2.253,5.031,5.031V114.025z"/>
</g>
</svg>
