<?xml version="1.0" encoding="utf-8"?>
<!-- Generator: Adobe Illustrator 16.0.0, SVG Export Plug-In . SVG Version: 6.00 Build 0)  -->
<!DOCTYPE svg PUBLIC "-//W3C//DTD SVG 1.1//EN" "http://www.w3.org/Graphics/SVG/1.1/DTD/svg11.dtd">
<svg version="1.1" xmlns="http://www.w3.org/2000/svg" xmlns:xlink="http://www.w3.org/1999/xlink" x="0px" y="0px" width="128px"
	 height="128px" viewBox="0 0 128 128" enable-background="new 0 0 128 128" xml:space="preserve">
<g id="Calque_1">
	<g>
		<g>
			<path fill="none" stroke="#FF0000" stroke-width="5" stroke-linecap="round" stroke-linejoin="round" stroke-miterlimit="10" d="
				M109.367,58.896c1.796-4.153,2.77-8.598,2.77-13.218c0-22.983-24.06-41.613-53.74-41.613c-29.678,0-53.739,18.63-53.739,41.613
				c0,12.18,6.76,23.135,17.531,30.744h-0.004v23.53l15.784-15.783c6.299,2.007,13.194,3.121,20.427,3.121
				c4.005,0,7.909-0.34,11.663-0.983"/>
		</g>
	</g>
	<g id="Calque_3">
		
			<line fill="none" stroke="#FF0000" stroke-width="5" stroke-linecap="round" stroke-linejoin="round" stroke-miterlimit="10" x1="21.991" y1="34.75" x2="48.364" y2="34.75"/>
		<path fill="none" stroke="#FF0000" stroke-width="5" stroke-linecap="round" stroke-linejoin="round" stroke-miterlimit="10" d="
			M27.481,34.75c0,0,0.835,13.248,16.824,18.378"/>
		<path fill="none" stroke="#FF0000" stroke-width="5" stroke-linecap="round" stroke-linejoin="round" stroke-miterlimit="10" d="
			M43.113,34.75c0,0-0.12,14.798-20.406,20.287"/>
		
			<line fill="none" stroke="#FF0000" stroke-width="5" stroke-linecap="round" stroke-linejoin="round" stroke-miterlimit="10" x1="35.178" y1="29.62" x2="37.504" y2="34.75"/>
	</g>
	<path fill="none" stroke="#FF0000" stroke-width="5" stroke-linecap="round" stroke-linejoin="round" stroke-miterlimit="10" d="
		M92.831,101.18c0,3.92-3.17,7.092-7.09,7.092c-0.62,0-1.22-0.08-1.79-0.229c0,0-0.93-0.341-2.521-0.819
		c-0.959-0.291-2.17-0.632-3.56-0.961v18.239h46.63V77.87h-17.721c0.352-1.261,0.66-2.28,0.891-2.989
		c0.229-0.701,0.37-1.09,0.37-1.09c0.149-0.57,0.229-1.171,0.229-1.791c0-3.92-3.17-7.09-7.09-7.09c-3.91,0-7.08,3.17-7.08,7.09
		c0,0.62,0.08,1.221,0.229,1.791c0,0,0.568,1.559,1.261,4.079h-17.72V96.1c3.66-0.879,6.08-1.771,6.08-1.771
		c0.57-0.149,1.17-0.229,1.789-0.229C89.661,94.1,92.831,97.271,92.831,101.18z"/>
	<g>
		<path fill="#FF0000" d="M72.551,36.459H61.955v4.285h9.823v4.455h-9.823v9.838h-5.909V32.004h16.505V36.459z"/>
		<path fill="#FF0000" d="M98.832,55.037h-7.255l-6.267-8.446h-2.752v8.446H76.65V32.004h9.961c1.361,0,2.532,0.077,3.512,0.232
			s1.897,0.49,2.754,1.005c0.866,0.516,1.554,1.184,2.064,2.003s0.766,1.849,0.766,3.086c0,1.702-0.395,3.088-1.183,4.161
			c-0.789,1.073-1.916,1.964-3.38,2.676L98.832,55.037z M89.566,39.058c0-0.578-0.119-1.072-0.355-1.485
			c-0.238-0.413-0.646-0.737-1.223-0.975c-0.402-0.165-0.871-0.266-1.407-0.302s-1.16-0.054-1.872-0.054h-2.15v6.203h1.826
			c0.948,0,1.742-0.046,2.382-0.139c0.639-0.093,1.176-0.304,1.608-0.634c0.412-0.32,0.714-0.673,0.905-1.06
			C89.471,40.226,89.566,39.708,89.566,39.058z"/>
	</g>
</g>
<g id="Calque_2">
</g>
</svg>
