<?xml version="1.0" encoding="utf-8"?>
<!-- Generator: Adobe Illustrator 16.0.0, SVG Export Plug-In . SVG Version: 6.00 Build 0)  -->
<!DOCTYPE svg PUBLIC "-//W3C//DTD SVG 1.1//EN" "http://www.w3.org/Graphics/SVG/1.1/DTD/svg11.dtd">
<svg version="1.1" xmlns="http://www.w3.org/2000/svg" xmlns:xlink="http://www.w3.org/1999/xlink" x="0px" y="0px" width="128px"
	 height="128px" viewBox="0 0 128 128" enable-background="new 0 0 128 128" xml:space="preserve">
<g id="Calque_2_1_">
	<g>
		<path fill="none" stroke="#FF0000" stroke-width="5" stroke-linecap="round" stroke-linejoin="round" stroke-miterlimit="10" d="
			M29.194,65.217l-16.862,6.627C5.535,74.516,2.16,82.264,4.831,89.059l2.277,5.793c2.671,6.797,10.419,10.172,17.216,7.5
			l4.357-1.713l25.242,20.109c1.923,1.533,4.752,1.213,6.287-0.711l5.822-7.311c1.535-1.924,1.215-4.752-0.71-6.287L48.341,92.912
			l14.953-5.877"/>
		<path fill="none" stroke="#FF0000" stroke-width="5" stroke-linecap="round" stroke-linejoin="round" stroke-miterlimit="10" d="
			M78.648,52.757L78.648,52.757c4.036-1.587,8.377-0.249,9.644,2.976l2.652,6.746c1.267,3.222-1.001,7.158-5.038,8.745l0,0"/>
		
			<polyline fill="none" stroke="#FF0000" stroke-width="5" stroke-linecap="round" stroke-linejoin="round" stroke-miterlimit="10" points="
			64,31.222 67.894,25.396 96.15,97.289 64.739,90.713 53.744,65.217 		"/>
	</g>
	
		<line fill="none" stroke="#FF0000" stroke-width="5" stroke-linecap="round" stroke-linejoin="round" stroke-miterlimit="10" x1="96.723" y1="53.081" x2="120.623" y2="40.284"/>
	
		<line fill="none" stroke="#FF0000" stroke-width="5" stroke-linecap="round" stroke-linejoin="round" stroke-miterlimit="10" x1="90.853" y1="43.298" x2="102.954" y2="25.62"/>
	
		<line fill="none" stroke="#FF0000" stroke-width="5" stroke-linecap="round" stroke-linejoin="round" stroke-miterlimit="10" x1="99.854" y1="63.607" x2="123.311" y2="66.826"/>
</g>
<g id="Calque_3_2_">
	<g id="Calque_3_1_">
		<g id="Calque_3">
			<g>
				
					<path fill="none" stroke="#FF0000" stroke-width="5" stroke-linecap="round" stroke-linejoin="round" stroke-miterlimit="10" d="
					M56.654,55.605c0,0.578-0.469,1.049-1.049,1.049H5.548c-0.579,0-1.048-0.471-1.048-1.049V5.548C4.5,4.969,4.969,4.5,5.548,4.5
					h50.058c0.58,0,1.049,0.469,1.049,1.048V55.605L56.654,55.605z"/>
				<circle fill="#FF0000" cx="16.424" cy="17.481" r="3.704"/>
				<line fill="none" stroke="#FF0000" stroke-width="4" stroke-miterlimit="10" x1="24.219" y1="17.48" x2="46.23" y2="17.48"/>
				<circle fill="#FF0000" cx="16.424" cy="30.577" r="3.704"/>
				<line fill="none" stroke="#FF0000" stroke-width="4" stroke-miterlimit="10" x1="24.219" y1="30.578" x2="46.23" y2="30.578"/>
				<circle fill="#FF0000" cx="16.424" cy="43.673" r="3.704"/>
				<line fill="none" stroke="#FF0000" stroke-width="4" stroke-miterlimit="10" x1="24.219" y1="43.672" x2="46.23" y2="43.672"/>
			</g>
		</g>
	</g>
</g>
</svg>
