<?xml version="1.0" encoding="utf-8"?>
<!-- Generator: Adobe Illustrator 16.0.0, SVG Export Plug-In . SVG Version: 6.00 Build 0)  -->
<!DOCTYPE svg PUBLIC "-//W3C//DTD SVG 1.1//EN" "http://www.w3.org/Graphics/SVG/1.1/DTD/svg11.dtd">
<svg version="1.1" id="Calque_2" xmlns="http://www.w3.org/2000/svg" xmlns:xlink="http://www.w3.org/1999/xlink" x="0px" y="0px"
	 width="128px" height="128px" viewBox="0 0 128 128" enable-background="new 0 0 128 128" xml:space="preserve">
<g id="Calque_1_1_">
	<g id="Calque_2_2_" display="none">
		<g display="inline">
			<path fill="none" d="M63.4,67.604c9.407,0,15.547-12.935,16.563-26.152h-30.49c-0.851,0.106-1.718,0.198-2.616,0.25
				C47.932,54.831,54.053,67.604,63.4,67.604z"/>
			<path fill="none" d="M91.273,78.268l-9.646-3.521l-15.432,8.746L60.257,83.4l-15.506-8.65l-9.566,3.52
				c-1.507,0.728-19.394,9.84-18.328,33.111c0.541,0.855,3.165,4.105,11.531,4.176c-0.264-4.406-0.719-14.238-0.156-22.854
				l4.739,0.311c-0.606,9.285,0.032,20.394,0.246,23.604c5.498,4.866,17.007,7.821,30.305,7.707
				c12.979-0.097,24.488-3.099,29.764-7.705c0.194-3.279,0.78-14.627,0.146-23.754l4.738-0.332c0.596,8.51,0.18,18.563-0.063,23.021
				c8.268-0.072,10.908-3.268,11.492-4.188C110.65,88.135,92.824,79.016,91.273,78.268z"/>
			<path fill="#FF0000" d="M34.129,41.45h6.227c0,0.002,0,0.004,0,0.006c-1.305,2.819-1.772,7.667,4.469,13.882
				c3.377,9.688,9.662,17.016,18.576,17.016c8.738,0,15.188-7.482,18.631-17.413c5.836-6.035,5.342-10.733,4.063-13.491h6.231
				c1.215,0,2.198-0.984,2.198-2.199c0-1.214-0.983-2.199-2.198-2.199h-2.94c0.016-0.334,0.022-0.671,0.022-1.009
				c0-10.568-6.179-19.661-15.056-23.763c0.025,1.039,0.031,2.212,0.031,3.533v3.8c0,10.968-0.596,11.62-10.621,11.62
				c-10.028,0-10.623-0.652-10.623-11.62v-3.8c0-1.326,0.009-2.498,0.042-3.54c-8.881,4.101-15.063,13.198-15.063,23.77
				c0,0.341,0.03,0.673,0.046,1.009h-4.039c-1.214,0-2.199,0.985-2.199,2.199C31.93,40.465,32.915,41.45,34.129,41.45z
				 M49.472,41.45h30.489c-1.016,13.219-7.154,26.153-16.563,26.153c-9.348,0-15.468-12.772-16.543-25.903
				C47.754,41.648,48.621,41.557,49.472,41.45z"/>
			<path fill="#FF0000" d="M93.184,73.918l-14.209-5.195l-12.676,7.414h-6.221l-12.676-7.424l-13.957,5.133l-0.173,0.07
				c-0.229,0.104-22.684,10.775-21.134,38.211l0.021,0.354l0.12,0.332c0.119,0.32,2.909,7.502,16.378,7.502
				c0.5,0,1.019-0.016,1.55-0.035c6.384,5.541,18.402,8.798,32.666,8.798c0.229,0,0.455-0.002,0.684-0.004
				c11.189-0.078,25.395-2.453,32.746-8.793c14.754,0.547,17.746-7.134,17.869-7.47l0.123-0.33l0.021-0.354
				C115.865,84.693,93.41,74.021,93.184,73.918z M109.598,111.363c-0.586,0.924-3.227,4.119-11.492,4.191
				c0.24-4.462,0.656-14.513,0.064-23.021l-4.74,0.33c0.637,9.127,0.051,20.477-0.146,23.754
				c-5.272,4.609-16.783,7.611-29.762,7.705c-13.298,0.115-24.809-2.84-30.306-7.707c-0.213-3.213-0.852-14.316-0.246-23.604
				L28.231,92.7c-0.563,8.614-0.108,18.446,0.156,22.854c-8.366-0.066-10.99-3.318-11.531-4.175
				c-1.065-23.271,16.821-32.389,18.328-33.112l9.566-3.519l15.506,8.649l5.938,0.091l15.435-8.746l9.646,3.521
				C92.824,79.016,110.65,88.135,109.598,111.363z"/>
			<path fill="#FF0000" d="M71.688,11.224c-0.084-1.763-0.28-2.937-0.77-3.485c-0.77-0.865-3.1-0.907-7.152-0.907
				c-3.995,0-6.395,0-7.164,0.853c-0.487,0.541-0.682,1.733-0.763,3.539c2.496-0.824,5.156-1.275,7.921-1.275
				C66.529,9.947,69.191,10.398,71.688,11.224z"/>
			<path fill="#FF0000" d="M55.781,19.612c0,4.501,0,7.218,0.823,8.129c0.77,0.852,3.175,0.852,7.162,0.852
				c3.984,0,6.391,0,7.158-0.852c0.824-0.911,0.824-3.627,0.824-8.129v-3.8c0-1.835-0.004-3.353-0.063-4.589
				c-2.496-0.824-5.158-1.275-7.929-1.275c-2.765,0-5.425,0.451-7.921,1.275c-0.055,1.239-0.059,2.759-0.059,4.589v3.8H55.781z"/>
		</g>
	</g>
	<g id="Calque_3_1_" display="none">
		<g display="inline">
			<path fill="#FF0000" d="M78.176,38.32c3.781-18.104-7.773-28.311-22.814-28.311c-26.96,0-22.255,29.539-22.255,29.539
				c0.029,0.003,0.058,0.004,0.087,0.007c-1.231,2.785-1.595,7.457,4.25,13.417c3.339,9.768,9.626,17.189,18.576,17.189
				c8.621,0,14.998-7.314,18.445-17.069C81.426,46.075,79.783,40.83,78.176,38.32z M56.02,65.436
				c-9.302,0-15.394-12.71-16.463-25.776c11.693-0.688,19.433-6.228,23.595-10.293c1.979,3.558,6.075,5.944,9.485,7.399
				C72.295,50.78,66.006,65.436,56.02,65.436z"/>
		</g>
		<g display="inline">
			<path fill="none" d="M50.838,120.217c-0.81-0.252-1.482-0.887-1.742-1.74L35.443,73.42c-0.232-0.768-0.098-1.563,0.309-2.188
				l-8.486,3.121c-1.233,0.594-20.855,10.444-19.47,35.432c0.221,0.514,2.729,5.713,13.817,5.713
				c0.459-0.002,0.944-0.016,1.438-0.033c0.035-0.002,0.071-0.004,0.105-0.004c0.631,0,1.243,0.229,1.721,0.645
				c5.126,4.449,14.591,7.326,25.879,7.974l-0.196-0.201L50.838,120.217z"/>
			<path fill="none" d="M84.803,74.373l-8.34-3.066c0.402,0.627,0.537,1.418,0.305,2.183l-13.801,45.545
				c-0.257,0.854-0.926,1.485-1.732,1.739l0.236,3.104l-0.139,0.144c9.482-0.644,20.119-2.949,25.883-7.916
				c0.502-0.437,1.146-0.646,1.813-0.638c0.476,0.019,0.941,0.031,1.392,0.031c11.021-0.002,13.567-5.142,13.817-5.715
				C105.607,85.096,86.465,75.186,84.803,74.373z"/>
			<path fill="#FF0000" d="M86.918,69.563c-0.063-0.026-0.121-0.053-0.184-0.073l-13.566-4.994
				c-1.326-0.488-2.801,0.162-3.336,1.467l-1.795,4.373c-0.27,0.662-0.264,1.401,0.023,2.06c0.289,0.649,0.83,1.162,1.5,1.403
				l1.461,0.539l-8.792,29.019l-0.903-15.814c-0.015-0.24-0.06-0.473-0.136-0.691l2.426-3.44c0.455-0.646,0.596-1.461,0.383-2.222
				c-0.045-0.16-0.053-0.188-1.699-4.453c-0.416-1.077-1.477-1.752-2.623-1.676c-0.276,0.01-1.619,0.017-3.659,0.017
				c-2.043,0-3.385-0.007-3.663-0.017c-1.139-0.086-2.203,0.594-2.621,1.668c-2.023,5.205-2.023,5.205-1.583,6.215
				c0.072,0.166,0.159,0.318,0.263,0.468l2.427,3.44c-0.074,0.221-0.121,0.451-0.134,0.691l-0.873,15.258L41.19,74.271l1.304-0.48
				c0.671-0.246,1.213-0.756,1.5-1.41c0.286-0.652,0.294-1.396,0.021-2.061l-1.811-4.371c-0.541-1.301-2.014-1.945-3.333-1.459
				l-13.398,4.926c-0.032,0.01-0.063,0.021-0.093,0.035l-0.174,0.07c-0.033,0.016-0.064,0.026-0.095,0.043
				c-0.242,0.108-24.2,11.438-22.556,40.561l0.02,0.352c0.015,0.26,0.067,0.515,0.156,0.758l0.12,0.326
				c0.345,0.939,3.797,9.189,18.767,9.189c0.206,0,0.415-0.004,0.628-0.008c7.023,5.557,19.108,8.725,33.408,8.725h0.011
				l0.697-0.002c5.388-0.039,23.369-0.793,33.474-8.721c0.195,0.004,0.393,0.006,0.582,0.006
				c14.988-0.002,18.422-8.256,18.764-9.193l0.119-0.328c0.09-0.239,0.143-0.489,0.154-0.746l0.021-0.354
				C111.125,80.963,87.16,69.672,86.918,69.563z M50.56,81.691c-0.009-0.021,1.623-4.215,1.623-4.215
				c0.191,0.026,7.479,0.026,7.669,0c0,0,1.603,4.149,1.621,4.215l-2.593,3.682h-5.725L50.56,81.691z M104.236,109.783
				c-0.25,0.574-2.797,5.713-13.818,5.715c-0.445,0-0.916-0.016-1.391-0.031c-0.664-0.01-1.312,0.201-1.813,0.637
				c-5.764,4.967-16.397,7.273-25.883,7.916l-5.315,3.396l-5.261-3.338c-11.288-0.646-20.753-3.521-25.879-7.973
				c-0.478-0.416-1.089-0.646-1.721-0.646c-0.034,0-0.071,0.002-0.105,0.004c-0.494,0.021-0.979,0.029-1.438,0.031
				c-11.088,0-13.596-5.199-13.817-5.711C6.41,84.802,26.032,74.945,27.265,74.352l8.486-3.121
				c-0.406,0.627-0.541,1.422-0.309,2.188l13.653,45.058c0.26,0.854,0.933,1.487,1.742,1.739l2.49-32.729h5.376l2.53,33.281
				c0.807-0.254,1.476-0.887,1.73-1.737l13.803-45.546c0.23-0.764,0.098-1.557-0.307-2.182l8.342,3.066
				C86.465,75.186,105.607,85.096,104.236,109.783z"/>
			<path fill="#FFFFFF" d="M57.516,82.945l1.003-1.424c-0.146-0.377-0.307-0.799-0.463-1.199c-0.527,0-1.194,0-2.038,0
				c-0.849,0-1.517,0-2.045,0c-0.167,0.432-0.326,0.84-0.464,1.195l1.007,1.428H57.516z"/>
			<path fill="#FFFFFF" d="M58.879,85.373l2.592-3.682c-0.018-0.064-1.62-4.215-1.62-4.215c-0.19,0.026-7.478,0.026-7.669,0
				c0,0-1.631,4.194-1.623,4.215l2.596,3.682H58.879z"/>
		</g>
		<g display="inline">
			<path fill="#FF0000" d="M89.855,26.392c0,0.507-0.41,0.918-0.918,0.918H84.92c-0.508,0-0.918-0.411-0.918-0.918v-4.016
				c0-0.507,0.41-0.918,0.918-0.918h4.018c0.508,0,0.918,0.411,0.918,0.918V26.392L89.855,26.392z"/>
			<path fill="#FF0000" d="M98.404,26.392c0,0.507-0.41,0.918-0.918,0.918h-4.019c-0.508,0-0.918-0.411-0.918-0.918v-4.016
				c0-0.507,0.41-0.918,0.918-0.918h4.019c0.508,0,0.918,0.411,0.918,0.918V26.392z"/>
			<path fill="#FF0000" d="M106.895,26.392c0,0.507-0.41,0.918-0.918,0.918h-4.016c-0.508,0-0.918-0.411-0.918-0.918v-4.016
				c0-0.507,0.41-0.918,0.918-0.918h4.016c0.508,0,0.918,0.411,0.918,0.918V26.392z"/>
		</g>
		<g display="inline">
			<path fill="none" d="M79.258,37.288c0,0.41-0.012,0.815-0.025,1.221h8.834v10.819l8.812-10.819h23.802v-28.25H70.221v4.573
				C75.75,20.248,79.258,28.294,79.258,37.288z"/>
			<path fill="#FF0000" d="M122.588,5.258H68.311c-1.731,0-3.09,1.461-3.09,3.326v3.522c1.801,1.056,3.478,1.233,5,2.726v-4.574
				h50.455v28.25H96.877l-8.811,10.819V38.508l-9.892-0.188c-0.062,1.708,0.81,3.566,0.507,5.188h4.385v19.876l16.188-19.876h23.334
				c1.732,0,3.09-1.461,3.09-3.326V8.585C125.676,6.719,124.32,5.258,122.588,5.258z"/>
		</g>
	</g>
	<path fill="none" stroke="#FF0000" stroke-width="5" stroke-miterlimit="10" d="M84.314,36.356c0,5.844-1.455,11.245-3.918,15.62
		c-3.688,6.545-9.629,13.713-16.333,13.713c-6.594,0-12.451-7.032-16.147-13.396c-2.575-4.43-4.102-9.951-4.102-15.938"/>
</g>
<g id="Calque_2_1_">
	<path fill="none" stroke="#FF0000" stroke-width="5" stroke-miterlimit="10" d="M47.815,66.855c0,0,5.015,9.834,16.039,9.834
		c11.021,0,15.628-9.834,15.628-9.834s35.336,7.35,36.334,44.092c0,0-9.334,8.408-17.668,4.742c0,0-8.487,8.334-34.083,8.334
		s-33.25-8-33.25-8s-10,1-16.667-5.668C14.148,110.355,11.481,76.355,47.815,66.855z"/>
	<path fill="none" stroke="#FF0000" stroke-width="5" stroke-miterlimit="10" d="M29.878,90.063c0,0-1.396,16.627,0.938,25.961"/>
	<path fill="none" stroke="#FF0000" stroke-width="5" stroke-miterlimit="10" d="M97.482,90.063c0,0,1,15.627,0.666,25.627"/>
</g>
<g>
	
		<line fill="none" stroke="#FF0000" stroke-width="4" stroke-linecap="round" stroke-linejoin="round" stroke-miterlimit="10" x1="39.909" y1="31.635" x2="88.221" y2="31.635"/>
	<path fill="none" stroke="#FF0000" stroke-width="4" stroke-linecap="round" stroke-linejoin="round" stroke-miterlimit="10" d="
		M41.079,28.572v-2.331l3.051-2.228v-6.451c0,0,2.228-7.622,10.554-11.492v7.388"/>
	<path fill="none" stroke="#FF0000" stroke-width="4" stroke-linecap="round" stroke-linejoin="round" stroke-miterlimit="10" d="
		M86.85,28.572v-2.331l-3.051-2.228v-6.451c0,0-2.227-7.622-10.553-11.492v7.388"/>
	<path fill="none" stroke="#FF0000" stroke-width="4" stroke-linecap="round" stroke-linejoin="round" stroke-miterlimit="10" d="
		M59.257,17.915V5.316c0,0,0-1.123,1.993-1.123c1.994,0,5.395,0,5.395,0S68.52,4.429,68.52,6.07c0,1.643,0,11.844,0,11.844"/>
</g>
<g id="Calque_1_2_">
	<g id="Calque_2_4_" display="none">
		<g display="inline">
			<path fill="none" d="M25.552,61.508c4.304,0,7.114-5.918,7.578-11.967H19.179c-0.389,0.049-0.787,0.091-1.197,0.114
				C18.474,55.664,21.275,61.508,25.552,61.508z"/>
			<path fill="none" d="M38.306,66.389l-4.414-1.611L26.83,68.78l-2.717-0.041l-7.095-3.959l-4.377,1.608
				c-0.69,0.332-8.874,4.504-8.387,15.152c0.248,0.391,1.449,1.877,5.276,1.91c-0.12-2.016-0.329-6.516-0.071-10.457l2.169,0.141
				c-0.277,4.25,0.015,9.332,0.112,10.801c2.516,2.228,7.782,3.58,13.867,3.527c5.938-0.043,11.206-1.418,13.619-3.525
				c0.09-1.5,0.357-6.692,0.067-10.869l2.168-0.151c0.273,3.896,0.083,8.494-0.028,10.533c3.783-0.031,4.992-1.494,5.258-1.916
				C47.172,70.904,39.016,66.73,38.306,66.389z"/>
			<path fill="#FF0000" d="M12.158,49.542h2.85c0,0.001,0,0.002,0,0.003c-0.598,1.29-0.811,3.509,2.044,6.353
				c1.546,4.432,4.422,7.786,8.5,7.786c3.998,0,6.95-3.425,8.525-7.968c2.67-2.761,2.444-4.911,1.859-6.173h2.852
				c0.556,0,1.006-0.45,1.006-1.006c0-0.556-0.45-1.006-1.006-1.006h-1.347c0.008-0.153,0.011-0.307,0.011-0.462
				c0-4.835-2.827-8.996-6.889-10.873c0.012,0.475,0.014,1.012,0.014,1.617v1.738c0,5.019-0.272,5.317-4.86,5.317
				c-4.588,0-4.861-0.298-4.861-5.317v-1.738c0-0.607,0.004-1.144,0.02-1.62c-4.064,1.876-6.893,6.04-6.893,10.876
				c0,0.156,0.014,0.308,0.021,0.462h-1.848c-0.556,0-1.006,0.45-1.006,1.006C11.152,49.091,11.603,49.542,12.158,49.542z
				 M19.179,49.542H33.13c-0.465,6.049-3.274,11.967-7.579,11.967c-4.278,0-7.078-5.844-7.57-11.853
				C18.393,49.632,18.789,49.59,19.179,49.542z"/>
			<path fill="#FF0000" d="M39.18,64.399l-6.502-2.378l-5.8,3.393h-2.847l-5.801-3.398l-6.386,2.35l-0.079,0.032
				c-0.104,0.047-10.379,4.93-9.67,17.485l0.01,0.16l0.054,0.152c0.056,0.147,1.332,3.434,7.495,3.434
				c0.229,0,0.466-0.008,0.709-0.018c2.921,2.537,8.42,4.024,14.947,4.024c0.104,0,0.208,0,0.313-0.002
				c5.12-0.034,11.62-1.12,14.984-4.022c6.751,0.252,8.12-3.264,8.177-3.416l0.056-0.152l0.01-0.16
				C49.559,69.328,39.284,64.446,39.18,64.399z M46.69,81.531c-0.268,0.424-1.476,1.887-5.258,1.918
				c0.11-2.041,0.3-6.639,0.029-10.533l-2.169,0.15c0.292,4.178,0.024,9.371-0.066,10.869c-2.413,2.108-7.68,3.483-13.619,3.526
				c-6.085,0.052-11.352-1.301-13.867-3.526c-0.097-1.472-0.39-6.552-0.112-10.802L9.46,72.991
				c-0.258,3.942-0.049,8.44,0.071,10.457c-3.828-0.029-5.029-1.519-5.277-1.908c-0.487-10.647,7.697-14.819,8.387-15.151
				l4.377-1.609l7.095,3.959l2.717,0.039l7.062-4.002l4.414,1.61C39.016,66.73,47.172,70.904,46.69,81.531z"/>
			<path fill="#FF0000" d="M29.344,35.711c-0.038-0.807-0.128-1.344-0.352-1.595c-0.352-0.395-1.418-0.415-3.272-0.415
				c-1.828,0-2.926,0-3.278,0.391c-0.224,0.248-0.313,0.793-0.35,1.62c1.143-0.377,2.359-0.584,3.625-0.584
				C26.983,35.126,28.202,35.333,29.344,35.711z"/>
			<path fill="#FF0000" d="M22.065,39.549c0,2.059,0,3.303,0.376,3.72c0.352,0.389,1.453,0.389,3.277,0.389
				c1.823,0,2.924,0,3.275-0.389c0.377-0.417,0.377-1.66,0.377-3.72V37.81c0-0.84-0.001-1.535-0.028-2.1
				c-1.143-0.377-2.36-0.584-3.628-0.584c-1.265,0-2.482,0.207-3.624,0.584c-0.026,0.566-0.027,1.262-0.027,2.1L22.065,39.549
				L22.065,39.549z"/>
		</g>
	</g>
	<g id="Calque_3_2_" display="none">
		<g display="inline">
			<path fill="#FF0000" d="M32.313,48.109c1.73-8.284-3.557-12.955-10.439-12.955c-12.336,0-10.183,13.517-10.183,13.517
				c0.013,0.001,0.026,0.002,0.04,0.003c-0.563,1.275-0.729,3.413,1.945,6.14c1.528,4.469,4.405,7.865,8.5,7.865
				c3.944,0,6.862-3.346,8.439-7.81C33.8,51.658,33.048,49.258,32.313,48.109z M22.175,60.516c-4.257,0-7.044-5.815-7.533-11.794
				c5.35-0.315,8.892-2.85,10.796-4.71c0.905,1.628,2.779,2.72,4.34,3.386C29.622,53.811,26.744,60.516,22.175,60.516z"/>
		</g>
		<g display="inline">
			<path fill="none" d="M19.804,85.584c-0.371-0.115-0.678-0.406-0.797-0.797L12.759,64.17c-0.106-0.352-0.045-0.715,0.142-1.001
				l-3.883,1.429c-0.564,0.271-9.542,4.778-8.909,16.213c0.101,0.233,1.249,2.612,6.322,2.612c0.209,0,0.432-0.006,0.658-0.016
				c0.016,0,0.032,0,0.048,0c0.289,0,0.568,0.104,0.787,0.295c2.346,2.034,6.676,3.353,11.842,3.647l-0.089-0.094L19.804,85.584z"/>
			<path fill="none" d="M35.345,64.607l-3.816-1.404c0.185,0.287,0.246,0.649,0.139,0.998L25.354,85.04
				c-0.117,0.392-0.424,0.681-0.792,0.797l0.108,1.42l-0.063,0.066c4.339-0.296,9.206-1.351,11.843-3.623
				c0.229-0.199,0.525-0.295,0.83-0.291c0.217,0.008,0.431,0.014,0.636,0.014c5.043,0,6.208-2.353,6.322-2.612
				C44.865,69.514,36.105,64.979,35.345,64.607z"/>
			<path fill="#FF0000" d="M36.313,62.406c-0.029-0.013-0.056-0.024-0.084-0.034l-6.208-2.285c-0.607-0.224-1.282,0.074-1.526,0.67
				l-0.822,2.002c-0.123,0.303-0.12,0.641,0.011,0.941c0.132,0.298,0.38,0.532,0.686,0.644l0.668,0.247l-4.022,13.277l-0.414-7.236
				c-0.007-0.108-0.027-0.217-0.063-0.315l1.11-1.574c0.208-0.295,0.272-0.668,0.175-1.016c-0.021-0.074-0.023-0.088-0.777-2.039
				c-0.191-0.492-0.676-0.802-1.201-0.769c-0.126,0.006-0.74,0.008-1.673,0.008c-0.935,0-1.549-0.002-1.676-0.008
				c-0.521-0.037-1.008,0.272-1.2,0.765c-0.926,2.383-0.926,2.383-0.725,2.844c0.033,0.076,0.073,0.146,0.121,0.215l1.11,1.574
				c-0.033,0.102-0.055,0.207-0.062,0.315l-0.399,6.982l-3.956-13.054l0.597-0.22c0.307-0.112,0.555-0.346,0.686-0.646
				c0.131-0.298,0.135-0.64,0.01-0.943l-0.829-2c-0.248-0.595-0.922-0.89-1.525-0.667l-6.131,2.254
				c-0.015,0.004-0.029,0.01-0.043,0.016l-0.079,0.032c-0.016,0.007-0.029,0.013-0.044,0.02c-0.107,0.05-11.07,5.233-10.318,18.56
				l0.009,0.16c0.006,0.119,0.03,0.234,0.071,0.346l0.055,0.15c0.158,0.428,1.738,4.203,8.587,4.203c0.094,0,0.19,0,0.288-0.002
				c3.213,2.543,8.743,3.992,15.287,3.992h0.005l0.319-0.002c2.465-0.019,10.693-0.361,15.317-3.99
				c0.089,0.002,0.179,0.002,0.267,0.002c6.858,0,8.43-3.775,8.585-4.205l0.055-0.15c0.041-0.109,0.065-0.225,0.07-0.342l0.01-0.162
				C47.39,67.621,36.424,62.456,36.313,62.406z M19.677,67.955c-0.005-0.01,0.742-1.928,0.742-1.928c0.088,0.012,3.423,0.012,3.51,0
				c0,0,0.733,1.897,0.741,1.928l-1.186,1.684h-2.62L19.677,67.955z M44.237,80.811c-0.114,0.263-1.279,2.613-6.322,2.613
				c-0.204,0-0.419-0.006-0.636-0.014c-0.305-0.004-0.601,0.092-0.83,0.291c-2.637,2.273-7.503,3.328-11.843,3.623l-2.432,1.553
				l-2.407-1.525c-5.166-0.297-9.496-1.61-11.842-3.647c-0.219-0.19-0.498-0.295-0.787-0.295c-0.016,0-0.033,0-0.048,0
				c-0.226,0.01-0.448,0.014-0.658,0.016c-5.074,0-6.221-2.379-6.322-2.612C-0.524,69.38,8.455,64.871,9.019,64.6l3.883-1.429
				c-0.186,0.287-0.248,0.65-0.142,1.001l6.247,20.617c0.119,0.391,0.427,0.682,0.797,0.797l1.139-14.977h2.46l1.158,15.229
				c0.369-0.115,0.675-0.406,0.792-0.795l6.315-20.84c0.106-0.35,0.045-0.712-0.14-0.998l3.817,1.402
				C36.105,64.979,44.865,69.514,44.237,80.811z"/>
			<path fill="#FFFFFF" d="M22.859,68.529l0.459-0.652c-0.067-0.172-0.141-0.365-0.212-0.549c-0.241,0-0.546,0-0.933,0
				c-0.388,0-0.694,0-0.936,0c-0.077,0.199-0.149,0.385-0.212,0.547l0.461,0.654H22.859z"/>
			<path fill="#FFFFFF" d="M23.483,69.639l1.186-1.684c-0.008-0.029-0.741-1.928-0.741-1.928c-0.087,0.012-3.421,0.012-3.509,0
				c0,0-0.747,1.918-0.743,1.928l1.188,1.684H23.483z"/>
		</g>
		<g display="inline">
			<path fill="#FF0000" d="M37.657,42.651c0,0.232-0.188,0.42-0.42,0.42h-1.838c-0.232,0-0.42-0.188-0.42-0.42v-1.838
				c0-0.231,0.188-0.419,0.42-0.419h1.838c0.232,0,0.42,0.188,0.42,0.419V42.651z"/>
			<path fill="#FF0000" d="M41.569,42.651c0,0.232-0.188,0.42-0.42,0.42h-1.838c-0.233,0-0.42-0.188-0.42-0.42v-1.838
				c0-0.231,0.188-0.419,0.42-0.419h1.838c0.231,0,0.42,0.188,0.42,0.419V42.651z"/>
			<path fill="#FF0000" d="M45.454,42.651c0,0.232-0.187,0.42-0.42,0.42h-1.837c-0.231,0-0.42-0.188-0.42-0.42v-1.838
				c0-0.231,0.188-0.419,0.42-0.419h1.837c0.233,0,0.42,0.188,0.42,0.419V42.651z"/>
		</g>
		<g display="inline">
			<path fill="none" d="M32.808,47.637c0,0.187-0.005,0.373-0.011,0.558h4.042v4.951l4.031-4.951h10.891V35.269H28.673v2.093
				C31.203,39.839,32.808,43.522,32.808,47.637z"/>
			<path fill="#FF0000" d="M52.635,32.981H27.799c-0.793,0-1.414,0.668-1.414,1.522v1.611c0.824,0.484,1.591,0.565,2.288,1.248
				v-2.093h23.088v12.926H40.87l-4.031,4.951v-4.951l-4.526-0.086c-0.028,0.782,0.37,1.632,0.231,2.375h2.007v9.095l7.407-9.095
				h10.677c0.792,0,1.413-0.669,1.413-1.522V34.503C54.047,33.649,53.427,32.981,52.635,32.981z"/>
		</g>
	</g>
	<path fill="none" stroke="#FF0000" stroke-width="2" stroke-miterlimit="10" d="M35.122,47.21c0,2.674-0.666,5.146-1.793,7.147
		c-1.688,2.996-4.406,6.275-7.474,6.275c-3.017,0-5.697-3.218-7.388-6.13c-1.178-2.027-1.877-4.553-1.877-7.293"/>
</g>
<g id="Calque_2_3_">
	<path fill="none" stroke="#FF0000" stroke-width="2" stroke-miterlimit="10" d="M13.46,85.334c-2.043-0.857-2.818-1.67-2.818-1.67
		s-4.576,0.459-7.626-2.592c0,0-1.221-15.559,15.405-19.906c0,0,2.294,4.5,7.339,4.5c5.043,0,7.152-4.5,7.152-4.5
		s3.666,0.762,7.557,3.376"/>
	<path fill="none" stroke="#FF0000" stroke-width="2" stroke-miterlimit="10" d="M10.213,71.785c0,0-0.639,7.609,0.429,11.879"/>
</g>
<g>
	
		<line fill="none" stroke="#FF0000" stroke-width="2" stroke-linecap="round" stroke-linejoin="round" stroke-miterlimit="10" x1="14.802" y1="45.05" x2="36.909" y2="45.05"/>
	<path fill="none" stroke="#FF0000" stroke-width="2" stroke-linecap="round" stroke-linejoin="round" stroke-miterlimit="10" d="
		M15.338,43.648v-1.066l1.396-1.02V38.61c0,0,1.02-3.487,4.83-5.258v3.38"/>
	<path fill="none" stroke="#FF0000" stroke-width="2" stroke-linecap="round" stroke-linejoin="round" stroke-miterlimit="10" d="
		M36.282,43.648v-1.066l-1.396-1.02V38.61c0,0-1.019-3.487-4.829-5.258v3.38"/>
	<path fill="none" stroke="#FF0000" stroke-width="2" stroke-linecap="round" stroke-linejoin="round" stroke-miterlimit="10" d="
		M23.656,38.772v-5.766c0,0,0-0.513,0.912-0.513s2.468,0,2.468,0s0.858,0.107,0.858,0.859s0,5.42,0,5.42"/>
</g>
<g id="Calque_1_3_">
	<g id="Calque_2_6_" display="none">
		<g display="inline">
			<path fill="none" d="M101.123,61.508c4.305,0,7.113-5.918,7.578-11.967H94.75c-0.389,0.049-0.786,0.091-1.197,0.114
				C94.045,55.664,96.846,61.508,101.123,61.508z"/>
			<path fill="none" d="M113.877,66.389l-4.414-1.611l-7.061,4.003l-2.719-0.041l-7.095-3.959l-4.377,1.608
				c-0.69,0.332-8.875,4.504-8.387,15.152c0.247,0.391,1.448,1.877,5.274,1.91c-0.119-2.016-0.328-6.516-0.07-10.457l2.169,0.141
				c-0.277,4.25,0.016,9.332,0.112,10.801c2.517,2.228,7.781,3.58,13.866,3.527c5.938-0.043,11.206-1.418,13.619-3.525
				c0.091-1.5,0.356-6.692,0.067-10.869l2.168-0.151c0.273,3.896,0.082,8.494-0.028,10.533c3.782-0.031,4.991-1.494,5.259-1.916
				C122.744,70.904,114.588,66.73,113.877,66.389z"/>
			<path fill="#FF0000" d="M87.729,49.542h2.852c0,0.001,0,0.002,0,0.003c-0.598,1.29-0.813,3.509,2.044,6.353
				c1.546,4.432,4.422,7.786,8.5,7.786c3.998,0,6.95-3.425,8.524-7.968c2.67-2.761,2.444-4.911,1.859-6.173h2.852
				c0.557,0,1.007-0.45,1.007-1.006c0-0.556-0.45-1.006-1.007-1.006h-1.346c0.008-0.153,0.01-0.307,0.01-0.462
				c0-4.835-2.825-8.996-6.889-10.873c0.012,0.475,0.016,1.012,0.016,1.617v1.738c0,5.019-0.272,5.317-4.86,5.317
				s-4.86-0.298-4.86-5.317v-1.738c0-0.607,0.004-1.144,0.021-1.62c-4.063,1.876-6.894,6.04-6.894,10.876
				c0,0.156,0.014,0.308,0.021,0.462H87.73c-0.557,0-1.006,0.45-1.006,1.006C86.723,49.091,87.174,49.542,87.729,49.542z
				 M94.75,49.542h13.951c-0.465,6.049-3.273,11.967-7.578,11.967c-4.277,0-7.078-5.844-7.57-11.853
				C93.964,49.632,94.359,49.59,94.75,49.542z"/>
			<path fill="#FF0000" d="M114.752,64.399l-6.502-2.378l-5.801,3.393h-2.846l-5.802-3.398l-6.387,2.35l-0.079,0.032
				c-0.104,0.047-10.38,4.93-9.671,17.485l0.01,0.16l0.056,0.152c0.056,0.147,1.332,3.434,7.494,3.434
				c0.229,0,0.467-0.008,0.709-0.018c2.922,2.537,8.422,4.024,14.947,4.024c0.104,0,0.208,0,0.313-0.002
				c5.119-0.034,11.619-1.12,14.983-4.022c6.751,0.252,8.12-3.264,8.177-3.416l0.058-0.152l0.01-0.16
				C125.13,69.328,114.855,64.446,114.752,64.399z M122.262,81.531c-0.268,0.424-1.477,1.887-5.258,1.918
				c0.109-2.041,0.301-6.639,0.029-10.533l-2.17,0.15c0.291,4.178,0.023,9.371-0.066,10.869c-2.412,2.108-7.68,3.483-13.617,3.526
				c-6.086,0.052-11.354-1.301-13.867-3.526c-0.098-1.472-0.391-6.552-0.112-10.802l-2.168-0.143
				c-0.259,3.942-0.05,8.44,0.069,10.457c-3.828-0.029-5.027-1.519-5.275-1.908c-0.487-10.647,7.695-14.819,8.387-15.151
				l4.378-1.609l7.095,3.959l2.717,0.039l7.063-4.002l4.414,1.61C114.588,66.73,122.744,70.904,122.262,81.531z"/>
			<path fill="#FF0000" d="M104.915,35.711c-0.038-0.807-0.128-1.344-0.353-1.595c-0.353-0.395-1.418-0.415-3.271-0.415
				c-1.828,0-2.928,0-3.277,0.391c-0.225,0.248-0.313,0.793-0.351,1.62c1.144-0.377,2.358-0.584,3.624-0.584
				C102.555,35.126,103.773,35.333,104.915,35.711z"/>
			<path fill="#FF0000" d="M97.637,39.549c0,2.059,0,3.303,0.377,3.72c0.353,0.389,1.452,0.389,3.277,0.389
				c1.822,0,2.924,0,3.275-0.389c0.377-0.417,0.377-1.66,0.377-3.72V37.81c0-0.84-0.002-1.535-0.029-2.1
				c-1.143-0.377-2.359-0.584-3.627-0.584c-1.266,0-2.482,0.207-3.625,0.584c-0.025,0.566-0.025,1.262-0.025,2.1V39.549
				L97.637,39.549z"/>
		</g>
	</g>
	<g id="Calque_3_3_" display="none">
		<g display="inline">
			<path fill="#FF0000" d="M107.885,48.109c1.73-8.284-3.558-12.955-10.439-12.955c-12.336,0-10.184,13.517-10.184,13.517
				c0.014,0.001,0.026,0.002,0.039,0.003c-0.563,1.275-0.729,3.413,1.945,6.14c1.527,4.469,4.404,7.865,8.5,7.865
				c3.945,0,6.863-3.346,8.439-7.81C109.371,51.658,108.619,49.258,107.885,48.109z M97.746,60.516
				c-4.256,0-7.044-5.815-7.533-11.794c5.352-0.315,8.893-2.85,10.797-4.71c0.905,1.628,2.779,2.72,4.34,3.386
				C105.193,53.811,102.314,60.516,97.746,60.516z"/>
		</g>
		<g display="inline">
			<path fill="none" d="M95.375,85.584c-0.371-0.115-0.678-0.406-0.797-0.797L88.33,64.17c-0.105-0.352-0.045-0.715,0.143-1.001
				l-3.884,1.429c-0.563,0.271-9.542,4.778-8.909,16.213c0.103,0.233,1.25,2.612,6.322,2.612c0.21,0,0.432-0.006,0.658-0.016
				c0.016,0,0.031,0,0.049,0c0.289,0,0.568,0.104,0.787,0.295c2.346,2.034,6.676,3.353,11.842,3.647l-0.09-0.094L95.375,85.584z"/>
			<path fill="none" d="M110.916,64.607l-3.816-1.404c0.187,0.287,0.246,0.649,0.141,0.998l-6.314,20.839
				c-0.117,0.392-0.424,0.681-0.792,0.797l0.107,1.42l-0.063,0.066c4.34-0.296,9.206-1.351,11.844-3.623
				c0.229-0.199,0.524-0.295,0.83-0.291c0.217,0.008,0.432,0.014,0.637,0.014c5.043,0,6.207-2.353,6.322-2.612
				C120.436,69.514,111.677,64.979,110.916,64.607z"/>
			<path fill="#FF0000" d="M111.885,62.406c-0.029-0.013-0.056-0.024-0.084-0.034l-6.208-2.285c-0.606-0.224-1.282,0.074-1.526,0.67
				l-0.821,2.002c-0.123,0.303-0.119,0.641,0.012,0.941c0.134,0.298,0.38,0.532,0.687,0.644l0.668,0.247l-4.021,13.277l-0.413-7.236
				c-0.007-0.108-0.026-0.217-0.063-0.315l1.111-1.574c0.207-0.295,0.271-0.668,0.174-1.016c-0.021-0.074-0.022-0.088-0.775-2.039
				c-0.191-0.492-0.676-0.802-1.201-0.769c-0.127,0.006-0.74,0.008-1.674,0.008c-0.936,0-1.549-0.002-1.676-0.008
				c-0.521-0.037-1.01,0.272-1.2,0.765c-0.927,2.383-0.927,2.383-0.726,2.844c0.033,0.076,0.074,0.146,0.121,0.215l1.11,1.574
				c-0.032,0.102-0.056,0.207-0.063,0.315l-0.397,6.982L90.96,64.561l0.597-0.22c0.307-0.112,0.555-0.346,0.688-0.646
				c0.131-0.298,0.135-0.64,0.01-0.943l-0.829-2c-0.247-0.595-0.922-0.89-1.524-0.667l-6.131,2.254
				c-0.015,0.004-0.027,0.01-0.043,0.016l-0.078,0.032c-0.017,0.007-0.029,0.013-0.045,0.02c-0.109,0.051-11.072,5.235-10.32,18.561
				l0.01,0.16c0.006,0.119,0.03,0.233,0.07,0.347l0.056,0.149c0.157,0.428,1.737,4.203,8.587,4.203c0.094,0,0.189,0,0.288-0.002
				c3.214,2.543,8.743,3.991,15.286,3.991h0.006l0.318-0.002c2.465-0.018,10.693-0.36,15.316-3.989
				c0.09,0.002,0.18,0.002,0.268,0.002c6.857,0,8.43-3.775,8.585-4.205l0.055-0.149c0.041-0.109,0.065-0.226,0.07-0.343l0.01-0.162
				C122.961,67.621,111.995,62.456,111.885,62.406z M95.248,67.955c-0.005-0.01,0.742-1.928,0.742-1.928
				c0.088,0.012,3.423,0.012,3.51,0c0,0,0.732,1.897,0.74,1.928l-1.186,1.684h-2.619L95.248,67.955z M119.809,80.811
				c-0.113,0.263-1.279,2.613-6.322,2.613c-0.203,0-0.42-0.006-0.637-0.014c-0.305-0.004-0.6,0.092-0.83,0.291
				c-2.637,2.273-7.502,3.328-11.843,3.623l-2.433,1.553l-2.406-1.525c-5.166-0.297-9.496-1.61-11.842-3.647
				c-0.219-0.19-0.498-0.295-0.787-0.295c-0.018,0-0.033,0-0.049,0c-0.227,0.01-0.448,0.014-0.658,0.016
				c-5.072,0-6.221-2.379-6.322-2.612C75.047,69.38,84.025,64.871,84.589,64.6l3.884-1.429c-0.187,0.287-0.248,0.65-0.143,1.001
				l6.248,20.617c0.119,0.391,0.427,0.682,0.797,0.797l1.139-14.977h2.461l1.158,15.229c0.368-0.115,0.676-0.406,0.791-0.795
				l6.314-20.84c0.107-0.35,0.047-0.712-0.139-0.998l3.815,1.402C111.677,64.979,120.436,69.514,119.809,80.811z"/>
			<path fill="#FFFFFF" d="M98.432,68.529l0.459-0.652c-0.067-0.172-0.142-0.365-0.213-0.549c-0.24,0-0.547,0-0.933,0
				c-0.388,0-0.694,0-0.937,0c-0.076,0.199-0.148,0.385-0.211,0.547l0.461,0.654H98.432z"/>
			<path fill="#FFFFFF" d="M99.055,69.639l1.187-1.684c-0.009-0.029-0.741-1.928-0.741-1.928c-0.087,0.012-3.421,0.012-3.509,0
				c0,0-0.747,1.918-0.743,1.928l1.188,1.684H99.055z"/>
		</g>
		<g display="inline">
			<path fill="#FF0000" d="M113.229,42.651c0,0.232-0.188,0.42-0.42,0.42h-1.838c-0.232,0-0.42-0.188-0.42-0.42v-1.838
				c0-0.231,0.188-0.419,0.42-0.419h1.838c0.232,0,0.42,0.188,0.42,0.419V42.651z"/>
			<path fill="#FF0000" d="M117.141,42.651c0,0.232-0.188,0.42-0.42,0.42h-1.838c-0.232,0-0.421-0.188-0.421-0.42v-1.838
				c0-0.231,0.188-0.419,0.421-0.419h1.838c0.231,0,0.42,0.188,0.42,0.419V42.651z"/>
			<path fill="#FF0000" d="M121.025,42.651c0,0.232-0.188,0.42-0.422,0.42h-1.836c-0.232,0-0.42-0.188-0.42-0.42v-1.838
				c0-0.231,0.188-0.419,0.42-0.419h1.836c0.233,0,0.422,0.188,0.422,0.419V42.651z"/>
		</g>
		<g display="inline">
			<path fill="none" d="M108.379,47.637c0,0.187-0.005,0.373-0.012,0.558h4.043v4.951l4.031-4.951h10.891V35.269h-23.088v2.093
				C106.773,39.839,108.379,43.522,108.379,47.637z"/>
			<path fill="#FF0000" d="M128.207,32.981H103.37c-0.793,0-1.414,0.668-1.414,1.522v1.611c0.823,0.484,1.591,0.565,2.288,1.248
				v-2.093h23.088v12.926h-10.891l-4.031,4.951v-4.951l-4.525-0.086c-0.027,0.782,0.369,1.632,0.23,2.375h2.007v9.095l7.407-9.095
				h10.678c0.791,0,1.412-0.669,1.412-1.522V34.503C129.619,33.649,128.998,32.981,128.207,32.981z"/>
		</g>
	</g>
	<path fill="none" stroke="#FF0000" stroke-width="2" stroke-miterlimit="10" d="M110.693,47.21c0,2.674-0.666,5.146-1.793,7.147
		c-1.688,2.996-4.406,6.275-7.475,6.275c-3.017,0-5.695-3.218-7.388-6.13c-1.179-2.027-1.877-4.553-1.877-7.293"/>
</g>
<g id="Calque_2_5_">
	<path fill="none" stroke="#FF0000" stroke-width="2" stroke-miterlimit="10" d="M87.818,63.688c1.722-1.022,3.76-1.89,6.174-2.521
		c0,0,2.294,4.5,7.338,4.5s7.152-4.5,7.152-4.5s16.168,3.363,16.625,20.175c0,0-4.271,3.848-8.084,2.17c0,0-0.972,0.953-3.405,1.907
		"/>
	<path fill="none" stroke="#FF0000" stroke-width="2" stroke-miterlimit="10" d="M116.719,71.785c0,0,0.457,7.15,0.305,11.727"/>
</g>
<g>
	
		<line fill="none" stroke="#FF0000" stroke-width="2" stroke-linecap="round" stroke-linejoin="round" stroke-miterlimit="10" x1="90.373" y1="45.05" x2="112.48" y2="45.05"/>
	<path fill="none" stroke="#FF0000" stroke-width="2" stroke-linecap="round" stroke-linejoin="round" stroke-miterlimit="10" d="
		M90.91,43.648v-1.066l1.395-1.02V38.61c0,0,1.021-3.487,4.83-5.258v3.38"/>
	<path fill="none" stroke="#FF0000" stroke-width="2" stroke-linecap="round" stroke-linejoin="round" stroke-miterlimit="10" d="
		M111.854,43.648v-1.066l-1.396-1.02V38.61c0,0-1.019-3.487-4.829-5.258v3.38"/>
	<path fill="none" stroke="#FF0000" stroke-width="2" stroke-linecap="round" stroke-linejoin="round" stroke-miterlimit="10" d="
		M99.229,38.772v-5.766c0,0,0-0.513,0.912-0.513c0.911,0,2.467,0,2.467,0s0.858,0.107,0.858,0.859s0,5.42,0,5.42"/>
</g>
</svg>
