<?xml version="1.0" encoding="utf-8"?>
<!-- Generator: Adobe Illustrator 16.0.0, SVG Export Plug-In . SVG Version: 6.00 Build 0)  -->
<!DOCTYPE svg PUBLIC "-//W3C//DTD SVG 1.1 Tiny//EN" "http://www.w3.org/Graphics/SVG/1.1/DTD/svg11-tiny.dtd">
<svg version="1.1" baseProfile="tiny" xmlns="http://www.w3.org/2000/svg" xmlns:xlink="http://www.w3.org/1999/xlink" x="0px"
	 y="0px" width="128px" height="128px" viewBox="0 0 128 128" xml:space="preserve">
<g id="Calque_3">
	<path id="path17" fill="#FF0000" d="M71.953,5.063c0.071,0.052,0.158,0.127,0.231,0.2l0.035,4.354l0.046,5.598l0.03,3.637
		l3.47,1.091l1.761,0.554c2.344,0.737,4.605,1.665,6.916,2.836c2.616,1.326,3.319,1.682,4.641,1.682
		c2.188,0,2.584-0.394,7.431-5.214c1.104-1.099,2.559-2.547,3.265-3.134h0.052h0.01c0.898,0.752,2.874,2.746,5.475,5.371l0.27,0.272
		c2.795,2.822,4.919,4.965,5.709,5.933c-0.607,0.724-2.042,2.163-3.135,3.259l-3.785,3.797l-2.535,2.542l1.6,3.214l1.22,2.452
		c1.234,2.48,2.081,4.558,2.832,6.947l0.553,1.761l1.09,3.473l3.639,0.03l5.601,0.047l4.353,0.035
		c0.073,0.073,0.149,0.16,0.201,0.232v7.953v7.955c-0.052,0.072-0.128,0.159-0.201,0.232l-4.363,0.035l-5.605,0.047l-3.677,0.031
		l-1.066,3.519l-0.396,1.31c-0.736,2.432-2.313,6.137-3.665,8.611l-0.563,1.028l-1.799,3.282l2.643,2.65l3.852,3.864
		c1.532,1.538,2.578,2.646,3.142,3.269c-0.761,0.902-2.854,2.999-5.615,5.764l-0.217,0.218c-2.668,2.671-4.7,4.705-5.635,5.487
		c-0.723-0.606-2.15-2.03-3.239-3.117c-4.938-4.919-5.233-5.214-7.412-5.214c-1.281,0-1.826,0.271-4.853,1.771
		c-2.53,1.256-4.366,2.005-6.773,2.764l-1.711,0.539l-3.467,1.092l-0.03,3.635l-0.047,5.6l-0.035,4.354
		c-0.053,0.053-0.112,0.106-0.168,0.15c-0.925,0.05-3.409,0.058-7.505,0.071l-1.56,0.002c-3.738,0-6.146-0.033-6.939-0.062
		c-0.067-0.031-0.146-0.084-0.208-0.139l-0.036-4.389l-0.045-5.605l-0.029-3.678l-3.52-1.067l-1.315-0.398
		c-2.381-0.72-5.876-2.205-8.496-3.609l-1.18-0.634l-3.268-1.756l-2.627,2.618l-3.865,3.85c-1.537,1.53-2.644,2.578-3.268,3.142
		c-0.952-0.792-3.237-3.082-5.834-5.685l-0.183-0.184c-2.644-2.648-4.66-4.669-5.446-5.606c0.614-0.73,2.048-2.168,3.141-3.265
		l3.788-3.801l2.536-2.544l-1.602-3.215l-1.22-2.449c-1.243-2.495-2.091-4.571-2.836-6.943l-0.553-1.761l-1.09-3.472l-3.639-0.03
		l-5.597-0.047l-4.353-0.035c-0.073-0.072-0.148-0.159-0.201-0.231v-7.956v-7.954c0.052-0.072,0.127-0.159,0.201-0.232l4.356-0.035
		l5.6-0.046l3.655-0.03l1.081-3.491l0.476-1.536c0.666-2.152,1.964-5.3,3.02-7.32l1.103-2.108l1.695-3.241l-2.574-2.597
		l-3.812-3.846c-1.183-1.193-2.614-2.638-3.195-3.343c0-0.015,0-0.031,0-0.047v-0.007c0.752-0.899,2.75-2.879,5.38-5.486
		l0.268-0.265c2.719-2.695,4.941-4.898,5.929-5.707c0.727,0.611,2.146,2.027,3.229,3.106c4.331,4.316,5.231,5.214,7.528,5.214
		c1.121,0,2.227-0.346,3.142-0.967c0.244-0.134,0.806-0.43,1.622-0.839c2.104-1.052,4.48-2.015,6.693-2.71l1.762-0.554l3.471-1.092
		l0.029-3.638l0.045-5.596l0.036-4.366c0.068-0.07,0.149-0.142,0.215-0.188h7.972H71.953 M72.957,0.063h-8.959h-8.96l-0.899,0.362
		c-1.141,0.459-2.353,1.59-2.902,2.708l-0.414,0.845l-0.047,5.598l-0.045,5.598l-1.762,0.554c-2.477,0.779-5.084,1.835-7.43,3.008
		c-1.105,0.554-2.075,1.068-2.154,1.143c-0.078,0.074-0.246,0.136-0.373,0.136s-1.926-1.69-3.999-3.756
		c-4.4-4.386-4.716-4.601-6.783-4.601c-2.157,0-2.204,0.035-9.425,7.192c-7.211,7.147-7.122,7.03-7.127,9.297
		c-0.004,2.148,0.169,2.406,4.644,6.921l3.812,3.846l-1.103,2.108c-1.195,2.286-2.613,5.723-3.367,8.161l-0.475,1.535l-5.6,0.046
		L3.988,50.81l-0.857,0.422c-1.089,0.535-2.248,1.787-2.709,2.93l-0.349,0.865v8.959v8.961l0.349,0.865
		c0.461,1.143,1.62,2.395,2.709,2.93l0.857,0.422l5.598,0.045l5.595,0.047l0.553,1.761c0.823,2.62,1.768,4.938,3.131,7.675
		l1.22,2.449l-3.788,3.801c-4.419,4.433-4.632,4.746-4.632,6.812c0,2.187-0.059,2.108,7.123,9.305
		c6.646,6.659,6.887,6.861,8.573,7.179c0.229,0.043,0.479,0.063,0.739,0.063c0.798,0,1.695-0.194,2.385-0.537
		c0.361-0.179,2.174-1.862,4.472-4.151l3.865-3.851l1.18,0.634c2.923,1.567,6.705,3.172,9.416,3.991l1.311,0.397l0.045,5.605
		l0.047,5.607l0.416,0.848c0.765,1.555,2.377,2.736,4.094,2.998c0.371,0.057,3.656,0.096,7.627,0.096
		c0.515,0,1.04-0.001,1.572-0.002c8.427-0.027,8.434-0.027,9.297-0.373c1.144-0.459,2.396-1.615,2.932-2.707l0.421-0.857
		l0.046-5.598l0.047-5.599l1.711-0.539c2.639-0.832,4.742-1.688,7.492-3.053c1.385-0.687,2.569-1.25,2.631-1.25
		c0.063,0,1.81,1.69,3.883,3.756c4.379,4.369,4.713,4.601,6.752,4.601c0.009,0,0.019,0,0.027,0c2.215-0.002,2.12,0.07,9.379-7.197
		c6.707-6.717,6.782-6.807,7.106-8.521c0.171-0.904-0.026-2.193-0.478-3.098c-0.178-0.362-1.861-2.176-4.151-4.475l-3.853-3.865
		l0.563-1.028c1.512-2.769,3.231-6.812,4.065-9.565l0.396-1.309l5.605-0.047l5.607-0.045l0.855-0.422
		c1.091-0.535,2.248-1.787,2.709-2.93l0.351-0.865v-8.961v-8.959l-0.351-0.865c-0.461-1.143-1.618-2.395-2.709-2.93l-0.855-0.422
		l-5.599-0.045l-5.599-0.047l-0.553-1.761c-0.83-2.641-1.77-4.951-3.126-7.677l-1.22-2.452l3.785-3.797
		c4.408-4.422,4.615-4.728,4.623-6.812c0.01-2.156-0.024-2.2-7.187-9.429c-7.146-7.213-7.024-7.12-9.297-7.124
		c-0.025,0-0.051,0-0.075,0c-2.081,0-2.393,0.225-6.777,4.59c-2.078,2.067-3.834,3.758-3.903,3.758s-1.142-0.514-2.381-1.142
		c-2.544-1.29-5.085-2.331-7.675-3.146l-1.762-0.554L77.22,9.576l-0.046-5.598l-0.421-0.857c-0.535-1.089-1.788-2.248-2.931-2.709
		L72.957,0.063L72.957,0.063z"/>
</g>
<g id="Calque_2">
	<g>
		<path fill="none" stroke="#FF0000" stroke-width="2" stroke-linecap="round" stroke-linejoin="round" stroke-miterlimit="10" d="
			M91.869,62.683c-0.015-0.271-0.037-0.544-0.057-0.814c-0.012-0.143-0.02-0.286-0.034-0.43
			c-1.298-14.187-13.258-25.34-27.779-25.34v55.803c14.524,0,26.484-11.154,27.779-25.344c0.014-0.137,0.021-0.275,0.034-0.412
			c0.02-0.275,0.042-0.553,0.057-0.83c0.021-0.438,0.032-0.875,0.032-1.315S91.89,63.122,91.869,62.683z M72.612,40.056
			c0.168,0.06,0.336,0.126,0.502,0.19c0.214,0.083,0.427,0.164,0.64,0.253c0.166,0.068,0.331,0.144,0.497,0.218
			c0.207,0.09,0.413,0.182,0.616,0.279c0.165,0.079,0.329,0.161,0.492,0.243c0.198,0.099,0.396,0.199,0.593,0.304
			c0.163,0.086,0.323,0.178,0.485,0.268c0.19,0.109,0.382,0.217,0.569,0.329c0.16,0.096,0.317,0.193,0.475,0.292
			c0.184,0.115,0.367,0.232,0.548,0.352c0.156,0.103,0.311,0.209,0.463,0.316c0.179,0.123,0.354,0.246,0.527,0.374
			c0.151,0.112,0.302,0.225,0.451,0.34c0.169,0.129,0.337,0.261,0.503,0.395c0.146,0.118,0.292,0.241,0.437,0.362
			c0.163,0.137,0.323,0.275,0.481,0.417c0.144,0.126,0.281,0.254,0.422,0.383c0.155,0.145,0.309,0.29,0.458,0.438
			c0.138,0.134,0.272,0.268,0.406,0.405c0.147,0.15,0.292,0.302,0.436,0.456c0.13,0.142,0.259,0.281,0.387,0.425
			c0.141,0.156,0.277,0.315,0.413,0.476c0.124,0.146,0.246,0.295,0.369,0.443c0.131,0.162,0.26,0.328,0.387,0.494
			c0.118,0.152,0.235,0.307,0.351,0.461c0.123,0.17,0.244,0.342,0.364,0.514c0.11,0.157,0.221,0.314,0.327,0.476
			c0.116,0.177,0.228,0.354,0.341,0.532c0.103,0.163,0.206,0.326,0.305,0.492c0.107,0.181,0.213,0.365,0.315,0.549
			c0.096,0.168,0.189,0.336,0.281,0.506c0.101,0.187,0.195,0.377,0.292,0.566c0.086,0.172,0.174,0.344,0.257,0.52
			c0.038,0.08,0.072,0.163,0.109,0.246h-7.72c-1.382-5.6-3.821-10.284-6.898-13.355C72.533,40.029,72.572,40.041,72.612,40.056z
			 M65.226,38.652c5.186,0.8,9.58,6.612,11.669,14.718H65.226V38.652z M65.226,55.823h12.217c0.486,2.566,0.755,5.316,0.755,8.177
			c0,2.858-0.268,5.604-0.755,8.173H65.226V55.823z M65.226,89.347V74.624h11.67C74.808,82.733,70.413,88.546,65.226,89.347z
			 M87.002,74.876c-0.083,0.176-0.171,0.348-0.257,0.52c-0.097,0.191-0.191,0.379-0.292,0.568c-0.092,0.17-0.186,0.336-0.281,0.504
			c-0.103,0.184-0.208,0.369-0.315,0.551c-0.099,0.164-0.202,0.326-0.305,0.49c-0.113,0.178-0.225,0.355-0.341,0.531
			c-0.106,0.162-0.217,0.32-0.327,0.477c-0.12,0.174-0.241,0.344-0.364,0.512c-0.115,0.158-0.232,0.313-0.351,0.465
			c-0.127,0.166-0.256,0.33-0.387,0.492c-0.123,0.15-0.245,0.297-0.369,0.443c-0.136,0.16-0.272,0.318-0.413,0.477
			c-0.128,0.143-0.257,0.283-0.387,0.424c-0.144,0.156-0.288,0.307-0.436,0.455c-0.134,0.139-0.269,0.271-0.406,0.404
			c-0.149,0.15-0.303,0.295-0.458,0.438c-0.141,0.131-0.278,0.26-0.422,0.387c-0.158,0.141-0.318,0.277-0.481,0.416
			c-0.145,0.123-0.291,0.242-0.437,0.363c-0.166,0.133-0.334,0.264-0.503,0.395c-0.149,0.115-0.3,0.229-0.451,0.34
			c-0.174,0.127-0.349,0.25-0.527,0.375c-0.152,0.107-0.307,0.213-0.463,0.316c-0.181,0.121-0.364,0.236-0.548,0.35
			c-0.157,0.102-0.314,0.197-0.475,0.293c-0.188,0.113-0.379,0.223-0.569,0.33c-0.162,0.092-0.322,0.182-0.485,0.268
			c-0.196,0.105-0.395,0.205-0.593,0.303c-0.163,0.084-0.327,0.166-0.492,0.244c-0.203,0.096-0.409,0.189-0.616,0.279
			c-0.166,0.074-0.331,0.148-0.497,0.217c-0.213,0.09-0.426,0.17-0.64,0.254c-0.166,0.063-0.334,0.129-0.502,0.189
			c-0.04,0.014-0.079,0.027-0.119,0.041c3.078-3.072,5.518-7.76,6.9-13.361h7.722C87.076,74.708,87.04,74.792,87.002,74.876z
			 M89.418,65.155c-0.008,0.193-0.022,0.387-0.035,0.58c-0.011,0.162-0.023,0.324-0.037,0.486c-0.026,0.285-0.054,0.572-0.09,0.855
			c-0.001,0.012-0.003,0.023-0.004,0.035c-0.216,1.705-0.609,3.396-1.181,5.061h-8.15c0.473-2.588,0.73-5.33,0.73-8.173
			c0-2.845-0.258-5.59-0.73-8.177h8.15c0.569,1.656,0.961,3.344,1.179,5.048c0.003,0.021,0.005,0.04,0.007,0.062
			c0.035,0.279,0.063,0.561,0.088,0.842c0.015,0.164,0.027,0.33,0.038,0.496c0.013,0.191,0.027,0.383,0.035,0.574
			c0.018,0.383,0.03,0.766,0.03,1.155C89.448,64.388,89.436,64.772,89.418,65.155z"/>
		<path fill="none" stroke="#FF0000" stroke-width="2" stroke-linecap="round" stroke-linejoin="round" stroke-miterlimit="10" d="
			M36.359,60.229c-0.005,0.035-0.009,0.07-0.013,0.105c-0.047,0.359-0.092,0.719-0.125,1.084c-0.017,0.169-0.026,0.34-0.039,0.51
			c-0.019,0.25-0.039,0.498-0.051,0.748c-0.022,0.441-0.034,0.881-0.034,1.323c0,0.44,0.012,0.882,0.034,1.321
			c0.012,0.252,0.032,0.498,0.051,0.746c0.012,0.172,0.022,0.342,0.039,0.512c0.032,0.359,0.076,0.717,0.123,1.072
			c0.004,0.039,0.008,0.074,0.014,0.113c1.846,13.609,13.533,24.137,27.641,24.137V36.098
			C49.894,36.098,38.206,46.624,36.359,60.229z M55.5,40.018c-3.077,3.07-5.517,7.755-6.899,13.353h-7.715
			C43.747,47.175,49.021,42.319,55.5,40.018z M38.757,67.187c-0.006-0.055-0.014-0.109-0.02-0.164
			c-0.033-0.258-0.059-0.518-0.082-0.777c-0.016-0.18-0.029-0.361-0.041-0.543c-0.012-0.18-0.025-0.359-0.034-0.541
			c-0.018-0.385-0.029-0.771-0.029-1.161s0.012-0.776,0.029-1.163c0.009-0.18,0.021-0.358,0.034-0.538
			c0.012-0.184,0.025-0.367,0.041-0.55c0.023-0.258,0.051-0.52,0.083-0.777c0.005-0.054,0.013-0.107,0.021-0.161
			c0.217-1.686,0.605-3.353,1.165-4.987h8.149c-0.475,2.587-0.732,5.332-0.732,8.177c0,2.843,0.256,5.585,0.73,8.173h-8.152
			C39.36,70.534,38.976,68.866,38.757,67.187z M40.884,74.624h7.715c1.383,5.602,3.822,10.287,6.901,13.359
			C49.021,85.683,43.743,80.823,40.884,74.624z M62.772,89.347c-5.189-0.799-9.588-6.613-11.676-14.723h11.676V89.347z
			 M62.772,72.173H50.55c-0.486-2.568-0.756-5.314-0.756-8.173c0-2.86,0.27-5.61,0.758-8.177h12.221V72.173z M62.772,53.37H51.099
			c2.089-8.106,6.486-13.918,11.674-14.718V53.37z"/>
	</g>
</g>
</svg>
