<?xml version="1.0" encoding="utf-8"?>
<!-- Generator: Adobe Illustrator 16.0.0, SVG Export Plug-In . SVG Version: 6.00 Build 0)  -->
<!DOCTYPE svg PUBLIC "-//W3C//DTD SVG 1.1//EN" "http://www.w3.org/Graphics/SVG/1.1/DTD/svg11.dtd">
<svg version="1.1" id="Calque_1" xmlns="http://www.w3.org/2000/svg" xmlns:xlink="http://www.w3.org/1999/xlink" x="0px" y="0px"
	 width="128px" height="128px" viewBox="0 0 128 128" enable-background="new 0 0 128 128" xml:space="preserve">
<g id="Calque_2">
	<g>
		<g>
			<path fill="none" stroke="#FF0000" stroke-width="5" stroke-linecap="round" stroke-linejoin="round" stroke-miterlimit="10" d="
				M109.367,58.896c1.796-4.153,2.769-8.598,2.769-13.218c0-22.983-24.059-41.613-53.739-41.613
				c-29.678,0-53.739,18.63-53.739,41.613c0,12.18,6.76,23.134,17.531,30.744h-0.004v23.53l15.784-15.783
				c6.299,2.007,13.194,3.121,20.427,3.121c4.005,0,7.908-0.34,11.663-0.983"/>
		</g>
	</g>
	<g enable-background="new    ">
		<path fill="#FF0000" d="M91.462,61.984c0,0.552-0.198,1.025-0.595,1.421C90.471,63.802,89.997,64,89.446,64
			c-0.896,0-1.533-0.413-1.912-1.24l-3.463-8.373H64.069l-3.463,8.373C60.33,63.587,59.71,64,58.746,64
			c-0.587,0-1.06-0.198-1.422-0.595c-0.361-0.396-0.542-0.869-0.542-1.421c0-0.344,0.051-0.638,0.154-0.879L72.132,25.03
			c0.379-0.93,1.034-1.395,1.964-1.395c0.931,0,1.567,0.465,1.913,1.395l15.246,36.127C91.393,61.398,91.462,61.674,91.462,61.984z
			 M65.517,50.924h17.159l-8.58-20.726L65.517,50.924z"/>
	</g>
</g>
<g id="Calque_3">
	
		<line fill="none" stroke="#FF0000" stroke-width="5" stroke-linecap="round" stroke-linejoin="round" stroke-miterlimit="10" x1="20.682" y1="28.003" x2="58.392" y2="28.003"/>
	<path fill="none" stroke="#FF0000" stroke-width="5" stroke-linecap="round" stroke-linejoin="round" stroke-miterlimit="10" d="
		M28.532,28.003c0,0,1.194,18.942,24.057,26.278"/>
	<path fill="none" stroke="#FF0000" stroke-width="5" stroke-linecap="round" stroke-linejoin="round" stroke-miterlimit="10" d="
		M50.884,28.003c0,0-0.171,21.159-29.178,29.008"/>
	
		<line fill="none" stroke="#FF0000" stroke-width="5" stroke-linecap="round" stroke-linejoin="round" stroke-miterlimit="10" x1="39.538" y1="20.667" x2="42.864" y2="28.003"/>
</g>
<path fill="none" stroke="#FF0000" stroke-width="5" stroke-linecap="round" stroke-linejoin="round" stroke-miterlimit="10" d="
	M93.466,101.398c0,3.92-3.17,7.091-7.09,7.091c-0.62,0-1.22-0.08-1.79-0.229c0,0-0.93-0.341-2.521-0.82
	c-0.96-0.291-2.17-0.631-3.56-0.961v18.24h46.63v-46.63h-17.72c0.35-1.26,0.66-2.28,0.89-2.989c0.229-0.701,0.37-1.09,0.37-1.09
	c0.15-0.57,0.23-1.171,0.23-1.791c0-3.92-3.17-7.09-7.091-7.09c-3.909,0-7.079,3.17-7.079,7.09c0,0.62,0.079,1.221,0.229,1.791
	c0,0,0.569,1.559,1.26,4.079h-17.72v18.229c3.66-0.879,6.08-1.77,6.08-1.77c0.57-0.15,1.17-0.23,1.79-0.23
	C90.296,94.318,93.466,97.489,93.466,101.398z"/>
</svg>
