<?xml version="1.0" encoding="utf-8"?>
<!-- Generator: Adobe Illustrator 16.0.0, SVG Export Plug-In . SVG Version: 6.00 Build 0)  -->
<!DOCTYPE svg PUBLIC "-//W3C//DTD SVG 1.1//EN" "http://www.w3.org/Graphics/SVG/1.1/DTD/svg11.dtd">
<svg version="1.1" id="Calque_1" xmlns="http://www.w3.org/2000/svg" xmlns:xlink="http://www.w3.org/1999/xlink" x="0px" y="0px"
	 width="128px" height="128px" viewBox="0 0 128 128" enable-background="new 0 0 128 128" xml:space="preserve">
<g id="Calque_2">
</g>
<g id="Calque_3_1_">
	<g id="Calque_3">
		<g>
			<path fill="none" stroke="#FF0000" stroke-width="5" stroke-linecap="round" stroke-linejoin="round" stroke-miterlimit="10" d="
				M56.654,55.605c0,0.578-0.469,1.049-1.049,1.049H5.548c-0.579,0-1.048-0.471-1.048-1.049V5.548C4.5,4.969,4.969,4.5,5.548,4.5
				h50.058c0.58,0,1.049,0.469,1.049,1.048L56.654,55.605L56.654,55.605z"/>
			<circle fill="#FF0000" cx="16.424" cy="17.481" r="3.704"/>
			<line fill="none" stroke="#FF0000" stroke-width="4" stroke-miterlimit="10" x1="24.219" y1="17.48" x2="46.23" y2="17.48"/>
			<circle fill="#FF0000" cx="16.424" cy="30.577" r="3.704"/>
			<line fill="none" stroke="#FF0000" stroke-width="4" stroke-miterlimit="10" x1="24.219" y1="30.578" x2="46.23" y2="30.578"/>
			<circle fill="#FF0000" cx="16.424" cy="43.673" r="3.704"/>
			<line fill="none" stroke="#FF0000" stroke-width="4" stroke-miterlimit="10" x1="24.219" y1="43.672" x2="46.23" y2="43.672"/>
		</g>
	</g>
</g>
<g id="Calque_2_2_">
	
		<polyline fill="none" stroke="#FF0000" stroke-width="5" stroke-linecap="round" stroke-linejoin="round" stroke-miterlimit="10" points="
		25.261,65.43 25.261,100.362 72.934,122.146 119.373,98.307 119.373,48.169 72.317,25.155 64.331,28.573 	"/>
	
		<polyline fill="none" stroke="#FF0000" stroke-width="5" stroke-linecap="round" stroke-linejoin="round" stroke-miterlimit="10" points="
		62.235,61.313 72.317,65.43 72.317,112.691 	"/>
	
		<line fill="none" stroke="#FF0000" stroke-width="5" stroke-linecap="round" stroke-linejoin="round" stroke-miterlimit="10" x1="72.317" y1="65.43" x2="110.958" y2="51.256"/>
</g>
<g>
	<path fill="#FF0000" d="M31.675,90.405l0.729-22.575c0.033-0.989,0.329-1.735,0.892-2.244c0.563-0.505,1.211-0.615,1.955-0.324
		l8.834,3.462c0.73,0.287,1.35,0.893,1.859,1.819c0.511,0.928,0.753,1.888,0.721,2.874l-0.731,22.576
		c-0.032,1.001-0.329,1.752-0.885,2.253c-0.556,0.503-1.213,0.607-1.966,0.313l-8.798-3.446c-0.763-0.299-1.399-0.913-1.903-1.83
		C31.875,92.365,31.643,91.405,31.675,90.405z M43.141,94.761l0.72-22.259l-8.632-3.381l-0.72,22.257L43.141,94.761L43.141,94.761z"
		/>
	<path fill="#FF0000" d="M66.697,105.901c-0.017,0.522-0.173,0.912-0.454,1.174c-0.291,0.258-0.63,0.313-1.024,0.157l-11.428-4.479
		c-0.394-0.154-0.72-0.479-0.988-0.966c-0.261-0.492-0.381-1.001-0.366-1.522c0.017-0.51,0.167-0.887,0.452-1.141
		c0.291-0.25,0.629-0.298,1.024-0.145l4.348,1.704l0.719-22.256l-4.283-1.681c-0.393-0.152-0.72-0.47-0.984-0.941
		c-0.265-0.476-0.388-0.978-0.371-1.498c0.018-0.527,0.168-0.915,0.457-1.178c0.288-0.258,0.628-0.311,1.02-0.156l7.115,2.788
		l-0.843,26.033l2.833,1.108C63.924,102.904,66.77,103.674,66.697,105.901z"/>
</g>
</svg>
