<?xml version="1.0" encoding="UTF-8" standalone="no"?>
<!DOCTYPE svg PUBLIC "-//W3C//DTD SVG 1.1//EN" "http://www.w3.org/Graphics/SVG/1.1/DTD/svg11.dtd">
<svg width="100%" height="100%" viewBox="0 0 128 128" version="1.1" xmlns="http://www.w3.org/2000/svg" xmlns:xlink="http://www.w3.org/1999/xlink" xml:space="preserve" xmlns:serif="http://www.serif.com/" style="fill-rule:evenodd;clip-rule:evenodd;stroke-linecap:round;stroke-linejoin:round;stroke-miterlimit:10;">
    <g id="path17">
        <path d="M71.969,5.142C72.039,5.194 72.127,5.269 72.199,5.342L72.234,9.696L72.281,15.294L72.31,18.931L75.781,20.022L77.541,20.576C79.886,21.313 82.146,22.241 84.457,23.412C87.074,24.738 87.776,25.094 89.099,25.094C91.287,25.094 91.683,24.7 96.53,19.88C97.634,18.781 99.089,17.333 99.796,16.746L99.858,16.746C100.755,17.498 102.732,19.492 105.334,22.117L105.604,22.389C108.399,25.211 110.523,27.354 111.313,28.322C110.706,29.046 109.271,30.485 108.178,31.581L104.393,35.378L101.858,37.92L103.458,41.134L104.679,43.586C105.913,46.066 106.759,48.144 107.511,50.533L108.064,52.294L109.154,55.766L112.795,55.796L118.394,55.842L122.748,55.878C122.821,55.951 122.896,56.039 122.948,56.111L122.948,72.02C122.896,72.091 122.82,72.178 122.748,72.251L118.385,72.286L112.78,72.333L109.103,72.364L108.038,75.883L107.642,77.194C106.906,79.626 105.329,83.331 103.977,85.805L103.414,86.832L101.615,90.114L104.258,92.763L108.111,96.627C109.643,98.165 110.689,99.273 111.253,99.896C110.492,100.798 108.399,102.896 105.638,105.661L105.421,105.879C102.753,108.55 100.722,110.584 99.786,111.366C99.063,110.76 97.636,109.336 96.548,108.249C91.61,103.33 91.315,103.035 89.136,103.035C87.855,103.035 87.31,103.306 84.282,104.806C81.753,106.062 79.917,106.81 77.509,107.57L75.798,108.109L72.331,109.201L72.302,112.836L72.255,118.436L72.22,122.79C72.167,122.843 72.108,122.896 72.052,122.939C71.126,122.99 68.643,122.998 64.546,123.011L62.987,123.013C59.249,123.013 56.842,122.98 56.048,122.95C55.981,122.919 55.901,122.865 55.84,122.809L55.804,118.42L55.758,112.815L55.728,109.139L52.21,108.072L50.895,107.674C48.513,106.954 45.018,105.47 42.398,104.064L41.218,103.431L37.95,101.676L35.323,104.293L31.459,108.144C29.922,109.673 28.815,110.722 28.191,111.286C27.239,110.494 24.954,108.204 22.357,105.601L22.174,105.416C19.53,102.769 17.514,100.747 16.728,99.81C17.342,99.081 18.776,97.642 19.869,96.545L23.657,92.744L26.193,90.2L24.591,86.985L23.371,84.536C22.128,82.041 21.28,79.965 20.535,77.593L19.982,75.832L18.892,72.36L15.253,72.33L9.648,72.286L5.295,72.251C5.222,72.179 5.147,72.092 5.094,72.021L5.094,56.11C5.146,56.038 5.221,55.951 5.294,55.879L9.651,55.843L15.251,55.797L18.906,55.767L19.987,52.276L20.463,50.74C21.129,48.588 22.427,45.44 23.483,43.42L24.586,41.312L26.281,38.071L23.707,35.474L19.895,31.628C18.712,30.435 17.281,28.99 16.7,28.285L16.7,28.231C17.452,27.332 19.45,25.352 22.08,22.745L22.348,22.48C25.067,19.785 27.289,17.582 28.277,16.773C29.004,17.384 30.423,18.8 31.506,19.879C35.837,24.195 36.738,25.093 39.034,25.093C40.147,25.093 41.245,24.752 42.162,24.133C42.4,24.003 42.966,23.703 43.797,23.287C45.902,22.235 48.279,21.272 50.492,20.577L52.253,20.023L55.722,18.931L55.752,15.294L55.798,9.696L55.834,5.331C55.902,5.261 55.983,5.189 56.049,5.142L71.969,5.142" style="fill:none;fill-rule:nonzero;stroke:rgb(255,0,0);stroke-width:5px;"/>
    </g>
    <path id="path19" d="M61.816,87.85C60.437,87.704 57.861,87.147 56.571,86.719C48.256,83.96 42.219,77.063 40.481,68.33C40,65.912 40.001,62.083 40.483,59.659C42.448,49.788 49.787,42.452 59.67,40.481C62.066,40.003 65.902,40.005 68.33,40.484C74.894,41.781 80.357,45.427 83.98,50.927C89.211,58.872 89.211,69.127 83.98,77.073C80.383,82.534 74.853,86.236 68.42,87.493C66.828,87.803 63.211,87.999 61.816,87.85Z" style="fill:none;fill-rule:nonzero;stroke:rgb(255,0,0);stroke-width:5px;stroke-linecap:butt;stroke-linejoin:miter;"/>
</svg>
