<?xml version="1.0" encoding="utf-8"?>
<!-- Generator: Adobe Illustrator 16.0.0, SVG Export Plug-In . SVG Version: 6.00 Build 0)  -->
<!DOCTYPE svg PUBLIC "-//W3C//DTD SVG 1.1//EN" "http://www.w3.org/Graphics/SVG/1.1/DTD/svg11.dtd">
<svg version="1.1" xmlns="http://www.w3.org/2000/svg" xmlns:xlink="http://www.w3.org/1999/xlink" x="0px" y="0px" width="128px"
	 height="128px" viewBox="0 0 128 128" enable-background="new 0 0 128 128" xml:space="preserve">
<g id="Calque_1">
	<g id="Calque_2">
		<g>
			
				<polyline fill="none" stroke="#FF0000" stroke-width="5" stroke-linecap="round" stroke-linejoin="round" stroke-miterlimit="10" points="
				17.5,88.295 6.318,88.295 6.318,15.435 122.111,15.435 122.111,70.435 			"/>
			
				<polyline fill="none" stroke="#FF0000" stroke-width="5" stroke-linecap="round" stroke-linejoin="round" stroke-miterlimit="10" points="
				6.318,15.435 64.214,61.162 122.111,15.435 			"/>
			
				<line fill="none" stroke="#FF0000" stroke-width="5" stroke-linecap="round" stroke-linejoin="round" stroke-miterlimit="10" x1="52.443" y1="51.863" x2="6.32" y2="88.287"/>
			
				<line fill="none" stroke="#FF0000" stroke-width="5" stroke-linecap="round" stroke-linejoin="round" stroke-miterlimit="10" x1="88.828" y1="61.998" x2="75.997" y2="51.863"/>
		</g>
	</g>
	<g id="Calque_3">
	</g>
	
		<circle fill="none" stroke="#FF0000" stroke-width="5" stroke-linecap="round" stroke-linejoin="round" stroke-miterlimit="10" cx="95.944" cy="96.023" r="27.576"/>
	
		<polyline fill="none" stroke="#FF0000" stroke-width="5" stroke-linecap="round" stroke-linejoin="round" stroke-miterlimit="10" points="
		82.053,96.023 91.498,110.541 109.834,86.493 	"/>
	<g id="Calque_2_1_">
	</g>
</g>
<g id="Calque_2_2_">
	<g id="Calque_1_1_" xmlns:serif="http://www.serif.com/">
		<g id="path17">
			<path fill="none" stroke="#FF0000" stroke-width="5" stroke-linecap="round" stroke-linejoin="round" stroke-miterlimit="10" d="
				M66.603,123.588c-0.434,0.024-1.595,0.027-3.511,0.033l-0.728,0.002c-1.748,0-2.873-0.016-3.245-0.029
				c-0.03-0.014-0.068-0.041-0.097-0.065l-0.017-2.054l-0.022-2.622l-0.014-1.716l-1.645-0.499l-0.614-0.187
				c-1.114-0.337-2.748-1.029-3.973-1.688l-0.552-0.297l-1.529-0.821l-1.227,1.226l-1.807,1.8c-0.719,0.715-1.237,1.205-1.528,1.469
				c-0.444-0.37-1.512-1.44-2.727-2.657l-0.086-0.087c-1.235-1.237-2.179-2.183-2.548-2.621c0.288-0.341,0.959-1.014,1.471-1.527
				l1.771-1.776l1.186-1.188l-0.749-1.504l-0.57-1.146c-0.582-1.168-0.979-2.137-1.326-3.245l-0.259-0.824l-0.51-1.624l-1.702-0.014
				l-2.621-0.021l-2.035-0.017c-0.034-0.033-0.068-0.074-0.095-0.107v-7.438c0.025-0.035,0.061-0.073,0.095-0.109l2.037-0.015
				l2.618-0.022l1.709-0.014l0.505-1.633l0.222-0.718c0.311-1.008,0.92-2.479,1.412-3.422l0.517-0.986l0.792-1.516l-1.203-1.215
				l-1.782-1.797c-0.553-0.558-1.223-1.232-1.495-1.564v-0.025c0.353-0.419,1.286-1.344,2.516-2.563l0.125-0.125
				c1.27-1.26,2.31-2.289,2.771-2.669c0.34,0.288,1.004,0.949,1.511,1.453c2.025,2.019,2.446,2.439,3.519,2.439
				c0.52,0,1.033-0.161,1.463-0.45c0.11-0.06,0.375-0.201,0.764-0.396c0.984-0.49,2.095-0.94,3.131-1.266l0.822-0.26l1.623-0.511
				l0.013-1.701L59,70.642l0.019-2.04c0.032-0.034,0.069-0.067,0.1-0.089h7.439"/>
			<path fill="none" stroke="#FF0000" stroke-width="5" stroke-linecap="round" stroke-linejoin="round" stroke-miterlimit="10" d="
				M66.559,68.513"/>
		</g>
		<path id="path19_1_" fill="none" stroke="#FF0000" stroke-width="5" stroke-miterlimit="10" d="M64.9,107.015
			c-0.746,0.146-2.436,0.236-3.089,0.168c-0.645-0.069-1.849-0.33-2.451-0.527c-3.888-1.291-6.711-4.518-7.522-8.6
			c-0.225-1.13-0.225-2.92,0-4.054c0.919-4.614,4.35-8.046,8.971-8.967c1.119-0.223,2.913-0.222,4.048,0.002"/>
	</g>
</g>
</svg>
