<?xml version="1.0" encoding="utf-8"?>
<!-- Generator: Adobe Illustrator 16.0.0, SVG Export Plug-In . SVG Version: 6.00 Build 0)  -->
<!DOCTYPE svg PUBLIC "-//W3C//DTD SVG 1.1//EN" "http://www.w3.org/Graphics/SVG/1.1/DTD/svg11.dtd">
<svg version="1.1" xmlns="http://www.w3.org/2000/svg" xmlns:xlink="http://www.w3.org/1999/xlink" x="0px" y="0px" width="128px"
	 height="128px" viewBox="0 0 128 128" enable-background="new 0 0 128 128" xml:space="preserve">
<g id="Calque_1">
	<g>
		<g>
			<g>
				
					<path fill="none" stroke="#FF0000" stroke-width="5" stroke-linecap="round" stroke-linejoin="round" stroke-miterlimit="10" d="
					M60.643,98.457l14.155,7.781l39.208-24.258c0.453-0.283,0.979-0.431,1.51-0.431c1.904,0,3.567,1.296,4.027,3.142l0.4,1.588
					c0.509,2.051-0.26,4.205-1.957,5.467L76.549,122.52c-1.156,0.861-2.459,1.498-3.852,1.883l-1.959,0.541
					c-1.319,0.373-2.725,0.339-4.021-0.094l-41.072-13.623c-1.869-0.621-3.917-0.473-5.679,0.41l-13.081,6.418"/>
				
					<path fill="none" stroke="#FF0000" stroke-width="5" stroke-linecap="round" stroke-linejoin="round" stroke-miterlimit="10" d="
					M10.207,91.102l26.384-8.992c1.108-0.37,2.289-0.483,3.445-0.336l45.307,5.738c2.046,0.258,3.515,2.082,3.339,4.135
					l-0.214,2.459c-0.194,2.205-2.017,3.91-4.233,3.951l-23.59,0.4l-9.513-0.334"/>
				
					<path fill="none" stroke="#FF0000" stroke-width="5" stroke-linecap="round" stroke-linejoin="round" stroke-miterlimit="10" d="
					M83.467,87.273l17.598-6.984c0.947-0.334,1.98-0.336,2.929-0.004l0,0c2.159,0.756,3.606,2.797,3.606,5.086v0.57"/>
			</g>
		</g>
	</g>
</g>
<g id="Calque_2_1_">
	<path fill="none" stroke="#FF0000" stroke-width="5" stroke-miterlimit="10" d="M108.076,57.764c0,2.844-2.134,5.149-4.765,5.149
		H27.313c-2.631,0-4.763-2.307-4.763-5.149V11.537c0-2.843,2.132-5.149,4.763-5.149h75.999c2.631,0,4.763,2.306,4.763,5.149v46.227
		H108.076z"/>
	<g>
		<path fill="none" stroke="#FF0000" stroke-width="5" stroke-miterlimit="10" d="M81.295,34.193
			c1.648,1.132,3.657,1.798,5.822,1.798c5.613,0,10.161-4.459,10.161-9.96c0-5.5-4.548-9.959-10.161-9.959
			c-2.165,0-4.174,0.666-5.822,1.798"/>
		<path fill="none" stroke="#FF0000" stroke-width="5" stroke-miterlimit="10" d="M76.956,26.031c0-3.377,1.715-6.36,4.338-8.16
			c-1.648-1.133-3.655-1.799-5.821-1.799c-5.612,0-10.162,4.459-10.162,9.959c0,5.501,4.55,9.959,10.162,9.959
			c2.166,0,4.173-0.665,5.821-1.797C78.673,32.392,76.956,29.409,76.956,26.031z"/>
		<path fill="none" stroke="#FF0000" stroke-width="5" stroke-miterlimit="10" d="M81.295,17.871c-2.622,1.8-4.339,4.783-4.339,8.16
			s1.717,6.36,4.339,8.162"/>
	</g>
	<path fill="#FF0000" d="M56.632,54.375c0,0.64-0.71,1.159-1.587,1.159H41.142c-0.875,0-1.587-0.519-1.587-1.159v-2.32
		c0-0.64,0.712-1.16,1.587-1.16h13.903c0.877,0,1.587,0.52,1.587,1.16V54.375z"/>
	<path fill="#FF0000" d="M76.956,54.375c0,0.64-0.712,1.159-1.59,1.159h-13.9c-0.876,0-1.589-0.519-1.589-1.159v-2.32
		c0-0.64,0.712-1.16,1.589-1.16h13.902c0.877,0,1.588,0.52,1.588,1.16V54.375L76.956,54.375z"/>
	<path fill="#FF0000" d="M97.278,54.375c0,0.64-0.71,1.159-1.589,1.159H81.787c-0.875,0-1.586-0.519-1.586-1.159v-2.32
		c0-0.64,0.711-1.16,1.586-1.16h13.904c0.877,0,1.587,0.52,1.587,1.16V54.375L97.278,54.375z"/>
	<g>
		<path fill="#FF0000" d="M47.009,28.809c0,0.603-0.553,1.092-1.235,1.092H31.667c-0.681,0-1.234-0.489-1.234-1.092V16.323
			c0-0.603,0.553-1.092,1.234-1.092h14.106c0.682,0,1.234,0.489,1.234,1.092L47.009,28.809L47.009,28.809z"/>
	</g>
</g>
</svg>
