<?xml version="1.0" encoding="utf-8"?>
<!-- Generator: Adobe Illustrator 16.0.0, SVG Export Plug-In . SVG Version: 6.00 Build 0)  -->
<!DOCTYPE svg PUBLIC "-//W3C//DTD SVG 1.1//EN" "http://www.w3.org/Graphics/SVG/1.1/DTD/svg11.dtd">
<svg version="1.1" xmlns="http://www.w3.org/2000/svg" xmlns:xlink="http://www.w3.org/1999/xlink" x="0px" y="0px" width="128px"
	 height="128px" viewBox="0 0 128 128" enable-background="new 0 0 128 128" xml:space="preserve">
<g id="Calque_1">
	<path fill="none" stroke="#FF0000" stroke-width="5" stroke-linecap="round" stroke-linejoin="round" stroke-miterlimit="10" d="
		M78.942,22.741C100.841,29.372,103,48.577,103,51.733s0,35.315,0,35.315l13.262,12.799v9.253H20.65v-9.253l14.188-13.107
		c0-23.336,0-23.336,0-36.24c0-5.368,4.01-22.824,25.137-27.758v-5.706c0,0,0.463-6.477,8.481-6.477c8.02,0,8.636,6.785,8.636,6.785
		v4.781L78.942,22.741z"/>
	<path fill="none" stroke="#FF0000" stroke-width="5" stroke-linecap="round" stroke-linejoin="round" stroke-miterlimit="10" d="
		M54.577,109.1c0,0,0.617,14.342,13.879,14.342c13.263,0,15.268-14.342,15.268-14.342"/>
</g>
<g id="Calque_3_1_">
</g>
</svg>
