<?xml version="1.0" encoding="utf-8"?>
<!-- Generator: Adobe Illustrator 16.0.0, SVG Export Plug-In . SVG Version: 6.00 Build 0)  -->
<!DOCTYPE svg PUBLIC "-//W3C//DTD SVG 1.1//EN" "http://www.w3.org/Graphics/SVG/1.1/DTD/svg11.dtd">
<svg version="1.1" xmlns="http://www.w3.org/2000/svg" xmlns:xlink="http://www.w3.org/1999/xlink" x="0px" y="0px" width="128px"
	 height="128px" viewBox="0 0 128 128" enable-background="new 0 0 128 128" xml:space="preserve">
<g id="Calque_1">
	<g id="Calque_1_1_" display="none">
	</g>
	<line fill="none" stroke="#FF0000" stroke-width="11" stroke-miterlimit="10" x1="5.1" y1="35.064" x2="58.226" y2="35.064"/>
	<line fill="none" stroke="#FF0000" stroke-width="11" stroke-miterlimit="10" x1="58.226" y1="46.698" x2="86.372" y2="46.698"/>
	<line fill="none" stroke="#FF0000" stroke-width="11" stroke-miterlimit="10" x1="17.83" y1="68.512" x2="45.601" y2="68.512"/>
	<line fill="none" stroke="#FF0000" stroke-width="11" stroke-miterlimit="10" x1="45.601" y1="81.646" x2="53.228" y2="81.646"/>
	<path fill="none" stroke="#FF0000" stroke-width="5" stroke-miterlimit="10" d="M45.971,111.907H11.022
		c-3.316,0-6.004-2.915-6.004-6.509V15.383c0-3.594,2.688-6.507,6.004-6.507h107.083c3.318,0,6.006,2.914,6.006,6.507V69.95"/>
</g>
<g id="Calque_2">
	<path fill="none" stroke="#FF0000" stroke-width="5" stroke-miterlimit="10" d="M123.607,121.169c0,1.421-1.151,2.571-2.571,2.571
		h-60.68c-1.42,0-2.571-1.15-2.571-2.571V83.218c0-1.419,1.151-2.571,2.571-2.571h60.68c1.42,0,2.571,1.152,2.571,2.571V121.169z"/>
	<g>
		<path fill="#FF0000" d="M68.969,112.907L61.78,92.793h4.404l5.09,14.887l4.926-14.887h4.309l-7.203,20.114H68.969z"/>
		<path fill="#FF0000" d="M91.594,112.907h-3.855v-14.53c-1.408,1.317-3.068,2.292-4.98,2.923v-3.499
			c1.006-0.329,2.1-0.953,3.279-1.872c1.18-0.92,1.989-1.992,2.429-3.218h3.128V112.907z"/>
		<path fill="#FF0000" d="M98.179,112.907v-3.855h3.855v3.855H98.179z"/>
		<path fill="#FF0000" d="M111.681,92.711c1.948,0,3.471,0.695,4.568,2.085c1.309,1.646,1.963,4.377,1.963,8.191
			c0,3.806-0.659,6.54-1.977,8.205c-1.088,1.372-2.606,2.058-4.555,2.058c-1.958,0-3.535-0.752-4.733-2.257
			s-1.798-4.187-1.798-8.047c0-3.787,0.659-6.513,1.976-8.178C108.214,93.396,109.732,92.711,111.681,92.711z M111.681,95.908
			c-0.467,0-0.883,0.148-1.249,0.445c-0.365,0.298-0.649,0.83-0.851,1.599c-0.265,0.997-0.397,2.676-0.397,5.035
			c0,2.36,0.118,3.981,0.356,4.864s0.537,1.47,0.898,1.763s0.775,0.439,1.242,0.439s0.883-0.148,1.248-0.446
			c0.366-0.297,0.649-0.83,0.851-1.599c0.266-0.987,0.398-2.661,0.398-5.021c0-2.359-0.119-3.98-0.356-4.863
			c-0.238-0.883-0.538-1.473-0.899-1.771C112.561,96.057,112.147,95.908,111.681,95.908z"/>
	</g>
</g>
</svg>
