<?xml version="1.0" encoding="utf-8"?>
<!-- Generator: Adobe Illustrator 16.0.0, SVG Export Plug-In . SVG Version: 6.00 Build 0)  -->
<!DOCTYPE svg PUBLIC "-//W3C//DTD SVG 1.1//EN" "http://www.w3.org/Graphics/SVG/1.1/DTD/svg11.dtd">
<svg version="1.1" id="Calque_1" xmlns="http://www.w3.org/2000/svg" xmlns:xlink="http://www.w3.org/1999/xlink" x="0px" y="0px"
	 width="128px" height="128px" viewBox="0 0 128 128" enable-background="new 0 0 128 128" xml:space="preserve">
<g id="Calque_3_1_" display="none">
	<g id="Calque_3" display="inline">
		<g>
			<path fill="none" stroke="#FF0000" stroke-width="5" stroke-linecap="round" stroke-linejoin="round" stroke-miterlimit="10" d="
				M56.654,55.605c0,0.578-0.469,1.049-1.049,1.049H5.548c-0.579,0-1.048-0.471-1.048-1.049V5.548C4.5,4.969,4.969,4.5,5.548,4.5
				h50.058c0.58,0,1.049,0.469,1.049,1.048L56.654,55.605L56.654,55.605z"/>
			<circle fill="#FF0000" cx="16.424" cy="17.481" r="3.704"/>
			<line fill="none" stroke="#FF0000" stroke-width="4" stroke-miterlimit="10" x1="24.219" y1="17.48" x2="46.23" y2="17.48"/>
			<circle fill="#FF0000" cx="16.424" cy="30.577" r="3.704"/>
			<line fill="none" stroke="#FF0000" stroke-width="4" stroke-miterlimit="10" x1="24.219" y1="30.578" x2="46.23" y2="30.578"/>
			<circle fill="#FF0000" cx="16.424" cy="43.673" r="3.704"/>
			<line fill="none" stroke="#FF0000" stroke-width="4" stroke-miterlimit="10" x1="24.219" y1="43.672" x2="46.23" y2="43.672"/>
		</g>
	</g>
</g>
<g id="Calque_2_2_">
	<g>
		<g>
			<polyline fill="none" stroke="#FF0000" stroke-width="8" stroke-linecap="round" stroke-linejoin="round" points="10.952,28.718 
				7.734,30.095 7.734,33.595 			"/>
			
				<line fill="none" stroke="#FF0000" stroke-width="8" stroke-linecap="round" stroke-linejoin="round" stroke-dasharray="8.7642,25.0405" x1="7.734" y1="58.636" x2="7.734" y2="79.92"/>
			<polyline fill="none" stroke="#FF0000" stroke-width="8" stroke-linecap="round" stroke-linejoin="round" points="7.734,92.439 
				7.734,95.939 10.918,97.395 			"/>
			
				<line fill="none" stroke="#FF0000" stroke-width="8" stroke-linecap="round" stroke-linejoin="round" stroke-dasharray="8.2915,23.69" x1="32.465" y1="107.24" x2="50.78" y2="115.609"/>
			<polyline fill="none" stroke="#FF0000" stroke-width="8" stroke-linecap="round" stroke-linejoin="round" points="
				61.554,120.532 64.736,121.986 67.852,120.389 			"/>
			
				<line fill="none" stroke="#FF0000" stroke-width="8" stroke-linecap="round" stroke-linejoin="round" stroke-dasharray="8.2535,23.5815" x1="88.83" y1="109.619" x2="106.662" y2="100.466"/>
			<polyline fill="none" stroke="#FF0000" stroke-width="8" stroke-linecap="round" stroke-linejoin="round" points="
				117.152,95.082 120.266,93.482 120.266,89.982 			"/>
			
				<line fill="none" stroke="#FF0000" stroke-width="8" stroke-linecap="round" stroke-linejoin="round" stroke-dasharray="7.8869,22.5339" x1="120.266" y1="67.449" x2="120.266" y2="48.296"/>
			<polyline fill="none" stroke="#FF0000" stroke-width="8" stroke-linecap="round" stroke-linejoin="round" points="
				120.266,37.029 120.266,33.529 117.121,31.991 			"/>
			
				<line fill="none" stroke="#FF0000" stroke-width="8" stroke-linecap="round" stroke-linejoin="round" stroke-dasharray="8.2856,23.6732" x1="95.854" y1="21.591" x2="77.777" y2="12.751"/>
			<polyline fill="none" stroke="#FF0000" stroke-width="8" stroke-linecap="round" stroke-linejoin="round" points="67.146,7.552 
				64.001,6.014 60.783,7.391 			"/>
			
				<line fill="none" stroke="#FF0000" stroke-width="8" stroke-linecap="round" stroke-linejoin="round" stroke-dasharray="8.0728,23.0652" x1="39.579" y1="16.466" x2="21.555" y2="24.181"/>
		</g>
	</g>
	<g>
		<g>
			
				<line fill="none" stroke="#FF0000" stroke-width="8" stroke-linecap="round" stroke-linejoin="round" x1="23.813" y1="37.76" x2="27.053" y2="39.083"/>
			
				<line fill="none" stroke="#FF0000" stroke-width="8" stroke-linecap="round" stroke-linejoin="round" stroke-dasharray="5.4226,15.4931" x1="41.396" y1="44.939" x2="53.589" y2="49.917"/>
			<polyline fill="none" stroke="#FF0000" stroke-width="8" stroke-linecap="round" stroke-linejoin="round" points="60.761,52.845 
				64.001,54.168 64.001,57.668 			"/>
			
				<line fill="none" stroke="#FF0000" stroke-width="8" stroke-linecap="round" stroke-linejoin="round" stroke-dasharray="6.8089,19.454" x1="64.001" y1="77.122" x2="64.001" y2="93.658"/>
			
				<line fill="none" stroke="#FF0000" stroke-width="8" stroke-linecap="round" stroke-linejoin="round" x1="64.001" y1="103.385" x2="64.001" y2="106.885"/>
		</g>
	</g>
	<g>
		<g>
			
				<line fill="none" stroke="#FF0000" stroke-width="8" stroke-linecap="round" stroke-linejoin="round" x1="64.001" y1="54.168" x2="67.266" y2="52.905"/>
			
				<line fill="none" stroke="#FF0000" stroke-width="8" stroke-linecap="round" stroke-linejoin="round" stroke-dasharray="5.3574,15.307" x1="81.54" y1="47.38" x2="93.675" y2="42.685"/>
			
				<line fill="none" stroke="#FF0000" stroke-width="8" stroke-linecap="round" stroke-linejoin="round" x1="100.813" y1="39.922" x2="104.076" y2="38.659"/>
		</g>
	</g>
</g>
</svg>
