<?xml version="1.0" encoding="utf-8"?>
<!-- Generator: Adobe Illustrator 16.0.0, SVG Export Plug-In . SVG Version: 6.00 Build 0)  -->
<!DOCTYPE svg PUBLIC "-//W3C//DTD SVG 1.1//EN" "http://www.w3.org/Graphics/SVG/1.1/DTD/svg11.dtd">
<svg version="1.1" id="Calque_1" xmlns="http://www.w3.org/2000/svg" xmlns:xlink="http://www.w3.org/1999/xlink" x="0px" y="0px"
	 width="128px" height="128px" viewBox="0 0 128 128" enable-background="new 0 0 128 128" xml:space="preserve">
<path fill="#FF0000" d="M24.626,60.604c0-6.211,1.954-12.062,5.396-17.198c0.018-0.005,0.037-0.007,0.055-0.012
	C13.351,47.42,1.18,59.676,1.18,74.171c0,12.849,9.582,23.902,23.379,29.065c-0.274,0.557-0.515,1.129-0.83,1.668
	c-2.698,4.527-6.65,7.955-11.351,10.264c10.418,0.746,20.064-2.372,26.431-8.943c1.062,0.063,2.128,0.131,3.211,0.131
	c10.886,0,20.749-3.381,28.066-8.854C44.858,96.923,24.626,80.641,24.626,60.604z"/>
<path fill="#1A1A1A" d="M70.121,97.501c0.082-0.063,0.152-0.132,0.234-0.194c-0.088,0.067-0.185,0.129-0.271,0.191
	C70.1,97.498,70.109,97.501,70.121,97.501z"/>
<path fill="none" stroke="#FF0000" stroke-width="5" stroke-miterlimit="10" d="M78.001,89.366c0.853-0.024,1.706-0.046,2.547-0.103
	c7.306,7.53,18.371,11.107,30.326,10.256c-5.394-2.646-9.931-6.574-13.024-11.771c-0.354-0.618-0.641-1.277-0.949-1.914
	c15.828-5.92,26.818-18.604,26.818-33.346c0-20.388-20.977-36.915-46.854-36.915c-21.723,0-39.937,11.675-45.227,27.489
	 M31.634,43.077c-1.006,3.011-1.595,6.154-1.595,9.413c0,20.396,20.962,36.924,46.826,36.924c0.371,0,0.729-0.034,1.095-0.045
	 M56.571,59.741c-3.64,0-6.583-2.951-6.583-6.573c0-1.479,0.507-2.831,1.332-3.93c0.012-0.016,0.027-0.032,0.039-0.047
	c0.226-0.294,0.466-0.571,0.736-0.823c0.059-0.056,0.125-0.1,0.183-0.151c0.24-0.208,0.479-0.406,0.745-0.578
	c0.127-0.083,0.268-0.143,0.402-0.219c0.218-0.118,0.432-0.245,0.664-0.341c0.219-0.088,0.451-0.145,0.682-0.212
	c0.171-0.049,0.333-0.116,0.51-0.151c0.417-0.083,0.848-0.129,1.292-0.129c0.442,0,0.873,0.047,1.287,0.129
	c0.161,0.034,0.305,0.093,0.459,0.139c0.248,0.069,0.5,0.129,0.734,0.228c0.208,0.084,0.396,0.2,0.593,0.307
	c0.161,0.085,0.326,0.159,0.476,0.257c0.239,0.156,0.454,0.337,0.669,0.522c0.086,0.071,0.179,0.136,0.257,0.212
	c0.248,0.234,0.469,0.491,0.679,0.758c0.032,0.04,0.067,0.076,0.096,0.118c0.23,0.308,0.426,0.638,0.601,0.983
	c0.001,0.004,0.005,0.011,0.008,0.016c0.439,0.884,0.71,1.862,0.71,2.913C63.141,56.79,60.191,59.741,56.571,59.741z M78.333,59.522
	c-0.515,0.129-1.042,0.219-1.595,0.219c-3.643,0-6.586-2.951-6.586-6.573c0-0.711,0.143-1.383,0.351-2.025
	c0.228-0.694,0.556-1.336,0.983-1.907c0.009-0.014,0.02-0.024,0.029-0.038c0.229-0.296,0.473-0.578,0.746-0.832
	c0.053-0.051,0.11-0.091,0.168-0.14c0.239-0.21,0.487-0.413,0.76-0.587c0.119-0.08,0.254-0.138,0.381-0.207
	c0.227-0.125,0.447-0.257,0.686-0.353c0.215-0.088,0.441-0.143,0.666-0.207c0.178-0.051,0.344-0.118,0.525-0.156
	c0.416-0.083,0.848-0.129,1.291-0.129c0.441,0,0.869,0.047,1.283,0.129c0.176,0.036,0.334,0.1,0.5,0.149
	c0.23,0.067,0.47,0.123,0.688,0.214c0.229,0.094,0.439,0.221,0.654,0.339c0.138,0.076,0.279,0.138,0.41,0.223
	c0.263,0.168,0.496,0.366,0.732,0.569c0.063,0.056,0.131,0.102,0.188,0.158c0.27,0.252,0.511,0.527,0.732,0.819
	c0.012,0.018,0.027,0.035,0.043,0.053c0.819,1.1,1.327,2.449,1.327,3.928C83.303,56.237,81.182,58.802,78.333,59.522z M96.9,59.741
	c-3.645,0-6.582-2.951-6.582-6.573c0-0.189,0.041-0.37,0.057-0.556h-0.002c0-0.011,0.004-0.02,0.004-0.031
	c0.038-0.41,0.107-0.808,0.217-1.191c0-0.002,0-0.004,0.004-0.006c0.107-0.393,0.25-0.767,0.428-1.126
	c0.004-0.007,0.013-0.016,0.016-0.022c0.173-0.348,0.372-0.678,0.604-0.986c0.021-0.031,0.051-0.058,0.073-0.089
	c0.22-0.281,0.446-0.546,0.705-0.787c0.063-0.063,0.142-0.114,0.206-0.171c0.229-0.199,0.467-0.396,0.727-0.561
	c0.127-0.084,0.271-0.147,0.404-0.221c0.221-0.121,0.432-0.247,0.662-0.341c0.219-0.088,0.448-0.145,0.678-0.209
	c0.172-0.049,0.338-0.119,0.514-0.154c0.42-0.083,0.849-0.129,1.293-0.129c0.441,0,0.869,0.047,1.285,0.129
	c0.172,0.036,0.332,0.1,0.498,0.149c0.231,0.067,0.469,0.123,0.688,0.214c0.229,0.094,0.438,0.219,0.648,0.337
	c0.141,0.076,0.285,0.14,0.416,0.225c0.261,0.168,0.496,0.366,0.729,0.567c0.063,0.055,0.136,0.104,0.195,0.163
	c0.267,0.248,0.506,0.521,0.729,0.813c0.014,0.021,0.03,0.036,0.047,0.056c0.821,1.1,1.33,2.451,1.33,3.928
	C103.471,56.79,100.521,59.741,96.9,59.741z"/>
<path fill="none" stroke="#E52420" stroke-miterlimit="10" d="M101.363,48.371c0.267,0.25,0.509,0.521,0.729,0.813
	C101.87,48.892,101.631,48.618,101.363,48.371z"/>
<path fill="none" stroke="#E52420" stroke-miterlimit="10" d="M100.439,47.641c0.26,0.17,0.498,0.364,0.729,0.567
	C100.938,48.007,100.699,47.809,100.439,47.641z"/>
<path fill="none" stroke="#E52420" stroke-miterlimit="10" d="M93.757,47.42c0.216-0.121,0.429-0.245,0.662-0.341
	C94.186,47.173,93.975,47.299,93.757,47.42z"/>
<path fill="none" stroke="#E52420" stroke-miterlimit="10" d="M91.715,49.16c0.215-0.281,0.448-0.546,0.705-0.787
	C92.161,48.613,91.932,48.879,91.715,49.16z"/>
<path fill="none" stroke="#E52420" stroke-miterlimit="10" d="M95.094,46.87c0.172-0.052,0.338-0.119,0.516-0.154
	C95.432,46.751,95.266,46.82,95.094,46.87z"/>
<path fill="none" stroke="#E52420" stroke-miterlimit="10" d="M92.626,48.201c0.229-0.201,0.467-0.393,0.726-0.561
	C93.092,47.806,92.857,48.002,92.626,48.201z"/>
<path fill="none" stroke="#E52420" stroke-miterlimit="10" d="M98.186,46.715c0.172,0.036,0.334,0.1,0.5,0.149
	C98.52,46.815,98.357,46.751,98.186,46.715z"/>
<path fill="none" stroke="#E52420" stroke-miterlimit="10" d="M99.374,47.079c0.228,0.094,0.438,0.219,0.651,0.337
	C99.813,47.297,99.602,47.173,99.374,47.079z"/>
<path fill="none" stroke="#E52420" stroke-miterlimit="10" d="M91.038,50.235c0.173-0.348,0.373-0.676,0.601-0.986
	C91.41,49.557,91.211,49.887,91.038,50.235z"/>
<path fill="none" stroke="#E52420" stroke-miterlimit="10" d="M90.598,51.384c0.107-0.39,0.252-0.767,0.428-1.126
	C90.848,50.617,90.705,50.991,90.598,51.384z"/>
<path fill="none" stroke="#E52420" stroke-miterlimit="10" d="M90.377,52.581c0.038-0.408,0.109-0.808,0.217-1.191
	C90.484,51.773,90.415,52.171,90.377,52.581z"/>
<path fill="none" stroke="#E52420" stroke-miterlimit="10" d="M81.199,48.368c0.265,0.252,0.51,0.527,0.732,0.819
	C81.708,48.895,81.467,48.62,81.199,48.368z"/>
<path fill="none" stroke="#E52420" stroke-miterlimit="10" d="M71.486,49.236c-0.43,0.57-0.756,1.213-0.983,1.907
	c0.007,0.005,0.011,0.007,0.019,0.011C70.744,50.46,71.063,49.809,71.486,49.236z"/>
<path fill="none" stroke="#E52420" stroke-miterlimit="10" d="M74.922,46.872c0.176-0.051,0.344-0.118,0.525-0.156
	C75.266,46.753,75.1,46.82,74.922,46.872z"/>
<path fill="none" stroke="#E52420" stroke-miterlimit="10" d="M78.021,46.715c0.176,0.036,0.334,0.1,0.5,0.149
	C78.355,46.815,78.197,46.751,78.021,46.715z"/>
<path fill="none" stroke="#E52420" stroke-miterlimit="10" d="M73.57,47.432c0.227-0.125,0.447-0.255,0.686-0.353
	C74.018,47.175,73.797,47.306,73.57,47.432z"/>
<path fill="none" stroke="#E52420" stroke-miterlimit="10" d="M72.432,48.226c0.24-0.212,0.488-0.413,0.76-0.587
	C72.92,47.813,72.672,48.016,72.432,48.226z"/>
<path fill="none" stroke="#E52420" stroke-miterlimit="10" d="M71.518,49.198c0.228-0.299,0.475-0.578,0.744-0.832
	C71.988,48.62,71.744,48.901,71.518,49.198z"/>
<path fill="none" stroke="#E52420" stroke-miterlimit="10" d="M79.21,47.079c0.229,0.096,0.44,0.219,0.655,0.339
	C79.65,47.299,79.438,47.173,79.21,47.079z"/>
<path fill="none" stroke="#E52420" stroke-miterlimit="10" d="M80.275,47.641c0.259,0.17,0.5,0.366,0.731,0.569
	C80.771,48.007,80.537,47.809,80.275,47.641z"/>
<path fill="none" stroke="#E52420" stroke-miterlimit="10" d="M51.359,49.191c0.223-0.294,0.469-0.571,0.736-0.823
	C51.825,48.62,51.585,48.896,51.359,49.191z"/>
<path fill="none" stroke="#E52420" stroke-miterlimit="10" d="M60.12,47.646c0.239,0.156,0.454,0.337,0.669,0.522
	C60.574,47.982,60.359,47.802,60.12,47.646z"/>
<path fill="none" stroke="#E52420" stroke-miterlimit="10" d="M59.052,47.082c0.208,0.086,0.396,0.2,0.593,0.307
	C59.448,47.282,59.259,47.166,59.052,47.082z"/>
<path fill="none" stroke="#E52420" stroke-miterlimit="10" d="M57.858,46.715c0.158,0.034,0.305,0.093,0.459,0.139
	C58.163,46.809,58.019,46.749,57.858,46.715z"/>
<path fill="none" stroke="#E52420" stroke-miterlimit="10" d="M54.77,46.867c0.171-0.049,0.333-0.116,0.51-0.151
	C55.104,46.751,54.941,46.818,54.77,46.867z"/>
<path fill="none" stroke="#E52420" stroke-miterlimit="10" d="M61.821,49.256c0.228,0.308,0.429,0.636,0.601,0.983
	C62.248,49.894,62.051,49.564,61.821,49.256z"/>
<path fill="none" stroke="#E52420" stroke-miterlimit="10" d="M53.425,47.42c0.215-0.121,0.432-0.245,0.664-0.341
	C53.857,47.175,53.643,47.302,53.425,47.42z"/>
<path fill="none" stroke="#E52420" stroke-miterlimit="10" d="M61.047,48.379c0.246,0.234,0.472,0.488,0.679,0.758
	C61.516,48.87,61.295,48.613,61.047,48.379z"/>
<path fill="none" stroke="#E52420" stroke-miterlimit="10" d="M52.277,48.217c0.237-0.208,0.479-0.406,0.745-0.578
	C52.757,47.811,52.517,48.009,52.277,48.217z"/>
<path fill="none" stroke="#E52420" stroke-miterlimit="10" d="M98.686,46.865c0.232,0.064,0.469,0.123,0.688,0.214
	C99.152,46.987,98.918,46.932,98.686,46.865z"/>
<path fill="none" stroke="#E52420" stroke-miterlimit="10" d="M92.42,48.373c0.064-0.063,0.139-0.114,0.206-0.171
	C92.559,48.259,92.484,48.31,92.42,48.373z"/>
<path fill="none" stroke="#E52420" stroke-miterlimit="10" d="M91.639,49.249c0.024-0.031,0.053-0.06,0.076-0.089
	C91.689,49.191,91.663,49.218,91.639,49.249z"/>
<path fill="none" stroke="#E52420" stroke-miterlimit="10" d="M91.025,50.257c0.002-0.007,0.01-0.016,0.013-0.022
	C91.035,50.242,91.027,50.25,91.025,50.257z"/>
<path fill="none" stroke="#E52420" stroke-miterlimit="10" d="M90.594,51.39c0-0.002,0-0.004,0.004-0.006
	C90.594,51.386,90.594,51.388,90.594,51.39z"/>
<path fill="none" stroke="#E52420" stroke-miterlimit="10" d="M93.352,47.641c0.129-0.084,0.271-0.147,0.405-0.221
	C93.62,47.494,93.479,47.556,93.352,47.641z"/>
<path fill="#4D4D4D" d="M102.093,49.184c0.015,0.018,0.032,0.036,0.048,0.056C102.125,49.22,102.105,49.205,102.093,49.184z"/>
<path fill="none" stroke="#E52420" stroke-miterlimit="10" d="M100.025,47.416c0.138,0.076,0.283,0.14,0.414,0.225
	C100.311,47.556,100.163,47.492,100.025,47.416z"/>
<path fill="none" stroke="#E52420" stroke-miterlimit="10" d="M90.373,52.612h0.002c0-0.011,0.002-0.02,0.002-0.031
	C90.377,52.593,90.373,52.602,90.373,52.612z"/>
<path fill="none" stroke="#E52420" stroke-miterlimit="10" d="M95.607,46.715c0.42-0.083,0.852-0.129,1.293-0.129
	C96.456,46.586,96.027,46.633,95.607,46.715z"/>
<path fill="none" stroke="#E52420" stroke-miterlimit="10" d="M96.9,46.586c0.438,0,0.869,0.047,1.285,0.129
	C97.771,46.633,97.343,46.586,96.9,46.586z"/>
<path fill="none" stroke="#E52420" stroke-miterlimit="10" d="M94.419,47.079c0.216-0.088,0.448-0.145,0.675-0.209
	C94.867,46.934,94.635,46.99,94.419,47.079z"/>
<path fill="none" stroke="#E52420" stroke-miterlimit="10" d="M101.169,48.208c0.065,0.055,0.136,0.104,0.194,0.163
	C101.305,48.312,101.234,48.263,101.169,48.208z"/>
<path fill="none" stroke="#E52420" stroke-miterlimit="10" d="M81.01,48.21c0.063,0.056,0.131,0.102,0.189,0.158
	C81.141,48.312,81.07,48.266,81.01,48.21z"/>
<path fill="none" stroke="#E52420" stroke-miterlimit="10" d="M72.262,48.366c0.055-0.051,0.113-0.091,0.17-0.14
	C72.375,48.274,72.314,48.315,72.262,48.366z"/>
<path fill="none" stroke="#E52420" stroke-miterlimit="10" d="M73.189,47.639c0.123-0.078,0.254-0.138,0.381-0.207
	C73.443,47.5,73.311,47.559,73.189,47.639z"/>
<path fill="none" stroke="#E52420" stroke-miterlimit="10" d="M81.932,49.187c0.012,0.018,0.028,0.035,0.043,0.053
	C81.96,49.222,81.943,49.205,81.932,49.187z"/>
<path fill="none" stroke="#E52420" stroke-miterlimit="10" d="M71.486,49.236c0.009-0.014,0.02-0.024,0.029-0.038
	C71.506,49.211,71.495,49.222,71.486,49.236z"/>
<path fill="none" stroke="#E52420" stroke-miterlimit="10" d="M74.256,47.079c0.215-0.086,0.441-0.143,0.666-0.207
	C74.697,46.936,74.471,46.99,74.256,47.079z"/>
<path fill="none" stroke="#E52420" stroke-miterlimit="10" d="M75.447,46.715c0.419-0.083,0.85-0.129,1.291-0.129
	C76.295,46.586,75.863,46.633,75.447,46.715z"/>
<path fill="none" stroke="#E52420" stroke-miterlimit="10" d="M76.738,46.586c0.439,0,0.869,0.047,1.283,0.129
	C77.607,46.633,77.182,46.586,76.738,46.586z"/>
<path fill="none" stroke="#E52420" stroke-miterlimit="10" d="M79.865,47.418c0.137,0.074,0.279,0.138,0.41,0.223
	C80.145,47.556,80.002,47.494,79.865,47.418z"/>
<path fill="none" stroke="#E52420" stroke-miterlimit="10" d="M78.521,46.865c0.23,0.067,0.47,0.125,0.688,0.214
	C78.991,46.987,78.755,46.932,78.521,46.865z"/>
<path fill="none" stroke="#E52420" stroke-miterlimit="10" d="M55.28,46.715c0.419-0.083,0.85-0.129,1.292-0.129
	C56.127,46.586,55.697,46.633,55.28,46.715z"/>
<path fill="none" stroke="#E52420" stroke-miterlimit="10" d="M53.022,47.639c0.127-0.08,0.268-0.145,0.402-0.219
	C53.29,47.496,53.149,47.556,53.022,47.639z"/>
<path fill="none" stroke="#E52420" stroke-miterlimit="10" d="M54.088,47.079c0.219-0.088,0.451-0.145,0.682-0.212
	C54.54,46.934,54.308,46.99,54.088,47.079z"/>
<path fill="none" stroke="#E52420" stroke-miterlimit="10" d="M61.726,49.138c0.032,0.04,0.067,0.076,0.096,0.118
	C61.792,49.213,61.757,49.177,61.726,49.138z"/>
<path fill="none" stroke="#E52420" stroke-miterlimit="10" d="M52.095,48.368c0.059-0.056,0.125-0.1,0.183-0.151
	C52.22,48.268,52.153,48.312,52.095,48.368z"/>
<path fill="none" stroke="#E52420" stroke-miterlimit="10" d="M60.79,48.167c0.086,0.071,0.179,0.136,0.257,0.212
	C60.968,48.303,60.875,48.238,60.79,48.167z"/>
<path fill="none" stroke="#E52420" stroke-miterlimit="10" d="M56.571,46.586c0.442,0,0.87,0.047,1.287,0.129
	C57.444,46.633,57.013,46.586,56.571,46.586z"/>
<path fill="none" stroke="#E52420" stroke-miterlimit="10" d="M51.359,49.191c-0.011,0.016-0.026,0.031-0.039,0.047
	C51.333,49.222,51.348,49.207,51.359,49.191z"/>
<path fill="none" stroke="#E52420" stroke-miterlimit="10" d="M62.422,50.239c0.001,0.004,0.005,0.011,0.008,0.016
	C62.428,50.25,62.423,50.244,62.422,50.239z"/>
<path fill="none" stroke="#E52420" stroke-miterlimit="10" d="M58.317,46.854c0.248,0.066,0.498,0.131,0.734,0.228
	C58.817,46.983,58.565,46.923,58.317,46.854z"/>
<path fill="none" stroke="#E52420" stroke-miterlimit="10" d="M59.645,47.389c0.161,0.085,0.326,0.161,0.476,0.257
	C59.97,47.547,59.806,47.474,59.645,47.389z"/>
<circle fill="#FF0000" cx="56.68" cy="53.161" r="6.575"/>
<circle fill="#FF0000" cx="76.738" cy="53.161" r="6.575"/>
<circle fill="#FF0000" cx="96.9" cy="53.161" r="6.575"/>
</svg>
