<?xml version="1.0" encoding="utf-8"?>
<!-- Generator: Adobe Illustrator 16.0.0, SVG Export Plug-In . SVG Version: 6.00 Build 0)  -->
<!DOCTYPE svg PUBLIC "-//W3C//DTD SVG 1.1//EN" "http://www.w3.org/Graphics/SVG/1.1/DTD/svg11.dtd">
<svg version="1.1" xmlns="http://www.w3.org/2000/svg" xmlns:xlink="http://www.w3.org/1999/xlink" x="0px" y="0px" width="128px"
	 height="128px" viewBox="0 0 128 128" enable-background="new 0 0 128 128" xml:space="preserve">
<g id="Calque_4">
	<g>
		<path fill="none" stroke="#FF0000" stroke-miterlimit="10" d="M80.84,83.496c-0.001,3.205-0.923,6.411-2.766,9.21
			c-2.536,3.851-6.436,6.46-10.972,7.347c-1.122,0.218-3.673,0.357-4.656,0.251c-0.972-0.102-2.789-0.496-3.699-0.797
			c-5.862-1.945-10.119-6.81-11.345-12.967c-0.169-0.85-0.253-1.946-0.253-3.044"/>
		<path fill="none" stroke="#FF0000" stroke-width="5" stroke-miterlimit="10" d="M22.45,83.496v5.646
			c0.037,0.05,0.091,0.112,0.142,0.163l3.07,0.024l3.951,0.03l2.566,0.021l0.769,2.449l0.39,1.242c0.525,1.672,1.123,3.136,2,4.896
			l0.86,1.726l1.13,2.269l-1.788,1.793l-2.671,2.68c-0.771,0.774-1.782,1.789-2.215,2.303c0.554,0.661,1.975,2.087,3.84,3.953
			l0.129,0.131c1.831,1.835,3.441,3.449,4.114,4.009c0.438-0.398,1.22-1.138,2.304-2.216l2.724-2.716l1.854-1.846l2.304,1.238
			l0.833,0.446c1.847,0.991,4.312,2.038,5.99,2.545l0.928,0.281l2.48,0.752l0.021,2.592l0.032,3.952l0.025,3.095
			c0.043,0.04,0.099,0.078,0.146,0.101c0.56,0.021,2.257,0.044,4.893,0.044l1.1-0.002c2.889-0.009,4.64-0.015,5.293-0.051
			c0.039-0.03,0.081-0.067,0.118-0.104l0.024-3.071l0.034-3.948l0.02-2.563l2.444-0.771l1.207-0.38
			c1.697-0.535,2.992-1.063,4.775-1.948c2.136-1.058,2.52-1.249,3.423-1.249c1.536,0,1.744,0.208,5.227,3.677
			c0.768,0.766,1.772,1.77,2.283,2.198c0.66-0.553,2.092-1.986,3.973-3.87l0.154-0.153c1.945-1.95,3.422-3.429,3.958-4.065
			c-0.397-0.438-1.135-1.22-2.215-2.305l-2.717-2.725l-1.864-1.867l1.269-2.315l0.396-0.724c0.954-1.744,2.066-4.356,2.585-6.072
			l0.279-0.924l0.751-2.48l2.592-0.022l3.953-0.033l3.076-0.024c0.051-0.053,0.104-0.113,0.141-0.164v-5.646"/>
		<path fill="none" stroke="#FF0000" stroke-width="5" stroke-miterlimit="10" d="M47.149,83.496c0,1.098,0.084,2.194,0.253,3.044
			c1.226,6.157,5.482,11.021,11.345,12.967c0.91,0.301,2.728,0.695,3.699,0.797c0.983,0.106,3.534-0.033,4.656-0.251
			c4.536-0.887,8.436-3.496,10.972-7.347c1.843-2.799,2.765-6.005,2.766-9.21"/>
	</g>
</g>
<g id="Calque_1">
	<path fill="#FFFFFF" stroke="#FF0000" stroke-width="5" stroke-miterlimit="10" d="M125.676,73.144
		c0,2.794-2.096,5.058-4.678,5.058h-74.63c-2.583,0-4.677-2.265-4.677-5.058V27.751c0-2.792,2.094-5.057,4.677-5.057h74.63
		c2.582,0,4.677,2.264,4.677,5.057L125.676,73.144L125.676,73.144L125.676,73.144z"/>
	<g>
		<path fill="none" stroke="#FF0000" stroke-width="5" stroke-miterlimit="10" d="M99.377,49.998
			c1.62,1.112,3.591,1.767,5.717,1.767c5.512,0,9.979-4.379,9.979-9.781s-4.467-9.78-9.979-9.78c-2.126,0-4.098,0.654-5.717,1.766"
			/>
		<path fill="none" stroke="#FF0000" stroke-width="5" stroke-miterlimit="10" d="M95.117,41.984c0-3.317,1.684-6.245,4.26-8.014
			c-1.619-1.112-3.59-1.765-5.717-1.765c-5.511,0-9.979,4.378-9.979,9.779c0,5.402,4.468,9.78,9.979,9.78
			c2.127,0,4.1-0.653,5.717-1.765C96.803,48.229,95.117,45.3,95.117,41.984z"/>
		<path fill="none" stroke="#FF0000" stroke-width="5" stroke-miterlimit="10" d="M99.377,33.97
			c-2.574,1.769-4.262,4.697-4.262,8.014c0,3.316,1.687,6.246,4.262,8.014"/>
	</g>
	<path fill="#FF0000" d="M75.159,69.816c0,0.629-0.698,1.139-1.559,1.139H59.948c-0.86,0-1.559-0.51-1.559-1.139v-2.278
		c0-0.628,0.699-1.14,1.559-1.14h13.653c0.862,0,1.559,0.512,1.559,1.14V69.816z"/>
	<path fill="#FF0000" d="M95.117,69.816c0,0.629-0.699,1.139-1.562,1.139h-13.65c-0.861,0-1.56-0.51-1.56-1.139v-2.278
		c0-0.628,0.698-1.14,1.56-1.14h13.652c0.86,0,1.56,0.512,1.56,1.14V69.816L95.117,69.816z"/>
	<path fill="#FF0000" d="M115.072,69.816c0,0.629-0.697,1.139-1.56,1.139H99.861c-0.86,0-1.559-0.51-1.559-1.139v-2.278
		c0-0.628,0.698-1.14,1.559-1.14h13.652c0.861,0,1.561,0.512,1.561,1.14L115.072,69.816L115.072,69.816z"/>
</g>
<g id="Calque_2_3_">
	<g id="Calque_2_1_">
		<g id="Calque_3_1_">
			<g>
				
					<path fill="#FFFFFF" stroke="#FF0000" stroke-width="5" stroke-linecap="round" stroke-linejoin="round" stroke-miterlimit="10" d="
					M56.654,55.605c0,0.578-0.469,1.049-1.049,1.049H5.548c-0.579,0-1.048-0.471-1.048-1.049V5.548C4.5,4.969,4.969,4.5,5.548,4.5
					h50.058c0.58,0,1.049,0.469,1.049,1.048L56.654,55.605L56.654,55.605z"/>
				<circle fill="#FF0000" cx="16.424" cy="17.481" r="3.704"/>
				<line fill="none" stroke="#FF0000" stroke-width="4" stroke-miterlimit="10" x1="24.219" y1="17.481" x2="46.231" y2="17.481"/>
				<circle fill="#FF0000" cx="16.424" cy="30.577" r="3.704"/>
				<line fill="none" stroke="#FF0000" stroke-width="4" stroke-miterlimit="10" x1="24.219" y1="30.578" x2="46.231" y2="30.578"/>
				<circle fill="#FF0000" cx="16.424" cy="43.673" r="3.704"/>
				<line fill="none" stroke="#FF0000" stroke-width="4" stroke-miterlimit="10" x1="24.219" y1="43.672" x2="46.231" y2="43.672"/>
			</g>
		</g>
	</g>
</g>
</svg>
