<?xml version="1.0" encoding="utf-8"?>
<!-- Generator: Adobe Illustrator 16.0.0, SVG Export Plug-In . SVG Version: 6.00 Build 0)  -->
<!DOCTYPE svg PUBLIC "-//W3C//DTD SVG 1.1//EN" "http://www.w3.org/Graphics/SVG/1.1/DTD/svg11.dtd">
<svg version="1.1" xmlns="http://www.w3.org/2000/svg" xmlns:xlink="http://www.w3.org/1999/xlink" x="0px" y="0px" width="128px"
	 height="128px" viewBox="0 0 128 128" enable-background="new 0 0 128 128" xml:space="preserve">
<g id="Calque_1">
	<g id="Calque_2" display="none">
	</g>
	
		<polyline fill="none" stroke="#FF0000" stroke-width="5" stroke-linecap="round" stroke-linejoin="round" stroke-miterlimit="10" points="
		110.074,18.928 124.148,18.928 124.148,110.464 124.148,119.5 3,119.5 3,18.928 17.391,18.928 	"/>
	
		<line fill="none" stroke="#FF0000" stroke-width="5" stroke-linecap="round" stroke-linejoin="round" stroke-miterlimit="10" x1="70.096" y1="18.928" x2="97.348" y2="18.928"/>
	
		<line fill="none" stroke="#FF0000" stroke-width="5" stroke-linecap="round" stroke-linejoin="round" stroke-miterlimit="10" x1="30.119" y1="18.928" x2="57.372" y2="18.928"/>
	
		<rect x="17.392" y="8.464" fill="none" stroke="#FF0000" stroke-width="5" stroke-linecap="round" stroke-linejoin="round" stroke-miterlimit="10" width="12.728" height="20.626"/>
	
		<rect x="57.37" y="8.464" fill="none" stroke="#FF0000" stroke-width="5" stroke-linecap="round" stroke-linejoin="round" stroke-miterlimit="10" width="12.728" height="20.626"/>
	
		<rect x="97.348" y="8.464" fill="none" stroke="#FF0000" stroke-width="5" stroke-linecap="round" stroke-linejoin="round" stroke-miterlimit="10" width="12.729" height="20.626"/>
</g>
<g id="Calque_2_1_" display="none">
	<g display="inline">
		<path fill="none" stroke="#FF0000" stroke-width="5" stroke-linecap="round" stroke-linejoin="round" stroke-miterlimit="10" d="
			M32.258,91.164c5.781,0,10.897,2.792,14.118,7.089c0.497-9.303,8.175-16.696,17.6-16.696c5.698,0,10.75,2.709,13.976,6.9
			c1.306-8.459,8.596-14.941,17.419-14.941c4.056,0,7.782,1.383,10.764,3.683C98.93,60.289,82.158,48.43,62.616,48.43
			c-26.115,0-47.286,21.171-47.286,47.285c0,2.283,0.171,4.528,0.484,6.725C18.372,95.845,24.762,91.164,32.258,91.164z"/>
	</g>
	
		<path display="inline" fill="none" stroke="#FF0000" stroke-width="5" stroke-linecap="round" stroke-linejoin="round" stroke-miterlimit="10" d="
		M75.817,50.308c-0.085-0.613-0.128-1.24-0.128-1.878c0-7.535,6.107-13.643,13.643-13.643c7.534,0,13.642,6.108,13.642,13.643
		c0,5.633-3.413,10.469-8.284,12.551"/>
	
		<line display="inline" fill="none" stroke="#FF0000" stroke-width="5" stroke-linecap="round" stroke-linejoin="round" stroke-miterlimit="10" x1="58.666" y1="82.375" x2="67.877" y2="112.5"/>
</g>
<g id="Calque_3">
	<g>
		<path fill="none" stroke="#FF0000" stroke-width="5" stroke-linecap="round" stroke-linejoin="round" stroke-miterlimit="10" d="
			M23.188,74.835c2.909,0,5.423,1.664,6.659,4.089c0.854-3.19,3.756-5.544,7.216-5.544c2.909,0,5.424,1.665,6.66,4.09
			c0.853-3.19,3.756-5.544,7.215-5.544c2.909,0,5.423,1.665,6.659,4.09c0.854-3.19,3.756-5.544,7.216-5.544
			c2.909,0,5.424,1.665,6.66,4.09c0.853-3.19,3.754-5.544,7.214-5.544c0.749,0,1.469,0.112,2.149,0.316
			c-5.259-11.551-16.895-19.585-30.415-19.585c-16.508,0-30.211,11.976-32.917,27.712C18.876,75.855,20.911,74.835,23.188,74.835z"
			/>
	</g>
	
		<line fill="none" stroke="#FF0000" stroke-width="5" stroke-linecap="round" stroke-linejoin="round" stroke-miterlimit="10" x1="49.171" y1="72.141" x2="58.18" y2="119.002"/>
	<g>
		<path fill="none" stroke="#FF0000" stroke-width="5" stroke-linecap="round" stroke-linejoin="round" stroke-miterlimit="10" d="
			M106.63,101.617c-1.703-0.519-3.47,0.008-4.625,1.205c0.069-2.018-1.209-3.911-3.231-4.528c-1.702-0.518-3.468,0.007-4.623,1.205
			c0.068-2.018-1.209-3.911-3.232-4.528c-1.7-0.518-3.469,0.007-4.623,1.205c0.069-2.018-1.209-3.911-3.231-4.528
			c-1.701-0.517-3.47,0.008-4.624,1.206c0.07-2.019-1.208-3.912-3.231-4.528c-0.438-0.134-0.878-0.195-1.313-0.197
			c5.135-5.818,13.371-8.442,21.277-6.034c9.655,2.942,15.533,12.388,14.313,22.071C108.969,102.983,107.96,102.022,106.63,101.617z
			"/>
	</g>
	
		<line fill="none" stroke="#FF0000" stroke-width="5" stroke-linecap="round" stroke-linejoin="round" stroke-miterlimit="10" x1="91.914" y1="95.412" x2="77.345" y2="119.002"/>
</g>
</svg>
