<?xml version="1.0" encoding="utf-8"?>
<!-- Generator: Adobe Illustrator 16.0.0, SVG Export Plug-In . SVG Version: 6.00 Build 0)  -->
<!DOCTYPE svg PUBLIC "-//W3C//DTD SVG 1.1//EN" "http://www.w3.org/Graphics/SVG/1.1/DTD/svg11.dtd">
<svg version="1.1" id="Calque_1" xmlns="http://www.w3.org/2000/svg" xmlns:xlink="http://www.w3.org/1999/xlink" x="0px" y="0px"
	 width="128px" height="128px" viewBox="0 0 128 128" enable-background="new 0 0 128 128" xml:space="preserve">
<g id="Calque_3_1_" display="none">
	<g id="Calque_3" display="inline">
		<g>
			<path fill="none" stroke="#FF0000" stroke-width="5" stroke-linecap="round" stroke-linejoin="round" stroke-miterlimit="10" d="
				M56.654,55.605c0,0.578-0.469,1.049-1.049,1.049H5.548c-0.579,0-1.048-0.471-1.048-1.049V5.548C4.5,4.969,4.969,4.5,5.548,4.5
				h50.058c0.58,0,1.049,0.469,1.049,1.048L56.654,55.605L56.654,55.605z"/>
			<circle fill="#FF0000" cx="16.424" cy="17.481" r="3.704"/>
			<line fill="none" stroke="#FF0000" stroke-width="4" stroke-miterlimit="10" x1="24.219" y1="17.48" x2="46.23" y2="17.48"/>
			<circle fill="#FF0000" cx="16.424" cy="30.577" r="3.704"/>
			<line fill="none" stroke="#FF0000" stroke-width="4" stroke-miterlimit="10" x1="24.219" y1="30.578" x2="46.23" y2="30.578"/>
			<circle fill="#FF0000" cx="16.424" cy="43.673" r="3.704"/>
			<line fill="none" stroke="#FF0000" stroke-width="4" stroke-miterlimit="10" x1="24.219" y1="43.672" x2="46.23" y2="43.672"/>
		</g>
	</g>
</g>
<g id="Calque_2_2_">
	
		<polygon fill="none" stroke="#FF0000" stroke-width="5" stroke-linecap="round" stroke-linejoin="round" stroke-miterlimit="10" points="
		9.028,31.33 9.028,96.836 65.734,122.747 120.975,94.391 120.975,34.752 65.002,7.377 	"/>
	
		<polyline fill="none" stroke="#FF0000" stroke-width="5" stroke-linecap="round" stroke-linejoin="round" stroke-miterlimit="10" points="
		18.316,36.219 65.002,55.284 65.002,111.502 	"/>
	
		<line fill="none" stroke="#FF0000" stroke-width="5" stroke-linecap="round" stroke-linejoin="round" stroke-miterlimit="10" x1="65.002" y1="55.284" x2="110.965" y2="38.424"/>
</g>
<g>
	<path fill="#FF0000" d="M16.658,84.992l0.867-26.853c0.039-1.178,0.391-2.064,1.061-2.67c0.67-0.601,1.44-0.731,2.326-0.386
		l10.508,4.118c0.869,0.342,1.606,1.062,2.211,2.164c0.607,1.104,0.896,2.245,0.858,3.419L33.619,91.64
		c-0.039,1.19-0.392,2.084-1.053,2.68c-0.662,0.598-1.443,0.723-2.338,0.371l-10.465-4.1c-0.907-0.355-1.664-1.086-2.264-2.176
		C16.896,87.324,16.619,86.182,16.658,84.992z M30.297,90.173l0.856-26.477l-10.268-4.021l-0.856,26.475L30.297,90.173
		L30.297,90.173z"/>
	<path fill="#FF0000" d="M58.317,103.425c-0.02,0.622-0.206,1.085-0.541,1.396c-0.346,0.307-0.749,0.371-1.218,0.187l-13.594-5.327
		c-0.468-0.183-0.857-0.569-1.175-1.148c-0.311-0.586-0.454-1.19-0.435-1.811c0.02-0.606,0.198-1.055,0.538-1.357
		c0.346-0.297,0.749-0.354,1.218-0.172l5.172,2.027l0.855-26.474l-5.095-1.999c-0.467-0.181-0.857-0.559-1.17-1.12
		c-0.315-0.565-0.461-1.162-0.441-1.781c0.021-0.628,0.201-1.089,0.543-1.401c0.342-0.307,0.747-0.369,1.213-0.186l8.464,3.316
		l-1.003,30.966l3.369,1.319C55.019,99.86,58.403,100.775,58.317,103.425z"/>
</g>
</svg>
