<?xml version="1.0" encoding="utf-8"?>
<!-- Generator: Adobe Illustrator 16.0.0, SVG Export Plug-In . SVG Version: 6.00 Build 0)  -->
<!DOCTYPE svg PUBLIC "-//W3C//DTD SVG 1.1//EN" "http://www.w3.org/Graphics/SVG/1.1/DTD/svg11.dtd">
<svg version="1.1" id="Calque_1" xmlns="http://www.w3.org/2000/svg" xmlns:xlink="http://www.w3.org/1999/xlink" x="0px" y="0px"
	 width="128px" height="128px" viewBox="0 0 128 128" enable-background="new 0 0 128 128" xml:space="preserve">
<g id="Calque_2" display="none">
</g>
<polyline fill="none" stroke="#FF0000" stroke-width="5" stroke-linecap="round" stroke-linejoin="round" stroke-miterlimit="10" points="
	35.64,112.5 2.316,112.5 2.316,18.928 14.391,18.928 "/>
<polyline fill="none" stroke="#FF0000" stroke-width="5" stroke-linecap="round" stroke-linejoin="round" stroke-miterlimit="10" points="
	107.074,18.928 119.148,18.928 119.148,54.446 "/>
<line fill="none" stroke="#FF0000" stroke-width="5" stroke-linecap="round" stroke-linejoin="round" stroke-miterlimit="10" x1="67.096" y1="18.928" x2="94.348" y2="18.928"/>
<line fill="none" stroke="#FF0000" stroke-width="5" stroke-linecap="round" stroke-linejoin="round" stroke-miterlimit="10" x1="27.119" y1="18.928" x2="54.372" y2="18.928"/>
<rect x="14.392" y="8.464" fill="none" stroke="#FF0000" stroke-width="5" stroke-linecap="round" stroke-linejoin="round" stroke-miterlimit="10" width="12.728" height="20.626"/>
<rect x="54.37" y="8.464" fill="none" stroke="#FF0000" stroke-width="5" stroke-linecap="round" stroke-linejoin="round" stroke-miterlimit="10" width="12.728" height="20.626"/>
<rect x="94.348" y="8.464" fill="none" stroke="#FF0000" stroke-width="5" stroke-linecap="round" stroke-linejoin="round" stroke-miterlimit="10" width="12.729" height="20.626"/>
<polygon fill="none" stroke="#FF0000" stroke-width="5" stroke-miterlimit="10" points="52.746,82.105 40.362,60.659 52.746,39.211 
	77.509,39.211 89.892,60.659 77.509,82.105 "/>
<polygon fill="none" stroke="#FF0000" stroke-width="5" stroke-miterlimit="10" points="52.746,124.998 40.362,103.554 
	52.746,82.105 77.509,82.105 89.892,103.554 77.509,124.998 "/>
<polygon fill="none" stroke="#FF0000" stroke-width="5" stroke-miterlimit="10" points="88.954,103.554 76.571,82.105 
	88.954,60.659 113.72,60.659 126.101,82.105 113.72,103.554 "/>
</svg>
