<?xml version="1.0" encoding="utf-8"?>
<!-- Generator: Adobe Illustrator 16.0.0, SVG Export Plug-In . SVG Version: 6.00 Build 0)  -->
<!DOCTYPE svg PUBLIC "-//W3C//DTD SVG 1.1//EN" "http://www.w3.org/Graphics/SVG/1.1/DTD/svg11.dtd">
<svg version="1.1"
	 id="Livello_1" inkscape:version="1.0 (4035a4fb49, 2020-05-01)" sodipodi:docname="iconHome.svg" xmlns:cc="http://creativecommons.org/ns#" xmlns:dc="http://purl.org/dc/elements/1.1/" xmlns:inkscape="http://www.inkscape.org/namespaces/inkscape" xmlns:rdf="http://www.w3.org/1999/02/22-rdf-syntax-ns#" xmlns:sodipodi="http://sodipodi.sourceforge.net/DTD/sodipodi-0.dtd" xmlns:svg="http://www.w3.org/2000/svg"
	 xmlns="http://www.w3.org/2000/svg" xmlns:xlink="http://www.w3.org/1999/xlink" x="0px" y="0px" width="128px" height="128px"
	 viewBox="0 0 128 128" enable-background="new 0 0 128 128" xml:space="preserve">
<sodipodi:namedview  id="namedview7" inkscape:window-width="1519" inkscape:pageshadow="2" inkscape:window-x="0" inkscape:window-y="0" inkscape:pageopacity="0" inkscape:window-height="845" inkscape:window-maximized="0" inkscape:current-layer="Livello_1" inkscape:zoom="2.8710938" bordercolor="#666666" guidetolerance="10" objecttolerance="10" borderopacity="1" showgrid="false" inkscape:cx="7.8240306" pagecolor="#ffffff" inkscape:cy="41.675131" gridtolerance="10">
	</sodipodi:namedview>
<title  id="title2"></title>
<path fill="none" stroke="#FF0000" stroke-width="5" stroke-linecap="round" stroke-linejoin="round" stroke-miterlimit="10" d="
	M51.378,92.252L92.25,51.379c7.295,1.915,15.385,0.017,21.104-5.702c6.582-6.583,8.108-16.306,4.575-24.341L104.585,34.68
	c-1.872,1.872-4.934,1.872-6.806,0l-4.074-4.074c-1.872-1.872-1.872-4.935,0-6.807l13.486-13.485
	c-8.135-3.836-18.145-2.393-24.869,4.332c-5.718,5.72-7.615,13.808-5.701,21.105l-40.87,40.869
	c-7.296-1.911-15.387-0.017-21.105,5.706c-6.583,6.581-8.11,16.306-4.575,24.341L23.415,93.32c1.872-1.872,4.935-1.872,6.807,0
	l4.072,4.076c1.872,1.87,1.872,4.934,0,6.804l-13.485,13.486c8.135,3.835,18.143,2.394,24.867-4.331
	C51.395,107.635,53.292,99.547,51.378,92.252z"/>
</svg>
