<?xml version="1.0" encoding="utf-8"?>
<!-- Generator: Adobe Illustrator 16.0.0, SVG Export Plug-In . SVG Version: 6.00 Build 0)  -->
<!DOCTYPE svg PUBLIC "-//W3C//DTD SVG 1.1//EN" "http://www.w3.org/Graphics/SVG/1.1/DTD/svg11.dtd">
<svg version="1.1" id="Calque_1" xmlns="http://www.w3.org/2000/svg" xmlns:xlink="http://www.w3.org/1999/xlink" x="0px" y="0px"
	 width="128px" height="128px" viewBox="0 0 128 128" enable-background="new 0 0 128 128" xml:space="preserve">
<g id="Calque_2" display="none">
	<g display="inline">
		<path fill="none" d="M65.085,64.747c9.406,0,15.547-12.935,16.563-26.153h-30.49c-0.851,0.106-1.718,0.198-2.616,0.25
			C49.617,51.975,55.738,64.747,65.085,64.747z"/>
		<path fill="none" d="M92.959,75.411l-9.646-3.521L67.88,80.636l-5.938-0.091l-15.506-8.65l-9.566,3.519
			c-1.507,0.728-19.394,9.841-18.328,33.112c0.541,0.854,3.165,4.105,11.531,4.175c-0.264-4.405-0.719-14.237-0.156-22.853
			l4.739,0.31c-0.606,9.286,0.032,20.393,0.246,23.604c5.498,4.867,17.007,7.822,30.305,7.707
			c12.979-0.095,24.488-3.097,29.764-7.704c0.194-3.279,0.781-14.628,0.146-23.755l4.738-0.331
			c0.595,8.51,0.179,18.562-0.063,23.021c8.269-0.072,10.908-3.268,11.493-4.19C112.336,85.279,94.51,76.16,92.959,75.411z"/>
		<path fill="#FF0000" d="M35.814,38.594h6.227c0,0.002,0,0.004,0,0.006c-1.305,2.819-1.772,7.667,4.469,13.882
			c3.377,9.688,9.662,17.016,18.575,17.016c8.739,0,15.188-7.482,18.631-17.413c5.837-6.035,5.343-10.733,4.063-13.491h6.232
			c1.215,0,2.198-0.984,2.198-2.199c0-1.214-0.983-2.199-2.198-2.199H91.07c0.016-0.334,0.022-0.671,0.022-1.009
			c0-10.568-6.177-19.661-15.054-23.763c0.025,1.039,0.031,2.212,0.031,3.533v3.8c0,10.968-0.596,11.62-10.621,11.62
			c-10.028,0-10.623-0.652-10.623-11.62v-3.8c0-1.326,0.009-2.498,0.042-3.54c-8.881,4.101-15.063,13.198-15.063,23.77
			c0,0.341,0.03,0.673,0.046,1.009h-4.039c-1.214,0-2.199,0.985-2.199,2.199C33.615,37.609,34.6,38.594,35.814,38.594z
			 M51.157,38.594h30.489c-1.017,13.218-7.155,26.153-16.563,26.153c-9.347,0-15.468-12.772-16.543-25.903
			C49.439,38.792,50.306,38.7,51.157,38.594z"/>
		<path fill="#FF0000" d="M94.869,71.063l-14.21-5.196L67.984,73.28h-6.221l-12.676-7.423L35.13,70.989l-0.173,0.071
			c-0.229,0.104-22.684,10.774-21.134,38.211l0.021,0.354l0.12,0.331c0.119,0.321,2.909,7.502,16.378,7.502
			c0.5,0,1.019-0.015,1.55-0.035c6.384,5.541,18.402,8.797,32.667,8.797c0.228,0,0.455-0.002,0.683-0.003
			c11.19-0.078,25.396-2.453,32.747-8.793c14.754,0.546,17.746-7.134,17.869-7.469l0.123-0.33l0.021-0.354
			C117.55,81.837,95.096,71.166,94.869,71.063z M111.283,108.508c-0.586,0.924-3.227,4.118-11.493,4.19
			c0.241-4.46,0.657-14.511,0.065-23.021l-4.74,0.331c0.637,9.127,0.05,20.477-0.146,23.754c-5.273,4.608-16.783,7.61-29.763,7.705
			c-13.298,0.115-24.808-2.84-30.305-7.707c-0.213-3.213-0.852-14.316-0.246-23.604l-4.739-0.31
			c-0.563,8.614-0.108,18.446,0.156,22.854c-8.366-0.067-10.99-3.319-11.531-4.174c-1.065-23.272,16.821-32.39,18.328-33.113
			l9.566-3.518l15.506,8.649l5.938,0.091l15.434-8.746l9.646,3.521C94.51,76.16,112.336,85.279,111.283,108.508z"/>
		<path fill="#FF0000" d="M73.372,8.367c-0.083-1.763-0.28-2.937-0.769-3.485c-0.771-0.865-3.101-0.907-7.153-0.907
			c-3.994,0-6.394,0-7.163,0.853c-0.487,0.541-0.682,1.733-0.763,3.539c2.496-0.824,5.156-1.275,7.921-1.275
			C68.214,7.091,70.876,7.542,73.372,8.367z"/>
		<path fill="#FF0000" d="M57.466,16.756c0,4.501,0,7.218,0.823,8.129c0.77,0.852,3.175,0.852,7.161,0.852
			c3.985,0,6.391,0,7.159-0.852c0.824-0.911,0.824-3.627,0.824-8.129v-3.8c0-1.835-0.004-3.353-0.063-4.589
			c-2.496-0.824-5.158-1.275-7.927-1.275c-2.765,0-5.425,0.451-7.921,1.275c-0.055,1.239-0.059,2.759-0.059,4.589v3.8H57.466z"/>
	</g>
</g>
<path fill="none" stroke="#FF0000" stroke-width="5" stroke-linecap="round" stroke-miterlimit="10" d="M51.257,120.433
	c-14.916-1.878-19.736-6.915-19.736-6.915s-9.512,0.951-15.853-5.391c0,0-2.537-32.34,32.023-41.376"/>
<path fill="none" stroke="#FF0000" stroke-width="5" stroke-linecap="round" stroke-miterlimit="10" d="M77.813,66.75
	c0,0,33.61,6.99,34.56,41.938c0,0-8.878,7.998-16.805,4.511c0,0-5.209,5.113-19.868,7.127"/>
<path fill="none" stroke="#FF0000" stroke-width="5" stroke-linecap="round" stroke-miterlimit="10" d="M30.63,88.824
	c0,0-1.328,15.814,0.892,24.692"/>
<path fill="none" stroke="#FF0000" stroke-width="5" stroke-linecap="round" stroke-miterlimit="10" d="M94.934,88.824
	c0,0,0.951,14.862,0.634,24.374"/>
<polygon fill="none" stroke="#FF0000" stroke-width="5" stroke-linecap="round" stroke-linejoin="round" stroke-miterlimit="10" points="
	56.751,71.909 69.332,71.909 66.944,79.61 59.269,79.61 "/>
<polygon fill="none" stroke="#FF0000" stroke-width="5" stroke-linecap="round" stroke-linejoin="round" stroke-miterlimit="10" points="
	62.984,116.784 71.028,110.007 65.462,79.61 60.817,79.61 55.299,110.007 "/>
<path fill="none" stroke="#FF0000" stroke-width="5" stroke-miterlimit="10" d="M82.747,33.473c0,5.5-1.37,10.584-3.689,14.703
	c-3.47,6.161-9.063,12.908-15.371,12.908c-6.208,0-11.72-6.619-15.2-12.609c-2.423-4.17-3.861-9.367-3.861-15.002
	c0-13.73,8.533-24.862,19.061-24.862C74.213,8.61,82.747,19.742,82.747,33.473z"/>
<g>
	<path fill="#FF0000" d="M93.034,23.618c0,0.477-0.387,0.864-0.864,0.864h-3.782c-0.478,0-0.863-0.387-0.863-0.864v-3.781
		c0-0.477,0.386-0.864,0.863-0.864h3.782c0.478,0,0.864,0.387,0.864,0.864V23.618z"/>
	<path fill="#FF0000" d="M101.08,23.618c0,0.477-0.385,0.864-0.863,0.864h-3.781c-0.479,0-0.864-0.387-0.864-0.864v-3.781
		c0-0.477,0.386-0.864,0.864-0.864h3.781c0.479,0,0.863,0.387,0.863,0.864V23.618z"/>
	<path fill="#FF0000" d="M109.073,23.618c0,0.477-0.387,0.864-0.864,0.864h-3.781c-0.478,0-0.863-0.387-0.863-0.864v-3.781
		c0-0.477,0.386-0.864,0.863-0.864h3.781c0.478,0,0.864,0.387,0.864,0.864V23.618z"/>
</g>
<g>
	<path fill="none" d="M83.06,33.874c0,0.385-0.011,0.767-0.024,1.149h8.315v10.183l8.294-10.183h22.404V8.432H74.553v4.304
		C79.758,17.834,83.06,25.408,83.06,33.874z"/>
	<path fill="#FF0000" d="M123.845,3.726H72.754c-1.63,0-2.907,1.375-2.907,3.13v3.315c1.694,0.994,3.272,1.16,4.706,2.565V8.432
		h47.492v26.591H99.644L91.35,45.205V35.023l-9.309-0.176c-0.058,1.607,0.761,3.355,0.477,4.883h4.126v18.709l15.237-18.709h21.964
		c1.63,0,2.908-1.375,2.908-3.13V6.856C126.751,5.101,125.476,3.726,123.845,3.726z"/>
</g>
</svg>
