<?xml version="1.0" encoding="utf-8"?>
<!-- Generator: Adobe Illustrator 16.0.0, SVG Export Plug-In . SVG Version: 6.00 Build 0)  -->
<!DOCTYPE svg PUBLIC "-//W3C//DTD SVG 1.1//EN" "http://www.w3.org/Graphics/SVG/1.1/DTD/svg11.dtd">
<svg version="1.1" id="Calque_1" xmlns="http://www.w3.org/2000/svg" xmlns:xlink="http://www.w3.org/1999/xlink" x="0px" y="0px"
	 width="128px" height="128px" viewBox="0 0 128 128" enable-background="new 0 0 128 128" xml:space="preserve">
<g id="Calque_2" display="none">
</g>
<g>
	
		<circle fill="none" stroke="#FF0000" stroke-width="5" stroke-linecap="round" stroke-linejoin="round" stroke-miterlimit="10" cx="32.143" cy="23.468" r="9.008"/>
	<path fill="none" stroke="#FF0000" stroke-width="5" stroke-linecap="round" stroke-linejoin="round" stroke-miterlimit="10" d="
		M60.093,32.267c0-15.437-12.513-27.951-27.949-27.951c-15.438,0-27.951,12.515-27.951,27.951c0,10.863,6.21,20.257,15.264,24.883
		v9.273l7.923,7.922l-8.526,8.529l7.166,7.165l-6.523,6.523l7.014,7.013l-7.217,7.217l12.475,12.476l13.242-13.244V57.074h-0.028
		C53.954,52.423,60.093,43.07,60.093,32.267z"/>
</g>
<g>
	<path fill="none" stroke="#FF0000" stroke-width="5" stroke-linecap="round" stroke-linejoin="round" stroke-miterlimit="10" d="
		M58.143,95.139h12.871h47.886c3.315,0,6.031-2.713,6.031-6.03v-9.265"/>
	<path fill="none" stroke="#FF0000" stroke-width="5" stroke-linecap="round" stroke-linejoin="round" stroke-miterlimit="10" d="
		M53.83,79.844h71.101V15.225c0-3.318-2.716-6.031-6.031-6.031H66.5"/>
	<path fill="none" stroke="#FF0000" stroke-width="5" stroke-linecap="round" stroke-linejoin="round" stroke-miterlimit="10" d="
		M49.163,118.806h42.966c2.398,0,4.358-1.961,4.358-4.358c0-2.398-1.96-4.36-4.358-4.36H71.014V95.139H58.143"/>
</g>
</svg>
