<?xml version="1.0" encoding="utf-8"?>
<!-- Generator: Adobe Illustrator 16.0.0, SVG Export Plug-In . SVG Version: 6.00 Build 0)  -->
<!DOCTYPE svg PUBLIC "-//W3C//DTD SVG 1.1//EN" "http://www.w3.org/Graphics/SVG/1.1/DTD/svg11.dtd">
<svg version="1.1" id="Calque_2" xmlns="http://www.w3.org/2000/svg" xmlns:xlink="http://www.w3.org/1999/xlink" x="0px" y="0px"
	 width="128px" height="128px" viewBox="0 0 128 128" enable-background="new 0 0 128 128" xml:space="preserve">
<g>
	<path fill="#FF0000" d="M59.942,35.069l-3.12-13.422c0,0-1.873-5.305,3.12-5.305c4.995,0,6.326,0,7.804,0
		c1.821,0,4.992,0.937,3.432,5.93c-1.56,4.996-3.12,12.797-3.12,12.797"/>
	<path fill="#FF0000" d="M73.988,21.958c10.612,3.124,14.67,21.461,14.67,21.461s4.059-0.547,4.059,3.883
		c0,4.429-4.369,3.829-4.369,3.829H39.966c0,0-4.682,0.794-4.682-3.89c0-4.682,4.682-3.744,4.682-3.744s0.936-14.047,14.046-21.54"
		/>
</g>
<path fill="none" stroke="#FF0000" stroke-width="5" stroke-linecap="round" stroke-linejoin="round" stroke-miterlimit="10" d="
	M81.486,53.03c0,4.885-1.216,9.398-3.274,13.057C75.13,71.558,70.163,77.55,64.559,77.55c-5.51,0-10.407-5.878-13.496-11.197
	c-2.152-3.703-3.429-8.318-3.429-13.322c0-12.193,7.578-22.079,16.927-22.079C73.909,30.952,81.486,40.836,81.486,53.03z"/>
<path fill="none" stroke="#FF0000" stroke-width="5" stroke-linecap="round" stroke-linejoin="round" stroke-miterlimit="10" d="
	M40.125,58.601c0,3.424-0.852,6.588-2.294,9.152c-2.161,3.834-5.642,8.033-9.569,8.033c-3.863,0-7.294-4.119-9.459-7.848
	c-1.508-2.596-2.404-5.83-2.404-9.338c0-8.545,5.312-15.474,11.864-15.474S40.125,50.054,40.125,58.601z"/>
<path fill="none" stroke="#FF0000" stroke-width="5" stroke-linecap="round" stroke-linejoin="round" stroke-miterlimit="10" d="
	M111.602,58.601c0,3.424-0.853,6.588-2.296,9.152c-2.159,3.834-5.642,8.033-9.568,8.033c-3.863,0-7.294-4.119-9.459-7.848
	c-1.509-2.596-2.404-5.83-2.404-9.338c0-8.545,5.312-15.474,11.864-15.474C106.29,43.127,111.602,50.054,111.602,58.601z"/>
<path fill="none" stroke="#FF0000" stroke-width="5" stroke-linecap="round" stroke-linejoin="round" stroke-miterlimit="10" d="
	M82.568,83.036c1.932-1.32,4.333-2.438,7.313-3.217c0,0,2.858,4.846,9.826,4.846h0.06c6.966,0,9.825-4.846,9.825-4.846
	c17.723,4.633,14.94,21.217,14.94,21.217s-1.757,3.818-20.649,4.307"/>
<path fill="none" stroke="#FF0000" stroke-width="5" stroke-linecap="round" stroke-linejoin="round" stroke-miterlimit="10" d="
	M24.189,105.343c-18.915-0.486-20.723-4.307-20.723-4.307S0.683,84.452,18.405,79.819c0,0,2.859,4.846,9.827,4.846h0.058
	c6.968,0,9.826-4.846,9.826-4.846c2.994,0.783,5.403,1.907,7.339,3.234"/>
<path fill="none" stroke="#FF0000" stroke-width="5" stroke-miterlimit="10" d="M64.083,124c-37.094,0-40.455-7.102-40.455-7.102
	s-4.535-27.026,24.345-34.576c0,0,4.659,7.896,16.014,7.896h0.096c11.355,0,16.013-7.896,16.013-7.896
	c28.881,7.55,24.347,34.576,24.347,34.576S101.178,124,64.083,124z"/>
</svg>
