<?xml version="1.0" encoding="utf-8"?>
<!-- Generator: Adobe Illustrator 16.0.0, SVG Export Plug-In . SVG Version: 6.00 Build 0)  -->
<!DOCTYPE svg PUBLIC "-//W3C//DTD SVG 1.1//EN" "http://www.w3.org/Graphics/SVG/1.1/DTD/svg11.dtd">
<svg version="1.1" id="Calque_1" xmlns="http://www.w3.org/2000/svg" xmlns:xlink="http://www.w3.org/1999/xlink" x="0px" y="0px"
	 width="128px" height="128px" viewBox="0 0 128 128" enable-background="new 0 0 128 128" xml:space="preserve">
<g id="Calque_3" display="none">
	<g display="inline">
		<g>
			
				<circle fill="none" stroke="#FF0000" stroke-width="5" stroke-linecap="round" stroke-linejoin="round" stroke-miterlimit="10" cx="59.272" cy="69.415" r="7.812"/>
			
				<circle fill="none" stroke="#FF0000" stroke-width="5" stroke-linecap="round" stroke-linejoin="round" stroke-miterlimit="10" cx="59.272" cy="69.415" r="7.812"/>
			
				<circle fill="none" stroke="#FF0000" stroke-width="5" stroke-linecap="round" stroke-linejoin="round" stroke-miterlimit="10" cx="59.273" cy="69.415" r="22.62"/>
			
				<circle fill="none" stroke="#FF0000" stroke-width="5" stroke-linecap="round" stroke-linejoin="round" stroke-miterlimit="10" cx="59.273" cy="69.415" r="38.346"/>
			
				<circle fill="none" stroke="#FF0000" stroke-width="5" stroke-linecap="round" stroke-linejoin="round" stroke-miterlimit="10" cx="59.273" cy="69.415" r="54.632"/>
		</g>
		
			<line fill="none" stroke="#FF0000" stroke-width="5" stroke-linecap="round" stroke-linejoin="round" stroke-miterlimit="10" x1="113.904" y1="16.864" x2="124.872" y2="16.864"/>
		
			<line fill="none" stroke="#FF0000" stroke-width="5" stroke-linecap="round" stroke-linejoin="round" stroke-miterlimit="10" x1="113.904" y1="16.864" x2="113.904" y2="5.898"/>
		
			<line fill="none" stroke="#FF0000" stroke-width="5" stroke-linecap="round" stroke-linejoin="round" stroke-miterlimit="10" x1="59.272" y1="69.415" x2="113.904" y2="16.864"/>
	</g>
</g>
<g id="Calque_5" display="none">
</g>
<g id="Calque_4">
</g>
<g>
	<path fill="#FF0000" d="M17.861,119.307L3.1,64.667h70.925l-14.316,52.968l-0.458,1.672H17.861L17.861,119.307z M57.521,117.044
		v-2.265V117.044L57.521,117.044z M21.325,114.779h34.463l12.315-45.582H9.009L21.325,114.779L21.325,114.779z"/>
</g>
<g>
	<path fill="#FF0000" d="M66.088,55.999c-0.023-15.2-12.315-27.497-27.528-27.522l0,0c-15.202,0.025-27.504,12.327-27.529,27.522
		l0,0H6.499c0-17.705,14.355-32.054,32.061-32.061l0,0c17.71,0.007,32.059,14.355,32.065,32.061l0,0H66.088L66.088,55.999z"/>
</g>
<g>
	<polygon fill="#FF0000" points="8.761,82.74 8.761,78.21 68.35,78.21 68.35,82.74 	"/>
</g>
<path fill="none" stroke="#FF0000" stroke-width="5" stroke-linecap="round" stroke-linejoin="round" stroke-miterlimit="10" d="
	M106.503,88.164l-0.002-45.459c5.123-2.991,8.566-8.546,8.566-14.907c0-7.32-4.558-13.577-10.991-16.081l-0.002,14.842
	c0.002,2.081-1.702,3.784-3.784,3.784h-4.529c-2.084,0-3.786-1.703-3.786-3.786V11.558c-6.657,2.392-11.422,8.761-11.42,16.239
	c0.001,6.361,3.443,11.914,8.565,14.907l-0.001,45.457c-5.12,2.996-8.565,8.548-8.562,14.91c-0.003,7.319,4.557,13.576,10.99,16.079
	v-14.842c0-2.083,1.703-3.786,3.784-3.785l4.533,0.003c2.077-0.003,3.783,1.701,3.78,3.782l0.001,14.998
	c6.658-2.391,11.421-8.758,11.421-16.236C115.067,96.708,111.624,91.155,106.503,88.164z"/>
</svg>
