<?xml version="1.0" encoding="utf-8"?>
<!-- Generator: Adobe Illustrator 16.0.0, SVG Export Plug-In . SVG Version: 6.00 Build 0)  -->
<!DOCTYPE svg PUBLIC "-//W3C//DTD SVG 1.1//EN" "http://www.w3.org/Graphics/SVG/1.1/DTD/svg11.dtd">
<svg version="1.1" id="Calque_1" xmlns="http://www.w3.org/2000/svg" xmlns:xlink="http://www.w3.org/1999/xlink" x="0px" y="0px"
	 width="128px" height="128px" viewBox="0 0 128 128" enable-background="new 0 0 128 128" xml:space="preserve">
<g id="Calque_2" display="none">
</g>
<g>
	<g>
		<g>
			<path fill="none" stroke="#FF0000" stroke-width="5" stroke-linecap="round" stroke-linejoin="round" stroke-miterlimit="10" d="
				M69.02,83.838H54.085H43.332H8.462c-1.891,0-3.438-1.549-3.438-3.441v-8.857v-43.46c0-1.893,1.548-3.438,3.438-3.438h80.492
				c1.89,0,3.438,1.545,3.438,3.438V43"/>
			
				<line fill="none" stroke="#FF0000" stroke-width="5" stroke-linecap="round" stroke-linejoin="round" stroke-miterlimit="10" x1="69.02" y1="71.539" x2="5.024" y2="71.539"/>
			
				<line fill="none" stroke="#FF0000" stroke-width="5" stroke-linecap="round" stroke-linejoin="round" stroke-miterlimit="10" x1="46.292" y1="36.784" x2="51.125" y2="36.784"/>
			
				<line fill="none" stroke="#FF0000" stroke-width="5" stroke-linecap="round" stroke-linejoin="round" stroke-miterlimit="10" x1="88.983" y1="56.237" x2="93.813" y2="56.237"/>
			
				<polygon fill="none" stroke="#FF0000" stroke-width="5" stroke-linecap="round" stroke-linejoin="round" stroke-miterlimit="10" points="
				57.535,96.566 54.085,96.566 54.085,83.834 43.332,83.834 43.332,96.566 40.017,96.566 29.83,98.531 29.83,109.004 
				67.368,109.004 67.368,98.531 			"/>
		</g>
		<path fill="none" stroke="#FF0000" stroke-width="5" stroke-linecap="round" stroke-linejoin="round" stroke-miterlimit="10" d="
			M103.381,64.99c0-1.277,1.045-2.32,2.324-2.32h15.743c1.276,0,2.324,1.043,2.324,2.32v33.861v7.834
			c0,1.275-1.048,2.318-2.324,2.318h-15.743c-1.279,0-2.324-1.043-2.324-2.318V64.99"/>
		<path fill="none" stroke="#FF0000" stroke-width="5" stroke-linecap="round" stroke-linejoin="round" stroke-miterlimit="10" d="
			M113.779,62.67V46.438c0-1.891-1.549-3.438-3.438-3.438H72.456c-1.894,0-3.437,1.547-3.437,3.438v59.126
			c0,1.893,1.543,3.439,3.437,3.439h33.073h4.812"/>
	</g>
</g>
</svg>
