<?xml version="1.0" encoding="UTF-8" standalone="no"?>
<!DOCTYPE svg PUBLIC "-//W3C//DTD SVG 1.1//EN" "http://www.w3.org/Graphics/SVG/1.1/DTD/svg11.dtd">
<svg width="100%" height="100%" viewBox="0 0 512 512" version="1.1" xmlns="http://www.w3.org/2000/svg" xmlns:xlink="http://www.w3.org/1999/xlink" xml:space="preserve" xmlns:serif="http://www.serif.com/" style="fill-rule:evenodd;clip-rule:evenodd;stroke-linejoin:round;stroke-miterlimit:2;">
    <g>
        <g>
            <path d="M467.819,431.851L431.168,370.795C414.272,342.614 405.333,310.358 405.333,277.483L405.333,224C405.333,141.675 338.325,74.667 256,74.667C173.675,74.667 106.667,141.675 106.667,224L106.667,277.483C106.667,310.358 97.728,342.614 80.832,370.795L44.181,431.851C42.197,435.136 42.154,439.254 44.032,442.582C45.931,445.931 49.493,448.001 53.333,448.001L458.666,448.001C462.506,448.001 466.069,445.932 467.967,442.582C469.845,439.253 469.803,435.136 467.819,431.851ZM72.171,426.667L99.115,381.76C118.016,350.272 128,314.219 128,277.483L128,224C128,153.408 185.408,96 256,96C326.592,96 384,153.408 384,224L384,277.483C384,314.219 393.984,350.272 412.864,381.76L439.829,426.667L72.171,426.667Z" style="fill-rule:nonzero;"/>
        </g>
    </g>
</svg>
