<?xml version="1.0" encoding="utf-8"?>
<!-- Generator: Adobe Illustrator 16.0.0, SVG Export Plug-In . SVG Version: 6.00 Build 0)  -->
<!DOCTYPE svg PUBLIC "-//W3C//DTD SVG 1.1//EN" "http://www.w3.org/Graphics/SVG/1.1/DTD/svg11.dtd">
<svg version="1.1" xmlns="http://www.w3.org/2000/svg" xmlns:xlink="http://www.w3.org/1999/xlink" x="0px" y="0px" width="128px"
	 height="128px" viewBox="0 0 128 128" enable-background="new 0 0 128 128" xml:space="preserve">
<g id="Calque_3_2_">
	<g id="Calque_3_3_">
		
			<line fill="none" stroke="#FF0000" stroke-width="5" stroke-linecap="round" stroke-linejoin="round" stroke-miterlimit="10" x1="53.878" y1="62.5" x2="53.878" y2="86.686"/>
		<path fill="none" stroke="#FF0000" stroke-width="5" stroke-linecap="round" stroke-linejoin="round" stroke-miterlimit="10" d="
			M41.949,64v8.555h0.001c0,0.717-0.582,1.301-1.299,1.301H11.533c-0.718,0-1.3-0.584-1.3-1.301V64"/>
		<path fill="none" stroke="#FF0000" stroke-width="5" stroke-linecap="round" stroke-linejoin="round" stroke-miterlimit="10" d="
			M41.95,91.352v-9.098c0-0.719-0.582-1.3-1.299-1.3H11.533c-0.718,0-1.3,0.581-1.3,1.3v25.111c0,0.719,0.582,1.299,1.3,1.299
			h24.431C35.966,108.664,35.477,99.328,41.95,91.352z"/>
		
			<line fill="none" stroke="#FF0000" stroke-width="5" stroke-linecap="round" stroke-linejoin="round" stroke-miterlimit="10" x1="3.152" y1="116.184" x2="41.942" y2="116.184"/>
		<path fill="none" stroke="#FF0000" stroke-width="5" stroke-linecap="round" stroke-linejoin="round" stroke-miterlimit="10" d="
			M60.565,82.737h9.379l7.591-39.59h29.412l1.917,41.722h15.984v27.919h-2.983c0,0-1.173-10.337-12.073-10.337
			c-11.511,0-12.115,9.337-12.115,9.337H82.52c0,0-0.083-2.938-0.083-6.884c0-3.305-2.344-18.744-19.184-18.744h-2.688V82.737z"/>
		<circle fill="none" stroke="#FF0000" stroke-width="5" stroke-miterlimit="10" cx="61.026" cy="107.223" r="14.477"/>
		<circle fill="none" stroke="#FF0000" stroke-width="5" stroke-miterlimit="10" cx="109.037" cy="118.7" r="6.62"/>
		<path fill="none" stroke="#FF0000" stroke-width="5" stroke-linejoin="round" stroke-miterlimit="10" d="M83.402,50.222h17.312
			v29.04h-7.199l-3.235,5.176h-4.528c0,0-0.699-4.448-7.25-6.309L83.402,50.222z"/>
	</g>
</g>
<g id="Calque_2">
	<g id="Calque_2_1_">
		<g id="Calque_3_1_">
			<g>
				
					<path fill="none" stroke="#FF0000" stroke-width="5" stroke-linecap="round" stroke-linejoin="round" stroke-miterlimit="10" d="
					M56.654,55.605c0,0.578-0.469,1.049-1.049,1.049H5.548c-0.579,0-1.048-0.471-1.048-1.049V5.548C4.5,4.969,4.969,4.5,5.548,4.5
					h50.058c0.58,0,1.049,0.469,1.049,1.048V55.605L56.654,55.605z"/>
				<circle fill="#FF0000" cx="16.424" cy="17.481" r="3.704"/>
				<line fill="none" stroke="#FF0000" stroke-width="4" stroke-miterlimit="10" x1="24.219" y1="17.48" x2="46.23" y2="17.48"/>
				<circle fill="#FF0000" cx="16.424" cy="30.577" r="3.704"/>
				<line fill="none" stroke="#FF0000" stroke-width="4" stroke-miterlimit="10" x1="24.219" y1="30.578" x2="46.23" y2="30.578"/>
				<circle fill="#FF0000" cx="16.424" cy="43.673" r="3.704"/>
				<line fill="none" stroke="#FF0000" stroke-width="4" stroke-miterlimit="10" x1="24.219" y1="43.672" x2="46.23" y2="43.672"/>
			</g>
		</g>
	</g>
</g>
</svg>
