<?xml version="1.0" encoding="utf-8"?>
<!-- Generator: Adobe Illustrator 16.0.0, SVG Export Plug-In . SVG Version: 6.00 Build 0)  -->
<!DOCTYPE svg PUBLIC "-//W3C//DTD SVG 1.1//EN" "http://www.w3.org/Graphics/SVG/1.1/DTD/svg11.dtd">
<svg version="1.1" id="Calque_1" xmlns="http://www.w3.org/2000/svg" xmlns:xlink="http://www.w3.org/1999/xlink" x="0px" y="0px"
	 width="128px" height="128px" viewBox="0 0 128 128" enable-background="new 0 0 128 128" xml:space="preserve">
<path fill="none" stroke="#FF0000" stroke-width="5" stroke-linecap="round" stroke-miterlimit="10" d="M113.644,75.146
	c-4.393,22.868-24.508,40.147-48.655,40.147c-24.167,0-44.293-17.302-48.667-40.193"/>
<path fill="none" stroke="#FF0000" stroke-width="5" stroke-linecap="round" stroke-linejoin="round" stroke-miterlimit="10" d="
	M74.01,41.741c-2.806-1.041-5.841-1.61-9.008-1.61c-3.68,0-7.181,0.767-10.351,2.147L39.718,21.394
	c7.462-4.236,16.091-6.654,25.284-6.654c8.155,0,15.868,1.901,22.715,5.288c0.54,0.268,1.076,0.544,1.604,0.83L74.01,41.741z"/>
<path fill="none" stroke="#FF0000" stroke-width="5" stroke-linecap="round" stroke-linejoin="round" stroke-miterlimit="10" d="
	M90.807,63.692c0.07,0.775,0.106,1.56,0.106,2.353h25.396c0-15.386-5.337-27.657-16.064-37.063L84.613,49.11
	c0.498,0.491-0.457-0.529,0,0"/>
<path fill="none" stroke="#FF0000" stroke-width="5" stroke-linecap="round" stroke-linejoin="round" stroke-miterlimit="10" d="
	M39.086,66.045c0-7.032,1.523-12.225,6.068-16.893L30.063,28.509C19.251,37.916,13.695,50.59,13.695,66.045H39.086z"/>
<path fill="none" stroke="#FF0000" stroke-width="5" stroke-linecap="round" stroke-linejoin="round" stroke-miterlimit="10" d="
	M73.791,72.521l21.253-19.891l-30.116,3.656c-5.822,0-10.541,4.719-10.541,10.541S59.106,77.37,64.928,77.37
	c1.838,0,3.565-0.474,5.071-1.302l0,0l0.002-0.002C71.543,75.221,72.842,73.996,73.791,72.521z"/>
</svg>
