<?xml version="1.0" encoding="UTF-8" standalone="no"?>
<svg
   xmlns:dc="http://purl.org/dc/elements/1.1/"
   xmlns:cc="http://creativecommons.org/ns#"
   xmlns:rdf="http://www.w3.org/1999/02/22-rdf-syntax-ns#"
   xmlns:svg="http://www.w3.org/2000/svg"
   xmlns="http://www.w3.org/2000/svg"
   xmlns:sodipodi="http://sodipodi.sourceforge.net/DTD/sodipodi-0.dtd"
   xmlns:inkscape="http://www.inkscape.org/namespaces/inkscape"
   height="48"
   viewBox="0 0 48 48"
   width="48"
   version="1.1"
   id="svg15"
   sodipodi:docname="iconKanban.svg"
   inkscape:version="1.0 (4035a4fb49, 2020-05-01)">
  <metadata
     id="metadata19">
    <rdf:RDF>
      <cc:Work
         rdf:about="">
        <dc:format>image/svg+xml</dc:format>
        <dc:type
           rdf:resource="http://purl.org/dc/dcmitype/StillImage" />
      </cc:Work>
    </rdf:RDF>
  </metadata>
  <sodipodi:namedview
     inkscape:document-rotation="0"
     pagecolor="#ffffff"
     bordercolor="#666666"
     borderopacity="1"
     objecttolerance="10"
     gridtolerance="10"
     guidetolerance="10"
     inkscape:pageopacity="0"
     inkscape:pageshadow="2"
     inkscape:window-width="1920"
     inkscape:window-height="1017"
     id="namedview17"
     showgrid="false"
     inkscape:zoom="15.3125"
     inkscape:cx="24.979592"
     inkscape:cy="24"
     inkscape:window-x="-8"
     inkscape:window-y="-8"
     inkscape:window-maximized="1"
     inkscape:current-layer="svg15" />
  <defs
     id="defs4">
    <style
       id="style2">.cls-1{fill:none;stroke:#000;stroke-linecap:round;stroke-linejoin:round;stroke-width:2px;}</style>
  </defs>
  <title
     id="title6" />
  <path
     style="opacity:1;fill:#ff0000;fill-opacity:1;stroke:none;stroke-width:0.462799;stroke-miterlimit:4;stroke-dasharray:none;stroke-opacity:1"
     d="M 5.8122449,47.862346 C 3.2529935,47.405409 1.1856935,45.608872 0.37147206,43.134177 0.01590856,42.053499 0.03265306,42.999115 0.03265306,24 c 0,-18.9991152 -0.016744,-18.0534996 0.338819,-19.1341774 C 1.0765559,2.7228337 2.7228336,1.076556 4.8658229,0.37147207 5.9464999,0.01590857 5.0008849,0.03265307 24,0.03265307 c 19.125548,0 18.045228,-0.020315 19.2,0.3610436 1.040506,0.3436224 1.869365,0.85660053 2.686109,1.66242443 1.072926,1.0585807 1.723209,2.3100876 1.981576,3.8136578 0.08766,0.5101327 0.09966,2.6936525 0.09966,18.1302211 0,18.999115 0.01674,18.053499 -0.338819,19.134177 -0.705084,2.142989 -2.351362,3.789267 -4.494351,4.494351 -1.081735,0.355912 -0.124481,0.339305 -19.191709,0.332958 -14.9527751,-0.005 -17.6865501,-0.01993 -18.1302211,-0.09914 z M 42.193635,45.878198 c 0.284113,-0.07148 0.795753,-0.267345 1.136977,-0.435253 0.522046,-0.256884 0.714477,-0.399354 1.213728,-0.898605 0.499251,-0.499251 0.641721,-0.691682 0.898605,-1.213728 0.167908,-0.341224 0.363771,-0.852864 0.435253,-1.136977 0.128156,-0.509376 0.129965,-0.762426 0.129965,-18.174863 0,-19.9066368 0.05117,-18.0641712 -0.535489,-19.2814741 C 45.183192,4.136629 45.071191,3.9819184 44.544636,3.4553637 44.018082,2.928809 43.863371,2.8168085 43.262702,2.5273262 42.045432,1.9406831 43.885537,1.9918367 24,1.9918367 4.1144629,1.9918367 5.9545679,1.9406831 4.7372979,2.5273262 4.1366289,2.8168085 3.9819183,2.928809 3.4553636,3.4553637 2.9288089,3.9819184 2.8168084,4.136629 2.5273261,4.7372979 1.940683,5.954568 1.9918366,4.114463 1.9918366,24 c 0,19.885537 -0.051154,18.045432 0.5354895,19.262702 0.2892727,0.600234 0.4015482,0.755409 0.9254334,1.279034 0.5018954,0.501646 0.6943713,0.644247 1.2166284,0.901374 0.341224,0.167998 0.840816,0.362243 1.110204,0.431656 0.478043,0.123178 0.914596,0.126292 18.1936351,0.129802 17.464069,0.0035 17.710835,0.0018 18.220408,-0.12637 z"
     id="path844" />
  <path
     style="opacity:1;fill:#ff0000;fill-opacity:1;stroke:none;stroke-width:0.462799;stroke-miterlimit:4;stroke-dasharray:none;stroke-opacity:1"
     d="M 7.5365266,36.926246 C 6.4742963,36.770055 5.5072901,35.94472 5.1925345,34.92566 c -0.1297499,-0.420082 -0.13131,-0.58569 -0.13131,-13.938681 0,-13.5070696 6.5e-5,-13.5137412 0.135619,-13.9161271 C 5.5255754,6.0950262 6.3020464,5.371717 7.2816327,5.1287995 7.4877338,5.0776907 8.951707,5.061592 12.183052,5.0749007 l 4.607543,0.018977 0.495782,0.2450654 c 0.826142,0.4083619 1.426074,1.1749707 1.612262,2.0601898 0.05214,0.2478935 0.07279,4.1070931 0.07279,13.6034351 0,14.791483 0.0309,13.795524 -0.450987,14.537163 -0.503548,0.774981 -1.249367,1.261236 -2.128605,1.387797 -0.548027,0.07888 -8.317755,0.07776 -8.8553104,-0.0013 z m 8.9206284,-2.020129 c 0.171962,-0.08325 0.321551,-0.22266 0.412455,-0.384402 l 0.142635,-0.253784 V 20.980358 7.6927847 L 16.865306,7.4768869 C 16.78449,7.3581431 16.635417,7.1995114 16.534032,7.1243721 16.352034,6.9894869 16.295741,6.9875286 12.093216,6.9698862 L 7.8367347,6.9520174 7.5428571,7.1004985 C 7.3275948,7.2092594 7.209672,7.326929 7.1020408,7.5403683 L 6.955102,7.8317571 6.9565362,20.99343 c 0.00138,12.694196 0.00575,13.17118 0.1230022,13.429357 0.1119085,0.246416 0.3526376,0.47616 0.5939309,0.566827 0.053878,0.02024 1.9915379,0.03913 4.3059127,0.04196 4.080133,0.005 4.216148,0.0012 4.477773,-0.125462 z"
     id="path846" />
  <path
     style="opacity:1;fill:#ff0000;fill-opacity:1;stroke:none;stroke-width:0.462799;stroke-miterlimit:4;stroke-dasharray:none;stroke-opacity:1"
     d="m 23.608163,23.934052 c -1.128376,-0.153375 -2.091034,-0.962497 -2.426138,-2.03919 -0.114372,-0.367477 -0.120801,-0.76153 -0.120801,-7.404781 0,-6.9302208 0.0017,-7.0216091 0.13562,-7.4192291 0.328731,-0.9758257 1.105202,-1.6991349 2.084789,-1.9420524 0.206101,-0.051109 1.670074,-0.067208 4.901419,-0.053899 l 4.607543,0.018977 0.495782,0.2450654 c 0.826142,0.4083619 1.426074,1.1749707 1.612262,2.0601898 0.102312,0.4864331 0.102312,13.7112193 0,14.1976533 -0.258316,1.228145 -1.289363,2.176825 -2.539455,2.336586 -0.568872,0.0727 -8.216791,0.0733 -8.751021,6.79e-4 z m 8.925861,-2.062506 c 0.101389,-0.07514 0.250466,-0.233771 0.331282,-0.352514 l 0.146939,-0.215899 V 14.497959 7.6927847 L 32.865306,7.4768869 C 32.78449,7.3581431 32.635417,7.1995114 32.534032,7.1243721 32.352034,6.9894869 32.295741,6.9875286 28.093216,6.9698862 L 23.836735,6.9520174 23.542857,7.1004985 C 23.327595,7.2092594 23.209672,7.326929 23.102041,7.5403683 l -0.146939,0.2913888 v 6.6662019 6.666202 l 0.146939,0.291389 c 0.107704,0.213584 0.225408,0.330971 0.440816,0.439629 l 0.293878,0.148241 4.256473,-0.01763 c 4.202702,-0.01741 4.2588,-0.01935 4.440816,-0.154245 z"
     id="path848" />
</svg>
