<?xml version="1.0" encoding="utf-8"?>
<!-- Generator: Adobe Illustrator 16.0.0, SVG Export Plug-In . SVG Version: 6.00 Build 0)  -->
<!DOCTYPE svg PUBLIC "-//W3C//DTD SVG 1.1//EN" "http://www.w3.org/Graphics/SVG/1.1/DTD/svg11.dtd">
<svg version="1.1" xmlns="http://www.w3.org/2000/svg" xmlns:xlink="http://www.w3.org/1999/xlink" x="0px" y="0px" width="128px"
	 height="128px" viewBox="0 0 128 128" enable-background="new 0 0 128 128" xml:space="preserve">
<g id="Calque_3">
	<g id="Calque_3_2_">
		
			<line fill="none" stroke="#FF0000" stroke-width="4" stroke-linecap="round" stroke-linejoin="round" stroke-miterlimit="10" x1="68.168" y1="73.791" x2="68.168" y2="96.788"/>
		<path fill="none" stroke="#FF0000" stroke-width="4" stroke-linecap="round" stroke-linejoin="round" stroke-miterlimit="10" d="
			M59.268,100.269v-6.787c0-0.536-0.433-0.971-0.967-0.971H36.573c-0.536,0-0.97,0.435-0.97,0.971v18.736
			c0,0.536,0.434,0.969,0.97,0.969h18.229C54.803,113.187,54.438,106.221,59.268,100.269z"/>
		
			<line fill="none" stroke="#FF0000" stroke-width="4" stroke-linecap="round" stroke-linejoin="round" stroke-miterlimit="10" x1="30.32" y1="118.797" x2="59.263" y2="118.797"/>
		<path fill="none" stroke="#FF0000" stroke-width="4" stroke-linecap="round" stroke-linejoin="round" stroke-miterlimit="10" d="
			M73.157,93.841h6.998l5.665-29.54h21.945l1.431,31.131h11.927v20.832h-2.228c0,0-0.874-7.713-9.008-7.713
			c-8.589,0-9.039,6.966-9.039,6.966h-11.31c0,0-0.062-2.192-0.062-5.136c0-2.466-1.749-13.986-14.314-13.986h-2.006V93.841z"/>
		<circle fill="none" stroke="#FF0000" stroke-width="4" stroke-miterlimit="10" cx="73.502" cy="112.112" r="10.802"/>
		<circle fill="none" stroke="#FF0000" stroke-width="4" stroke-miterlimit="10" cx="109.325" cy="120.676" r="4.939"/>
		<path fill="none" stroke="#FF0000" stroke-width="4" stroke-linejoin="round" stroke-miterlimit="10" d="M90.198,69.581h12.917
			v21.667h-5.372l-2.413,3.861h-3.38c0,0-0.521-3.317-5.41-4.706L90.198,69.581z"/>
	</g>
</g>
<g id="Calque_2">
	
		<polyline fill="none" stroke="#FF0000" stroke-width="4" stroke-linecap="round" stroke-linejoin="round" stroke-miterlimit="10" points="
		62.247,52.553 69.43,57.892 86.34,47.035 	"/>
	
		<polyline fill="none" stroke="#FF0000" stroke-width="4" stroke-linecap="round" stroke-linejoin="round" stroke-miterlimit="10" points="
		62.247,60.877 69.43,65.928 86.34,55.072 	"/>
	
		<polyline fill="none" stroke="#FF0000" stroke-width="4" stroke-linecap="round" stroke-linejoin="round" stroke-miterlimit="10" points="
		62.247,44.505 69.43,49.428 86.34,38.571 	"/>
	
		<polyline fill="none" stroke="#FF0000" stroke-width="4" stroke-linecap="round" stroke-linejoin="round" stroke-miterlimit="10" points="
		102.012,30.321 118.924,19.463 93.438,2.66 75.822,13.773 	"/>
	
		<line fill="none" stroke="#FF0000" stroke-width="4" stroke-linecap="round" stroke-linejoin="round" stroke-miterlimit="10" x1="102.012" y1="38.785" x2="118.924" y2="27.927"/>
	
		<line fill="none" stroke="#FF0000" stroke-width="4" stroke-linecap="round" stroke-linejoin="round" stroke-miterlimit="10" x1="102.012" y1="46.823" x2="118.924" y2="35.966"/>
	
		<polygon fill="none" stroke="#FF0000" stroke-width="4" stroke-linecap="round" stroke-linejoin="round" stroke-miterlimit="10" points="
		61.304,19.808 73.605,12.265 100.119,30.321 100.119,49.428 88.637,57.892 88.637,37.526 	"/>
</g>
<g id="Calque_4">
	<g id="Calque_2_1_">
		<g>
			<path fill="none" stroke="#FF0000" stroke-width="5" stroke-linecap="round" stroke-linejoin="round" stroke-miterlimit="10" d="
				M56.677,55.628c0,0.578-0.47,1.048-1.052,1.048H5.549c-0.58,0-1.049-0.472-1.049-1.048V5.548C4.5,4.969,4.969,4.5,5.549,4.5
				h50.078c0.58,0,1.05,0.469,1.05,1.048V55.628L56.677,55.628z"/>
			<circle fill="#FF0000" cx="16.429" cy="17.486" r="3.706"/>
			<path fill="none" stroke="#FF0000" stroke-width="5" stroke-miterlimit="10" d="M24.228,17.485h22.021"/>
			<circle fill="#FF0000" cx="16.429" cy="30.588" r="3.706"/>
			<path fill="none" stroke="#FF0000" stroke-width="5" stroke-miterlimit="10" d="M24.228,30.588h22.021"/>
			<circle fill="#FF0000" cx="16.429" cy="43.688" r="3.706"/>
			<path fill="none" stroke="#FF0000" stroke-width="5" stroke-miterlimit="10" d="M24.228,43.687h22.021"/>
		</g>
	</g>
</g>
</svg>
