<?xml version="1.0" encoding="utf-8"?>
<!-- Generator: Adobe Illustrator 16.0.0, SVG Export Plug-In . SVG Version: 6.00 Build 0)  -->
<!DOCTYPE svg PUBLIC "-//W3C//DTD SVG 1.1//EN" "http://www.w3.org/Graphics/SVG/1.1/DTD/svg11.dtd">
<svg version="1.1" xmlns="http://www.w3.org/2000/svg" xmlns:xlink="http://www.w3.org/1999/xlink" x="0px" y="0px" width="128px"
	 height="128px" viewBox="0 0 128 128" enable-background="new 0 0 128 128" xml:space="preserve">
<g id="Calque_3">
	<g>
		<g>
			<g>
				
					<path fill="none" stroke="#FF0000" stroke-width="5" stroke-linecap="round" stroke-linejoin="round" stroke-miterlimit="10" d="
					M99.324,61.688H27.659c-3.587,0-6.524-2.935-6.524-6.523V10.309c0-3.588,2.937-6.525,6.524-6.525h71.665
					c3.588,0,6.523,2.937,6.523,6.525v44.856C105.848,58.753,102.912,61.688,99.324,61.688z"/>
				
					<rect x="21.135" y="16.651" fill="none" stroke="#FF0000" stroke-width="5" stroke-linecap="round" stroke-linejoin="round" stroke-miterlimit="10" width="84.712" height="11.797"/>
			</g>
			
				<line fill="none" stroke="#FF0000" stroke-width="5" stroke-linecap="round" stroke-linejoin="round" stroke-miterlimit="10" x1="28.189" y1="39.039" x2="55.469" y2="39.039"/>
			
				<circle fill="none" stroke="#FF0000" stroke-width="5" stroke-linecap="round" stroke-linejoin="round" stroke-miterlimit="10" cx="90.981" cy="49.198" r="5.135"/>
		</g>
		<g>
			<g>
				<g>
					
						<path fill="none" stroke="#FF0000" stroke-width="5" stroke-linecap="round" stroke-linejoin="round" stroke-miterlimit="10" d="
						M60.643,98.457l14.155,7.781l39.208-24.258c0.453-0.283,0.979-0.43,1.51-0.43c1.904,0,3.567,1.295,4.027,3.141l0.401,1.588
						c0.508,2.051-0.26,4.205-1.958,5.467L76.549,122.52c-1.156,0.861-2.459,1.498-3.852,1.883l-1.958,0.541
						c-1.32,0.373-2.725,0.338-4.022-0.094l-41.072-13.623c-1.869-0.621-3.917-0.473-5.679,0.41l-13.081,6.418"/>
					
						<path fill="none" stroke="#FF0000" stroke-width="5" stroke-linecap="round" stroke-linejoin="round" stroke-miterlimit="10" d="
						M10.207,91.102l26.384-8.992c1.108-0.371,2.289-0.484,3.445-0.336l45.307,5.738c2.046,0.258,3.515,2.082,3.338,4.135
						l-0.213,2.459c-0.194,2.205-2.017,3.91-4.234,3.951l-23.59,0.4l-9.513-0.334"/>
					
						<path fill="none" stroke="#FF0000" stroke-width="5" stroke-linecap="round" stroke-linejoin="round" stroke-miterlimit="10" d="
						M83.467,87.273l17.598-6.984c0.946-0.334,1.98-0.336,2.928-0.004l0,0c2.16,0.756,3.607,2.797,3.607,5.086v0.57"/>
				</g>
			</g>
		</g>
	</g>
</g>
<g id="Calque_2">
</g>
</svg>
