<?xml version="1.0" encoding="utf-8"?>
<!-- Generator: Adobe Illustrator 16.0.0, SVG Export Plug-In . SVG Version: 6.00 Build 0)  -->
<!DOCTYPE svg PUBLIC "-//W3C//DTD SVG 1.1//EN" "http://www.w3.org/Graphics/SVG/1.1/DTD/svg11.dtd">
<svg version="1.1" id="Calque_1" xmlns="http://www.w3.org/2000/svg" xmlns:xlink="http://www.w3.org/1999/xlink" x="0px" y="0px"
	 width="128px" height="128px" viewBox="0 0 128 128" enable-background="new 0 0 128 128" xml:space="preserve">
<g id="Calque_1_2_" display="none">
	<g id="Calque_1_1_" display="inline">
	</g>
	
		<line display="inline" fill="none" stroke="#FF0000" stroke-width="11" stroke-miterlimit="10" x1="5.1" y1="35.064" x2="58.226" y2="35.064"/>
	
		<line display="inline" fill="none" stroke="#FF0000" stroke-width="11" stroke-miterlimit="10" x1="58.226" y1="46.698" x2="86.372" y2="46.698"/>
	
		<line display="inline" fill="none" stroke="#FF0000" stroke-width="11" stroke-miterlimit="10" x1="17.83" y1="68.512" x2="45.601" y2="68.512"/>
	
		<line display="inline" fill="none" stroke="#FF0000" stroke-width="11" stroke-miterlimit="10" x1="45.601" y1="81.646" x2="68.682" y2="81.646"/>
	
		<line display="inline" fill="none" stroke="#FF0000" stroke-width="11" stroke-miterlimit="10" x1="67.805" y1="92.5" x2="113.844" y2="92.5"/>
	<path display="inline" fill="none" stroke="#FF0000" stroke-width="5" stroke-miterlimit="10" d="M124.111,105.398
		c0,3.594-2.688,6.509-6.006,6.509H11.022c-3.316,0-6.004-2.915-6.004-6.509V15.383c0-3.594,2.688-6.507,6.004-6.507h107.083
		c3.316,0,6.006,2.914,6.006,6.507V105.398z"/>
</g>
<g id="Calque_3_1_">
	<g>
		<g>
			<path fill="none" stroke="#FF0000" stroke-width="5" stroke-miterlimit="10" d="M33.95,84.836
				c-3.007,3.193-5.65,6.734-7.862,10.557c9.845,17.011,28.225,28.463,49.293,28.463c21.065,0,39.446-11.456,49.292-28.463
				c-8.193-14.151-22.291-24.453-38.926-27.517"/>
		</g>
		<circle fill="#FF0000" cx="75.38" cy="97.398" r="15.284"/>
	</g>
</g>
<g id="Calque_1_3_" display="none">
</g>
<g id="Calque_3" display="none">
	<g id="Calque_2" display="inline">
		<g>
			<g>
				
					<path fill="none" stroke="#FF0000" stroke-width="5" stroke-linecap="round" stroke-linejoin="round" stroke-miterlimit="10" d="
					M102.314,74.566c2.097-2.559,1.719-6.362-0.838-8.459c-2.563-2.098-6.369-1.717-8.463,0.84l2.211-2.699
					c2.098-2.559,1.719-6.365-0.842-8.462c-2.561-2.097-6.365-1.72-8.464,0.839l4.067-4.967c2.098-2.558,1.719-6.365-0.84-8.461
					c-2.561-2.097-6.365-1.719-8.463,0.84L97.898,23.03c2.096-2.559,1.719-6.366-0.84-8.463c-2.561-2.096-6.367-1.717-8.463,0.842
					L63.857,45.604l1.516-9.225c0.535-3.261-1.697-6.37-4.96-6.906c-3.265-0.536-6.372,1.696-6.908,4.959
					c0,0-19.643,43.707-11.642,50.261l16.662,13.648c8,6.557,28.286-4.852,28.545-5.172L102.314,74.566L102.314,74.566z"/>
				
					<rect x="21.371" y="90.455" transform="matrix(-0.7735 -0.6338 0.6338 -0.7735 16.7147 206.8893)" fill="none" stroke="#FF0000" stroke-width="5" stroke-linecap="round" stroke-linejoin="round" stroke-miterlimit="10" width="47.907" height="20.006"/>
			</g>
			<path fill="none" stroke="#FF0000" stroke-width="5" stroke-linecap="round" stroke-linejoin="round" stroke-miterlimit="10" d="
				M82.213,9.857c5-6.103,14.001-6.998,20.104-1.997c6.104,4.999,6.996,14.001,1.996,20.104"/>
		</g>
	</g>
</g>
<g id="Calque_4">
</g>
<path id="path29" fill="none" stroke="#FF0000" stroke-width="5" stroke-miterlimit="10" d="M77.185,70.498
	c0,3.693-2.993,6.688-6.688,6.688H9.387c-3.692,0-6.687-2.994-6.687-6.688V9.387C2.7,5.693,5.694,2.7,9.387,2.7h61.111
	c3.693,0,6.688,2.994,6.688,6.687V59.07L77.185,70.498z"/>
<line id="line31" fill="none" stroke="#FF0000" stroke-width="12" stroke-miterlimit="10" x1="8.537" y1="20.116" x2="34.631" y2="20.116"/>
<line id="line33" fill="none" stroke="#FF0000" stroke-width="12" stroke-miterlimit="10" x1="33.952" y1="61.837" x2="57.524" y2="61.837"/>
<line id="line37" fill="none" stroke="#FF0000" stroke-width="12" stroke-miterlimit="10" x1="34.611" y1="41" x2="71.469" y2="41"/>
<path id="path2790" fill="none" stroke="#FF0000" d="M34.319,14.104l-0.056,53.778"/>
<path id="path2790-1" fill="none" stroke="#FF0000" d="M57.111,55.823v12.06"/>
</svg>
