<?xml version="1.0" encoding="utf-8"?>
<!-- Generator: Adobe Illustrator 16.0.0, SVG Export Plug-In . SVG Version: 6.00 Build 0)  -->
<!DOCTYPE svg PUBLIC "-//W3C//DTD SVG 1.1//EN" "http://www.w3.org/Graphics/SVG/1.1/DTD/svg11.dtd">
<svg version="1.1" id="Calque_2" xmlns="http://www.w3.org/2000/svg" xmlns:xlink="http://www.w3.org/1999/xlink" x="0px" y="0px"
	 width="128px" height="128px" viewBox="0 0 128 128" enable-background="new 0 0 128 128" xml:space="preserve">
<g id="Calque_3">
	<g>
		<path fill="none" stroke="#FF0000" stroke-width="5" stroke-linecap="round" stroke-linejoin="round" stroke-miterlimit="10" d="
			M56.654,55.605c0,0.578-0.469,1.049-1.049,1.049H5.548c-0.579,0-1.048-0.471-1.048-1.049V5.548C4.5,4.969,4.969,4.5,5.548,4.5
			h50.058c0.58,0,1.049,0.469,1.049,1.048L56.654,55.605L56.654,55.605z"/>
		<circle fill="#FF0000" cx="16.424" cy="17.481" r="3.704"/>
		<line fill="none" stroke="#FF0000" stroke-width="4" stroke-miterlimit="10" x1="24.219" y1="17.481" x2="46.23" y2="17.481"/>
		<circle fill="#FF0000" cx="16.424" cy="30.577" r="3.704"/>
		<line fill="none" stroke="#FF0000" stroke-width="4" stroke-miterlimit="10" x1="24.219" y1="30.578" x2="46.23" y2="30.578"/>
		<circle fill="#FF0000" cx="16.424" cy="43.673" r="3.704"/>
		<line fill="none" stroke="#FF0000" stroke-width="4" stroke-miterlimit="10" x1="24.219" y1="43.672" x2="46.23" y2="43.672"/>
	</g>
</g>
<g id="Calque_3_2_">
	
		<line fill="none" stroke="#FF0000" stroke-width="3" stroke-linecap="round" stroke-linejoin="round" stroke-miterlimit="10" x1="78.994" y1="76.074" x2="78.994" y2="98.842"/>
	<path fill="none" stroke="#FF0000" stroke-width="3" stroke-linecap="round" stroke-linejoin="round" stroke-miterlimit="10" d="
		M71.546,101.755v-20.68c0-0.449-0.362-0.813-0.81-0.813H52.554c-0.447,0-0.811,0.363-0.811,0.813v30.679
		c0,0.449,0.363,0.811,0.811,0.811h15.254C67.811,112.564,67.504,106.734,71.546,101.755z"/>
	
		<line fill="none" stroke="#FF0000" stroke-width="3" stroke-linecap="round" stroke-linejoin="round" stroke-miterlimit="10" x1="47.321" y1="117.26" x2="71.542" y2="117.26"/>
	<path fill="none" stroke="#FF0000" stroke-width="3" stroke-linecap="round" stroke-linejoin="round" stroke-miterlimit="10" d="
		M83.169,96.376h5.856l4.74-24.72h18.363l1.197,26.052h9.98v17.433h-1.863c0,0-0.731-6.453-7.539-6.453
		c-7.188,0-7.563,5.828-7.563,5.828h-9.464c0,0-0.052-1.834-0.052-4.298c0-2.063-1.464-11.704-11.979-11.704h-1.679v-2.138H83.169z"
		/>
	<circle fill="none" stroke="#FF0000" stroke-width="3" stroke-miterlimit="10" cx="83.457" cy="111.666" r="9.04"/>
	<circle fill="none" stroke="#FF0000" stroke-width="3" stroke-miterlimit="10" cx="113.436" cy="118.832" r="4.134"/>
</g>
<g>
	<path fill="none" stroke="#FF0000" stroke-width="5" stroke-linecap="round" stroke-miterlimit="10" d="M10.692,64.941v56.021
		c0,2.592,2.102,4.691,4.693,4.691h57.748"/>
	<path fill="none" stroke="#FF0000" stroke-width="5" stroke-linecap="round" stroke-miterlimit="10" d="M92.793,62.99V33.97H73.695
		c-2.592,0-4.691-2.1-4.691-4.692V11.197h-5.818"/>
</g>
<line fill="none" stroke="#FF0000" stroke-width="5" stroke-linecap="round" stroke-linejoin="round" stroke-miterlimit="10" x1="70.574" y1="11.197" x2="92.793" y2="32.773"/>
<g>
	<path fill="none" stroke="#FF0000" stroke-width="5" stroke-linecap="round" stroke-linejoin="round" stroke-miterlimit="10" d="
		M43.643,79.211c0-3.871-3.17-7.039-7.041-7.039H26.216c-3.874,0-7.039,3.169-7.039,7.039v4.15c0,3.875,3.167,7.041,7.039,7.041
		h10.386c3.871,0,7.04,3.168,7.04,7.041v4.148c0,3.877-3.169,7.042-7.04,7.042H26.216c-3.874,0-7.039-3.168-7.039-7.042"/>
	
		<line fill="none" stroke="#FF0000" stroke-width="5" stroke-linecap="round" stroke-linejoin="round" stroke-miterlimit="10" x1="31.409" y1="72.172" x2="31.409" y2="65"/>
	
		<line fill="none" stroke="#FF0000" stroke-width="5" stroke-linecap="round" stroke-linejoin="round" stroke-miterlimit="10" x1="31.409" y1="115.809" x2="31.409" y2="108.635"/>
</g>
</svg>
