<?xml version="1.0" encoding="utf-8"?>
<!-- Generator: Adobe Illustrator 16.0.0, SVG Export Plug-In . SVG Version: 6.00 Build 0)  -->
<!DOCTYPE svg PUBLIC "-//W3C//DTD SVG 1.1//EN" "http://www.w3.org/Graphics/SVG/1.1/DTD/svg11.dtd">
<svg version="1.1" id="Calque_1" xmlns="http://www.w3.org/2000/svg" xmlns:xlink="http://www.w3.org/1999/xlink" x="0px" y="0px"
	 width="128px" height="128px" viewBox="0 0 128 128" enable-background="new 0 0 128 128" xml:space="preserve">
<g id="Calque_1_2_" display="none">
	<g id="Calque_1_1_" display="inline">
	</g>
	
		<line display="inline" fill="none" stroke="#FF0000" stroke-width="11" stroke-miterlimit="10" x1="5.1" y1="35.064" x2="58.226" y2="35.064"/>
	
		<line display="inline" fill="none" stroke="#FF0000" stroke-width="11" stroke-miterlimit="10" x1="58.226" y1="46.698" x2="86.372" y2="46.698"/>
	
		<line display="inline" fill="none" stroke="#FF0000" stroke-width="11" stroke-miterlimit="10" x1="17.83" y1="68.512" x2="45.601" y2="68.512"/>
	
		<line display="inline" fill="none" stroke="#FF0000" stroke-width="11" stroke-miterlimit="10" x1="45.601" y1="81.646" x2="68.682" y2="81.646"/>
	
		<line display="inline" fill="none" stroke="#FF0000" stroke-width="11" stroke-miterlimit="10" x1="67.805" y1="92.5" x2="113.844" y2="92.5"/>
	<path display="inline" fill="none" stroke="#FF0000" stroke-width="5" stroke-miterlimit="10" d="M124.111,105.398
		c0,3.594-2.688,6.509-6.006,6.509H11.022c-3.316,0-6.004-2.915-6.004-6.509V15.383c0-3.594,2.688-6.507,6.004-6.507h107.083
		c3.316,0,6.006,2.914,6.006,6.507V105.398z"/>
</g>
<g id="Calque_3" display="none">
	<g id="Calque_2" display="inline">
		<g>
			<g>
				
					<path fill="none" stroke="#FF0000" stroke-width="5" stroke-linecap="round" stroke-linejoin="round" stroke-miterlimit="10" d="
					M102.314,74.566c2.097-2.559,1.719-6.362-0.838-8.459c-2.563-2.098-6.369-1.717-8.463,0.84l2.211-2.699
					c2.098-2.559,1.719-6.365-0.842-8.462c-2.561-2.097-6.365-1.72-8.464,0.839l4.067-4.967c2.098-2.558,1.719-6.365-0.84-8.461
					c-2.561-2.097-6.365-1.719-8.463,0.84L97.898,23.03c2.096-2.559,1.719-6.366-0.84-8.463c-2.561-2.096-6.367-1.717-8.463,0.842
					L63.857,45.604l1.516-9.225c0.535-3.261-1.697-6.37-4.96-6.906c-3.265-0.536-6.372,1.696-6.908,4.959
					c0,0-19.643,43.707-11.642,50.261l16.662,13.648c8,6.557,28.286-4.852,28.545-5.172L102.314,74.566L102.314,74.566z"/>
				
					<rect x="21.371" y="90.455" transform="matrix(-0.7735 -0.6338 0.6338 -0.7735 16.7147 206.8893)" fill="none" stroke="#FF0000" stroke-width="5" stroke-linecap="round" stroke-linejoin="round" stroke-miterlimit="10" width="47.907" height="20.006"/>
			</g>
			<path fill="none" stroke="#FF0000" stroke-width="5" stroke-linecap="round" stroke-linejoin="round" stroke-miterlimit="10" d="
				M82.213,9.857c5-6.103,14.001-6.998,20.104-1.997c6.104,4.999,6.996,14.001,1.996,20.104"/>
		</g>
	</g>
</g>
<g id="Calque_3_1_">
</g>
<g id="Calque_2_1_">
	<path fill="none" stroke="#FF0000" stroke-width="5" stroke-linecap="round" stroke-linejoin="round" stroke-miterlimit="10" d="
		M101.521,57.904c18.104,5.805,28.074,25.189,22.27,43.293c-5.805,18.105-25.189,28.076-43.293,22.271
		c-18.106-5.806-28.075-25.189-22.27-43.293"/>
	
		<polyline fill="none" stroke="#FF0000" stroke-width="5" stroke-linecap="round" stroke-linejoin="round" stroke-miterlimit="10" points="
		72.49,87.335 90.625,93.15 110.842,82.752 	"/>
</g>
<g>
	<path fill="#FF0000" d="M96.938,34.828C96.81,34.736,78.323,3.576,50.138,3.43C21.962,3.576,3.471,34.736,3.337,34.828
		l-0.602,0.993l0.593,1.011c0.125,0.092,18.198,31.255,46.81,31.398c28.622-0.144,46.685-31.307,46.809-31.398l0.593-1.011
		L96.938,34.828z M49.693,61.036c-13.689-0.031-25.004-11.113-25.037-25.197C24.688,21.746,36,10.65,49.693,10.627
		c13.688,0.023,25.003,11.115,25.036,25.211C74.696,49.926,63.381,61.004,49.693,61.036z"/>
	<path fill="#FF0000" d="M50.138,23.277c-6.725,0.009-12.364,5.465-12.392,12.553c0.028,7.083,5.667,12.543,12.392,12.553
		c6.725-0.01,12.364-5.471,12.392-12.553C62.507,28.742,56.863,23.286,50.138,23.277z"/>
</g>
</svg>
