<?xml version="1.0" encoding="UTF-8" standalone="no"?>
<svg
   xmlns:dc="http://purl.org/dc/elements/1.1/"
   xmlns:cc="http://creativecommons.org/ns#"
   xmlns:rdf="http://www.w3.org/1999/02/22-rdf-syntax-ns#"
   xmlns:svg="http://www.w3.org/2000/svg"
   xmlns="http://www.w3.org/2000/svg"
   xmlns:sodipodi="http://sodipodi.sourceforge.net/DTD/sodipodi-0.dtd"
   xmlns:inkscape="http://www.inkscape.org/namespaces/inkscape"
   version="1.1"
   id="Calque_1"
   x="0px"
   y="0px"
   width="128px"
   height="128px"
   viewBox="0 0 128 128"
   enable-background="new 0 0 128 128"
   xml:space="preserve"
   sodipodi:docname="iconActivity.svg"
   inkscape:version="1.0.1 (3bc2e813f5, 2020-09-07)"><metadata
   id="metadata46"><rdf:RDF><cc:Work
       rdf:about=""><dc:format>image/svg+xml</dc:format><dc:type
         rdf:resource="http://purl.org/dc/dcmitype/StillImage" /></cc:Work></rdf:RDF></metadata><defs
   id="defs44" /><sodipodi:namedview
   pagecolor="#ffffff"
   bordercolor="#666666"
   borderopacity="1"
   objecttolerance="10"
   gridtolerance="10"
   guidetolerance="10"
   inkscape:pageopacity="0"
   inkscape:pageshadow="2"
   inkscape:window-width="1920"
   inkscape:window-height="1017"
   id="namedview42"
   showgrid="false"
   inkscape:zoom="5.7421875"
   inkscape:cx="64"
   inkscape:cy="64"
   inkscape:window-x="-8"
   inkscape:window-y="-8"
   inkscape:window-maximized="1"
   inkscape:current-layer="Calque_1" />



<path
   fill="none"
   stroke="#FF0000"
   stroke-width="5"
   stroke-linecap="round"
   stroke-linejoin="round"
   stroke-miterlimit="10"
   d="  M52.5,10.939"
   id="path8" />
<path
   fill="none"
   stroke="#FF0000"
   stroke-width="5"
   stroke-linecap="round"
   stroke-linejoin="round"
   stroke-miterlimit="10"
   d="  M52.5,93.412"
   id="path10" />
<path
   fill="none"
   stroke="#FF0000"
   stroke-width="5"
   stroke-linecap="round"
   stroke-linejoin="round"
   stroke-miterlimit="10"
   d="  M52.5,110.626"
   id="path12" />
<path
   fill="none"
   stroke="#FF0000"
   stroke-width="5"
   stroke-linecap="round"
   stroke-linejoin="round"
   stroke-miterlimit="10"
   d="  M52.5,122.5"
   id="path14" />
<line
   fill="none"
   stroke="#ff0000"
   stroke-width="5"
   stroke-linecap="round"
   stroke-linejoin="round"
   stroke-miterlimit="10"
   x1="64.342178"
   y1="94.692978"
   x2="64.342178"
   y2="36.016552"
   id="line16" />
<line
   fill="none"
   stroke="#ff0000"
   stroke-width="5"
   stroke-linecap="round"
   stroke-linejoin="round"
   stroke-miterlimit="10"
   x1="47.210667"
   y1="34.429001"
   x2="80.549934"
   y2="34.429001"
   id="line18" />

<path
   fill="none"
   stroke="#ff0000"
   stroke-width="5.00001"
   stroke-linecap="round"
   stroke-linejoin="round"
   stroke-miterlimit="10"
   d="m 8.2190476,51.485214 c 0,0.171445 0.6155965,0.310026 1.3740987,0.310026 H 43.945629 c 0.758503,0 1.374099,-0.138581 1.374099,-0.310026 V 17.518415 c 0,-0.171135 -0.615596,-0.310026 -1.374099,-0.310026 H 9.5931463 c -0.7585022,0 -1.3740987,0.138891 -1.3740987,0.310026 z"
   id="path22" />

<g
   id="Calque_2"
   display="none">
	
		<polyline
   display="inline"
   fill="none"
   stroke="#FF0000"
   stroke-width="5"
   stroke-linecap="round"
   stroke-linejoin="round"
   stroke-miterlimit="10"
   points="   -15.692,71.884 -1.538,71.884 8.923,54.038 27.539,99.884 47.385,40.5 58.154,70.191 79.077,70.191  "
   id="polyline26" />
	
		<circle
   display="inline"
   fill="none"
   stroke="#FF0000"
   stroke-width="5"
   stroke-linecap="round"
   stroke-linejoin="round"
   stroke-miterlimit="10"
   cx="89.385"
   cy="69.884"
   r="10.308"
   id="circle28" />
	<g
   display="inline"
   id="g38">
		<path
   fill="none"
   stroke="#FF0000"
   stroke-width="5"
   stroke-linecap="round"
   stroke-linejoin="round"
   stroke-miterlimit="10"
   d="    M89.385,34.5V17c0-1.657-1.343-3-3-3H72"
   id="path30" />
		<path
   fill="none"
   stroke="#FF0000"
   stroke-width="5"
   stroke-linecap="round"
   stroke-linejoin="round"
   stroke-miterlimit="10"
   d="    M12,14H-1.5c-1.657,0-3,1.343-3,3v17.5"
   id="path32" />
		<path
   fill="none"
   stroke="#FF0000"
   stroke-width="5"
   stroke-linecap="round"
   stroke-linejoin="round"
   stroke-miterlimit="10"
   d="    M72,115h14.385c1.657,0,3-1.343,3-3V94.5"
   id="path34" />
		<path
   fill="none"
   stroke="#FF0000"
   stroke-width="5"
   stroke-linecap="round"
   stroke-linejoin="round"
   stroke-miterlimit="10"
   d="    M-4.5,94.5V112c0,1.657,1.343,3,3,3H12"
   id="path36" />
	</g>
</g>
<path
   fill="none"
   stroke="#ff0000"
   stroke-width="5.00001"
   stroke-linecap="round"
   stroke-linejoin="round"
   stroke-miterlimit="10"
   d="m 82.630613,52.684079 c 0,0.171445 0.615596,0.310026 1.374099,0.310026 h 34.352478 c 0.7585,0 1.3741,-0.138581 1.3741,-0.310026 V 18.71728 c 0,-0.171135 -0.6156,-0.310025 -1.3741,-0.310025 H 84.004712 c -0.758503,0 -1.374099,0.13889 -1.374099,0.310025 z"
   id="path22-1" /><path
   fill="none"
   stroke="#ff0000"
   stroke-width="5.00001"
   stroke-linecap="round"
   stroke-linejoin="round"
   stroke-miterlimit="10"
   d="m 82.978911,110.85007 c 0,0.17145 0.615597,0.31003 1.374099,0.31003 h 34.35248 c 0.75851,0 1.3741,-0.13858 1.3741,-0.31003 V 76.883267 c 0,-0.171136 -0.61559,-0.310027 -1.3741,-0.310027 H 84.35301 c -0.758502,0 -1.374099,0.138891 -1.374099,0.310027 z"
   id="path22-3" /><line
   fill="none"
   stroke="#ff0000"
   stroke-width="4.99999"
   stroke-linecap="round"
   stroke-linejoin="round"
   stroke-miterlimit="10"
   x1="64.848282"
   y1="94.737419"
   x2="82.476372"
   y2="94.737419"
   id="line18-4" /></svg>
