<?xml version="1.0" encoding="utf-8"?>
<!-- Generator: Adobe Illustrator 16.0.0, SVG Export Plug-In . SVG Version: 6.00 Build 0)  -->
<!DOCTYPE svg PUBLIC "-//W3C//DTD SVG 1.1//EN" "http://www.w3.org/Graphics/SVG/1.1/DTD/svg11.dtd">
<svg version="1.1" id="Calque_1" xmlns="http://www.w3.org/2000/svg" xmlns:xlink="http://www.w3.org/1999/xlink" x="0px" y="0px"
	 width="128px" height="128px" viewBox="0 0 128 128" enable-background="new 0 0 128 128" xml:space="preserve">
<g id="Calque_2" display="none">
</g>
<g>
	<polygon fill="none" stroke="#FF0000" stroke-width="5" stroke-miterlimit="10" points="49.902,83.5 38.55,63.839 49.902,44.175 
		72.604,44.175 83.957,63.839 72.604,83.5 	"/>
	<polygon fill="none" stroke="#FF0000" stroke-width="5" stroke-miterlimit="10" points="49.902,122.822 38.55,103.163 49.902,83.5 
		72.604,83.5 83.957,103.163 72.604,122.822 	"/>
	<polygon fill="none" stroke="#FF0000" stroke-width="5" stroke-miterlimit="10" points="83.098,103.163 71.745,83.5 83.098,63.839 
		105.802,63.839 117.152,83.5 105.802,103.163 	"/>
</g>
<polyline fill="none" stroke="#FF0000" stroke-width="6" stroke-linecap="round" stroke-linejoin="round" stroke-miterlimit="10" points="
	22.777,41.701 40.8,41.701 40.8,17.5 "/>
<path fill="none" stroke="#FF0000" stroke-width="6" stroke-linecap="round" stroke-linejoin="round" stroke-miterlimit="10" d="
	M40.8,80.134c-21.306,0-38.578-17.271-38.578-38.577C2.223,20.25,19.494,2.979,40.8,2.979S79.377,20.25,79.377,41.557"/>
</svg>
