<?xml version="1.0" encoding="utf-8"?>
<!-- Generator: Adobe Illustrator 16.0.0, SVG Export Plug-In . SVG Version: 6.00 Build 0)  -->
<!DOCTYPE svg PUBLIC "-//W3C//DTD SVG 1.1//EN" "http://www.w3.org/Graphics/SVG/1.1/DTD/svg11.dtd">
<svg version="1.1" xmlns="http://www.w3.org/2000/svg" xmlns:xlink="http://www.w3.org/1999/xlink" x="0px" y="0px" width="128px"
	 height="128px" viewBox="0 0 128 128" enable-background="new 0 0 128 128" xml:space="preserve">
<g id="Calque_2_1_">
	<path fill="none" stroke="#E42320" stroke-width="5" stroke-miterlimit="10" d="M88.806,101.729c0,2.597-2.105,4.703-4.703,4.703
		H25.315c-2.598,0-4.703-2.106-4.703-4.703V14.372c0-2.597,2.105-4.703,4.703-4.703h58.787c2.598,0,4.703,2.106,4.703,4.703V101.729
		z"/>
	<path fill="none" stroke="#E42320" stroke-width="5" stroke-miterlimit="10" d="M76.656,42.198c0,2.596-2.105,4.703-4.703,4.703
		H39.032c-2.598,0-4.703-2.106-4.703-4.703V30.049c0-2.597,2.105-4.703,4.703-4.703h32.921c2.598,0,4.703,2.106,4.703,4.703V42.198z
		"/>
	<path fill="none" stroke="#E42320" stroke-width="5" stroke-miterlimit="10" d="M92.448,18.747c2.598,0,4.703,2.106,4.703,4.703
		v87.356c0,2.597-2.105,4.703-4.703,4.703H33.661c-2.598,0-4.703-2.106-4.703-4.703"/>
	<path fill="none" stroke="#E42320" stroke-width="5" stroke-miterlimit="10" d="M101.495,27.073c2.598,0,4.703,2.106,4.703,4.703
		v87.356c0,2.597-2.105,4.703-4.703,4.703H42.708c-2.598,0-4.703-2.106-4.703-4.703"/>
</g>
<g id="Calque_3_2_">
</g>
</svg>
