<?xml version="1.0" encoding="utf-8"?>
<!-- Generator: Adobe Illustrator 16.0.0, SVG Export Plug-In . SVG Version: 6.00 Build 0)  -->
<!DOCTYPE svg PUBLIC "-//W3C//DTD SVG 1.1//EN" "http://www.w3.org/Graphics/SVG/1.1/DTD/svg11.dtd">
<svg version="1.1"
	 id="Layer_1" xmlns:cc="http://creativecommons.org/ns#" xmlns:dc="http://purl.org/dc/elements/1.1/" xmlns:inkscape="http://www.inkscape.org/namespaces/inkscape" xmlns:rdf="http://www.w3.org/1999/02/22-rdf-syntax-ns#" xmlns:sodipodi="http://sodipodi.sourceforge.net/DTD/sodipodi-0.dtd" xmlns:svg="http://www.w3.org/2000/svg" inkscape:version="1.0 (4035a4fb49, 2020-05-01)" sodipodi:docname="iconTicketDashboard.svg"
	 xmlns="http://www.w3.org/2000/svg" xmlns:xlink="http://www.w3.org/1999/xlink" x="0px" y="0px" width="128px" height="128px"
	 viewBox="0 0 128 128" enable-background="new 0 0 128 128" xml:space="preserve">
<sodipodi:namedview  id="namedview13" inkscape:zoom="2.8710938" bordercolor="#666666" guidetolerance="10" objecttolerance="10" borderopacity="1" showgrid="false" inkscape:cx="128" pagecolor="#ffffff" inkscape:cy="128" gridtolerance="10" inkscape:window-width="1920" inkscape:window-height="1017" inkscape:pageshadow="2" inkscape:window-maximized="1" inkscape:window-x="-8" inkscape:current-layer="Layer_1" inkscape:pageopacity="0" inkscape:window-y="-8">
	</sodipodi:namedview>
<g id="Calque_3">
	<path fill="none" stroke="#FF0000" stroke-width="5" stroke-linecap="round" stroke-linejoin="round" stroke-miterlimit="10" d="
		M26.426,32.603v13.035c0,0,8.124-1.07,8.124,9.281c0,8.673-8.124,8.673-8.124,8.673v10.438h76.48V63.592
		c0,0-8.641-0.459-8.641-8.672c0-8.214,8.641-9.282,8.641-9.282V32.603H26.426z"/>
	<g>
		<g>
			
				<line fill="none" stroke="#FF0000" stroke-width="5" stroke-linecap="round" stroke-linejoin="round" stroke-dasharray="5,10" x1="79.301" y1="32.603" x2="79.301" y2="74.027"/>
		</g>
	</g>
</g>
<path fill="none" stroke="#FF0000" stroke-width="5" stroke-linecap="round" stroke-linejoin="round" stroke-miterlimit="10" d="
	M115.954,87.552c0,2.762-2.238,5-5,5H18.833c-2.761,0-5-2.238-5-5V21.843c0-2.762,2.239-5,5-5h92.121c2.762,0,5,2.238,5,5V87.552z"
	/>
<line fill="none" stroke="#FF0000" stroke-width="5" stroke-linecap="round" stroke-linejoin="round" stroke-miterlimit="10" x1="4.5" y1="16.843" x2="123.5" y2="16.843"/>
<line fill="none" stroke="#FF0000" stroke-width="5" stroke-linecap="round" stroke-linejoin="round" stroke-miterlimit="10" x1="43.704" y1="93.009" x2="37.794" y2="111.157"/>
<line fill="none" stroke="#FF0000" stroke-width="5" stroke-linecap="round" stroke-linejoin="round" stroke-miterlimit="10" x1="85.5" y1="93.009" x2="90.854" y2="111.157"/>
</svg>
