<?xml version="1.0" encoding="utf-8"?>
<!-- Generator: Adobe Illustrator 16.0.0, SVG Export Plug-In . SVG Version: 6.00 Build 0)  -->
<!DOCTYPE svg PUBLIC "-//W3C//DTD SVG 1.1//EN" "http://www.w3.org/Graphics/SVG/1.1/DTD/svg11.dtd">
<svg version="1.1" id="Calque_1" xmlns="http://www.w3.org/2000/svg" xmlns:xlink="http://www.w3.org/1999/xlink" x="0px" y="0px"
	 width="128px" height="128px" viewBox="0 0 128 128" enable-background="new 0 0 128 128" xml:space="preserve">
<g id="Calque_1_2_" xmlns:serif="http://www.serif.com/">
	<g id="Calque_1_1_">
		<g id="Calque_2" display="none">
			<g display="inline">
				<path fill="#FFFFFF" d="M63.518,82.316c6.718,0,11.104-9.237,11.83-18.678H53.57c-0.606,0.076-1.227,0.142-1.867,0.179
					C52.471,73.195,56.842,82.316,63.518,82.316z"/>
				<path fill="#FFFFFF" d="M83.425,89.934l-6.89-2.516l-11.021,6.245l-4.24-0.063L50.2,87.421l-6.833,2.515
					c-1.076,0.52-13.851,7.026-13.089,23.646c0.386,0.609,2.261,2.934,8.235,2.982c-0.188-3.147-0.513-10.17-0.111-16.322
					l3.384,0.222c-0.433,6.634,0.023,14.563,0.175,16.856c3.927,3.478,12.146,5.588,21.645,5.505
					c9.27-0.066,17.488-2.212,21.255-5.502c0.142-2.343,0.561-10.447,0.105-16.966l3.383-0.236
					c0.426,6.078,0.129,13.257-0.045,16.441c5.906-0.053,7.791-2.334,8.209-2.992C97.264,96.98,84.531,90.468,83.425,89.934z"/>
				<path fill="#FFFFFF" d="M42.612,63.639h4.447c0,0.002,0,0.002,0,0.004c-0.932,2.014-1.266,5.476,3.192,9.916
					c2.411,6.918,6.899,12.15,13.266,12.15c6.241,0,10.846-5.344,13.305-12.436c4.171-4.313,3.816-7.666,2.902-9.638h4.451
					c0.867,0,1.57-0.703,1.57-1.569c0-0.867-0.703-1.571-1.57-1.571h-2.102c0.012-0.238,0.018-0.479,0.018-0.721
					c0-7.547-4.412-14.042-10.752-16.971c0.018,0.742,0.021,1.58,0.021,2.523v2.714c0,7.833-0.426,8.299-7.586,8.299
					c-7.162,0-7.586-0.466-7.586-8.299v-2.714c0-0.947,0.006-1.784,0.029-2.528c-6.341,2.931-10.756,9.428-10.756,16.978
					c0,0.244,0.021,0.481,0.033,0.721H42.61c-0.867,0-1.57,0.704-1.57,1.571C41.042,62.936,41.746,63.639,42.612,63.639z
					 M53.57,63.639h21.776c-0.728,9.439-5.109,18.679-11.831,18.679c-6.676,0-11.047-9.123-11.814-18.5
					C52.343,63.78,52.963,63.715,53.57,63.639z"/>
				<path fill="#FFFFFF" d="M84.789,86.827l-10.148-3.711l-9.052,5.295h-4.444l-9.053-5.302l-9.968,3.666L42,86.826
					c-0.163,0.074-16.201,7.693-15.094,27.289l0.016,0.254l0.085,0.234c0.085,0.229,2.078,5.356,11.697,5.356
					c0.357,0,0.728-0.01,1.107-0.024c4.559,3.957,13.142,6.283,23.33,6.283c0.162,0,0.324-0.002,0.487-0.002
					c7.991-0.056,18.138-1.752,23.388-6.279c10.537,0.391,12.674-5.096,12.764-5.336l0.087-0.232l0.017-0.254
					C100.986,94.521,84.951,86.9,84.789,86.827z M96.512,113.57c-0.418,0.66-2.304,2.939-8.209,2.992
					c0.174-3.187,0.471-10.362,0.047-16.44l-3.385,0.235c0.455,6.519,0.036,14.625-0.104,16.966
					c-3.769,3.291-11.986,5.436-21.256,5.502c-9.498,0.083-17.719-2.027-21.646-5.505c-0.152-2.295-0.608-10.225-0.176-16.856
					l-3.384-0.222c-0.402,6.15-0.077,13.174,0.111,16.322c-5.975-0.049-7.849-2.371-8.235-2.981
					c-0.76-16.621,12.014-23.132,13.09-23.647l6.832-2.513L61.271,93.6l4.241,0.063l11.022-6.245l6.89,2.516
					C84.531,90.468,97.264,96.98,96.512,113.57z"/>
				<path fill="#FFFFFF" d="M69.438,42.051c-0.062-1.259-0.201-2.097-0.549-2.489c-0.553-0.617-2.216-0.647-5.109-0.647
					c-2.854,0-4.566,0-5.117,0.609c-0.348,0.386-0.486,1.237-0.543,2.527c1.781-0.588,3.682-0.911,5.656-0.911
					C65.753,41.139,67.654,41.461,69.438,42.051z"/>
				<path fill="#FFFFFF" d="M58.076,48.042c0,3.215,0,5.155,0.588,5.806c0.55,0.608,2.267,0.608,5.113,0.608
					c2.848,0,4.563,0,5.112-0.608c0.59-0.65,0.59-2.59,0.59-5.806v-2.714c0-1.311-0.004-2.395-0.045-3.277
					c-1.781-0.588-3.685-0.911-5.661-0.911s-3.875,0.322-5.658,0.911c-0.039,0.885-0.043,1.971-0.043,3.277v2.714H58.076z"/>
			</g>
		</g>
		<g id="Calque_3" display="none">
			<g display="inline">
				<path fill="#FFFFFF" d="M74.07,61.403c2.701-12.93-5.551-20.22-16.293-20.22c-19.254,0-15.895,21.097-15.895,21.097
					c0.021,0.003,0.042,0.003,0.062,0.005c-0.879,1.988-1.139,5.326,3.036,9.582c2.384,6.978,6.875,12.275,13.267,12.275
					c6.156,0,10.71-5.225,13.174-12.188C76.393,66.941,75.218,63.195,74.07,61.403z M58.246,80.77
					c-6.643,0-10.994-9.078-11.758-18.411c8.352-0.491,13.879-4.447,16.852-7.351c1.414,2.541,4.34,4.246,6.773,5.285
					C69.869,70.305,65.379,80.77,58.246,80.77z"/>
			</g>
			<g display="inline">
				<path fill="#FFFFFF" d="M54.545,119.895c-0.578-0.181-1.059-0.634-1.243-1.244l-9.751-32.178c-0.166-0.55-0.07-1.115,0.22-1.563
					l-6.06,2.229c-0.881,0.424-14.895,7.461-13.905,25.305c0.158,0.367,1.949,4.08,9.868,4.08c0.328,0,0.675-0.013,1.027-0.022
					c0.025-0.001,0.051-0.003,0.075-0.003c0.451,0,0.888,0.163,1.229,0.46c3.661,3.179,10.42,5.231,18.481,5.694l-0.14-0.146
					L54.545,119.895z"/>
				<path fill="#FFFFFF" d="M78.805,87.152l-5.957-2.19c0.286,0.448,0.383,1.015,0.217,1.56L63.21,119.05
					c-0.184,0.608-0.661,1.06-1.237,1.24l0.169,2.219l-0.1,0.103c6.772-0.459,14.369-2.107,18.485-5.653
					c0.357-0.312,0.818-0.462,1.293-0.454c0.341,0.012,0.675,0.021,0.994,0.021c7.871-0.002,9.689-3.672,9.869-4.082
					C93.662,94.811,79.99,87.732,78.805,87.152z"/>
				<path fill="#FFFFFF" d="M80.314,83.718c-0.045-0.021-0.086-0.038-0.133-0.055L70.493,80.1c-0.947-0.352-2,0.112-2.384,1.047
					l-1.282,3.123c-0.19,0.474-0.188,1,0.019,1.47c0.206,0.466,0.594,0.829,1.07,1.004l1.044,0.385l-6.278,20.724l-0.646-11.295
					c-0.01-0.17-0.043-0.338-0.098-0.492l1.733-2.457c0.323-0.463,0.424-1.045,0.272-1.588c-0.033-0.112-0.039-0.133-1.215-3.18
					c-0.297-0.771-1.056-1.25-1.873-1.197c-0.197,0.008-1.156,0.014-2.613,0.014c-1.459,0-2.418-0.006-2.615-0.014
					c-0.813-0.063-1.573,0.424-1.872,1.191c-1.444,3.717-1.444,3.717-1.13,4.438c0.051,0.117,0.113,0.229,0.188,0.334l1.732,2.457
					c-0.053,0.158-0.085,0.322-0.096,0.494l-0.623,10.897L47.652,87.08l0.932-0.342c0.479-0.176,0.865-0.54,1.07-1.008
					c0.205-0.467,0.209-0.998,0.016-1.474l-1.293-3.121c-0.387-0.93-1.438-1.39-2.381-1.04l-9.569,3.518
					c-0.023,0.007-0.045,0.015-0.066,0.025l-0.124,0.049c-0.023,0.013-0.046,0.021-0.068,0.03
					c-0.172,0.078-17.283,8.169-16.109,28.968l0.014,0.252c0.01,0.187,0.048,0.364,0.111,0.541l0.085,0.231
					c0.247,0.672,2.712,6.563,13.404,6.563c0.146,0,0.296-0.004,0.448-0.006c5.016,3.969,13.647,6.229,23.86,6.229h0.008
					l0.498-0.002c3.848-0.026,16.688-0.565,23.907-6.228c0.139,0.002,0.278,0.004,0.416,0.004
					c10.703-0.002,13.155-5.896,13.399-6.566l0.085-0.234c0.063-0.17,0.104-0.351,0.109-0.531l0.016-0.254
					C97.604,91.859,80.486,83.795,80.314,83.718z M54.348,92.38c-0.007-0.015,1.158-3.011,1.158-3.011
					c0.137,0.021,5.342,0.021,5.479,0c0,0,1.146,2.964,1.156,3.011l-1.852,2.629h-4.088L54.348,92.38z M92.684,112.441
					c-0.18,0.41-1.998,4.08-9.869,4.082c-0.317,0-0.653-0.012-0.994-0.021c-0.475-0.008-0.936,0.145-1.293,0.454
					c-4.116,3.546-11.713,5.194-18.485,5.653l-3.795,2.426l-3.758-2.385c-8.063-0.461-14.822-2.516-18.482-5.693
					c-0.342-0.297-0.778-0.46-1.229-0.46c-0.024,0-0.051,0.002-0.075,0.003c-0.352,0.016-0.699,0.021-1.027,0.021
					c-7.919,0-9.71-3.713-9.868-4.078c-0.989-17.846,13.024-24.883,13.905-25.307l6.06-2.229c-0.29,0.447-0.386,1.016-0.22,1.563
					l9.751,32.18c0.186,0.609,0.666,1.063,1.243,1.242l1.778-23.373h3.841l1.806,23.77c0.577-0.182,1.055-0.633,1.237-1.241
					l9.855-32.526c0.166-0.545,0.07-1.11-0.219-1.561l5.959,2.189C79.99,87.732,93.662,94.811,92.684,112.441z"/>
				<path fill="#FFFFFF" d="M59.316,93.273l0.717-1.018c-0.105-0.27-0.221-0.57-0.332-0.855c-0.377,0-0.853,0-1.455,0
					c-0.606,0-1.084,0-1.461,0c-0.118,0.31-0.232,0.601-0.332,0.854l0.721,1.021L59.316,93.273L59.316,93.273z"/>
				<path fill="#FFFFFF" d="M60.289,95.009l1.851-2.629c-0.013-0.047-1.157-3.011-1.157-3.011c-0.135,0.021-5.34,0.021-5.477,0
					c0,0-1.165,2.996-1.159,3.011l1.854,2.629H60.289z"/>
			</g>
			<g display="inline">
				<path fill="#FFFFFF" d="M82.41,52.884c0,0.362-0.293,0.656-0.654,0.656h-2.869c-0.361,0-0.654-0.294-0.654-0.656v-2.868
					c0-0.362,0.293-0.656,0.654-0.656h2.869c0.361,0,0.654,0.293,0.654,0.656V52.884z"/>
				<path fill="#FFFFFF" d="M88.518,52.884c0,0.362-0.293,0.656-0.656,0.656h-2.868c-0.361,0-0.654-0.294-0.654-0.656v-2.868
					c0-0.362,0.293-0.656,0.654-0.656h2.868c0.363,0,0.656,0.293,0.656,0.656V52.884z"/>
				<path fill="#FFFFFF" d="M94.581,52.884c0,0.362-0.294,0.656-0.655,0.656h-2.867c-0.363,0-0.656-0.294-0.656-0.656v-2.868
					c0-0.362,0.293-0.656,0.656-0.656h2.867c0.361,0,0.655,0.293,0.655,0.656V52.884z"/>
			</g>
			<g display="inline">
				<path fill="#FFFFFF" d="M74.844,60.666c0,0.292-0.009,0.582-0.02,0.871h6.31v7.729l6.294-7.729h16.998V41.361H68.389v3.266
					C72.338,48.495,74.844,54.242,74.844,60.666z"/>
				<path fill="#FFFFFF" d="M105.789,37.79H67.025c-1.238,0-2.207,1.043-2.207,2.375v2.516c1.285,0.754,2.481,0.88,3.57,1.947
					v-3.267h36.034v20.176H87.428l-6.294,7.729v-7.729l-7.063-0.134c-0.043,1.22,0.578,2.546,0.361,3.705h3.131v14.195
					l11.563-14.195h16.664c1.237,0,2.206-1.043,2.206-2.375V40.166C107.994,38.834,107.027,37.79,105.789,37.79z"/>
			</g>
		</g>
	</g>
	<path id="path19_1_" fill="none" stroke="#FF0000" stroke-width="5" stroke-miterlimit="10" d="M36.847,80.945
		c-2.108-3.355-3.626-7.146-4.44-11.234c-0.644-3.234-0.643-8.358,0.002-11.601c2.629-13.206,12.448-23.021,25.67-25.658
		c3.206-0.64,8.338-0.637,11.586,0.004c8.782,1.736,16.091,6.613,20.938,13.971c6.996,10.63,6.996,24.351,0,34.981"/>
	<g id="Calque_2_2_">
	</g>
</g>
<g id="Calque_2_3_">
	<path fill="none" stroke="#FF0000" stroke-width="5" stroke-linecap="round" stroke-linejoin="round" stroke-miterlimit="10" d="
		M22.24,105.523l-0.183-0.187c-2.644-2.646-4.66-4.669-5.446-5.604c0.614-0.729,2.048-2.168,3.141-3.267l3.788-3.801l2.536-2.544
		l-1.602-3.217l-1.22-2.447c-1.243-2.495-2.091-4.571-2.836-6.943l-0.553-1.761l-1.09-3.473l-3.639-0.029l-5.605-0.044l-4.353-0.035
		c-0.073-0.07-0.148-0.158-0.201-0.229V56.032c0.052-0.072,0.127-0.159,0.2-0.231l4.357-0.036l5.6-0.046l3.655-0.03l1.081-3.491
		l0.476-1.536c0.666-2.152,1.964-5.3,3.02-7.32l1.103-2.108l1.695-3.241l-2.574-2.597l-3.812-3.846
		c-1.183-1.193-2.614-2.638-3.195-3.343v-0.054c0.752-0.899,2.75-2.879,5.38-5.486l0.268-0.265c2.719-2.695,4.941-4.898,5.929-5.707
		c0.727,0.611,2.146,2.027,3.229,3.106c4.331,4.316,5.232,5.214,7.528,5.214c1.113,0,2.211-0.341,3.128-0.96
		c0.238-0.13,0.804-0.43,1.635-0.846c2.105-1.052,4.482-2.015,6.695-2.71l1.761-0.554l3.469-1.092l0.03-3.637l0.046-5.598
		l0.036-4.365c0.068-0.07,0.149-0.142,0.215-0.189h15.914"/>
	<path fill="none" stroke="#FF0000" stroke-width="5" stroke-linecap="round" stroke-linejoin="round" stroke-miterlimit="10" d="
		M71.846,5.064c0.069,0.052,0.157,0.127,0.229,0.2l0.034,4.354l0.048,5.598l0.028,3.637l3.472,1.091l1.76,0.554
		c2.347,0.737,4.604,1.665,6.916,2.836c2.617,1.326,3.317,1.682,4.644,1.682c2.188,0,2.584-0.394,7.43-5.214
		c1.104-1.099,2.561-2.547,3.268-3.134h0.063c0.896,0.752,2.875,2.746,5.478,5.371l0.271,0.272c2.795,2.822,4.92,4.965,5.709,5.933
		c-0.605,0.724-2.041,2.163-3.135,3.259l-3.785,3.797l-2.535,2.542l1.602,3.214l1.223,2.452c1.232,2.48,2.078,4.558,2.832,6.947
		l0.553,1.761l1.091,3.472l3.642,0.03l5.6,0.046l4.354,0.036c0.072,0.073,0.146,0.161,0.199,0.233v15.908
		c-0.053,0.072-0.127,0.158-0.199,0.231l-4.361,0.035l-5.605,0.047l-3.676,0.031l-1.065,3.519l-0.396,1.312
		c-0.736,2.434-2.313,6.139-3.666,8.61l-0.563,1.027l-1.799,3.282l2.644,2.649l3.854,3.861c1.53,1.538,2.578,2.646,3.142,3.271
		c-0.761,0.899-2.854,3-5.613,5.765l-0.219,0.218"/>
</g>
<g>
	<path fill="none" stroke="#FF0000" stroke-width="5" stroke-linecap="round" stroke-linejoin="round" stroke-miterlimit="10" d="
		M77.813,66.086v5.842c0,7.185-5.878,13.063-13.063,13.063l0,0c-7.183,0-13.06-5.878-13.06-13.063V60.244
		c0-7.183,5.876-13.061,13.06-13.061l0,0c7.185,0,13.063,5.878,13.063,13.061V66.086z"/>
	<path fill="none" stroke="#FF0000" stroke-width="5" stroke-linecap="round" stroke-linejoin="round" stroke-miterlimit="10" d="
		M68.255,88.424l3.683,1.035l6.217,1.744c2.815,0.79,5.498,2.054,7.798,3.864c1.974,1.553,3.771,3.568,3.771,5.764V112.9
		c0,4.878-3.992,8.87-8.867,8.87H47.969c-4.877,0-8.868-3.992-8.868-8.87v-12.071c0-2.195,1.796-4.209,3.771-5.764
		c2.3-1.809,4.982-3.073,7.8-3.864l6.215-1.743l3.979-1.117"/>
	
		<line fill="none" stroke="#FF0000" stroke-width="5" stroke-linecap="round" stroke-linejoin="round" stroke-miterlimit="10" x1="60.864" y1="88.342" x2="60.864" y2="84.99"/>
	
		<line fill="none" stroke="#FF0000" stroke-width="5" stroke-linecap="round" stroke-linejoin="round" stroke-miterlimit="10" x1="68.255" y1="88.424" x2="68.255" y2="84.99"/>
	<path fill="none" stroke="#FF0000" stroke-width="5" stroke-linecap="round" stroke-linejoin="round" stroke-miterlimit="10" d="
		M71.938,89.459c0.095,0.649,0.143,1.323,0.143,2.011c0,5.793-3.433,10.491-7.669,10.491c-4.233,0-7.667-4.698-7.667-10.491
		c0-0.688,0.048-1.359,0.142-2.011"/>
	<path fill="none" stroke="#FF0000" stroke-width="5" stroke-linecap="round" stroke-linejoin="round" stroke-miterlimit="10" d="
		M51.692,60.175c2.394-2.585,5.735-5.396,8.873-4.679c2.496,0.57,3.054,2.959,5.728,4.19c2.124,0.979,5.301,1.454,11.277-1.958"/>
</g>
</svg>
