<?xml version="1.0" encoding="utf-8"?>
<!-- Generator: Adobe Illustrator 16.0.0, SVG Export Plug-In . SVG Version: 6.00 Build 0)  -->
<!DOCTYPE svg PUBLIC "-//W3C//DTD SVG 1.1//EN" "http://www.w3.org/Graphics/SVG/1.1/DTD/svg11.dtd">
<svg version="1.1" id="Calque_1" xmlns="http://www.w3.org/2000/svg" xmlns:xlink="http://www.w3.org/1999/xlink" x="0px" y="0px"
	 width="128px" height="128px" viewBox="0 0 128 128" enable-background="new 0 0 128 128" xml:space="preserve">
<path fill="#1A1A1A" d="M57.887,107.435c0.102-0.078,0.188-0.163,0.29-0.241c-0.109,0.084-0.229,0.16-0.336,0.238
	C57.86,107.432,57.872,107.435,57.887,107.435z"/>
<path fill="none" stroke="#FF0000" stroke-width="5" stroke-linecap="round" stroke-linejoin="round" stroke-miterlimit="10" d="
	M67.63,97.376c1.055-0.03,2.109-0.058,3.149-0.127c9.033,9.311,22.716,13.733,37.497,12.681
	c-6.669-3.271-12.278-8.128-16.104-14.554c-0.437-0.766-0.792-1.58-1.174-2.367c19.571-7.32,33.161-23.003,33.161-41.231
	c0-25.209-25.938-45.644-57.933-45.644c-26.861,0-49.382,14.436-55.923,33.989 M10.298,40.141C9.054,43.864,8.327,47.75,8.327,51.78
	c0,25.218,25.918,45.654,57.9,45.654c0.459,0,0.9-0.042,1.353-0.055"/>
<path fill="none" stroke="#FF0000" stroke-width="5" stroke-linecap="round" stroke-linejoin="round" stroke-miterlimit="10" d="
	M8.03,74.51c-2.552,3.79-3.999,8.112-3.999,12.701c0,10.837,8.079,20.159,19.713,24.512c-0.227,0.468-0.438,0.952-0.698,1.407
	c-2.274,3.819-5.609,6.707-9.574,8.651c8.787,0.626,16.921-2.003,22.291-7.538c0.619,0.041,1.246,0.058,1.873,0.075 M37.667,114.32
	c0.269,0.008,0.531,0.033,0.804,0.033c10.728,0,20.308-3.868,26.619-9.933"/>
<circle fill="#FF0000" cx="37.749" cy="50.849" r="12.069"/>
<circle fill="#FF0000" cx="65.951" cy="50.849" r="12.069"/>
<circle fill="#FF0000" cx="94.39" cy="50.849" r="12.069"/>
</svg>
