<?xml version="1.0" encoding="utf-8"?>
<!-- Generator: Adobe Illustrator 16.0.0, SVG Export Plug-In . SVG Version: 6.00 Build 0)  -->
<!DOCTYPE svg PUBLIC "-//W3C//DTD SVG 1.1//EN" "http://www.w3.org/Graphics/SVG/1.1/DTD/svg11.dtd">
<svg version="1.1" id="Calque_1" xmlns="http://www.w3.org/2000/svg" xmlns:xlink="http://www.w3.org/1999/xlink" x="0px" y="0px"
	 width="128px" height="128px" viewBox="0 0 128 128" enable-background="new 0 0 128 128" xml:space="preserve">
<g id="Calque_1_1_" display="none">
	<g id="Calque_3" display="inline">
		<g>
			<g>
				
					<circle fill="none" stroke="#FF0000" stroke-width="5" stroke-linecap="round" stroke-linejoin="round" stroke-miterlimit="10" cx="64.506" cy="24.244" r="12.596"/>
				
					<polyline fill="none" stroke="#FF0000" stroke-width="5" stroke-linecap="round" stroke-linejoin="round" stroke-miterlimit="10" points="
					78.852,43.791 85.984,46.863 82.417,83.751 73.822,83.751 73.822,125.018 68.609,125.018 				"/>
				
					<polyline fill="none" stroke="#FF0000" stroke-width="5" stroke-linecap="round" stroke-linejoin="round" stroke-miterlimit="10" points="
					50.163,43.791 43.026,46.863 46.594,83.751 55.188,83.751 55.188,125.018 60.401,125.018 				"/>
			</g>
			<g>
				
					<circle fill="none" stroke="#FF0000" stroke-width="5" stroke-linecap="round" stroke-linejoin="round" stroke-miterlimit="10" cx="94.719" cy="17.01" r="12.597"/>
				
					<polyline fill="none" stroke="#FF0000" stroke-width="5" stroke-linecap="round" stroke-linejoin="round" stroke-miterlimit="10" points="
					85.4,92.741 85.4,117.783 90.615,117.783 				"/>
				
					<polyline fill="none" stroke="#FF0000" stroke-width="5" stroke-linecap="round" stroke-linejoin="round" stroke-miterlimit="10" points="
					109.063,36.558 116.197,39.628 112.632,76.52 104.035,76.52 104.035,117.783 98.822,117.783 				"/>
			</g>
			<g>
				
					<circle fill="none" stroke="#FF0000" stroke-width="5" stroke-linecap="round" stroke-linejoin="round" stroke-miterlimit="10" cx="34.292" cy="17.01" r="12.597"/>
				
					<polyline fill="none" stroke="#FF0000" stroke-width="5" stroke-linecap="round" stroke-linejoin="round" stroke-miterlimit="10" points="
					43.609,92.741 43.609,117.783 38.397,117.783 				"/>
				
					<polyline fill="none" stroke="#FF0000" stroke-width="5" stroke-linecap="round" stroke-linejoin="round" stroke-miterlimit="10" points="
					19.949,36.558 12.813,39.628 16.381,76.52 24.976,76.52 24.976,117.783 30.188,117.783 				"/>
			</g>
		</g>
	</g>
	<g id="Calque_2" display="inline">
	</g>
</g>
<g id="Calque_4" display="none">
	
		<circle display="inline" fill="none" stroke="#E42320" stroke-width="5" stroke-linecap="round" stroke-linejoin="round" stroke-miterlimit="10" cx="64.035" cy="73.591" r="9.893"/>
	
		<circle display="inline" fill="none" stroke="#E42320" stroke-width="5" stroke-linecap="round" stroke-linejoin="round" stroke-miterlimit="10" cx="25.664" cy="92.796" r="9.892"/>
	
		<circle display="inline" fill="none" stroke="#E42320" stroke-width="5" stroke-linecap="round" stroke-linejoin="round" stroke-miterlimit="10" cx="102.359" cy="92.796" r="9.892"/>
	
		<path display="inline" fill="none" stroke="#E42320" stroke-width="5" stroke-linecap="round" stroke-linejoin="round" stroke-miterlimit="10" d="
		M8.485,122.777v-9.139c0-3.209,2.514-5.813,5.615-5.813h23.319c3.101,0,5.615,2.604,5.615,5.813v9.432"/>
	
		<path display="inline" fill="none" stroke="#E42320" stroke-width="5" stroke-linecap="round" stroke-linejoin="round" stroke-miterlimit="10" d="
		M46.527,103.725v-9.138c0-3.21,2.514-5.812,5.614-5.812h23.32c3.102,0,5.615,2.602,5.615,5.812v9.431"/>
	
		<path display="inline" fill="none" stroke="#E42320" stroke-width="5" stroke-linecap="round" stroke-linejoin="round" stroke-miterlimit="10" d="
		M85.086,123.658v-10.018c0-3.211,2.514-5.813,5.614-5.813h23.319c3.103,0,5.613,2.603,5.613,5.813v10.019"/>
</g>
<polyline fill="none" stroke="#FF0000" stroke-width="5" stroke-linecap="round" stroke-linejoin="round" stroke-miterlimit="10" points="
	35.759,18.944 55.926,52.427 70.758,43.293 "/>
<g>
	<g>
		<path fill="none" stroke="#FF0000" stroke-width="5" stroke-linecap="round" stroke-linejoin="round" stroke-miterlimit="10" d="
			M57.608,7.359c-29.706,0-53.785,18.646-53.785,41.646c0,12.19,6.766,23.156,17.546,30.772l-0.003-0.002v23.552L37.162,87.53
			c6.304,2.009,13.207,3.122,20.446,3.122c29.704,0,53.785-18.646,53.785-41.646C111.394,26.005,87.313,7.359,57.608,7.359z"/>
	</g>
	<g>
		<path fill="none" stroke="#FF0000" stroke-width="5" stroke-linecap="round" stroke-linejoin="round" stroke-miterlimit="10" d="
			M115.915,58.32c4.219,5.212,6.659,11.377,6.659,17.982c0,9.923-5.508,18.85-14.284,25.05h0.004v19.17l-12.86-12.859
			c-5.132,1.635-10.751,2.543-16.645,2.543c-15.112,0-28.438-5.931-36.307-14.948"/>
	</g>
</g>
</svg>
