<?xml version="1.0" encoding="utf-8"?>
<!-- Generator: Adobe Illustrator 16.0.0, SVG Export Plug-In . SVG Version: 6.00 Build 0)  -->
<!DOCTYPE svg PUBLIC "-//W3C//DTD SVG 1.1//EN" "http://www.w3.org/Graphics/SVG/1.1/DTD/svg11.dtd">
<svg version="1.1" id="Calque_1" xmlns="http://www.w3.org/2000/svg" xmlns:xlink="http://www.w3.org/1999/xlink" x="0px" y="0px"
	 width="128px" height="128px" viewBox="0 0 128 128" enable-background="new 0 0 128 128" xml:space="preserve">
<g id="Calque_2" display="none">
</g>
<circle fill="none" stroke="#E42621" stroke-width="5" stroke-miterlimit="10" cx="75.821" cy="24.884" r="21.873"/>
<g>
	<g>
		<path fill="none" stroke="#E42320" stroke-width="5" stroke-linecap="round" stroke-linejoin="round" stroke-miterlimit="10" d="
			M71.625,25.663c-3.238,0-5.861-2.623-5.861-5.859l0,0c0-3.238,2.623-5.86,5.861-5.86h8.528c3.236,0,5.859,2.622,5.859,5.86l0,0"/>
		<path fill="none" stroke="#E42320" stroke-width="5" stroke-linecap="round" stroke-linejoin="round" stroke-miterlimit="10" d="
			M71.625,25.663h8.528c3.236,0,5.859,2.622,5.859,5.858l0,0c0,3.238-2.623,5.86-5.859,5.86h-8.528c-3.238,0-5.861-2.622-5.861-5.86
			"/>
	</g>
	
		<line fill="none" stroke="#E42320" stroke-width="5" stroke-linecap="round" stroke-linejoin="round" stroke-miterlimit="10" x1="75.888" y1="13.943" x2="75.888" y2="8.478"/>
	
		<line fill="none" stroke="#E42320" stroke-width="5" stroke-linecap="round" stroke-linejoin="round" stroke-miterlimit="10" x1="75.888" y1="42.846" x2="75.888" y2="37.381"/>
</g>
<path fill="none" stroke="#E42320" stroke-width="5" stroke-linecap="round" stroke-linejoin="round" stroke-miterlimit="10" d="
	M50.5,42.846c0,0-7.5,0.667-11.5,3.91c0,0-8-10.53-26-6.643L22.5,56c0,0-8.5,8.5-9.5,16.5H7.875c0,0-3.75-0.5-3.75,4.875
	s0,15.625,0,15.625s-0.5,2.375,3.75,2.375s5.5,0,5.5,0s4.25,10,15.75,14l-3.75,13.75c0,0-0.375,3.125,3.75,3.125s13.25,0,13.25,0
	s1.375,0.375,2.375-3.375s1.625-7.5,1.625-7.5s14.25,2.625,24.5,0.5l1.625,7.375c0,0,0.4,3.021,3.388,3.01
	c2.987-0.01,13.487,0,13.487,0s3,0.74,1.875-5.01s-3.125-13.125-3.125-13.125s17.125-9.25,17.125-32.25c0-16.875-15.75-24-15.75-24"
	/>
<ellipse transform="matrix(0.9281 0.3722 -0.3722 0.9281 28.1215 -4.9959)" fill="#E42320" cx="27" cy="70.333" rx="2.667" ry="4.833"/>
<path fill="none" stroke="#E42320" stroke-width="5" stroke-linecap="round" stroke-miterlimit="10" d="M105.25,75.875
	c0,0,7.749,4.459,14.083-5.541"/>
</svg>
