<?xml version="1.0" encoding="utf-8"?>
<!-- Generator: Adobe Illustrator 16.0.0, SVG Export Plug-In . SVG Version: 6.00 Build 0)  -->
<!DOCTYPE svg PUBLIC "-//W3C//DTD SVG 1.1//EN" "http://www.w3.org/Graphics/SVG/1.1/DTD/svg11.dtd">
<svg version="1.1" id="Calque_1" xmlns="http://www.w3.org/2000/svg" xmlns:xlink="http://www.w3.org/1999/xlink" x="0px" y="0px"
	 width="128px" height="128px" viewBox="0 0 128 128" enable-background="new 0 0 128 128" xml:space="preserve">
<g id="Calque_2" display="none">
	<g display="inline">
		<g>
			<g>
				
					<path fill="none" stroke="#FF0000" stroke-width="5" stroke-linecap="round" stroke-linejoin="round" stroke-miterlimit="10" d="
					M116.063,106.984H13.682c-5.126,0-9.32-4.194-9.32-9.32V33.583c0-5.126,4.194-9.319,9.32-9.319h102.378
					c5.127,0,9.315,4.192,9.315,9.319v64.082C125.381,102.79,121.188,106.984,116.063,106.984z"/>
				
					<rect x="4.362" y="42.646" fill="none" stroke="#FF0000" stroke-width="5" stroke-linecap="round" stroke-linejoin="round" stroke-miterlimit="10" width="121.019" height="16.85"/>
			</g>
			
				<line fill="none" stroke="#FF0000" stroke-width="5" stroke-linecap="round" stroke-linejoin="round" stroke-miterlimit="10" x1="14.439" y1="74.625" x2="53.41" y2="74.625"/>
			
				<circle fill="none" stroke="#FF0000" stroke-width="5" stroke-linecap="round" stroke-linejoin="round" stroke-miterlimit="10" cx="104.143" cy="89.142" r="7.335"/>
		</g>
	</g>
</g>
<g>
	<g>
		<path fill="none" stroke="#FF0000" stroke-width="5" stroke-linecap="round" stroke-linejoin="round" stroke-miterlimit="10" d="
			M59.329,61.739c-3.655,0-6.617-2.964-6.617-6.618l0,0c0-3.656,2.961-6.619,6.617-6.619h9.633c3.656,0,6.621,2.963,6.621,6.619l0,0
			"/>
		<path fill="none" stroke="#FF0000" stroke-width="5" stroke-linecap="round" stroke-linejoin="round" stroke-miterlimit="10" d="
			M59.329,61.739h9.633c3.656,0,6.621,2.963,6.621,6.617l0,0c0,3.656-2.965,6.621-6.621,6.621h-9.633
			c-3.655,0-6.617-2.965-6.617-6.621"/>
	</g>
	
		<line fill="none" stroke="#FF0000" stroke-width="5" stroke-linecap="round" stroke-linejoin="round" stroke-miterlimit="10" x1="64.148" y1="48.502" x2="64.148" y2="42.33"/>
	
		<line fill="none" stroke="#FF0000" stroke-width="5" stroke-linecap="round" stroke-linejoin="round" stroke-miterlimit="10" x1="64.148" y1="81.148" x2="64.148" y2="74.978"/>
</g>
<path fill="none" stroke="#FF0000" stroke-width="5" stroke-miterlimit="10" d="M103.531,24.383H24.762
	c0,13.45-9.04,24.356-20.19,24.356l0,0v22.279c1.029-0.195,2.077-0.326,3.151-0.326c11.15,0,20.189,10.907,20.189,24.356
	c0,1.107-0.083,2.188-0.201,3.259h76.021c-0.119-1.07-0.201-2.151-0.201-3.259c0-13.449,9.039-24.355,20.189-24.356V48.74
	C112.57,48.739,103.531,37.834,103.531,24.383z"/>
<path fill="none" stroke="#FF0000" stroke-width="5" stroke-miterlimit="10" d="M106.859,37.525"/>
<path fill="none" stroke="#FF0000" stroke-width="5" stroke-miterlimit="10" d="M106.859,37.525"/>
<g id="Calque_2_1_" display="none">
	<g display="inline">
		<path fill="none" stroke="#FF0000" stroke-width="5" stroke-miterlimit="10" d="M86.15,66.77c2.346,1.61,5.201,2.562,8.281,2.562
			c7.981,0,14.455-6.343,14.455-14.168c0-7.824-6.474-14.167-14.455-14.167c-3.08,0-5.938,0.948-8.281,2.558"/>
		<path fill="none" stroke="#FF0000" stroke-width="5" stroke-miterlimit="10" d="M79.979,55.16c0-4.804,2.439-9.047,6.172-11.608
			c-2.346-1.611-5.197-2.558-8.278-2.558c-7.979,0-14.455,6.343-14.455,14.167c0,7.825,6.476,14.167,14.455,14.167
			c3.081,0,5.938-0.946,8.278-2.557C82.42,64.207,79.979,59.964,79.979,55.16z"/>
		<path fill="none" stroke="#FF0000" stroke-width="5" stroke-miterlimit="10" d="M86.15,43.552
			c-3.73,2.561-6.174,6.804-6.174,11.608c0,4.804,2.439,9.047,6.174,11.609"/>
	</g>
	<path display="inline" fill="#FF0000" d="M51.068,95.479c0,0.91-1.011,1.648-2.258,1.648H29.033c-1.246,0-2.258-0.738-2.258-1.648
		v-3.301c0-0.91,1.013-1.65,2.258-1.65H48.81c1.248,0,2.258,0.74,2.258,1.65V95.479z"/>
	<path display="inline" fill="#FF0000" d="M79.979,95.479c0,0.91-1.013,1.648-2.261,1.648H57.943c-1.247,0-2.26-0.738-2.26-1.648
		v-3.301c0-0.91,1.013-1.65,2.26-1.65h19.778c1.246,0,2.258,0.74,2.258,1.65V95.479L79.979,95.479z"/>
	<path display="inline" fill="#FF0000" d="M108.887,95.479c0,0.91-1.011,1.648-2.26,1.648H86.852c-1.246,0-2.258-0.738-2.258-1.648
		v-3.301c0-0.91,1.012-1.65,2.258-1.65h19.777c1.247,0,2.26,0.74,2.26,1.65L108.887,95.479L108.887,95.479z"/>
	<g display="inline">
		<path fill="none" stroke="#FF0000" stroke-width="4" stroke-linecap="round" stroke-linejoin="round" stroke-miterlimit="10" d="
			M37.378,59.111c0,0.857-0.786,1.554-1.756,1.554H15.555c-0.969,0-1.755-0.696-1.755-1.554v-17.76c0-0.858,0.786-1.554,1.755-1.554
			h20.066c0.97,0,1.756,0.695,1.756,1.554L37.378,59.111L37.378,59.111z"/>
		
			<line fill="none" stroke="#FF0000" stroke-width="4" stroke-linecap="round" stroke-linejoin="round" stroke-miterlimit="10" x1="28.65" y1="39.797" x2="28.65" y2="60.492"/>
		
			<polyline fill="none" stroke="#FF0000" stroke-width="4" stroke-linecap="round" stroke-linejoin="round" stroke-miterlimit="10" points="
			22.604,60.492 22.604,46.485 14.149,46.485 		"/>
		
			<line fill="none" stroke="#FF0000" stroke-width="4" stroke-linecap="round" stroke-linejoin="round" stroke-miterlimit="10" x1="13.8" y1="53.488" x2="22.604" y2="53.488"/>
		
			<line fill="none" stroke="#FF0000" stroke-width="4" stroke-linecap="round" stroke-linejoin="round" stroke-miterlimit="10" x1="28.65" y1="46.485" x2="37.378" y2="46.485"/>
		
			<line fill="none" stroke="#FF0000" stroke-width="4" stroke-linecap="round" stroke-linejoin="round" stroke-miterlimit="10" x1="28.65" y1="53.488" x2="37.378" y2="53.488"/>
	</g>
</g>
<path fill="none" stroke="#FF0000" stroke-width="5" stroke-miterlimit="10" d="M123.723,96.805c0,1.104-0.896,2-2,2H6.572
	c-1.104,0-2-0.896-2-2V26.673c0-1.104,0.896-2,2-2h115.151c1.104,0,2,0.896,2,2V96.805z"/>
</svg>
