<?xml version="1.0" encoding="utf-8"?>
<!-- Generator: Adobe Illustrator 16.0.0, SVG Export Plug-In . SVG Version: 6.00 Build 0)  -->
<!DOCTYPE svg PUBLIC "-//W3C//DTD SVG 1.1//EN" "http://www.w3.org/Graphics/SVG/1.1/DTD/svg11.dtd">
<svg version="1.1" id="Calque_1" xmlns="http://www.w3.org/2000/svg" xmlns:xlink="http://www.w3.org/1999/xlink" x="0px" y="0px"
	 width="128px" height="128px" viewBox="0 0 128 128" enable-background="new 0 0 128 128" xml:space="preserve">
<g id="Calque_3" display="none">
	<g id="Icones" display="inline">
		<g id="Artboard" transform="translate(-1260.000000, -550.000000)">
			<g id="icone-signature-du-contrat-franchise" transform="translate(1249.000000, 539.000000)">
				<g id="Rectangle">
				</g>
				<defs>
					<filter id="Adobe_OpacityMaskFilter" filterUnits="userSpaceOnUse" x="17.792" y="14.53" width="118.208" height="120.624">
						<feColorMatrix  type="matrix" values="1 0 0 0 0  0 1 0 0 0  0 0 1 0 0  0 0 0 1 0"/>
					</filter>
				</defs>
				<mask maskUnits="userSpaceOnUse" x="17.792" y="14.53" width="118.208" height="120.624" id="mask-2_1_">
					<g filter="url(#Adobe_OpacityMaskFilter)">
						<rect id="path-1_1_" x="10.359" y="6.755" fill="#FFFFFF" width="135.157" height="135.158"/>
					</g>
				</mask>
				<g id="Group-16" mask="url(#mask-2_1_)">
					<g transform="translate(11.000000, 11.000000)">
						<path id="Fill-1" fill="#FF0000" d="M32.528,22.787c-0.777,0-1.407,0.605-1.407,1.352c0,0.744,0.63,1.352,1.407,1.352h47.193
							c0.775,0,1.407-0.608,1.407-1.352c0-0.746-0.632-1.352-1.407-1.352H32.528z"/>
						<path id="Fill-3" fill="#FF0000" d="M20.978,22.787h-0.664c-0.747,0-1.357,0.605-1.357,1.352c0,0.744,0.61,1.352,1.357,1.352
							h0.664c0.75,0,1.357-0.608,1.357-1.352C22.335,23.393,21.728,22.787,20.978,22.787"/>
						<path id="Fill-5" fill="#FF0000" d="M79.047,36.303c0.776,0,1.406-0.604,1.406-1.352c0-0.744-0.63-1.352-1.406-1.352H20.363
							c-0.774,0-1.406,0.607-1.406,1.352c0,0.746,0.632,1.352,1.406,1.352H79.047z"/>
						<path id="Fill-7" fill="#FF0000" d="M79.047,47.115c0.776,0,1.406-0.607,1.406-1.352c0-0.746-0.63-1.352-1.406-1.352H20.363
							c-0.774,0-1.406,0.605-1.406,1.352c0,0.744,0.632,1.352,1.406,1.352H79.047z"/>
						<path id="Fill-9" fill="#FF0000" d="M48.586,58.604c0.803,0,1.457-0.606,1.457-1.352c0-0.745-0.654-1.352-1.457-1.352h-1.141
							c-0.803,0-1.457,0.607-1.457,1.352c0,0.746,0.654,1.352,1.457,1.352H48.586z"/>
						<path id="Fill-11" fill="#FF0000" d="M37.81,58.604c0.784,0,1.42-0.606,1.42-1.352c0-0.745-0.636-1.352-1.42-1.352H20.379
							c-0.784,0-1.423,0.607-1.423,1.352c0,0.746,0.639,1.352,1.423,1.352H37.81z"/>
						<g id="Group-15">
							<g id="Clip-14">
							</g>
							<defs>
								
									<filter id="Adobe_OpacityMaskFilter_1_" filterUnits="userSpaceOnUse" x="6.792" y="3.53" width="118.208" height="120.624">
									<feColorMatrix  type="matrix" values="1 0 0 0 0  0 1 0 0 0  0 0 1 0 0  0 0 0 1 0"/>
								</filter>
							</defs>
							<mask maskUnits="userSpaceOnUse" x="6.792" y="3.53" width="118.208" height="120.624" id="mask-4_1_">
								<g filter="url(#Adobe_OpacityMaskFilter_1_)">
									<polygon id="path-3_1_" fill="#FFFFFF" points="6.792,3.53 124.999,3.53 124.999,124.154 6.792,124.154 									"/>
								</g>
							</mask>
							<path id="Fill-13" mask="url(#mask-4_1_)" fill="#FF0000" d="M99.139,29.468l11.826,6.835L74.639,99.3l-11.828-6.835
								L99.139,29.468z M105.314,18.76l11.826,6.838l-4.771,8.272l-11.829-6.836L105.314,18.76z M109.445,11.595
								c1.885-3.262,6.068-4.383,9.328-2.502c1.582,0.914,2.711,2.388,3.182,4.152c0.473,1.763,0.23,3.606-0.682,5.188l-2.729,4.73
								l-11.827-6.835L109.445,11.595z M62.158,95.334l10.324,5.968l-11.125,7.354L62.158,95.334z M90.563,121.345H30.73v-19.751
								c0-0.773-0.629-1.404-1.403-1.404H9.601V6.34h80.959v32.378l-9.465,16.413H58.459c-0.773,0-1.403,0.632-1.403,1.405
								c0,0.776,0.63,1.407,1.403,1.407h21.018l-4.718,8.177H20.796c-0.774,0-1.403,0.632-1.403,1.407
								c0,0.771,0.629,1.404,1.403,1.404h52.343l-4.716,8.18H20.796c-0.774,0-1.403,0.631-1.403,1.402
								c0,0.777,0.629,1.407,1.403,1.407h46.006l-7.125,12.354c-0.106,0.185-0.168,0.388-0.181,0.605L58.39,111.29
								c-0.034,0.533,0.235,1.03,0.697,1.3c0.168,0.1,0.357,0.158,0.564,0.18c0.489,0.004,12.27,0.01,20.053,0.012
								c0.774,0,1.403-0.631,1.403-1.406c0-0.773-0.629-1.406-1.403-1.406H64.467l11.465-7.582c0.178-0.121,0.332-0.283,0.438-0.465
								l14.193-24.613V121.345z M27.923,119.357L11.585,103h16.338V119.357z M8.195,3.53c-0.772,0-1.403,0.631-1.403,1.405v96.659
								c0,0.371,0.152,0.732,0.412,0.996l21.129,21.153c0.265,0.266,0.619,0.411,0.994,0.411h62.64c0.771,0,1.402-0.629,1.402-1.404
								V72.439l30.334-52.604c1.288-2.231,1.631-4.831,0.965-7.321c-0.666-2.488-2.261-4.568-4.488-5.858
								c-4.604-2.661-10.51-1.076-13.164,3.532L93.369,33.851V4.935c0-0.774-0.631-1.405-1.402-1.405H8.195z"/>
						</g>
					</g>
				</g>
			</g>
		</g>
	</g>
</g>
<g id="Calque_2_1_">
	<g id="Calque_3_1_">
		<g>
			<path fill="none" stroke="#FF0000" stroke-width="5" stroke-linecap="round" stroke-linejoin="round" stroke-miterlimit="10" d="
				M56.654,55.605c0,0.578-0.469,1.049-1.049,1.049H5.548c-0.579,0-1.048-0.471-1.048-1.049V5.548C4.5,4.969,4.969,4.5,5.548,4.5
				h50.058c0.58,0,1.049,0.469,1.049,1.048L56.654,55.605L56.654,55.605z"/>
			<circle fill="#FF0000" cx="16.424" cy="17.481" r="3.704"/>
			<line fill="none" stroke="#FF0000" stroke-width="4" stroke-miterlimit="10" x1="24.219" y1="17.481" x2="46.23" y2="17.481"/>
			<circle fill="#FF0000" cx="16.424" cy="30.577" r="3.704"/>
			<line fill="none" stroke="#FF0000" stroke-width="4" stroke-miterlimit="10" x1="24.219" y1="30.578" x2="46.23" y2="30.578"/>
			<circle fill="#FF0000" cx="16.424" cy="43.673" r="3.704"/>
			<line fill="none" stroke="#FF0000" stroke-width="4" stroke-miterlimit="10" x1="24.219" y1="43.672" x2="46.23" y2="43.672"/>
		</g>
	</g>
</g>
<line fill="none" stroke="#FF0000" stroke-width="5.5863" stroke-linecap="round" stroke-linejoin="round" stroke-miterlimit="10" x1="11.315" y1="95.688" x2="47.88" y2="107.752"/>
<line fill="none" stroke="#FF0000" stroke-width="5.5863" stroke-linecap="round" stroke-linejoin="round" stroke-miterlimit="10" x1="68.448" y1="92.578" x2="88.813" y2="29.792"/>
<path fill="none" stroke="#FF0000" stroke-width="5.5863" stroke-miterlimit="10" d="M66.384,102.186
	c4.843-0.291,9.005,3.402,9.292,8.243c0.291,4.847-3.402,9.001-8.244,9.291c-4.841,0.292-9-3.397-9.292-8.244
	C57.851,106.635,61.543,102.475,66.384,102.186z"/>
<g>
	<g id="Calque_3_3_">
		
			<line id="line77" fill="none" stroke="#FF0000" stroke-width="5" stroke-miterlimit="10" x1="121.781" y1="97.178" x2="97.357" y2="97.178"/>
	</g>
	<path id="path82" fill="none" stroke="#FF0000" stroke-width="5" stroke-miterlimit="10" d="M121.781,46.396l-24.424-0.003v-7.89
		c-0.004-2.603,2.076-4.713,4.678-4.711l15.021,0.003c2.603,0,4.713,2.108,4.717,4.711L121.781,46.396z"/>
	
		<polyline id="polyline84" fill="none" stroke="#FF0000" stroke-width="5" stroke-linecap="round" stroke-linejoin="round" stroke-miterlimit="10" points="
		97.357,103.157 109.427,121.808 121.781,103.463 121.781,46.268 97.357,46.268 97.357,103.157 	"/>
</g>
</svg>
