<?xml version="1.0" encoding="utf-8"?>
<!-- Generator: Adobe Illustrator 16.0.0, SVG Export Plug-In . SVG Version: 6.00 Build 0)  -->
<!DOCTYPE svg PUBLIC "-//W3C//DTD SVG 1.1//EN" "http://www.w3.org/Graphics/SVG/1.1/DTD/svg11.dtd">
<svg version="1.1" id="Calque_3_2_" xmlns="http://www.w3.org/2000/svg" xmlns:xlink="http://www.w3.org/1999/xlink" x="0px"
	 y="0px" width="128px" height="128px" viewBox="0 0 128 128" enable-background="new 0 0 128 128" xml:space="preserve">
<g>
	<path fill="none" stroke="#FF0000" stroke-width="5" stroke-linecap="round" stroke-linejoin="round" stroke-miterlimit="10" d="
		M95.445,123.605h-62.89c-7.167,0-13.033-5.864-13.033-13.033V59.104c0-7.169,5.866-13.033,13.033-13.033h62.89
		c7.169,0,13.033,5.864,13.033,13.033v51.468C108.479,117.741,102.614,123.605,95.445,123.605z"/>
	<path fill="none" stroke="#FF0000" stroke-width="5" stroke-linecap="round" stroke-linejoin="round" stroke-miterlimit="10" d="
		M33.535,46.071V35.559c0-16.756,13.709-30.465,30.467-30.465l0,0c16.756,0,30.465,13.709,30.465,30.465v10.513"/>
	<path fill="none" stroke="#FF0000" stroke-width="5" stroke-linecap="round" stroke-linejoin="round" stroke-miterlimit="10" d="
		M75.693,79.42c0-6.458-5.234-11.69-11.691-11.69c-6.458,0-11.693,5.232-11.693,11.69c0,4.613,2.678,8.591,6.558,10.493v6.901
		c0,2.823,2.311,5.133,5.135,5.133c2.822,0,5.132-2.31,5.132-5.133v-6.901C73.016,88.011,75.693,84.033,75.693,79.42z"/>
</g>
</svg>
