<?xml version="1.0" encoding="utf-8"?>
<!-- Generator: Adobe Illustrator 16.0.0, SVG Export Plug-In . SVG Version: 6.00 Build 0)  -->
<!DOCTYPE svg PUBLIC "-//W3C//DTD SVG 1.1//EN" "http://www.w3.org/Graphics/SVG/1.1/DTD/svg11.dtd">
<svg version="1.1" id="Calque_1" xmlns="http://www.w3.org/2000/svg" xmlns:xlink="http://www.w3.org/1999/xlink" x="0px" y="0px"
	 width="128px" height="128px" viewBox="0 0 128 128" enable-background="new 0 0 128 128" xml:space="preserve">
<g id="Layer_1" xmlns:svg="http://www.w3.org/2000/svg" xmlns:sodipodi="http://sodipodi.sourceforge.net/DTD/sodipodi-0.dtd" xmlns:rdf="http://www.w3.org/1999/02/22-rdf-syntax-ns#" xmlns:cc="http://creativecommons.org/ns#" xmlns:dc="http://purl.org/dc/elements/1.1/" xmlns:inkscape="http://www.inkscape.org/namespaces/inkscape" inkscape:version="1.0 (4035a4fb49, 2020-05-01)" sodipodi:docname="iconTicketDashboard.svg">
	
		<sodipodi:namedview  id="namedview13" bordercolor="#666666" inkscape:cy="128" objecttolerance="10" inkscape:zoom="2.8710938" gridtolerance="10" showgrid="false" borderopacity="1" pagecolor="#ffffff" inkscape:cx="128" guidetolerance="10" inkscape:current-layer="Layer_1" inkscape:window-maximized="1" inkscape:window-x="-8" inkscape:window-y="-8" inkscape:pageshadow="2" inkscape:pageopacity="0" inkscape:window-height="1017" inkscape:window-width="1920">
		</sodipodi:namedview>
</g>
<polyline fill="none" stroke="#FF0000" stroke-width="5" stroke-linecap="round" stroke-linejoin="round" stroke-miterlimit="10" points="
	64.493,43.235 49.165,49.393 37.775,21.041 66.125,9.654 66.813,11.368 "/>
<polyline fill="none" stroke="#FF0000" stroke-width="5" stroke-linecap="round" stroke-linejoin="round" stroke-miterlimit="10" points="
	103.029,62.567 109.829,79.491 68.222,96.21 52.373,56.76 69.21,49.995 "/>
<line fill="none" stroke="#FF0000" stroke-width="5" stroke-linecap="round" stroke-linejoin="round" stroke-miterlimit="10" x1="81.232" y1="109.79" x2="122.411" y2="93.419"/>
<polyline fill="none" stroke="#FF0000" stroke-width="5" stroke-linecap="round" stroke-linejoin="round" stroke-miterlimit="10" points="
	2.499,8.44 26.426,19.209 59.091,98.267 "/>
<path fill="none" stroke="#FF0000" stroke-width="5" stroke-miterlimit="10" d="M74.291,114.178c0,5.585-4.529,10.108-10.108,10.108
	c-5.583,0-10.109-4.523-10.109-10.108c0-5.579,4.525-10.106,10.109-10.106C69.762,104.071,74.291,108.599,74.291,114.178z"/>
<polygon fill="#FF0000" points="50.884,33.95 57.331,31.545 59.211,36.585 68.805,24.964 53.942,22.462 55.822,27.5 49.378,29.903 
	"/>
<path fill="#FF0000" d="M81.251,21.916v28.182c0,0-0.534,3.74,4.141,3.74s25.778,0,25.778,0s3.473,0.267,3.473-5.476
	c0-5.744,0-26.446,0-26.446s-0.268-4.141-4.408-4.141s-7.613-2.137-7.613-5.476s4.273-4.942,7.079-4.942c0,0,1.653,0.3,1.653-0.919
	c0-1.218,0-2.742,0-2.742s0.218-0.61-1.698-0.61c-1.915,0-23.682,0-23.682,0s-1.351-0.086-1.351,1.001v2.569
	c0,0-0.086,0.74,1.872,0.74c1.959,0,6.444,1.262,6.444,5.007c0,3.744-3.484,5.354-7.01,5.354
	C82.403,17.756,81.251,20.806,81.251,21.916z"/>
</svg>
