<?xml version="1.0" encoding="utf-8"?>
<!-- Generator: Adobe Illustrator 16.0.0, SVG Export Plug-In . SVG Version: 6.00 Build 0)  -->
<!DOCTYPE svg PUBLIC "-//W3C//DTD SVG 1.1//EN" "http://www.w3.org/Graphics/SVG/1.1/DTD/svg11.dtd">
<svg version="1.1" id="Calque_1" xmlns="http://www.w3.org/2000/svg" xmlns:xlink="http://www.w3.org/1999/xlink" x="0px" y="0px"
	 width="128px" height="128px" viewBox="0 0 128 128" enable-background="new 0 0 128 128" xml:space="preserve">
<g id="Calque_1_1_" display="none">
	<g id="Calque_2" display="inline">
	</g>
	<g display="inline">
		<path fill="none" stroke="#FF0000" stroke-width="5" stroke-linecap="round" stroke-linejoin="round" stroke-miterlimit="10" d="
			M25.871,81.3c7.763,0,14.633,3.749,18.957,9.521C45.495,78.328,55.805,68.4,68.46,68.4c7.649,0,14.435,3.638,18.767,9.266
			c1.754-11.357,11.543-20.062,23.391-20.062c5.445,0,10.449,1.856,14.451,4.945C115.395,39.843,92.876,23.92,66.634,23.92
			c-35.066,0-63.493,28.427-63.493,63.492c0,3.066,0.23,6.08,0.65,9.029C7.226,87.584,15.805,81.3,25.871,81.3z"/>
	</g>
	
		<path display="inline" fill="none" stroke="#FF0000" stroke-width="5" stroke-linecap="round" stroke-linejoin="round" stroke-miterlimit="10" d="
		M84.359,26.44c-0.113-0.824-0.172-1.666-0.172-2.521c0-10.118,8.201-18.319,18.318-18.319s18.318,8.201,18.318,18.319
		c0,7.563-4.583,14.056-11.124,16.852"/>
	
		<line display="inline" fill="none" stroke="#FF0000" stroke-width="5" stroke-linecap="round" stroke-linejoin="round" stroke-miterlimit="10" x1="61.331" y1="69.498" x2="78.684" y2="126.247"/>
</g>
<g id="Calque_2_1_" display="none">
	<g display="inline">
		<path fill="#FF0000" d="M114.307,61.503c0.33-0.635,0.494-1.318,0.494-1.998c0-1.504-0.797-2.974-2.211-3.765
			c-0.646-0.365-1.387-0.55-2.088-0.544c-1.438-0.005-2.845,0.729-3.652,2.032c-3.25-1.229-6.678-1.818-10.141-1.813
			c-7.82,0-15.823,2.98-22.804,8.293l1.723,3.866c0.421-0.079,0.843-0.118,1.251-0.118c0.988,0,1.896,0.219,2.729,0.685
			c1.273,0.719,2.177,1.902,2.703,3.502l0.623,1.937l1.977-0.493c0.566-0.146,1.134-0.214,1.678-0.214
			c0.977,0,1.874,0.219,2.704,0.685c1.269,0.707,2.179,1.891,2.705,3.502l0.617,1.93l1.975-0.487
			c0.416-0.106,0.843-0.162,1.279-0.162c0.539,0,1.11,0.095,1.729,0.298L83.3,104.656c-4.967-0.971-10.504-1.655-16.385-1.661
			c-3.939,0.006-7.721,0.31-11.29,0.797L47.92,50.488c1.431,0.185,2.486,0.673,3.653,1.588l1.684,1.363l1.375-1.684
			c1.745-2.149,3.934-3.501,6.414-3.844c0.421-0.062,0.831-0.089,1.257-0.089c2.06,0,4.096,0.702,5.982,2.026l1.66,1.161
			l1.279-1.571c1.752-2.149,3.922-3.49,6.432-3.844c0.402-0.063,0.818-0.09,1.24-0.09c2.451,0,4.897,0.999,7.047,2.868l3.311-2.727
			C79.455,28.582,63.469,17.494,46.13,17.427c0-0.022,0-0.039,0-0.063c0-0.229-0.017-0.472-0.056-0.724
			C45.692,13.953,43.403,12,40.754,12c-0.258,0-0.516,0.017-0.774,0.056c-2.671,0.376-4.624,2.66-4.624,5.319
			c0,0.258,0.017,0.522,0.056,0.774c0.022,0.219,0.067,0.427,0.124,0.634C19.095,23.218,6.728,37.661,1.605,56.116l3.709,2.048
			c1.661-1.829,3.681-2.985,5.97-3.299c0.416-0.062,0.831-0.09,1.246-0.09c2.054,0,4.096,0.702,5.982,2.02l1.667,1.167l1.279-1.582
			c1.739-2.138,3.917-3.484,6.414-3.838c0.41-0.057,0.825-0.084,1.246-0.084c2.06,0,4.096,0.702,5.993,2.02l1.655,1.173l1.285-1.577
			c1.268-1.554,2.94-2.732,5.51-3.316l7.771,53.733c-13.551,2.521-22.967,7.345-23.09,7.401c-0.897,0.455-1.363,1.471-1.122,2.445
			c0.236,0.977,1.111,1.661,2.11,1.661h75.365c1.005,0,1.88-0.685,2.115-1.661c0.235-0.98-0.226-1.99-1.123-2.445
			c-0.104-0.045-7.183-3.664-17.854-6.273l13.435-24.459c0.196,0.342,0.337,0.713,0.466,1.16l0.521,2.115l2.109-0.526
			c0.584-0.146,1.155-0.214,1.706-0.214c0.976,0,1.867,0.226,2.688,0.68c1.273,0.719,2.182,1.896,2.703,3.502l0.623,1.919
			l1.965-0.478c0.578-0.141,1.145-0.207,1.693-0.207c0.978,0,1.881,0.219,2.717,0.679c1.459,0.825,2.457,2.301,2.896,4.292
			l4.287-0.174c0.247-1.936,0.364-3.85,0.364-5.734C125.916,77.482,121.949,67.637,114.307,61.503z M40.597,16.36
			c0.067-0.011,0.112-0.011,0.157-0.011l0,0c0.488,0,0.948,0.381,1.016,0.897c0.006,0.034,0.006,0.073,0.006,0.118
			c0.005,0.224-0.107,0.499-0.387,0.763l-0.5,0.455l-0.606-0.326c-0.371-0.219-0.528-0.438-0.567-0.718
			c-0.011-0.073-0.017-0.118-0.017-0.163C39.7,16.888,40.081,16.428,40.597,16.36z M35.985,49.916
			c-2.11-1.145-4.444-1.807-6.868-1.807c-0.612,0-1.234,0.04-1.863,0.124c-3.053,0.432-5.746,1.891-7.878,3.984
			c-2.11-1.139-4.433-1.795-6.846-1.79c-0.606,0-1.234,0.04-1.857,0.129c-0.999,0.134-1.964,0.387-2.879,0.729
			c6.015-15.403,17.575-26.406,31.85-28.971l1.386-0.252l2.003-0.163c0.993-0.084,1.986-0.123,2.974-0.123
			c13.254-0.011,26.031,7.334,35.228,19.583c-0.764-0.135-1.549-0.202-2.34-0.202c-0.611,0-1.229,0.04-1.856,0.129
			c-3.06,0.426-5.758,1.891-7.896,3.984c-2.1-1.139-4.428-1.801-6.841-1.801c-0.617,0-1.246,0.045-1.874,0.135
			c-3.019,0.416-5.688,1.863-7.816,3.922c-1.739-0.977-3.731-1.498-5.92-1.481c-0.825,0-1.689,0.062-2.592,0.19
			C40.709,46.695,37.994,48.047,35.985,49.916z M93.141,111.65H40.687c3.209-1.026,7.037-2.055,11.268-2.856l0.028,0.213
			l4.304-0.622l-0.045-0.285c3.389-0.467,6.969-0.759,10.673-0.759c10.089,0,19.303,2.109,25.976,4.229
			C92.973,111.596,93.057,111.622,93.141,111.65z M120.467,85.99c-1.504-0.842-3.164-1.229-4.803-1.229c-0.012,0-0.018,0-0.021,0
			c-0.293,0-0.572,0.012-0.865,0.033c-0.887-1.729-2.221-3.227-3.994-4.214c-1.503-0.849-3.17-1.24-4.813-1.24
			c-0.274,0-0.545,0.013-0.813,0.033c-0.836-1.608-2.233-2.962-4.057-3.944c-1.752-0.976-3.535-1.447-5.23-1.441
			c-0.145,0-0.291,0.006-0.443,0.012c-0.886-1.738-2.227-3.243-4.006-4.242c-1.521-0.842-3.182-1.24-4.831-1.234
			c-0.286,0-0.571,0.013-0.858,0.033c-0.893-1.728-2.229-3.215-3.994-4.208c-0.17-0.096-0.344-0.18-0.512-0.264
			c5.051-2.834,10.394-4.326,15.486-4.32c3.822,0,7.508,0.824,10.908,2.547l0.797,0.41l1.1,0.695
			c7.375,4.681,11.621,13.248,12.01,23.259C121.197,86.428,120.844,86.197,120.467,85.99z"/>
	</g>
</g>
<g id="Calque_3">
	<g>
		<path fill="none" stroke="#FF0000" stroke-width="5" stroke-linecap="round" stroke-linejoin="round" stroke-miterlimit="10" d="
			M11.153,51.411c3.714,0,6.925,2.125,8.504,5.222c1.09-4.074,4.796-7.079,9.214-7.079c3.714,0,6.925,2.125,8.504,5.222
			c1.09-4.074,4.796-7.079,9.214-7.079c3.714,0,6.925,2.125,8.504,5.222c1.09-4.074,4.796-7.079,9.214-7.079
			c3.714,0,6.925,2.126,8.503,5.223c1.09-4.075,4.795-7.08,9.213-7.08c0.955,0,1.875,0.144,2.744,0.405
			c-6.716-14.75-21.574-25.01-38.837-25.01c-21.08,0-38.578,15.292-42.034,35.386C5.647,52.714,8.246,51.411,11.153,51.411z"/>
	</g>
	
		<line fill="none" stroke="#FF0000" stroke-width="5" stroke-linecap="round" stroke-linejoin="round" stroke-miterlimit="10" x1="44.332" y1="47.971" x2="55.836" y2="114.605"/>
	<g>
		<path fill="none" stroke="#FF0000" stroke-width="5" stroke-linecap="round" stroke-linejoin="round" stroke-miterlimit="10" d="
			M117.702,85.609c-2.173-0.662-4.431,0.011-5.904,1.539c0.089-2.576-1.544-4.994-4.128-5.781c-2.172-0.661-4.428,0.009-5.902,1.539
			c0.088-2.577-1.543-4.995-4.127-5.782c-2.172-0.662-4.43,0.009-5.902,1.539c0.088-2.577-1.545-4.995-4.127-5.782
			c-2.174-0.66-4.43,0.01-5.904,1.539c0.089-2.576-1.543-4.995-4.127-5.781c-0.559-0.172-1.121-0.25-1.678-0.252
			c6.558-7.43,17.074-10.782,27.171-7.706c12.327,3.757,19.835,15.818,18.274,28.184C120.689,87.355,119.4,86.129,117.702,85.609z"
			/>
	</g>
	
		<line fill="none" stroke="#FF0000" stroke-width="5" stroke-linecap="round" stroke-linejoin="round" stroke-miterlimit="10" x1="98.911" y1="77.688" x2="80.309" y2="114.605"/>
	
		<line fill="none" stroke="#FF0000" stroke-width="5" stroke-linecap="round" stroke-linejoin="round" stroke-miterlimit="10" x1="27.209" y1="114.605" x2="107.232" y2="114.605"/>
</g>
</svg>
