<?xml version="1.0" encoding="utf-8"?>
<!-- Generator: Adobe Illustrator 16.0.0, SVG Export Plug-In . SVG Version: 6.00 Build 0)  -->
<!DOCTYPE svg PUBLIC "-//W3C//DTD SVG 1.1//EN" "http://www.w3.org/Graphics/SVG/1.1/DTD/svg11.dtd">
<svg version="1.1" id="Calque_1" xmlns="http://www.w3.org/2000/svg" xmlns:xlink="http://www.w3.org/1999/xlink" x="0px" y="0px"
	 width="128px" height="128px" viewBox="0 0 128 128" enable-background="new 0 0 128 128" xml:space="preserve">
<g id="Calque_1_1_">
</g>
<path fill="none" stroke="#FF0000" stroke-width="5" stroke-linecap="round" stroke-linejoin="round" stroke-miterlimit="10" d="
	M114.046,9.771H12.852c-4.418,0-8,3.582-8,8v62.575c0,4.418,3.582,8,8,8h25.571v29.309l25.823-29.309h49.8c4.418,0,8-3.582,8-8
	V17.771C122.046,13.353,118.464,9.771,114.046,9.771z"/>
<path fill="none" stroke="#FF0000" stroke-width="5" stroke-linecap="round" stroke-linejoin="round" stroke-miterlimit="10" d="
	M67.225,22.428l4.396,13.528c0.453,1.397,1.756,2.344,3.225,2.344H89.07c3.285,0,4.65,4.203,1.992,6.133l-11.508,8.361
	c-1.188,0.863-1.686,2.395-1.232,3.791l4.396,13.529c1.016,3.123-2.561,5.721-5.217,3.791l-11.51-8.361
	c-1.188-0.863-2.797-0.863-3.985,0l-11.509,8.361c-2.657,1.93-6.232-0.668-5.218-3.791l4.396-13.529
	c0.453-1.396-0.044-2.928-1.232-3.791l-11.508-8.361c-2.657-1.93-1.291-6.133,1.992-6.133h14.226c1.469,0,2.771-0.946,3.225-2.344
	l4.396-13.528C61.791,19.304,66.209,19.304,67.225,22.428z"/>
</svg>
