<?xml version="1.0" encoding="utf-8"?>
<!-- Generator: Adobe Illustrator 16.0.0, SVG Export Plug-In . SVG Version: 6.00 Build 0)  -->
<!DOCTYPE svg PUBLIC "-//W3C//DTD SVG 1.1//EN" "http://www.w3.org/Graphics/SVG/1.1/DTD/svg11.dtd">
<svg version="1.1" id="Calque_2" xmlns="http://www.w3.org/2000/svg" xmlns:xlink="http://www.w3.org/1999/xlink" x="0px" y="0px"
	 width="128px" height="128px" viewBox="0 0 128 128" enable-background="new 0 0 128 128" xml:space="preserve">
<g>
	<path fill="none" stroke="#FF0000" stroke-width="5" stroke-miterlimit="10" d="M18.036,64v56.193c0,2.762,2.239,5,5,5h77.479
		c2.762,0,5-2.238,5-5V27.5H85.168c-2.762,0-5-2.238-5-5V3.235H64.5"/>
</g>
<line fill="none" stroke="#FF0000" stroke-width="5" stroke-linecap="round" stroke-linejoin="round" stroke-miterlimit="10" x1="81.841" y1="3.235" x2="105.516" y2="26.224"/>
<g>
	<path fill="none" stroke="#FF0000" stroke-width="5" stroke-linecap="round" stroke-linejoin="round" stroke-miterlimit="10" d="
		M74.061,78.271c0-3.886-3.184-7.069-7.069-7.069h-10.43c-3.888,0-7.069,3.184-7.069,7.069v4.169c0,3.889,3.181,7.069,7.069,7.069
		h10.43c3.886,0,7.069,3.18,7.069,7.071v4.166c0,3.892-3.184,7.072-7.069,7.072h-10.43c-3.888,0-7.069-3.181-7.069-7.072"/>
	
		<line fill="none" stroke="#FF0000" stroke-width="5" stroke-linecap="round" stroke-linejoin="round" stroke-miterlimit="10" x1="61.776" y1="71.202" x2="61.776" y2="64.001"/>
	
		<line fill="none" stroke="#FF0000" stroke-width="5" stroke-linecap="round" stroke-linejoin="round" stroke-miterlimit="10" x1="61.776" y1="115.02" x2="61.776" y2="107.819"/>
</g>
<g id="Calque_3">
	<g>
		<path fill="none" stroke="#FF0000" stroke-width="5" stroke-linecap="round" stroke-linejoin="round" stroke-miterlimit="10" d="
			M56.654,55.605c0,0.578-0.469,1.049-1.049,1.049H5.548c-0.579,0-1.048-0.471-1.048-1.049V5.548C4.5,4.969,4.969,4.5,5.548,4.5
			h50.058c0.58,0,1.049,0.469,1.049,1.048V55.605L56.654,55.605z"/>
		<circle fill="#FF0000" cx="16.424" cy="17.481" r="3.704"/>
		<line fill="none" stroke="#FF0000" stroke-width="4" stroke-miterlimit="10" x1="24.219" y1="17.481" x2="46.23" y2="17.481"/>
		<circle fill="#FF0000" cx="16.424" cy="30.577" r="3.704"/>
		<line fill="none" stroke="#FF0000" stroke-width="4" stroke-miterlimit="10" x1="24.219" y1="30.578" x2="46.23" y2="30.578"/>
		<circle fill="#FF0000" cx="16.424" cy="43.673" r="3.704"/>
		<line fill="none" stroke="#FF0000" stroke-width="4" stroke-miterlimit="10" x1="24.219" y1="43.672" x2="46.23" y2="43.672"/>
	</g>
</g>
</svg>
