<?xml version="1.0" encoding="utf-8"?>
<!-- Generator: Adobe Illustrator 16.0.0, SVG Export Plug-In . SVG Version: 6.00 Build 0)  -->
<!DOCTYPE svg PUBLIC "-//W3C//DTD SVG 1.1//EN" "http://www.w3.org/Graphics/SVG/1.1/DTD/svg11.dtd">
<svg version="1.1" id="Calque_1" xmlns="http://www.w3.org/2000/svg" xmlns:xlink="http://www.w3.org/1999/xlink" x="0px" y="0px"
	 width="128px" height="128px" viewBox="0 0 128 128" enable-background="new 0 0 128 128" xml:space="preserve">
<g id="Calque_3" display="none">
	<g display="inline">
		<g>
			
				<circle fill="none" stroke="#FF0000" stroke-width="5" stroke-linecap="round" stroke-linejoin="round" stroke-miterlimit="10" cx="59.272" cy="69.415" r="7.812"/>
			
				<circle fill="none" stroke="#FF0000" stroke-width="5" stroke-linecap="round" stroke-linejoin="round" stroke-miterlimit="10" cx="59.272" cy="69.415" r="7.812"/>
			
				<circle fill="none" stroke="#FF0000" stroke-width="5" stroke-linecap="round" stroke-linejoin="round" stroke-miterlimit="10" cx="59.273" cy="69.415" r="22.62"/>
			
				<circle fill="none" stroke="#FF0000" stroke-width="5" stroke-linecap="round" stroke-linejoin="round" stroke-miterlimit="10" cx="59.273" cy="69.415" r="38.346"/>
			
				<circle fill="none" stroke="#FF0000" stroke-width="5" stroke-linecap="round" stroke-linejoin="round" stroke-miterlimit="10" cx="59.273" cy="69.415" r="54.632"/>
		</g>
		
			<line fill="none" stroke="#FF0000" stroke-width="5" stroke-linecap="round" stroke-linejoin="round" stroke-miterlimit="10" x1="113.904" y1="16.864" x2="124.872" y2="16.864"/>
		
			<line fill="none" stroke="#FF0000" stroke-width="5" stroke-linecap="round" stroke-linejoin="round" stroke-miterlimit="10" x1="113.904" y1="16.864" x2="113.904" y2="5.898"/>
		
			<line fill="none" stroke="#FF0000" stroke-width="5" stroke-linecap="round" stroke-linejoin="round" stroke-miterlimit="10" x1="59.272" y1="69.415" x2="113.904" y2="16.864"/>
	</g>
</g>
<g id="Calque_2_1_" display="none">
	<g display="inline">
		<path fill="none" stroke="#FF0000" stroke-width="5" stroke-linecap="round" stroke-linejoin="round" stroke-miterlimit="10" d="
			M211.38,143.066v-38.012h5.935V94.807H173.5v10.248h5.932v38.012c-13.17,6.058-22.313,19.354-22.313,34.802
			c0,21.146,17.146,38.294,38.294,38.294c21.146,0,38.29-17.146,38.29-38.294C233.697,162.421,224.55,149.121,211.38,143.066z"/>
		<path fill="none" stroke="#FF0000" stroke-width="5" stroke-linecap="round" stroke-linejoin="round" stroke-miterlimit="10" d="
			M226.303,177.277c0,17.063-13.832,30.896-30.895,30.896c-17.067,0-30.898-13.833-30.898-30.896c0,0,5.887-20.311,32.211-9.277
			C223.044,179.032,226.303,177.277,226.303,177.277z"/>
		
			<circle fill="none" stroke="#FF0000" stroke-width="5" stroke-linecap="round" stroke-linejoin="round" stroke-miterlimit="10" cx="213.662" cy="160.402" r="4.315"/>
	</g>
</g>
<g id="Calque_5" display="none">
</g>
<polygon fill="#D5D5D5" points="5.018,43.352 4.842,43.655 4.492,43.655 4.316,43.352 4.492,43.048 4.842,43.048 "/>
<path fill="none" stroke="#FF0000" stroke-width="5" stroke-miterlimit="10" d="M88.911,51.954V9.539c0-1.154-0.938-2.09-2.097-2.09
	c-1.146,0-2.082,0.936-2.082,2.09v5.437c0,3.347-2.717,5.068-6.061,5.068c-3.348,0-6.066-1.722-6.066-5.068V9.539
	c0-1.154-0.938-2.09-2.092-2.09c-1.147,0-2.082,0.936-2.082,2.09v5.437c0,3.347-2.72,5.068-6.06,5.068
	c-3.349,0-6.071-1.722-6.071-5.068V9.539c0-1.154-0.938-2.09-2.096-2.09c-1.144,0-2.076,0.936-2.076,2.09v14.972"/>
<g>
	<path fill="none" stroke="#FF0000" stroke-width="5" stroke-miterlimit="10" d="M78.982,124.469
		c0.209,0.026,0.418,0.063,0.629,0.063h27.277c1.309,0,2.616-0.501,3.614-1.499c0.998-0.999,1.496-2.309,1.496-3.617V67.701
		c1.021,0,2.036-0.389,2.813-1.165c0.775-0.777,1.166-1.795,1.166-2.813c0-1.019-0.391-2.036-1.166-2.813
		c-0.775-0.777-1.795-1.166-2.813-1.166H74.498c-1.018,0-2.035,0.389-2.813,1.166c-0.777,0.776-1.166,1.794-1.166,2.813
		c0,1.018,0.389,2.035,1.166,2.813c0.774,0.776,1.795,1.165,2.813,1.165v26.005"/>
	<path fill="none" stroke="#FF0000" stroke-width="5" stroke-linecap="round" stroke-linejoin="round" stroke-miterlimit="10" d="
		M74.498,119.413V93.706l-14.64-14.642V42.56c3.127,0,5.683-2.557,5.683-5.684c0-3.125-2.556-5.683-5.683-5.683H37.127
		c-3.125,0-5.682,2.558-5.682,5.683c0,3.127,2.557,5.684,5.682,5.684v36.506h0.002l-26.061,26.061
		c-3.154,3.152-4.277,8.012-2.465,12.387s6.041,7.02,10.501,7.02h58.778c0.369,0,0.735-0.024,1.101-0.063
		c-1.09-0.136-2.147-0.602-2.985-1.438C74.996,122.031,74.498,120.725,74.498,119.413z"/>
	<path fill="none" stroke="#FF0000" stroke-width="5" stroke-miterlimit="10" d="M74.498,93.706v25.707
		c0,1.312,0.498,2.618,1.497,3.616c0.838,0.839,1.897,1.305,2.987,1.438"/>
</g>
</svg>
