<?xml version="1.0" encoding="utf-8"?>
<!-- Generator: Adobe Illustrator 16.0.0, SVG Export Plug-In . SVG Version: 6.00 Build 0)  -->
<!DOCTYPE svg PUBLIC "-//W3C//DTD SVG 1.1//EN" "http://www.w3.org/Graphics/SVG/1.1/DTD/svg11.dtd">
<svg version="1.1" xmlns="http://www.w3.org/2000/svg" xmlns:xlink="http://www.w3.org/1999/xlink" x="0px" y="0px" width="128px"
	 height="128px" viewBox="0 0 128 128" enable-background="new 0 0 128 128" xml:space="preserve">
<g id="Calque_2">
	<g>
		<g>
			<path fill="none" stroke="#FF0000" stroke-width="5" stroke-linecap="round" stroke-linejoin="round" d="M107.482,103.738
				c-10.732,12.137-26.422,19.789-43.897,19.789c-32.352,0-58.58-26.227-58.58-58.58c0-32.353,26.228-58.58,58.58-58.58
				c22.028,0,41.219,12.16,51.223,30.134"/>
			<g>
				<polygon fill="#FF0000" points="107.916,37.644 118.718,45.1 119.775,32.02 				"/>
			</g>
		</g>
	</g>
</g>
<g id="Calque_3">
	<g>
		<g>
			<path fill="none" stroke="#FF0000" stroke-width="5" stroke-miterlimit="10" d="M63.026,45.101
				c-16.104,0-30.156,8.753-37.683,21.756C32.87,79.86,46.921,88.615,63.026,88.615c16.104,0,30.155-8.757,37.682-21.759
				C93.182,53.854,79.13,45.101,63.026,45.101z M75.06,78.896c-3.08,3.083-7.341,4.98-12.033,4.98
				c-9.403,0-17.018-7.624-17.018-17.015c0-7.093,4.339-13.173,10.516-15.726c1.995-0.833,4.196-1.294,6.502-1.294
				c9.402,0,17.018,7.621,17.018,17.017c0,4.7-1.902,8.953-4.982,12.033"/>
		</g>
		<circle fill="#FF0000" cx="63.025" cy="66.86" r="7.579"/>
	</g>
</g>
</svg>
