<?xml version="1.0" encoding="utf-8"?>
<!-- Generator: Adobe Illustrator 16.0.0, SVG Export Plug-In . SVG Version: 6.00 Build 0)  -->
<!DOCTYPE svg PUBLIC "-//W3C//DTD SVG 1.1//EN" "http://www.w3.org/Graphics/SVG/1.1/DTD/svg11.dtd">
<svg version="1.1" id="Calque_1" xmlns="http://www.w3.org/2000/svg" xmlns:xlink="http://www.w3.org/1999/xlink" x="0px" y="0px"
	 width="128px" height="128px" viewBox="0 0 128 128" enable-background="new 0 0 128 128" xml:space="preserve">
<path fill="none" stroke="#FF0000" stroke-width="5" stroke-miterlimit="10" d="M125.778,63.999
	c0,33.566-27.212,60.779-60.776,60.779c-33.566,0-60.779-27.213-60.779-60.779c0-33.563,27.213-60.776,60.779-60.776
	C98.566,3.223,125.778,30.437,125.778,63.999z"/>
<path fill="none" stroke="#FF0000" stroke-width="5" stroke-linecap="round" stroke-linejoin="round" stroke-miterlimit="10" d="
	M74.01,41.741c-2.806-1.041-5.841-1.61-9.008-1.61c-3.68,0-7.181,0.767-10.351,2.147L39.718,21.394
	c7.462-4.236,16.091-6.654,25.284-6.654c8.155,0,15.868,1.901,22.715,5.288c0.54,0.268,1.076,0.544,1.604,0.83L74.01,41.741z"/>
<path fill="none" stroke="#FF0000" stroke-width="5" stroke-linecap="round" stroke-linejoin="round" stroke-miterlimit="10" d="
	M90.807,63.692c0.07,0.775,0.106,1.56,0.106,2.353h25.395c0-15.386-6.772-29.189-17.499-38.595L83.177,47.578
	c0.499,0.491,0.979,1.003,1.437,1.532"/>
<path fill="none" stroke="#FF0000" stroke-width="5" stroke-linecap="round" stroke-linejoin="round" stroke-miterlimit="10" d="
	M39.086,66.045c0-7.032,2.8-13.409,7.345-18.077L31.34,27.324C20.528,36.731,13.695,50.59,13.695,66.045H39.086z"/>
<path fill="none" stroke="#FF0000" stroke-width="5" stroke-linecap="round" stroke-linejoin="round" stroke-miterlimit="10" d="
	M73.791,72.521l21.253-19.89l-30.116,3.656c-5.822,0-10.541,4.719-10.541,10.541s4.719,10.542,10.541,10.542
	c1.838,0,3.565-0.474,5.071-1.302l0,0l0.002-0.001C71.543,75.221,72.842,73.996,73.791,72.521z"/>
</svg>
