<?xml version="1.0" encoding="utf-8"?>
<!-- Generator: Adobe Illustrator 16.0.0, SVG Export Plug-In . SVG Version: 6.00 Build 0)  -->
<!DOCTYPE svg PUBLIC "-//W3C//DTD SVG 1.1//EN" "http://www.w3.org/Graphics/SVG/1.1/DTD/svg11.dtd">
<svg version="1.1" id="Calque_1" xmlns="http://www.w3.org/2000/svg" xmlns:xlink="http://www.w3.org/1999/xlink" x="0px" y="0px"
	 width="128px" height="128px" viewBox="0 0 128 128" enable-background="new 0 0 128 128" xml:space="preserve">
<g id="Calque_1_1_" display="none">
	<g id="Calque_3" display="inline">
		<g>
			<g>
				
					<circle fill="none" stroke="#FF0000" stroke-width="5" stroke-linecap="round" stroke-linejoin="round" stroke-miterlimit="10" cx="64.506" cy="24.244" r="12.596"/>
				
					<polyline fill="none" stroke="#FF0000" stroke-width="5" stroke-linecap="round" stroke-linejoin="round" stroke-miterlimit="10" points="
					78.852,43.791 85.984,46.863 82.417,83.751 73.822,83.751 73.822,125.018 68.609,125.018 				"/>
				
					<polyline fill="none" stroke="#FF0000" stroke-width="5" stroke-linecap="round" stroke-linejoin="round" stroke-miterlimit="10" points="
					50.163,43.791 43.026,46.863 46.594,83.751 55.188,83.751 55.188,125.018 60.401,125.018 				"/>
			</g>
			<g>
				
					<circle fill="none" stroke="#FF0000" stroke-width="5" stroke-linecap="round" stroke-linejoin="round" stroke-miterlimit="10" cx="94.719" cy="17.01" r="12.597"/>
				
					<polyline fill="none" stroke="#FF0000" stroke-width="5" stroke-linecap="round" stroke-linejoin="round" stroke-miterlimit="10" points="
					85.4,92.741 85.4,117.783 90.615,117.783 				"/>
				
					<polyline fill="none" stroke="#FF0000" stroke-width="5" stroke-linecap="round" stroke-linejoin="round" stroke-miterlimit="10" points="
					109.063,36.558 116.197,39.628 112.632,76.52 104.035,76.52 104.035,117.783 98.822,117.783 				"/>
			</g>
			<g>
				
					<circle fill="none" stroke="#FF0000" stroke-width="5" stroke-linecap="round" stroke-linejoin="round" stroke-miterlimit="10" cx="34.292" cy="17.01" r="12.597"/>
				
					<polyline fill="none" stroke="#FF0000" stroke-width="5" stroke-linecap="round" stroke-linejoin="round" stroke-miterlimit="10" points="
					43.609,92.741 43.609,117.783 38.397,117.783 				"/>
				
					<polyline fill="none" stroke="#FF0000" stroke-width="5" stroke-linecap="round" stroke-linejoin="round" stroke-miterlimit="10" points="
					19.949,36.558 12.813,39.628 16.381,76.52 24.976,76.52 24.976,117.783 30.188,117.783 				"/>
			</g>
		</g>
	</g>
	<g id="Calque_2" display="inline">
	</g>
</g>
<path fill="none" stroke="#FF0000" stroke-width="5" stroke-linecap="round" stroke-linejoin="round" stroke-miterlimit="10" d="
	M85.35,58.461c0,5.793-4.147,10.491-9.264,10.491H44.078l-22.735,21.26l-0.377-21.26h-7.74c-5.115,0-9.262-4.698-9.262-10.491
	V16.965c0-5.793,4.146-10.49,9.262-10.49h62.861c5.115,0,9.263,4.696,9.263,10.49V58.461L85.35,58.461z"/>
<line fill="none" stroke="#FF0000" stroke-width="5" stroke-linecap="round" stroke-linejoin="round" stroke-miterlimit="10" x1="21.676" y1="27.866" x2="52.279" y2="27.866"/>
<line fill="none" stroke="#FF0000" stroke-width="5" stroke-linecap="round" stroke-linejoin="round" stroke-miterlimit="10" x1="22.396" y1="42.843" x2="62.517" y2="42.843"/>
<path fill="none" stroke="#FF0000" stroke-width="5" stroke-linecap="round" stroke-linejoin="round" stroke-miterlimit="10" d="
	M49.616,78.702v12.216c0,5.991,4.104,10.85,9.164,10.85H84.5L107.077,124l0.372-22.232h7.656c5.063,0,9.164-4.857,9.164-10.85
	V54.651c0-5.991-4.103-10.847-9.164-10.847H94.219"/>
<g id="Calque_4" display="none">
	
		<circle display="inline" fill="none" stroke="#E42320" stroke-width="5" stroke-linecap="round" stroke-linejoin="round" stroke-miterlimit="10" cx="64.035" cy="73.591" r="9.893"/>
	
		<circle display="inline" fill="none" stroke="#E42320" stroke-width="5" stroke-linecap="round" stroke-linejoin="round" stroke-miterlimit="10" cx="25.664" cy="92.796" r="9.892"/>
	
		<circle display="inline" fill="none" stroke="#E42320" stroke-width="5" stroke-linecap="round" stroke-linejoin="round" stroke-miterlimit="10" cx="102.359" cy="92.796" r="9.892"/>
	
		<path display="inline" fill="none" stroke="#E42320" stroke-width="5" stroke-linecap="round" stroke-linejoin="round" stroke-miterlimit="10" d="
		M8.485,122.777v-9.139c0-3.209,2.514-5.812,5.615-5.812h23.319c3.101,0,5.615,2.603,5.615,5.812v9.432"/>
	
		<path display="inline" fill="none" stroke="#E42320" stroke-width="5" stroke-linecap="round" stroke-linejoin="round" stroke-miterlimit="10" d="
		M46.527,103.725v-9.138c0-3.21,2.514-5.812,5.614-5.812h23.32c3.102,0,5.615,2.602,5.615,5.812v9.431"/>
	
		<path display="inline" fill="none" stroke="#E42320" stroke-width="5" stroke-linecap="round" stroke-linejoin="round" stroke-miterlimit="10" d="
		M85.086,123.658v-10.018c0-3.211,2.514-5.813,5.614-5.813h23.319c3.103,0,5.615,2.602,5.615,5.813v10.019"/>
</g>
<g id="Calque_3_1_" display="none">
	
		<path display="inline" fill="none" stroke="#E42320" stroke-width="5" stroke-linecap="round" stroke-linejoin="round" stroke-miterlimit="10" d="
		M21.276,78.482c-3.97-7.104-6.232-15.292-6.232-24.007c0-27.223,22.068-49.291,49.291-49.291c27.224,0,49.291,22.067,49.291,49.291
		c0,8.769-2.291,17.005-6.306,24.139"/>
	
		<polyline display="inline" fill="none" stroke="#E42320" stroke-width="5" stroke-linecap="round" stroke-linejoin="round" stroke-miterlimit="10" points="
		48.794,28.674 64.334,54.474 75.762,47.434 	"/>
</g>
</svg>
