<?xml version="1.0" encoding="utf-8"?>
<!-- Generator: Adobe Illustrator 16.0.0, SVG Export Plug-In . SVG Version: 6.00 Build 0)  -->
<!DOCTYPE svg PUBLIC "-//W3C//DTD SVG 1.1//EN" "http://www.w3.org/Graphics/SVG/1.1/DTD/svg11.dtd">
<svg version="1.1"
	 id="Layer_1" xmlns:cc="http://creativecommons.org/ns#" xmlns:dc="http://purl.org/dc/elements/1.1/" xmlns:inkscape="http://www.inkscape.org/namespaces/inkscape" xmlns:rdf="http://www.w3.org/1999/02/22-rdf-syntax-ns#" xmlns:sodipodi="http://sodipodi.sourceforge.net/DTD/sodipodi-0.dtd" xmlns:svg="http://www.w3.org/2000/svg" inkscape:version="1.0 (4035a4fb49, 2020-05-01)" sodipodi:docname="iconTicket.svg"
	 xmlns="http://www.w3.org/2000/svg" xmlns:xlink="http://www.w3.org/1999/xlink" x="0px" y="0px" width="128px" height="128px"
	 viewBox="0 0 128 128" enable-background="new 0 0 128 128" xml:space="preserve">
<sodipodi:namedview  id="namedview27" inkscape:zoom="14.75" bordercolor="#666666" guidetolerance="10" objecttolerance="10" borderopacity="1" showgrid="false" inkscape:cx="22.296444" pagecolor="#ffffff" inkscape:cy="24.881783" gridtolerance="10" inkscape:snap-global="false" inkscape:document-rotation="0" inkscape:window-width="1920" inkscape:window-height="1017" inkscape:pageopacity="0" inkscape:window-y="-8" inkscape:window-maximized="1" inkscape:pageshadow="2" inkscape:window-x="-8" inkscape:current-layer="Layer_1">
	</sodipodi:namedview>
<g>
	<path fill="none" stroke="#FF0000" stroke-width="5" stroke-linecap="round" stroke-linejoin="round" stroke-miterlimit="10" d="
		M85.105,35.492v9.225c0,11.341-9.279,20.622-20.623,20.622l0,0c-11.341,0-20.62-9.281-20.62-20.622V26.269
		c0-11.341,9.279-20.621,20.62-20.621l0,0c11.343,0,20.623,9.28,20.623,20.621V35.492z"/>
	<path fill="none" stroke="#FF0000" stroke-width="5" stroke-linecap="round" stroke-linejoin="round" stroke-miterlimit="10" d="
		M70.014,70.762l5.815,1.633l9.813,2.754c4.447,1.248,8.682,3.244,12.313,6.1c3.118,2.452,5.954,5.635,5.954,9.1v19.057
		c0,7.701-6.303,14.003-14.002,14.003H37.986c-7.701,0-14.002-6.302-14.002-14.003V90.348c0-3.466,2.836-6.647,5.954-9.101
		c3.632-2.854,7.866-4.853,12.315-6.101l9.812-2.754l6.281-1.762"/>
	
		<line fill="none" stroke="#FF0000" stroke-width="5" stroke-linecap="round" stroke-linejoin="round" stroke-miterlimit="10" x1="58.345" y1="70.632" x2="58.345" y2="65.339"/>
	
		<line fill="none" stroke="#FF0000" stroke-width="5" stroke-linecap="round" stroke-linejoin="round" stroke-miterlimit="10" x1="70.014" y1="70.762" x2="70.014" y2="65.339"/>
	<path fill="none" stroke="#FF0000" stroke-width="5" stroke-linecap="round" stroke-linejoin="round" stroke-miterlimit="10" d="
		M75.829,72.395c0.147,1.025,0.224,2.09,0.224,3.176c0,9.146-5.418,16.563-12.108,16.563c-6.684,0-12.104-7.417-12.104-16.563
		c0-1.086,0.076-2.149,0.224-3.176"/>
	<path fill="none" stroke="#FF0000" stroke-width="5" stroke-linecap="round" stroke-linejoin="round" stroke-miterlimit="10" d="
		M43.864,26.161c3.778-4.083,9.054-8.522,14.007-7.39c3.941,0.901,4.822,4.673,9.044,6.617c3.353,1.545,8.37,2.297,17.806-3.091"/>
</g>
</svg>
