<?xml version="1.0" encoding="utf-8"?>
<!-- Generator: Adobe Illustrator 16.0.0, SVG Export Plug-In . SVG Version: 6.00 Build 0)  -->
<!DOCTYPE svg PUBLIC "-//W3C//DTD SVG 1.1//EN" "http://www.w3.org/Graphics/SVG/1.1/DTD/svg11.dtd">
<svg version="1.1" id="Calque_1" xmlns="http://www.w3.org/2000/svg" xmlns:xlink="http://www.w3.org/1999/xlink" x="0px" y="0px"
	 width="128px" height="128px" viewBox="0 0 128 128" enable-background="new 0 0 128 128" xml:space="preserve">
<g id="Calque_3">
	<path id="path17" fill="#FF0000" d="M71.953,5.063c0.07,0.052,0.158,0.127,0.23,0.2l0.035,4.354l0.047,5.598l0.028,3.637
		l3.472,1.091l1.76,0.554c2.345,0.737,4.604,1.665,6.916,2.836c2.617,1.326,3.32,1.682,4.642,1.682c2.188,0,2.584-0.394,7.431-5.214
		c1.104-1.099,2.561-2.547,3.266-3.134h0.053h0.01c0.898,0.752,2.874,2.746,5.477,5.371l0.27,0.272
		c2.795,2.822,4.919,4.965,5.709,5.933c-0.607,0.724-2.042,2.163-3.135,3.259l-3.785,3.797l-2.535,2.542l1.6,3.214l1.222,2.452
		c1.233,2.48,2.081,4.558,2.832,6.947l0.553,1.761l1.091,3.473l3.639,0.03l5.602,0.047l4.354,0.035
		c0.072,0.073,0.148,0.16,0.201,0.232v7.953v7.955c-0.053,0.072-0.129,0.16-0.201,0.232l-4.362,0.035l-5.604,0.047l-3.678,0.031
		l-1.064,3.52l-0.396,1.311c-0.736,2.432-2.313,6.137-3.665,8.609l-0.563,1.028l-1.799,3.282l2.644,2.65l3.853,3.862
		c1.532,1.538,2.578,2.646,3.143,3.271c-0.762,0.9-2.854,2.998-5.614,5.764l-0.218,0.218c-2.668,2.671-4.699,4.705-5.635,5.487
		c-0.724-0.605-2.15-2.03-3.238-3.117c-4.938-4.919-5.233-5.214-7.412-5.214c-1.281,0-1.826,0.271-4.854,1.771
		c-2.529,1.256-4.365,2.006-6.773,2.766l-1.711,0.539l-3.467,1.092l-0.029,3.635l-0.047,5.602l-0.035,4.354
		c-0.053,0.053-0.112,0.105-0.168,0.15c-0.926,0.05-3.409,0.058-7.506,0.07l-1.56,0.002c-3.738,0-6.146-0.033-6.939-0.063
		c-0.067-0.031-0.146-0.084-0.208-0.141l-0.036-4.389l-0.045-5.604l-0.029-3.68l-3.52-1.065l-1.315-0.397
		c-2.381-0.721-5.876-2.205-8.496-3.609l-1.18-0.633l-3.268-1.756l-2.627,2.616l-3.865,3.851c-1.537,1.529-2.644,2.578-3.268,3.143
		c-0.952-0.792-3.237-3.082-5.834-5.686l-0.183-0.185c-2.644-2.647-4.66-4.669-5.446-5.604c0.614-0.73,2.048-2.168,3.141-3.267
		l3.788-3.801l2.536-2.544l-1.602-3.215l-1.22-2.449c-1.243-2.495-2.091-4.57-2.836-6.941l-0.553-1.763l-1.09-3.472l-3.639-0.03
		L9.64,72.206L5.28,72.17c-0.073-0.072-0.148-0.159-0.201-0.23v-7.957v-7.954c0.052-0.072,0.127-0.159,0.201-0.232l4.356-0.035
		l5.6-0.046l3.655-0.03l1.081-3.491l0.476-1.536c0.666-2.152,1.964-5.3,3.02-7.32l1.103-2.108l1.695-3.241l-2.574-2.597
		l-3.812-3.846c-1.183-1.193-2.614-2.638-3.195-3.343c0-0.015,0-0.031,0-0.047V28.15c0.752-0.899,2.75-2.879,5.38-5.486l0.268-0.265
		c2.719-2.695,4.941-4.898,5.929-5.707c0.727,0.611,2.146,2.027,3.229,3.106c4.331,4.316,5.231,5.214,7.528,5.214
		c1.121,0,2.227-0.346,3.142-0.967c0.244-0.134,0.806-0.43,1.622-0.839c2.104-1.052,4.48-2.015,6.693-2.71l1.762-0.554l3.471-1.092
		l0.029-3.638l0.045-5.596l0.036-4.366c0.068-0.07,0.149-0.142,0.215-0.188h7.972L71.953,5.063 M72.957,0.063h-8.959h-8.96
		l-0.899,0.362c-1.141,0.459-2.353,1.59-2.902,2.708l-0.414,0.845l-0.047,5.598l-0.045,5.598l-1.762,0.554
		c-2.477,0.779-5.084,1.835-7.43,3.008c-1.105,0.554-2.075,1.068-2.154,1.143c-0.078,0.074-0.246,0.136-0.373,0.136
		s-1.926-1.69-3.999-3.756c-4.4-4.386-4.716-4.601-6.783-4.601c-2.157,0-2.204,0.035-9.425,7.192
		c-7.211,7.147-7.122,7.03-7.127,9.297c-0.004,2.148,0.169,2.406,4.644,6.921l3.812,3.846l-1.103,2.108
		c-1.195,2.286-2.613,5.723-3.367,8.161l-0.475,1.535l-5.6,0.046L3.988,50.81l-0.857,0.422c-1.089,0.535-2.248,1.787-2.709,2.93
		l-0.349,0.865v8.959v8.961l0.349,0.865c0.461,1.143,1.62,2.395,2.709,2.93l0.857,0.422l5.598,0.045l5.595,0.047l0.553,1.762
		c0.823,2.619,1.768,4.938,3.131,7.674l1.22,2.449l-3.788,3.801c-4.419,4.435-4.632,4.746-4.632,6.813
		c0,2.188-0.059,2.106,7.123,9.306c6.646,6.658,6.887,6.86,8.573,7.18c0.229,0.043,0.479,0.063,0.739,0.063
		c0.798,0,1.695-0.193,2.385-0.537c0.361-0.179,2.174-1.861,4.472-4.149l3.865-3.853l1.18,0.635c2.923,1.566,6.705,3.172,9.416,3.99
		l1.311,0.397l0.045,5.604l0.047,5.606l0.416,0.849c0.765,1.555,2.377,2.735,4.094,2.997c0.371,0.058,3.656,0.097,7.627,0.097
		c0.515,0,1.04,0,1.571-0.002c8.428-0.026,8.435-0.026,9.298-0.373c1.144-0.459,2.396-1.614,2.932-2.707l0.421-0.856l0.047-5.599
		l0.047-5.6l1.711-0.537c2.64-0.832,4.742-1.688,7.492-3.055c1.385-0.688,2.568-1.25,2.631-1.25c0.063,0,1.811,1.689,3.884,3.756
		c4.379,4.369,4.713,4.602,6.752,4.602c0.009,0,0.019,0,0.026,0c2.215-0.002,2.119,0.07,9.379-7.196
		c6.707-6.718,6.781-6.808,7.105-8.521c0.171-0.904-0.025-2.193-0.479-3.1c-0.178-0.361-1.86-2.176-4.15-4.477l-3.854-3.863
		l0.563-1.028c1.514-2.769,3.23-6.813,4.064-9.563l0.396-1.311l5.604-0.047l5.607-0.045l0.855-0.422
		c1.091-0.535,2.248-1.787,2.709-2.932l0.351-0.863V63.99v-8.96l-0.351-0.865c-0.461-1.143-1.618-2.395-2.709-2.93l-0.855-0.422
		l-5.599-0.045l-5.599-0.047l-0.555-1.761c-0.83-2.641-1.771-4.951-3.126-7.677l-1.22-2.452l3.783-3.797
		c4.408-4.422,4.615-4.728,4.623-6.812c0.012-2.156-0.022-2.2-7.187-9.429c-7.146-7.213-7.024-7.12-9.297-7.124
		c-0.024,0-0.052,0-0.075,0c-2.08,0-2.393,0.225-6.777,4.59c-2.078,2.067-3.834,3.758-3.901,3.758c-0.068,0-1.144-0.514-2.382-1.142
		c-2.545-1.29-5.084-2.331-7.676-3.146l-1.762-0.554l-0.041-5.599L77.17,3.978l-0.421-0.857c-0.535-1.089-1.788-2.248-2.931-2.709
		L72.957,0.063L72.957,0.063z"/>
</g>
<g id="Calque_2">
	<g>
		<path fill="#FF0000" d="M99.86,62.829c-0.02-0.343-0.047-0.69-0.071-1.033c-0.018-0.181-0.027-0.363-0.045-0.545
			C98.1,43.25,82.923,29.099,64.499,29.099v70.803c18.429,0,33.603-14.152,35.245-32.155c0.019-0.177,0.026-0.351,0.045-0.523
			c0.024-0.35,0.052-0.704,0.071-1.054c0.028-0.556,0.04-1.11,0.04-1.669C99.9,63.943,99.889,63.386,99.86,62.829z M75.426,34.12
			c0.214,0.076,0.427,0.16,0.638,0.241c0.272,0.105,0.543,0.208,0.813,0.321c0.21,0.086,0.421,0.183,0.631,0.276
			c0.262,0.115,0.524,0.231,0.782,0.354c0.209,0.1,0.416,0.204,0.624,0.308c0.251,0.126,0.502,0.253,0.752,0.387
			c0.207,0.109,0.41,0.226,0.616,0.339c0.239,0.138,0.483,0.275,0.72,0.418c0.203,0.122,0.402,0.245,0.604,0.371
			c0.233,0.145,0.466,0.294,0.696,0.446c0.198,0.131,0.394,0.265,0.588,0.401c0.227,0.156,0.448,0.312,0.668,0.475
			c0.19,0.141,0.382,0.286,0.572,0.431c0.214,0.164,0.428,0.332,0.638,0.501c0.185,0.15,0.372,0.306,0.555,0.459
			c0.206,0.174,0.41,0.349,0.61,0.529c0.183,0.16,0.355,0.323,0.535,0.486c0.195,0.184,0.393,0.368,0.582,0.556
			c0.175,0.169,0.344,0.34,0.513,0.514c0.187,0.19,0.37,0.383,0.556,0.579c0.165,0.18,0.328,0.356,0.49,0.54
			c0.179,0.198,0.352,0.399,0.524,0.603c0.157,0.186,0.312,0.375,0.468,0.563c0.166,0.205,0.33,0.416,0.491,0.626
			c0.149,0.193,0.299,0.39,0.444,0.584c0.157,0.216,0.31,0.434,0.463,0.652c0.14,0.2,0.28,0.398,0.415,0.604
			c0.147,0.224,0.29,0.449,0.434,0.675c0.129,0.207,0.26,0.413,0.387,0.624c0.136,0.229,0.27,0.463,0.398,0.697
			c0.121,0.213,0.241,0.426,0.356,0.642c0.129,0.237,0.248,0.479,0.371,0.718c0.109,0.218,0.221,0.437,0.326,0.66
			c0.048,0.101,0.092,0.207,0.139,0.312h-9.796c-1.754-7.105-4.848-13.048-8.752-16.945C75.327,34.085,75.377,34.101,75.426,34.12z
			 M66.057,32.338c6.581,1.015,12.155,8.39,14.804,18.674H66.057V32.338z M66.057,54.125h15.501
			c0.616,3.256,0.959,6.746,0.959,10.375c0,3.626-0.343,7.11-0.959,10.37H66.057V54.125z M66.057,96.661V77.98h14.807
			C78.215,88.268,72.638,95.644,66.057,96.661z M93.686,78.3c-0.105,0.222-0.217,0.442-0.326,0.66
			c-0.123,0.241-0.242,0.481-0.371,0.72c-0.115,0.215-0.235,0.427-0.356,0.639c-0.131,0.234-0.263,0.47-0.398,0.7
			c-0.127,0.208-0.258,0.414-0.387,0.621c-0.144,0.227-0.286,0.451-0.434,0.674c-0.135,0.206-0.275,0.405-0.415,0.606
			c-0.153,0.221-0.306,0.437-0.463,0.648c-0.146,0.202-0.292,0.398-0.444,0.592c-0.161,0.211-0.325,0.419-0.492,0.623
			c-0.155,0.19-0.31,0.379-0.467,0.563c-0.173,0.202-0.346,0.403-0.524,0.606c-0.162,0.181-0.325,0.357-0.49,0.537
			c-0.186,0.197-0.366,0.391-0.556,0.578c-0.169,0.175-0.342,0.343-0.513,0.511c-0.189,0.19-0.387,0.375-0.582,0.558
			c-0.18,0.166-0.353,0.33-0.535,0.492c-0.2,0.178-0.404,0.35-0.61,0.527c-0.183,0.156-0.369,0.306-0.555,0.46
			c-0.21,0.168-0.424,0.336-0.638,0.501c-0.19,0.146-0.382,0.29-0.572,0.432c-0.22,0.16-0.444,0.316-0.668,0.476
			c-0.194,0.135-0.39,0.271-0.588,0.401c-0.23,0.152-0.463,0.299-0.696,0.444c-0.198,0.13-0.398,0.25-0.604,0.371
			c-0.239,0.144-0.48,0.283-0.72,0.419c-0.206,0.118-0.409,0.231-0.616,0.34c-0.249,0.134-0.501,0.262-0.752,0.386
			c-0.208,0.106-0.416,0.21-0.624,0.309c-0.258,0.123-0.521,0.239-0.782,0.354c-0.21,0.094-0.421,0.187-0.631,0.275
			c-0.27,0.114-0.54,0.216-0.813,0.322c-0.211,0.08-0.424,0.164-0.638,0.239c-0.049,0.019-0.099,0.035-0.149,0.052
			c3.904-3.896,7.002-9.847,8.754-16.952h9.799C93.779,78.086,93.733,78.192,93.686,78.3z M96.751,65.964
			c-0.011,0.246-0.028,0.492-0.045,0.737c-0.014,0.204-0.029,0.41-0.047,0.616c-0.032,0.361-0.068,0.726-0.114,1.084
			c-0.001,0.015-0.004,0.029-0.005,0.043c-0.273,2.164-0.772,4.311-1.499,6.424H84.7c0.602-3.284,0.926-6.764,0.926-10.371
			c0-3.61-0.326-7.093-0.926-10.375h10.341c0.723,2.101,1.221,4.243,1.497,6.405c0.003,0.026,0.006,0.051,0.008,0.078
			c0.045,0.354,0.081,0.712,0.113,1.069c0.018,0.208,0.033,0.418,0.047,0.628c0.017,0.243,0.034,0.487,0.045,0.728
			c0.021,0.487,0.037,0.972,0.037,1.466C96.788,64.991,96.772,65.479,96.751,65.964z"/>
		<path fill="#FF0000" d="M29.429,59.715c-0.006,0.044-0.011,0.088-0.016,0.133c-0.06,0.455-0.117,0.913-0.159,1.375
			c-0.022,0.215-0.033,0.432-0.049,0.647c-0.024,0.317-0.05,0.631-0.065,0.949c-0.028,0.559-0.043,1.118-0.043,1.679
			c0,0.558,0.015,1.118,0.043,1.677c0.015,0.319,0.041,0.631,0.065,0.945c0.015,0.219,0.027,0.435,0.049,0.65
			c0.041,0.455,0.096,0.909,0.157,1.36c0.005,0.05,0.01,0.094,0.017,0.144C31.771,86.541,46.599,99.9,64.499,99.9V29.098
			C46.603,29.098,31.773,42.453,29.429,59.715z M53.716,34.072c-3.905,3.895-7,9.839-8.754,16.942h-9.789
			C38.803,43.152,45.495,36.991,53.716,34.072z M32.472,68.544c-0.007-0.07-0.017-0.138-0.025-0.208
			c-0.042-0.327-0.074-0.657-0.104-0.984c-0.02-0.23-0.037-0.459-0.052-0.689c-0.016-0.229-0.032-0.454-0.043-0.687
			c-0.023-0.489-0.038-0.979-0.038-1.474c0-0.494,0.016-0.984,0.038-1.475c0.011-0.229,0.026-0.454,0.043-0.683
			c0.015-0.233,0.032-0.466,0.052-0.698c0.03-0.327,0.065-0.66,0.105-0.986c0.007-0.068,0.017-0.135,0.027-0.204
			c0.276-2.139,0.768-4.254,1.479-6.327h10.339c-0.602,3.283-0.929,6.766-0.929,10.374c0,3.607,0.325,7.087,0.926,10.37H33.946
			C33.237,72.79,32.75,70.674,32.472,68.544z M35.17,77.98h9.79c1.754,7.107,4.849,13.052,8.756,16.949
			C45.495,92.012,38.798,85.846,35.17,77.98z M62.942,96.661c-6.583-1.015-12.165-8.392-14.814-18.681h14.814V96.661z M62.942,74.87
			H47.435c-0.616-3.258-0.959-6.742-0.959-10.37c0-3.628,0.343-7.118,0.962-10.375h15.506L62.942,74.87L62.942,74.87z
			 M62.942,51.013h-14.81c2.65-10.285,8.229-17.659,14.812-18.674L62.942,51.013L62.942,51.013z"/>
	</g>
</g>
<g id="Calque_4" display="none">
	
		<path display="inline" fill="none" stroke="#FF0000" stroke-width="5" stroke-linecap="round" stroke-linejoin="round" stroke-miterlimit="10" d="
		M92.598,127.284l-2.068-17.683c0,0,0.212-7.968,6.563-10.176l16.672-3.476l-0.244-14.027l-2.362-2.655l3.132-5.054l-0.277-6.159
		l6.336-8.517c-8.717-9.15-11.705-12.757-12.697-19.003c-0.084-1.325-0.239-5.377-0.476-6.711
		c-3.704-21.073-25.317-34.887-48.267-30.85c-22.95,4.035-40.497,21.979-38.509,45.7c2.385,28.441,27.414,47.525,27.414,47.525
		l4.052,14.537l3.1,17.188"/>
	<g display="inline">
		<g>
			<path fill="none" stroke="#FF0000" stroke-width="5" stroke-linecap="round" stroke-linejoin="round" stroke-miterlimit="10" d="
				M72.212,37.847c1.437,0.805,2.97,1.28,4.513,1.447l0.963,3.482c1.631,0.031,3.252-0.195,4.801-0.671l-0.029-3.614
				c1.457-0.592,2.805-1.476,3.945-2.627l3.32,1.418c0.512-0.616,0.981-1.277,1.401-1.987s0.772-1.441,1.065-2.185l-2.842-2.228
				c0.461-1.554,0.584-3.161,0.401-4.723l3.183-1.714c-0.33-1.586-0.912-3.118-1.726-4.531l-3.515,0.834
				c-0.891-1.273-2.045-2.388-3.441-3.257l0.645-3.556c-1.484-0.755-3.043-1.245-4.617-1.481l-1.539,3.269
				c-1.6-0.099-3.197,0.128-4.693,0.658l-2.378-2.719c-1.464,0.667-2.829,1.567-4.037,2.687l1.597,3.24
				c-0.524,0.581-0.998,1.221-1.412,1.921c-0.414,0.699-0.748,1.424-1.002,2.163l-3.607,0.163c-0.4,1.597-0.531,3.228-0.411,4.831
				l3.528,0.774c0.257,1.567,0.828,3.076,1.685,4.43l-2.122,2.924c0.965,1.265,2.145,2.395,3.521,3.333L72.212,37.847z"/>
			
				<circle fill="none" stroke="#FF0000" stroke-width="5" stroke-linecap="round" stroke-linejoin="round" stroke-miterlimit="10" cx="78" cy="27.531" r="5.964"/>
		</g>
		<g>
			<path fill="none" stroke="#FF0000" stroke-width="5" stroke-linecap="round" stroke-linejoin="round" stroke-miterlimit="10" d="
				M52.236,73.886c0.273-0.032,0.545-0.071,0.819-0.118c1.506-0.254,2.932-0.701,4.257-1.307l4.008,3.088
				c1.037-0.668,2.007-1.42,2.909-2.242l-1.7-4.543c1.289-1.342,2.353-2.888,3.149-4.571L70.301,64
				c0.396-1.178,0.689-2.398,0.881-3.645l-3.908-2.21c0.099-1.346,0.041-2.725-0.193-4.115c-0.098-0.58-0.225-1.147-0.377-1.703
				l3.33-3.039c-0.434-1.157-0.956-2.262-1.563-3.31l-4.437,0.825c-1.197-1.639-2.672-3.044-4.344-4.158l0.635-4.751
				c-0.995-0.568-2.036-1.056-3.113-1.465l-3.116,3.784c-1.911-0.446-3.927-0.568-5.975-0.316L45.269,35.4
				c-1.062,0.204-2.091,0.479-3.084,0.823l0.05,5.51c-1.731,0.909-3.271,2.099-4.573,3.5l-5.595-1.776
				c-0.622,0.796-1.189,1.635-1.697,2.509l3.922,4.587c-0.669,1.676-1.074,3.472-1.182,5.326l-5.682,2.341
				c0.045,0.821,0.133,1.646,0.274,2.476c0.03,0.182,0.07,0.358,0.105,0.539l6.134,1.023c0.556,1.691,1.364,3.249,2.37,4.643
				l-2.8,5.354c0.742,0.772,1.54,1.491,2.384,2.147l5.161-3.043c1.446,0.914,3.03,1.611,4.704,2.063l1.204,5.482
				c1.135,0.127,2.292,0.166,3.46,0.111L52.236,73.886z"/>
			
				<circle fill="none" stroke="#FF0000" stroke-width="5" stroke-linecap="round" stroke-linejoin="round" stroke-miterlimit="10" cx="50.118" cy="56.822" r="10.237"/>
		</g>
	</g>
</g>
<g id="Calque_2_1_" display="none">
	<g display="inline">
		<path fill="none" stroke="#FF0000" stroke-width="5" stroke-linecap="round" stroke-linejoin="round" stroke-miterlimit="10" d="
			M14.885,50.642c0.034-0.248,0.058-0.498,0.058-0.754c0-3.03-2.457-5.487-5.488-5.487c-3.03,0-5.487,2.457-5.487,5.487
			c0,3.031,2.457,5.487,5.487,5.487c1.582,0,3.002-0.672,4.004-1.743"/>
		<path fill="none" stroke="#FF0000" stroke-width="5" stroke-linecap="round" stroke-linejoin="round" stroke-miterlimit="10" d="
			M66.07,15.746c2.171-0.73,3.738-2.779,3.738-5.198c0-3.03-2.457-5.487-5.488-5.487c-3.03,0-5.486,2.457-5.486,5.487
			c0,2.419,1.567,4.469,3.741,5.199"/>
		<path fill="none" stroke="#FF0000" stroke-width="5" stroke-linecap="round" stroke-linejoin="round" stroke-miterlimit="10" d="
			M114.859,53.179c1,1.332,2.588,2.196,4.383,2.196c3.029,0,5.486-2.457,5.486-5.487c0-3.03-2.457-5.487-5.486-5.487
			c-3.03,0-5.486,2.457-5.486,5.487"/>
		<path fill="none" stroke="#FF0000" stroke-width="5" stroke-linecap="round" stroke-linejoin="round" stroke-miterlimit="10" d="
			M93.775,110.926c-0.605,0.885-0.963,1.951-0.963,3.104c0,3.031,2.457,5.488,5.486,5.488c3.031,0,5.487-2.457,5.487-5.488
			s-2.456-5.485-5.487-5.485c-0.561,0-1.1,0.084-1.607,0.24"/>
		<path fill="none" stroke="#FF0000" stroke-width="5" stroke-linecap="round" stroke-linejoin="round" stroke-miterlimit="10" d="
			M32.249,108.789c-0.516-0.16-1.064-0.246-1.634-0.246c-3.031,0-5.487,2.454-5.487,5.486c0,3.029,2.456,5.486,5.487,5.486
			c3.03,0,5.487-2.457,5.487-5.486c0-1.158-0.36-2.23-0.972-3.114"/>
		<path fill="none" stroke="#FF0000" stroke-width="5" stroke-linecap="round" stroke-linejoin="round" stroke-miterlimit="10" d="
			M77.548,49.888L66.07,15.746c-0.551,0.185-1.137,0.289-1.75,0.289c-0.61,0-1.196-0.104-1.745-0.288L50.86,50.642H14.885
			c-0.159,1.149-0.671,2.183-1.426,2.99l29.189,21.802l-10.4,33.354c1.183,0.369,2.191,1.129,2.881,2.126l29.219-20.162
			l29.427,20.173c0.695-1.01,1.717-1.774,2.916-2.143L86.232,74.68l28.627-21.5c-0.689-0.917-1.104-2.055-1.104-3.292H77.548z"/>
	</g>
</g>
<g id="Calque_3_1_" display="none">
	<g display="inline">
		<polygon fill="#FF0000" points="64.957,47.469 58.878,59.773 45.295,61.748 55.129,71.327 52.807,84.855 64.957,78.471 
			77.102,84.855 74.784,71.327 84.609,61.748 71.029,59.773 		"/>
		<path fill="none" stroke="#FF0000" stroke-width="5" stroke-miterlimit="10" d="M111.488,15.919l-1.721,0.522
			c-4.438,1.339-11.701,2.945-21.094,2.945c-7.625,0-14.902-2.369-21.054-6.841c-0.415-0.301-0.812-0.602-1.185-0.896l-1.479-1.171
			l-1.479,1.171c-0.375,0.294-0.77,0.596-1.186,0.89c-6.151,4.479-13.435,6.848-21.053,6.848c-9.398,0-16.662-1.606-21.1-2.945
			l-1.714-0.522L8.129,31.771l1.567,1.359c0.381,0.334,0.769,0.689,1.151,1.058c5.529,5.335,8.455,12.23,8.455,19.956
			c0,5.603-1.713,11.889-3.521,18.549c-1.74,6.394-3.535,13.008-3.761,18.938c-0.222,5.904,1.158,10.143,4.351,13.342
			c9.319,9.317,16.555,10.096,22.6,10.096c1.372,0,2.738-0.047,4.277-0.102c1.426-0.053,2.899-0.107,4.405-0.107
			c5.409,0,10.878,2.091,15.812,6.039l1.493,1.197l1.492-1.197c4.928-3.948,10.401-6.039,15.813-6.039
			c1.498,0,2.973,0.056,4.483,0.107c1.453,0.055,2.817,0.102,4.19,0.102c6.053,0,13.28-0.777,22.601-10.096
			c3.192-3.193,4.578-7.432,4.351-13.342c-0.221-5.925-2.021-12.539-3.762-18.938c-1.809-6.66-3.521-12.946-3.521-18.549
			c0-7.725,2.926-14.62,8.461-19.956c0.381-0.375,0.771-0.73,1.151-1.064l1.562-1.359L111.488,15.919z M101.875,93.979l-0.75,0.705
			c-2.041,1.887-3.875,3.146-5.461,3.741c-1.191,0.441-2.512,0.616-4.727,0.616c-1.092,0-2.345-0.041-3.662-0.087
			c-1.508-0.062-3.213-0.121-5.014-0.121c-5.617,0-11.107,1.211-16.309,3.608l-0.997,0.455l-0.998-0.455
			c-5.208-2.397-10.697-3.608-16.307-3.608c-1.808,0-3.515,0.062-5.021,0.121c-1.318,0.046-2.57,0.087-3.661,0.087
			c-2.216,0-3.535-0.175-4.72-0.616c-1.593-0.597-3.427-1.854-5.463-3.741l-0.756-0.705l-0.014-1.022
			c-0.007-1.14,0.127-2.577,0.401-4.271c0.589-3.568,1.674-7.559,2.826-11.789c2.008-7.383,4.077-15.016,4.077-22.753
			c0-5.443-0.964-10.731-2.865-15.705l-1.332-3.487l3.722,0.248c2.102,0.14,4.25,0.213,6.393,0.213
			c7.966,0,15.591-1.753,22.667-5.208l1.051-0.516L66,30.205c7.084,3.454,14.708,5.208,22.675,5.208
			c2.136,0,4.284-0.073,6.394-0.213l3.722-0.248l-1.332,3.487c-1.907,4.974-2.872,10.262-2.872,15.705
			c0,7.739,2.068,15.372,4.078,22.749c1.164,4.276,2.24,8.254,2.824,11.795c0.273,1.692,0.414,3.131,0.402,4.271L101.875,93.979z"/>
	</g>
</g>
</svg>
