<?xml version="1.0" encoding="utf-8"?>
<!-- Generator: Adobe Illustrator 16.0.0, SVG Export Plug-In . SVG Version: 6.00 Build 0)  -->
<!DOCTYPE svg PUBLIC "-//W3C//DTD SVG 1.1//EN" "http://www.w3.org/Graphics/SVG/1.1/DTD/svg11.dtd">
<svg version="1.1" id="Calque_1" xmlns="http://www.w3.org/2000/svg" xmlns:xlink="http://www.w3.org/1999/xlink" x="0px" y="0px"
	 width="128px" height="128px" viewBox="0 0 128 128" enable-background="new 0 0 128 128" xml:space="preserve">
<polyline fill="none" stroke="#FF0000" stroke-width="5" stroke-linecap="round" stroke-linejoin="round" stroke-miterlimit="10" points="
	109.412,84.701 124.161,84.701 124.161,7.488 20.321,7.488 20.321,42.037 27.676,42.037 "/>
<polygon fill="none" stroke="#FF0000" stroke-width="5" stroke-linecap="round" stroke-linejoin="round" stroke-miterlimit="10" points="
	44.958,41.695 70.798,41.695 57.877,26.955 "/>
<g>
	
		<rect x="5.572" y="42.037" fill="none" stroke="#FF0000" stroke-width="5" stroke-linecap="round" stroke-linejoin="round" stroke-miterlimit="10" width="103.84" height="77.213"/>
	
		<polyline fill="none" stroke="#FF0000" stroke-width="5" stroke-linecap="round" stroke-linejoin="round" stroke-miterlimit="10" points="
		109.412,118.133 75.277,81.348 41.992,119.25 	"/>
	
		<polyline fill="none" stroke="#FF0000" stroke-width="5" stroke-linecap="round" stroke-linejoin="round" stroke-miterlimit="10" points="
		61.89,96.621 36.597,67.768 5.572,103.009 	"/>
</g>
<g>
	<g>
		<path fill="none" stroke="#FF0000" stroke-width="2" stroke-linecap="round" stroke-linejoin="round" stroke-miterlimit="10" d="
			M84.981,64.555c-2.688,0-4.863-2.177-4.863-4.866l0,0c0-2.685,2.176-4.864,4.863-4.864h7.082c2.689,0,4.865,2.178,4.865,4.864l0,0
			"/>
		<path fill="none" stroke="#FF0000" stroke-width="2" stroke-linecap="round" stroke-linejoin="round" stroke-miterlimit="10" d="
			M84.981,64.555h7.082c2.689,0,4.865,2.179,4.865,4.866l0,0c0,2.688-2.176,4.864-4.865,4.864h-7.082
			c-2.688,0-4.863-2.176-4.863-4.864"/>
	</g>
	
		<line fill="none" stroke="#FF0000" stroke-width="2" stroke-linecap="round" stroke-linejoin="round" stroke-miterlimit="10" x1="88.522" y1="54.825" x2="88.522" y2="50.287"/>
	
		<line fill="none" stroke="#FF0000" stroke-width="2" stroke-linecap="round" stroke-linejoin="round" stroke-miterlimit="10" x1="88.522" y1="78.823" x2="88.522" y2="74.285"/>
</g>
</svg>
