<?xml version="1.0" encoding="utf-8"?>
<!-- Generator: Adobe Illustrator 16.0.0, SVG Export Plug-In . SVG Version: 6.00 Build 0)  -->
<!DOCTYPE svg PUBLIC "-//W3C//DTD SVG 1.1//EN" "http://www.w3.org/Graphics/SVG/1.1/DTD/svg11.dtd">
<svg version="1.1" id="Calque_1" xmlns="http://www.w3.org/2000/svg" xmlns:xlink="http://www.w3.org/1999/xlink" x="0px" y="0px"
	 width="128px" height="128px" viewBox="0 0 128 128" enable-background="new 0 0 128 128" xml:space="preserve">
<g id="Calque_1_1_" display="none">
</g>
<path fill="none" stroke="#FF0000" stroke-width="5" stroke-linecap="round" stroke-linejoin="round" stroke-miterlimit="10" d="
	M12.384,113.959c-1.953,0.293-3.672-0.16-4.988-1.099v0.01c-0.661-0.464-1.216-1.063-1.654-1.758
	c-0.421-0.67-0.72-1.429-0.873-2.243v0.011c-0.338-1.81,0.055-3.874,1.404-5.78l-0.037,0.048l50.227-86.337l0.021-0.019
	c1.077-1.554,2.208-2.74,3.376-3.55c1.322-0.915,2.691-1.374,4.095-1.374c1.404,0,2.773,0.459,4.092,1.374
	c1.171,0.811,2.303,1.997,3.378,3.55l0.021,0.019l50.225,86.337l-0.037-0.05c1.349,1.906,1.746,3.97,1.406,5.78
	c-0.149,0.805-0.45,1.563-0.872,2.233c-0.435,0.694-0.997,1.293-1.652,1.759v-0.01c-1.321,0.938-3.04,1.391-4.993,1.098
	L12.384,113.959L12.384,113.959z"/>
<g id="Calque_2" display="none">
	
		<polyline display="inline" fill="none" stroke="#FF0000" stroke-width="5" stroke-linecap="round" stroke-linejoin="round" stroke-miterlimit="10" points="
		-15.692,71.884 -1.538,71.884 8.923,54.038 27.539,99.884 47.385,40.5 58.154,70.191 79.077,70.191 	"/>
	
		<circle display="inline" fill="none" stroke="#FF0000" stroke-width="5" stroke-linecap="round" stroke-linejoin="round" stroke-miterlimit="10" cx="89.385" cy="69.884" r="10.308"/>
	<g display="inline">
		<path fill="none" stroke="#FF0000" stroke-width="5" stroke-linecap="round" stroke-linejoin="round" stroke-miterlimit="10" d="
			M89.385,34.5V17c0-1.657-1.343-3-3-3H72"/>
		<path fill="none" stroke="#FF0000" stroke-width="5" stroke-linecap="round" stroke-linejoin="round" stroke-miterlimit="10" d="
			M12,14H-1.5c-1.657,0-3,1.343-3,3v17.5"/>
		<path fill="none" stroke="#FF0000" stroke-width="5" stroke-linecap="round" stroke-linejoin="round" stroke-miterlimit="10" d="
			M72,115h14.385c1.657,0,3-1.343,3-3V94.5"/>
		<path fill="none" stroke="#FF0000" stroke-width="5" stroke-linecap="round" stroke-linejoin="round" stroke-miterlimit="10" d="
			M-4.5,94.5V112c0,1.657,1.343,3,3,3H12"/>
	</g>
</g>
<g>
	<path fill="none" stroke="#FF0000" stroke-width="5" stroke-miterlimit="10" d="M56.306,93.303c0-3.49,2.855-7.345,7.646-7.345
		c5.076,0,7.647,3.854,7.647,7.345c0,3.396-2.571,7.347-7.647,7.347C59.021,100.649,56.306,96.698,56.306,93.303z M59.162,78.102
		l-1.972-32.908h13.53l-1.977,32.908H59.162z"/>
</g>
</svg>
