<?xml version="1.0" encoding="utf-8"?>
<!-- Generator: Adobe Illustrator 16.0.0, SVG Export Plug-In . SVG Version: 6.00 Build 0)  -->
<!DOCTYPE svg PUBLIC "-//W3C//DTD SVG 1.1//EN" "http://www.w3.org/Graphics/SVG/1.1/DTD/svg11.dtd">
<svg version="1.1" id="Calque_2_1_" xmlns="http://www.w3.org/2000/svg" xmlns:xlink="http://www.w3.org/1999/xlink" x="0px"
	 y="0px" width="128px" height="128px" viewBox="0 0 128 128" enable-background="new 0 0 128 128" xml:space="preserve">
<g>
	<path fill="none" stroke="#FF0000" stroke-width="5" stroke-linecap="round" stroke-linejoin="round" stroke-miterlimit="10" d="
		M56.891,125.366c-27.062,0-49.078-22.016-49.078-49.078c0-27.062,22.016-49.078,49.078-49.078s49.079,22.016,49.079,49.078
		C105.97,103.351,83.953,125.366,56.891,125.366z"/>
	<path fill="none" stroke="#FF0000" stroke-width="5" stroke-linecap="round" stroke-linejoin="round" stroke-miterlimit="10" d="
		M56.891,112.215c-19.809,0-35.926-16.117-35.926-35.927c0-19.811,16.117-35.926,35.926-35.926
		c19.811,0,35.926,16.116,35.926,35.926C92.817,96.098,76.702,112.215,56.891,112.215z"/>
	<path fill="none" stroke="#FF0000" stroke-width="5" stroke-linecap="round" stroke-linejoin="round" stroke-miterlimit="10" d="
		M56.891,99.063c-12.558,0-22.773-10.219-22.773-22.774c0-12.559,10.215-22.774,22.773-22.774c12.559,0,22.775,10.215,22.775,22.774
		C79.666,88.844,69.45,99.063,56.891,99.063z"/>
	
		<circle fill="none" stroke="#FF0000" stroke-width="5" stroke-linecap="round" stroke-linejoin="round" stroke-miterlimit="10" cx="56.892" cy="76.288" r="9.622"/>
	<g>
		
			<line fill="none" stroke="#FF0000" stroke-width="5" stroke-linecap="round" stroke-linejoin="round" stroke-miterlimit="10" x1="56.891" y1="76.288" x2="115.891" y2="17.288"/>
		
			<polygon fill="none" stroke="#FF0000" stroke-width="5" stroke-linecap="round" stroke-linejoin="round" stroke-miterlimit="10" points="
			107.008,39.447 93.853,39.326 111.09,22.089 124.245,22.209 		"/>
		
			<polygon fill="none" stroke="#FF0000" stroke-width="5" stroke-linecap="round" stroke-linejoin="round" stroke-miterlimit="10" points="
			93.732,26.171 93.853,39.326 111.09,22.089 110.97,8.934 		"/>
	</g>
</g>
</svg>
