<?xml version="1.0" encoding="utf-8"?>
<!-- Generator: Adobe Illustrator 16.0.0, SVG Export Plug-In . SVG Version: 6.00 Build 0)  -->
<!DOCTYPE svg PUBLIC "-//W3C//DTD SVG 1.1//EN" "http://www.w3.org/Graphics/SVG/1.1/DTD/svg11.dtd">
<svg version="1.1" xmlns="http://www.w3.org/2000/svg" xmlns:xlink="http://www.w3.org/1999/xlink" x="0px" y="0px" width="128px"
	 height="128px" viewBox="0 0 128 128" enable-background="new 0 0 128 128" xml:space="preserve">
<g id="Calque_1">
	<g id="Calque_1_1_" display="none">
	</g>
</g>
<g id="Calque_2">
	<g>
		<g>
			<g>
				<g>
					<path fill="#FF0000" d="M90.32,99.548H37.771c-1.138,0-2.057-0.918-2.057-2.056V67.561c0-11.09,9.017-20.112,20.107-20.112
						h16.449c11.085,0,20.107,9.022,20.107,20.112v29.932C92.378,98.63,91.459,99.548,90.32,99.548z M39.833,95.43h48.426V67.561
						c0-8.814-7.173-15.988-15.988-15.988H55.821c-8.815,0-15.988,7.174-15.988,15.988V95.43z"/>
				</g>
			</g>
			<g>
				<g>
					<path fill="#FF0000" d="M81.519,72.88c-0.566,0-1.028-0.462-1.028-1.034c0-6.896-5.608-12.505-12.505-12.505
						c-0.572,0-1.034-0.462-1.034-1.028c0-0.572,0.462-1.034,1.034-1.034c8.028,0,14.567,6.533,14.567,14.567
						C82.553,72.418,82.091,72.88,81.519,72.88z"/>
				</g>
			</g>
			<g>
				<g>
					<path fill="#FF0000" d="M98.575,115.542H29.517c-1.138,0-2.062-0.919-2.062-2.056V97.492c0-1.138,0.924-2.063,2.062-2.063
						h69.059c1.144,0,2.063,0.925,2.063,2.063v15.994C100.638,114.623,99.719,115.542,98.575,115.542z M31.579,111.424h64.939
						V99.548H31.579V111.424z"/>
				</g>
			</g>
		</g>
		<g>
			<g>
				<rect x="1.774" y="71.39" fill="#FF0000" width="23.97" height="4.118"/>
			</g>
		</g>
		<g>
			<g>
				<polygon fill="#FF0000" points="35.634,47.615 18.687,30.669 21.598,27.757 38.551,44.705 				"/>
			</g>
		</g>
		<g>
			<g>
				<rect x="62.348" y="10.92" fill="#FF0000" width="4.124" height="23.971"/>
			</g>
		</g>
		<g>
			<g>
				<polygon fill="#FF0000" points="93.15,47.696 90.24,44.78 107.188,27.833 110.104,30.744 				"/>
			</g>
		</g>
		<g>
			<g>
				<rect x="102.972" y="71.5" fill="#FF0000" width="23.964" height="4.118"/>
			</g>
		</g>
	</g>
</g>
</svg>
