<?xml version="1.0" encoding="utf-8"?>
<!-- Generator: Adobe Illustrator 16.0.0, SVG Export Plug-In . SVG Version: 6.00 Build 0)  -->
<!DOCTYPE svg PUBLIC "-//W3C//DTD SVG 1.1//EN" "http://www.w3.org/Graphics/SVG/1.1/DTD/svg11.dtd">
<svg version="1.1" id="Calque_1" xmlns="http://www.w3.org/2000/svg" xmlns:xlink="http://www.w3.org/1999/xlink" x="0px" y="0px"
	 width="128px" height="128px" viewBox="0 0 128 128" enable-background="new 0 0 128 128" xml:space="preserve">
<g id="Calque_1_1_">
</g>
<g>
	
		<circle fill="none" stroke="#FF0000" stroke-width="5" stroke-linecap="round" stroke-linejoin="round" stroke-miterlimit="10" cx="65.297" cy="67.434" r="57.999"/>
	<path fill="none" stroke="#FF0000" stroke-width="5" stroke-linecap="round" stroke-linejoin="round" stroke-miterlimit="10" d="
		M35.465,17.688c0,0-7.904,3.548-3.36,12.634c4.543,9.087,5.111,15.193,5.681,18.388c0.569,3.195-0.044,15.123-7.121,21.37
		c-7.08,6.247-9.535,18.743-9.535,18.743l-0.951,15.049"/>
	<path fill="none" stroke="#FF0000" stroke-width="5" stroke-linecap="round" stroke-linejoin="round" stroke-miterlimit="10" d="
		M111.147,31.927c0,0-19.098,1.234-29.76,5.781c-10.663,4.541-15.819,11.003-15.819,11.003s2.766,10.579,5.096,10.579
		c2.333,0,12.558,0.621,14.262,2.299c1.702,1.676,12.497,2.632,14.2,5.845c1.704,3.216,6.814,9.46,6.814,14.573
		c0,5.111,7.253,18.146,7.253,18.146"/>
	<path fill="none" stroke="#FF0000" stroke-width="5" stroke-linecap="round" stroke-linejoin="round" stroke-miterlimit="10" d="
		M68.76,124.11v-5.676c0,0-4.544-12.571-6.258-13.709c-1.712-1.137-4.532-9.655-5.976-13.883c-1.445-4.227,3.1-10.541,3.1-10.541
		l9.134-7.708h12.676c0,0,7.773-1.945,7.773,4.301s3.405,17.037,2.841,17.607c-0.571,0.568-3.979,2.273-2.273,6.814
		c1.702,4.547,4.239,16.512,4.239,16.512"/>
	<path fill="none" stroke="#FF0000" stroke-width="5" stroke-linecap="round" stroke-linejoin="round" stroke-miterlimit="10" d="
		M44.635,13.233L58.8,25.211c0,0,11.633-1.136,15.472,0c3.838,1.136,13.104-6.355,13.104-6.355l10.265,0.426"/>
</g>
</svg>
