<?xml version="1.0" encoding="utf-8"?>
<!-- Generator: Adobe Illustrator 16.0.0, SVG Export Plug-In . SVG Version: 6.00 Build 0)  -->
<!DOCTYPE svg PUBLIC "-//W3C//DTD SVG 1.1//EN" "http://www.w3.org/Graphics/SVG/1.1/DTD/svg11.dtd">
<svg version="1.1" xmlns="http://www.w3.org/2000/svg" xmlns:xlink="http://www.w3.org/1999/xlink" x="0px" y="0px" width="128px"
	 height="128px" viewBox="0 0 128 128" enable-background="new 0 0 128 128" xml:space="preserve">
<g id="Calque_2">
	<g>
		<g>
			<path fill="none" stroke="#FF0000" stroke-width="3" stroke-linecap="round" stroke-linejoin="round" stroke-miterlimit="10" d="
				M26.312,13.152c-1.532,0-2.773-1.241-2.773-2.773l0,0c0-1.532,1.241-2.773,2.773-2.773h4.037c1.531,0,2.773,1.241,2.773,2.773
				l0,0"/>
			<path fill="none" stroke="#FF0000" stroke-width="3" stroke-linecap="round" stroke-linejoin="round" stroke-miterlimit="10" d="
				M26.312,13.152h4.037c1.531,0,2.773,1.24,2.773,2.771l0,0c0,1.532-1.242,2.773-2.773,2.773h-4.037
				c-1.532,0-2.773-1.241-2.773-2.773"/>
		</g>
		
			<line fill="none" stroke="#FF0000" stroke-width="3" stroke-linecap="round" stroke-linejoin="round" stroke-miterlimit="10" x1="28.329" y1="7.605" x2="28.329" y2="5.02"/>
		
			<line fill="none" stroke="#FF0000" stroke-width="3" stroke-linecap="round" stroke-linejoin="round" stroke-miterlimit="10" x1="28.329" y1="21.284" x2="28.329" y2="18.697"/>
	</g>
	
		<rect x="7.824" y="27.561" fill="none" stroke="#FF0000" stroke-width="5" stroke-linecap="round" stroke-linejoin="round" stroke-miterlimit="10" width="31.429" height="9.398"/>
	
		<rect x="12.632" y="36.954" fill="none" stroke="#FF0000" stroke-width="5" stroke-linecap="round" stroke-linejoin="round" stroke-miterlimit="10" width="31.429" height="8.698"/>
	
		<rect x="7.824" y="45.652" fill="none" stroke="#FF0000" stroke-width="5" stroke-linecap="round" stroke-linejoin="round" stroke-miterlimit="10" width="31.429" height="8.697"/>
	
		<rect x="7.824" y="54.349" fill="none" stroke="#FF0000" stroke-width="5" stroke-linecap="round" stroke-linejoin="round" stroke-miterlimit="10" width="31.429" height="8.698"/>
	
		<rect x="7.824" y="63.047" fill="none" stroke="#FF0000" stroke-width="5" stroke-linecap="round" stroke-linejoin="round" stroke-miterlimit="10" width="31.429" height="8.697"/>
	
		<rect x="7.824" y="71.744" fill="none" stroke="#FF0000" stroke-width="5" stroke-linecap="round" stroke-linejoin="round" stroke-miterlimit="10" width="31.429" height="8.695"/>
	
		<rect x="7.824" y="80.439" fill="none" stroke="#FF0000" stroke-width="5" stroke-linecap="round" stroke-linejoin="round" stroke-miterlimit="10" width="31.429" height="8.698"/>
	
		<rect x="7.824" y="89.138" fill="none" stroke="#FF0000" stroke-width="5" stroke-linecap="round" stroke-linejoin="round" stroke-miterlimit="10" width="31.429" height="8.697"/>
	
		<rect x="7.824" y="97.835" fill="none" stroke="#FF0000" stroke-width="5" stroke-linecap="round" stroke-linejoin="round" stroke-miterlimit="10" width="31.429" height="8.698"/>
	<g>
		<g>
			<path fill="none" stroke="#FF0000" stroke-width="3" stroke-linecap="round" stroke-linejoin="round" stroke-miterlimit="10" d="
				M71.893,30.548c-1.533,0-2.773-1.241-2.773-2.773l0,0c0-1.532,1.24-2.773,2.773-2.773h4.036c1.53,0,2.772,1.241,2.772,2.773l0,0"
				/>
			<path fill="none" stroke="#FF0000" stroke-width="3" stroke-linecap="round" stroke-linejoin="round" stroke-miterlimit="10" d="
				M71.893,30.548h4.036c1.53,0,2.772,1.24,2.772,2.771l0,0c0,1.532-1.242,2.773-2.772,2.773h-4.036
				c-1.533,0-2.773-1.241-2.773-2.773"/>
		</g>
		
			<line fill="none" stroke="#FF0000" stroke-width="3" stroke-linecap="round" stroke-linejoin="round" stroke-miterlimit="10" x1="73.91" y1="25.001" x2="73.91" y2="22.416"/>
		
			<line fill="none" stroke="#FF0000" stroke-width="3" stroke-linecap="round" stroke-linejoin="round" stroke-miterlimit="10" x1="73.91" y1="38.68" x2="73.91" y2="36.093"/>
	</g>
</g>
<g id="Calque_3">
	<g>
		
			<polygon fill="none" stroke="#FF0000" stroke-width="5" stroke-linecap="round" stroke-linejoin="round" stroke-miterlimit="10" points="
			84.833,54.35 84.833,44.957 53.404,44.957 53.404,54.355 58.212,54.355 58.212,54.35 		"/>
		<path fill="none" stroke="#FF0000" stroke-width="5" stroke-linecap="round" stroke-linejoin="round" stroke-miterlimit="10" d="
			M89.642,60.36v-6.01h-4.809v0.005H58.212v8.693h21.926C83.089,61.682,86.284,60.759,89.642,60.36z"/>
		
			<rect x="58.212" y="54.35" fill="none" stroke="#FF0000" stroke-width="5" stroke-linecap="round" stroke-linejoin="round" stroke-miterlimit="10" width="26.621" height="0.005"/>
		<path fill="none" stroke="#FF0000" stroke-width="5" stroke-linecap="round" stroke-linejoin="round" stroke-miterlimit="10" d="
			M80.139,63.048H58.212h-4.808v8.697h15.513C71.934,68.06,75.768,65.072,80.139,63.048z"/>
		<path fill="none" stroke="#FF0000" stroke-width="5" stroke-linecap="round" stroke-linejoin="round" stroke-miterlimit="10" d="
			M68.917,71.745H53.404v8.698H63.87C65.088,77.267,66.799,74.334,68.917,71.745z"/>
		<path fill="none" stroke="#FF0000" stroke-width="5" stroke-linecap="round" stroke-linejoin="round" stroke-miterlimit="10" d="
			M63.87,80.443H53.404v8.697h8.487C62.142,86.099,62.82,83.18,63.87,80.443z"/>
		<path fill="none" stroke="#FF0000" stroke-width="5" stroke-linecap="round" stroke-linejoin="round" stroke-miterlimit="10" d="
			M61.775,91.765c0-0.885,0.046-1.758,0.117-2.624h-8.487v8.695h8.959C61.981,95.87,61.775,93.842,61.775,91.765z"/>
		<path fill="none" stroke="#FF0000" stroke-width="5" stroke-linecap="round" stroke-linejoin="round" stroke-miterlimit="10" d="
			M53.404,97.836v8.697h12.029c-1.424-2.692-2.471-5.614-3.07-8.697H53.404z"/>
		<path fill="none" stroke="#FF0000" stroke-width="5" stroke-linecap="round" stroke-linejoin="round" stroke-miterlimit="10" d="
			M65.434,106.533c5.306,10.031,15.842,16.869,27.979,16.869c17.473,0,31.637-14.165,31.637-31.638s-14.164-31.636-31.637-31.636
			c-1.277,0-2.533,0.084-3.771,0.231"/>
	</g>
	
		<line fill="none" stroke="#FF0000" stroke-width="5" stroke-linecap="round" stroke-linejoin="round" stroke-miterlimit="10" x1="4.261" y1="116.5" x2="63.268" y2="116.5"/>
</g>
<g id="Calque_4">
	<g>
		
			<line fill="none" stroke="#FF0000" stroke-width="3" stroke-linecap="round" stroke-linejoin="round" stroke-miterlimit="10" x1="77.169" y1="77.923" x2="104.867" y2="105.607"/>
		
			<line fill="none" stroke="#FF0000" stroke-width="3" stroke-linecap="round" stroke-linejoin="round" stroke-miterlimit="10" x1="104.867" y1="105.607" x2="104.867" y2="81.132"/>
		
			<line fill="none" stroke="#FF0000" stroke-width="3" stroke-linecap="round" stroke-linejoin="round" stroke-miterlimit="10" x1="104.867" y1="105.607" x2="81.405" y2="105.607"/>
	</g>
</g>
</svg>
