<?xml version="1.0" encoding="utf-8"?>
<!-- Generator: Adobe Illustrator 16.0.0, SVG Export Plug-In . SVG Version: 6.00 Build 0)  -->
<!DOCTYPE svg PUBLIC "-//W3C//DTD SVG 1.1//EN" "http://www.w3.org/Graphics/SVG/1.1/DTD/svg11.dtd">
<svg version="1.1" id="Calque_1" xmlns="http://www.w3.org/2000/svg" xmlns:xlink="http://www.w3.org/1999/xlink" x="0px" y="0px"
	 width="128px" height="128px" viewBox="0 0 128 128" enable-background="new 0 0 128 128" xml:space="preserve">
<g id="Calque_3" display="none">
	<g display="inline">
		<g>
			
				<circle fill="none" stroke="#FF0000" stroke-width="5" stroke-linecap="round" stroke-linejoin="round" stroke-miterlimit="10" cx="59.272" cy="69.415" r="7.812"/>
			
				<circle fill="none" stroke="#FF0000" stroke-width="5" stroke-linecap="round" stroke-linejoin="round" stroke-miterlimit="10" cx="59.272" cy="69.415" r="7.812"/>
			
				<circle fill="none" stroke="#FF0000" stroke-width="5" stroke-linecap="round" stroke-linejoin="round" stroke-miterlimit="10" cx="59.273" cy="69.415" r="22.62"/>
			
				<circle fill="none" stroke="#FF0000" stroke-width="5" stroke-linecap="round" stroke-linejoin="round" stroke-miterlimit="10" cx="59.273" cy="69.415" r="38.346"/>
			
				<circle fill="none" stroke="#FF0000" stroke-width="5" stroke-linecap="round" stroke-linejoin="round" stroke-miterlimit="10" cx="59.273" cy="69.415" r="54.632"/>
		</g>
		
			<line fill="none" stroke="#FF0000" stroke-width="5" stroke-linecap="round" stroke-linejoin="round" stroke-miterlimit="10" x1="113.904" y1="16.864" x2="124.872" y2="16.864"/>
		
			<line fill="none" stroke="#FF0000" stroke-width="5" stroke-linecap="round" stroke-linejoin="round" stroke-miterlimit="10" x1="113.904" y1="16.864" x2="113.904" y2="5.898"/>
		
			<line fill="none" stroke="#FF0000" stroke-width="5" stroke-linecap="round" stroke-linejoin="round" stroke-miterlimit="10" x1="59.272" y1="69.415" x2="113.904" y2="16.864"/>
	</g>
</g>
<g id="Calque_5" display="none">
</g>
<g id="Calque_4">
</g>
<g>
	<g>
		<path fill="#FF0000" d="M17.861,119.306L3.1,64.667h70.925l-14.316,52.968l-0.458,1.671H17.861L17.861,119.306z M57.521,117.044
			v-2.264V117.044L57.521,117.044z M21.325,114.78h34.463l12.316-45.583H9.009L21.325,114.78L21.325,114.78z"/>
	</g>
	<g>
		<path fill="#FF0000" d="M66.088,55.999c-0.024-15.2-12.315-27.497-27.528-27.522l0,0c-15.202,0.025-27.504,12.327-27.529,27.522
			l0,0H6.499c0-17.705,14.355-32.054,32.061-32.061l0,0c17.71,0.007,32.059,14.355,32.065,32.061l0,0H66.088L66.088,55.999z"/>
	</g>
	<g>
		<path fill="#FF0000" d="M89.099,119.306v-2.262h2.257h-2.257V119.306H86.83V91.338c0-10.535,8.54-19.077,19.089-19.082l0,0
			c10.537,0.005,19.071,8.547,19.071,19.082l0,0v27.968H89.099L89.099,119.306z M120.458,114.78V91.338
			c-0.011-8.032-6.512-14.532-14.539-14.552l0,0c-8.045,0.02-14.546,6.52-14.563,14.552l0,0v23.442H120.458L120.458,114.78z"/>
	</g>
	<g>
		<path fill="#FF0000" d="M92.651,24.391V13.448h24.262v2.262v-2.262h2.262v10.943c0,7.32-5.934,13.256-13.256,13.263l0,0
			C98.593,37.647,92.651,31.711,92.651,24.391L92.651,24.391z M97.175,24.391c0.014,4.817,3.921,8.725,8.744,8.725l0,0
			c4.816,0,8.72-3.908,8.726-8.725l0,0v-6.413l-17.47-0.005V24.391L97.175,24.391z"/>
	</g>
	<g>
		<polygon fill="#FF0000" points="8.761,82.74 8.761,78.21 68.35,78.21 68.35,82.74 8.761,82.74 		"/>
	</g>
	<g>
		<polygon fill="#FF0000" points="103.65,74.523 103.65,35.385 108.183,35.385 108.183,74.523 103.65,74.523 		"/>
	</g>
	<g>
		<path fill="#FF0000" d="M94.734,119.306v-2.262h2.264h-2.264V119.306h-2.262V99.968c0-7.423,6.012-13.439,13.446-13.446l0,0
			c7.423,0.007,13.429,6.023,13.436,13.446l0,0v19.338H94.734L94.734,119.306z M96.998,99.968v14.813l17.817-0.007V99.968
			c-0.005-4.919-3.99-8.902-8.896-8.916l0,0C100.988,91.065,97.01,95.049,96.998,99.968L96.998,99.968z"/>
	</g>
</g>
</svg>
