<?xml version="1.0" encoding="utf-8"?>
<!-- Generator: Adobe Illustrator 16.0.0, SVG Export Plug-In . SVG Version: 6.00 Build 0)  -->
<!DOCTYPE svg PUBLIC "-//W3C//DTD SVG 1.1//EN" "http://www.w3.org/Graphics/SVG/1.1/DTD/svg11.dtd">
<svg version="1.1" id="Calque_1" xmlns="http://www.w3.org/2000/svg" xmlns:xlink="http://www.w3.org/1999/xlink" x="0px" y="0px"
	 width="128px" height="128px" viewBox="0 0 128 128" enable-background="new 0 0 128 128" xml:space="preserve">
<g id="Calque_1_1_" display="none">
	<g id="Calque_2" display="inline">
	</g>
	<g display="inline">
		<g>
			
				<rect x="47.049" y="50.359" fill="none" stroke="#FF0000" stroke-width="5" stroke-linecap="round" stroke-linejoin="round" stroke-miterlimit="10" width="34.396" height="73.653"/>
			
				<rect x="12.653" y="73.539" fill="none" stroke="#FF0000" stroke-width="5" stroke-linecap="round" stroke-linejoin="round" stroke-miterlimit="10" width="34.396" height="50.473"/>
			
				<rect x="81.443" y="79.587" fill="none" stroke="#FF0000" stroke-width="5" stroke-linecap="round" stroke-linejoin="round" stroke-miterlimit="10" width="34.396" height="44.425"/>
			
				<polyline fill="none" stroke="#FF0000" stroke-width="5" stroke-linecap="round" stroke-linejoin="round" stroke-miterlimit="10" points="
				57.073,69.902 66.047,60.93 66.047,91.588 			"/>
			<path fill="none" stroke="#FF0000" stroke-width="5" stroke-linecap="round" stroke-linejoin="round" stroke-miterlimit="10" d="
				M19.379,93.488c0-5.784,4.689-10.475,10.472-10.475c5.783,0,10.474,4.689,10.474,10.475c0,5.783-4.691,10.472-10.474,10.472
				c0,0-10.472,0.804-10.472,10.574h20.945"/>
			<path fill="none" stroke="#FF0000" stroke-width="5" stroke-linecap="round" stroke-linejoin="round" stroke-miterlimit="10" d="
				M90.787,94.881c0-4.251,3.443-7.695,7.695-7.695c4.248,0,7.692,3.444,7.692,7.695c0,4.248-3.444,7.693-7.692,7.693l0.319-0.004
				c4.25,0,7.694,3.445,7.694,7.695s-3.444,7.695-7.694,7.695c-4.249,0-7.694-3.445-7.694-7.695"/>
		</g>
		<g>
			<path fill="none" stroke="#FF0000" stroke-width="5" stroke-linecap="round" stroke-linejoin="round" stroke-miterlimit="10" d="
				M73.663,13.712c0,5.024-4.073,13.01-9.101,13.01c-5.026,0-9.1-7.986-9.1-13.01c0-5.026,4.073-9.102,9.1-9.102
				C69.59,4.61,73.663,8.686,73.663,13.712z"/>
			
				<polyline fill="none" stroke="#FF0000" stroke-width="5" stroke-linecap="round" stroke-linejoin="round" stroke-miterlimit="10" points="
				61.039,25.382 61.051,29.633 45.213,33.987 45.213,42.404 83.281,42.404 83.281,33.943 68.018,29.486 67.988,25.483 			"/>
		</g>
	</g>
</g>
<g id="Calque_2_1_">
	<g>
		<path fill="none" stroke="#FF0000" stroke-width="5" stroke-linecap="round" stroke-linejoin="round" stroke-miterlimit="10" d="
			M51.303,46.318l-38.97,15.316C5.535,64.307,2.16,72.055,4.831,78.85l2.277,5.793c2.671,6.797,10.419,10.172,17.216,7.5
			l4.357-1.713l25.242,20.108c1.923,1.534,4.752,1.214,6.287-0.71l5.822-7.311c1.534-1.925,1.215-4.754-0.71-6.287L48.341,82.703
			l14.953-5.877"/>
		<path fill="none" stroke="#FF0000" stroke-width="5" stroke-linecap="round" stroke-linejoin="round" stroke-miterlimit="10" d="
			M78.648,42.548L78.648,42.548c4.035-1.587,8.377-0.249,9.644,2.976l2.651,6.746c1.268,3.222-1,7.158-5.037,8.745l0,0"/>
		
			<polygon fill="none" stroke="#FF0000" stroke-width="5" stroke-linecap="round" stroke-linejoin="round" stroke-miterlimit="10" points="
			64.738,80.503 49.742,42.348 67.895,15.186 96.15,87.08 		"/>
	</g>
	
		<line fill="none" stroke="#FF0000" stroke-width="5" stroke-linecap="round" stroke-linejoin="round" stroke-miterlimit="10" x1="96.723" y1="42.871" x2="120.623" y2="30.075"/>
	
		<line fill="none" stroke="#FF0000" stroke-width="5" stroke-linecap="round" stroke-linejoin="round" stroke-miterlimit="10" x1="90.854" y1="33.088" x2="102.954" y2="15.41"/>
	
		<line fill="none" stroke="#FF0000" stroke-width="5" stroke-linecap="round" stroke-linejoin="round" stroke-miterlimit="10" x1="99.854" y1="53.398" x2="123.311" y2="56.616"/>
</g>
<g id="Calque_3" display="none">
	<g display="inline">
		
			<rect x="25.404" y="110.992" fill="none" stroke="#FF0000" stroke-width="5" stroke-linecap="round" stroke-linejoin="round" stroke-miterlimit="10" width="73.558" height="11.457"/>
		<path fill="none" stroke="#FF0000" stroke-width="5" stroke-linecap="round" stroke-linejoin="round" stroke-miterlimit="10" d="
			M69.616,80.077c10.684-4.937,27.896-18.67,27.896-50.824c0-7.766-1.021-13.778-3.371-18.34H29.578
			c-2.356,4.562-3.373,10.574-3.373,18.34c0,31.498,17.21,45.554,27.895,50.694v19.447H31.433v11.457h61.5V99.396H69.616V80.077z"/>
		<path fill="none" stroke="#FF0000" stroke-width="5" stroke-linecap="round" stroke-linejoin="round" stroke-miterlimit="10" d="
			M26.386,21.43H3.094c0,0-6.031,33.123,30.238,38.508"/>
		<path fill="none" stroke="#FF0000" stroke-width="5" stroke-linecap="round" stroke-linejoin="round" stroke-miterlimit="10" d="
			M98.086,21.43h23.294c0,0,6.031,33.123-30.239,38.508"/>
		
			<polygon fill="none" stroke="#FF0000" stroke-width="5" stroke-linecap="round" stroke-linejoin="round" stroke-miterlimit="10" points="
			61.859,24.51 66.377,36.395 79.077,37.019 69.17,44.99 72.498,57.262 61.859,50.303 51.215,57.262 54.546,44.99 44.64,37.019 
			57.338,36.395 		"/>
	</g>
</g>
<g id="Calque_4" display="none">
	<g display="inline">
		<g>
			
				<circle fill="none" stroke="#FF0000" stroke-width="5" stroke-linecap="round" stroke-linejoin="round" stroke-miterlimit="10" cx="98.706" cy="79.372" r="11.647"/>
			<path fill="none" stroke="#FF0000" stroke-width="5" stroke-linecap="round" stroke-linejoin="round" stroke-miterlimit="10" d="
				M98.706,101.636c-5.03-4.048-9.583-6.086-15.743-6.52c-0.434-6.16-2.473-10.714-6.52-15.743c4.047-5.029,6.086-9.585,6.52-15.743
				c6.16-0.436,10.713-2.474,15.743-6.521c5.03,4.047,9.585,6.086,15.745,6.521c0.432,6.158,2.47,10.714,6.52,15.743
				c-4.05,5.029-6.088,9.583-6.52,15.743C108.291,95.55,103.736,97.588,98.706,101.636z"/>
			
				<polyline fill="none" stroke="#FF0000" stroke-width="5" stroke-linecap="round" stroke-linejoin="round" stroke-miterlimit="10" points="
				97.411,100.643 90.029,124.043 79.527,120.73 87.4,95.777 			"/>
			
				<polyline fill="none" stroke="#FF0000" stroke-width="5" stroke-linecap="round" stroke-linejoin="round" stroke-miterlimit="10" points="
				100.002,100.643 107.385,124.043 117.885,120.73 110.012,95.777 			"/>
		</g>
		<g>
			
				<polyline fill="none" stroke="#FF0000" stroke-width="5" stroke-linecap="round" stroke-linejoin="round" stroke-miterlimit="10" points="
				123.609,84.744 123.609,94.223 119.085,94.223 			"/>
			
				<polyline fill="none" stroke="#FF0000" stroke-width="5" stroke-linecap="round" stroke-linejoin="round" stroke-miterlimit="10" points="
				76.443,94.223 3.317,94.223 3.317,10.442 123.609,10.442 123.609,72.624 			"/>
			
				<line fill="none" stroke="#FF0000" stroke-width="5" stroke-linecap="round" stroke-linejoin="round" stroke-miterlimit="10" x1="15.768" y1="29.167" x2="110.355" y2="29.167"/>
			
				<line fill="none" stroke="#FF0000" stroke-width="5" stroke-linecap="round" stroke-linejoin="round" stroke-miterlimit="10" x1="37.087" y1="19.994" x2="89.839" y2="19.994"/>
		</g>
	</g>
	<g display="inline">
		<g>
			<path fill="none" stroke="#FF0000" stroke-width="5" stroke-linecap="round" stroke-linejoin="round" stroke-miterlimit="10" d="
				M31.592,64.039c-4.171,0-7.551-3.379-7.551-7.548l0,0c0-4.171,3.379-7.55,7.551-7.55h10.991c4.169,0,7.55,3.379,7.55,7.55l0,0"/>
			<path fill="none" stroke="#FF0000" stroke-width="5" stroke-linecap="round" stroke-linejoin="round" stroke-miterlimit="10" d="
				M31.592,64.039h10.991c4.169,0,7.55,3.379,7.55,7.551l0,0c0,4.171-3.381,7.551-7.55,7.551H31.592
				c-4.171,0-7.551-3.38-7.551-7.551"/>
		</g>
		
			<line fill="none" stroke="#FF0000" stroke-width="5" stroke-linecap="round" stroke-linejoin="round" stroke-miterlimit="10" x1="37.086" y1="48.94" x2="37.086" y2="41.897"/>
		
			<line fill="none" stroke="#FF0000" stroke-width="5" stroke-linecap="round" stroke-linejoin="round" stroke-miterlimit="10" x1="37.086" y1="86.182" x2="37.086" y2="79.141"/>
	</g>
</g>
</svg>
