<?xml version="1.0" encoding="utf-8"?>
<!-- Generator: Adobe Illustrator 16.0.0, SVG Export Plug-In . SVG Version: 6.00 Build 0)  -->
<!DOCTYPE svg PUBLIC "-//W3C//DTD SVG 1.1//EN" "http://www.w3.org/Graphics/SVG/1.1/DTD/svg11.dtd">
<svg version="1.1" id="Calque_1" xmlns="http://www.w3.org/2000/svg" xmlns:xlink="http://www.w3.org/1999/xlink" x="0px" y="0px"
	 width="128px" height="128px" viewBox="0 0 128 128" enable-background="new 0 0 128 128" xml:space="preserve">
<g>
	<g>
		<path fill="none" stroke="#FF0000" stroke-width="5" stroke-linecap="round" stroke-linejoin="round" d="M107.482,103.738
			c-10.732,12.137-26.422,19.789-43.897,19.789c-32.352,0-58.58-26.228-58.58-58.58c0-32.354,26.228-58.58,58.58-58.58
			c22.028,0,41.22,12.16,51.224,30.134"/>
	</g>
</g>
<g id="Calque_3">
	<g>
		<g>
			<path fill="none" stroke="#FF0000" stroke-width="5" stroke-miterlimit="10" d="M63.026,45.101
				c-16.104,0-30.156,8.753-37.683,21.756c7.527,13.002,21.578,21.758,37.683,21.758c16.104,0,30.156-8.758,37.682-21.76
				C93.182,53.854,79.13,45.101,63.026,45.101z M75.061,78.896c-3.08,3.082-7.342,4.979-12.034,4.979
				c-9.403,0-17.018-7.624-17.018-17.015c0-7.093,4.339-13.173,10.516-15.727c1.995-0.833,4.196-1.294,6.502-1.294
				c9.403,0,17.018,7.621,17.018,17.017c0,4.701-1.902,8.953-4.982,12.033"/>
		</g>
		<circle fill="#FF0000" cx="63.025" cy="66.86" r="7.579"/>
	</g>
</g>
<polyline fill="none" stroke="#FF0000" stroke-width="5" stroke-linecap="round" stroke-linejoin="round" points="86.167,33.833 
	116.167,38.167 120.834,10.5 "/>
</svg>
