<?xml version="1.0" encoding="utf-8"?>
<!-- Generator: Adobe Illustrator 16.0.0, SVG Export Plug-In . SVG Version: 6.00 Build 0)  -->
<!DOCTYPE svg PUBLIC "-//W3C//DTD SVG 1.1//EN" "http://www.w3.org/Graphics/SVG/1.1/DTD/svg11.dtd">
<svg version="1.1" id="Calque_1" xmlns="http://www.w3.org/2000/svg" xmlns:xlink="http://www.w3.org/1999/xlink" x="0px" y="0px"
	 width="128px" height="128px" viewBox="0 0 128 128" enable-background="new 0 0 128 128" xml:space="preserve">
<g id="Calque_2">
	<g>
		<path fill="none" stroke="#FF0000" stroke-width="5" stroke-miterlimit="10" d="M123.311,61.941V45.645c0-2.761-2.238-5-5-5
			H79.792c-2.763,0-5,2.239-5,5v9.441H14.691c-5.523,0-10,4.477-10,10v50.104c0,5.521,4.477,10,10,10h98.62c5.521,0,10-4.479,10-10
			V65.086V61.941z"/>
	</g>
</g>
<g>
	<path fill="none" stroke="#FF0000" stroke-width="5" stroke-linecap="round" stroke-linejoin="round" stroke-miterlimit="10" d="
		M100.938,32.321V21.594H86.602c-1.946,0-3.523-1.577-3.523-3.523V4.497H20.821c-1.946,0-3.523,1.578-3.523,3.523V47.5"/>
</g>
<line fill="none" stroke="#FF0000" stroke-width="5" stroke-linecap="round" stroke-linejoin="round" stroke-miterlimit="10" x1="84.256" y1="4.497" x2="100.938" y2="20.695"/>
</svg>
