<?xml version="1.0" encoding="utf-8"?>
<!-- Generator: Adobe Illustrator 16.0.0, SVG Export Plug-In . SVG Version: 6.00 Build 0)  -->
<!DOCTYPE svg PUBLIC "-//W3C//DTD SVG 1.1//EN" "http://www.w3.org/Graphics/SVG/1.1/DTD/svg11.dtd">
<svg version="1.1" xmlns="http://www.w3.org/2000/svg" xmlns:xlink="http://www.w3.org/1999/xlink" x="0px" y="0px" width="128px"
	 height="128px" viewBox="0 0 128 128" enable-background="new 0 0 128 128" xml:space="preserve">
<g id="Calque_3">
	<g>
		<path fill="none" stroke="#FF0000" stroke-width="5" stroke-linecap="round" stroke-linejoin="round" d="M54.321,5.649h17.199
			v24.607h9.791l-18.391,18.39L44.53,30.257h9.791V5.649z"/>
	</g>
	<g>
		<path fill="none" stroke="#FF0000" stroke-width="5" stroke-linecap="round" stroke-miterlimit="10" d="M3.927,124.351V65.955
			c0-4.165,2.065-6.248,6.197-6.248h2.871c1.444,0,2.47-0.227,3.074-0.681c0.604-0.453,1.074-1.335,1.41-2.646l0.504-2.016
			c0.537-2.115,1.227-3.408,2.066-3.879c0.807-0.471,2.754-0.705,5.845-0.705h19.247c2.787,0,4.567,0.219,5.341,0.654
			c0.772,0.438,1.444,1.613,2.015,3.527l0.555,1.864c0.57,1.915,1.1,3.04,1.588,3.376c0.486,0.336,1.838,0.504,4.055,0.504h34.816
			c2.385,0,4.006,0.445,4.862,1.335s1.285,2.562,1.285,5.013v2.859 M116.054,84.596c0.738-1.612,5.421-12.975,5.421-13.177
			c-0.101-0.705-1.143-1.058-3.124-1.058H37.029c-1.948,0-3.292,0.219-4.03,0.654c-0.74,0.438-1.496,1.429-2.268,2.973
			L3.927,124.351h85.305"/>
	</g>
	<circle fill="none" stroke="#FF0000" stroke-width="5" stroke-miterlimit="10" cx="100.598" cy="102.256" r="23.475"/>
	
		<polyline fill="none" stroke="#FF0000" stroke-width="5" stroke-linecap="round" stroke-linejoin="round" stroke-miterlimit="10" points="
		87.174,99.846 96.303,113.877 114.023,90.635 	"/>
</g>
<g id="Calque_1">
</g>
</svg>
