<?xml version="1.0" encoding="utf-8"?>
<!-- Generator: Adobe Illustrator 16.0.0, SVG Export Plug-In . SVG Version: 6.00 Build 0)  -->
<!DOCTYPE svg PUBLIC "-//W3C//DTD SVG 1.1//EN" "http://www.w3.org/Graphics/SVG/1.1/DTD/svg11.dtd">
<svg version="1.1" id="Calque_1" xmlns="http://www.w3.org/2000/svg" xmlns:xlink="http://www.w3.org/1999/xlink" x="0px" y="0px"
	 width="128px" height="128px" viewBox="0 0 128 128" enable-background="new 0 0 128 128" xml:space="preserve">
<g id="Calque_2" display="none">
</g>
<sodipodi:namedview  id="namedview7" inkscape:zoom="2.8710938" bordercolor="#666666" guidetolerance="10" objecttolerance="10" borderopacity="1" showgrid="false" inkscape:cx="7.8240306" pagecolor="#ffffff" inkscape:cy="41.675131" gridtolerance="10" inkscape:window-width="1519" inkscape:window-height="845" inkscape:pageshadow="2" inkscape:window-maximized="0" inkscape:window-x="0" inkscape:current-layer="Livello_1" inkscape:pageopacity="0" inkscape:window-y="0">
	</sodipodi:namedview>
<title  id="title2"></title>
<g>
	
		<circle fill="none" stroke="#FF0000" stroke-width="5" stroke-linecap="round" stroke-linejoin="round" stroke-miterlimit="10" cx="33.182" cy="25.277" r="8.797"/>
	<path fill="none" stroke="#FF0000" stroke-width="5" stroke-linecap="round" stroke-linejoin="round" stroke-miterlimit="10" d="
		M60.477,33.869c0-15.074-12.22-27.296-27.294-27.296c-15.076,0-27.296,12.222-27.296,27.296c0,10.609,6.065,19.783,14.907,24.301
		v9.055l7.738,7.737l-8.327,8.329l6.998,6.997l-6.37,6.37l6.85,6.849l-7.048,7.048l12.183,12.183l12.932-12.933V58.096h-0.027
		C54.481,53.553,60.477,44.419,60.477,33.869z"/>
</g>
<path fill="none" stroke="#FF0000" stroke-width="5" stroke-linecap="round" stroke-linejoin="round" stroke-miterlimit="10" d="
	M60.477,122.934l0.525-0.001c4.097-0.013,6.58-0.021,7.507-0.071c0.055-0.043,0.114-0.097,0.168-0.149l0.034-4.354l0.048-5.6
	l0.028-3.635l3.467-1.092l1.711-0.539c2.408-0.76,4.244-1.508,6.773-2.764c3.028-1.5,3.573-1.771,4.854-1.771
	c2.178,0,2.473,0.295,7.411,5.214c1.089,1.087,2.515,2.511,3.238,3.117c0.937-0.782,2.967-2.816,5.635-5.487l0.218-0.218
	c2.76-2.765,4.854-4.863,5.614-5.765c-0.563-0.623-1.61-1.731-3.142-3.27l-3.854-3.863l-2.643-2.649l1.799-3.282l0.563-1.027
	c1.353-2.474,2.93-6.179,3.666-8.611l0.396-1.311l1.065-3.519l3.676-0.031l5.605-0.047l4.363-0.035
	c0.072-0.073,0.148-0.16,0.199-0.231V56.033c-0.051-0.072-0.127-0.16-0.199-0.233l-4.354-0.036l-5.6-0.046l-3.641-0.03l-1.09-3.472
	l-0.553-1.761c-0.753-2.389-1.599-4.467-2.832-6.947l-1.222-2.452l-1.601-3.214l2.535-2.542l3.785-3.797
	c1.094-1.096,2.528-2.535,3.135-3.259c-0.789-0.968-2.914-3.111-5.709-5.933l-0.27-0.272c-2.602-2.625-4.579-4.619-5.477-5.371
	h-0.062c-0.707,0.587-2.162,2.035-3.267,3.134c-4.846,4.82-5.242,5.214-7.43,5.214c-1.324,0-2.025-0.356-4.643-1.682
	c-2.311-1.171-4.57-2.099-6.916-2.836l-1.76-0.554l-3.471-1.091l-0.029-3.637L68.69,9.618l-0.035-4.354
	c-0.072-0.073-0.16-0.148-0.23-0.2h-7.948"/>
<line fill="none" stroke="#FF0000" stroke-width="5" stroke-linecap="round" stroke-linejoin="round" stroke-miterlimit="10" x1="54.42" y1="63.999" x2="88.186" y2="63.999"/>
<line fill="none" stroke="#FF0000" stroke-width="5" stroke-linecap="round" stroke-linejoin="round" stroke-miterlimit="10" x1="54.42" y1="78.116" x2="88.186" y2="78.116"/>
<line fill="none" stroke="#FF0000" stroke-width="5" stroke-linecap="round" stroke-linejoin="round" stroke-miterlimit="10" x1="54.42" y1="92.435" x2="88.186" y2="92.435"/>
</svg>
