<?xml version="1.0" encoding="utf-8"?>
<!-- Generator: Adobe Illustrator 16.0.0, SVG Export Plug-In . SVG Version: 6.00 Build 0)  -->
<!DOCTYPE svg PUBLIC "-//W3C//DTD SVG 1.1//EN" "http://www.w3.org/Graphics/SVG/1.1/DTD/svg11.dtd">
<svg version="1.1" id="Calque_1" xmlns="http://www.w3.org/2000/svg" xmlns:xlink="http://www.w3.org/1999/xlink" x="0px" y="0px"
	 width="128px" height="128px" viewBox="0 0 128 128" enable-background="new 0 0 128 128" xml:space="preserve">
<g id="Calque_2" display="none">
</g>
<g>
	<g>
		<path fill="none" stroke="#FF0000" stroke-width="5" stroke-linecap="round" stroke-linejoin="round" stroke-miterlimit="10" d="
			M32.398,34.177c5.48-12.086,17.678-20.545,31.752-20.545l0,0c19.164,0,34.84,15.68,34.84,34.842v14.905"/>
		<path fill="none" stroke="#FF0000" stroke-width="5" stroke-linecap="round" stroke-linejoin="round" stroke-miterlimit="10" d="
			M98.99,71.021c-5.033,1.182-6.877-1.908-6.907-6.629c-0.028-4.715-0.405-15.918-0.405-15.918c0-15.18-12.35-27.529-27.527-27.529
			c-12.493,0-23.071,8.37-26.42,19.797c0,0-3.685,6.169-6.83-0.125"/>
		<path fill="none" stroke="#FF0000" stroke-width="5" stroke-linecap="round" stroke-linejoin="round" stroke-miterlimit="10" d="
			M30.899,50.95c8.771,5.138,13.04-6.975,16.103-13.167c3.063-6.192,9.924-9.522,17.148-9.522c11.146,0,20.213,9.068,20.213,20.213
			c0,0-1.918,34.124,14.627,30.499"/>
		<path fill="none" stroke="#FF0000" stroke-width="5" stroke-linecap="round" stroke-linejoin="round" stroke-miterlimit="10" d="
			M30.899,59.618c7.562,1.762,13.391-1.648,16.742-5.417c2.641-2.965,3.224-6.085,3.224-6.085
			c2.405-8.823,6.173-12.539,13.285-12.539c7.113,0,12.897,5.784,12.897,12.897c0,0-0.313,20.858,4.317,25.639"/>
		<path fill="none" stroke="#FF0000" stroke-width="5" stroke-linecap="round" stroke-linejoin="round" stroke-miterlimit="10" d="
			M30.899,68.884c25.232,1.046,27.667-20.41,27.667-20.41c0-3.08,2.506-5.584,5.583-5.584c3.08,0,5.584,2.505,5.584,5.584"/>
		<path fill="none" stroke="#FF0000" stroke-width="5" stroke-linecap="round" stroke-linejoin="round" stroke-miterlimit="10" d="
			M64.15,50.95c0,0,2.811,22.864-33.251,26.452"/>
		<path fill="none" stroke="#FF0000" stroke-width="5" stroke-linecap="round" stroke-linejoin="round" stroke-miterlimit="10" d="
			M71.913,74.913c0,0,10.987,13.392,26.719,11.104"/>
		<path fill="none" stroke="#FF0000" stroke-width="5" stroke-linecap="round" stroke-linejoin="round" stroke-miterlimit="10" d="
			M29.588,85.384c0,0,28.363-2.333,36.104-15.749"/>
		<path fill="none" stroke="#FF0000" stroke-width="5" stroke-linecap="round" stroke-linejoin="round" stroke-miterlimit="10" d="
			M70.729,54.845c0,0-2.453,7.787,1.185,12.462"/>
		<path fill="none" stroke="#FF0000" stroke-width="5" stroke-linecap="round" stroke-linejoin="round" stroke-miterlimit="10" d="
			M31.748,93.786c0,0,23.625-2.853,34.902-13.688"/>
		<path fill="none" stroke="#FF0000" stroke-width="5" stroke-linecap="round" stroke-linejoin="round" stroke-miterlimit="10" d="
			M70.918,84.866c0,0,9.168,10.428,25,10.428"/>
		<path fill="none" stroke="#FF0000" stroke-width="5" stroke-linecap="round" stroke-linejoin="round" stroke-miterlimit="10" d="
			M35.725,101.104c0,0,22.288-2.994,29.222-10.764c0,0,9.945,10.816,25.834,13.094"/>
		<path fill="none" stroke="#FF0000" stroke-width="5" stroke-linecap="round" stroke-linejoin="round" stroke-miterlimit="10" d="
			M41.015,107.753c0,0,18.269-3.586,23.188-7.722c0,0,16.729,9.936,20.311,9.228"/>
		<path fill="none" stroke="#FF0000" stroke-width="5" stroke-linecap="round" stroke-linejoin="round" stroke-miterlimit="10" d="
			M50.316,112.995c0,0,10.894-7.831,27.653,1.137"/>
	</g>
	<path fill="none" stroke="#FF0000" stroke-width="5" stroke-linecap="round" stroke-linejoin="round" stroke-miterlimit="10" d="
		M93.259,4.275h13.673c9.33,0,16.967,7.636,16.967,16.968v14.333"/>
	<path fill="none" stroke="#FF0000" stroke-width="5" stroke-linecap="round" stroke-linejoin="round" stroke-miterlimit="10" d="
		M4.682,35.577V21.243c0-9.333,7.636-16.968,16.968-16.968h13.396"/>
	<path fill="none" stroke="#FF0000" stroke-width="5" stroke-linecap="round" stroke-linejoin="round" stroke-miterlimit="10" d="
		M35.046,123.489H21.65c-9.333,0-16.968-7.636-16.968-16.97v-12.73"/>
	<path fill="none" stroke="#FF0000" stroke-width="5" stroke-linecap="round" stroke-linejoin="round" stroke-miterlimit="10" d="
		M123.898,93.789v12.73c0,9.334-7.639,16.97-16.969,16.97H93.259"/>
</g>
</svg>
