<?xml version="1.0" encoding="UTF-8" standalone="no"?>
<!DOCTYPE svg PUBLIC "-//W3C//DTD SVG 1.1//EN" "http://www.w3.org/Graphics/SVG/1.1/DTD/svg11.dtd">
<svg width="100%" height="100%" viewBox="0 0 128 128" version="1.1" xmlns="http://www.w3.org/2000/svg" xmlns:xlink="http://www.w3.org/1999/xlink" xml:space="preserve" xmlns:serif="http://www.serif.com/" style="fill-rule:evenodd;clip-rule:evenodd;stroke-linecap:round;stroke-linejoin:round;stroke-miterlimit:10;">
    <g>
        <circle cx="33.182" cy="25.277" r="8.797" style="fill:none;stroke:rgb(255,0,0);stroke-width:5px;"/>
        <path d="M60.477,33.869C60.477,18.795 48.257,6.573 33.183,6.573C18.107,6.573 5.887,18.795 5.887,33.869C5.887,44.478 11.952,53.652 20.794,58.17L20.794,67.225L28.532,74.962L20.205,83.291L27.203,90.288L20.833,96.658L27.683,103.507L20.635,110.555L32.818,122.738L45.75,109.805L45.75,58.096L45.723,58.096C54.481,53.553 60.477,44.419 60.477,33.869Z" style="fill:none;fill-rule:nonzero;stroke:rgb(255,0,0);stroke-width:5px;"/>
    </g>
    <path d="M60.477,122.934L61.002,122.933C65.099,122.92 67.582,122.912 68.509,122.862C68.564,122.819 68.623,122.765 68.677,122.713L68.711,118.359L68.759,112.759L68.787,109.124L72.254,108.032L73.965,107.493C76.373,106.733 78.209,105.985 80.738,104.729C83.766,103.229 84.311,102.958 85.592,102.958C87.77,102.958 88.065,103.253 93.003,108.172C94.092,109.259 95.518,110.683 96.241,111.289C97.178,110.507 99.208,108.473 101.876,105.802L102.094,105.584C104.854,102.819 106.948,100.721 107.708,99.819C107.145,99.196 106.098,98.088 104.566,96.549L100.712,92.686L98.069,90.037L99.868,86.755L100.431,85.728C101.784,83.254 103.361,79.549 104.097,77.117L104.493,75.806L105.558,72.287L109.234,72.256L114.839,72.209L119.202,72.174C119.274,72.101 119.35,72.014 119.401,71.943L119.401,56.033C119.35,55.961 119.274,55.873 119.202,55.8L114.848,55.764L109.248,55.718L105.607,55.688L104.517,52.216L103.964,50.455C103.211,48.066 102.365,45.988 101.132,43.508L99.91,41.056L98.309,37.842L100.844,35.3L104.629,31.503C105.723,30.407 107.157,28.968 107.764,28.244C106.975,27.276 104.85,25.133 102.055,22.311L101.785,22.039C99.183,19.414 97.206,17.42 96.308,16.668L96.246,16.668C95.539,17.255 94.084,18.703 92.979,19.802C88.133,24.622 87.737,25.016 85.549,25.016C84.225,25.016 83.524,24.66 80.906,23.334C78.595,22.163 76.336,21.235 73.99,20.498L72.23,19.944L68.759,18.853L68.73,15.216L68.69,9.618L68.655,5.264C68.583,5.191 68.495,5.116 68.425,5.064L60.477,5.064" style="fill:none;fill-rule:nonzero;stroke:rgb(255,0,0);stroke-width:5px;"/>
    <path d="M54.42,63.999L88.186,63.999" style="fill:none;fill-rule:nonzero;stroke:rgb(255,0,0);stroke-width:5px;"/>
    <path d="M54.42,78.116L88.186,78.116" style="fill:none;fill-rule:nonzero;stroke:rgb(255,0,0);stroke-width:5px;"/>
    <path d="M54.42,92.435L88.186,92.435" style="fill:none;fill-rule:nonzero;stroke:rgb(255,0,0);stroke-width:5px;"/>
</svg>
