<?xml version="1.0" encoding="utf-8"?>
<!-- Generator: Adobe Illustrator 16.0.0, SVG Export Plug-In . SVG Version: 6.00 Build 0)  -->
<!DOCTYPE svg PUBLIC "-//W3C//DTD SVG 1.1//EN" "http://www.w3.org/Graphics/SVG/1.1/DTD/svg11.dtd">
<svg version="1.1" id="Calque_1" xmlns="http://www.w3.org/2000/svg" xmlns:xlink="http://www.w3.org/1999/xlink" x="0px" y="0px"
	 width="128px" height="128px" viewBox="0 0 128 128" enable-background="new 0 0 128 128" xml:space="preserve">
<g id="Calque_1_3_" display="none">
	<g id="Calque_1_2_" display="inline">
		<g id="Calque_1_1_" display="none">
		</g>
		<line fill="none" stroke="#FF0000" stroke-width="11" stroke-miterlimit="10" x1="5.1" y1="23.43" x2="58.226" y2="23.43"/>
		<polygon fill="#FF0000" points="59.673,98.5 5.1,98.5 5.1,87.5 49.771,87.5 49.771,93.469 57.501,94.107 		"/>
		<line fill="none" stroke="#FF0000" stroke-width="11" stroke-miterlimit="10" x1="58.226" y1="35.064" x2="86.372" y2="35.064"/>
		<line fill="none" stroke="#FF0000" stroke-width="11" stroke-miterlimit="10" x1="14.986" y1="49.512" x2="42.757" y2="49.512"/>
		<polygon fill="#FF0000" points="57.127,68.146 42.757,68.146 42.757,57.147 65.837,57.147 56.636,65.693 		"/>
		<path fill="none" stroke="#FF0000" stroke-width="5" stroke-linecap="round" stroke-linejoin="round" stroke-miterlimit="10" d="
			M56.148,111.904l-45.126,0.003c-3.316,0-6.004-2.915-6.004-6.509V15.383c0-3.594,2.688-6.507,6.004-6.507h107.083
			c3.318,0,6.006,2.914,6.006,6.507v90.016c0,3.595-2.16,6.479-5.479,6.479l-3.063,0.001"/>
	</g>
</g>
<g id="Calque_3">
	<g id="Calque_1_4_" xmlns:serif="http://www.serif.com/">
		<g id="path17">
			<path fill="none" stroke="#FF0000" stroke-width="5" stroke-linecap="round" stroke-linejoin="round" stroke-miterlimit="10" d="
				M83.92,43.895l8.003,0.633c0.049,0.039,0.105,0.095,0.153,0.149l-0.149,3.018l-0.192,3.879l-0.125,2.544l2.392,0.877l0.891,0.324
				c1.654,0.608,4.154,1.847,5.811,2.88l0.688,0.431l2.199,1.375l1.939-1.724l2.824-2.512c1.125-0.999,1.932-1.677,2.388-2.042
				c0.592,0.562,1.962,2.094,3.764,4.114l0.142,0.159c1.742,1.952,3.067,3.436,3.572,4.114c-0.448,0.477-1.489,1.406-2.285,2.117
				c-3.6,3.22-3.814,3.413-3.901,4.918c-0.051,0.888,0.115,1.274,1.031,3.428c0.77,1.8,1.214,3.099,1.644,4.794l0.305,1.206
				l0.616,2.441l2.515,0.164l3.871,0.257l3.013,0.196c0.032,0.041,0.067,0.084,0.097,0.123c-0.002,0.644-0.097,2.361-0.251,5.196
				l-0.06,1.078c-0.149,2.586-0.268,4.248-0.319,4.797c-0.024,0.046-0.065,0.1-0.107,0.139l-3.038-0.149l-3.878-0.191l-2.544-0.125
				l-0.878,2.391l-0.326,0.895c-0.594,1.617-1.759,3.978-2.836,5.733l-0.484,0.791l-1.345,2.191l1.705,1.92l2.51,2.827
				c0.997,1.123,1.679,1.932,2.044,2.386c-0.585,0.627-2.261,2.116-4.164,3.809l-0.135,0.118c-1.937,1.725-3.416,3.038-4.096,3.544
				c-0.479-0.453-1.418-1.503-2.135-2.303l-2.478-2.771l-1.66-1.855l-2.287,0.98l-1.742,0.747c-1.776,0.76-3.246,1.264-4.917,1.685
				l-1.24,0.313l-2.444,0.616l-0.165,2.516l-0.254,3.875l-0.198,3.01c-0.052,0.048-0.116,0.097-0.167,0.13l-11.005-0.634
				c-0.049-0.038-0.104-0.094-0.151-0.146l0.149-3.016l0.19-3.875l0.125-2.529l-2.372-0.887l-1.042-0.391
				c-1.462-0.546-3.59-1.57-4.943-2.38l-1.415-0.848l-2.175-1.301l-1.898,1.676l-2.813,2.484c-0.873,0.771-1.929,1.703-2.439,2.076
				l-0.037-0.002c-0.592-0.556-1.882-2.016-3.581-3.938l-0.173-0.197c-1.755-1.987-3.192-3.613-3.711-4.329
				c0.451-0.478,1.487-1.402,2.277-2.109c3.157-2.822,3.814-3.411,3.905-5c0.044-0.77-0.147-1.542-0.54-2.201
				c-0.08-0.171-0.265-0.573-0.52-1.165c-0.644-1.499-1.215-3.18-1.608-4.739l-0.313-1.239l-0.617-2.443l-2.515-0.165l-3.871-0.256
				l-3.018-0.198c-0.046-0.05-0.093-0.11-0.122-0.156v-3.168"/>
		</g>
		<path id="path19_1_" fill="none" stroke="#FF0000" stroke-width="5" stroke-linecap="round" stroke-miterlimit="10" d="
			M89.101,69.44c4.267,1.527,7.665,4.644,9.565,8.77c0.468,1.019,1.193,3.423,1.319,4.385c0.128,0.953,0.177,2.777,0.099,3.718
			c-0.494,6.049-4.149,11.243-9.744,13.843c-1.55,0.721-4.127,1.346-5.838,1.421c-6.968,0.292-13.107-3.447-16.055-9.778
			c-0.714-1.534-1.34-4.118-1.416-5.829"/>
	</g>
</g>
<path id="path29" fill="none" stroke="#FF0000" stroke-width="5" stroke-miterlimit="10" d="M77.185,70.498
	c0,3.693-2.993,6.688-6.688,6.688H9.387c-3.692,0-6.687-2.994-6.687-6.688V9.387C2.7,5.693,5.694,2.7,9.387,2.7h61.111
	c3.693,0,6.688,2.994,6.688,6.687V59.07L77.185,70.498z"/>
<line id="line31" fill="none" stroke="#FF0000" stroke-width="12" stroke-miterlimit="10" x1="8.236" y1="18.876" x2="34.33" y2="18.876"/>
<line id="line33" fill="none" stroke="#FF0000" stroke-width="12" stroke-miterlimit="10" x1="33.651" y1="60.598" x2="57.224" y2="60.598"/>
<line id="line37" fill="none" stroke="#FF0000" stroke-width="12" stroke-miterlimit="10" x1="34.311" y1="39.76" x2="71.168" y2="39.76"/>
<path id="path2790" fill="none" stroke="#FF0000" d="M34.019,12.865l-0.056,53.779"/>
<path id="path2790-1" fill="none" stroke="#FF0000" d="M56.811,54.583v12.06"/>
</svg>
