<?xml version="1.0" encoding="utf-8"?>
<!-- Generator: Adobe Illustrator 16.0.0, SVG Export Plug-In . SVG Version: 6.00 Build 0)  -->
<!DOCTYPE svg PUBLIC "-//W3C//DTD SVG 1.1//EN" "http://www.w3.org/Graphics/SVG/1.1/DTD/svg11.dtd">
<svg version="1.1" id="Calque_1" xmlns:serif="http://www.serif.com/"
	 xmlns="http://www.w3.org/2000/svg" xmlns:xlink="http://www.w3.org/1999/xlink" x="0px" y="0px" width="128px" height="128px"
	 viewBox="0 0 128 128" enable-background="new 0 0 128 128" xml:space="preserve">
<g id="path17">
	<path fill="none" stroke="#FF0000" stroke-width="5" stroke-linecap="round" stroke-linejoin="round" stroke-miterlimit="10" d="
		M48.464,103.827c-2-0.771-4.244-1.785-6.066-2.763l-1.18-0.633l-3.268-1.756l-2.627,2.617l-3.864,3.852
		c-1.537,1.528-2.644,2.578-3.268,3.142c-0.952-0.792-3.237-3.082-5.834-5.685l-0.183-0.186c-2.644-2.646-4.66-4.669-5.446-5.605
		c0.614-0.729,2.048-2.168,3.141-3.266l3.788-3.801l2.536-2.544l-1.602-3.216l-1.22-2.448c-1.243-2.495-2.091-4.571-2.836-6.943
		l-0.553-1.761l-1.09-3.473l-3.639-0.029l-5.605-0.044l-4.353-0.035c-0.073-0.071-0.148-0.159-0.201-0.229V53.11
		c0.052-0.072,0.127-0.159,0.2-0.231l4.357-0.036l5.6-0.046l3.655-0.03l1.081-3.491l0.476-1.536c0.666-2.152,1.964-5.3,3.02-7.32
		l1.103-2.108l1.695-3.241l-2.574-2.597l-3.812-3.846c-1.183-1.193-2.614-2.638-3.195-3.343v-0.054
		c0.752-0.899,2.75-2.879,5.38-5.486l0.268-0.265c2.719-2.695,4.941-4.898,5.929-5.707c0.727,0.611,2.146,2.027,3.229,3.106
		c4.331,4.316,5.232,5.214,7.528,5.214c1.113,0,2.211-0.341,3.128-0.96c0.238-0.13,0.804-0.43,1.635-0.846
		c2.105-1.052,4.482-2.015,6.695-2.71l1.761-0.554l3.469-1.092l0.03-3.637l0.046-5.598l0.036-4.365
		c0.068-0.07,0.149-0.142,0.215-0.189h15.92"/>
	<path fill="none" stroke="#FF0000" stroke-width="5" stroke-linecap="round" stroke-linejoin="round" stroke-miterlimit="10" d="
		M71.969,2.142c0.07,0.052,0.158,0.127,0.23,0.2l0.035,4.354l0.047,5.598l0.029,3.637l3.471,1.091l1.76,0.554
		c2.346,0.737,4.605,1.665,6.916,2.836c2.617,1.326,3.318,1.682,4.643,1.682c2.188,0,2.584-0.394,7.43-5.214
		c1.104-1.099,2.56-2.547,3.267-3.134h0.062c0.897,0.752,2.875,2.746,5.477,5.371l0.27,0.272c2.795,2.822,4.92,4.965,5.709,5.933
		c-0.606,0.724-2.041,2.163-3.135,3.259l-3.785,3.797l-2.535,2.542l1.601,3.214l1.222,2.452c1.233,2.48,2.079,4.558,2.832,6.947
		l0.553,1.761l1.09,3.472l3.641,0.03l5.6,0.046l4.354,0.036c0.072,0.073,0.148,0.161,0.199,0.233V69.02
		c-0.051,0.071-0.127,0.158-0.199,0.231l-4.363,0.035l-5.605,0.047l-3.676,0.031l-1.065,3.519l-0.396,1.311
		c-0.736,2.433-2.313,6.138-3.666,8.611l-0.563,1.027l-1.799,3.282"/>
</g>
<path id="path19_2_" fill="none" stroke="#FF0000" stroke-width="5" stroke-miterlimit="10" d="M61.816,87.85
	c-1.379-0.146-3.955-0.703-5.245-1.131c-8.315-2.759-14.352-9.656-16.09-18.389c-0.481-2.418-0.48-6.247,0.002-8.671
	c1.965-9.871,9.304-17.207,19.187-19.178c2.396-0.478,6.232-0.476,8.66,0.003c3.545,0.701,6.769,2.086,9.555,4.079"/>
<g id="Calque_1_1_">
	<g id="Calque_2" display="none">
		<g display="inline">
			<path fill="#FFFFFF" d="M81.885,82.867c6.718,0,11.104-9.238,11.829-18.679H71.938c-0.607,0.076-1.227,0.142-1.868,0.179
				C70.838,73.745,75.209,82.867,81.885,82.867z"/>
			<path fill="#FFFFFF" d="M101.792,90.483l-6.89-2.515l-11.021,6.245l-4.241-0.064l-11.074-6.178l-6.832,2.513
				c-1.076,0.52-13.851,7.028-13.089,23.648c0.386,0.61,2.261,2.933,8.235,2.982c-0.188-3.147-0.513-10.168-0.111-16.322
				l3.384,0.222c-0.433,6.632,0.023,14.564,0.175,16.857c3.927,3.476,12.146,5.587,21.644,5.504
				c9.27-0.067,17.489-2.212,21.257-5.502c0.14-2.342,0.559-10.447,0.105-16.966l3.383-0.236c0.425,6.078,0.129,13.257-0.045,16.442
				c5.906-0.052,7.791-2.334,8.209-2.993C115.631,97.53,102.899,91.018,101.792,90.483z"/>
			<path fill="#FFFFFF" d="M60.979,64.188h4.447c0,0.002,0,0.003,0,0.004c-0.932,2.014-1.266,5.476,3.192,9.915
				c2.411,6.919,6.899,12.152,13.266,12.152c6.241,0,10.847-5.344,13.306-12.436c4.169-4.311,3.815-7.666,2.902-9.636h4.451
				c0.867,0,1.57-0.703,1.57-1.57c0-0.867-0.703-1.571-1.57-1.571h-2.101c0.011-0.238,0.017-0.479,0.017-0.721
				c0-7.547-4.412-14.042-10.752-16.971c0.018,0.742,0.022,1.58,0.022,2.523v2.714c0,7.833-0.426,8.299-7.586,8.299
				c-7.162,0-7.587-0.466-7.587-8.299v-2.714c0-0.947,0.007-1.784,0.03-2.528C68.245,46.28,63.83,52.777,63.83,60.327
				c0,0.244,0.021,0.481,0.033,0.721h-2.885c-0.867,0-1.57,0.704-1.57,1.571C59.409,63.485,60.113,64.188,60.979,64.188z
				 M71.938,64.188h21.775c-0.726,9.44-5.11,18.679-11.83,18.679c-6.676,0-11.047-9.122-11.814-18.5
				C70.71,64.33,71.33,64.265,71.938,64.188z"/>
			<path fill="#FFFFFF" d="M103.156,87.377l-10.149-3.711l-9.051,5.295h-4.444l-9.053-5.301l-9.968,3.665l-0.124,0.051
				c-0.163,0.074-16.201,7.695-15.094,27.289l0.016,0.254l0.085,0.235c0.085,0.229,2.078,5.357,11.697,5.357
				c0.357,0,0.728-0.01,1.107-0.024c4.559,3.957,13.142,6.282,23.33,6.282c0.162,0,0.324-0.001,0.487-0.002
				c7.992-0.055,18.138-1.752,23.388-6.279c10.537,0.39,12.674-5.095,12.763-5.335l0.087-0.234l0.016-0.254
				C119.354,95.072,103.318,87.451,103.156,87.377z M114.879,114.12c-0.418,0.66-2.304,2.941-8.209,2.993
				c0.174-3.186,0.47-10.363,0.047-16.441l-3.385,0.235c0.455,6.519,0.036,14.625-0.104,16.966
				c-3.767,3.291-11.986,5.435-21.256,5.502c-9.498,0.083-17.718-2.027-21.645-5.504c-0.152-2.295-0.608-10.225-0.176-16.858
				l-3.384-0.221c-0.402,6.152-0.077,13.174,0.111,16.322c-5.975-0.048-7.849-2.371-8.235-2.981
				c-0.76-16.621,12.014-23.132,13.09-23.649l6.832-2.512l11.074,6.177l4.241,0.064l11.022-6.245l6.89,2.515
				C102.899,91.018,115.631,97.53,114.879,114.12z"/>
			<path fill="#FFFFFF" d="M87.804,42.601c-0.061-1.259-0.201-2.097-0.549-2.489c-0.552-0.617-2.215-0.647-5.109-0.647
				c-2.853,0-4.566,0-5.116,0.609c-0.348,0.386-0.487,1.237-0.544,2.527c1.782-0.588,3.682-0.911,5.656-0.911
				C84.12,41.689,86.021,42.011,87.804,42.601z"/>
			<path fill="#FFFFFF" d="M76.443,48.592c0,3.215,0,5.155,0.588,5.806c0.55,0.608,2.267,0.608,5.114,0.608
				c2.847,0,4.563,0,5.112-0.608c0.589-0.65,0.589-2.59,0.589-5.806v-2.714c0-1.311-0.003-2.395-0.045-3.277
				c-1.782-0.588-3.684-0.911-5.661-0.911c-1.975,0-3.875,0.322-5.657,0.911c-0.04,0.885-0.043,1.971-0.043,3.277v2.714H76.443z"/>
		</g>
	</g>
	<g id="Calque_3" display="none">
		<g display="inline">
			<path fill="#FFFFFF" d="M92.438,61.953c2.7-12.93-5.552-20.22-16.293-20.22c-19.255,0-15.895,21.097-15.895,21.097
				c0.021,0.003,0.042,0.003,0.062,0.005c-0.879,1.988-1.139,5.326,3.036,9.582c2.384,6.978,6.875,12.277,13.267,12.277
				c6.156,0,10.71-5.225,13.174-12.19C94.76,67.491,93.585,63.745,92.438,61.953z M76.614,81.319
				c-6.644,0-10.995-9.079-11.758-18.411c8.351-0.491,13.878-4.447,16.851-7.351c1.414,2.541,4.339,4.246,6.774,5.285
				C88.237,70.853,83.746,81.319,76.614,81.319z"/>
		</g>
		<g display="inline">
			<path fill="#FFFFFF" d="M72.912,120.443c-0.578-0.18-1.058-0.633-1.243-1.243l-9.751-32.179c-0.166-0.548-0.07-1.115,0.22-1.563
				l-6.06,2.229c-0.881,0.424-14.895,7.461-13.905,25.306c0.158,0.367,1.949,4.08,9.868,4.08c0.328-0.001,0.675-0.012,1.027-0.023
				c0.025-0.001,0.051-0.003,0.075-0.003c0.451,0,0.888,0.163,1.229,0.46c3.661,3.178,10.42,5.231,18.482,5.694l-0.14-0.144
				L72.912,120.443z"/>
			<path fill="#FFFFFF" d="M97.171,87.702l-5.956-2.19c0.286,0.448,0.383,1.014,0.217,1.559l-9.856,32.528
				c-0.184,0.609-0.661,1.06-1.237,1.241l0.169,2.218l-0.1,0.102c6.773-0.458,14.369-2.107,18.486-5.653
				c0.358-0.311,0.818-0.462,1.294-0.454c0.34,0.012,0.673,0.021,0.993,0.021c7.872-0.001,9.69-3.671,9.869-4.082
				C112.029,95.359,98.357,88.282,97.171,87.702z"/>
			<path fill="#FFFFFF" d="M98.682,84.267c-0.045-0.02-0.087-0.038-0.133-0.054l-9.688-3.565c-0.947-0.35-2,0.114-2.383,1.047
				l-1.282,3.123c-0.192,0.474-0.188,1.001,0.017,1.47c0.207,0.466,0.593,0.83,1.071,1.004l1.044,0.385l-6.278,20.724l-0.646-11.295
				c-0.01-0.171-0.043-0.338-0.097-0.493l1.733-2.458c0.324-0.461,0.424-1.043,0.272-1.586c-0.032-0.114-0.038-0.134-1.214-3.181
				c-0.297-0.771-1.056-1.25-1.873-1.196c-0.197,0.007-1.156,0.012-2.613,0.012c-1.46,0-2.418-0.005-2.616-0.012
				c-0.813-0.063-1.573,0.423-1.872,1.191c-1.444,3.717-1.444,3.717-1.13,4.438c0.051,0.117,0.113,0.228,0.188,0.333l1.732,2.458
				c-0.052,0.157-0.085,0.322-0.095,0.493l-0.623,10.898l-6.175-20.374l0.932-0.342c0.479-0.176,0.866-0.54,1.07-1.008
				c0.205-0.466,0.21-0.998,0.016-1.472l-1.293-3.121c-0.387-0.93-1.438-1.39-2.381-1.042l-9.569,3.518
				c-0.023,0.007-0.045,0.015-0.066,0.025l-0.124,0.05c-0.023,0.012-0.046,0.02-0.068,0.03c-0.172,0.079-17.283,8.169-16.109,28.968
				l0.014,0.251c0.01,0.187,0.048,0.366,0.111,0.542l0.085,0.232c0.247,0.672,2.712,6.563,13.404,6.563
				c0.146,0,0.296-0.003,0.448-0.005c5.016,3.968,13.647,6.23,23.86,6.23h0.008l0.498-0.002c3.848-0.027,16.689-0.565,23.907-6.228
				c0.139,0.002,0.279,0.004,0.415,0.004c10.705-0.002,13.157-5.896,13.401-6.566l0.085-0.234c0.063-0.171,0.102-0.351,0.11-0.532
				l0.015-0.253C115.97,92.409,98.854,84.345,98.682,84.267z M72.715,92.929c-0.007-0.014,1.158-3.01,1.158-3.01
				c0.137,0.02,5.342,0.02,5.478,0c0,0,1.146,2.964,1.157,3.01l-1.852,2.63h-4.088L72.715,92.929z M111.05,112.991
				c-0.179,0.411-1.997,4.081-9.869,4.082c-0.318,0-0.653-0.011-0.993-0.021c-0.475-0.008-0.936,0.144-1.294,0.454
				c-4.117,3.546-11.713,5.195-18.486,5.653l-3.795,2.426l-3.758-2.384c-8.063-0.462-14.822-2.516-18.482-5.694
				c-0.342-0.297-0.778-0.46-1.229-0.46c-0.024,0-0.051,0.002-0.075,0.003c-0.352,0.014-0.699,0.021-1.027,0.022
				c-7.919,0-9.71-3.713-9.868-4.079c-0.989-17.844,13.024-24.881,13.905-25.305l6.06-2.229c-0.29,0.448-0.386,1.016-0.22,1.563
				l9.751,32.179c0.186,0.61,0.666,1.063,1.243,1.243l1.779-23.374h3.84l1.806,23.769c0.577-0.181,1.055-0.633,1.237-1.241
				l9.856-32.528c0.166-0.545,0.071-1.11-0.218-1.559l5.958,2.19C98.357,88.282,112.029,95.359,111.05,112.991z"/>
			<path fill="#FFFFFF" d="M77.683,93.824l0.717-1.017c-0.105-0.27-0.221-0.571-0.331-0.856c-0.377,0-0.853,0-1.455,0
				c-0.607,0-1.085,0-1.461,0c-0.119,0.309-0.233,0.6-0.332,0.854l0.72,1.02H77.683z"/>
			<path fill="#FFFFFF" d="M78.656,95.559l1.851-2.63c-0.013-0.046-1.157-3.01-1.157-3.01c-0.135,0.02-5.34,0.02-5.477,0
				c0,0-1.165,2.996-1.159,3.01l1.854,2.63H78.656z"/>
		</g>
		<g display="inline">
			<path fill="#FFFFFF" d="M100.778,53.434c0,0.362-0.293,0.656-0.655,0.656h-2.869c-0.362,0-0.655-0.294-0.655-0.656v-2.868
				c0-0.362,0.293-0.656,0.655-0.656h2.869c0.362,0,0.655,0.293,0.655,0.656V53.434z"/>
			<path fill="#FFFFFF" d="M106.884,53.434c0,0.362-0.292,0.656-0.655,0.656h-2.869c-0.362,0-0.655-0.294-0.655-0.656v-2.868
				c0-0.362,0.293-0.656,0.655-0.656h2.869c0.363,0,0.655,0.293,0.655,0.656V53.434z"/>
			<path fill="#FFFFFF" d="M112.948,53.434c0,0.362-0.293,0.656-0.655,0.656h-2.868c-0.362,0-0.655-0.294-0.655-0.656v-2.868
				c0-0.362,0.293-0.656,0.655-0.656h2.868c0.362,0,0.655,0.293,0.655,0.656V53.434z"/>
		</g>
		<g display="inline">
			<path fill="#FFFFFF" d="M93.211,61.216c0,0.292-0.009,0.582-0.02,0.871h6.31v7.727l6.293-7.727h16.999V41.911H86.756v3.266
				C90.705,49.045,93.211,54.792,93.211,61.216z"/>
			<path fill="#FFFFFF" d="M124.156,38.34H85.392c-1.237,0-2.206,1.043-2.206,2.375v2.516c1.285,0.754,2.482,0.88,3.57,1.947v-3.267
				h36.035v20.176h-16.997l-6.293,7.727v-7.727l-7.063-0.134c-0.044,1.22,0.578,2.546,0.361,3.705h3.131v14.195l11.563-14.195
				h16.664c1.237,0,2.207-1.044,2.207-2.375V40.716C126.361,39.384,125.395,38.34,124.156,38.34z"/>
		</g>
	</g>
	<path fill="#FFFFFF" stroke="#FF0000" stroke-width="5" stroke-miterlimit="10" d="M96.822,60.55c0,4.173-1.039,8.031-2.799,11.156
		C91.391,76.38,87.146,81.5,82.359,81.5c-4.709,0-8.893-5.022-11.532-9.567c-1.84-3.163-2.93-7.106-2.93-11.382
		c0-10.418,6.475-18.864,14.462-18.864S96.822,50.132,96.822,60.55z"/>
</g>
<g id="Calque_2_1_">
	<path fill="#FFFFFF" stroke="#FF0000" stroke-width="5" stroke-miterlimit="10" d="M70.754,84.283c0,0,3.582,7.022,11.454,7.022
		c7.873,0,11.162-7.022,11.162-7.022s25.237,5.25,25.951,31.489c0,0-6.667,6.006-12.619,3.388c0,0-6.062,5.951-24.343,5.951
		c-18.28,0-23.747-5.713-23.747-5.713s-7.142,0.714-11.904-4.048C46.709,115.351,44.805,91.068,70.754,84.283z"/>
	<path fill="#FFFFFF" stroke="#FF0000" stroke-width="5" stroke-miterlimit="10" d="M57.943,100.857c0,0-0.997,11.875,0.67,18.541"
		/>
	<path fill="#FFFFFF" stroke="#FF0000" stroke-width="5" stroke-miterlimit="10" d="M106.226,100.857c0,0,0.715,11.16,0.477,18.303"
		/>
</g>
</svg>
