<?xml version="1.0" encoding="utf-8"?>
<!-- Generator: Adobe Illustrator 16.0.0, SVG Export Plug-In . SVG Version: 6.00 Build 0)  -->
<!DOCTYPE svg PUBLIC "-//W3C//DTD SVG 1.1//EN" "http://www.w3.org/Graphics/SVG/1.1/DTD/svg11.dtd">
<svg version="1.1" id="Calque_1" xmlns="http://www.w3.org/2000/svg" xmlns:xlink="http://www.w3.org/1999/xlink" x="0px" y="0px"
	 width="128px" height="128px" viewBox="0 0 128 128" enable-background="new 0 0 128 128" xml:space="preserve">
<g id="Calque_1_1_">
	<g id="Calque_2" display="none">
		<g display="inline">
			<path fill="none" d="M65.085,64.747c9.406,0,15.547-12.935,16.563-26.153h-30.49c-0.851,0.106-1.718,0.198-2.616,0.25
				C49.617,51.975,55.738,64.747,65.085,64.747z"/>
			<path fill="none" d="M92.959,75.411l-9.646-3.521L67.88,80.636l-5.938-0.091l-15.506-8.65l-9.566,3.519
				c-1.507,0.728-19.394,9.841-18.328,33.112c0.541,0.854,3.165,4.105,11.531,4.175c-0.264-4.405-0.719-14.237-0.156-22.853
				l4.739,0.31c-0.606,9.286,0.032,20.393,0.246,23.604c5.498,4.867,17.007,7.822,30.305,7.707
				c12.979-0.095,24.488-3.097,29.764-7.704c0.194-3.279,0.781-14.628,0.146-23.755l4.738-0.331
				c0.595,8.51,0.179,18.562-0.063,23.021c8.269-0.072,10.908-3.268,11.493-4.19C112.336,85.279,94.51,76.16,92.959,75.411z"/>
			<path fill="#FF0000" d="M35.814,38.594h6.227c0,0.002,0,0.004,0,0.006c-1.305,2.819-1.772,7.667,4.469,13.882
				c3.377,9.688,9.662,17.016,18.575,17.016c8.739,0,15.188-7.482,18.631-17.413c5.837-6.035,5.343-10.733,4.063-13.491h6.232
				c1.215,0,2.198-0.984,2.198-2.199c0-1.214-0.983-2.199-2.198-2.199H91.07c0.016-0.334,0.022-0.671,0.022-1.009
				c0-10.568-6.177-19.661-15.054-23.763c0.025,1.039,0.031,2.212,0.031,3.533v3.8c0,10.968-0.596,11.62-10.621,11.62
				c-10.028,0-10.623-0.652-10.623-11.62v-3.8c0-1.326,0.009-2.498,0.042-3.54c-8.881,4.101-15.063,13.198-15.063,23.77
				c0,0.341,0.03,0.673,0.046,1.009h-4.039c-1.214,0-2.199,0.985-2.199,2.199C33.615,37.609,34.6,38.594,35.814,38.594z
				 M51.157,38.594h30.489c-1.017,13.218-7.155,26.153-16.563,26.153c-9.347,0-15.468-12.772-16.543-25.903
				C49.439,38.792,50.306,38.7,51.157,38.594z"/>
			<path fill="#FF0000" d="M94.869,71.063l-14.21-5.196l-12.675,7.413h-6.221l-12.676-7.422L35.13,70.989l-0.173,0.071
				c-0.229,0.104-22.684,10.774-21.134,38.211l0.021,0.354l0.12,0.331c0.119,0.321,2.909,7.502,16.378,7.502
				c0.5,0,1.019-0.015,1.55-0.035c6.384,5.541,18.402,8.797,32.667,8.797c0.228,0,0.455-0.002,0.683-0.003
				c11.19-0.078,25.396-2.453,32.747-8.793c14.754,0.546,17.746-7.134,17.869-7.469l0.123-0.33l0.021-0.354
				C117.55,81.837,95.096,71.166,94.869,71.063z M111.283,108.508c-0.586,0.924-3.227,4.118-11.493,4.19
				c0.241-4.46,0.657-14.511,0.065-23.021l-4.74,0.331c0.637,9.127,0.05,20.477-0.146,23.754c-5.273,4.608-16.783,7.61-29.763,7.705
				c-13.298,0.115-24.808-2.84-30.305-7.707c-0.213-3.213-0.852-14.316-0.246-23.605l-4.739-0.309
				c-0.563,8.614-0.108,18.446,0.156,22.854c-8.366-0.067-10.99-3.319-11.531-4.174c-1.065-23.272,16.821-32.389,18.328-33.113
				l9.566-3.518l15.506,8.649l5.938,0.091l15.434-8.746l9.646,3.521C94.51,76.16,112.336,85.279,111.283,108.508z"/>
			<path fill="#FF0000" d="M73.372,8.367c-0.083-1.763-0.28-2.937-0.769-3.485c-0.771-0.865-3.101-0.907-7.153-0.907
				c-3.994,0-6.394,0-7.163,0.853c-0.487,0.541-0.682,1.733-0.763,3.539c2.496-0.824,5.156-1.275,7.921-1.275
				C68.214,7.091,70.876,7.542,73.372,8.367z"/>
			<path fill="#FF0000" d="M57.466,16.756c0,4.501,0,7.218,0.823,8.129c0.77,0.852,3.175,0.852,7.161,0.852
				c3.985,0,6.391,0,7.159-0.852c0.824-0.911,0.824-3.627,0.824-8.129v-3.8c0-1.835-0.004-3.353-0.063-4.589
				c-2.496-0.824-5.158-1.275-7.927-1.275c-2.765,0-5.425,0.451-7.921,1.275c-0.055,1.239-0.059,2.759-0.059,4.589v3.8H57.466z"/>
		</g>
	</g>
	<g id="Calque_3" display="none">
		<g display="inline">
			<path fill="#FF0000" d="M79.861,35.464C83.643,17.36,72.088,7.153,57.047,7.153c-26.96,0-22.255,29.539-22.255,29.539
				c0.029,0.003,0.058,0.004,0.087,0.007c-1.231,2.785-1.595,7.457,4.25,13.417c3.339,9.769,9.626,17.19,18.576,17.19
				c8.62,0,14.997-7.315,18.445-17.07C83.111,43.219,81.468,37.973,79.861,35.464z M57.705,62.58
				c-9.302,0-15.394-12.712-16.463-25.778c11.693-0.688,19.433-6.228,23.595-10.293c1.979,3.558,6.074,5.944,9.485,7.399
				C73.98,47.924,67.691,62.58,57.705,62.58z"/>
		</g>
		<g display="inline">
			<path fill="none" d="M52.523,117.361c-0.81-0.252-1.482-0.887-1.742-1.741L37.128,70.564c-0.232-0.768-0.098-1.563,0.309-2.188
				l-8.486,3.121c-1.233,0.594-20.855,10.446-19.47,35.433c0.221,0.514,2.729,5.713,13.817,5.713
				c0.459-0.002,0.944-0.017,1.438-0.033c0.035-0.002,0.071-0.004,0.105-0.004c0.631,0,1.243,0.229,1.721,0.644
				c5.126,4.449,14.591,7.326,25.879,7.974l-0.196-0.201L52.523,117.361z"/>
			<path fill="none" d="M86.488,71.518l-8.34-3.066c0.401,0.626,0.537,1.418,0.305,2.182l-13.801,45.545
				c-0.257,0.854-0.926,1.485-1.732,1.739l0.236,3.104l-0.139,0.143c9.483-0.643,20.12-2.95,25.883-7.917
				c0.502-0.435,1.146-0.646,1.813-0.636c0.475,0.018,0.941,0.031,1.391,0.031c11.021-0.002,13.567-5.141,13.817-5.715
				C107.293,82.239,88.15,72.329,86.488,71.518z"/>
			<path fill="#FF0000" d="M88.604,66.707c-0.063-0.027-0.121-0.053-0.185-0.075l-13.565-4.993
				c-1.326-0.489-2.801,0.161-3.336,1.467l-1.795,4.373c-0.271,0.662-0.264,1.401,0.023,2.058c0.288,0.651,0.829,1.162,1.499,1.405
				l1.462,0.539l-8.791,29.017l-0.904-15.813c-0.014-0.24-0.06-0.474-0.135-0.691l2.426-3.442c0.455-0.646,0.596-1.46,0.383-2.221
				c-0.045-0.16-0.053-0.187-1.7-4.453c-0.416-1.078-1.477-1.751-2.623-1.675c-0.276,0.009-1.619,0.016-3.659,0.016
				c-2.043,0-3.385-0.007-3.663-0.016c-1.139-0.087-2.203,0.593-2.621,1.668c-2.023,5.204-2.023,5.204-1.583,6.215
				c0.072,0.165,0.159,0.318,0.263,0.466l2.427,3.442c-0.074,0.22-0.121,0.451-0.134,0.691L51.52,99.941l-8.645-28.526l1.304-0.479
				c0.671-0.246,1.213-0.756,1.5-1.41c0.286-0.653,0.294-1.397,0.021-2.061l-1.811-4.371c-0.541-1.302-2.014-1.945-3.333-1.459
				l-13.398,4.926c-0.032,0.01-0.063,0.021-0.093,0.035l-0.174,0.07c-0.033,0.016-0.064,0.027-0.095,0.042
				c-0.242,0.11-24.2,11.438-22.556,40.562l0.02,0.351c0.015,0.26,0.067,0.514,0.156,0.758l0.12,0.326
				c0.345,0.94,3.797,9.19,18.767,9.19c0.206,0,0.415-0.004,0.628-0.008c7.023,5.557,19.108,8.725,33.408,8.725h0.011l0.697-0.002
				c5.388-0.039,23.369-0.793,33.475-8.721c0.195,0.004,0.392,0.006,0.582,0.006c14.988-0.002,18.422-8.256,18.764-9.194
				l0.119-0.328c0.089-0.239,0.142-0.49,0.154-0.745l0.021-0.354C112.811,78.107,88.846,66.816,88.604,66.707z M52.245,78.835
				c-0.009-0.019,1.623-4.214,1.623-4.214c0.191,0.027,7.479,0.027,7.669,0c0,0,1.603,4.15,1.62,4.214l-2.592,3.683H54.84
				L52.245,78.835z M105.921,106.928c-0.25,0.574-2.796,5.713-13.817,5.715c-0.446,0-0.916-0.016-1.391-0.031
				c-0.665-0.01-1.311,0.201-1.813,0.636c-5.764,4.967-16.399,7.274-25.883,7.917l-5.315,3.396l-5.261-3.338
				c-11.288-0.646-20.753-3.522-25.879-7.974c-0.478-0.415-1.089-0.644-1.721-0.644c-0.034,0-0.071,0.002-0.105,0.004
				c-0.494,0.019-0.979,0.029-1.438,0.031c-11.088,0-13.596-5.199-13.817-5.711c-1.385-24.984,18.237-34.838,19.47-35.432
				l8.486-3.121c-0.406,0.627-0.541,1.422-0.309,2.188l13.653,45.057c0.26,0.854,0.933,1.488,1.742,1.74l2.49-32.729h5.376
				l2.53,33.281c0.807-0.254,1.476-0.887,1.731-1.739L78.452,70.63c0.231-0.764,0.099-1.556-0.306-2.182l8.342,3.067
				C88.15,72.329,107.293,82.239,105.921,106.928z"/>
			<path fill="#FFFFFF" d="M59.201,80.09l1.003-1.424c-0.146-0.378-0.307-0.8-0.463-1.2c-0.527,0.001-1.194,0.001-2.038,0.001
				c-0.849,0-1.517,0-2.045-0.001c-0.167,0.433-0.326,0.841-0.464,1.196l1.007,1.428H59.201z"/>
			<path fill="#FFFFFF" d="M60.564,82.518l2.592-3.683c-0.018-0.063-1.62-4.214-1.62-4.214c-0.19,0.027-7.478,0.027-7.669,0
				c0,0-1.631,4.195-1.623,4.214l2.596,3.683H60.564z"/>
		</g>
		<g display="inline">
			<path fill="#FF0000" d="M91.54,23.535c0,0.507-0.41,0.918-0.918,0.918h-4.017c-0.508,0-0.918-0.411-0.918-0.918v-4.016
				c0-0.507,0.41-0.918,0.918-0.918h4.017c0.508,0,0.918,0.411,0.918,0.918V23.535z"/>
			<path fill="#FF0000" d="M100.089,23.535c0,0.507-0.409,0.918-0.918,0.918h-4.017c-0.508,0-0.918-0.411-0.918-0.918v-4.016
				c0-0.507,0.41-0.918,0.918-0.918h4.017c0.509,0,0.918,0.411,0.918,0.918V23.535z"/>
			<path fill="#FF0000" d="M108.58,23.535c0,0.507-0.41,0.918-0.918,0.918h-4.016c-0.508,0-0.918-0.411-0.918-0.918v-4.016
				c0-0.507,0.41-0.918,0.918-0.918h4.016c0.508,0,0.918,0.411,0.918,0.918V23.535z"/>
		</g>
		<g display="inline">
			<path fill="none" d="M80.943,34.431c0,0.41-0.012,0.815-0.026,1.221h8.834v10.819l8.812-10.819h23.801V7.402H71.906v4.573
				C77.436,17.391,80.943,25.438,80.943,34.431z"/>
			<path fill="#FF0000" d="M124.273,2.402H69.995c-1.731,0-3.089,1.461-3.089,3.326V9.25c1.8,1.056,3.477,1.233,5,2.726V7.402
				h50.455v28.25H98.563l-8.812,10.819V35.652l-9.89-0.188c-0.062,1.708,0.809,3.566,0.506,5.188h4.384v19.877l16.188-19.877h23.334
				c1.731,0,3.09-1.461,3.09-3.326V5.729C127.361,3.863,126.006,2.402,124.273,2.402z"/>
		</g>
	</g>
</g>
<g>
	<path fill="none" d="M57.208,117.2c-0.14-0.802,0.12-1.621,0.695-2.196l7.936-7.938c0.077-0.077,0.095-0.17,0.095-0.233
		s-0.018-0.156-0.094-0.233l-2.398-2.399c-0.153-0.152-0.314-0.153-0.47,0.001l-7.852,7.854c-0.583,0.584-1.419,0.844-2.229,0.689
		c-0.811-0.152-1.495-0.695-1.828-1.45c-2.577-5.858-1.316-12.571,3.213-17.099c2.908-2.91,6.778-4.514,10.896-4.514
		c0.831,0,1.661,0.066,2.479,0.199l19.986-19.984l-0.392-0.144l-2.349-0.854l-2.783-1.018c-4.012,5.198-10.057,8.237-16.575,8.237
		c-6.642,0-12.767-3.022-16.784-8.19l-2.489,0.915l-2.348,0.863l-7.087,2.604C35.399,73,19.483,81.121,18.125,101.4l-0.09,3.164
		c0.005,0.543,0.009,1.086,0.035,1.645c0.554,0.874,3.241,4.206,11.813,4.271c-0.27-4.51-0.737-14.576-0.161-23.395l4.852,0.314
		c-0.622,9.51,0.035,20.875,0.251,24.164c4.678,4.143,13.606,6.924,24.306,7.681c-0.174-0.074-0.355-0.134-0.526-0.213
		C57.869,118.686,57.348,118.002,57.208,117.2z"/>
	<path fill="#FF0000" d="M75.881,123.676c8.965-1.094,18.081-3.664,23.526-8.359c15.075,0.554,18.159-7.303,18.282-7.646
		l0.123-0.337l0.021-0.361c0.121-12.056-1.542-18.74-6.167-24.973c-1.604,0.555-3.3,0.859-5.046,0.859
		c-0.118,0-0.236-0.012-0.354-0.016c3.965,4.646,6.061,9.217,6.687,18.555l0.089,3.166c-0.006,0.537-0.009,1.072-0.034,1.625
		c-0.598,0.943-3.302,4.215-11.755,4.289c0.246-4.566,0.708-12.107,0.102-20.817L96.5,90c0.652,9.346,0.018,18.214-0.186,21.568
		c-3.824,3.342-10.854,5.854-19.349,7.07"/>
	<path fill="#FF0000" d="M54.371,118.762c-8.562-1.15-15.581-3.685-19.546-7.195c-0.216-3.289-0.873-14.654-0.251-24.164
		l-4.852-0.314c-0.576,8.816-0.109,18.885,0.161,23.395c-8.572-0.065-11.259-3.397-11.813-4.271
		c-0.026-0.559-0.03-1.102-0.035-1.645l0.09-3.164c1.358-20.279,17.274-28.4,18.707-29.09l7.087-2.604l2.348-0.862l2.489-0.916
		c4.017,5.168,10.142,8.19,16.784,8.19c6.519,0,12.563-3.039,16.576-8.237l1.801,0.702l0.769,0.185l0.392,0.144l2.153-2.153
		c-0.123-0.765-0.168-1.531-0.176-2.297l-2.998-1.049l-3.492-2.044l-1.248,2.024c-3.033,4.922-8.187,7.863-13.775,7.863
		c-5.708,0-10.92-2.896-13.946-7.746l-1.203-1.93l-3.405,1.818l-11.933,4.387l-0.179,0.073
		c-0.232,0.105-23.219,11.029-21.633,39.115l0.021,0.36l0.124,0.338c0.121,0.33,2.978,7.681,16.765,7.681
		c0.514,0,1.049-0.015,1.596-0.035c4.768,4.139,12.604,7.031,22.164,8.293"/>
</g>
<g id="Calque_2_-_copie">
	<path fill="#FF0000" d="M65.18,120.501L65.18,120.501c-2.264,0-4.537-0.508-6.575-1.468c-0.736-0.348-1.257-1.031-1.397-1.833
		s0.12-1.621,0.695-2.196l7.936-7.938c0.077-0.077,0.095-0.17,0.095-0.233s-0.018-0.156-0.094-0.233l-2.398-2.399
		c-0.153-0.152-0.314-0.153-0.47,0.001l-7.852,7.854c-0.583,0.584-1.419,0.844-2.229,0.689c-0.811-0.152-1.495-0.695-1.828-1.45
		c-2.577-5.858-1.316-12.571,3.213-17.099c2.908-2.91,6.778-4.514,10.896-4.514c0.831,0,1.661,0.066,2.479,0.199l22.14-22.139
		c-0.783-4.854,0.806-9.868,4.312-13.376c2.91-2.91,6.777-4.512,10.895-4.512c2.264,0,4.537,0.508,6.574,1.469
		c0.736,0.347,1.257,1.031,1.396,1.833c0.14,0.802-0.12,1.621-0.694,2.196l-7.937,7.936c-0.077,0.078-0.094,0.171-0.094,0.235
		s0.017,0.158,0.094,0.235l2.397,2.396c0.154,0.154,0.313,0.156,0.47,0l7.854-7.853c0.582-0.583,1.42-0.839,2.229-0.689
		c0.813,0.152,1.494,0.695,1.826,1.451c2.576,5.858,1.316,12.57-3.213,17.098c-2.91,2.91-6.779,4.513-10.896,4.513
		c-0.832,0-1.662-0.067-2.479-0.2l-22.141,22.141c0.783,4.854-0.805,9.867-4.313,13.375
		C73.163,118.898,69.295,120.501,65.18,120.501z M64.499,115.479c3.004,0.211,5.914-0.896,8.039-3.022
		c2.604-2.606,3.642-6.444,2.705-10.019c-0.226-0.858,0.022-1.772,0.649-2.4l24.053-24.053c0.627-0.629,1.543-0.877,2.402-0.65
		c0.864,0.229,1.76,0.343,2.656,0.343c2.78,0,5.395-1.083,7.359-3.048c2.074-2.074,3.135-4.829,3.06-7.62l-4.685,4.685
		c-1.006,1.005-2.344,1.559-3.771,1.559s-2.766-0.554-3.771-1.559l-2.397-2.397c-1.005-1.005-1.559-2.344-1.559-3.771
		c0-1.427,0.554-2.766,1.559-3.771l4.875-4.876c-2.991-0.193-5.913,0.9-8.038,3.024c-2.604,2.606-3.642,6.445-2.705,10.019
		c0.227,0.858-0.021,1.772-0.649,2.401L70.23,94.372c-0.627,0.627-1.539,0.877-2.4,0.649c-0.866-0.227-1.76-0.342-2.657-0.342
		c-2.782,0-5.396,1.084-7.361,3.049c-2.076,2.076-3.136,4.828-3.06,7.621l4.684-4.686c1.005-1.005,2.344-1.559,3.771-1.559l0,0
		c1.427,0,2.766,0.554,3.771,1.559l2.396,2.398c1.004,1.004,1.559,2.343,1.559,3.77s-0.555,2.766-1.561,3.771L64.499,115.479z"/>
</g>
<g id="Calque_1_2_">
	<g id="Calque_2_1_" display="none">
		<g display="inline">
			<path fill="none" d="M64.722,62.345c9.406,0,15.547-12.934,16.563-26.153h-30.49c-0.851,0.106-1.718,0.198-2.616,0.25
				C49.254,49.573,55.375,62.345,64.722,62.345z"/>
			<path fill="none" d="M92.596,73.009l-9.646-3.52l-15.433,8.744l-5.938-0.09l-15.505-8.65l-9.566,3.518
				C35,73.739,17.113,82.853,18.179,106.124c0.541,0.854,3.165,4.105,11.531,4.174c-0.264-4.404-0.719-14.236-0.156-22.852
				l4.739,0.309c-0.606,9.287,0.032,20.393,0.246,23.604c5.498,4.867,17.007,7.822,30.305,7.707
				c12.979-0.094,24.488-3.096,29.764-7.703c0.194-3.279,0.781-14.629,0.146-23.756l4.738-0.33
				c0.595,8.51,0.179,18.561-0.063,23.021c8.269-0.072,10.908-3.268,11.493-4.191C111.973,82.878,94.146,73.759,92.596,73.009z"/>
			<path fill="#FF0000" d="M35.451,36.192h6.227c0,0.002,0,0.004,0,0.006c-1.305,2.819-1.772,7.667,4.469,13.882
				c3.377,9.688,9.662,17.016,18.575,17.016c8.739,0,15.188-7.482,18.631-17.414c5.837-6.035,5.343-10.733,4.063-13.491h6.232
				c1.215,0,2.198-0.984,2.198-2.199c0-1.214-0.983-2.199-2.198-2.199h-2.941c0.016-0.334,0.022-0.671,0.022-1.009
				c0-10.568-6.177-19.661-15.054-23.763c0.025,1.039,0.031,2.212,0.031,3.533v3.8c0,10.968-0.596,11.62-10.621,11.62
				c-10.028,0-10.623-0.652-10.623-11.62v-3.8c0-1.326,0.009-2.498,0.042-3.54c-8.881,4.101-15.063,13.198-15.063,23.77
				c0,0.341,0.03,0.673,0.046,1.009h-4.039c-1.214,0-2.199,0.985-2.199,2.199C33.252,35.207,34.237,36.192,35.451,36.192z
				 M50.794,36.192h30.489c-1.017,13.219-7.155,26.153-16.563,26.153c-9.347,0-15.468-12.772-16.543-25.903
				C49.076,36.39,49.943,36.298,50.794,36.192z"/>
			<path fill="#FF0000" d="M94.506,68.661l-14.21-5.197l-12.675,7.414H61.4l-12.677-7.422l-13.957,5.131l-0.173,0.072
				c-0.229,0.104-22.684,10.773-21.134,38.211l0.021,0.354l0.12,0.33c0.119,0.322,2.909,7.502,16.378,7.502
				c0.5,0,1.019-0.014,1.55-0.035c6.384,5.541,18.402,8.797,32.667,8.797c0.228,0,0.455-0.002,0.683-0.002
				c11.19-0.078,25.396-2.453,32.747-8.793c14.754,0.545,17.746-7.135,17.869-7.469l0.123-0.33l0.021-0.354
				C117.187,79.435,94.732,68.765,94.506,68.661z M110.92,106.106c-0.586,0.924-3.227,4.117-11.493,4.189
				c0.241-4.459,0.657-14.51,0.065-23.021l-4.74,0.332c0.637,9.127,0.05,20.477-0.146,23.754
				c-5.273,4.607-16.783,7.609-29.763,7.705c-13.298,0.115-24.808-2.84-30.305-7.707c-0.213-3.213-0.852-14.316-0.246-23.605
				l-4.739-0.309c-0.563,8.613-0.108,18.445,0.156,22.854c-8.366-0.068-10.99-3.32-11.531-4.174
				c-1.065-23.273,16.821-32.389,18.328-33.113l9.566-3.518l15.506,8.648l5.938,0.092l15.434-8.746l9.646,3.521
				C94.146,73.759,111.973,82.878,110.92,106.106z"/>
			<path fill="#FF0000" d="M73.009,5.965c-0.083-1.763-0.28-2.937-0.769-3.485c-0.771-0.865-3.101-0.907-7.153-0.907
				c-3.994,0-6.394,0-7.163,0.853c-0.487,0.541-0.682,1.733-0.763,3.539c2.496-0.824,5.156-1.275,7.921-1.275
				C67.851,4.689,70.513,5.14,73.009,5.965z"/>
			<path fill="#FF0000" d="M57.103,14.354c0,4.501,0,7.218,0.823,8.129c0.77,0.852,3.175,0.852,7.161,0.852
				c3.985,0,6.391,0,7.159-0.852c0.824-0.911,0.824-3.627,0.824-8.129v-3.8c0-1.835-0.004-3.353-0.063-4.589
				C70.511,5.141,67.849,4.69,65.08,4.69c-2.766,0-5.426,0.451-7.921,1.275C57.104,7.204,57.1,8.724,57.1,10.554v3.8H57.103z"/>
		</g>
	</g>
	<g id="Calque_3_1_" display="none">
		<g display="inline">
			<path fill="#FF0000" d="M79.498,33.062c3.781-18.104-7.773-28.311-22.814-28.311c-26.96,0-22.255,29.539-22.255,29.539
				c0.029,0.003,0.058,0.004,0.087,0.007c-1.231,2.785-1.595,7.457,4.25,13.417c3.339,9.769,9.626,17.191,18.576,17.191
				c8.62,0,14.997-7.316,18.445-17.07C82.748,40.817,81.104,35.571,79.498,33.062z M57.342,60.179
				c-9.302,0-15.394-12.712-16.463-25.779c11.693-0.688,19.433-6.228,23.595-10.293c1.979,3.558,6.074,5.944,9.485,7.399
				C73.617,45.522,67.328,60.179,57.342,60.179z"/>
		</g>
		<g display="inline">
			<path fill="none" d="M52.16,114.96c-0.81-0.252-1.482-0.887-1.742-1.742L36.765,68.163c-0.232-0.768-0.098-1.563,0.309-2.189
				l-8.486,3.121c-1.233,0.594-20.855,10.447-19.47,35.434c0.221,0.514,2.729,5.713,13.817,5.713
				c0.459-0.002,0.944-0.018,1.438-0.033c0.035-0.002,0.071-0.004,0.105-0.004c0.631,0,1.243,0.229,1.721,0.643
				c5.126,4.449,14.591,7.326,25.879,7.975l-0.196-0.201L52.16,114.96z"/>
			<path fill="none" d="M86.125,69.116l-8.34-3.066c0.401,0.625,0.537,1.418,0.305,2.182l-13.801,45.545
				c-0.258,0.854-0.926,1.484-1.732,1.738l0.236,3.105l-0.139,0.143c9.482-0.643,20.119-2.951,25.883-7.918
				c0.502-0.434,1.146-0.645,1.813-0.635c0.475,0.018,0.941,0.031,1.391,0.031c11.021-0.002,13.567-5.141,13.817-5.715
				C106.93,79.837,87.787,69.927,86.125,69.116z"/>
			<path fill="#FF0000" d="M88.24,64.306c-0.063-0.027-0.121-0.053-0.185-0.076L74.49,59.237c-1.326-0.488-2.801,0.16-3.336,1.467
				l-1.795,4.373c-0.271,0.662-0.264,1.4,0.023,2.057c0.288,0.652,0.829,1.162,1.499,1.406l1.462,0.539l-8.791,29.016l-0.904-15.813
				c-0.014-0.24-0.06-0.475-0.135-0.691l2.426-3.443c0.455-0.645,0.596-1.459,0.383-2.221c-0.045-0.16-0.053-0.186-1.699-4.453
				c-0.416-1.078-1.478-1.75-2.623-1.674c-0.276,0.008-1.619,0.016-3.659,0.016c-2.043,0-3.385-0.008-3.663-0.016
				c-1.139-0.088-2.203,0.592-2.621,1.668c-2.023,5.203-2.023,5.203-1.583,6.215c0.072,0.164,0.159,0.318,0.263,0.465l2.427,3.443
				c-0.074,0.219-0.121,0.451-0.134,0.691L51.157,97.54l-8.645-28.527l1.304-0.479c0.671-0.246,1.213-0.756,1.5-1.41
				c0.286-0.654,0.294-1.398,0.021-2.061l-1.811-4.371c-0.541-1.303-2.014-1.945-3.333-1.459l-13.398,4.926
				c-0.032,0.01-0.063,0.021-0.093,0.035l-0.174,0.07c-0.033,0.016-0.064,0.027-0.095,0.041c-0.242,0.111-24.2,11.439-22.556,40.563
				l0.02,0.35c0.015,0.26,0.067,0.514,0.156,0.758l0.12,0.326c0.345,0.941,3.797,9.191,18.767,9.191
				c0.206,0,0.415-0.004,0.628-0.008c7.023,5.557,19.108,8.725,33.408,8.725h0.011l0.697-0.002
				c5.389-0.039,23.369-0.793,33.475-8.721c0.195,0.004,0.392,0.006,0.582,0.006c14.988-0.002,18.422-8.256,18.764-9.195
				l0.119-0.328c0.089-0.238,0.142-0.49,0.154-0.744l0.021-0.354C112.447,75.706,88.482,64.415,88.24,64.306z M51.882,76.433
				c-0.009-0.018,1.623-4.213,1.623-4.213c0.191,0.027,7.479,0.027,7.669,0c0,0,1.604,4.15,1.62,4.213l-2.593,3.684h-5.725
				L51.882,76.433z M105.558,104.526c-0.25,0.574-2.796,5.713-13.817,5.715c-0.446,0-0.916-0.016-1.391-0.031
				c-0.665-0.01-1.311,0.201-1.813,0.635c-5.764,4.967-16.399,7.275-25.883,7.918l-5.315,3.396l-5.261-3.338
				c-11.288-0.646-20.753-3.523-25.879-7.975c-0.478-0.414-1.089-0.643-1.721-0.643c-0.034,0-0.071,0.002-0.105,0.004
				c-0.494,0.018-0.979,0.029-1.438,0.031c-11.088,0-13.596-5.199-13.817-5.711C7.733,79.544,27.354,69.69,28.588,69.097
				l8.486-3.121c-0.406,0.627-0.541,1.422-0.309,2.188l13.653,45.057c0.26,0.854,0.933,1.488,1.742,1.74l2.49-32.729h5.375
				l2.53,33.281c0.808-0.254,1.476-0.887,1.731-1.74l13.802-45.545c0.231-0.764,0.099-1.555-0.306-2.182l8.342,3.068
				C87.787,69.927,106.93,79.837,105.558,104.526z"/>
			<path fill="#FFFFFF" d="M58.838,77.688l1.003-1.424c-0.146-0.379-0.308-0.801-0.463-1.201c-0.527,0.002-1.194,0.002-2.038,0.002
				c-0.849,0-1.517,0-2.045-0.002c-0.167,0.434-0.326,0.842-0.464,1.197l1.007,1.428H58.838z"/>
			<path fill="#FFFFFF" d="M60.201,80.116l2.592-3.684c-0.018-0.063-1.62-4.213-1.62-4.213c-0.19,0.027-7.478,0.027-7.669,0
				c0,0-1.631,4.195-1.623,4.213l2.596,3.684H60.201z"/>
		</g>
		<g display="inline">
			<path fill="#FF0000" d="M91.177,21.133c0,0.507-0.41,0.918-0.918,0.918h-4.017c-0.508,0-0.918-0.411-0.918-0.918v-4.016
				c0-0.507,0.41-0.918,0.918-0.918h4.017c0.508,0,0.918,0.411,0.918,0.918V21.133z"/>
			<path fill="#FF0000" d="M99.726,21.133c0,0.507-0.409,0.918-0.918,0.918h-4.017c-0.508,0-0.918-0.411-0.918-0.918v-4.016
				c0-0.507,0.41-0.918,0.918-0.918h4.017c0.509,0,0.918,0.411,0.918,0.918V21.133z"/>
			<path fill="#FF0000" d="M108.217,21.133c0,0.507-0.41,0.918-0.918,0.918h-4.016c-0.508,0-0.918-0.411-0.918-0.918v-4.016
				c0-0.507,0.41-0.918,0.918-0.918h4.016c0.508,0,0.918,0.411,0.918,0.918V21.133z"/>
		</g>
		<g display="inline">
			<path fill="none" d="M80.58,32.029c0,0.41-0.012,0.815-0.026,1.221h8.834v10.819l8.812-10.819H122V5H71.543v4.573
				C77.072,14.989,80.58,23.036,80.58,32.029z"/>
			<path fill="#FF0000" d="M123.91,0H69.632c-1.731,0-3.089,1.461-3.089,3.326v3.522c1.8,1.056,3.477,1.233,5,2.726V5h50.455v28.25
				H98.199l-8.812,10.819V33.25l-9.89-0.188c-0.062,1.708,0.809,3.566,0.506,5.188h4.384v19.877l16.188-19.877h23.334
				c1.731,0,3.09-1.461,3.09-3.326V3.327C126.998,1.461,125.643,0,123.91,0z"/>
		</g>
	</g>
	<path fill="none" stroke="#FF0000" stroke-width="5" stroke-miterlimit="10" d="M85.637,31.098c0,5.844-1.455,11.245-3.919,15.62
		c-3.687,6.545-9.628,13.712-16.331,13.712c-6.594,0-12.451-7.032-16.148-13.396c-2.575-4.429-4.102-9.95-4.102-15.937
		c0-14.587,9.066-26.413,20.25-26.413C76.57,4.685,85.637,16.511,85.637,31.098z"/>
</g>
</svg>
