<?xml version="1.0" encoding="utf-8"?>
<!-- Generator: Adobe Illustrator 16.0.0, SVG Export Plug-In . SVG Version: 6.00 Build 0)  -->
<!DOCTYPE svg PUBLIC "-//W3C//DTD SVG 1.1//EN" "http://www.w3.org/Graphics/SVG/1.1/DTD/svg11.dtd">
<svg version="1.1" xmlns="http://www.w3.org/2000/svg" xmlns:xlink="http://www.w3.org/1999/xlink" x="0px" y="0px" width="128px"
	 height="128px" viewBox="0 0 128 128" enable-background="new 0 0 128 128" xml:space="preserve">
<g id="Calque_1">
	<g id="Calque_1_1_" display="none">
	</g>
	<path fill="#FF0000" d="M9.942,110.412c-2.049,0.308-3.852-0.167-5.234-1.151v0.011c-0.693-0.489-1.277-1.116-1.736-1.846
		c-0.442-0.703-0.756-1.5-0.916-2.354v0.011c-0.355-1.9,0.058-4.066,1.474-6.065L3.49,99.067l52.708-78.007l0.021-0.02
		c1.13-1.631,2.317-2.875,3.543-3.726c1.387-0.959,2.824-1.441,4.297-1.441s2.91,0.482,4.294,1.441
		c1.229,0.852,2.416,2.096,3.546,3.726l0.021,0.02l52.706,78.007l-0.04-0.051c1.417,1.999,1.833,4.165,1.474,6.065
		c-0.156,0.844-0.47,1.64-0.913,2.344c-0.457,0.729-1.045,1.356-1.735,1.846v-0.011c-1.386,0.984-3.19,1.459-5.239,1.151H9.942
		L9.942,110.412z M9.294,105.218l0.482-0.054h108.566l0.482,0.054c0.678,0.127,1.208,0.025,1.555-0.221v-0.009
		c0.146-0.103,0.263-0.223,0.341-0.351c0.093-0.149,0.163-0.326,0.199-0.52c0.107-0.585-0.064-1.317-0.595-2.067l-0.042-0.052
		L67.577,23.992l0.019,0.021c-0.767-1.104-1.508-1.904-2.212-2.394c-0.479-0.332-0.923-0.499-1.323-0.499
		c-0.404,0-0.847,0.167-1.326,0.499c-0.705,0.49-1.446,1.29-2.212,2.394l0.021-0.021L7.835,101.999l-0.04,0.052
		c-0.533,0.75-0.705,1.481-0.593,2.067v0.01c0.033,0.184,0.103,0.359,0.196,0.51c0.081,0.128,0.196,0.248,0.341,0.351v0.009
		C8.088,105.243,8.619,105.345,9.294,105.218L9.294,105.218z M64.922,81.584c0,0.863-0.283,1.296-0.861,1.296
		c-0.582,0-0.865-0.433-0.865-1.296c0-1.136-0.184-2.876-0.53-5.246c-0.347-2.356-0.913-6.023-1.703-10.973
		c-0.778-4.949-1.371-8.948-1.79-11.984c-0.407-3.036-0.605-5.394-0.605-7.085c0-1.924,0.542-3.417,1.618-4.479
		c1.085-1.061,2.381-1.592,3.875-1.592c1.467,0,2.751,0.532,3.851,1.604c1.098,1.074,1.643,2.567,1.643,4.467
		c-0.123,2.223-0.371,4.751-0.754,7.616c-0.395,2.852-0.924,6.356-1.593,10.504c-0.679,4.135-1.185,7.467-1.543,9.985
		C65.32,76.93,65.073,79.313,64.922,81.584L64.922,81.584z M63.765,85.633c1.492,0,2.664,0.457,3.516,1.37
		c0.842,0.924,1.26,2.01,1.26,3.256c0,1.261-0.418,2.348-1.26,3.273c-0.853,0.913-2.024,1.369-3.516,1.369
		c-1.371,0-2.432-0.456-3.197-1.369c-0.753-0.926-1.136-2.013-1.136-3.273c0-1.246,0.383-2.332,1.136-3.256
		C61.333,86.09,62.394,85.633,63.765,85.633L63.765,85.633z"/>
</g>
<g id="Calque_2" display="none">
	
		<polyline display="inline" fill="none" stroke="#FF0000" stroke-width="5" stroke-linecap="round" stroke-linejoin="round" stroke-miterlimit="10" points="
		-15.692,71.884 -1.538,71.884 8.923,54.038 27.539,99.884 47.385,40.5 58.154,70.191 79.077,70.191 	"/>
	
		<circle display="inline" fill="none" stroke="#FF0000" stroke-width="5" stroke-linecap="round" stroke-linejoin="round" stroke-miterlimit="10" cx="89.385" cy="69.884" r="10.308"/>
	<g display="inline">
		<path fill="none" stroke="#FF0000" stroke-width="5" stroke-linecap="round" stroke-linejoin="round" stroke-miterlimit="10" d="
			M89.385,34.5V17c0-1.657-1.343-3-3-3H72"/>
		<path fill="none" stroke="#FF0000" stroke-width="5" stroke-linecap="round" stroke-linejoin="round" stroke-miterlimit="10" d="
			M12,14H-1.5c-1.657,0-3,1.343-3,3v17.5"/>
		<path fill="none" stroke="#FF0000" stroke-width="5" stroke-linecap="round" stroke-linejoin="round" stroke-miterlimit="10" d="
			M72,115h14.385c1.657,0,3-1.343,3-3V94.5"/>
		<path fill="none" stroke="#FF0000" stroke-width="5" stroke-linecap="round" stroke-linejoin="round" stroke-miterlimit="10" d="
			M-4.5,94.5V112c0,1.657,1.343,3,3,3H12"/>
	</g>
</g>
</svg>
