<?xml version="1.0" encoding="utf-8"?>
<!-- Generator: Adobe Illustrator 16.0.0, SVG Export Plug-In . SVG Version: 6.00 Build 0)  -->
<!DOCTYPE svg PUBLIC "-//W3C//DTD SVG 1.1//EN" "http://www.w3.org/Graphics/SVG/1.1/DTD/svg11.dtd">
<svg version="1.1" xmlns="http://www.w3.org/2000/svg" xmlns:xlink="http://www.w3.org/1999/xlink" x="0px" y="0px" width="128px"
	 height="128px" viewBox="0 0 128 128" enable-background="new 0 0 128 128" xml:space="preserve">
<g id="Calque_2" display="none">
	<g display="inline">
		<g>
			<g>
				<path fill="#FF0000" d="M64.317,110.502c-25.531,0-46.297-20.766-46.297-46.29c0-25.523,20.766-46.289,46.297-46.289
					c25.523,0,46.289,20.766,46.289,46.289C110.606,89.736,89.841,110.502,64.317,110.502z M64.317,23.494
					c-22.453,0-40.727,18.266-40.727,40.719c0,22.454,18.273,40.719,40.727,40.719s40.719-18.266,40.719-40.719
					C105.036,41.759,86.771,23.494,64.317,23.494z"/>
			</g>
		</g>
		<g>
			<g>
				<g>
					<rect x="2.653" y="61.806" fill="#FF0000" width="40.469" height="5.571"/>
				</g>
			</g>
			<g>
				<g>
					<rect x="61.903" y="85.4" fill="#FF0000" width="5.57" height="40.477"/>
				</g>
			</g>
			<g>
				<g>
					<rect x="85.505" y="61.048" fill="#FF0000" width="40.477" height="5.579"/>
				</g>
			</g>
			<g>
				<g>
					<rect x="61.146" y="2.541" fill="#FF0000" width="5.578" height="40.484"/>
				</g>
			</g>
		</g>
	</g>
</g>
<g id="Calque_3">
	<g>
		<g>
			
				<line fill="none" stroke="#FF0000" stroke-width="5" stroke-linecap="round" stroke-linejoin="round" stroke-miterlimit="10" x1="84.979" y1="64.503" x2="124.656" y2="64.503"/>
			
				<line fill="none" stroke="#FF0000" stroke-width="5" stroke-linecap="round" stroke-linejoin="round" stroke-miterlimit="10" x1="43.433" y1="64.503" x2="3.763" y2="64.503"/>
		</g>
		<g>
			
				<line fill="none" stroke="#FF0000" stroke-width="5" stroke-linecap="round" stroke-linejoin="round" stroke-miterlimit="10" x1="64.209" y1="4.047" x2="64.209" y2="43.735"/>
			
				<line fill="none" stroke="#FF0000" stroke-width="5" stroke-linecap="round" stroke-linejoin="round" stroke-miterlimit="10" x1="64.209" y1="85.277" x2="64.209" y2="124.958"/>
		</g>
	</g>
	
		<circle fill="none" stroke="#FF0000" stroke-width="5" stroke-linecap="round" stroke-linejoin="round" stroke-miterlimit="10" cx="64.209" cy="64.503" r="44.603"/>
</g>
</svg>
