<?xml version="1.0" encoding="utf-8"?>
<!-- Generator: Adobe Illustrator 16.0.0, SVG Export Plug-In . SVG Version: 6.00 Build 0)  -->
<!DOCTYPE svg PUBLIC "-//W3C//DTD SVG 1.1//EN" "http://www.w3.org/Graphics/SVG/1.1/DTD/svg11.dtd">
<svg version="1.1" id="Calque_2" xmlns="http://www.w3.org/2000/svg" xmlns:xlink="http://www.w3.org/1999/xlink" x="0px" y="0px"
	 width="128px" height="128px" viewBox="0 0 128 128" enable-background="new 0 0 128 128" xml:space="preserve">
<g>
	<g>
		
			<circle fill="none" stroke="#FF0000" stroke-width="5" stroke-linecap="round" stroke-linejoin="round" stroke-miterlimit="10" cx="65.239" cy="89.408" r="12.596"/>
		
			<polyline fill="none" stroke="#FF0000" stroke-width="5" stroke-linecap="round" stroke-linejoin="round" stroke-miterlimit="10" points="
			79.584,108.955 86.719,112.027 83.15,124 74.556,124 		"/>
		
			<polyline fill="none" stroke="#FF0000" stroke-width="5" stroke-linecap="round" stroke-linejoin="round" stroke-miterlimit="10" points="
			50.896,108.955 43.76,112.027 47.328,124 55.922,124 		"/>
	</g>
	<g>
		
			<circle fill="none" stroke="#FF0000" stroke-width="5" stroke-linecap="round" stroke-linejoin="round" stroke-miterlimit="10" cx="95.452" cy="82.174" r="12.597"/>
		
			<polyline fill="none" stroke="#FF0000" stroke-width="5" stroke-linecap="round" stroke-linejoin="round" stroke-miterlimit="10" points="
			109.797,101.723 116.932,104.793 113.365,116.768 104.769,116.768 		"/>
	</g>
	<g>
		
			<circle fill="none" stroke="#FF0000" stroke-width="5" stroke-linecap="round" stroke-linejoin="round" stroke-miterlimit="10" cx="35.026" cy="82.174" r="12.597"/>
		
			<polyline fill="none" stroke="#FF0000" stroke-width="5" stroke-linecap="round" stroke-linejoin="round" stroke-miterlimit="10" points="
			20.683,101.723 13.546,104.793 17.115,116.768 25.709,116.768 		"/>
	</g>
</g>
<g>
	<path fill="none" stroke="#FF0000" stroke-width="5" stroke-linecap="round" stroke-linejoin="round" stroke-miterlimit="10" d="
		M34.816,25.453l4.503,1.339c1.467,0.436,2.499,1.751,2.572,3.279l0.375,7.741c0.042,0.873,0.4,1.702,1.009,2.33l7.238,7.488
		c1.463,1.514,3.905,1.456,5.295-0.124l0.276-0.313c0.798-0.906,1.088-2.151,0.774-3.317l-0.555-2.061
		c-0.169-0.627-0.504-1.196-0.971-1.648l-3.633-3.527c-1.197-1.162-1.441-2.994-0.588-4.428l1.668-2.807
		c0.63-1.059,1.756-1.722,2.986-1.76l14.559-0.45c1.07-0.033,2.1,0.411,2.81,1.212l9.68,10.93c0.549,0.619,0.867,1.408,0.903,2.234
		l0.428,9.978c0.051,1.187,0.683,2.272,1.689,2.901l0.393,0.246c2.4,1.5,5.514-0.226,5.514-3.057V37.435
		c0-0.938-0.365-1.838-1.02-2.511L73.182,16.868c-0.396-0.408-0.883-0.716-1.421-0.899L38.678,4.613h-5.139"/>
	<path fill="none" stroke="#FF0000" stroke-width="5" stroke-linecap="round" stroke-linejoin="round" stroke-miterlimit="10" d="
		M57.189,10.941h36.146c1.99,0,3.604,1.613,3.604,3.604l0,0c0,0.481-0.402,1.007-0.924,1.502c-1.061,1.01-2.414,1.656-3.854,1.917
		l-5.118,1.299"/>
	<path fill="none" stroke="#FF0000" stroke-width="5" stroke-linecap="round" stroke-linejoin="round" stroke-miterlimit="10" d="
		M89.376,33.538l3.81-1.604c2.409-1.014,2.972-4.174,1.061-5.956l-8.865-8.266c-0.623-0.581-1.434-0.923-2.285-0.964l-10.517-0.5"/>
</g>
</svg>
