<?xml version="1.0" encoding="utf-8"?>
<!-- Generator: Adobe Illustrator 16.0.0, SVG Export Plug-In . SVG Version: 6.00 Build 0)  -->
<!DOCTYPE svg PUBLIC "-//W3C//DTD SVG 1.1//EN" "http://www.w3.org/Graphics/SVG/1.1/DTD/svg11.dtd">
<svg version="1.1" id="Calque_1" xmlns="http://www.w3.org/2000/svg" xmlns:xlink="http://www.w3.org/1999/xlink" x="0px" y="0px"
	 width="128px" height="128px" viewBox="0 0 128 128" enable-background="new 0 0 128 128" xml:space="preserve">
<g id="Calque_2" display="none">
</g>
<path fill="#FF0000" d="M92.397,97.529v16.044c0,0-0.305,2.13,2.358,2.13c2.66,0,14.676,0,14.676,0s1.978,0.152,1.978-3.117
	c0-3.271,0-15.057,0-15.057s-0.152-2.357-2.512-2.357c-2.355,0-4.333-1.217-4.333-3.118s2.433-2.813,4.03-2.813
	c0,0,0.939,0.171,0.939-0.524c0-0.692,0-1.56,0-1.56s0.125-0.347-0.966-0.347c-1.089,0-13.482,0-13.482,0s-0.769-0.05-0.769,0.569
	v1.463c0,0-0.05,0.42,1.064,0.42c1.116,0,3.67,0.72,3.67,2.852s-1.984,3.048-3.991,3.048C93.053,95.16,92.397,96.897,92.397,97.529z
	"/>
<g>
	<path fill="none" stroke="#FF0000" stroke-width="5" stroke-linecap="round" stroke-linejoin="round" d="M55.621,4.649H72.82
		v24.607h9.791l-18.391,18.39l-18.39-18.39h9.791V4.649z"/>
</g>
<g>
	<path fill="none" stroke="#FF0000" stroke-width="5" stroke-linecap="round" stroke-miterlimit="10" d="M5.227,123.351V64.955
		c0-4.165,2.065-6.248,6.197-6.248h2.872c1.444,0,2.469-0.227,3.074-0.681c0.604-0.453,1.075-1.335,1.411-2.646l0.504-2.016
		c0.537-2.115,1.226-3.408,2.066-3.879c0.806-0.471,2.754-0.705,5.845-0.705h19.247c2.788,0,4.567,0.219,5.341,0.654
		c0.772,0.438,1.444,1.613,2.015,3.527l0.555,1.864c0.57,1.915,1.1,3.04,1.588,3.376c0.486,0.336,1.838,0.504,4.055,0.504h34.816
		c2.385,0,4.006,0.445,4.862,1.335s1.285,2.562,1.285,5.013v2.859 M117.354,83.596c0.738-1.612,5.421-12.975,5.421-13.177
		c-0.101-0.705-1.143-1.058-3.124-1.058H38.329c-1.948,0-3.292,0.219-4.031,0.654c-0.739,0.438-1.495,1.429-2.267,2.973
		L5.227,123.351h85.305"/>
</g>
<circle fill="none" stroke="#FF0000" stroke-width="5" stroke-miterlimit="10" cx="101.898" cy="101.256" r="23.475"/>
</svg>
