<?xml version="1.0" encoding="utf-8"?>
<!-- Generator: Adobe Illustrator 16.0.0, SVG Export Plug-In . SVG Version: 6.00 Build 0)  -->
<!DOCTYPE svg PUBLIC "-//W3C//DTD SVG 1.1//EN" "http://www.w3.org/Graphics/SVG/1.1/DTD/svg11.dtd">
<svg version="1.1" xmlns="http://www.w3.org/2000/svg" xmlns:xlink="http://www.w3.org/1999/xlink" x="0px" y="0px" width="128px"
	 height="128px" viewBox="0 0 128 128" enable-background="new 0 0 128 128" xml:space="preserve">
<g id="Calque_2">
	<g>
		
			<polygon fill="none" stroke="#FF0000" stroke-width="4" stroke-linecap="round" stroke-linejoin="round" stroke-miterlimit="10" points="
			124.161,7.488 20.321,7.488 20.321,42.037 27.676,42.037 27.676,14.842 116.806,14.842 116.806,77.346 109.412,77.346 
			109.412,84.701 124.161,84.701 		"/>
		
			<polygon fill="none" stroke="#FF0000" stroke-width="4" stroke-linecap="round" stroke-linejoin="round" stroke-miterlimit="10" points="
			43.616,42.037 59.077,42.037 51.346,33.218 		"/>
		<path fill="none" stroke="#FF0000" stroke-width="4" stroke-linecap="round" stroke-linejoin="round" stroke-miterlimit="10" d="
			M116.806,77.346V14.842h-89.13v27.195h15.94l7.73-8.819l7.731,8.819h50.335v26.875"/>
	</g>
</g>
<g id="Calque_3">
	<g>
		
			<rect x="5.572" y="42.037" fill="none" stroke="#FF0000" stroke-width="4" stroke-linecap="round" stroke-linejoin="round" stroke-miterlimit="10" width="103.84" height="77.213"/>
		
			<rect x="12.927" y="49.391" fill="none" stroke="#FF0000" stroke-width="4" stroke-linecap="round" stroke-linejoin="round" stroke-miterlimit="10" width="89.13" height="62.503"/>
		
			<polyline fill="none" stroke="#FF0000" stroke-width="4" stroke-linecap="round" stroke-linejoin="round" stroke-miterlimit="10" points="
			102.057,111.895 75.278,81.348 49.016,111.309 		"/>
		
			<polyline fill="none" stroke="#FF0000" stroke-width="4" stroke-linecap="round" stroke-linejoin="round" stroke-miterlimit="10" points="
			61.89,96.621 36.597,67.767 13.03,94.652 		"/>
	</g>
	<g>
		
			<circle fill="none" stroke="#FF0000" stroke-width="2" stroke-linecap="round" stroke-linejoin="round" stroke-miterlimit="10" cx="83.639" cy="67.768" r="11.468"/>
	</g>
	<g>
		<g>
			<path fill="none" stroke="#FF0000" stroke-width="2" stroke-linecap="round" stroke-linejoin="round" stroke-miterlimit="10" d="
				M81.823,67.768c-1.38,0-2.497-1.117-2.497-2.496l0,0c0-1.378,1.117-2.496,2.497-2.496h3.632c1.379,0,2.496,1.117,2.496,2.496l0,0
				"/>
			<path fill="none" stroke="#FF0000" stroke-width="2" stroke-linecap="round" stroke-linejoin="round" stroke-miterlimit="10" d="
				M81.823,67.768h3.632c1.379,0,2.496,1.117,2.496,2.496l0,0c0,1.379-1.117,2.496-2.496,2.496h-3.632
				c-1.38,0-2.497-1.117-2.497-2.496"/>
		</g>
		
			<line fill="none" stroke="#FF0000" stroke-width="2" stroke-linecap="round" stroke-linejoin="round" stroke-miterlimit="10" x1="83.639" y1="62.776" x2="83.639" y2="60.448"/>
		
			<line fill="none" stroke="#FF0000" stroke-width="2" stroke-linecap="round" stroke-linejoin="round" stroke-miterlimit="10" x1="83.639" y1="75.088" x2="83.639" y2="72.76"/>
	</g>
	<g>
		<g>
			<path fill="none" stroke="#FF0000" stroke-width="2" stroke-linecap="round" stroke-linejoin="round" stroke-miterlimit="10" d="
				M100.241,28.068c-1.38,0-2.497-1.117-2.497-2.496l0,0c0-1.378,1.117-2.496,2.497-2.496h3.632c1.379,0,2.496,1.117,2.496,2.496
				l0,0"/>
			<path fill="none" stroke="#FF0000" stroke-width="2" stroke-linecap="round" stroke-linejoin="round" stroke-miterlimit="10" d="
				M100.241,28.068h3.632c1.379,0,2.496,1.117,2.496,2.496l0,0c0,1.379-1.117,2.496-2.496,2.496h-3.632
				c-1.38,0-2.497-1.117-2.497-2.496"/>
		</g>
		
			<line fill="none" stroke="#FF0000" stroke-width="2" stroke-linecap="round" stroke-linejoin="round" stroke-miterlimit="10" x1="102.057" y1="23.076" x2="102.057" y2="20.749"/>
		
			<line fill="none" stroke="#FF0000" stroke-width="2" stroke-linecap="round" stroke-linejoin="round" stroke-miterlimit="10" x1="102.057" y1="35.388" x2="102.057" y2="33.06"/>
	</g>
	<g>
		
			<circle fill="none" stroke="#FF0000" stroke-width="2" stroke-linecap="round" stroke-linejoin="round" stroke-miterlimit="10" cx="102.224" cy="28.068" r="10.395"/>
	</g>
</g>
</svg>
