<?xml version="1.0" encoding="utf-8"?>
<!-- Generator: Adobe Illustrator 16.0.0, SVG Export Plug-In . SVG Version: 6.00 Build 0)  -->
<!DOCTYPE svg PUBLIC "-//W3C//DTD SVG 1.1//EN" "http://www.w3.org/Graphics/SVG/1.1/DTD/svg11.dtd">
<svg version="1.1" id="Calque_1" xmlns="http://www.w3.org/2000/svg" xmlns:xlink="http://www.w3.org/1999/xlink" x="0px" y="0px"
	 width="128px" height="128px" viewBox="0 0 128 128" enable-background="new 0 0 128 128" xml:space="preserve">
<g id="Calque_2" display="none">
</g>
<sodipodi:namedview  id="namedview7" inkscape:zoom="2.8710938" bordercolor="#666666" guidetolerance="10" objecttolerance="10" borderopacity="1" showgrid="false" inkscape:cx="7.8240306" pagecolor="#ffffff" inkscape:cy="41.675131" gridtolerance="10" inkscape:window-width="1519" inkscape:window-height="845" inkscape:pageshadow="2" inkscape:window-maximized="0" inkscape:window-x="0" inkscape:current-layer="Livello_1" inkscape:pageopacity="0" inkscape:window-y="0">
	</sodipodi:namedview>
<title  id="title2"></title>
<g>
	
		<circle fill="none" stroke="#FF0000" stroke-width="5" stroke-linecap="round" stroke-linejoin="round" stroke-miterlimit="10" cx="33.182" cy="25.277" r="8.797"/>
	<path fill="none" stroke="#FF0000" stroke-width="5" stroke-linecap="round" stroke-linejoin="round" stroke-miterlimit="10" d="
		M60.477,33.869c0-15.074-12.22-27.296-27.294-27.296c-15.076,0-27.296,12.222-27.296,27.296c0,10.609,6.065,19.783,14.907,24.301
		v9.055l7.738,7.737l-8.327,8.329l6.998,6.997l-6.37,6.37l6.85,6.849l-7.048,7.048l12.183,12.183l12.932-12.933V58.096h-0.027
		C54.481,53.553,60.477,44.419,60.477,33.869z"/>
</g>
<line fill="none" stroke="#FF0000" stroke-width="5" stroke-linecap="round" stroke-linejoin="round" stroke-miterlimit="10" x1="62.477" y1="63.999" x2="96.242" y2="63.999"/>
<line fill="none" stroke="#FF0000" stroke-width="5" stroke-linecap="round" stroke-linejoin="round" stroke-miterlimit="10" x1="62.477" y1="78.116" x2="96.242" y2="78.116"/>
<line fill="none" stroke="#FF0000" stroke-width="5" stroke-linecap="round" stroke-linejoin="round" stroke-miterlimit="10" x1="62.477" y1="92.435" x2="96.242" y2="92.435"/>
</svg>
