<?xml version="1.0" encoding="utf-8"?>
<!-- Generator: Adobe Illustrator 16.0.0, SVG Export Plug-In . SVG Version: 6.00 Build 0)  -->
<!DOCTYPE svg PUBLIC "-//W3C//DTD SVG 1.1//EN" "http://www.w3.org/Graphics/SVG/1.1/DTD/svg11.dtd">
<svg version="1.1" xmlns="http://www.w3.org/2000/svg" xmlns:xlink="http://www.w3.org/1999/xlink" x="0px" y="0px" width="128px"
	 height="128px" viewBox="0 0 128 128" enable-background="new 0 0 128 128" xml:space="preserve">
<g id="Calque_2">
	<g>
		
			<rect x="29.152" y="88.162" transform="matrix(0.7071 -0.7071 0.7071 0.7071 -53.3376 55.4102)" fill="none" width="22.125" height="7.849"/>
		<path fill="none" d="M33.208,64l12.054,12.055l9.859,9.859l2.051,0.876l0.127,0.126c1.188,0.634,2.516,0.949,3.863,0.937
			c1.179-0.017,2.344-0.139,3.491-0.355V55.396l-0.018-0.006V59"/>
		<path fill="none" d="M61.122,96.172l3.068-0.929c0.582-0.178,1.151-0.378,1.692-0.594l5.235-2.104
			c0.385-0.159,0.687-0.502,0.805-0.928c0.07-0.251,0.13-0.751-0.251-1.27c-0.364-0.496-1.074-0.675-1.688-0.426
			c-2.801,1.133-5.749,1.727-8.765,1.772c-2.12,0.029-4.201-0.51-6.039-1.562l-0.125-0.069l-1.285-0.55L37.884,105.4l17.144,17.145
			c0.557,0.556,1.464,0.556,2.021,0c0.556-0.557,0.557-1.461,0.002-2.02l-0.003-0.003l2.717-2.717l1.011,1.012
			c0.568,0.568,1.481,0.621,2.036,0.117c0.293-0.268,0.46-0.632,0.469-1.026c0.009-0.394-0.139-0.766-0.418-1.046l2.716-2.716
			l1.118,1.118c0.568,0.568,1.481,0.621,2.036,0.116c0.294-0.269,0.46-0.631,0.47-1.025c0.009-0.396-0.14-0.766-0.419-1.045
			l2.717-2.717l1.748,1.748c0.277,0.278,0.643,0.427,1.044,0.418c0.394-0.01,0.759-0.176,1.024-0.471
			c0.506-0.554,0.453-1.467-0.115-2.035L61.122,96.172z"/>
		<path fill="none" d="M112.328,97.291l-8.678-1.806c-1.001-0.211-1.984,0.438-2.192,1.437c-0.209,1,0.438,1.985,1.438,2.193
			l8.676,1.805c1,0.207,1.985-0.436,2.193-1.437C113.973,98.483,113.328,97.499,112.328,97.291z"/>
		<path fill="none" d="M124.119,73.24c0.112-0.585-0.035-1.141-0.379-1.417c-0.468-0.375-1.217-0.138-1.621,0.039
			c-2.644,1.147-5.234,1.277-7.305,1.064v4.06c1.52,0.037,3.508-0.16,5.982-0.91C122.642,75.518,123.885,74.456,124.119,73.24z"/>
		<path fill="none" d="M112.134,81.776c-0.126-0.026-0.252-0.038-0.378-0.038c-0.859,0-1.633,0.603-1.814,1.475
			c-0.207,1.002,0.438,1.986,1.438,2.193l8.676,1.805c0.484,0.103,0.979,0.008,1.394-0.264s0.699-0.688,0.798-1.173
			c0.21-1-0.435-1.984-1.437-2.191L112.134,81.776z"/>
		<path fill="none" d="M117.768,90.675l-8.676-1.805c-0.126-0.027-0.254-0.041-0.379-0.041c-0.859,0-1.633,0.604-1.814,1.478
			c-0.209,1,0.437,1.984,1.438,2.192l8.675,1.806c0.485,0.101,0.98,0.007,1.395-0.266c0.413-0.271,0.698-0.688,0.8-1.171
			c0.1-0.486,0.006-0.982-0.266-1.396C118.669,91.06,118.253,90.775,117.768,90.675z"/>
		<path fill="none" d="M103.138,89.524c0.31-1.49,1.182-2.77,2.453-3.604c0.258-0.169,0.528-0.31,0.804-0.432
			c-0.338-0.951-0.434-2-0.213-3.057c0.371-1.792,1.555-3.208,3.083-3.954V41.833l-40.77,13.564v30.982
			c0.015-0.005,0.029-0.01,0.044-0.017c2.251-0.914,4.813-0.214,6.228,1.71c0.981,1.336,1.294,3.004,0.857,4.574
			s-1.55,2.831-3.052,3.456l-4.077,1.637v0.374l2.723,2.722l31.822-10.587C103.059,90.007,103.086,89.766,103.138,89.524z"/>
		<path fill="#FF0000" d="M127.893,73.969c0.386-1.998-0.285-3.969-1.75-5.143c-1.491-1.196-3.517-1.374-5.556-0.486
			c-2.083,0.905-4.175,0.929-5.772,0.716v-30.17c0-1.199-0.769-2.263-1.909-2.636L67.44,21.324c-0.563-0.185-1.169-0.185-1.73,0
			l-1.074,0.353v5.841l1.939-0.637l37.982,12.468l-14.019,4.664l-25.903-9.557v4.095l20.067,7.404l-18.128,6.03l-1.939-0.645v4.05
			l0.018,0.006v32.101c-1.147,0.217-2.312,0.339-3.491,0.355c-1.348,0.013-2.675-0.303-3.863-0.937l-0.127-0.126l-2.051-0.876
			l-9.859-9.859L33.208,64h-5.434l14.772,14.772L26.9,94.417l-3.921-3.922L23.001,64h-4.667v26.178c0,0.898,0.431,1.719,1.125,2.232
			l4.723,4.724l2.199,2.199L26.9,99.85l8.267,8.268l17.144,17.144c1.028,1.026,2.377,1.541,3.727,1.541
			c1.351,0,2.7-0.515,3.728-1.541c0.622-0.621,1.069-1.372,1.317-2.19c1.52,0.231,3.109-0.196,4.316-1.295
			c0.695-0.633,1.196-1.413,1.474-2.279c1.559,0.274,3.206-0.143,4.447-1.273c0.586-0.532,1.034-1.172,1.326-1.877
			c0.557,0.181,1.146,0.271,1.739,0.255c1.455-0.033,2.795-0.647,3.777-1.726c1.896-2.084,1.79-5.308-0.242-7.338l-2.313-2.314
			l22.006-7.319c0.255,2.392,2.021,4.457,4.5,4.974l8.677,1.805c0.391,0.083,0.778,0.121,1.16,0.121
			c2.643,0,5.018-1.853,5.576-4.537c0.147-0.707,0.149-1.411,0.039-2.085c1.04-0.029,2.055-0.343,2.948-0.927
			c1.271-0.836,2.144-2.115,2.453-3.604c0.215-1.034,0.137-2.082-0.208-3.054c0.274-0.123,0.541-0.268,0.798-0.435
			c1.273-0.834,2.144-2.114,2.453-3.604c0.638-3.06-1.323-6.066-4.373-6.725c0.092-0.028,0.182-0.05,0.275-0.079
			C125.194,78.759,127.374,76.65,127.893,73.969z M29.617,97.134l15.645-15.646l5.55,5.549l-15.645,15.647L29.617,97.134z
			 M75.318,112.289c-0.266,0.295-0.631,0.461-1.024,0.471c-0.401,0.009-0.767-0.14-1.044-0.418l-1.748-1.748l-2.717,2.717
			c0.279,0.279,0.428,0.649,0.419,1.045c-0.01,0.395-0.176,0.757-0.47,1.025c-0.555,0.505-1.468,0.452-2.036-0.116l-1.118-1.118
			l-2.716,2.716c0.279,0.28,0.427,0.652,0.418,1.046c-0.009,0.395-0.176,0.759-0.469,1.026c-0.554,0.504-1.468,0.451-2.036-0.117
			l-1.011-1.012l-2.717,2.717l0.003,0.003c0.554,0.559,0.553,1.463-0.002,2.02c-0.557,0.556-1.464,0.556-2.021,0L37.884,105.4
			L53.77,89.515l1.285,0.55l0.125,0.069c1.838,1.052,3.919,1.591,6.039,1.562c3.016-0.046,5.964-0.64,8.765-1.772
			c0.613-0.249,1.323-0.07,1.688,0.426c0.381,0.519,0.321,1.019,0.251,1.27c-0.118,0.426-0.42,0.769-0.805,0.928l-5.235,2.104
			c-0.541,0.216-1.11,0.416-1.692,0.594l-3.068,0.929l14.082,14.082C75.771,110.822,75.824,111.735,75.318,112.289z M71.218,100.835
			l-2.723-2.722v-0.374l4.077-1.637c1.502-0.625,2.615-1.886,3.052-3.456s0.124-3.238-0.857-4.574
			c-1.414-1.924-3.977-2.624-6.228-1.71c-0.015,0.007-0.029,0.012-0.044,0.017V55.396l40.77-13.564v36.645
			c-1.528,0.746-2.712,2.162-3.083,3.954c-0.221,1.057-0.125,2.105,0.213,3.057c-0.275,0.122-0.546,0.263-0.804,0.432
			c-1.271,0.835-2.144,2.114-2.453,3.604c-0.052,0.241-0.079,0.482-0.098,0.724L71.218,100.835z M113.765,99.483
			c-0.208,1.001-1.193,1.644-2.193,1.437l-8.676-1.805c-1-0.208-1.646-1.193-1.438-2.193c0.208-0.999,1.191-1.647,2.192-1.437
			l8.678,1.806C113.328,97.499,113.973,98.483,113.765,99.483z M119.206,92.868c-0.102,0.483-0.387,0.9-0.8,1.171
			c-0.414,0.272-0.909,0.366-1.395,0.266l-8.675-1.806c-1.002-0.208-1.647-1.192-1.438-2.192c0.182-0.874,0.955-1.478,1.814-1.478
			c0.125,0,0.253,0.014,0.379,0.041l8.676,1.805c0.485,0.101,0.901,0.385,1.173,0.797C119.212,91.886,119.306,92.382,119.206,92.868
			z M122.247,85.774c-0.099,0.485-0.384,0.901-0.798,1.173s-0.909,0.366-1.394,0.264l-8.676-1.805
			c-1.001-0.207-1.646-1.191-1.438-2.193c0.182-0.872,0.955-1.475,1.814-1.475c0.126,0,0.252,0.012,0.378,0.038l8.677,1.807
			C121.813,83.79,122.457,84.774,122.247,85.774z M120.797,76.076c-2.475,0.75-4.463,0.947-5.982,0.91v-4.06
			c2.07,0.213,4.661,0.083,7.305-1.064c0.404-0.177,1.153-0.414,1.621-0.039c0.344,0.276,0.491,0.832,0.379,1.417
			C123.885,74.456,122.642,75.518,120.797,76.076z"/>
	</g>
</g>
<g id="Calque_3_1_">
	<g id="Calque_3">
		<g>
			<path fill="none" stroke="#FF0000" stroke-width="5" stroke-linecap="round" stroke-linejoin="round" stroke-miterlimit="10" d="
				M56.654,55.605c0,0.578-0.469,1.049-1.049,1.049H5.548c-0.579,0-1.048-0.471-1.048-1.049V5.548C4.5,4.969,4.969,4.5,5.548,4.5
				h50.058c0.58,0,1.049,0.469,1.049,1.048V55.605L56.654,55.605z"/>
			<circle fill="#FF0000" cx="16.424" cy="17.481" r="3.704"/>
			<line fill="none" stroke="#FF0000" stroke-width="4" stroke-miterlimit="10" x1="24.219" y1="17.48" x2="46.23" y2="17.48"/>
			<circle fill="#FF0000" cx="16.424" cy="30.577" r="3.704"/>
			<line fill="none" stroke="#FF0000" stroke-width="4" stroke-miterlimit="10" x1="24.219" y1="30.578" x2="46.23" y2="30.578"/>
			<circle fill="#FF0000" cx="16.424" cy="43.673" r="3.704"/>
			<line fill="none" stroke="#FF0000" stroke-width="4" stroke-miterlimit="10" x1="24.219" y1="43.672" x2="46.23" y2="43.672"/>
		</g>
	</g>
</g>
</svg>
