<?xml version="1.0" encoding="utf-8"?>
<!-- Generator: Adobe Illustrator 16.0.0, SVG Export Plug-In . SVG Version: 6.00 Build 0)  -->
<!DOCTYPE svg PUBLIC "-//W3C//DTD SVG 1.1//EN" "http://www.w3.org/Graphics/SVG/1.1/DTD/svg11.dtd">
<svg version="1.1" xmlns="http://www.w3.org/2000/svg" xmlns:xlink="http://www.w3.org/1999/xlink" x="0px" y="0px" width="128px"
	 height="128px" viewBox="0 0 128 128" enable-background="new 0 0 128 128" xml:space="preserve">
<g id="Calque_2">
</g>
<g id="Calque_4">
	<g>
		<path fill="#FF0000" d="M106.911,80.447l-7.453,17.66l-13.334,3.741l-2.087-14.982l9.259-2.598
			c0.251,4.218,0.324,7.825,0.215,10.823c1.028-3.287,2.022-6.229,2.977-8.824l1.167-3.222L106.911,80.447z"/>
		<path fill="#FF0000" d="M109.745,92.047l-0.608,3.344l-6.36,1.785l0.608-3.344L109.745,92.047z"/>
	</g>
</g>
<g id="Calque_5">
	<g>
		<polygon fill="none" points="13.927,64 13.927,103.036 65.047,120.357 65.047,62.504 61.75,61.387 61.75,64 		"/>
		<polygon fill="none" points="67.366,58.386 80.461,54.03 61.75,47.386 61.75,56.509 		"/>
		<polygon fill="none" points="102.005,46.861 117.582,41.714 67.367,25.131 61.75,26.969 61.75,32.568 		"/>
		<path fill="none" d="M88.148,51.837c1.029,0.235,1.798,1.156,1.801,2.258c0,0.001,0,0.003,0,0.003v13.017l9.748-3.245V50.965
			L61.75,37.49v4.974L88.148,51.837z"/>
		<path fill="none" d="M104.338,65.546c0,0.999-0.64,1.885-1.588,2.2l-14.389,4.787c-0.24,0.08-0.485,0.118-0.731,0.118
			c-0.482,0-0.958-0.148-1.359-0.437c-0.604-0.437-0.961-1.138-0.961-1.884V57.307l-15.623,5.197v57.993l51.124-16.83V45.673
			l-16.473,5.303V65.546z M117.099,66.431c0.612,0.435,0.977,1.141,0.977,1.892v29.155c0,0.988-0.624,1.866-1.557,2.191
			L76.975,113.92c-0.249,0.087-0.507,0.129-0.765,0.129c-0.475,0-0.944-0.145-1.343-0.428c-0.612-0.436-0.977-1.141-0.977-1.891
			V82.823c0-0.987,0.624-1.867,1.557-2.191l39.543-14.5C115.7,65.884,116.485,65.995,117.099,66.431z"/>
		<polygon fill="none" points="113.435,71.589 78.53,84.471 78.53,108.463 113.435,95.83 		"/>
		<path fill="#FF0000" d="M73.891,82.823v28.907c0,0.75,0.364,1.455,0.977,1.891c0.398,0.283,0.868,0.428,1.343,0.428
			c0.258,0,0.516-0.042,0.765-0.129l39.544-14.251c0.933-0.325,1.557-1.203,1.557-2.191V68.322c0-0.751-0.364-1.457-0.977-1.892
			c-0.613-0.436-1.398-0.547-2.108-0.299l-39.543,14.5C74.515,80.956,73.891,81.836,73.891,82.823z M78.53,84.471l34.904-12.882
			V95.83L78.53,108.463V84.471z"/>
		<path fill="#FF0000" d="M123.324,39.378L68.411,21.353c-0.678-0.223-1.411-0.223-2.09,0l-4.571,1.5v4.116l5.617-1.838
			l50.215,16.583l-15.577,5.147L61.75,32.568v4.922l37.947,13.475v12.905l-9.748,3.245V54.098c0,0,0-0.002,0-0.003
			c-0.003-1.102-0.771-2.023-1.801-2.258L61.75,42.464v4.922l18.711,6.644l-13.095,4.356l-5.616-1.877v4.878l3.297,1.117v57.854
			l-51.12-17.321V64H9.103v40.514c0,1.444,0.924,2.725,2.293,3.181l54.912,18.268c0.344,0.114,0.7,0.173,1.058,0.173
			s0.715-0.059,1.059-0.173l54.912-18.268c1.37-0.456,2.294-1.736,2.294-3.181V42.562C125.631,41.114,124.7,39.83,123.324,39.378z
			 M120.811,103.667l-51.124,16.83V62.504l15.623-5.197v13.024c0,0.746,0.357,1.447,0.961,1.884
			c0.401,0.288,0.877,0.437,1.359,0.437c0.246,0,0.491-0.038,0.731-0.118l14.389-4.787c0.948-0.315,1.588-1.201,1.588-2.2v-14.57
			l16.473-5.303V103.667z"/>
	</g>
</g>
<g id="Calque_3_1_">
	<g id="Calque_3">
		<g>
			<path fill="none" stroke="#FF0000" stroke-width="5" stroke-linecap="round" stroke-linejoin="round" stroke-miterlimit="10" d="
				M56.654,55.605c0,0.578-0.469,1.049-1.049,1.049H5.548c-0.579,0-1.048-0.471-1.048-1.049V5.548C4.5,4.969,4.969,4.5,5.548,4.5
				h50.058c0.58,0,1.049,0.469,1.049,1.048V55.605L56.654,55.605z"/>
			<circle fill="#FF0000" cx="16.424" cy="17.481" r="3.704"/>
			<line fill="none" stroke="#FF0000" stroke-width="4" stroke-miterlimit="10" x1="24.219" y1="17.48" x2="46.23" y2="17.48"/>
			<circle fill="#FF0000" cx="16.424" cy="30.577" r="3.704"/>
			<line fill="none" stroke="#FF0000" stroke-width="4" stroke-miterlimit="10" x1="24.219" y1="30.578" x2="46.23" y2="30.578"/>
			<circle fill="#FF0000" cx="16.424" cy="43.673" r="3.704"/>
			<line fill="none" stroke="#FF0000" stroke-width="4" stroke-miterlimit="10" x1="24.219" y1="43.672" x2="46.23" y2="43.672"/>
		</g>
	</g>
</g>
</svg>
