<?xml version="1.0" encoding="utf-8"?>
<!-- Generator: Adobe Illustrator 16.0.0, SVG Export Plug-In . SVG Version: 6.00 Build 0)  -->
<!DOCTYPE svg PUBLIC "-//W3C//DTD SVG 1.1//EN" "http://www.w3.org/Graphics/SVG/1.1/DTD/svg11.dtd">
<svg version="1.1" xmlns="http://www.w3.org/2000/svg" xmlns:xlink="http://www.w3.org/1999/xlink" x="0px" y="0px" width="128px"
	 height="128px" viewBox="0 0 128 128" enable-background="new 0 0 128 128" xml:space="preserve">
<g id="Calque_1">
	<g>
		<g>
			<path fill="none" stroke="#FF0000" stroke-width="5" stroke-linecap="round" stroke-linejoin="round" stroke-miterlimit="10" d="
				M101.777,65.724c0,19.979-16.197,36.174-36.177,36.174c-19.979,0-36.176-16.195-36.176-36.174
				c0-19.981,16.197-36.178,36.176-36.178C85.58,29.546,101.777,45.742,101.777,65.724z"/>
			<path fill="none" stroke="#FF0000" stroke-width="5" stroke-linecap="round" stroke-linejoin="round" stroke-miterlimit="10" d="
				M125.672,65.724c0,33.175-26.896,60.069-60.071,60.069c-33.177,0-60.072-26.895-60.072-60.069
				c0-33.179,26.895-60.072,60.072-60.072C98.775,5.651,125.672,32.545,125.672,65.724z"/>
		</g>
		
			<line fill="none" stroke="#FF0000" stroke-width="5" stroke-linecap="round" stroke-linejoin="round" stroke-miterlimit="10" x1="118.23" y1="36.75" x2="100.117" y2="54.885"/>
		
			<line fill="none" stroke="#FF0000" stroke-width="5" stroke-linecap="round" stroke-linejoin="round" stroke-miterlimit="10" x1="94.573" y1="13.091" x2="76.459" y2="31.228"/>
		
			<line fill="none" stroke="#FF0000" stroke-width="5" stroke-linecap="round" stroke-linejoin="round" stroke-miterlimit="10" x1="54.764" y1="100.238" x2="36.628" y2="118.353"/>
		
			<line fill="none" stroke="#FF0000" stroke-width="5" stroke-linecap="round" stroke-linejoin="round" stroke-miterlimit="10" x1="31.105" y1="76.578" x2="12.968" y2="94.695"/>
		
			<line fill="none" stroke="#FF0000" stroke-width="5" stroke-linecap="round" stroke-linejoin="round" stroke-miterlimit="10" x1="94.573" y1="118.353" x2="76.459" y2="100.238"/>
		
			<line fill="none" stroke="#FF0000" stroke-width="5" stroke-linecap="round" stroke-linejoin="round" stroke-miterlimit="10" x1="118.23" y1="94.695" x2="100.117" y2="76.578"/>
		
			<line fill="none" stroke="#FF0000" stroke-width="5" stroke-linecap="round" stroke-linejoin="round" stroke-miterlimit="10" x1="31.105" y1="54.885" x2="12.968" y2="36.75"/>
		
			<line fill="none" stroke="#FF0000" stroke-width="5" stroke-linecap="round" stroke-linejoin="round" stroke-miterlimit="10" x1="54.764" y1="31.228" x2="36.628" y2="13.091"/>
	</g>
</g>
<g id="Calque_3_1_">
	<path fill="none" stroke="#FF0000" stroke-width="5" stroke-linecap="round" stroke-linejoin="round" stroke-miterlimit="10" d="
		M66.006,50.092c0,0,8.314,0.354,10.008,1.891c1.691,1.536,2.638,0.945,2.874,7.917c0.236,6.972-0.946,22.335-12.882,22.335
		c-11.935,0-12.644-13.944-12.762-21.981c-0.118-8.036,3.781-9.099,5.436-9.454C60.334,50.446,61.162,50.21,66.006,50.092z"/>
	<path fill="none" stroke="#FF0000" stroke-width="5" stroke-linecap="round" stroke-linejoin="round" stroke-miterlimit="10" d="
		M78.83,58.596c0,0,9.156,2.912,11.283-9.769"/>
	<path fill="none" stroke="#FF0000" stroke-width="5" stroke-linecap="round" stroke-linejoin="round" stroke-miterlimit="10" d="
		M89.05,79.871v-5.437c0,0,0.633-7.134-10.438-7.762"/>
	<path fill="none" stroke="#FF0000" stroke-width="5" stroke-linecap="round" stroke-linejoin="round" stroke-miterlimit="10" d="
		M80.897,89.916v-5.908c0,0,0.147-5.702-5.48-7.046"/>
	<path fill="none" stroke="#FF0000" stroke-width="5" stroke-linecap="round" stroke-linejoin="round" stroke-miterlimit="10" d="
		M53.085,58.596c0,0-9.157,2.912-11.284-9.769"/>
	<path fill="none" stroke="#FF0000" stroke-width="5" stroke-linecap="round" stroke-linejoin="round" stroke-miterlimit="10" d="
		M42.864,79.871v-5.437c0,0-0.631-7.134,10.438-7.762"/>
	<path fill="none" stroke="#FF0000" stroke-width="5" stroke-linecap="round" stroke-linejoin="round" stroke-miterlimit="10" d="
		M51.019,89.916v-5.908c0,0-0.149-5.702,5.48-7.046"/>
	
		<line fill="none" stroke="#FF0000" stroke-width="5" stroke-linecap="round" stroke-linejoin="round" stroke-miterlimit="10" x1="66.006" y1="65.722" x2="66.006" y2="82.235"/>
	<path fill="none" stroke="#FF0000" stroke-width="5" stroke-linecap="round" stroke-linejoin="round" stroke-miterlimit="10" d="
		M66.006,58.885v-8.793c4.269,0,4.373,0.37,4.373,0.37s0,1.285,0-3.915c0-5.2-4.302-4.964-4.302-4.964s-3.853-0.945-3.97,4.964
		c-0.118,5.908,0,3.66,0,3.66"/>
</g>
<g id="Calque_2_1_" display="none">
	<g id="Calque_3" display="inline">
		<g>
			<path fill="none" stroke="#FF0000" stroke-width="5" stroke-linecap="round" stroke-linejoin="round" stroke-miterlimit="10" d="
				M56.654,55.605c0,0.578-0.469,1.049-1.049,1.049H5.548c-0.579,0-1.048-0.471-1.048-1.049V5.548C4.5,4.969,4.969,4.5,5.548,4.5
				h50.058c0.58,0,1.049,0.469,1.049,1.048L56.654,55.605L56.654,55.605z"/>
			<circle fill="#FF0000" cx="16.424" cy="17.481" r="3.704"/>
			<line fill="none" stroke="#FF0000" stroke-width="4" stroke-miterlimit="10" x1="24.219" y1="17.481" x2="46.231" y2="17.481"/>
			<circle fill="#FF0000" cx="16.424" cy="30.577" r="3.704"/>
			<line fill="none" stroke="#FF0000" stroke-width="4" stroke-miterlimit="10" x1="24.219" y1="30.578" x2="46.231" y2="30.578"/>
			<circle fill="#FF0000" cx="16.424" cy="43.673" r="3.704"/>
			<line fill="none" stroke="#FF0000" stroke-width="4" stroke-miterlimit="10" x1="24.219" y1="43.672" x2="46.231" y2="43.672"/>
		</g>
	</g>
</g>
</svg>
