<?xml version="1.0" encoding="utf-8"?>
<!-- Generator: Adobe Illustrator 16.0.0, SVG Export Plug-In . SVG Version: 6.00 Build 0)  -->
<!DOCTYPE svg PUBLIC "-//W3C//DTD SVG 1.1//EN" "http://www.w3.org/Graphics/SVG/1.1/DTD/svg11.dtd">
<svg version="1.1" xmlns="http://www.w3.org/2000/svg" xmlns:xlink="http://www.w3.org/1999/xlink" x="0px" y="0px" width="128px"
	 height="128px" viewBox="0 0 128 128" enable-background="new 0 0 128 128" xml:space="preserve">
<g id="Calque_1" display="none">
	<g id="Calque_1_1_" display="inline">
	</g>
	<g id="Calque_3_1_" display="inline">
		<path fill="#FF0000" d="M118.268,70.604c-0.05,0.052-0.104,0.1-0.154,0.149c-0.26,2.604-0.697,5.161-1.317,7.647
			c-5.933,4.563-13.438,8.088-22.442,10.533c0.989-2.654,1.809-5.381,2.479-8.145l-7.004,7.005
			c-0.315,0.827-0.642,1.649-0.987,2.462c-0.604,0.128-1.221,0.241-1.835,0.36l-5.604,5.604c1.693-0.234,3.361-0.494,4.984-0.787
			c-3.111,5.881-7.033,11.194-11.529,15.606c-1.385,3.317-3.409,6.385-6.02,8.994c-1.465,1.465-3.066,2.739-4.772,3.829
			c0.214,0.003,0.425,0.018,0.641,0.019c0.002,0,0.004,0,0.007,0c0.002,0,0.004,0,0.007,0c32.143-0.102,58.293-26.334,58.293-58.477
			c0-0.361-0.014-0.72-0.021-1.081C121.736,66.585,120.169,68.703,118.268,70.604z M73.336,118.536
			c7.75-6.121,14.288-14.62,18.791-24.288c8.614-2.02,16.078-4.922,22.331-8.688C107.52,102.666,92.036,115.441,73.336,118.536z"/>
		<path fill="#FF0000" d="M18.132,99.052c-2.806-3.899-5.144-8.159-6.916-12.7c2.98,1.643,6.035,3.116,9.17,4.443
			c0.659-1.507,1.458-2.962,2.372-4.361c-4.782-1.994-9.364-4.354-13.782-7.117c-0.908-3.662-1.463-7.461-1.629-11.358H28.37
			c0.14,3.619,0.587,7.299,1.32,10.974c1.424-1.098,2.933-2.055,4.511-2.869c-0.464-2.717-0.77-5.43-0.881-8.104h19.018l4.944-4.945
			H33.318c0.353-8.607,2.522-17.273,6.086-25.249c6.97-1.45,14.63-2.362,22.88-2.728V58.01l4.944-4.944V35.014
			c1.604,0.1,4.086,0.299,7.182,0.674c0.859-1.619,1.876-3.161,3.031-4.61c-4.564-0.63-8.15-0.907-10.213-1.024V9.812
			c5.972,3.932,11.422,9.357,15.948,15.765c1.337-0.979,2.744-1.835,4.208-2.573c-3.896-5.565-8.445-10.464-13.431-14.409
			c9.588,1.581,18.384,5.542,25.771,11.247c0.379-0.015,0.758-0.028,1.139-0.028c2.5,0,5.003,0.329,7.428,0.947
			C97.048,9.757,81.691,2.935,64.773,2.875c-0.006,0-0.012-0.001-0.017-0.001c-0.004,0-0.007,0.001-0.011,0.001
			c-28.32,0.09-52.278,19.134-59.879,45.054c-0.043,0.117-0.075,0.235-0.102,0.356c-1.569,5.471-2.427,11.237-2.427,17.199
			c0,15.955,6.024,30.545,15.909,41.621C17.846,104.416,17.804,101.71,18.132,99.052z M62.285,30.086
			c-7.17,0.305-13.876,0.988-20.083,2.065c5.068-9.156,12.012-17.035,20.083-22.338V30.086z M55.553,8.594
			c-7.998,6.333-14.749,15.018-19.526,24.805c-9.207,2.1-17.205,5.142-23.946,9.114C19.779,24.889,36.033,11.812,55.553,8.594z
			 M9.34,50.274c6.34-4.789,14.48-8.513,24.156-11.102c-3.003,7.646-4.819,15.771-5.128,23.84H7.347
			C7.534,58.623,8.219,54.36,9.34,50.274z"/>
	</g>
	<g id="Calque_2_1_" display="inline">
		<g id="Calque_3">
			<path fill="none" stroke="#FF0000" stroke-width="5" stroke-linecap="round" stroke-linejoin="round" stroke-miterlimit="10" d="
				M65.24,99.453l32.32-32.322c5.77,1.516,12.166,0.014,16.688-4.508c5.204-5.206,6.412-12.895,3.618-19.25l-10.555,10.553
				c-1.479,1.48-3.9,1.48-5.383,0l-3.222-3.222c-1.479-1.48-1.479-3.903,0-5.383l10.665-10.664
				c-6.434-3.034-14.35-1.891-19.666,3.425c-4.521,4.523-6.021,10.92-4.51,16.69L52.88,87.091
				c-5.769-1.512-12.167-0.014-16.689,4.513c-5.206,5.205-6.413,12.894-3.618,19.248l10.552-10.554c1.48-1.479,3.903-1.479,5.383,0
				l3.222,3.224c1.479,1.479,1.479,3.899,0,5.381l-10.665,10.666c6.433,3.031,14.346,1.892,19.665-3.426
				C65.255,111.619,66.753,105.223,65.24,99.453z"/>
		</g>
	</g>
</g>
<g id="Calque_2">
	<g>
		<path fill="none" stroke="#FF0000" stroke-width="5" stroke-linecap="round" stroke-linejoin="round" stroke-miterlimit="10" d="
			M67.983,75.326l2.042,2.046c-1.723,4.517-0.765,9.82,2.874,13.46c2.583,2.583,6.006,3.813,9.39,3.695
			c0.647-0.023,1.126-0.427,1.413-1.024c0.486-1.01,0.23-2.224-0.563-3.017l-4.053-4.052c-0.729-0.729-0.729-1.91,0-2.639
			l4.666-4.666c0.729-0.728,1.909-0.728,2.638,0l4.055,4.055c0.79,0.79,1.996,1.051,3.008,0.575c0.597-0.28,1.002-0.749,1.026-1.39
			c0.144-3.706-1.333-7.457-4.429-10.109c-3.634-3.114-8.52-3.835-12.733-2.204l-3.517-3.522"/>
		<path fill="none" stroke="#FF0000" stroke-width="5" stroke-linecap="round" stroke-linejoin="round" stroke-miterlimit="10" d="
			M61.102,53.807l-3.112-3.116c1.632-4.215,0.91-9.101-2.204-12.734c-2.651-3.096-6.403-4.571-10.108-4.429
			c-0.641,0.024-1.11,0.43-1.391,1.026c-0.475,1.012-0.215,2.219,0.575,3.008l4.055,4.056c0.728,0.728,0.728,1.908,0,2.637
			L44.25,48.92c-0.729,0.729-1.909,0.729-2.638,0l-4.053-4.052c-0.793-0.793-2.006-1.049-3.017-0.563
			c-0.597,0.287-1.001,0.766-1.023,1.413c-0.119,3.385,1.112,6.807,3.695,9.39c3.639,3.64,8.942,4.597,13.459,2.874l1.771,1.775"/>
		<g>
			
				<polyline fill="none" stroke="#FF0000" stroke-width="5" stroke-linecap="round" stroke-linejoin="round" stroke-miterlimit="10" points="
				66.24,57.299 79.605,43.847 80.815,38.874 88.931,33.464 93.935,38.469 88.66,46.719 83.474,47.9 70.107,61.354 			"/>
			<path fill="none" stroke="#FF0000" stroke-width="5" stroke-linecap="round" stroke-linejoin="round" stroke-miterlimit="10" d="
				M68.802,67.476l-8.656-8.656l2.841-2.841c0.373-0.373,0.979-0.373,1.353,0l7.303,7.304c0.374,0.374,0.374,0.979,0,1.353
				L68.802,67.476z"/>
			<path fill="none" stroke="#FF0000" stroke-width="5" stroke-linecap="round" stroke-linejoin="round" stroke-miterlimit="10" d="
				M36.11,91.707L36.11,91.707c-3.133-3.133-3.133-8.212,0-11.345l22.083-22.144c0.373-0.373,0.979-0.373,1.352,0l9.992,9.992
				c0.374,0.373,0.374,0.979,0,1.353L47.455,91.707C44.322,94.84,39.243,94.84,36.11,91.707z"/>
			
				<line fill="none" stroke="#FF0000" stroke-width="5" stroke-linecap="round" stroke-linejoin="round" stroke-miterlimit="10" x1="60.552" y1="67.069" x2="42.535" y2="85.147"/>
		</g>
	</g>
	<g>
		<path fill="none" stroke="#FF0000" stroke-width="5" stroke-linecap="round" stroke-linejoin="round" stroke-miterlimit="10" d="
			M8.948,80.128C4.311,63.037,7.628,44.04,19.561,29.172C38.316,5.801,71.64,1.004,96.095,17.348l4.855-10.485l13.299,29.303
			l-14.015,2.396"/>
		<path fill="none" stroke="#FF0000" stroke-width="5" stroke-linecap="round" stroke-linejoin="round" stroke-miterlimit="10" d="
			M119.12,48.122c4.537,17.025,1.194,35.91-10.681,50.706c-18.757,23.371-52.079,28.167-76.534,11.824l-4.855,10.485L13.751,91.835
			l14.26-2.619"/>
	</g>
</g>
</svg>
