<?xml version="1.0" encoding="utf-8"?>
<!-- Generator: Adobe Illustrator 16.0.0, SVG Export Plug-In . SVG Version: 6.00 Build 0)  -->
<!DOCTYPE svg PUBLIC "-//W3C//DTD SVG 1.1//EN" "http://www.w3.org/Graphics/SVG/1.1/DTD/svg11.dtd">
<svg version="1.1" id="Calque_1" xmlns="http://www.w3.org/2000/svg" xmlns:xlink="http://www.w3.org/1999/xlink" x="0px" y="0px"
	 width="128px" height="128px" viewBox="0 0 128 128" enable-background="new 0 0 128 128" xml:space="preserve">
<path fill="none" stroke="#FF0000" stroke-width="5" stroke-linecap="round" stroke-linejoin="round" stroke-miterlimit="10" d="
	M92.831,101.18c0,3.92-3.17,7.092-7.09,7.092c-0.62,0-1.22-0.08-1.79-0.229c0,0-0.93-0.341-2.521-0.819
	c-0.959-0.291-2.17-0.632-3.56-0.961v18.239h46.63V77.869h-17.721c0.352-1.262,0.66-2.28,0.891-2.989c0.229-0.7,0.37-1.09,0.37-1.09
	c0.149-0.569,0.229-1.171,0.229-1.791c0-3.92-3.17-7.09-7.09-7.09c-3.91,0-7.08,3.17-7.08,7.09c0,0.62,0.08,1.222,0.229,1.791
	c0,0,0.568,1.56,1.261,4.079h-17.72v18.229c3.66-0.879,6.08-1.771,6.08-1.771c0.57-0.149,1.17-0.229,1.789-0.229
	C89.661,94.1,92.831,97.271,92.831,101.18z"/>
<g>
	<path fill="#FF0000" d="M32.948,81.533c-9.151,0-16.679-6.942-17.609-15.848h-4.324l8.438-11.749l8.438,11.749H23.94
		c2.862,7.434,9.872,12.808,18.196,13.28C39.457,80.595,36.312,81.533,32.948,81.533z"/>
	<path fill="#FF0000" d="M50.557,61.971h4.32l-8.437,11.75l-8.438-11.75h3.952c-2.863-7.435-9.873-12.807-18.197-13.281
		c2.681-1.629,5.826-2.566,9.189-2.566C42.099,46.123,49.628,53.065,50.557,61.971z"/>
</g>
<g id="Calque_2">
	<polyline fill="none" stroke="#FF0000" stroke-width="5" stroke-linecap="round" stroke-miterlimit="10" points="115.012,61.264 
		115.98,23.937 61.124,5.211 4.769,23.937 4.769,86.467 60.188,104.814 70.436,100.434 	"/>
	<polyline fill="none" stroke="#FF0000" stroke-width="5" stroke-miterlimit="10" points="4.769,23.937 61.124,42.048 
		60.188,104.814 	"/>
	<line fill="none" stroke="#FF0000" stroke-width="5" stroke-miterlimit="10" x1="36.683" y1="13.332" x2="89.021" y2="32.546"/>
	<line fill="none" stroke="#FF0000" stroke-width="5" stroke-miterlimit="10" x1="61.124" y1="42.048" x2="115.98" y2="23.937"/>
</g>
</svg>
