<?xml version="1.0" encoding="utf-8"?>
<!-- Generator: Adobe Illustrator 16.0.0, SVG Export Plug-In . SVG Version: 6.00 Build 0)  -->
<!DOCTYPE svg PUBLIC "-//W3C//DTD SVG 1.1//EN" "http://www.w3.org/Graphics/SVG/1.1/DTD/svg11.dtd">
<svg version="1.1" id="Calque_1" xmlns="http://www.w3.org/2000/svg" xmlns:xlink="http://www.w3.org/1999/xlink" x="0px" y="0px"
	 width="128px" height="128px" viewBox="0 0 128 128" enable-background="new 0 0 128 128" xml:space="preserve">
<g id="Calque_1_1_">
	<g id="Calque_3" display="none">
		<g id="Icones" display="inline">
			<g id="Artboard" transform="translate(-1260.000000, -550.000000)">
				<g id="icone-signature-du-contrat-franchise" transform="translate(1249.000000, 539.000000)">
					<g id="Rectangle">
					</g>
					<defs>
						<filter id="Adobe_OpacityMaskFilter" filterUnits="userSpaceOnUse" x="8.244" y="4.833" width="127.506" height="130.11">
							<feColorMatrix  type="matrix" values="1 0 0 0 0  0 1 0 0 0  0 0 1 0 0  0 0 0 1 0"/>
						</filter>
					</defs>
					<mask maskUnits="userSpaceOnUse" x="8.244" y="4.833" width="127.506" height="130.11" id="mask-2_1_">
						<g filter="url(#Adobe_OpacityMaskFilter)">
							<rect id="path-1_1_" x="0.227" y="-3.553" fill="#FFFFFF" width="145.789" height="145.789"/>
						</g>
					</mask>
					<g id="Group-16" mask="url(#mask-2_1_)">
						<g transform="translate(11.000000, 11.000000)">
							<path id="Fill-1" fill="#FF0000" d="M25.004,14.605c-0.838,0-1.518,0.652-1.518,1.458c0,0.802,0.68,1.458,1.518,1.458h50.905
								c0.837,0,1.519-0.656,1.519-1.458c0-0.805-0.682-1.458-1.519-1.458H25.004z"/>
							<path id="Fill-3" fill="#FF0000" d="M12.546,14.605H11.83c-0.806,0-1.463,0.652-1.463,1.458c0,0.802,0.658,1.458,1.463,1.458
								h0.716c0.809,0,1.464-0.656,1.464-1.458C14.01,15.259,13.355,14.605,12.546,14.605"/>
							<path id="Fill-5" fill="#FF0000" d="M75.184,29.185c0.836,0,1.518-0.654,1.518-1.458c0-0.802-0.682-1.458-1.518-1.458H11.883
								c-0.835,0-1.516,0.654-1.516,1.458c0,0.805,0.681,1.458,1.516,1.458H75.184z"/>
							<path id="Fill-7" fill="#FF0000" d="M75.184,40.847c0.836,0,1.518-0.655,1.518-1.458c0-0.805-0.682-1.458-1.518-1.458H11.883
								c-0.835,0-1.516,0.653-1.516,1.458c0,0.802,0.681,1.458,1.516,1.458H75.184z"/>
							<path id="Fill-9" fill="#FF0000" d="M42.326,53.24c0.866,0,1.571-0.654,1.571-1.458c0-0.804-0.705-1.458-1.571-1.458h-1.231
								c-0.866,0-1.572,0.655-1.572,1.458c0,0.805,0.706,1.458,1.572,1.458H42.326z"/>
							<path id="Fill-11" fill="#FF0000" d="M30.702,53.24c0.846,0,1.532-0.654,1.532-1.458c0-0.804-0.686-1.458-1.532-1.458H11.9
								c-0.846,0-1.535,0.655-1.535,1.458c0,0.805,0.689,1.458,1.535,1.458H30.702z"/>
							<g id="Group-15">
								<g id="Clip-14">
								</g>
								<defs>
									
										<filter id="Adobe_OpacityMaskFilter_1_" filterUnits="userSpaceOnUse" x="-2.756" y="-6.167" width="127.506" height="130.11">
										<feColorMatrix  type="matrix" values="1 0 0 0 0  0 1 0 0 0  0 0 1 0 0  0 0 0 1 0"/>
									</filter>
								</defs>
								<mask maskUnits="userSpaceOnUse" x="-2.756" y="-6.167" width="127.506" height="130.11" id="mask-4_1_">
									<g filter="url(#Adobe_OpacityMaskFilter_1_)">
										<polygon id="path-3_1_" fill="#FFFFFF" points="-2.756,-6.167 124.749,-6.167 124.749,123.945 -2.756,123.945 										
											"/>
									</g>
								</mask>
								<path id="Fill-13" mask="url(#mask-4_1_)" fill="#FF0000" d="M96.854,21.812l12.758,7.373L70.428,97.137L57.67,89.764
									L96.854,21.812z M103.518,10.261l12.756,7.376l-5.146,8.922l-12.76-7.374L103.518,10.261z M107.973,2.533
									c2.032-3.519,6.545-4.728,10.063-2.699c1.706,0.986,2.924,2.576,3.432,4.479c0.511,1.901,0.249,3.89-0.733,5.596
									l-2.944,5.102l-12.757-7.373L107.973,2.533z M56.965,92.857l11.137,6.438l-12,7.932L56.965,92.857z M87.604,120.917H23.065
									V99.611c0-0.836-0.678-1.518-1.513-1.518H0.274V-3.136h87.328v34.925L77.393,49.493H52.975
									c-0.833,0-1.513,0.682-1.513,1.516c0,0.837,0.68,1.517,1.513,1.517h22.671l-5.09,8.821H12.35
									c-0.835,0-1.513,0.681-1.513,1.518c0,0.833,0.678,1.515,1.513,1.515h56.46l-5.087,8.824H12.35
									c-0.835,0-1.513,0.68-1.513,1.513c0,0.84,0.678,1.52,1.513,1.52h49.625l-7.686,13.324c-0.115,0.198-0.182,0.418-0.195,0.653
									l-1.193,19.856c-0.037,0.576,0.253,1.113,0.751,1.402c0.181,0.104,0.385,0.17,0.608,0.191
									c0.528,0.004,13.235,0.011,21.631,0.013c0.836,0,1.514-0.681,1.514-1.518c0-0.834-0.678-1.519-1.514-1.519H59.456
									l12.366-8.179c0.191-0.13,0.359-0.305,0.472-0.501l15.312-26.55v47.504h-0.002V120.917z M20.037,118.771L2.414,101.128
									h17.623V118.771z M-1.243-6.167c-0.833,0-1.513,0.681-1.513,1.516V99.611c0,0.397,0.164,0.789,0.444,1.074l22.791,22.815
									c0.286,0.286,0.668,0.442,1.072,0.442h67.567c0.832,0,1.513-0.68,1.513-1.516V68.163l32.721-56.74
									c1.391-2.407,1.758-5.211,1.041-7.897c-0.72-2.684-2.438-4.927-4.843-6.318c-4.967-2.871-11.337-1.161-14.198,3.81
									L90.632,26.54V-4.65c0-0.835-0.681-1.516-1.513-1.516L-1.243-6.167L-1.243-6.167z"/>
							</g>
						</g>
					</g>
				</g>
			</g>
		</g>
	</g>
</g>
<line fill="none" stroke="#FF0000" stroke-width="5" stroke-linecap="round" stroke-linejoin="round" stroke-miterlimit="10" x1="54.108" y1="19.227" x2="54.108" y2="70.264"/>
<path fill="none" stroke="#FF0000" stroke-width="5" stroke-linecap="round" stroke-linejoin="round" stroke-miterlimit="10" d="
	M42.432,74.832V42.926c0-0.703-0.57-1.271-1.271-1.271H12.657c-0.703,0-1.272,0.568-1.272,1.271v47.582
	c0,0.703,0.57,1.271,1.272,1.271h23.916C36.573,91.779,36.095,82.641,42.432,74.832z"/>
<line fill="none" stroke="#FF0000" stroke-width="5" stroke-linecap="round" stroke-linejoin="round" stroke-miterlimit="10" x1="4.453" y1="99.141" x2="42.424" y2="99.141"/>
<path fill="none" stroke="#FF0000" stroke-width="5" stroke-linecap="round" stroke-linejoin="round" stroke-miterlimit="10" d="
	M60.655,66.398h9.181l7.432-38.754h28.791l1.877,40.842h15.646v27.33h-2.921c0,0-1.147-10.119-11.818-10.119
	c-11.268,0-11.858,9.14-11.858,9.14H82.146c0,0-0.082-2.876-0.082-6.737c0-3.235-2.293-18.35-18.777-18.35h-2.631L60.655,66.398
	L60.655,66.398z"/>
<circle fill="none" stroke="#FF0000" stroke-width="5" stroke-miterlimit="10" cx="61.106" cy="90.369" r="14.171"/>
<circle fill="none" stroke="#FF0000" stroke-width="5" stroke-miterlimit="10" cx="108.104" cy="101.604" r="6.48"/>
<path fill="none" stroke="#FF0000" stroke-width="5" stroke-linejoin="round" stroke-miterlimit="10" d="M85.016,36.133h12.859
	v21.571l-16.5-0.841L85.016,36.133z"/>
<g id="Calque_2" display="none">
	<g id="Calque_2_1_" display="inline">
		<g id="Calque_3_1_">
			<g>
				
					<path fill="#FFFFFF" stroke="#FF0000" stroke-width="5" stroke-linecap="round" stroke-linejoin="round" stroke-miterlimit="10" d="
					M56.654,55.605c0,0.578-0.469,1.049-1.049,1.049H5.548c-0.579,0-1.048-0.471-1.048-1.049V5.548C4.5,4.969,4.969,4.5,5.548,4.5
					h50.058c0.58,0,1.049,0.469,1.049,1.048L56.654,55.605L56.654,55.605z"/>
				<circle fill="#FF0000" cx="16.424" cy="17.481" r="3.704"/>
				<line fill="none" stroke="#FF0000" stroke-width="4" stroke-miterlimit="10" x1="24.219" y1="17.48" x2="46.23" y2="17.48"/>
				<circle fill="#FF0000" cx="16.424" cy="30.577" r="3.704"/>
				<line fill="none" stroke="#FF0000" stroke-width="4" stroke-miterlimit="10" x1="24.219" y1="30.578" x2="46.23" y2="30.578"/>
				<circle fill="#FF0000" cx="16.424" cy="43.673" r="3.704"/>
				<line fill="none" stroke="#FF0000" stroke-width="4" stroke-miterlimit="10" x1="24.219" y1="43.672" x2="46.23" y2="43.672"/>
			</g>
		</g>
	</g>
</g>
</svg>
