<?xml version="1.0" encoding="utf-8"?>
<!-- Generator: Adobe Illustrator 16.0.0, SVG Export Plug-In . SVG Version: 6.00 Build 0)  -->
<!DOCTYPE svg PUBLIC "-//W3C//DTD SVG 1.1//EN" "http://www.w3.org/Graphics/SVG/1.1/DTD/svg11.dtd">
<svg version="1.1" xmlns="http://www.w3.org/2000/svg" xmlns:xlink="http://www.w3.org/1999/xlink" x="0px" y="0px" width="128px"
	 height="128px" viewBox="0 0 128 128" enable-background="new 0 0 128 128" xml:space="preserve">
<g id="Calque_3">
	<path fill="none" stroke="#FF0000" stroke-width="5" stroke-linecap="round" stroke-miterlimit="10" d="M100.203,113.441
		c0,1.104-0.896,2-2,2H31.084c-1.104,0-2-0.896-2-2v-14.05c0-1.104,0.896-2,2-2h67.119c1.104,0,2,0.896,2,2V113.441z"/>
</g>
<g id="Calque_4">
	<path fill="none" stroke="#FF0000" stroke-width="5" stroke-linecap="round" stroke-miterlimit="10" d="M35.312,97.477V62.449
		c0-8.284,6.716-15,15-15h26.663c8.285,0,15,6.716,15,15v35.044"/>
	<path fill="none" stroke="#FF0000" stroke-width="5" stroke-linecap="round" stroke-miterlimit="10" d="M82.553,73.594
		c0-9.01-7.305-16.314-16.314-16.314"/>
</g>
<g id="Calque_2">
	
		<line fill="none" stroke="#FF0000" stroke-width="5" stroke-linecap="round" stroke-miterlimit="10" x1="62.659" y1="17.56" x2="62.659" y2="32.56"/>
	
		<line fill="none" stroke="#FF0000" stroke-width="5" stroke-linecap="round" stroke-miterlimit="10" x1="101.775" y1="32.947" x2="91.168" y2="43.553"/>
	
		<line fill="none" stroke="#FF0000" stroke-width="5" stroke-linecap="round" stroke-miterlimit="10" x1="118.554" y1="71.487" x2="103.554" y2="71.485"/>
	
		<line fill="none" stroke="#FF0000" stroke-width="5" stroke-linecap="round" stroke-miterlimit="10" x1="8.732" y1="73.452" x2="23.732" y2="73.455"/>
	
		<line fill="none" stroke="#FF0000" stroke-width="5" stroke-linecap="round" stroke-miterlimit="10" x1="24.121" y1="34.337" x2="34.726" y2="44.945"/>
</g>
</svg>
