<?xml version="1.0" encoding="utf-8"?>
<!-- Generator: Adobe Illustrator 16.0.0, SVG Export Plug-In . SVG Version: 6.00 Build 0)  -->
<!DOCTYPE svg PUBLIC "-//W3C//DTD SVG 1.1//EN" "http://www.w3.org/Graphics/SVG/1.1/DTD/svg11.dtd">
<svg version="1.1" id="Calque_1" xmlns="http://www.w3.org/2000/svg" xmlns:xlink="http://www.w3.org/1999/xlink" x="0px" y="0px"
	 width="128px" height="128px" viewBox="0 0 128 128" enable-background="new 0 0 128 128" xml:space="preserve">
<g id="Calque_2" display="none">
</g>
<circle fill="none" stroke="#FF0000" stroke-width="5" stroke-miterlimit="10" cx="36.24" cy="34.736" r="8.147"/>
<circle fill="none" stroke="#FF0000" stroke-width="5" stroke-miterlimit="10" cx="42.165" cy="69.255" r="8.146"/>
<circle fill="none" stroke="#FF0000" stroke-width="5" stroke-miterlimit="10" cx="112.082" cy="81.045" r="8.146"/>
<circle fill="none" stroke="#FF0000" stroke-width="5" stroke-miterlimit="10" cx="16.271" cy="81.045" r="8.147"/>
<circle fill="none" stroke="#FF0000" stroke-width="5" stroke-miterlimit="10" cx="63.072" cy="26.589" r="8.147"/>
<circle fill="none" stroke="#FF0000" stroke-width="5" stroke-miterlimit="10" cx="63.072" cy="57.346" r="8.147"/>
<circle fill="none" stroke="#FF0000" stroke-width="5" stroke-miterlimit="10" cx="89.716" cy="34.736" r="8.147"/>
<circle fill="none" stroke="#FF0000" stroke-width="5" stroke-miterlimit="10" cx="18.41" cy="51.646" r="8.147"/>
<circle fill="none" stroke="#FF0000" stroke-width="5" stroke-miterlimit="10" cx="85.394" cy="69.255" r="8.146"/>
<circle fill="none" stroke="#FF0000" stroke-width="5" stroke-miterlimit="10" cx="109.148" cy="51.646" r="8.146"/>
<line fill="none" stroke="#FF0000" stroke-width="5" stroke-miterlimit="10" x1="63.072" y1="34.736" x2="63.072" y2="49.198"/>
<line fill="none" stroke="#FF0000" stroke-width="5" stroke-miterlimit="10" x1="63.072" y1="65.492" x2="63.072" y2="109.62"/>
<line fill="none" stroke="#FF0000" stroke-width="5" stroke-miterlimit="10" x1="49.45" y1="72.898" x2="63.072" y2="81.045"/>
<line fill="none" stroke="#FF0000" stroke-width="5" stroke-miterlimit="10" x1="23.93" y1="57.114" x2="35.777" y2="64.2"/>
<line fill="none" stroke="#FF0000" stroke-width="5" stroke-miterlimit="10" x1="42.165" y1="39.956" x2="58.073" y2="50.915"/>
<line fill="none" stroke="#FF0000" stroke-width="5" stroke-miterlimit="10" x1="83.816" y1="39.956" x2="67.908" y2="50.915"/>
<line fill="none" stroke="#FF0000" stroke-width="5" stroke-miterlimit="10" x1="77.675" y1="72.231" x2="64.054" y2="80.378"/>
<line fill="none" stroke="#FF0000" stroke-width="5" stroke-miterlimit="10" x1="103.195" y1="56.448" x2="91.348" y2="63.534"/>
<line fill="none" stroke="#FF0000" stroke-width="5" stroke-miterlimit="10" x1="23.93" y1="77.401" x2="35.777" y2="72.231"/>
<line fill="none" stroke="#FF0000" stroke-width="5" stroke-miterlimit="10" x1="105.388" y1="77.401" x2="93.54" y2="72.231"/>
<line fill="none" stroke="#FF0000" stroke-width="5" stroke-linecap="round" stroke-linejoin="round" stroke-miterlimit="10" x1="36.777" y1="109.62" x2="90.716" y2="109.62"/>
</svg>
