<?xml version="1.0" encoding="utf-8"?>
<!-- Generator: Adobe Illustrator 16.0.0, SVG Export Plug-In . SVG Version: 6.00 Build 0)  -->
<!DOCTYPE svg PUBLIC "-//W3C//DTD SVG 1.1//EN" "http://www.w3.org/Graphics/SVG/1.1/DTD/svg11.dtd">
<svg version="1.1" id="Calque_1" xmlns="http://www.w3.org/2000/svg" xmlns:xlink="http://www.w3.org/1999/xlink" x="0px" y="0px"
	 width="128px" height="128px" viewBox="0 0 128 128" enable-background="new 0 0 128 128" xml:space="preserve">
<g>
	
		<line id="line18" fill="none" stroke="#FF0000" stroke-width="5" stroke-linecap="round" stroke-linejoin="round" stroke-miterlimit="10" x1="108.917" y1="53.314" x2="108.917" y2="85.915"/>
	
		<path id="path22" fill="none" stroke="#FF0000" stroke-width="5" stroke-linecap="round" stroke-linejoin="round" stroke-miterlimit="10" d="
		M92.24,15.185c-0.167,0-0.305,0.602-0.305,1.344v33.592c0,0.742,0.138,1.344,0.305,1.344h33.214c0.167,0,0.303-0.602,0.303-1.344
		V16.529c0-0.742-0.136-1.344-0.303-1.344H92.24z"/>
	
		<path id="path22-1" fill="none" stroke="#FF0000" stroke-width="5" stroke-linecap="round" stroke-linejoin="round" stroke-miterlimit="10" d="
		M91.066,87.95c-0.166,0-0.303,0.602-0.303,1.344v33.592c0,0.742,0.137,1.344,0.303,1.344h33.216c0.167,0,0.303-0.602,0.303-1.344
		V89.294c0-0.742-0.136-1.344-0.303-1.344H91.066z"/>
	
		<path id="path22-3" fill="none" stroke="#FF0000" stroke-width="5" stroke-linecap="round" stroke-linejoin="round" stroke-miterlimit="10" d="
		M40.189,88.29c-0.168,0-0.305,0.604-0.305,1.344v33.594c0,0.74,0.137,1.344,0.305,1.344h33.215c0.167,0,0.303-0.604,0.303-1.344
		V89.634c0-0.74-0.136-1.344-0.303-1.344H40.189z"/>
	
		<polyline id="line18-4" fill="none" stroke="#FF0000" stroke-width="5" stroke-linecap="round" stroke-linejoin="round" stroke-miterlimit="10" points="
		55.946,87.8 55.91,74.065 107.212,74.065 	"/>
</g>
<path fill="#FF0000" d="M65.25,0H3C1.343,0,0,1.343,0,3v62.25c0,1.657,1.343,3,3,3h62.25c1.657,0,3-1.343,3-3V3
	C68.25,1.343,66.907,0,65.25,0z M15.229,53.573c-2.768,0-5.011-2.243-5.011-5.01c0-2.768,2.243-5.011,5.011-5.011
	c2.767,0,5.01,2.243,5.01,5.011C20.239,51.33,17.996,53.573,15.229,53.573z M15.229,38.335c-2.768,0-5.011-2.243-5.011-5.01
	c0-2.768,2.243-5.011,5.011-5.011c2.767,0,5.01,2.243,5.01,5.011C20.239,36.092,17.996,38.335,15.229,38.335z M15.229,23.097
	c-2.768,0-5.011-2.243-5.011-5.01c0-2.768,2.243-5.011,5.011-5.011c2.767,0,5.01,2.243,5.01,5.011
	C20.239,20.854,17.996,23.097,15.229,23.097z M53.856,52.72H30.129c-2.306,0-4.175-1.87-4.175-4.175s1.869-4.175,4.175-4.175h23.727
	c2.306,0,4.175,1.87,4.175,4.175S56.162,52.72,53.856,52.72z M53.856,37.482H30.129c-2.306,0-4.175-1.87-4.175-4.175
	s1.869-4.175,4.175-4.175h23.727c2.306,0,4.175,1.87,4.175,4.175S56.162,37.482,53.856,37.482z M53.856,22.245H30.129
	c-2.306,0-4.175-1.87-4.175-4.175s1.869-4.175,4.175-4.175h23.727c2.306,0,4.175,1.87,4.175,4.175S56.162,22.245,53.856,22.245z"/>
</svg>
