<?xml version="1.0" encoding="utf-8"?>
<!-- Generator: Adobe Illustrator 16.0.0, SVG Export Plug-In . SVG Version: 6.00 Build 0)  -->
<!DOCTYPE svg PUBLIC "-//W3C//DTD SVG 1.1//EN" "http://www.w3.org/Graphics/SVG/1.1/DTD/svg11.dtd">
<svg version="1.1"
	 id="Layer_1" xmlns:cc="http://creativecommons.org/ns#" xmlns:dc="http://purl.org/dc/elements/1.1/" xmlns:inkscape="http://www.inkscape.org/namespaces/inkscape" xmlns:rdf="http://www.w3.org/1999/02/22-rdf-syntax-ns#" xmlns:sodipodi="http://sodipodi.sourceforge.net/DTD/sodipodi-0.dtd" xmlns:svg="http://www.w3.org/2000/svg" inkscape:version="1.0 (4035a4fb49, 2020-05-01)" sodipodi:docname="iconTicket.svg"
	 xmlns="http://www.w3.org/2000/svg" xmlns:xlink="http://www.w3.org/1999/xlink" x="0px" y="0px" width="128px" height="128px"
	 viewBox="0 0 128 128" enable-background="new 0 0 128 128" xml:space="preserve">
<sodipodi:namedview  id="namedview27" inkscape:zoom="14.75" bordercolor="#666666" guidetolerance="10" objecttolerance="10" borderopacity="1" showgrid="false" inkscape:cx="22.296444" pagecolor="#ffffff" inkscape:cy="24.881783" gridtolerance="10" inkscape:snap-global="false" inkscape:document-rotation="0" inkscape:window-width="1920" inkscape:window-height="1017" inkscape:pageshadow="2" inkscape:window-maximized="1" inkscape:window-x="-8" inkscape:current-layer="Layer_1" inkscape:pageopacity="0" inkscape:window-y="-8">
	</sodipodi:namedview>
<path fill="none" stroke="#FF0000" stroke-width="5" stroke-linecap="round" stroke-linejoin="round" stroke-miterlimit="10" d="
	M51.761,49.102l2.434,7.423c0.25,0.766,0.972,1.285,1.785,1.285h7.871c1.816,0,2.573,2.307,1.102,3.363l-6.366,4.588
	c-0.659,0.474-0.934,1.315-0.682,2.082l2.432,7.421c0.562,1.712-1.417,3.135-2.885,2.078l-6.367-4.585
	c-0.658-0.472-1.547-0.472-2.203,0l-6.365,4.585c-1.472,1.057-3.45-0.366-2.889-2.078l2.433-7.421
	c0.25-0.767-0.024-1.606-0.682-2.082l-6.367-4.588c-1.47-1.057-0.714-3.363,1.103-3.363h7.872c0.812,0,1.531-0.52,1.784-1.285
	l2.434-7.423C48.757,47.39,51.203,47.39,51.761,49.102z"/>
<g id="Calque_3">
	<path fill="none" stroke="#FF0000" stroke-width="5" stroke-linecap="round" stroke-linejoin="round" stroke-miterlimit="10" d="
		M4,31.5v20.452c0,0,12.746-1.678,12.746,14.565C16.746,80.124,4,80.124,4,80.124V96.5h120V80.123c0,0-13.558-0.72-13.558-13.607
		S124,51.951,124,51.951V31.5H4z"/>
	<g>
		<g>
			
				<line fill="none" stroke="#FF0000" stroke-width="5" stroke-linecap="round" stroke-linejoin="round" stroke-dasharray="5,10" x1="86.961" y1="31.5" x2="86.961" y2="96.496"/>
		</g>
	</g>
</g>
</svg>
