<?xml version="1.0" encoding="utf-8"?>
<!-- Generator: Adobe Illustrator 16.0.0, SVG Export Plug-In . SVG Version: 6.00 Build 0)  -->
<!DOCTYPE svg PUBLIC "-//W3C//DTD SVG 1.1//EN" "http://www.w3.org/Graphics/SVG/1.1/DTD/svg11.dtd">
<svg version="1.1" xmlns="http://www.w3.org/2000/svg" xmlns:xlink="http://www.w3.org/1999/xlink" x="0px" y="0px" width="128px"
	 height="128px" viewBox="0 0 128 128" enable-background="new 0 0 128 128" xml:space="preserve">
<g id="Calque_1">
	<path fill="none" stroke="#FF0000" stroke-width="5" stroke-miterlimit="10" d="M97.688,13.421
		c-1.769-4.649-6.975-6.984-11.623-5.215c0,0-72.85,27.379-76.252,29.319s-6.388,6.638-5.241,12.36"/>
	<g id="Calque_2" display="none">
		<g display="inline">
			<g>
				<g>
					
						<path fill="none" stroke="#FF0000" stroke-width="5" stroke-linecap="round" stroke-linejoin="round" stroke-miterlimit="10" d="
						M116.063,106.984H13.682c-5.126,0-9.32-4.194-9.32-9.32V33.583c0-5.126,4.194-9.319,9.32-9.319h102.378
						c5.127,0,9.318,4.192,9.318,9.319v64.082C125.381,102.79,121.188,106.984,116.063,106.984z"/>
					
						<rect x="4.362" y="42.646" fill="none" stroke="#FF0000" stroke-width="5" stroke-linecap="round" stroke-linejoin="round" stroke-miterlimit="10" width="121.019" height="16.85"/>
				</g>
				
					<line fill="none" stroke="#FF0000" stroke-width="5" stroke-linecap="round" stroke-linejoin="round" stroke-miterlimit="10" x1="14.439" y1="74.625" x2="53.41" y2="74.625"/>
				
					<circle fill="none" stroke="#FF0000" stroke-width="5" stroke-linecap="round" stroke-linejoin="round" stroke-miterlimit="10" cx="104.143" cy="89.142" r="7.335"/>
			</g>
		</g>
	</g>
	<g>
		<g>
			<path fill="none" stroke="#FF0000" stroke-width="5" stroke-linecap="round" stroke-linejoin="round" stroke-miterlimit="10" d="
				M59.328,69.295c-3.655,0-6.617-2.964-6.617-6.618l0,0c0-3.656,2.961-6.619,6.617-6.619h9.633c3.656,0,6.621,2.963,6.621,6.619
				l0,0"/>
			<path fill="none" stroke="#FF0000" stroke-width="5" stroke-linecap="round" stroke-linejoin="round" stroke-miterlimit="10" d="
				M59.328,69.295h9.633c3.656,0,6.621,2.963,6.621,6.617l0,0c0,3.657-2.965,6.621-6.621,6.621h-9.633
				c-3.655,0-6.617-2.964-6.617-6.621"/>
		</g>
		
			<line fill="none" stroke="#FF0000" stroke-width="5" stroke-linecap="round" stroke-linejoin="round" stroke-miterlimit="10" x1="64.147" y1="56.058" x2="64.147" y2="49.886"/>
		
			<line fill="none" stroke="#FF0000" stroke-width="5" stroke-linecap="round" stroke-linejoin="round" stroke-miterlimit="10" x1="64.147" y1="88.704" x2="64.147" y2="82.533"/>
	</g>
	<path fill="none" stroke="#FF0000" stroke-width="5" stroke-miterlimit="10" d="M103.531,37.525H24.762
		c0,11.15-9.04,20.19-20.19,20.19h0v18.469c1.029-0.162,2.077-0.271,3.151-0.271c11.15,0,20.189,9.041,20.189,20.191
		c0,0.918-0.083,1.815-0.201,2.701h76.021c-0.118-0.886-0.201-1.783-0.201-2.701c0-11.15,9.039-20.19,20.19-20.191V57.716
		C112.571,57.715,103.531,48.676,103.531,37.525z"/>
	<path fill="none" stroke="#FF0000" stroke-width="5" stroke-miterlimit="10" d="M123.722,88.807c0,5.522-4.478,10-10,10h-99.15
		c-5.523,0-10-4.478-10-10V47.525c0-5.523,4.477-10,10-10h99.15c5.522,0,10,4.477,10,10V88.807z"/>
	<path fill="none" stroke="#FF0000" stroke-width="5" stroke-miterlimit="10" d="M4.647,46.343
		c-0.987-4.876,6.665-9.628,11.54-10.616l86.286-18.972c4.875-0.987,9.629,2.166,10.616,7.042l1.622,8.016"/>
	<path fill="none" stroke="#FF0000" stroke-width="5" stroke-miterlimit="10" d="M106.859,37.525"/>
	<path fill="none" stroke="#FF0000" stroke-width="5" stroke-miterlimit="10" d="M106.859,37.525"/>
</g>
<g id="Calque_2_1_" display="none">
	<g display="inline">
		<path fill="none" stroke="#FF0000" stroke-width="5" stroke-miterlimit="10" d="M86.15,66.77c2.346,1.61,5.201,2.559,8.281,2.559
			c7.984,0,14.455-6.343,14.455-14.168c0-7.824-6.471-14.167-14.455-14.167c-3.08,0-5.937,0.948-8.281,2.558"/>
		<path fill="none" stroke="#FF0000" stroke-width="5" stroke-miterlimit="10" d="M79.979,55.16c0-4.804,2.439-9.047,6.172-11.608
			c-2.346-1.611-5.2-2.558-8.281-2.558c-7.982,0-14.455,6.343-14.455,14.167c0,7.825,6.473,14.167,14.455,14.167
			c3.081,0,5.938-0.946,8.281-2.557C82.42,64.207,79.979,59.964,79.979,55.16z"/>
		<path fill="none" stroke="#FF0000" stroke-width="5" stroke-miterlimit="10" d="M86.15,43.552
			c-3.73,2.561-6.174,6.804-6.174,11.608c0,4.804,2.442,9.047,6.174,11.609"/>
	</g>
	<path display="inline" fill="#FF0000" d="M51.068,95.479c0,0.91-1.011,1.648-2.258,1.648H29.033c-1.246,0-2.258-0.738-2.258-1.648
		v-3.301c0-0.91,1.013-1.65,2.258-1.65H48.81c1.248,0,2.258,0.74,2.258,1.65V95.479z"/>
	<path display="inline" fill="#FF0000" d="M79.979,95.479c0,0.91-1.013,1.648-2.261,1.648H57.943c-1.247,0-2.26-0.738-2.26-1.648
		v-3.301c0-0.91,1.013-1.65,2.26-1.65h19.778c1.246,0,2.258,0.74,2.258,1.65V95.479L79.979,95.479z"/>
	<path display="inline" fill="#FF0000" d="M108.887,95.479c0,0.91-1.011,1.648-2.26,1.648H86.852c-1.246,0-2.258-0.738-2.258-1.648
		v-3.301c0-0.91,1.012-1.65,2.258-1.65h19.777c1.247,0,2.26,0.74,2.26,1.65L108.887,95.479L108.887,95.479z"/>
	<g display="inline">
		<path fill="none" stroke="#FF0000" stroke-width="4" stroke-linecap="round" stroke-linejoin="round" stroke-miterlimit="10" d="
			M37.378,59.111c0,0.857-0.786,1.554-1.756,1.554H15.555c-0.969,0-1.755-0.696-1.755-1.554v-17.76c0-0.858,0.786-1.554,1.755-1.554
			h20.066c0.97,0,1.756,0.695,1.756,1.554L37.378,59.111L37.378,59.111z"/>
		
			<line fill="none" stroke="#FF0000" stroke-width="4" stroke-linecap="round" stroke-linejoin="round" stroke-miterlimit="10" x1="28.65" y1="39.797" x2="28.65" y2="60.492"/>
		
			<polyline fill="none" stroke="#FF0000" stroke-width="4" stroke-linecap="round" stroke-linejoin="round" stroke-miterlimit="10" points="
			22.604,60.492 22.604,46.485 14.149,46.485 		"/>
		
			<line fill="none" stroke="#FF0000" stroke-width="4" stroke-linecap="round" stroke-linejoin="round" stroke-miterlimit="10" x1="13.8" y1="53.488" x2="22.604" y2="53.488"/>
		
			<line fill="none" stroke="#FF0000" stroke-width="4" stroke-linecap="round" stroke-linejoin="round" stroke-miterlimit="10" x1="28.65" y1="46.485" x2="37.378" y2="46.485"/>
		
			<line fill="none" stroke="#FF0000" stroke-width="4" stroke-linecap="round" stroke-linejoin="round" stroke-miterlimit="10" x1="28.65" y1="53.488" x2="37.378" y2="53.488"/>
	</g>
</g>
</svg>
