<?xml version="1.0" encoding="utf-8"?>
<!-- Generator: Adobe Illustrator 16.0.0, SVG Export Plug-In . SVG Version: 6.00 Build 0)  -->
<!DOCTYPE svg PUBLIC "-//W3C//DTD SVG 1.1//EN" "http://www.w3.org/Graphics/SVG/1.1/DTD/svg11.dtd">
<svg version="1.1" xmlns="http://www.w3.org/2000/svg" xmlns:xlink="http://www.w3.org/1999/xlink" x="0px" y="0px" width="128px"
	 height="128px" viewBox="0 0 128 128" enable-background="new 0 0 128 128" xml:space="preserve">
<g id="Calque_2" display="none">
	
		<image display="inline" overflow="visible" width="600" height="620" xlink:href="B003BF90.jpg"  transform="matrix(0.3654 -0.3654 0.3654 0.3654 -153.2754 60.0884)">
	</image>
</g>
<g id="Livello_1" inkscape:version="1.0 (4035a4fb49, 2020-05-01)" sodipodi:docname="iconHome.svg" xmlns:cc="http://creativecommons.org/ns#" xmlns:dc="http://purl.org/dc/elements/1.1/" xmlns:inkscape="http://www.inkscape.org/namespaces/inkscape" xmlns:rdf="http://www.w3.org/1999/02/22-rdf-syntax-ns#" xmlns:sodipodi="http://sodipodi.sourceforge.net/DTD/sodipodi-0.dtd" xmlns:svg="http://www.w3.org/2000/svg">
	
		<sodipodi:namedview  id="namedview7" inkscape:window-width="1519" inkscape:pageshadow="2" inkscape:window-x="0" inkscape:window-y="0" inkscape:pageopacity="0" inkscape:window-height="845" inkscape:window-maximized="0" inkscape:current-layer="Livello_1" inkscape:zoom="2.8710938" bordercolor="#666666" guidetolerance="10" objecttolerance="10" borderopacity="1" showgrid="false" inkscape:cx="7.8240306" pagecolor="#ffffff" inkscape:cy="41.675131" gridtolerance="10">
		</sodipodi:namedview>
	<title  id="title2"></title>
	<g>
		<path fill="none" stroke="#FF0000" stroke-width="4" stroke-miterlimit="10" d="M71.794,23.761h-0.013
			c-0.895,1.365-1.419,2.991-1.419,4.75c0,4.782,3.877,8.659,8.658,8.659c4.783,0,8.66-3.876,8.66-8.659
			c0-1.759-0.525-3.385-1.419-4.75c0,0-0.82-1.528-1.191-3.396h21.73v19.338c-1.704-0.393-3.058-1.113-3.058-1.113
			c-1.366-0.896-2.993-1.42-4.751-1.42c-4.781,0-8.658,3.876-8.658,8.658c0,4.784,3.877,8.66,8.658,8.66
			c1.758,0,3.396-0.524,4.751-1.42c0,0,1.354-0.731,3.058-1.113v19.328h-21.72c0.36-1.869,1.181-3.386,1.181-3.386
			c0.894-1.364,1.419-2.993,1.419-4.751c0-4.782-3.877-8.658-8.66-8.658c-4.781,0-8.658,3.876-8.658,8.658
			c0,1.749,0.524,3.387,1.419,4.751h0.013c0,0,0.817,1.517,1.189,3.553H55.883V52.373c-0.819,0.197-1.091,0.222-1.614,0.441
			c-0.524,0.219-2.43,1.143-2.43,1.143c-0.958,0.433-2.077,0.981-3.834,0.981c-5.021,0-8.628-3.8-8.628-9.027
			c0-5.689,4.054-9.023,8.837-9.023c1.747,0,2.96,0.494,4.325,1.39c0,0,1.586,0.679,3.339,1.169l0.005-19.083h17.101
			C72.611,22.232,71.794,23.761,71.794,23.761z"/>
		<path fill="none" stroke="#FF0000" stroke-width="4" stroke-miterlimit="10" d="M106.801,51.955
			c-1.704,0.382-3.058,1.113-3.058,1.113c-1.355,0.896-2.993,1.42-4.751,1.42c-4.781,0-8.658-3.876-8.658-8.66
			c0-4.782,3.877-8.658,8.658-8.658c1.758,0,3.385,0.524,4.751,1.42c0,0,1.354,0.72,3.058,1.113"/>
		<path fill="none" stroke="#FF0000" stroke-width="4" stroke-miterlimit="10" d="M85.07,20.365
			c0.371,1.868,1.191,3.396,1.191,3.396c0.894,1.365,1.419,2.991,1.419,4.75c0,4.782-3.877,8.659-8.66,8.659
			c-4.781,0-8.658-3.876-8.658-8.659c0-1.759,0.524-3.385,1.419-4.75h0.013c0,0,0.817-1.528,1.189-3.396"/>
		<path fill="none" stroke="#FF0000" stroke-width="4" stroke-miterlimit="10" d="M85.081,71.282
			c0.36-1.869,1.181-3.386,1.181-3.386c0.894-1.364,1.419-2.993,1.419-4.751c0-4.782-3.877-8.658-8.66-8.658
			c-4.781,0-8.658,2.97-8.658,8.658c0,1.749,0.524,3.387,1.419,4.751h0.013c0,0,0.817,1.517,1.189,3.386"/>
	</g>
	<path fill="none" stroke="#FF0000" stroke-width="4" stroke-miterlimit="10" d="M22.315,45.911
		c0.011-0.171,0.016-0.342,0.016-0.515c0-4.704-3.812-8.516-8.516-8.516c-1.729,0-3.329,0.515-4.672,1.397
		c0,0-1.503,0.815-3.339,1.169V20.365h19.04c-0.193-0.87-0.473-1.643-0.698-2.212c-0.237-0.559-0.42-0.902-0.42-0.902
		c-0.879-1.342-1.395-2.943-1.395-4.671c0-4.703,3.812-8.515,8.515-8.515s8.516,3.812,8.516,8.515c0,1.729-0.515,3.33-1.396,4.671
		h-0.011c0,0-0.731,1.374-1.117,3.114h19.04v19.083c0,0-1.291-0.339-3.339-1.169c-1.343-0.882-2.943-1.397-4.662-1.397
		c-4.702,0-8.515,3.812-8.515,8.516c0,0.172,0.006,0.343,0.015,0.515c-0.009,0.168-0.015,0.341-0.015,0.513
		c0,4.704,3.813,8.516,8.515,8.516c1.719,0,3.319-0.516,4.662-1.396c0,0,1.502-0.806,3.339-1.172v19.082h-19.04
		c0.386,1.74,1.117,3.114,1.117,3.114h0.011c0.881,1.344,1.396,2.943,1.396,4.672c0,4.704-3.812,8.518-8.516,8.518
		s-8.515-3.813-8.515-8.518c0-1.729,0.516-3.328,1.395-4.672c0,0,0.183-0.342,0.42-0.9c0.225-0.568,0.505-1.344,0.698-2.214H5.804
		V52.373c1.836,0.356,3.339,1.172,3.339,1.172c1.343,0.88,2.942,1.396,4.672,1.396c4.704,0,8.516-3.813,8.516-8.516
		C22.331,46.252,22.326,46.08,22.315,45.911z"/>
	<g>
		<path fill="none" stroke="#FF0000" stroke-width="4" stroke-miterlimit="10" d="M123.875,96.83c0,4.771-3.87,8.641-8.643,8.641
			c-1.755,0-3.377-0.524-4.739-1.418c0,0-1.767-0.946-3.825-1.264v19.44H87.697c0.948-3.825,1.864-6.331,1.864-6.331
			c0.164-0.62,0.249-1.286,0.249-1.952c0-4.271-3.454-7.725-7.713-7.725c-4.273,0-7.728,3.454-7.728,7.725
			c0,0.666,0.088,1.332,0.252,1.952c0,0,0.371,1.013,0.893,2.746c0.295,0.981,0.633,2.201,0.972,3.585H55.859v-19.581
			c3.508,0.893,5.763,1.723,5.763,1.723c0.622,0.162,1.275,0.25,1.952,0.25c4.259,0,7.725-3.454,7.725-7.727
			c0-4.26-3.466-7.714-7.725-7.714c-0.676,0-1.33,0.088-1.952,0.249c0,0-1.013,0.371-2.745,0.895
			c-0.85,0.252-1.863,0.534-3.018,0.828V71.431h17.272c-0.131-2.364-1.754-4.229-1.754-4.229c-0.905-1.362-0.992-3.367-0.992-5.12
			c0-4.762,3.868-7.594,8.63-7.594c3.329,0,8.642,2.833,8.642,7.594c0,1.753,0.008,3.574-0.896,4.937c0,0-1.719,2.048-1.861,4.412
			h21.769v19.438c1.024-0.153,1.982-0.479,2.682-0.751c0.696-0.272,1.144-0.513,1.144-0.513c1.362-0.894,2.984-1.416,4.739-1.416
			C120.005,88.189,123.875,92.057,123.875,96.83z"/>
	</g>
</g>
</svg>
