<?xml version="1.0" encoding="utf-8"?>
<!-- Generator: Adobe Illustrator 16.0.0, SVG Export Plug-In . SVG Version: 6.00 Build 0)  -->
<!DOCTYPE svg PUBLIC "-//W3C//DTD SVG 1.1//EN" "http://www.w3.org/Graphics/SVG/1.1/DTD/svg11.dtd">
<svg version="1.1" xmlns="http://www.w3.org/2000/svg" xmlns:xlink="http://www.w3.org/1999/xlink" x="0px" y="0px" width="128px"
	 height="128px" viewBox="0 0 128 128" enable-background="new 0 0 128 128" xml:space="preserve">
<g id="Calque_4" display="none">
	<g display="inline">
		<path fill="#4D4D4D" d="M46.888,10.623c0.007-1.629,1.36-2.982,2.99-2.989h29.102c1.63,0.006,2.989,1.36,2.992,2.989v7.272h5.279
			v-7.272c-0.007-4.564-3.703-8.261-8.271-8.269H49.878c-4.568,0.007-8.258,3.705-8.269,8.269v7.272h5.279V10.623z"/>
		<path fill="#4D4D4D" d="M64.437,38.196c-6.017,0-10.909,4.895-10.909,10.908c0,2.558,0.899,4.989,2.479,6.921v13.85h16.846V56.018
			c1.586-1.925,2.485-4.356,2.485-6.914C75.337,43.091,70.442,38.196,64.437,38.196z M67.577,53.756v10.839h-6.29V53.762
			c-1.494-1.01-2.477-2.72-2.477-4.658c0-3.112,2.517-5.629,5.626-5.629c3.101,0,5.617,2.517,5.617,5.629
			C70.054,51.042,69.074,52.747,67.577,53.756z"/>
		<path fill="#4D4D4D" d="M110.679,22.857H18.181C9.395,22.864,2.25,30.009,2.24,38.795v50.15c0.01,8.793,7.154,15.93,15.941,15.938
			h92.498c8.784-0.008,15.929-7.152,15.945-15.938v-50.15C126.607,30.009,119.463,22.864,110.679,22.857z M121.346,88.945
			c-0.014,5.85-4.822,10.65-10.667,10.664H18.181c-5.847-0.014-10.652-4.814-10.662-10.664V67.127
			c15.025,11.752,35,18.889,56.917,18.895c21.902-0.006,41.877-7.143,56.909-18.895V88.945z M121.346,60.275
			c-14.322,12.563-34.501,20.469-56.909,20.469c-22.416,0-42.595-7.893-56.917-20.457V38.795c0.01-5.844,4.815-10.652,10.662-10.666
			h92.498c5.845,0.014,10.653,4.822,10.667,10.666V60.275z"/>
	</g>
</g>
<g id="Calque_5">
	<path fill="none" stroke="#FF0000" stroke-width="5" stroke-miterlimit="10" d="M37.087,99.776H9.572c-2.762,0-5-2.238-5-5V54.937
		v-34.08c0-2.761,2.238-5,5-5h110.583c2.762,0,5,2.239,5,5v52.31"/>
	<path fill="none" stroke="#FF0000" stroke-width="5" stroke-miterlimit="10" d="M42.043,15.856V9.354c0-2.761,2.239-5,5-5h35.642
		c2.762,0,5,2.239,5,5v6.502H42.043z"/>
	<path fill="none" stroke="#FF0000" stroke-width="5" stroke-miterlimit="10" d="M71.63,34.027c0-3.737-3.029-6.765-6.766-6.765
		c-3.737,0-6.766,3.028-6.766,6.765c0,1.916,0.799,3.641,2.077,4.872v10.918h9.202v-10.76C70.758,37.818,71.63,36.026,71.63,34.027z
		"/>
	<path fill="none" stroke="#FF0000" stroke-width="5" stroke-miterlimit="10" d="M4.516,45.167c0,0,10.808,14.646,61.161,14.646
		s59.422-14.646,59.422-14.646"/>
</g>
<g id="Calque_3_2_">
	<g>
		<g>
			<path fill="none" stroke="#FF0000" stroke-width="5" stroke-linecap="round" stroke-linejoin="round" stroke-miterlimit="10" d="
				M89.812,71.721l-3.706,26.336c-1.622,11.535-11.765,19.549-22.537,17.812l0,0c-10.773-1.736-18.259-12.596-16.636-24.13
				l3.706-26.337C50.638,65.401,68.21,75.225,89.812,71.721z"/>
			<g>
				
					<path fill="none" stroke="#FF0000" stroke-width="5" stroke-linecap="round" stroke-linejoin="round" stroke-miterlimit="10" d="
					M76.364,99.034c-2.466,3.634-6.695,5.706-11.129,4.99c-4.436-0.716-7.907-4.029-9.264-8.28"/>
				
					<path fill="none" stroke="#FF0000" stroke-width="5" stroke-linecap="round" stroke-linejoin="round" stroke-miterlimit="10" d="
					M53.744,87.008c0.282-1.997,2.022-3.374,3.889-3.072c1.867,0.3,3.151,2.165,2.871,4.163"/>
				
					<path fill="none" stroke="#FF0000" stroke-width="5" stroke-linecap="round" stroke-linejoin="round" stroke-miterlimit="10" d="
					M80.897,91.388c0.28-1.998-1.005-3.863-2.871-4.163c-1.865-0.301-3.607,1.076-3.888,3.073"/>
			</g>
		</g>
		<g>
			<path fill="none" stroke="#FF0000" stroke-width="5" stroke-linecap="round" stroke-linejoin="round" stroke-miterlimit="10" d="
				M92.392,79.914c6.678-1.199,14.706-3.652,22.595-8.538l5.54,25.965c2.425,11.372-4.278,22.8-14.899,25.397l0,0
				c-8.958,2.192-17.955-2.573-22.009-10.941"/>
			<g>
				
					<path fill="none" stroke="#FF0000" stroke-width="5" stroke-linecap="round" stroke-linejoin="round" stroke-miterlimit="10" d="
					M93.083,113.52c1.056-4.347,4.284-7.93,8.656-9c4.373-1.07,8.734,0.657,11.45,4.084"/>
				
					<path fill="none" stroke="#FF0000" stroke-width="5" stroke-linecap="round" stroke-linejoin="round" stroke-miterlimit="10" d="
					M90.331,95.265c1.408,0.163,2.63,1.262,2.964,2.823"/>
				
					<path fill="none" stroke="#FF0000" stroke-width="5" stroke-linecap="round" stroke-linejoin="round" stroke-miterlimit="10" d="
					M113.401,93.17c-0.421-1.969-2.253-3.201-4.093-2.752c-1.841,0.45-2.991,2.412-2.57,4.382"/>
			</g>
		</g>
	</g>
</g>
<g id="Calque_2" display="none">
	<g id="Calque_2_2_" display="inline">
		<g id="Calque_3_1_">
			<g>
				
					<path fill="none" stroke="#FF0000" stroke-width="5" stroke-linecap="round" stroke-linejoin="round" stroke-miterlimit="10" d="
					M56.654,55.605c0,0.578-0.469,1.049-1.049,1.049H5.548c-0.579,0-1.048-0.471-1.048-1.049V5.548C4.5,4.969,4.969,4.5,5.548,4.5
					h50.058c0.58,0,1.049,0.469,1.049,1.048V55.605L56.654,55.605z"/>
				<circle fill="#FF0000" cx="16.424" cy="17.481" r="3.704"/>
				<line fill="none" stroke="#FF0000" stroke-width="4" stroke-miterlimit="10" x1="24.219" y1="17.481" x2="46.23" y2="17.481"/>
				<circle fill="#FF0000" cx="16.424" cy="30.577" r="3.704"/>
				<line fill="none" stroke="#FF0000" stroke-width="4" stroke-miterlimit="10" x1="24.219" y1="30.578" x2="46.23" y2="30.578"/>
				<circle fill="#FF0000" cx="16.424" cy="43.673" r="3.704"/>
				<line fill="none" stroke="#FF0000" stroke-width="4" stroke-miterlimit="10" x1="24.219" y1="43.672" x2="46.23" y2="43.672"/>
			</g>
		</g>
	</g>
</g>
</svg>
