<?xml version="1.0" encoding="utf-8"?>
<!-- Generator: Adobe Illustrator 16.0.0, SVG Export Plug-In . SVG Version: 6.00 Build 0)  -->
<!DOCTYPE svg PUBLIC "-//W3C//DTD SVG 1.1//EN" "http://www.w3.org/Graphics/SVG/1.1/DTD/svg11.dtd">
<svg version="1.1" id="Calque_1" xmlns="http://www.w3.org/2000/svg" xmlns:xlink="http://www.w3.org/1999/xlink" x="0px" y="0px"
	 width="128px" height="128px" viewBox="0 0 128 128" enable-background="new 0 0 128 128" xml:space="preserve">
<g id="Calque_2" display="none">
</g>
<g>
	<path fill="none" stroke="#FF0000" stroke-width="5" stroke-linecap="round" stroke-linejoin="round" d="M55.62,4.649h17.199
		v24.607h9.791L64.22,47.646l-18.39-18.39h9.791V4.649z"/>
</g>
<g>
	<path fill="none" stroke="#FF0000" stroke-width="5" stroke-miterlimit="10" d="M100.957,123.351H5.226V64.955
		c0-4.165,2.065-6.248,6.197-6.248h2.872c1.444,0,2.469-0.227,3.074-0.681c0.604-0.453,1.075-1.335,1.411-2.646l0.504-2.016
		c0.537-2.115,1.226-3.408,2.066-3.879c0.806-0.471,2.754-0.705,5.845-0.705H46.44c2.788,0,4.567,0.219,5.341,0.654
		c0.772,0.438,1.444,1.613,2.015,3.527l0.555,1.864c0.57,1.915,1.1,3.04,1.588,3.376c0.486,0.336,1.838,0.504,4.055,0.504H94.81
		c2.385,0,4.006,0.445,4.862,1.335s1.285,2.562,1.285,5.013v4.838 M5.226,123.351h95.731l20.708-47.211
		c0.738-1.612,1.108-2.519,1.108-2.721c-0.101-0.705-1.143-1.058-3.124-1.058H38.328c-1.948,0-3.292,0.219-4.031,0.654
		c-0.739,0.438-1.495,1.429-2.267,2.973L5.226,123.351z"/>
</g>
</svg>
