<?xml version="1.0" encoding="utf-8"?>
<!-- Generator: Adobe Illustrator 16.0.0, SVG Export Plug-In . SVG Version: 6.00 Build 0)  -->
<!DOCTYPE svg PUBLIC "-//W3C//DTD SVG 1.1//EN" "http://www.w3.org/Graphics/SVG/1.1/DTD/svg11.dtd">
<svg version="1.1" xmlns="http://www.w3.org/2000/svg" xmlns:xlink="http://www.w3.org/1999/xlink" x="0px" y="0px" width="40px"
	 height="16px" viewBox="0 0 40 16" enable-background="new 0 0 40 16" xml:space="preserve">
<g id="svg25" xmlns:inkscape="http://www.inkscape.org/namespaces/inkscape" xmlns:sodipodi="http://sodipodi.sourceforge.net/DTD/sodipodi-0.dtd" xmlns:svg="http://www.w3.org/2000/svg" xmlns:rdf="http://www.w3.org/1999/02/22-rdf-syntax-ns#" xmlns:cc="http://creativecommons.org/ns#" xmlns:dc="http://purl.org/dc/elements/1.1/" inkscape:version="1.0 (4035a4fb49, 2020-05-01)" sodipodi:docname="iconNewtab.svg">
	<defs>
		
		
			<inkscape:perspective  id="perspective883" inkscape:vp_x="5.4490514 : 16.035042 : 1" inkscape:vp_z="-27.461893 : 10.863061 : 1" inkscape:vp_y="0 : 1000 : 0" sodipodi:type="inkscape:persp3d" inkscape:persp3d-origin="30 : 5.3333333 : 1">
			</inkscape:perspective>
	</defs>
	
		<sodipodi:namedview  id="namedview27" inkscape:cy="21.915243" inkscape:cx="18.603389" inkscape:zoom="10.827573" showgrid="false" guidetolerance="10" gridtolerance="10" objecttolerance="10" borderopacity="1" bordercolor="#666666" pagecolor="#ffffff" inkscape:pageopacity="0" inkscape:pageshadow="2" inkscape:window-width="1920" inkscape:window-height="1017" inkscape:snap-nodes="false" inkscape:window-x="-8" inkscape:window-y="-8" inkscape:current-layer="svg25" inkscape:window-maximized="1">
		</sodipodi:namedview>
	<g>
		
			<line fill="none" stroke="#FF0000" stroke-linecap="round" stroke-linejoin="round" stroke-miterlimit="10" x1="17.81" y1="6.345" x2="17.81" y2="12.226"/>
		
			<line fill="none" stroke="#FF0000" stroke-linecap="round" stroke-linejoin="round" stroke-miterlimit="10" x1="14.797" y1="9.286" x2="20.785" y2="9.286"/>
	</g>
	<g>
		<path fill="none" stroke="#FF0000" stroke-linecap="round" stroke-linejoin="round" stroke-miterlimit="10" d="M13.667,3.792
			h-1.75c-0.552,0-1,0.448-1,1v8.917c0,0.553,0.448,1,1,1h11.75c0.553,0,1-0.447,1-1v-1.757"/>
		<path fill="none" stroke="#FF0000" stroke-linecap="round" stroke-linejoin="round" stroke-miterlimit="10" d="M26.416,1.035
			h-11.75c-0.552,0-1,0.448-1,1v1.757h10c0.553,0,1,0.448,1,1v7.16h1.75c0.553,0,1-0.447,1-1V2.035
			C27.416,1.482,26.969,1.035,26.416,1.035z"/>
		<path fill="none" stroke="#FF0000" stroke-linecap="round" stroke-linejoin="round" stroke-miterlimit="10" d="M24.666,11.951
			v-7.16c0-0.552-0.447-1-1-1h-10"/>
	</g>
</g>
<g id="Calque_2" display="none">
	<path display="inline" fill="none" stroke="#FF0000" stroke-linecap="round" stroke-linejoin="round" stroke-miterlimit="10" d="
		M26.167,6.875v5.459h2.375c0.553,0,1-0.447,1-1V1.667c0-0.552-0.447-1-1-1h-9.667c-0.552,0-1,0.448-1,1V3.5H22.5"/>
	<path display="inline" fill="none" stroke="#FF0000" stroke-linecap="round" stroke-linejoin="round" stroke-miterlimit="10" d="
		M17.875,3.5H15.5c-0.552,0-1,0.448-1,1v9.667c0,0.553,0.448,1,1,1h9.667c0.553,0,1-0.447,1-1v-1.833"/>
	<path display="inline" fill="none" stroke="#FF0000" stroke-linecap="round" stroke-linejoin="round" stroke-miterlimit="10" d="
		M17.875,3.5"/>
	<path display="inline" fill="none" stroke="#FF0000" stroke-linecap="round" stroke-linejoin="round" stroke-miterlimit="10" d="
		M26.167,12.334"/>
	
		<line display="inline" fill="none" stroke="#FF0000" stroke-linecap="round" stroke-linejoin="round" stroke-miterlimit="10" x1="21.442" y1="7.938" x2="26.798" y2="2.791"/>
	
		<line display="inline" fill="none" stroke="#FF0000" stroke-linecap="round" stroke-linejoin="round" stroke-miterlimit="10" x1="23.787" y1="2.979" x2="26.798" y2="2.791"/>
	
		<line display="inline" fill="none" stroke="#FF0000" stroke-linecap="round" stroke-linejoin="round" stroke-miterlimit="10" x1="26.798" y1="2.791" x2="26.508" y2="5.419"/>
</g>
</svg>
