<?xml version="1.0" encoding="utf-8"?>
<!-- Generator: Adobe Illustrator 16.0.0, SVG Export Plug-In . SVG Version: 6.00 Build 0)  -->
<!DOCTYPE svg PUBLIC "-//W3C//DTD SVG 1.1//EN" "http://www.w3.org/Graphics/SVG/1.1/DTD/svg11.dtd">
<svg version="1.1" xmlns="http://www.w3.org/2000/svg" xmlns:xlink="http://www.w3.org/1999/xlink" x="0px" y="0px" width="128px"
	 height="128px" viewBox="0 0 128 128" enable-background="new 0 0 128 128" xml:space="preserve">
<g id="Calque_1" xmlns:serif="http://www.serif.com/">
	<g>
		<path fill="none" stroke="#FF0000" stroke-width="5" stroke-linecap="round" stroke-linejoin="round" stroke-miterlimit="10" d="
			M65.458,127C31.962,126.895,4.84,99.706,4.84,66.188c0-33.521,27.122-60.708,60.618-60.813
			c33.496,0.105,60.621,27.293,60.621,60.813C126.079,99.706,98.956,126.895,65.458,127z"/>
		<path fill="none" stroke="#FF0000" stroke-width="5" stroke-linecap="round" stroke-linejoin="round" stroke-miterlimit="10" d="
			M40.191,100.625c-5.757-10.597-9.081-22.704-9.081-34.438c0-24.103,14.027-49.781,34.348-60.707
			c13.919,7.482,24.883,21.882,30.411,37.958"/>
		<path fill="none" stroke="#FF0000" stroke-width="5" stroke-linecap="round" stroke-linejoin="round" stroke-miterlimit="10" d="
			M53.645,118.289c-2.922-2.754-5.62-5.83-8.057-9.148"/>
		<path fill="none" stroke="#FF0000" stroke-width="5" stroke-linecap="round" stroke-linejoin="round" stroke-miterlimit="10" d="
			M98.881,77.112c-3.436,20.567-16.155,40.499-33.423,49.78c-1.401-0.754-2.773-1.577-4.113-2.466"/>
		
			<line fill="none" stroke="#FF0000" stroke-width="5" stroke-linecap="round" stroke-linejoin="round" stroke-miterlimit="10" x1="121.919" y1="66.188" x2="126.079" y2="66.188"/>
		
			<line fill="none" stroke="#FF0000" stroke-width="5" stroke-linecap="round" stroke-linejoin="round" stroke-miterlimit="10" x1="4.84" y1="66.188" x2="85.087" y2="66.188"/>
		
			<line fill="none" stroke="#FF0000" stroke-width="5" stroke-linecap="round" stroke-linejoin="round" stroke-miterlimit="10" x1="65.458" y1="122.13" x2="65.458" y2="126.893"/>
		
			<line fill="none" stroke="#FF0000" stroke-width="5" stroke-linecap="round" stroke-linejoin="round" stroke-miterlimit="10" x1="65.458" y1="5.374" x2="65.458" y2="85.816"/>
	</g>
	<path fill="none" stroke="#FF0000" stroke-width="5" stroke-linecap="round" stroke-linejoin="round" stroke-miterlimit="10" d="
		M112.137,43.196c3.938,1.735,7.836,3.758,11.561,6.118"/>
	<path fill="none" stroke="#FF0000" stroke-width="5" stroke-linecap="round" stroke-linejoin="round" stroke-miterlimit="10" d="
		M7.228,49.314c17.45-13.633,43.411-16.118,58.712-16.54c0,0,16.482,0.359,34.983,6.214"/>
	<path fill="none" stroke="#FF0000" stroke-width="5" stroke-linecap="round" stroke-linejoin="round" stroke-miterlimit="10" d="
		M43.166,95.984C31.85,93.828,19.723,89.908,7.228,81.996"/>
	<path fill="none" stroke="#FF0000" stroke-width="5" stroke-linecap="round" stroke-linejoin="round" stroke-miterlimit="10" d="
		M123.697,81.996C110.66,92.184,92.866,96.146,78.32,97.674"/>
	<path fill="none" stroke="#FF0000" stroke-width="5" stroke-miterlimit="10" d="M65.978,126.472"/>
</g>
<g id="Calque_2">
	<path fill="none" stroke="#FFFFFF" stroke-width="26" stroke-linecap="round" stroke-linejoin="round" stroke-miterlimit="10" d="
		M65.24,99.453l32.32-32.321c5.77,1.515,12.167,0.014,16.69-4.509c5.204-5.206,6.412-12.895,3.618-19.25l-10.553,10.553
		c-1.48,1.48-3.902,1.48-5.383,0l-3.222-3.222c-1.48-1.48-1.48-3.903,0-5.383l10.665-10.664c-6.433-3.034-14.349-1.891-19.666,3.425
		c-4.522,4.523-6.022,10.92-4.509,16.69l-32.32,32.32c-5.769-1.512-12.167-0.014-16.689,4.512
		c-5.206,5.204-6.413,12.893-3.618,19.248L43.126,100.3c1.48-1.48,3.903-1.48,5.383,0l3.222,3.222c1.479,1.479,1.479,3.901,0,5.382
		l-10.665,10.665c6.433,3.032,14.346,1.891,19.665-3.426C65.255,111.619,66.753,105.224,65.24,99.453z"/>
</g>
<g id="Calque_3">
	<path fill="none" stroke="#FF0000" stroke-width="5" stroke-linecap="round" stroke-linejoin="round" stroke-miterlimit="10" d="
		M65.24,99.453l32.32-32.322c5.77,1.516,12.167,0.014,16.69-4.508c5.204-5.206,6.412-12.895,3.618-19.25l-10.553,10.553
		c-1.48,1.48-3.902,1.48-5.383,0l-3.222-3.222c-1.48-1.48-1.48-3.903,0-5.383l10.665-10.664c-6.433-3.034-14.349-1.891-19.666,3.425
		c-4.522,4.523-6.022,10.92-4.509,16.69l-32.32,32.319c-5.769-1.512-12.167-0.014-16.689,4.512
		c-5.206,5.205-6.413,12.893-3.618,19.248l10.552-10.553c1.48-1.48,3.903-1.48,5.383,0l3.222,3.223c1.479,1.479,1.479,3.9,0,5.381
		l-10.665,10.666c6.433,3.031,14.346,1.891,19.665-3.426C65.255,111.619,66.753,105.223,65.24,99.453z"/>
</g>
</svg>
