<?xml version="1.0" encoding="utf-8"?>
<!-- Generator: Adobe Illustrator 16.0.0, SVG Export Plug-In . SVG Version: 6.00 Build 0)  -->
<!DOCTYPE svg PUBLIC "-//W3C//DTD SVG 1.1//EN" "http://www.w3.org/Graphics/SVG/1.1/DTD/svg11.dtd">
<svg version="1.1" id="Calque_1" xmlns="http://www.w3.org/2000/svg" xmlns:xlink="http://www.w3.org/1999/xlink" x="0px" y="0px"
	 width="128px" height="128px" viewBox="0 0 128 128" enable-background="new 0 0 128 128" xml:space="preserve">
<g id="Calque_2" display="none">
</g>
<g>
	<path fill="#FF0000" d="M67.889,41.587l-23.794-8.385c-2.643-0.928-5.132,0.999-5.132,3.931v14.629
		c0,2.548,1.695,5.067,3.938,5.858l23.791,8.385c0.464,0.162,0.931,0.245,1.394,0.245c1.09,0,2.075-0.459,2.771-1.293
		c0.635-0.759,0.969-1.755,0.969-2.88V47.448C71.826,44.9,70.135,42.381,67.889,41.587z M68.23,62.077
		c0,0.389-0.109,0.562-0.121,0.577c0,0-0.008,0.003-0.023,0.003l-23.991-8.428c-0.71-0.249-1.536-1.382-1.536-2.467V37.133
		c0-0.37,0.097-0.542,0.303-0.542c0.013,0,0.027,0,0.04,0.002l23.791,8.385c0.713,0.251,1.538,1.385,1.538,2.47V62.077z"/>
	<path fill="#FF0000" d="M26.426,105.071l56.493,22.015c0.275,0.107,0.564,0.159,0.854,0.159c0.467,0,0.928-0.138,1.325-0.407
		c0.381-0.263,0.632-0.641,0.805-1.053c1.337-1.934,2.788-3.553,6.646-5.038c3.477-1.336,5.77-1.233,7.602-1.147
		c0.043,0.003,0.078,0.003,0.119,0.003c0.34,0.192,0.711,0.329,1.129,0.329c1.299,0,2.348-1.05,2.348-2.348V25.393
		c0-0.996-0.625-1.884-1.564-2.216L46.929,3.675c-7.907-2.78-19.836,2.873-21.974,8.806c-0.418,1.163-0.478,2.483-0.024,3.757
		v86.644C24.931,103.852,25.525,104.721,26.426,105.071z M29.628,101.275V20.377c0.019,0.008,0.033,0.016,0.051,0.024l51.745,18.583
		v82.476L29.628,101.275z M88.282,118.782c-0.834,0.47-1.541,0.956-2.162,1.452V37.333c0-0.021-0.01-0.038-0.01-0.06
		c-0.006-0.189-0.063-0.364-0.111-0.542c-0.032-0.119-0.04-0.243-0.089-0.351c-0.065-0.146-0.17-0.262-0.265-0.394
		c-0.084-0.113-0.148-0.24-0.251-0.34c-0.095-0.091-0.219-0.148-0.332-0.224c-0.144-0.097-0.278-0.203-0.44-0.268
		c-0.021-0.008-0.035-0.024-0.057-0.032l-52.54-18.873c0,0-3.332-2.416,4.335-6.416c3.728-1.945,8.682-1.813,8.682-1.813
		c0.105,0.03,0.218,0.049,0.321,0.086l53.684,18.948l0.813,89.112C99.86,116.167,93.037,114.397,88.282,118.782z"/>
</g>
<g>
	<path fill="#FF0000" d="M39.741,69.433c-0.818-0.249-1.485,0.155-1.49,0.901l-0.02,2.985c-0.006,0.746,0.653,1.555,1.472,1.805
		c0.818,0.249,1.483-0.156,1.489-0.902l0.02-2.984C41.217,70.491,40.56,69.683,39.741,69.433z M39.688,77.517
		c-0.818-0.249-1.485,0.155-1.49,0.901l-0.02,2.985c-0.005,0.746,0.654,1.555,1.473,1.805c0.818,0.249,1.483-0.156,1.488-0.902
		l0.02-2.984C41.163,78.575,40.506,77.767,39.688,77.517z M39.635,85.601c-0.818-0.249-1.485,0.155-1.49,0.901l-0.021,2.985
		c-0.005,0.746,0.654,1.555,1.473,1.805c0.818,0.249,1.483-0.156,1.488-0.902l0.021-2.984C41.11,86.659,40.453,85.851,39.635,85.601
		z M65.19,79.707c-0.818-0.249-1.485,0.154-1.49,0.901l-0.02,2.984c-0.005,0.747,0.653,1.555,1.472,1.805
		c0.818,0.249,1.484-0.155,1.489-0.901l0.02-2.985C66.666,80.765,66.009,79.957,65.19,79.707z M65.137,87.791
		c-0.818-0.25-1.485,0.154-1.49,0.901l-0.02,2.984c-0.005,0.746,0.654,1.555,1.473,1.805c0.818,0.249,1.483-0.155,1.488-0.901
		l0.02-2.985C66.612,88.849,65.955,88.04,65.137,87.791z M46.372,92.683l-3.263-0.995c-0.818-0.25-1.483,0.155-1.488,0.903
		s0.652,1.556,1.471,1.806l3.263,0.995c0.818,0.249,1.485-0.154,1.49-0.902S47.19,92.932,46.372,92.683z M55.214,95.379
		l-3.263-0.995c-0.818-0.25-1.483,0.155-1.488,0.903c-0.005,0.749,0.652,1.556,1.471,1.806l3.263,0.995
		c0.818,0.249,1.485-0.154,1.49-0.902S56.032,95.628,55.214,95.379z M46.882,69.508l-3.263-0.995
		c-0.818-0.249-1.483,0.155-1.488,0.903s0.652,1.557,1.471,1.806l3.263,0.995c0.818,0.25,1.485-0.154,1.49-0.902
		S47.7,69.758,46.882,69.508z M55.725,72.204l-3.264-0.994c-0.818-0.25-1.483,0.154-1.488,0.902s0.652,1.557,1.471,1.807
		l3.264,0.994c0.817,0.25,1.485-0.154,1.49-0.902S56.542,72.454,55.725,72.204z M66.039,76.708c0.005-0.748-0.655-1.558-1.473-1.807
		l-3.264-0.995c-0.818-0.25-1.483,0.155-1.488,0.903s0.652,1.556,1.471,1.806l3.264,0.995
		C65.366,77.859,66.034,77.456,66.039,76.708z"/>
	<path fill="#FF0000" d="M72.311,107.72c-0.409-0.812-1.69-3.23-2.578-4.928c0.176-0.039,0.456-0.102,0.456-0.102
		c0.001,0,0.002,0,0.002-0.001c0,0.001,0,0.001,0,0.001l1.092-0.244c0.731-0.16,1.172-0.688,1.177-1.41
		c0.006-0.863-0.729-1.668-1.167-2.07L59.904,88.522c-0.073-0.066-0.151-0.13-0.232-0.187c-0.708-0.497-1.439-0.688-2.06-0.536
		c-0.582,0.143-0.967,0.562-1.057,1.151c-0.016,0.091-0.018,0.188-0.01,0.288l1.116,12.92c-0.007,0.529,0.371,1.27,0.985,1.826
		c0.673,0.62,1.585,0.922,2.309,0.755c-0.004,0.002,0.809-0.18,1.571-0.349c0.882,1.684,2.537,4.842,2.537,4.842
		c0.109,0.208,0.544,0.996,1.322,1.35c0.777,0.354,1.439,0.354,1.634,0.31l0.675-0.149c0.001,0,0.003,0,0.005,0l2.785-0.62
		c-0.011,0.003-0.024-0.005-0.036-0.003c0.569-0.109,0.909-0.571,1.007-0.803C72.456,109.317,72.722,108.53,72.311,107.72z
		 M64.367,102.422c-0.403-0.772-1.307-1.27-2.017-1.112c0,0-0.986,0.219-1.831,0.406c-0.114-1.331-0.36-4.166-0.878-10.163
		l9.091,8.341c-0.002,0.001-0.005,0.001-0.008,0.001l-1.744,0.387c-0.342,0.074-0.592,0.295-0.697,0.61
		c-0.033,0.105-0.051,0.219-0.052,0.336c-0.001,0.236,0.064,0.49,0.194,0.737c0,0,2.3,4.39,2.891,5.519
		c-0.739,0.164-1.92,0.426-2.056,0.457C66.668,106.81,64.367,102.422,64.367,102.422z"/>
</g>
</svg>
