<?xml version="1.0" encoding="utf-8"?>
<!-- Generator: Adobe Illustrator 16.0.0, SVG Export Plug-In . SVG Version: 6.00 Build 0)  -->
<!DOCTYPE svg PUBLIC "-//W3C//DTD SVG 1.1//EN" "http://www.w3.org/Graphics/SVG/1.1/DTD/svg11.dtd">
<svg version="1.1" id="Calque_1" xmlns="http://www.w3.org/2000/svg" xmlns:xlink="http://www.w3.org/1999/xlink" x="0px" y="0px"
	 width="128px" height="128px" viewBox="0 0 128 128" enable-background="new 0 0 128 128" xml:space="preserve">
<g id="Livello_1" xmlns:sodipodi="http://sodipodi.sourceforge.net/DTD/sodipodi-0.dtd" xmlns:inkscape="http://www.inkscape.org/namespaces/inkscape" xmlns:dc="http://purl.org/dc/elements/1.1/" xmlns:rdf="http://www.w3.org/1999/02/22-rdf-syntax-ns#" xmlns:cc="http://creativecommons.org/ns#" xmlns:svg="http://www.w3.org/2000/svg" sodipodi:docname="iconHome.svg" inkscape:version="1.0 (4035a4fb49, 2020-05-01)">
	
		<sodipodi:namedview  id="namedview7" gridtolerance="10" inkscape:cy="41.675131" bordercolor="#666666" inkscape:cx="7.8240306" guidetolerance="10" showgrid="false" objecttolerance="10" borderopacity="1" inkscape:zoom="2.8710938" pagecolor="#ffffff" inkscape:window-height="845" inkscape:pageopacity="0" inkscape:window-width="1519" inkscape:window-y="0" inkscape:window-x="0" inkscape:window-maximized="0" inkscape:current-layer="Livello_1" inkscape:pageshadow="2">
		</sodipodi:namedview>
	<title  id="title2"></title>
	<g>
		<path fill="none" stroke="#FF0000" stroke-width="4" stroke-miterlimit="10" d="M75.919,24.236h-0.013
			c-0.895,1.365-1.42,2.991-1.42,4.75c0,4.782,3.877,8.659,8.658,8.659c4.783,0,8.66-3.876,8.66-8.659
			c0-1.759-0.525-3.385-1.418-4.75c0,0-0.82-1.528-1.191-3.396h21.729v19.338c-1.704-0.393-3.058-1.113-3.058-1.113
			c-1.366-0.896-2.993-1.42-4.751-1.42c-4.781,0-8.658,3.876-8.658,8.658c0,4.784,3.877,8.66,8.658,8.66
			c1.758,0,3.396-0.524,4.751-1.42c0,0,1.354-0.731,3.058-1.113v19.328h-21.72c0.359-1.869,1.182-3.387,1.182-3.387
			c0.893-1.363,1.418-2.992,1.418-4.751c0-4.781-3.877-8.658-8.66-8.658c-4.781,0-8.658,3.876-8.658,8.658
			c0,1.749,0.525,3.388,1.42,4.751h0.013c0,0,0.817,1.518,1.188,3.554h-17.1V52.849c-0.818,0.197-1.091,0.222-1.613,0.441
			c-0.524,0.219-2.431,1.143-2.431,1.143c-0.958,0.433-2.077,0.981-3.834,0.981c-5.021,0-8.628-3.8-8.628-9.027
			c0-5.689,4.055-9.023,8.837-9.023c1.747,0,2.96,0.494,4.325,1.39c0,0,1.586,0.679,3.339,1.169l0.005-19.083h17.102
			C76.736,22.708,75.919,24.236,75.919,24.236z"/>
		<path fill="none" stroke="#FF0000" stroke-width="4" stroke-miterlimit="10" d="M110.926,52.431
			c-1.703,0.382-3.058,1.113-3.058,1.113c-1.354,0.896-2.993,1.42-4.751,1.42c-4.781,0-8.658-3.876-8.658-8.66
			c0-4.782,3.877-8.658,8.658-8.658c1.758,0,3.385,0.524,4.751,1.42c0,0,1.354,0.72,3.058,1.113"/>
		<path fill="none" stroke="#FF0000" stroke-width="4" stroke-miterlimit="10" d="M89.195,20.841
			c0.371,1.868,1.191,3.396,1.191,3.396c0.893,1.365,1.418,2.991,1.418,4.75c0,4.782-3.877,8.659-8.66,8.659
			c-4.781,0-8.658-3.876-8.658-8.659c0-1.759,0.525-3.385,1.42-4.75h0.013c0,0,0.817-1.528,1.188-3.396"/>
		<path fill="none" stroke="#FF0000" stroke-width="4" stroke-miterlimit="10" d="M89.206,71.758
			c0.36-1.869,1.181-3.386,1.181-3.386c0.895-1.364,1.42-2.994,1.42-4.751c0-4.783-3.877-8.659-8.66-8.659
			c-4.781,0-8.658,2.97-8.658,8.659c0,1.749,0.523,3.387,1.419,4.751h0.013c0,0,0.816,1.517,1.189,3.386"/>
	</g>
	<path fill="none" stroke="#FF0000" stroke-width="4" stroke-miterlimit="10" d="M26.439,46.387
		c0.012-0.171,0.017-0.342,0.017-0.515c0-4.704-3.812-8.516-8.517-8.516c-1.729,0-3.328,0.515-4.672,1.397
		c0,0-1.502,0.815-3.338,1.169V20.841h19.039c-0.193-0.87-0.473-1.643-0.697-2.212c-0.237-0.559-0.42-0.902-0.42-0.902
		c-0.879-1.342-1.396-2.943-1.396-4.671c0-4.703,3.812-8.515,8.515-8.515s8.516,3.812,8.516,8.515c0,1.729-0.514,3.33-1.396,4.671
		H42.08c0,0-0.73,1.374-1.117,3.114h19.04v19.083c0,0-1.291-0.339-3.339-1.169c-1.344-0.882-2.943-1.397-4.662-1.397
		c-4.702,0-8.516,3.812-8.516,8.516c0,0.172,0.007,0.343,0.016,0.515c-0.009,0.168-0.016,0.341-0.016,0.513
		c0,4.704,3.813,8.516,8.516,8.516c1.719,0,3.318-0.516,4.662-1.396c0,0,1.502-0.806,3.339-1.172v19.082h-19.04
		c0.387,1.739,1.117,3.114,1.117,3.114h0.011c0.882,1.344,1.396,2.943,1.396,4.672c0,4.703-3.812,8.518-8.516,8.518
		c-4.703,0-8.515-3.813-8.515-8.518c0-1.729,0.517-3.328,1.396-4.672c0,0,0.183-0.342,0.42-0.9c0.225-0.568,0.504-1.344,0.697-2.214
		H9.93V52.849c1.836,0.356,3.338,1.172,3.338,1.172c1.344,0.88,2.942,1.396,4.672,1.396c4.705,0,8.517-3.813,8.517-8.516
		C26.456,46.728,26.451,46.556,26.439,46.387z"/>
	<g>
		<path fill="none" stroke="#FF0000" stroke-width="4" stroke-miterlimit="10" d="M128,97.306c0,4.771-3.87,8.641-8.643,8.641
			c-1.756,0-3.377-0.523-4.739-1.418c0,0-1.767-0.945-3.825-1.264v19.439H91.822c0.947-3.824,1.863-6.33,1.863-6.33
			c0.164-0.621,0.25-1.287,0.25-1.953c0-4.271-3.455-7.725-7.713-7.725c-4.273,0-7.729,3.454-7.729,7.725
			c0,0.666,0.088,1.332,0.252,1.953c0,0,0.371,1.013,0.893,2.746c0.295,0.98,0.633,2.201,0.973,3.584H59.984v-19.58
			c3.508,0.893,5.763,1.723,5.763,1.723c0.622,0.162,1.274,0.25,1.952,0.25c4.259,0,7.725-3.454,7.725-7.727
			c0-4.261-3.466-7.715-7.725-7.715c-0.676,0-1.33,0.088-1.952,0.25c0,0-1.013,0.37-2.745,0.895
			c-0.85,0.252-1.863,0.533-3.018,0.828V71.907h17.271c-0.131-2.365-1.754-4.229-1.754-4.229c-0.904-1.362-0.992-3.367-0.992-5.12
			c0-4.763,3.868-7.594,8.631-7.594c3.328,0,8.642,2.833,8.642,7.594c0,1.753,0.008,3.574-0.896,4.938c0,0-1.72,2.047-1.861,4.412
			h21.769v19.438c1.024-0.153,1.981-0.479,2.683-0.751c0.695-0.272,1.144-0.513,1.144-0.513c1.362-0.895,2.983-1.416,4.739-1.416
			C124.13,88.665,128,92.532,128,97.306z"/>
	</g>
</g>
</svg>
