<?xml version="1.0" encoding="utf-8"?>
<!-- Generator: Adobe Illustrator 16.0.0, SVG Export Plug-In . SVG Version: 6.00 Build 0)  -->
<!DOCTYPE svg PUBLIC "-//W3C//DTD SVG 1.1//EN" "http://www.w3.org/Graphics/SVG/1.1/DTD/svg11.dtd">
<svg version="1.1" xmlns="http://www.w3.org/2000/svg" xmlns:xlink="http://www.w3.org/1999/xlink" x="0px" y="0px" width="128px"
	 height="128px" viewBox="0 0 128 128" enable-background="new 0 0 128 128" xml:space="preserve">
<g id="Calque_2">
	<g>
		<path fill="#FF0000" d="M116.55,64.456c-0.652-0.464-1.488-0.582-2.244-0.318L72.22,79.57c-0.992,0.345-1.657,1.281-1.657,2.332
			v30.767c0,0.799,0.388,1.549,1.04,2.013c0.424,0.301,0.924,0.455,1.429,0.455c0.274,0,0.549-0.045,0.814-0.137l42.087-15.168
			c0.992-0.346,1.656-1.28,1.656-2.332V66.469C117.589,65.67,117.201,64.919,116.55,64.456z M112.65,95.746l-37.149,13.445V83.656
			l37.149-13.71V95.746z"/>
		<path fill="#FF0000" d="M4.049,108.373l58.444,19.443c0.365,0.121,0.745,0.184,1.125,0.184s0.76-0.063,1.126-0.184l58.444-19.443
			c1.458-0.484,2.441-1.848,2.441-3.385V39.052c0-1.541-0.99-2.908-2.455-3.389L64.731,16.479c-0.722-0.237-1.502-0.237-2.225,0
			L4.063,35.663c-1.464,0.481-2.454,1.848-2.454,3.389v65.936C1.608,106.525,2.592,107.889,4.049,108.373z M41.239,27.83
			l56.79,20.166v13.735l-10.375,3.453V51.33c0,0,0-0.002,0-0.003c-0.003-1.172-0.821-2.153-1.917-2.403l-52.245-18.55L41.239,27.83z
			 M77.556,51.258l-13.937,4.636L10.174,38.028l15.652-5.138L77.556,51.258z M66.089,122V60.277l16.627-5.531v13.862
			c0,0.794,0.381,1.54,1.023,2.005c0.427,0.307,0.934,0.465,1.446,0.465c0.262,0,0.523-0.041,0.778-0.126l15.314-5.096
			c1.009-0.335,1.69-1.278,1.69-2.341V48.007l17.531-5.644v61.724L66.089,122z M100.485,43.628L48.907,25.313L63.62,20.5
			l53.445,17.65L100.485,43.628z M6.743,103.416V41.842L61.15,60.277v61.574L6.743,103.416z"/>
	</g>
</g>
<g id="Calque_4">
	<g>
		<path fill="#FF0000" d="M105.707,79.374L97.774,98.17l-14.191,3.982l-2.221-15.946l9.854-2.765
			c0.268,4.488,0.346,8.328,0.229,11.52c1.094-3.499,2.152-6.63,3.168-9.393l1.241-3.429L105.707,79.374z"/>
		<path fill="#FF0000" d="M108.724,91.72l-0.647,3.559l-6.77,1.9l0.647-3.559L108.724,91.72z"/>
	</g>
</g>
<g id="Calque_3_1_" display="none">
	<g id="Calque_3" display="inline">
		<g>
			<path fill="none" stroke="#FF0000" stroke-width="5" stroke-linecap="round" stroke-linejoin="round" stroke-miterlimit="10" d="
				M56.654,55.605c0,0.578-0.469,1.049-1.049,1.049H5.548c-0.579,0-1.048-0.471-1.048-1.049V5.548C4.5,4.969,4.969,4.5,5.548,4.5
				h50.058c0.58,0,1.049,0.469,1.049,1.048V55.605L56.654,55.605z"/>
			<circle fill="#FF0000" cx="16.424" cy="17.481" r="3.704"/>
			<line fill="none" stroke="#FF0000" stroke-width="4" stroke-miterlimit="10" x1="24.219" y1="17.48" x2="46.23" y2="17.48"/>
			<circle fill="#FF0000" cx="16.424" cy="30.577" r="3.704"/>
			<line fill="none" stroke="#FF0000" stroke-width="4" stroke-miterlimit="10" x1="24.219" y1="30.578" x2="46.23" y2="30.578"/>
			<circle fill="#FF0000" cx="16.424" cy="43.673" r="3.704"/>
			<line fill="none" stroke="#FF0000" stroke-width="4" stroke-miterlimit="10" x1="24.219" y1="43.672" x2="46.23" y2="43.672"/>
		</g>
	</g>
</g>
</svg>
