<?xml version="1.0" encoding="utf-8"?>
<!-- Generator: Adobe Illustrator 16.0.0, SVG Export Plug-In . SVG Version: 6.00 Build 0)  -->
<!DOCTYPE svg PUBLIC "-//W3C//DTD SVG 1.1//EN" "http://www.w3.org/Graphics/SVG/1.1/DTD/svg11.dtd">
<svg version="1.1" xmlns="http://www.w3.org/2000/svg" xmlns:xlink="http://www.w3.org/1999/xlink" x="0px" y="0px" width="128px"
	 height="128px" viewBox="0 0 128 128" enable-background="new 0 0 128 128" xml:space="preserve">
<g id="Calque_3">
	<line fill="none" stroke="#FF0000" stroke-width="11" stroke-miterlimit="10" x1="5.496" y1="32.258" x2="58.622" y2="32.258"/>
	<rect x="58.622" y="38.393" fill="#FF0000" width="14.957" height="11"/>
	<line fill="none" stroke="#FF0000" stroke-width="11" stroke-miterlimit="10" x1="18.226" y1="65.706" x2="45.997" y2="65.706"/>
	<polygon fill="#FF0000" points="54.999,84.341 45.997,84.341 45.997,73.341 64,73.341 	"/>
	<path fill="none" stroke="#FF0000" stroke-width="5" stroke-miterlimit="10" d="M35.25,109.102H11.418
		c-3.316,0-6.004-2.915-6.004-6.509V12.577c0-3.594,2.688-6.507,6.004-6.507h107.084c3.318,0,6.006,2.914,6.006,6.507V67.5"/>
</g>
<g id="Calque_2">
	<g>
		<g id="Calque_1_1_">
			<g id="Calque_2_2_" display="none">
				<g display="inline">
					<path fill="none" d="M92.221,70.587c8.952,0,14.797-12.311,15.764-24.893H78.964c-0.809,0.101-1.635,0.188-2.488,0.237
						C77.498,58.43,83.323,70.587,92.221,70.587z"/>
					<path fill="none" d="M118.75,80.736l-9.183-3.352L94.88,85.709l-5.652-0.088L74.47,77.389l-9.104,3.349
						c-1.436,0.692-18.46,9.366-17.445,31.517c0.515,0.813,3.013,3.907,10.975,3.973c-0.251-4.192-0.684-13.551-0.148-21.751
						l4.51,0.295c-0.577,8.839,0.03,19.41,0.234,22.466c5.233,4.633,16.188,7.445,28.844,7.336
						c12.353-0.091,23.308-2.948,28.329-7.333c0.186-3.122,0.743-13.922,0.139-22.608l4.51-0.316
						c0.567,8.099,0.171,17.667-0.06,21.911c7.869-0.068,10.383-3.11,10.938-3.987C137.192,90.128,120.227,81.448,118.75,80.736z"/>
					<path fill="#FF0000" d="M64.36,45.694h5.927c0,0.002,0,0.004,0,0.006c-1.242,2.684-1.687,7.297,4.253,13.213
						c3.215,9.219,9.196,16.195,17.681,16.195c8.316,0,14.455-7.123,17.732-16.573c5.555-5.745,5.084-10.216,3.866-12.841h5.933
						c1.156,0,2.094-0.937,2.094-2.093c0-1.155-0.938-2.093-2.094-2.093h-2.8c0.015-0.318,0.022-0.639,0.022-0.96
						c0-10.058-5.88-18.713-14.329-22.617c0.024,0.989,0.029,2.105,0.029,3.363v3.616c0,10.439-0.567,11.061-10.109,11.061
						c-9.543,0-10.109-0.621-10.109-11.061v-3.616c0-1.262,0.009-2.378,0.039-3.369c-8.453,3.903-14.336,12.562-14.336,22.624
						c0,0.324,0.028,0.64,0.044,0.96h-3.845c-1.155,0-2.094,0.938-2.094,2.093C62.268,44.757,63.205,45.694,64.36,45.694z
						 M78.964,45.694h29.019c-0.966,12.582-6.81,24.893-15.763,24.893c-8.898,0-14.723-12.157-15.747-24.655
						C77.328,45.883,78.153,45.795,78.964,45.694z"/>
					<path fill="#FF0000" d="M120.567,76.597l-13.523-4.945l-12.064,7.058h-5.922l-12.063-7.066L63.71,76.527l-0.165,0.066
						c-0.218,0.1-21.591,10.257-20.115,36.369l0.02,0.336l0.114,0.316c0.113,0.306,2.769,7.142,15.588,7.142
						c0.476,0,0.97-0.016,1.476-0.034c6.076,5.273,17.515,8.373,31.091,8.373c0.218,0,0.434-0.003,0.65-0.004
						c10.65-0.074,24.171-2.336,31.167-8.369c14.042,0.521,16.891-6.789,17.008-7.109l0.117-0.314l0.021-0.336
						C142.155,86.853,120.784,76.694,120.567,76.597z M136.19,112.236c-0.558,0.879-3.07,3.921-10.938,3.989
						c0.229-4.246,0.624-13.813,0.061-21.911l-4.511,0.313c0.605,8.687,0.048,19.489-0.141,22.608
						c-5.019,4.388-15.974,7.245-28.326,7.335c-12.657,0.108-23.612-2.703-28.845-7.336c-0.203-3.059-0.811-13.626-0.234-22.466
						l-4.51-0.295c-0.536,8.199-0.103,17.557,0.148,21.751c-7.962-0.063-10.459-3.159-10.974-3.972
						c-1.014-22.15,16.009-30.828,17.444-31.518l9.105-3.348l14.758,8.232l5.651,0.086l14.688-8.324l9.183,3.352
						C120.227,81.448,137.192,90.128,136.19,112.236z"/>
					<path fill="#FF0000" d="M100.107,16.925c-0.079-1.678-0.267-2.795-0.731-3.317c-0.732-0.823-2.95-0.863-6.808-0.863
						c-3.802,0-6.087,0-6.818,0.812c-0.464,0.515-0.649,1.649-0.726,3.369c2.375-0.784,4.906-1.214,7.539-1.214
						C95.198,15.71,97.732,16.139,100.107,16.925z"/>
					<path fill="#FF0000" d="M84.968,24.909c0,4.284,0,6.87,0.783,7.737c0.734,0.811,3.022,0.811,6.817,0.811
						c3.792,0,6.083,0,6.813-0.811c0.785-0.867,0.785-3.453,0.785-7.737v-3.617c0-1.747-0.004-3.191-0.06-4.368
						c-2.375-0.784-4.91-1.214-7.546-1.214c-2.631,0-5.163,0.43-7.539,1.214c-0.052,1.179-0.056,2.626-0.056,4.368v3.617H84.968z"/>
				</g>
			</g>
			<g id="Calque_3_1_" display="none">
				<g display="inline">
					<path fill="#FF0000" d="M106.283,42.715c3.599-17.231-7.398-26.947-21.714-26.947c-25.66,0-21.182,28.115-21.182,28.115
						c0.027,0.003,0.055,0.004,0.082,0.007c-1.171,2.65-1.518,7.098,4.046,12.77c3.177,9.297,9.161,16.361,17.681,16.361
						c8.205,0,14.274-6.962,17.555-16.247C109.377,50.096,107.813,45.103,106.283,42.715z M85.196,68.523
						c-8.854,0-14.652-12.099-15.67-24.535c11.129-0.654,18.496-5.928,22.458-9.797c1.883,3.387,5.781,5.658,9.027,7.043
						C100.687,54.575,94.7,68.523,85.196,68.523z"/>
				</g>
				<g display="inline">
					<path fill="none" d="M80.263,120.663c-0.771-0.239-1.41-0.844-1.657-1.656L65.61,76.122c-0.221-0.729-0.094-1.487,0.295-2.082
						l-8.077,2.972c-1.174,0.564-19.849,9.94-18.531,33.722c0.21,0.489,2.598,5.438,13.15,5.438
						c0.438-0.002,0.899-0.015,1.369-0.032c0.034-0.001,0.067-0.003,0.1-0.003c0.601,0,1.183,0.217,1.638,0.613
						c4.878,4.235,13.888,6.973,24.632,7.589l-0.188-0.192L80.263,120.663z"/>
					<path fill="none" d="M112.591,77.03l-7.938-2.919c0.383,0.597,0.512,1.35,0.289,2.075l-13.134,43.35
						c-0.245,0.813-0.882,1.415-1.649,1.656l0.225,2.954l-0.131,0.137c9.023-0.612,19.148-2.808,24.634-7.535
						c0.479-0.414,1.092-0.615,1.725-0.605c0.452,0.016,0.896,0.029,1.324,0.029c10.489-0.002,12.914-4.893,13.151-5.439
						C132.392,87.235,114.173,77.803,112.591,77.03z"/>
					<path fill="#FF0000" d="M114.604,72.451c-0.06-0.026-0.115-0.05-0.175-0.071l-12.912-4.753
						c-1.262-0.465-2.666,0.154-3.175,1.396l-1.708,4.162c-0.256,0.631-0.251,1.335,0.021,1.959c0.276,0.62,0.79,1.106,1.429,1.338
						l1.391,0.513l-8.368,27.618l-0.859-15.052c-0.014-0.229-0.057-0.449-0.129-0.658l2.309-3.275
						c0.434-0.615,0.567-1.391,0.365-2.113c-0.044-0.152-0.051-0.179-1.618-4.238c-0.396-1.026-1.405-1.668-2.497-1.595
						c-0.262,0.009-1.539,0.015-3.481,0.015c-1.944,0-3.222-0.006-3.487-0.015c-1.084-0.082-2.097,0.565-2.494,1.587
						c-1.926,4.954-1.926,4.954-1.508,5.915c0.07,0.158,0.152,0.303,0.252,0.444l2.309,3.275c-0.069,0.21-0.113,0.43-0.127,0.658
						l-0.83,14.522l-8.229-27.149l1.241-0.459c0.639-0.233,1.155-0.719,1.427-1.341c0.272-0.622,0.281-1.33,0.021-1.962l-1.724-4.16
						c-0.515-1.238-1.916-1.852-3.172-1.389l-12.752,4.688c-0.031,0.009-0.06,0.021-0.089,0.034l-0.166,0.066
						c-0.032,0.015-0.061,0.026-0.091,0.041c-0.229,0.104-23.033,10.886-21.468,38.604l0.019,0.334
						c0.015,0.247,0.064,0.489,0.148,0.722l0.114,0.311c0.329,0.894,3.614,8.746,17.863,8.746c0.195,0,0.394-0.004,0.597-0.008
						c6.685,5.29,18.187,8.305,31.797,8.305h0.011l0.663-0.001c5.128-0.037,22.242-0.755,31.86-8.301
						c0.186,0.004,0.373,0.005,0.554,0.005c14.266-0.001,17.533-7.857,17.858-8.75l0.113-0.312c0.086-0.229,0.137-0.467,0.147-0.71
						l0.021-0.337C137.645,83.302,114.835,72.555,114.604,72.451z M79.999,83.994c-0.009-0.019,1.545-4.01,1.545-4.01
						c0.182,0.025,7.118,0.025,7.299,0c0,0,1.526,3.949,1.543,4.01L87.918,87.5h-5.45L79.999,83.994z M131.087,110.732
						c-0.237,0.547-2.662,5.438-13.151,5.439c-0.424,0-0.872-0.015-1.324-0.029c-0.632-0.01-1.246,0.191-1.725,0.605
						c-5.485,4.728-15.607,6.923-24.634,7.535l-5.061,3.231l-5.006-3.176c-10.744-0.616-19.754-3.353-24.632-7.589
						c-0.455-0.396-1.037-0.613-1.638-0.613c-0.033,0-0.068,0.002-0.1,0.003c-0.47,0.019-0.932,0.029-1.369,0.03
						c-10.553,0-12.94-4.948-13.15-5.437c-1.318-23.777,17.357-33.157,18.531-33.722l8.077-2.972
						c-0.387,0.598-0.516,1.354-0.295,2.082l12.995,42.885c0.247,0.813,0.888,1.417,1.657,1.656l2.371-31.15h5.117l2.408,31.676
						c0.768-0.241,1.404-0.843,1.646-1.653l13.137-43.35c0.22-0.727,0.094-1.481-0.292-2.076l7.94,2.918
						C114.173,77.803,132.392,87.235,131.087,110.732z"/>
					<path fill="#FFFFFF" d="M86.62,85.189l0.954-1.356c-0.14-0.358-0.292-0.76-0.44-1.141c-0.502,0-1.137,0-1.939,0
						c-0.809,0-1.444,0-1.946,0c-0.159,0.41-0.31,0.799-0.442,1.137l0.959,1.36H86.62z"/>
					<path fill="#FFFFFF" d="M87.917,87.5l2.467-3.506c-0.018-0.061-1.542-4.01-1.542-4.01c-0.18,0.025-7.117,0.025-7.298,0
						c0,0-1.554,3.991-1.545,4.01l2.469,3.506H87.917z"/>
				</g>
				<g display="inline">
					<path fill="#FF0000" d="M117.4,31.361c0,0.482-0.392,0.874-0.874,0.874h-3.823c-0.484,0-0.874-0.391-0.874-0.874v-3.822
						c0-0.482,0.39-0.874,0.874-0.874h3.823c0.482,0,0.874,0.391,0.874,0.874V31.361z"/>
					<path fill="#FF0000" d="M125.537,31.361c0,0.482-0.39,0.874-0.874,0.874h-3.823c-0.484,0-0.874-0.391-0.874-0.874v-3.822
						c0-0.482,0.39-0.874,0.874-0.874h3.823c0.484,0,0.874,0.391,0.874,0.874V31.361z"/>
					<path fill="#FF0000" d="M133.617,31.361c0,0.482-0.39,0.874-0.874,0.874h-3.821c-0.483,0-0.873-0.391-0.873-0.874v-3.822
						c0-0.482,0.39-0.874,0.873-0.874h3.821c0.484,0,0.874,0.391,0.874,0.874V31.361z"/>
				</g>
				<g display="inline">
					<path fill="none" d="M107.313,41.732c0,0.39-0.011,0.776-0.023,1.162h8.409v10.297l8.385-10.297h22.652V16.006H98.712v4.353
						C103.974,25.514,107.313,33.172,107.313,41.732z"/>
					<path fill="#FF0000" d="M148.555,11.247h-51.66c-1.649,0-2.942,1.391-2.942,3.166v3.352c1.715,1.005,3.31,1.173,4.76,2.595
						v-4.354h48.022v26.888h-22.651l-8.385,10.297V42.894l-9.415-0.179c-0.057,1.625,0.771,3.394,0.482,4.938h4.173v18.918
						l15.406-18.918h22.21c1.649,0,2.94-1.391,2.94-3.166V14.414C151.494,12.638,150.204,11.247,148.555,11.247z"/>
				</g>
			</g>
			<path fill="none" stroke="#FF0000" stroke-width="5" stroke-miterlimit="10" d="M112.127,40.846
				c0,5.562-1.386,10.703-3.73,14.867c-3.509,6.229-9.164,13.052-15.544,13.052c-6.275,0-11.851-6.693-15.369-12.75
				c-2.451-4.215-3.904-9.471-3.904-15.168"/>
		</g>
		<g id="Calque_2_1_">
			<path fill="none" stroke="#FF0000" stroke-width="5" stroke-miterlimit="10" d="M60.314,91.962c0,0-1.329,15.825,0.894,24.71"/>
			<path fill="none" stroke="#FF0000" stroke-width="5" stroke-miterlimit="10" d="M125.294,116.354c0,0-8.08,7.933-32.441,7.933
				s-31.646-7.614-31.646-7.614s-9.518,0.952-15.863-5.395c0,0-2.538-32.361,32.043-41.403c0,0,4.773,9.36,15.266,9.36
				c10.491,0,14.876-9.36,14.876-9.36s8.11,1.687,16.479,7.546"/>
		</g>
		<g>
			
				<line fill="#FFFFFF" stroke="#FF0000" stroke-width="4" stroke-linecap="round" stroke-linejoin="round" stroke-miterlimit="10" x1="69.861" y1="36.352" x2="115.845" y2="36.352"/>
			<path fill="none" stroke="#FF0000" stroke-width="4" stroke-linecap="round" stroke-linejoin="round" stroke-miterlimit="10" d="
				M70.976,33.437v-2.218l2.904-2.12v-6.141c0,0,2.121-7.254,10.045-10.938v7.032"/>
			<path fill="none" stroke="#FF0000" stroke-width="4" stroke-linecap="round" stroke-linejoin="round" stroke-miterlimit="10" d="
				M114.539,33.437v-2.218l-2.904-2.12v-6.141c0,0-2.118-7.254-10.043-10.938v7.032"/>
			<path fill="none" stroke="#FF0000" stroke-width="4" stroke-linecap="round" stroke-linejoin="round" stroke-miterlimit="10" d="
				M88.276,23.293V11.302c0,0,0-1.068,1.898-1.068c1.896,0,5.134,0,5.134,0s1.784,0.224,1.784,1.787c0,1.564,0,11.273,0,11.273"/>
		</g>
	</g>
</g>
</svg>
