<?xml version="1.0" encoding="utf-8"?>
<!-- Generator: Adobe Illustrator 16.0.0, SVG Export Plug-In . SVG Version: 6.00 Build 0)  -->
<!DOCTYPE svg PUBLIC "-//W3C//DTD SVG 1.1//EN" "http://www.w3.org/Graphics/SVG/1.1/DTD/svg11.dtd">
<svg version="1.1" xmlns="http://www.w3.org/2000/svg" xmlns:xlink="http://www.w3.org/1999/xlink" x="0px" y="0px" width="128px"
	 height="128px" viewBox="0 0 128 128" enable-background="new 0 0 128 128" xml:space="preserve">
<g id="Calque_1">
	<g id="Calque_3">
		<path id="path17" fill="#FF0000" d="M71.953,5.063c0.07,0.052,0.158,0.127,0.23,0.2l0.035,4.354l0.047,5.598l0.029,3.637
			l3.471,1.091l1.76,0.554c2.345,0.737,4.605,1.665,6.916,2.836c2.617,1.326,3.32,1.682,4.642,1.682
			c2.188,0,2.584-0.394,7.431-5.214c1.104-1.099,2.56-2.547,3.266-3.134h0.052h0.01c0.898,0.752,2.874,2.746,5.476,5.371l0.27,0.272
			c2.795,2.822,4.919,4.965,5.709,5.933c-0.607,0.724-2.042,2.163-3.135,3.259l-3.785,3.797l-2.535,2.542l1.6,3.214l1.221,2.452
			c1.234,2.48,2.081,4.558,2.832,6.947l0.553,1.761l1.09,3.473l3.639,0.03l5.602,0.047l4.354,0.035
			c0.072,0.073,0.148,0.16,0.201,0.232v7.953v7.955c-0.053,0.072-0.129,0.16-0.201,0.232l-4.363,0.035l-5.605,0.047l-3.677,0.031
			l-1.065,3.52l-0.396,1.31c-0.736,2.432-2.313,6.137-3.665,8.61l-0.563,1.028l-1.799,3.282l2.643,2.65l3.853,3.863
			c1.532,1.538,2.578,2.646,3.142,3.27c-0.761,0.901-2.854,2.998-5.614,5.764l-0.218,0.218c-2.668,2.671-4.699,4.705-5.635,5.487
			c-0.723-0.605-2.15-2.03-3.238-3.117c-4.938-4.919-5.233-5.214-7.412-5.214c-1.281,0-1.826,0.271-4.854,1.771
			c-2.529,1.256-4.365,2.006-6.773,2.765l-1.711,0.539l-3.467,1.092l-0.029,3.635l-0.047,5.601l-0.035,4.354
			c-0.053,0.053-0.112,0.105-0.168,0.15c-0.926,0.05-3.409,0.058-7.506,0.07l-1.56,0.002c-3.738,0-6.146-0.033-6.939-0.062
			c-0.067-0.031-0.146-0.084-0.208-0.14l-0.036-4.389l-0.045-5.604l-0.029-3.679l-3.52-1.066l-1.315-0.398
			c-2.381-0.72-5.876-2.205-8.496-3.609l-1.18-0.633l-3.268-1.756l-2.627,2.617l-3.865,3.85c-1.537,1.53-2.644,2.578-3.268,3.143
			c-0.952-0.792-3.237-3.082-5.834-5.686l-0.183-0.184c-2.644-2.648-4.66-4.669-5.446-5.605c0.614-0.73,2.048-2.168,3.141-3.266
			l3.788-3.801l2.536-2.544l-1.602-3.215l-1.22-2.449c-1.243-2.495-2.091-4.571-2.836-6.942l-0.553-1.762l-1.09-3.472l-3.639-0.03
			l-5.597-0.047L5.28,72.17c-0.073-0.072-0.148-0.159-0.201-0.23v-7.957v-7.954c0.052-0.072,0.127-0.159,0.201-0.232l4.356-0.035
			l5.6-0.046l3.655-0.03l1.081-3.491l0.476-1.536c0.666-2.152,1.964-5.3,3.02-7.32l1.103-2.108l1.695-3.241l-2.574-2.597
			l-3.812-3.846c-1.183-1.193-2.614-2.638-3.195-3.343c0-0.015,0-0.031,0-0.047V28.15c0.752-0.899,2.75-2.879,5.38-5.486
			l0.268-0.265c2.719-2.695,4.941-4.898,5.929-5.707c0.727,0.611,2.146,2.027,3.229,3.106c4.331,4.316,5.231,5.214,7.528,5.214
			c1.121,0,2.227-0.346,3.142-0.967c0.244-0.134,0.806-0.43,1.622-0.839c2.104-1.052,4.48-2.015,6.693-2.71l1.762-0.554l3.471-1.092
			l0.029-3.638l0.045-5.596l0.036-4.366c0.068-0.07,0.149-0.142,0.215-0.188h7.972L71.953,5.063 M72.957,0.063h-8.959h-8.96
			l-0.899,0.362c-1.141,0.459-2.353,1.59-2.902,2.708l-0.414,0.845l-0.047,5.598l-0.045,5.598l-1.762,0.554
			c-2.477,0.779-5.084,1.835-7.43,3.008c-1.105,0.554-2.075,1.068-2.154,1.143c-0.078,0.074-0.246,0.136-0.373,0.136
			c-0.127,0-1.926-1.69-3.999-3.756c-4.4-4.386-4.716-4.601-6.783-4.601c-2.157,0-2.204,0.035-9.425,7.192
			c-7.211,7.147-7.122,7.03-7.127,9.297c-0.004,2.148,0.169,2.406,4.644,6.921l3.812,3.846l-1.103,2.108
			c-1.195,2.286-2.613,5.723-3.367,8.161l-0.475,1.535l-5.6,0.046L3.988,50.81l-0.857,0.422c-1.089,0.535-2.248,1.787-2.709,2.93
			l-0.349,0.865v8.959v8.961l0.349,0.865c0.461,1.143,1.62,2.395,2.709,2.93l0.857,0.422l5.598,0.045l5.595,0.047l0.553,1.762
			c0.823,2.619,1.768,4.938,3.131,7.674l1.22,2.449l-3.788,3.801c-4.419,4.434-4.632,4.746-4.632,6.813
			c0,2.188-0.059,2.107,7.123,9.305c6.646,6.659,6.887,6.861,8.573,7.18c0.229,0.043,0.479,0.063,0.739,0.063
			c0.798,0,1.695-0.193,2.385-0.537c0.361-0.179,2.174-1.861,4.472-4.15l3.865-3.852l1.18,0.635c2.923,1.566,6.705,3.172,9.416,3.99
			l1.311,0.397l0.045,5.604l0.047,5.607l0.416,0.848c0.765,1.555,2.377,2.736,4.094,2.998c0.371,0.057,3.656,0.096,7.627,0.096
			c0.515,0,1.04,0,1.571-0.002c8.428-0.026,8.435-0.026,9.298-0.373c1.144-0.459,2.396-1.614,2.932-2.707l0.421-0.856l0.047-5.599
			l0.047-5.599l1.711-0.538c2.639-0.832,4.742-1.688,7.492-3.054c1.385-0.687,2.568-1.25,2.631-1.25s1.81,1.69,3.883,3.756
			c4.379,4.369,4.713,4.601,6.752,4.601c0.009,0,0.019,0,0.027,0c2.215-0.002,2.119,0.07,9.379-7.196
			c6.707-6.718,6.781-6.808,7.105-8.521c0.171-0.904-0.025-2.193-0.479-3.099c-0.178-0.362-1.86-2.176-4.15-4.476l-3.854-3.864
			l0.563-1.028c1.513-2.769,3.231-6.813,4.065-9.564l0.396-1.31l5.604-0.047l5.607-0.045l0.855-0.422
			c1.091-0.535,2.248-1.787,2.709-2.931l0.351-0.864v-8.961V55.03l-0.351-0.865c-0.461-1.143-1.618-2.395-2.709-2.93l-0.855-0.422
			l-5.599-0.045l-5.599-0.047l-0.554-1.761c-0.83-2.641-1.771-4.951-3.126-7.677l-1.22-2.452l3.784-3.797
			c4.408-4.422,4.615-4.728,4.623-6.812c0.011-2.156-0.023-2.2-7.187-9.429c-7.146-7.213-7.024-7.12-9.297-7.124
			c-0.024,0-0.051,0-0.075,0c-2.08,0-2.393,0.225-6.777,4.59c-2.078,2.067-3.834,3.758-3.902,3.758s-1.143-0.514-2.381-1.142
			c-2.545-1.29-5.085-2.331-7.676-3.146l-1.762-0.554l-0.041-5.599l-0.047-5.598l-0.421-0.857c-0.535-1.089-1.788-2.248-2.931-2.709
			L72.957,0.063L72.957,0.063z"/>
	</g>
	<g id="Calque_2">
		<g>
			<path fill="none" stroke="#FF0000" stroke-width="2" stroke-linecap="round" stroke-linejoin="round" stroke-miterlimit="10" d="
				M91.869,62.683c-0.016-0.271-0.037-0.544-0.057-0.814c-0.013-0.143-0.021-0.286-0.035-0.43
				c-1.297-14.187-13.258-25.34-27.778-25.34v55.803c14.524,0,26.483-11.154,27.778-25.344c0.015-0.138,0.021-0.275,0.035-0.412
				c0.02-0.275,0.041-0.554,0.057-0.83c0.021-0.438,0.031-0.875,0.031-1.315S91.891,63.122,91.869,62.683z M72.611,40.056
				c0.168,0.06,0.337,0.126,0.502,0.19c0.215,0.083,0.428,0.164,0.641,0.253c0.166,0.068,0.331,0.144,0.497,0.218
				c0.207,0.09,0.413,0.182,0.616,0.279c0.165,0.079,0.328,0.161,0.492,0.243c0.197,0.099,0.396,0.199,0.593,0.304
				c0.163,0.086,0.323,0.178,0.485,0.268c0.189,0.109,0.381,0.217,0.568,0.329c0.16,0.096,0.317,0.193,0.475,0.292
				c0.185,0.115,0.367,0.232,0.549,0.352c0.156,0.103,0.311,0.209,0.463,0.316c0.179,0.123,0.354,0.246,0.527,0.374
				c0.15,0.112,0.301,0.225,0.451,0.34c0.168,0.129,0.336,0.261,0.502,0.395c0.146,0.118,0.293,0.241,0.438,0.362
				c0.162,0.137,0.322,0.275,0.48,0.417c0.145,0.126,0.281,0.254,0.422,0.383c0.155,0.145,0.31,0.29,0.459,0.438
				c0.138,0.134,0.271,0.268,0.405,0.405c0.147,0.15,0.292,0.302,0.437,0.456c0.13,0.142,0.259,0.281,0.387,0.425
				c0.141,0.156,0.277,0.315,0.413,0.476c0.124,0.146,0.246,0.295,0.369,0.443c0.131,0.162,0.26,0.328,0.387,0.494
				c0.118,0.152,0.235,0.307,0.351,0.461c0.123,0.17,0.244,0.342,0.364,0.514c0.11,0.157,0.222,0.314,0.327,0.476
				c0.116,0.177,0.229,0.354,0.341,0.532c0.103,0.163,0.206,0.326,0.306,0.492c0.106,0.181,0.213,0.365,0.314,0.549
				c0.096,0.168,0.189,0.336,0.281,0.506c0.102,0.187,0.195,0.377,0.292,0.566c0.086,0.172,0.174,0.344,0.257,0.52
				c0.038,0.08,0.072,0.163,0.109,0.246h-7.721c-1.382-5.6-3.82-10.284-6.897-13.355C72.533,40.029,72.572,40.041,72.611,40.056z
				 M65.227,38.652c5.186,0.8,9.58,6.612,11.668,14.718H65.227V38.652z M65.227,55.823h12.217c0.486,2.566,0.755,5.316,0.755,8.177
				c0,2.857-0.269,5.604-0.755,8.173H65.227V55.823z M65.227,89.348V74.624h11.67C74.809,82.732,70.413,88.546,65.227,89.348z
				 M87.002,74.876c-0.083,0.176-0.171,0.349-0.257,0.521c-0.097,0.19-0.19,0.379-0.292,0.567c-0.092,0.17-0.186,0.336-0.281,0.504
				c-0.104,0.185-0.208,0.369-0.314,0.552c-0.1,0.164-0.203,0.325-0.306,0.489c-0.112,0.179-0.225,0.355-0.341,0.531
				c-0.105,0.162-0.217,0.319-0.327,0.478c-0.12,0.174-0.241,0.344-0.364,0.512c-0.115,0.158-0.231,0.313-0.351,0.465
				c-0.127,0.166-0.256,0.33-0.387,0.492c-0.123,0.149-0.245,0.297-0.369,0.442c-0.136,0.16-0.272,0.318-0.413,0.478
				c-0.128,0.143-0.257,0.283-0.387,0.424c-0.145,0.156-0.288,0.307-0.437,0.455c-0.134,0.139-0.269,0.271-0.405,0.404
				c-0.149,0.149-0.304,0.295-0.459,0.438c-0.141,0.131-0.277,0.26-0.422,0.387c-0.158,0.141-0.318,0.277-0.48,0.416
				c-0.145,0.123-0.291,0.242-0.438,0.363c-0.166,0.133-0.334,0.264-0.502,0.395c-0.15,0.115-0.301,0.229-0.451,0.34
				c-0.174,0.127-0.35,0.25-0.527,0.375c-0.152,0.107-0.307,0.214-0.463,0.316c-0.182,0.121-0.364,0.236-0.549,0.35
				c-0.156,0.103-0.313,0.197-0.475,0.293c-0.188,0.113-0.379,0.224-0.568,0.33c-0.162,0.093-0.322,0.183-0.485,0.269
				c-0.196,0.104-0.396,0.205-0.593,0.304c-0.164,0.084-0.327,0.165-0.492,0.243c-0.203,0.097-0.409,0.188-0.616,0.279
				c-0.166,0.073-0.331,0.147-0.497,0.217c-0.213,0.09-0.426,0.17-0.641,0.254c-0.165,0.063-0.334,0.129-0.502,0.188
				c-0.039,0.015-0.078,0.027-0.118,0.041c3.077-3.071,5.519-7.76,6.899-13.36h7.723C87.076,74.708,87.04,74.792,87.002,74.876z
				 M89.418,65.155c-0.008,0.192-0.021,0.387-0.035,0.579c-0.011,0.162-0.023,0.324-0.037,0.486
				c-0.025,0.285-0.054,0.572-0.09,0.855c-0.001,0.012-0.003,0.023-0.004,0.035c-0.216,1.705-0.609,3.396-1.182,5.061h-8.149
				c0.474-2.588,0.729-5.33,0.729-8.173c0-2.845-0.258-5.59-0.729-8.177h8.149c0.57,1.656,0.962,3.344,1.18,5.048
				c0.003,0.021,0.005,0.04,0.007,0.062c0.035,0.279,0.063,0.561,0.089,0.842c0.014,0.164,0.026,0.33,0.037,0.496
				c0.014,0.191,0.027,0.383,0.035,0.574c0.018,0.383,0.03,0.766,0.03,1.155S89.436,64.771,89.418,65.155z"/>
			<path fill="none" stroke="#FF0000" stroke-width="2" stroke-linecap="round" stroke-linejoin="round" stroke-miterlimit="10" d="
				M36.359,60.229c-0.005,0.035-0.009,0.07-0.013,0.105c-0.047,0.359-0.092,0.719-0.125,1.084c-0.017,0.169-0.026,0.34-0.039,0.51
				c-0.019,0.25-0.039,0.498-0.051,0.748c-0.022,0.441-0.034,0.881-0.034,1.323c0,0.44,0.012,0.882,0.034,1.321
				c0.012,0.252,0.032,0.498,0.051,0.746c0.012,0.172,0.022,0.342,0.039,0.512c0.032,0.359,0.076,0.717,0.123,1.072
				c0.004,0.039,0.008,0.074,0.014,0.113C38.204,81.372,49.891,91.9,63.999,91.9V36.098C49.894,36.098,38.206,46.624,36.359,60.229z
				 M55.5,40.018c-3.077,3.07-5.517,7.755-6.899,13.353h-7.715C43.747,47.175,49.021,42.319,55.5,40.018z M38.757,67.188
				c-0.006-0.056-0.014-0.109-0.02-0.164c-0.033-0.258-0.059-0.519-0.082-0.777c-0.016-0.18-0.029-0.361-0.041-0.543
				c-0.012-0.18-0.025-0.359-0.034-0.541c-0.018-0.385-0.029-0.771-0.029-1.161s0.012-0.776,0.029-1.163
				c0.009-0.18,0.021-0.358,0.034-0.538c0.012-0.184,0.025-0.367,0.041-0.55c0.023-0.258,0.051-0.52,0.083-0.777
				c0.005-0.054,0.013-0.107,0.021-0.161c0.217-1.686,0.605-3.353,1.165-4.987h8.149c-0.475,2.587-0.732,5.332-0.732,8.177
				c0,2.843,0.256,5.585,0.73,8.173h-8.152C39.36,70.534,38.976,68.866,38.757,67.188z M40.884,74.624h7.715
				c1.383,5.603,3.822,10.287,6.901,13.358C49.021,85.684,43.743,80.823,40.884,74.624z M62.772,89.348
				c-5.189-0.8-9.588-6.613-11.676-14.724h11.676V89.348z M62.772,72.173H50.55c-0.486-2.567-0.756-5.313-0.756-8.173
				c0-2.86,0.27-5.61,0.758-8.177h12.221L62.772,72.173L62.772,72.173z M62.772,53.37H51.099
				c2.089-8.106,6.486-13.918,11.674-14.718L62.772,53.37L62.772,53.37z"/>
		</g>
	</g>
</g>
<g id="Calque_4" display="none">
	
		<path display="inline" fill="none" stroke="#FF0000" stroke-width="5" stroke-linecap="round" stroke-linejoin="round" stroke-miterlimit="10" d="
		M92.597,127.284l-2.067-17.682c0,0,0.211-7.968,6.562-10.176l16.672-3.476l-0.245-14.027l-2.362-2.655l3.132-5.054l-0.277-6.16
		l6.336-8.516c-8.717-9.15-11.705-12.757-12.698-19.003c-0.083-1.325-0.239-5.377-0.475-6.711
		C103.47,12.751,81.858-1.063,58.908,2.974c-22.95,4.035-40.497,21.979-38.509,45.7c2.385,28.441,27.414,47.525,27.414,47.525
		l4.052,14.538l3.1,17.187"/>
	<g display="inline">
		<g>
			<path fill="none" stroke="#FF0000" stroke-width="5" stroke-linecap="round" stroke-linejoin="round" stroke-miterlimit="10" d="
				M72.212,37.847c1.436,0.805,2.969,1.28,4.512,1.447l0.964,3.482c1.631,0.031,3.252-0.195,4.8-0.671l-0.029-3.614
				c1.457-0.592,2.805-1.476,3.945-2.627l3.321,1.418c0.511-0.616,0.981-1.277,1.401-1.987c0.42-0.71,0.772-1.441,1.066-2.185
				l-2.842-2.228c0.46-1.554,0.584-3.161,0.401-4.723l3.182-1.714c-0.329-1.586-0.911-3.118-1.725-4.531l-3.515,0.834
				c-0.89-1.273-2.045-2.388-3.441-3.257l0.644-3.556c-1.484-0.755-3.042-1.245-4.616-1.481l-1.54,3.269
				c-1.6-0.099-3.197,0.128-4.693,0.658l-2.378-2.719c-1.464,0.667-2.829,1.567-4.037,2.687l1.596,3.24
				c-0.524,0.581-0.998,1.221-1.412,1.921c-0.413,0.699-0.747,1.424-1.002,2.163l-3.607,0.163c-0.4,1.597-0.531,3.228-0.411,4.831
				l3.528,0.774c0.257,1.567,0.828,3.076,1.685,4.43l-2.123,2.924c0.966,1.265,2.145,2.395,3.521,3.333L72.212,37.847z"/>
			
				<circle fill="none" stroke="#FF0000" stroke-width="5" stroke-linecap="round" stroke-linejoin="round" stroke-miterlimit="10" cx="78" cy="27.531" r="5.964"/>
		</g>
		<g>
			<path fill="none" stroke="#FF0000" stroke-width="5" stroke-linecap="round" stroke-linejoin="round" stroke-miterlimit="10" d="
				M52.236,73.886c0.273-0.033,0.545-0.071,0.819-0.118c1.506-0.255,2.932-0.701,4.257-1.307l4.008,3.088
				c1.037-0.668,2.007-1.42,2.909-2.243l-1.7-4.543c1.289-1.341,2.353-2.887,3.149-4.57L70.301,64
				c0.396-1.178,0.689-2.398,0.88-3.645l-3.907-2.21c0.098-1.346,0.041-2.725-0.194-4.115c-0.098-0.58-0.225-1.147-0.377-1.703
				l3.33-3.039c-0.433-1.157-0.956-2.262-1.563-3.31l-4.436,0.825c-1.197-1.639-2.672-3.044-4.344-4.158l0.635-4.751
				c-0.995-0.568-2.036-1.056-3.113-1.465l-3.116,3.784c-1.911-0.446-3.927-0.568-5.975-0.316l-2.852-4.497
				c-1.062,0.204-2.091,0.479-3.084,0.823l0.05,5.51c-1.731,0.909-3.271,2.099-4.573,3.5l-5.595-1.776
				c-0.622,0.796-1.189,1.635-1.697,2.509l3.922,4.587c-0.669,1.676-1.074,3.472-1.182,5.326l-5.682,2.341
				c0.045,0.821,0.133,1.646,0.274,2.476c0.03,0.182,0.07,0.358,0.105,0.539l6.134,1.023c0.556,1.691,1.364,3.249,2.37,4.643
				l-2.8,5.354c0.742,0.773,1.54,1.491,2.384,2.147l5.161-3.043c1.446,0.915,3.03,1.612,4.704,2.063l1.204,5.483
				c1.135,0.126,2.292,0.165,3.46,0.11L52.236,73.886z"/>
			
				<circle fill="none" stroke="#FF0000" stroke-width="5" stroke-linecap="round" stroke-linejoin="round" stroke-miterlimit="10" cx="50.118" cy="56.822" r="10.237"/>
		</g>
	</g>
</g>
<g id="Calque_2_1_" display="none">
	<g display="inline">
		<path fill="none" stroke="#FF0000" stroke-width="5" stroke-linecap="round" stroke-linejoin="round" stroke-miterlimit="10" d="
			M14.885,50.642c0.034-0.248,0.058-0.498,0.058-0.754c0-3.03-2.457-5.487-5.488-5.487c-3.03,0-5.487,2.457-5.487,5.487
			c0,3.031,2.457,5.487,5.487,5.487c1.582,0,3.002-0.672,4.004-1.743"/>
		<path fill="none" stroke="#FF0000" stroke-width="5" stroke-linecap="round" stroke-linejoin="round" stroke-miterlimit="10" d="
			M66.07,15.746c2.171-0.73,3.739-2.779,3.739-5.198c0-3.03-2.457-5.487-5.488-5.487c-3.03,0-5.486,2.457-5.486,5.487
			c0,2.419,1.567,4.469,3.741,5.199"/>
		<path fill="none" stroke="#FF0000" stroke-width="5" stroke-linecap="round" stroke-linejoin="round" stroke-miterlimit="10" d="
			M114.859,53.179c1.001,1.332,2.589,2.196,4.383,2.196c3.03,0,5.487-2.457,5.487-5.487c0-3.03-2.457-5.487-5.487-5.487
			s-5.486,2.457-5.486,5.487"/>
		<path fill="none" stroke="#FF0000" stroke-width="5" stroke-linecap="round" stroke-linejoin="round" stroke-miterlimit="10" d="
			M93.776,110.926c-0.606,0.884-0.963,1.951-0.963,3.104c0,3.03,2.456,5.487,5.486,5.487c3.031,0,5.487-2.457,5.487-5.487
			c0-3.032-2.456-5.486-5.487-5.486c-0.56,0-1.1,0.084-1.608,0.24"/>
		<path fill="none" stroke="#FF0000" stroke-width="5" stroke-linecap="round" stroke-linejoin="round" stroke-miterlimit="10" d="
			M32.249,108.789c-0.516-0.16-1.064-0.246-1.634-0.246c-3.031,0-5.487,2.454-5.487,5.486c0,3.03,2.456,5.487,5.487,5.487
			c3.03,0,5.487-2.457,5.487-5.487c0-1.158-0.36-2.23-0.972-3.114"/>
		<path fill="none" stroke="#FF0000" stroke-width="5" stroke-linecap="round" stroke-linejoin="round" stroke-miterlimit="10" d="
			M77.548,49.888L66.07,15.746c-0.55,0.185-1.137,0.289-1.749,0.289c-0.61,0-1.196-0.104-1.745-0.288L50.86,50.642H14.885
			c-0.159,1.149-0.671,2.183-1.426,2.99l29.189,21.802l-10.4,33.354c1.183,0.369,2.191,1.129,2.881,2.126l29.219-20.162
			l29.428,20.173c0.694-1.01,1.716-1.775,2.915-2.143L86.232,74.68l28.627-21.5c-0.689-0.917-1.104-2.055-1.104-3.292H77.548z"/>
	</g>
</g>
<g id="Calque_3_1_" display="none">
	<g display="inline">
		<polygon fill="#FF0000" points="64.957,47.469 58.878,59.773 45.295,61.748 55.129,71.327 52.807,84.856 64.957,78.47 
			77.101,84.856 74.784,71.327 84.61,61.748 71.029,59.773 		"/>
		<path fill="none" stroke="#FF0000" stroke-width="5" stroke-miterlimit="10" d="M111.488,15.919l-1.72,0.522
			c-4.438,1.339-11.702,2.945-21.094,2.945c-7.625,0-14.902-2.369-21.054-6.841c-0.415-0.301-0.811-0.602-1.185-0.896l-1.479-1.171
			l-1.479,1.171c-0.375,0.294-0.77,0.596-1.186,0.89c-6.151,4.479-13.435,6.848-21.053,6.848c-9.398,0-16.662-1.606-21.1-2.945
			l-1.714-0.522L8.129,31.771l1.567,1.359c0.381,0.334,0.769,0.689,1.151,1.058c5.529,5.335,8.455,12.23,8.455,19.956
			c0,5.603-1.713,11.889-3.521,18.549c-1.74,6.394-3.535,13.008-3.761,18.938c-0.222,5.904,1.158,10.142,4.351,13.342
			c9.319,9.317,16.555,10.095,22.6,10.095c1.372,0,2.738-0.047,4.277-0.101c1.426-0.053,2.899-0.107,4.405-0.107
			c5.409,0,10.878,2.09,15.812,6.039l1.493,1.197l1.492-1.197c4.928-3.949,10.402-6.039,15.813-6.039
			c1.498,0,2.973,0.055,4.484,0.107c1.453,0.054,2.818,0.101,4.191,0.101c6.052,0,13.28-0.777,22.6-10.095
			c3.193-3.193,4.578-7.432,4.351-13.342c-0.221-5.925-2.021-12.539-3.762-18.938c-1.808-6.66-3.521-12.946-3.521-18.549
			c0-7.725,2.925-14.62,8.461-19.956c0.381-0.375,0.77-0.73,1.151-1.064l1.561-1.359L111.488,15.919z M101.875,93.979l-0.75,0.704
			c-2.041,1.888-3.875,3.146-5.461,3.742c-1.192,0.441-2.511,0.616-4.727,0.616c-1.091,0-2.344-0.041-3.662-0.087
			c-1.507-0.061-3.213-0.121-5.014-0.121c-5.617,0-11.106,1.211-16.308,3.608l-0.997,0.455l-0.998-0.455
			c-5.208-2.397-10.697-3.608-16.307-3.608c-1.808,0-3.515,0.061-5.021,0.121c-1.318,0.046-2.57,0.087-3.661,0.087
			c-2.216,0-3.535-0.175-4.72-0.616c-1.593-0.597-3.427-1.854-5.463-3.742l-0.756-0.704l-0.014-1.023
			c-0.007-1.139,0.127-2.577,0.401-4.271c0.589-3.568,1.674-7.558,2.826-11.789c2.008-7.383,4.077-15.015,4.077-22.753
			c0-5.443-0.964-10.731-2.865-15.705l-1.332-3.487l3.722,0.248c2.102,0.14,4.25,0.213,6.393,0.213
			c7.966,0,15.591-1.753,22.667-5.208l1.051-0.516L66,30.205c7.084,3.454,14.708,5.208,22.675,5.208
			c2.136,0,4.284-0.073,6.393-0.213l3.722-0.248l-1.332,3.487c-1.907,4.974-2.872,10.262-2.872,15.705
			c0,7.739,2.069,15.371,4.078,22.748c1.164,4.277,2.241,8.254,2.824,11.795c0.274,1.693,0.415,3.132,0.402,4.271L101.875,93.979z"
			/>
	</g>
</g>
</svg>
