<?xml version="1.0" encoding="utf-8"?>
<!-- Generator: Adobe Illustrator 16.0.0, SVG Export Plug-In . SVG Version: 6.00 Build 0)  -->
<!DOCTYPE svg PUBLIC "-//W3C//DTD SVG 1.1//EN" "http://www.w3.org/Graphics/SVG/1.1/DTD/svg11.dtd">
<svg version="1.1" id="Calque_1" xmlns="http://www.w3.org/2000/svg" xmlns:xlink="http://www.w3.org/1999/xlink" x="0px" y="0px"
	 width="128px" height="128px" viewBox="0 0 128 128" enable-background="new 0 0 128 128" xml:space="preserve">
<g id="Calque_2" display="none">
</g>
<g id="Calque_2_1_">
	<g>
		
			<circle fill="none" stroke="#FF0000" stroke-width="5" stroke-linecap="round" stroke-linejoin="round" stroke-miterlimit="10" cx="44.232" cy="23.676" r="9.008"/>
		<path fill="none" stroke="#FF0000" stroke-width="5" stroke-linecap="round" stroke-linejoin="round" stroke-miterlimit="10" d="
			M72.182,32.476c0-15.438-12.512-27.952-27.948-27.952c-15.438,0-27.951,12.515-27.951,27.952c0,10.862,6.209,20.256,15.264,24.883
			v9.272l7.923,7.922l-8.526,8.529l7.166,7.165l-6.522,6.523l7.015,7.013L31.383,111l12.476,12.476l13.242-13.244V57.282h-0.029
			C66.043,52.631,72.182,43.278,72.182,32.476z"/>
	</g>
</g>
<g>
	<path fill="#FF0000" d="M104.979,50.326L92.65,66.546v0.26l19.595-2.596v8.825L92.65,70.699v0.259l12.458,15.573l-8.176,4.671
		l-7.786-18.167h-0.259l-8.435,18.298l-7.398-4.672l12.329-15.832V70.57l-19.205,2.465V64.21l19.076,2.466v-0.258l-12.2-15.833
		l7.918-4.542l8.044,18.04h0.261l7.915-18.169L104.979,50.326z"/>
</g>
</svg>
