<?xml version="1.0" encoding="utf-8"?>
<!-- Generator: Adobe Illustrator 16.0.0, SVG Export Plug-In . SVG Version: 6.00 Build 0)  -->
<!DOCTYPE svg PUBLIC "-//W3C//DTD SVG 1.1//EN" "http://www.w3.org/Graphics/SVG/1.1/DTD/svg11.dtd">
<svg version="1.1" id="Calque_1" xmlns="http://www.w3.org/2000/svg" xmlns:xlink="http://www.w3.org/1999/xlink" x="0px" y="0px"
	 width="128px" height="128px" viewBox="0 0 128 128" enable-background="new 0 0 128 128" xml:space="preserve">
<g id="Calque_1_2_">
	<g id="Calque_1_1_" display="none">
	</g>
	<path fill="#FF0000" d="M97.852,93.417h-6.045V65.939c0-11.018-8.967-19.983-19.984-19.983H55.554
		c-11.024,0-19.985,8.966-19.985,19.983v27.478h-6.038c-1.18,0-2.129,0.955-2.129,2.129v15.822c0,1.175,0.949,2.129,2.129,2.129
		H97.85c1.174,0,2.123-0.954,2.123-2.129V95.546C99.973,94.372,99.023,93.417,97.852,93.417z M39.827,65.939
		c0-8.674,7.051-15.727,15.727-15.727H71.82c8.672,0,15.729,7.051,15.729,15.727v27.478H39.827V65.939z M95.715,109.239H31.661
		V97.675h6.037h51.98h6.037V109.239z"/>
</g>
<g id="Calque_2">
	
		<line fill="none" stroke="#FF0000" stroke-width="5" stroke-linecap="round" stroke-linejoin="round" stroke-miterlimit="10" x1="64" y1="9.911" x2="64" y2="33.621"/>
	
		<line fill="none" stroke="#FF0000" stroke-width="5" stroke-linecap="round" stroke-linejoin="round" stroke-miterlimit="10" x1="123.738" y1="71.872" x2="100.027" y2="71.872"/>
	
		<line fill="none" stroke="#FF0000" stroke-width="5" stroke-linecap="round" stroke-linejoin="round" stroke-miterlimit="10" x1="27.796" y1="71.872" x2="4.086" y2="71.872"/>
	
		<line fill="none" stroke="#FF0000" stroke-width="5" stroke-linecap="round" stroke-linejoin="round" stroke-miterlimit="10" x1="107.805" y1="28.082" x2="91.038" y2="44.848"/>
	
		<line fill="none" stroke="#FF0000" stroke-width="5" stroke-linecap="round" stroke-linejoin="round" stroke-miterlimit="10" x1="20.257" y1="28.082" x2="37.022" y2="44.848"/>
</g>
<path fill="none" stroke="#FF0000" stroke-width="2" d="M61.568,76.639l-2.725-7.866c-0.151-0.434-0.531-0.729-0.977-0.757
	c-0.443-0.026-0.864,0.222-1.069,0.635l-2.85,5.727l-0.61,1.224l-1.054-0.815c-3.15-2.436-4.032-5.696-2.415-8.945
	c1.027-2.065,2.604-3.267,4.271-3.911c-2.895-0.332-6.926,0.08-9.245,4.228c-0.141,0.25-0.272,0.499-0.395,0.747
	c-3.505,7.041,0.792,12.357,4.511,15.308l0.744,0.591l-0.436,0.871l-2.598,5.219c-0.204,0.412-0.156,0.911,0.121,1.271
	c0.281,0.356,0.734,0.508,1.165,0.383l7.76-2.252l7.762-2.257c0.3-0.09,0.556-0.306,0.7-0.595c0.144-0.291,0.165-0.633,0.061-0.938
	L61.568,76.639z"/>
<path fill="none" stroke="#FF0000" stroke-width="2" d="M77.365,64.394l-0.746-0.589l0.435-0.872l2.599-5.218
	c0.204-0.412,0.154-0.913-0.121-1.273c-0.28-0.355-0.734-0.506-1.165-0.383l-7.761,2.253l-7.762,2.257
	c-0.297,0.091-0.555,0.307-0.698,0.595c-0.145,0.29-0.165,0.632-0.062,0.938l2.723,7.865l2.726,7.866
	c0.151,0.434,0.53,0.729,0.976,0.758c0.443,0.025,0.865-0.222,1.069-0.635l2.851-5.728l0.61-1.224l1.052,0.816
	c3.152,2.435,4.033,5.697,2.416,8.944c-1.027,2.065-2.604,3.267-4.271,3.91c2.893,0.333,6.926-0.079,9.246-4.227
	c0.141-0.25,0.271-0.5,0.393-0.747C85.379,72.661,81.082,67.345,77.365,64.394z"/>
</svg>
