<?xml version="1.0" encoding="UTF-8" standalone="no"?>
<svg
   xmlns:dc="http://purl.org/dc/elements/1.1/"
   xmlns:cc="http://creativecommons.org/ns#"
   xmlns:rdf="http://www.w3.org/1999/02/22-rdf-syntax-ns#"
   xmlns:svg="http://www.w3.org/2000/svg"
   xmlns="http://www.w3.org/2000/svg"
   xmlns:sodipodi="http://sodipodi.sourceforge.net/DTD/sodipodi-0.dtd"
   xmlns:inkscape="http://www.inkscape.org/namespaces/inkscape"
   inkscape:version="1.0 (4035a4fb49, 2020-05-01)"
   sodipodi:docname="iconTicketDashboard.svg"
   xml:space="preserve"
   viewBox="0 0 256 256"
   version="1.1"
   style="enable-background:new 0 0 256 256;"
   id="Layer_1"><metadata
     id="metadata17"><rdf:RDF><cc:Work
         rdf:about=""><dc:format>image/svg+xml</dc:format><dc:type
           rdf:resource="http://purl.org/dc/dcmitype/StillImage" /></cc:Work></rdf:RDF></metadata><defs
     id="defs15" /><sodipodi:namedview
     inkscape:current-layer="Layer_1"
     inkscape:window-maximized="1"
     inkscape:window-y="-8"
     inkscape:window-x="-8"
     inkscape:cy="128"
     inkscape:cx="128"
     inkscape:zoom="2.8710938"
     showgrid="false"
     id="namedview13"
     inkscape:window-height="1017"
     inkscape:window-width="1920"
     inkscape:pageshadow="2"
     inkscape:pageopacity="0"
     guidetolerance="10"
     gridtolerance="10"
     objecttolerance="10"
     borderopacity="1"
     bordercolor="#666666"
     pagecolor="#ffffff" /><path
     id="path842"
     d="m 62.910342,241.99492 c -1.539284,-0.75831 -2.477481,-2.34523 -2.479107,-4.19331 -6.97e-4,-0.96161 3.419682,-12.48927 9.765445,-32.91089 5.371713,-17.28698 9.855642,-31.78506 9.96429,-32.21794 l 0.197541,-0.78707 H 53.484408 c -29.591442,0 -28.056518,0.11229 -29.68552,-2.17161 l -0.811133,-1.13723 -0.0903,-72.881632 -0.0903,-72.881633 h -8.199102 c -9.0840723,0 -9.7028656,-0.123802 -10.9650049,-2.19378 C 2.2763874,18.378437 3.1205138,15.110037 5.3659402,13.948882 6.3017622,13.46495 18.911186,13.409658 128.06978,13.410826 c 119.97522,0.0013 121.67625,0.0107 122.77388,0.67997 1.59682,0.973641 2.30935,2.24037 2.28189,4.05672 -0.0275,1.816728 -0.72562,3.035899 -2.28189,3.984817 -1.02058,0.622289 -1.80025,0.678777 -9.38516,0.67997 l -8.27211,0.0013 -6.9e-4,72.533334 c -3.5e-4,68.359813 -0.0356,72.603083 -0.60953,73.745443 -0.33494,0.66665 -1.14155,1.56788 -1.79246,2.00272 l -1.18333,0.79061 h -26.97895 c -21.43434,0 -26.94682,0.0895 -26.82262,0.43538 0.086,0.23945 4.66431,14.97885 10.17407,32.75422 8.1135,26.17548 9.97512,32.54593 9.7936,33.51355 -0.51586,2.74976 -3.40676,4.50663 -6.09183,3.70216 -1.99365,-0.59731 -3.00546,-2.04864 -4.23844,-6.07954 -0.59682,-1.95114 -5.342,-17.18345 -10.54486,-33.84958 l -9.45974,-30.30204 -37.33685,-0.0886 -37.336853,-0.0886 -1.568444,4.96483 c -0.862643,2.73066 -5.645524,18.0385 -10.628622,34.01743 -6.577727,21.09229 -9.276949,29.28794 -9.851326,29.91155 -0.908828,0.98673 -2.669818,1.81771 -3.827579,1.80616 -0.437175,-0.004 -1.324391,-0.2688 -1.971594,-0.58763 z M 223.43401,92.821142 V 23.16065 l -95.34694,0.0877 -95.346934,0.0877 -0.08933,69.137415 c -0.04913,38.025585 -0.01487,69.333335 0.07614,69.572795 0.131823,0.34683 19.540087,0.43537 95.436274,0.43537 h 95.27079 z"
     style="opacity:1;fill:#ff0000;stroke:#ff0000;stroke-width:2.46826" /><path
     inkscape:connector-curvature="0"
     id="path4157"
     d="m 47.487381,125.78582 v -13.53138 h 3.46557 c 10.618429,0 18.501263,-11.21988 15.453567,-21.995497 C 64.385085,83.111997 57.864713,77.926924 50.856605,77.893516 l -3.369224,-0.01593 V 61.785915 45.694556 h 80.860869 80.86089 v 16.091359 16.091363 h -2.22292 c -5.90579,0 -12.45652,4.328672 -14.88121,9.833421 -1.61943,3.67663 -1.73336,10.447026 -0.23778,14.144251 2.37319,5.86732 8.56211,10.35253 14.32748,10.38325 l 3.01454,0.016 v 13.53137 13.53137 h -80.861 -80.860869 v -13.53137 z m 107.105199,6.21711 c 0,-1.95048 0.23693,-2.19427 2.12791,-2.19427 1.89149,0 2.1279,0.24377 2.1279,2.19427 v 2.19427 h 23.05247 23.05248 v -8.43435 c 0,-6.12004 -0.24328,-8.50627 -0.88666,-8.69649 -7.7852,-2.30177 -12.87519,-6.26906 -15.98937,-12.46253 -1.54633,-3.07519 -1.85368,-4.656776 -1.85368,-9.537891 0,-4.904454 0.3049,-6.457836 1.88355,-9.598744 3.01899,-6.00636 8.35606,-10.153615 15.9595,-12.401669 0.65873,-0.194812 0.88666,-3.088434 0.88666,-11.25648 V 50.814712 h -23.05248 -23.05247 v 2.55999 c 0,2.356813 -0.1686,2.559992 -2.1279,2.559992 -1.95901,0 -2.12791,-0.203192 -2.12791,-2.559992 v -2.55999 H 103.52255 52.452521 v 11.337094 c 0,11.267243 0.0069,11.337136 1.595948,11.34424 2.778506,0.01247 8.728044,3.367807 11.780989,6.644077 8.571587,9.19864 7.410305,24.495007 -2.452735,32.308317 -1.912057,1.51468 -4.753224,3.11568 -6.313703,3.5578 -1.560482,0.44209 -3.236226,0.92046 -3.723865,1.06304 -0.643488,0.18813 -0.886634,2.57196 -0.886634,8.69357 v 8.43435 h 51.070029 51.07003 z"
     style="opacity:1;fill:#ff0000;fill-opacity:1;stroke:none;stroke-width:6.16426;stroke-miterlimit:4;stroke-dasharray:none;stroke-opacity:1" /><path
     inkscape:connector-curvature="0"
     id="path4159"
     d="m 154.59258,118.10585 c 0,-3.98221 0.0203,-4.02285 2.12791,-4.02285 2.10644,0 2.1279,0.0408 2.1279,4.02285 0,3.98219 -0.0203,4.02283 -2.1279,4.02283 -2.10644,0 -2.12791,-0.0408 -2.12791,-4.02283 z"
     style="opacity:1;fill:#ff0000;fill-opacity:1;stroke:none;stroke-width:6.16426;stroke-miterlimit:4;stroke-dasharray:none;stroke-opacity:1" /><path
     inkscape:connector-curvature="0"
     id="path4163"
     d="m 154.59258,102.01448 c 0,-3.982204 0.0203,-4.022835 2.12791,-4.022835 2.10644,0 2.1279,0.04066 2.1279,4.022835 0,3.98221 -0.0203,4.02285 -2.1279,4.02285 -2.10644,0 -2.12791,-0.0406 -2.12791,-4.02285 z"
     style="opacity:1;fill:#ff0000;fill-opacity:1;stroke:none;stroke-width:6.16426;stroke-miterlimit:4;stroke-dasharray:none;stroke-opacity:1" /><path
     inkscape:connector-curvature="0"
     id="path4167"
     d="m 154.59258,69.466055 c 0,-3.575851 0.047,-3.657124 2.12791,-3.657124 2.08066,0 2.1279,0.08128 2.1279,3.657124 0,3.575857 -0.0471,3.657135 -2.1279,3.657135 -2.08063,0 -2.12791,-0.08128 -2.12791,-3.657135 z"
     style="opacity:1;fill:#ff0000;fill-opacity:1;stroke:none;stroke-width:6.16426;stroke-miterlimit:4;stroke-dasharray:none;stroke-opacity:1" /><path
     inkscape:connector-curvature="0"
     id="path4169"
     d="m 154.59258,85.557418 c 0,-3.575858 0.047,-3.657131 2.12791,-3.657131 2.08066,0 2.1279,0.08128 2.1279,3.657131 0,3.575861 -0.0471,3.657127 -2.1279,3.657127 -2.08063,0 -2.12791,-0.08128 -2.12791,-3.657127 z"
     style="opacity:1;fill:#ff0000;fill-opacity:1;stroke:none;stroke-width:6.16426;stroke-miterlimit:4;stroke-dasharray:none;stroke-opacity:1" /></svg>
