<?xml version="1.0" encoding="utf-8"?>
<!-- Generator: Adobe Illustrator 16.0.0, SVG Export Plug-In . SVG Version: 6.00 Build 0)  -->
<!DOCTYPE svg PUBLIC "-//W3C//DTD SVG 1.1//EN" "http://www.w3.org/Graphics/SVG/1.1/DTD/svg11.dtd">
<svg version="1.1" id="Calque_1" xmlns="http://www.w3.org/2000/svg" xmlns:xlink="http://www.w3.org/1999/xlink" x="0px" y="0px"
	 width="128px" height="128px" viewBox="0 0 128 128" enable-background="new 0 0 128 128" xml:space="preserve">
<g id="Layer_1" xmlns:svg="http://www.w3.org/2000/svg" xmlns:sodipodi="http://sodipodi.sourceforge.net/DTD/sodipodi-0.dtd" xmlns:rdf="http://www.w3.org/1999/02/22-rdf-syntax-ns#" xmlns:cc="http://creativecommons.org/ns#" xmlns:dc="http://purl.org/dc/elements/1.1/" xmlns:inkscape="http://www.inkscape.org/namespaces/inkscape" inkscape:version="1.0 (4035a4fb49, 2020-05-01)" sodipodi:docname="iconTicketDashboard.svg">
	
		<sodipodi:namedview  id="namedview13" bordercolor="#666666" inkscape:cy="128" objecttolerance="10" inkscape:zoom="2.8710938" gridtolerance="10" showgrid="false" borderopacity="1" pagecolor="#ffffff" inkscape:cx="128" guidetolerance="10" inkscape:current-layer="Layer_1" inkscape:window-maximized="1" inkscape:window-x="-8" inkscape:window-y="-8" inkscape:pageshadow="2" inkscape:pageopacity="0" inkscape:window-height="1017" inkscape:window-width="1920">
		</sodipodi:namedview>
</g>
<rect x="43.446" y="10.69" transform="matrix(0.9279 -0.3727 0.3727 0.9279 -5.5541 23.9187)" fill="none" stroke="#FF0000" stroke-width="5" stroke-linecap="round" stroke-linejoin="round" stroke-miterlimit="10" width="31.266" height="31.266"/>
<rect x="60.138" y="44.074" transform="matrix(0.9279 -0.3728 0.3728 0.9279 -18.5511 35.7186)" fill="none" stroke="#FF0000" stroke-width="5" stroke-linecap="round" stroke-linejoin="round" stroke-miterlimit="10" width="45.885" height="43.503"/>
<line fill="none" stroke="#FF0000" stroke-width="5" stroke-linecap="round" stroke-linejoin="round" stroke-miterlimit="10" x1="83.215" y1="108.46" x2="125.353" y2="91.708"/>
<polyline fill="none" stroke="#FF0000" stroke-width="5" stroke-linecap="round" stroke-linejoin="round" stroke-miterlimit="10" points="
	2.647,4.75 27.132,15.77 60.558,96.669 "/>
<path fill="none" stroke="#FF0000" stroke-width="5" stroke-miterlimit="10" d="M76.111,112.949c0,5.716-4.635,10.344-10.344,10.344
	c-5.713,0-10.344-4.628-10.344-10.344c0-5.709,4.631-10.341,10.344-10.341C71.477,102.608,76.111,107.24,76.111,112.949z"/>
<polygon fill="#FF0000" points="50.123,32.142 56.719,29.681 58.643,34.838 68.46,22.947 53.252,20.386 55.176,25.542 48.581,28 "/>
</svg>
