<?xml version="1.0" encoding="utf-8"?>
<!-- Generator: Adobe Illustrator 16.0.0, SVG Export Plug-In . SVG Version: 6.00 Build 0)  -->
<!DOCTYPE svg PUBLIC "-//W3C//DTD SVG 1.1//EN" "http://www.w3.org/Graphics/SVG/1.1/DTD/svg11.dtd">
<svg version="1.1" id="Calque_2" xmlns="http://www.w3.org/2000/svg" xmlns:xlink="http://www.w3.org/1999/xlink" x="0px" y="0px"
	 width="128px" height="128px" viewBox="0 0 128 128" enable-background="new 0 0 128 128" xml:space="preserve">
<line fill="none" stroke="#FF0000" stroke-width="5" stroke-miterlimit="10" x1="59.833" y1="41.134" x2="65.499" y2="41.134"/>
<line fill="none" stroke="#FF0000" stroke-width="5" stroke-miterlimit="10" x1="59.833" y1="53.655" x2="87.195" y2="53.655"/>
<line fill="none" stroke="#FF0000" stroke-width="5" stroke-miterlimit="10" x1="50.092" y1="70.614" x2="110.537" y2="70.614"/>
<line fill="none" stroke="#FF0000" stroke-width="5" stroke-miterlimit="10" x1="50.092" y1="82.661" x2="110.537" y2="82.661"/>
<line fill="none" stroke="#FF0000" stroke-width="5" stroke-miterlimit="10" x1="50.092" y1="95.621" x2="110.537" y2="95.621"/>
<line fill="none" stroke="#FF0000" stroke-width="5" stroke-miterlimit="10" x1="50.092" y1="109.197" x2="110.537" y2="109.197"/>
<g>
	<path fill="none" stroke="#FF0000" stroke-width="5" stroke-miterlimit="10" d="M42.966,64v57.226c0,2.382,1.931,4.312,4.312,4.312
		h66.811c2.382,0,4.312-1.93,4.312-4.312v-79.93h-17.546c-2.381,0-4.312-1.93-4.312-4.312V20.372H62.666"/>
</g>
<line fill="none" stroke="#FF0000" stroke-width="5" stroke-linecap="round" stroke-linejoin="round" stroke-miterlimit="10" x1="97.986" y1="20.372" x2="118.4" y2="40.195"/>
<g id="Calque_3">
	<g>
		<path fill="none" stroke="#FF0000" stroke-width="5" stroke-linecap="round" stroke-linejoin="round" stroke-miterlimit="10" d="
			M56.654,55.605c0,0.578-0.469,1.049-1.049,1.049H5.548c-0.579,0-1.048-0.471-1.048-1.049V5.548C4.5,4.969,4.969,4.5,5.548,4.5
			h50.058c0.58,0,1.049,0.469,1.049,1.048V55.605L56.654,55.605z"/>
		<circle fill="#FF0000" cx="16.424" cy="17.481" r="3.704"/>
		<line fill="none" stroke="#FF0000" stroke-width="4" stroke-miterlimit="10" x1="24.219" y1="17.481" x2="46.23" y2="17.481"/>
		<circle fill="#FF0000" cx="16.424" cy="30.577" r="3.704"/>
		<line fill="none" stroke="#FF0000" stroke-width="4" stroke-miterlimit="10" x1="24.219" y1="30.578" x2="46.23" y2="30.578"/>
		<circle fill="#FF0000" cx="16.424" cy="43.673" r="3.704"/>
		<line fill="none" stroke="#FF0000" stroke-width="4" stroke-miterlimit="10" x1="24.219" y1="43.672" x2="46.23" y2="43.672"/>
	</g>
</g>
</svg>
