<?xml version="1.0" encoding="utf-8"?>
<!-- Generator: Adobe Illustrator 16.0.0, SVG Export Plug-In . SVG Version: 6.00 Build 0)  -->
<!DOCTYPE svg PUBLIC "-//W3C//DTD SVG 1.1//EN" "http://www.w3.org/Graphics/SVG/1.1/DTD/svg11.dtd">
<svg version="1.1" id="Calque_2" xmlns="http://www.w3.org/2000/svg" xmlns:xlink="http://www.w3.org/1999/xlink" x="0px" y="0px"
	 width="128px" height="128px" viewBox="0 0 128 128" enable-background="new 0 0 128 128" xml:space="preserve">
<g>
	<path fill="none" d="M65.085,64.747c9.406,0,15.547-12.935,16.563-26.153h-30.49c-0.851,0.106-1.718,0.198-2.616,0.25
		C49.617,51.975,55.738,64.747,65.085,64.747z"/>
	<path fill="none" d="M92.959,75.411l-9.646-3.521l-15.433,8.746l-5.938-0.091l-15.506-8.65l-9.566,3.517
		c-1.507,0.726-19.394,9.841-18.328,33.114c0.541,0.854,3.165,4.105,11.531,4.173c-0.264-4.405-0.719-14.237-0.156-22.852
		l4.739,0.309c-0.606,9.288,0.032,20.393,0.246,23.605c5.498,4.867,17.007,7.822,30.305,7.707
		c12.979-0.095,24.489-3.097,29.763-7.705c0.195-3.278,0.782-14.627,0.146-23.754l4.74-0.331c0.593,8.51,0.177,18.561-0.065,23.021
		c8.268-0.072,10.908-3.267,11.493-4.19C112.336,85.28,94.51,76.16,92.959,75.411z"/>
	<path fill="#FF0000" d="M35.814,38.594h6.227c0,0.002,0,0.004,0,0.006c-1.305,2.819-1.772,7.667,4.469,13.882
		c3.377,9.688,9.662,17.016,18.575,17.016c8.739,0,15.188-7.482,18.631-17.413c5.837-6.035,5.342-10.733,4.063-13.491h6.233
		c1.215,0,2.199-0.984,2.199-2.199c0-1.214-0.984-2.199-2.199-2.199h-2.942c0.016-0.334,0.024-0.671,0.024-1.009
		c0-10.568-6.177-19.661-15.054-23.763c0.027,1.039,0.032,2.212,0.032,3.533v3.8c0,10.968-0.595,11.62-10.622,11.62
		c-10.028,0-10.623-0.652-10.623-11.62v-3.8c0-1.326,0.009-2.498,0.042-3.54c-8.881,4.101-15.063,13.198-15.063,23.77
		c0,0.341,0.03,0.673,0.046,1.009h-4.039c-1.214,0-2.199,0.985-2.199,2.199C33.615,37.609,34.6,38.594,35.814,38.594z
		 M51.157,38.594h30.49c-1.016,13.218-7.156,26.153-16.563,26.153c-9.347,0-15.468-12.772-16.543-25.903
		C49.439,38.792,50.306,38.7,51.157,38.594z"/>
	<path fill="#FF0000" d="M94.869,71.062l-14.21-5.197L67.985,73.28h-6.222l-12.676-7.422l-13.957,5.131l-0.173,0.072
		c-0.229,0.104-22.684,10.775-21.134,38.211l0.021,0.353l0.12,0.331c0.119,0.321,2.909,7.502,16.378,7.502
		c0.5,0,1.019-0.015,1.55-0.035c6.384,5.541,18.402,8.797,32.666,8.797c0.227,0,0.455-0.002,0.682-0.003
		c11.191-0.079,25.396-2.454,32.748-8.793c14.753,0.546,17.747-7.134,17.87-7.469l0.122-0.33l0.02-0.353
		C117.55,81.837,95.096,71.166,94.869,71.062z M111.283,108.508c-0.585,0.924-3.226,4.118-11.493,4.19
		c0.242-4.46,0.658-14.511,0.065-23.021l-4.74,0.331c0.637,9.127,0.05,20.476-0.146,23.754c-5.273,4.608-16.784,7.61-29.763,7.705
		c-13.298,0.115-24.808-2.84-30.305-7.707c-0.213-3.213-0.852-14.317-0.246-23.605l-4.739-0.309
		c-0.563,8.614-0.108,18.446,0.156,22.852c-8.366-0.067-10.99-3.319-11.531-4.173c-1.065-23.273,16.821-32.389,18.328-33.114
		l9.566-3.517l15.506,8.65l5.938,0.091l15.433-8.746l9.646,3.521C94.51,76.16,112.336,85.28,111.283,108.508z"/>
	<path fill="#FF0000" d="M73.372,8.367c-0.083-1.763-0.28-2.937-0.768-3.485c-0.77-0.865-3.1-0.907-7.154-0.907
		c-3.994,0-6.394,0-7.163,0.853c-0.487,0.541-0.682,1.733-0.763,3.539c2.496-0.824,5.156-1.275,7.922-1.275
		C68.214,7.091,70.876,7.542,73.372,8.367z"/>
	<path fill="#FF0000" d="M57.466,16.756c0,4.501,0,7.218,0.823,8.129c0.77,0.852,3.175,0.852,7.161,0.852s6.391,0,7.16-0.852
		c0.823-0.911,0.823-3.627,0.823-8.129v-3.8c0-1.835-0.003-3.353-0.062-4.589c-2.496-0.824-5.158-1.275-7.926-1.275
		c-2.766,0-5.426,0.451-7.922,1.275c-0.055,1.239-0.059,2.759-0.059,4.589V16.756z"/>
</g>
</svg>
