<?xml version="1.0" encoding="utf-8"?>
<!-- Generator: Adobe Illustrator 16.0.0, SVG Export Plug-In . SVG Version: 6.00 Build 0)  -->
<!DOCTYPE svg PUBLIC "-//W3C//DTD SVG 1.1//EN" "http://www.w3.org/Graphics/SVG/1.1/DTD/svg11.dtd">
<svg version="1.1" id="Calque_1" xmlns="http://www.w3.org/2000/svg" xmlns:xlink="http://www.w3.org/1999/xlink" x="0px" y="0px"
	 width="128px" height="128px" viewBox="0 0 128 128" enable-background="new 0 0 128 128" xml:space="preserve">
<g id="Layer_1" xmlns:svg="http://www.w3.org/2000/svg" xmlns:sodipodi="http://sodipodi.sourceforge.net/DTD/sodipodi-0.dtd" xmlns:rdf="http://www.w3.org/1999/02/22-rdf-syntax-ns#" xmlns:cc="http://creativecommons.org/ns#" xmlns:dc="http://purl.org/dc/elements/1.1/" xmlns:inkscape="http://www.inkscape.org/namespaces/inkscape" sodipodi:docname="iconTicketDashboard.svg" inkscape:version="1.0 (4035a4fb49, 2020-05-01)">
	
		<sodipodi:namedview  guidetolerance="10" inkscape:cx="128" pagecolor="#ffffff" borderopacity="1" showgrid="false" gridtolerance="10" inkscape:zoom="2.8710938" objecttolerance="10" inkscape:cy="128" bordercolor="#666666" id="namedview13" inkscape:window-width="1920" inkscape:window-y="-8" inkscape:window-x="-8" inkscape:window-maximized="1" inkscape:current-layer="Layer_1" inkscape:window-height="1017" inkscape:pageopacity="0" inkscape:pageshadow="2">
		</sodipodi:namedview>
</g>
<circle fill="none" stroke="#FF0000" stroke-width="5" stroke-linecap="round" stroke-linejoin="round" stroke-miterlimit="10" cx="39.343" cy="91.455" r="8.701"/>
<circle fill="none" stroke="#FF0000" stroke-width="5" stroke-linecap="round" stroke-linejoin="round" stroke-miterlimit="10" cx="107.59" cy="91.455" r="8.7"/>
<path fill="none" stroke="#FF0000" stroke-width="5" stroke-linecap="round" stroke-linejoin="round" stroke-miterlimit="10" d="
	M89.91,41.164h12.449c11.613,0,21.045,9.41,21.045,21.044v29.251h-7.106"/>
<polyline fill="none" stroke="#FF0000" stroke-width="5" stroke-linecap="round" stroke-linejoin="round" stroke-miterlimit="10" points="
	30.636,91.459 15,91.459 15,75.5 "/>
<polyline fill="none" stroke="#FF0000" stroke-width="5" stroke-linecap="round" stroke-linejoin="round" stroke-miterlimit="10" points="
	48.053,91.459 84.398,91.459 98.88,91.459 "/>
<polyline fill="none" stroke="#FF0000" stroke-width="5" stroke-linecap="round" stroke-linejoin="round" stroke-miterlimit="10" points="
	103.895,41.216 103.895,64.781 123.398,64.781 "/>
<path fill="#FF0000" stroke="#FF0000" stroke-width="2" stroke-miterlimit="10" d="M61.131,33.518c-1.719,0-3.325,0.477-4.707,1.292
	L43.819,19.72c1.613-1.668,2.611-3.934,2.611-6.443C46.43,8.15,42.274,4,37.15,4c-5.124,0-9.277,4.15-9.28,9.277h0.003
	c0,2.503,0.989,4.765,2.596,6.434L17.867,34.803c-1.378-0.813-2.979-1.286-4.697-1.286c-5.127,0-9.283,4.153-9.283,9.28
	c0,5.125,4.156,9.279,9.283,9.279c5.126,0,9.28-4.152,9.28-9.279c0-2.5-0.995-4.77-2.602-6.438l12.599-15.093
	c1.038,0.612,2.203,1.026,3.449,1.193v11.149c-4.53,0.615-8.022,4.487-8.025,9.188h0.003c0,5.125,4.153,9.279,9.277,9.279
	c5.126,0,9.28-4.152,9.28-9.279c0-4.697-3.492-8.569-8.022-9.188V22.461c1.24-0.167,2.401-0.581,3.433-1.187L54.45,36.367
	c-1.606,1.669-2.602,3.931-2.602,6.435c0,5.123,4.159,9.277,9.283,9.277c5.125,0,9.279-4.154,9.279-9.277
	C70.41,37.67,66.254,33.518,61.131,33.518z M30.386,13.277c0.006-3.739,3.032-6.759,6.765-6.765
	c3.736,0.006,6.755,3.025,6.765,6.765c-0.01,3.736-3.032,6.761-6.765,6.764c-3.733-0.003-6.758-3.028-6.768-6.764H30.386z
	 M13.17,49.562c-3.736-0.006-6.755-3.028-6.768-6.765c0.013-3.735,3.032-6.758,6.768-6.768c3.739,0.01,6.761,3.031,6.768,6.768
	C19.931,46.534,16.909,49.556,13.17,49.562z M43.915,42.797c-0.008,3.736-3.031,6.759-6.764,6.765
	c-3.733-0.006-6.758-3.028-6.768-6.765h0.003c0.006-3.735,3.032-6.762,6.765-6.771C40.883,36.036,43.907,39.062,43.915,42.797z
	 M61.131,49.562c-3.736-0.006-6.762-3.028-6.768-6.761c0.006-3.739,3.03-6.766,6.768-6.769c3.736,0.003,6.753,3.028,6.767,6.769
	C67.885,46.534,64.867,49.556,61.131,49.562z"/>
<polyline fill="none" stroke="#FF0000" stroke-width="5" stroke-linecap="round" stroke-linejoin="round" stroke-miterlimit="10" points="
	10.5,60.5 10.5,69.904 89.917,69.904 89.917,32.844 77,32.844 "/>
</svg>
