<?xml version="1.0" encoding="UTF-8" standalone="no"?>
<!DOCTYPE svg PUBLIC "-//W3C//DTD SVG 1.1//EN" "http://www.w3.org/Graphics/SVG/1.1/DTD/svg11.dtd">
<svg width="100%" height="100%" viewBox="0 0 40 16" version="1.1" xmlns="http://www.w3.org/2000/svg" xmlns:xlink="http://www.w3.org/1999/xlink" xml:space="preserve" xmlns:serif="http://www.serif.com/" style="fill-rule:evenodd;clip-rule:evenodd;stroke-linecap:round;stroke-linejoin:round;stroke-miterlimit:10;">
    <g>
        <path d="M28.187,0.449L15.474,0.449C14.876,0.449 14.392,0.933 14.392,1.531L14.392,3.465L21.573,3.465C22.171,3.465 22.655,3.949 22.655,4.547L22.655,12.487L28.187,12.487C28.785,12.487 29.269,12.003 29.269,11.405L29.269,1.53C29.269,0.933 28.784,0.449 28.187,0.449Z" style="fill:none;fill-rule:nonzero;stroke:rgb(255,0,0);stroke-width:1px;"/>
        <path d="M17.392,3.464L8.859,3.464C8.261,3.464 7.777,3.948 7.777,4.546L7.777,14.419C7.777,15.017 8.261,15.501 8.859,15.501L21.572,15.501C22.17,15.501 22.654,15.017 22.654,14.419L22.654,12.486" style="fill:none;fill-rule:nonzero;stroke:rgb(255,0,0);stroke-width:1px;"/>
        <path d="M22.654,12.486L22.654,4.546C22.654,3.949 22.17,3.464 21.572,3.464L17.391,3.464" style="fill:none;fill-rule:nonzero;stroke:rgb(255,0,0);stroke-width:1px;"/>
    </g>
    <g>
        <path d="M15.236,6.301L15.236,12.664" style="fill:none;fill-rule:nonzero;stroke:rgb(255,0,0);stroke-width:1px;"/>
        <path d="M11.976,9.482L18.456,9.482" style="fill:none;fill-rule:nonzero;stroke:rgb(255,0,0);stroke-width:1px;"/>
    </g>
</svg>
