<?xml version="1.0" encoding="utf-8"?>
<!-- Generator: Adobe Illustrator 16.0.0, SVG Export Plug-In . SVG Version: 6.00 Build 0)  -->
<!DOCTYPE svg PUBLIC "-//W3C//DTD SVG 1.1//EN" "http://www.w3.org/Graphics/SVG/1.1/DTD/svg11.dtd">
<svg version="1.1" id="Calque_1" xmlns="http://www.w3.org/2000/svg" xmlns:xlink="http://www.w3.org/1999/xlink" x="0px" y="0px"
	 width="128px" height="128px" viewBox="0 0 128 128" enable-background="new 0 0 128 128" xml:space="preserve">
<path fill="#FF0000" stroke="#FF0000" stroke-width="5" stroke-linecap="round" stroke-linejoin="round" stroke-miterlimit="10" d="
	M115.353,81.729c-1.882,0-4.351,0.98-6.688,2.259v-19.54c0-1.198-0.973-2.17-2.17-2.17h-17.36c1.298,2.359,2.3,4.859,2.3,6.761
	c0,4.95-3.014,8.963-7.963,8.963c-4.951,0-7.964-4.013-7.964-8.963c0-1.901,0.911-4.401,2.132-6.761H60.447
	c-1.198,0-2.17,0.972-2.17,2.17v20.436c2.745-1.687,5.921-3.154,8.223-3.154c4.951,0,8.963,3.014,8.963,7.962
	c0,4.951-4.012,7.965-8.963,7.965c-2.302,0-5.479-1.335-8.223-2.941v15.78c0,1.199,0.972,2.17,2.17,2.17h46.047
	c1.197,0,2.17-0.971,2.17-2.17V95.563c2.338,1.202,4.807,2.093,6.688,2.093c4.951,0,8.963-3.014,8.963-7.965
	C124.315,84.742,120.304,81.729,115.353,81.729z"/>
<path fill="none" stroke="#FF0000" stroke-width="5" stroke-linecap="round" stroke-linejoin="round" stroke-miterlimit="10" d="
	M106.494,11.89H60.447c-1.198,0-2.17,0.972-2.17,2.17v17.662c-2.602-1.451-5.499-2.602-7.638-2.602
	c-4.951,0-8.963,3.014-8.963,7.965c0,4.948,4.012,7.962,8.963,7.962c2.139,0,5.036-1.266,7.638-2.798v17.858
	c0,1.199,0.972,2.17,2.17,2.17h17.192c-1.221,2.36-2.132,4.859-2.132,6.76c0,4.951,3.013,8.963,7.964,8.963
	c4.949,0,7.963-4.012,7.963-8.963c0-1.901-1.002-4.4-2.3-6.76h17.36c1.197,0,2.17-0.971,2.17-2.17V14.06
	C108.664,12.862,107.691,11.89,106.494,11.89z"/>
<path fill="none" stroke="#FF0000" stroke-width="5" stroke-linecap="round" stroke-linejoin="round" stroke-miterlimit="10" d="
	M66.5,81.728c-2.302,0-5.479,1.468-8.223,3.154V64.447c0-1.198-0.972-2.17-2.17-2.17H39.779c1.618-2.755,2.967-5.953,2.967-8.268
	c0-4.951-3.014-8.963-7.965-8.963c-4.948,0-7.962,4.012-7.962,8.963c0,2.315,1.483,5.513,3.182,8.268H10.06
	c-1.198,0-2.17,0.972-2.17,2.17v46.047c0,1.199,0.972,2.17,2.17,2.17h46.047c1.198,0,2.17-0.971,2.17-2.17V94.713
	c2.745,1.606,5.921,2.941,8.223,2.941c4.951,0,8.963-3.014,8.963-7.965C75.463,84.741,71.451,81.728,66.5,81.728z"/>
<path fill="#FF0000" stroke="#FF0000" stroke-width="5" stroke-linecap="round" stroke-linejoin="round" stroke-miterlimit="10" d="
	M50.639,29.12c2.139,0,5.036,1.15,7.638,2.602V14.06c0-1.198-0.972-2.17-2.17-2.17H10.06c-1.198,0-2.17,0.972-2.17,2.17v46.047
	c0,1.199,0.972,2.17,2.17,2.17h19.888c-1.698-2.755-3.181-5.952-3.181-8.267c0-4.951,3.014-8.963,7.962-8.963
	c4.951,0,7.965,4.012,7.965,8.963c0,2.315-1.349,5.512-2.967,8.267h16.381c1.198,0,2.17-0.971,2.17-2.17V42.249
	c-2.602,1.532-5.499,2.798-7.638,2.798c-4.951,0-8.963-3.014-8.963-7.962C41.676,32.134,45.688,29.12,50.639,29.12z"/>
</svg>
