<?xml version="1.0" encoding="utf-8"?>
<!-- Generator: Adobe Illustrator 16.0.0, SVG Export Plug-In . SVG Version: 6.00 Build 0)  -->
<!DOCTYPE svg PUBLIC "-//W3C//DTD SVG 1.1//EN" "http://www.w3.org/Graphics/SVG/1.1/DTD/svg11.dtd">
<svg version="1.1" xmlns="http://www.w3.org/2000/svg" xmlns:xlink="http://www.w3.org/1999/xlink" x="0px" y="0px" width="128px"
	 height="128px" viewBox="0 0 128 128" enable-background="new 0 0 128 128" xml:space="preserve">
<g id="Calque_2" display="none">
	
		<image display="inline" overflow="visible" width="600" height="620" xlink:href="D288B3AF.jpg"  transform="matrix(0.3654 -0.3654 0.3654 0.3654 -153.2754 60.0884)">
	</image>
</g>
<g id="Livello_1" inkscape:version="1.0 (4035a4fb49, 2020-05-01)" sodipodi:docname="iconHome.svg" xmlns:cc="http://creativecommons.org/ns#" xmlns:dc="http://purl.org/dc/elements/1.1/" xmlns:inkscape="http://www.inkscape.org/namespaces/inkscape" xmlns:rdf="http://www.w3.org/1999/02/22-rdf-syntax-ns#" xmlns:sodipodi="http://sodipodi.sourceforge.net/DTD/sodipodi-0.dtd" xmlns:svg="http://www.w3.org/2000/svg">
	
		<sodipodi:namedview  id="namedview7" inkscape:window-width="1519" inkscape:pageshadow="2" inkscape:window-x="0" inkscape:window-y="0" inkscape:pageopacity="0" inkscape:window-height="845" inkscape:window-maximized="0" inkscape:current-layer="Livello_1" inkscape:zoom="2.8710938" bordercolor="#666666" guidetolerance="10" objecttolerance="10" borderopacity="1" showgrid="false" inkscape:cx="7.8240306" pagecolor="#ffffff" inkscape:cy="41.675131" gridtolerance="10">
		</sodipodi:namedview>
	<title  id="title2"></title>
	<g>
		<g>
			<path fill="none" stroke="#FF0000" stroke-width="3" stroke-linecap="round" stroke-linejoin="round" stroke-miterlimit="10" d="
				M26.609,32.476c5.886-12.973,18.975-22.052,34.083-22.052l0,0c20.568,0,37.397,16.828,37.397,37.395v16.001"/>
			<path fill="none" stroke="#FF0000" stroke-width="3" stroke-linecap="round" stroke-linejoin="round" stroke-miterlimit="10" d="
				M98.09,72.021c-5.405,1.268-7.385-2.049-7.416-7.112c-0.032-5.063-0.438-17.091-0.438-17.091
				c0-16.292-13.251-29.545-29.543-29.545c-13.412,0-24.765,8.982-28.359,21.248c0,0-3.956,6.621-7.332-0.133"/>
			<path fill="none" stroke="#FF0000" stroke-width="3" stroke-linecap="round" stroke-linejoin="round" stroke-miterlimit="10" d="
				M25.001,50.477c9.416,5.515,13.996-7.483,17.285-14.13c3.288-6.646,10.652-10.221,18.406-10.221
				c11.963,0,21.695,9.729,21.695,21.693c0,0-1.22,21.664,6.296,29.901"/>
			<path fill="none" stroke="#FF0000" stroke-width="3" stroke-linecap="round" stroke-linejoin="round" stroke-miterlimit="10" d="
				M25.001,59.782c8.118,1.891,14.372-1.769,17.971-5.813c2.835-3.187,3.461-6.534,3.461-6.534
				c2.581-9.47,6.625-13.461,14.259-13.461c7.634,0,13.844,6.211,13.844,13.844c0,0-0.341,22.39,4.634,27.521"/>
			<path fill="none" stroke="#FF0000" stroke-width="3" stroke-linecap="round" stroke-linejoin="round" stroke-miterlimit="10" d="
				M25.001,69.729c27.084,1.12,29.697-21.91,29.697-21.91c0-3.303,2.689-5.993,5.994-5.993c3.304,0,5.993,2.69,5.993,5.993"/>
			<path fill="none" stroke="#FF0000" stroke-width="3" stroke-linecap="round" stroke-linejoin="round" stroke-miterlimit="10" d="
				M60.692,50.477c0,0,3.016,24.543-35.691,28.393"/>
			<path fill="none" stroke="#FF0000" stroke-width="3" stroke-linecap="round" stroke-linejoin="round" stroke-miterlimit="10" d="
				M69.022,76.201c0,0,4.104,5.001,10.936,8.598"/>
			<path fill="none" stroke="#FF0000" stroke-width="3" stroke-linecap="round" stroke-linejoin="round" stroke-miterlimit="10" d="
				M23.594,87.439c0,0,30.444-2.508,38.755-16.904"/>
			<path fill="none" stroke="#FF0000" stroke-width="3" stroke-linecap="round" stroke-linejoin="round" stroke-miterlimit="10" d="
				M67.753,54.657c0,0-2.634,8.358,1.27,13.377"/>
			<path fill="none" stroke="#FF0000" stroke-width="3" stroke-linecap="round" stroke-linejoin="round" stroke-miterlimit="10" d="
				M25.912,96.458c0,0,25.358-3.063,37.461-14.693"/>
			<path fill="none" stroke="#FF0000" stroke-width="3" stroke-linecap="round" stroke-linejoin="round" stroke-miterlimit="10" d="
				M67.953,86.884c0,0,3.23,3.67,9.183,6.808"/>
			<path fill="none" stroke="#FF0000" stroke-width="3" stroke-linecap="round" stroke-linejoin="round" stroke-miterlimit="10" d="
				M30.18,104.308c0,0,23.923-3.209,31.365-11.552c0,0,4.827,5.252,13.172,9.432"/>
			<path fill="none" stroke="#FF0000" stroke-width="3" stroke-linecap="round" stroke-linejoin="round" stroke-miterlimit="10" d="
				M35.861,111.446c0,0,19.608-3.85,24.886-8.286c0,0,7.423,4.407,13.742,7.355"/>
			<path fill="none" stroke="#FF0000" stroke-width="3" stroke-linecap="round" stroke-linejoin="round" stroke-miterlimit="10" d="
				M45.843,117.072c0,0,11.245-8.083,28.648,0.683"/>
		</g>
		<g>
			<path fill="none" stroke="#FF0000" stroke-width="3" stroke-linecap="round" stroke-linejoin="round" stroke-miterlimit="10" d="
				M107.961,117.127c0,2.679-2.191,4.871-4.868,4.871H79.589c-2.681,0-4.872-2.192-4.872-4.871V97.89
				c0-2.676,2.191-4.868,4.872-4.868h23.504c2.677,0,4.868,2.192,4.868,4.868V117.127z"/>
			<path fill="none" stroke="#FF0000" stroke-width="3" stroke-linecap="round" stroke-linejoin="round" stroke-miterlimit="10" d="
				M79.955,93.021v-3.93c0-6.262,5.121-11.385,11.384-11.385l0,0c6.265,0,11.386,5.123,11.386,11.385v3.93"/>
			<path fill="none" stroke="#FF0000" stroke-width="3" stroke-linecap="round" stroke-linejoin="round" stroke-miterlimit="10" d="
				M95.708,105.485c0-2.413-1.956-4.372-4.369-4.372c-2.411,0-4.369,1.959-4.369,4.372c0,1.725,1.002,3.209,2.453,3.92v2.58
				c0,1.055,0.861,1.918,1.916,1.918s1.92-0.863,1.92-1.918v-2.58C94.71,108.694,95.708,107.21,95.708,105.485z"/>
		</g>
	</g>
	<g>
		<g id="path17_1_">
			<path fill="#FFFFFF" d="M98.675,4.394c0.025,0.02,0.058,0.047,0.085,0.074l0.013,1.603l0.018,2.063l0.011,1.34l1.278,0.401
				l0.647,0.204c0.864,0.271,1.696,0.613,2.548,1.045c0.964,0.488,1.222,0.619,1.709,0.619c0.807,0,0.952-0.146,2.737-1.921
				c0.406-0.404,0.942-0.938,1.202-1.153h0.02h0.003c0.331,0.276,1.059,1.011,2.017,1.978l0.1,0.101
				c1.029,1.039,1.812,1.828,2.103,2.185c-0.224,0.267-0.752,0.797-1.154,1.201l-1.395,1.397l-0.934,0.937l0.59,1.184l0.449,0.903
				c0.455,0.914,0.766,1.679,1.043,2.559l0.204,0.648l0.401,1.279l1.341,0.011l2.062,0.017l1.604,0.014
				c0.027,0.027,0.055,0.06,0.074,0.086v2.929v2.931c-0.02,0.026-0.047,0.058-0.074,0.085l-1.606,0.013l-2.064,0.018l-1.354,0.012
				l-0.393,1.296l-0.146,0.482c-0.271,0.896-0.852,2.26-1.351,3.172l-0.207,0.378l-0.663,1.209l0.974,0.976l1.419,1.424
				c0.564,0.566,0.949,0.974,1.157,1.203c-0.28,0.333-1.051,1.105-2.068,2.123l-0.08,0.08c-0.982,0.984-1.73,1.733-2.075,2.021
				c-0.266-0.224-0.792-0.748-1.192-1.148c-1.819-1.812-1.928-1.92-2.729-1.92c-0.473,0-0.673,0.1-1.788,0.652
				c-0.932,0.463-1.607,0.738-2.494,1.018l-0.631,0.199l-1.276,0.401l-0.011,1.339l-0.018,2.063l-0.013,1.604
				c-0.02,0.02-0.042,0.04-0.063,0.056c-0.341,0.019-1.255,0.021-2.764,0.026l-0.574,0.001c-1.377,0-2.264-0.013-2.556-0.023
				c-0.024-0.012-0.055-0.031-0.076-0.052l-0.014-1.616l-0.017-2.064l-0.012-1.354l-1.296-0.394l-0.483-0.146
				c-0.878-0.266-2.165-0.812-3.13-1.33l-0.435-0.232l-1.204-0.646l-0.967,0.964l-1.423,1.418c-0.566,0.563-0.975,0.949-1.204,1.157
				c-0.351-0.292-1.192-1.136-2.148-2.094l-0.067-0.068c-0.975-0.975-1.717-1.72-2.006-2.064c0.226-0.269,0.754-0.799,1.156-1.202
				l1.396-1.4l0.934-0.937l-0.59-1.185l-0.449-0.901c-0.458-0.919-0.771-1.684-1.045-2.558l-0.203-0.648l-0.401-1.278l-1.341-0.012
				l-2.064-0.016l-1.603-0.014c-0.027-0.026-0.055-0.059-0.074-0.085v-2.931v-2.93c0.02-0.026,0.047-0.058,0.073-0.085l1.605-0.013
				l2.062-0.018l1.347-0.011l0.398-1.286l0.175-0.565c0.246-0.792,0.724-1.952,1.112-2.696l0.406-0.775l0.624-1.194l-0.947-0.956
				l-1.404-1.417c-0.436-0.439-0.963-0.972-1.177-1.231c0-0.005,0-0.011,0-0.017v-0.003c0.277-0.331,1.013-1.061,1.981-2.021
				l0.099-0.098c1.002-0.992,1.82-1.804,2.184-2.102c0.269,0.225,0.79,0.746,1.189,1.144c1.595,1.59,1.927,1.92,2.772,1.92
				c0.41,0,0.814-0.125,1.152-0.354c0.088-0.048,0.296-0.158,0.603-0.312c0.774-0.388,1.65-0.742,2.465-0.998l0.648-0.203
				l1.278-0.402l0.011-1.34l0.017-2.063l0.014-1.607c0.025-0.025,0.055-0.052,0.079-0.069h2.937H98.675"/>
		</g>
	</g>
	<g>
		<g id="path17">
			<path fill="#FF0000" d="M98.639,4.418c0.025,0.02,0.058,0.047,0.085,0.074l0.013,1.603l0.018,2.063l0.011,1.34l1.278,0.401
				l0.647,0.204c0.864,0.271,1.696,0.613,2.548,1.045c0.964,0.488,1.222,0.619,1.709,0.619c0.807,0,0.952-0.146,2.737-1.921
				c0.406-0.404,0.942-0.938,1.202-1.153h0.02h0.003c0.331,0.276,1.059,1.011,2.017,1.978l0.1,0.101
				c1.029,1.039,1.812,1.828,2.103,2.185c-0.224,0.267-0.752,0.797-1.154,1.201l-1.395,1.397l-0.934,0.937l0.59,1.184l0.449,0.903
				c0.455,0.914,0.766,1.679,1.043,2.559l0.204,0.648l0.401,1.279l1.341,0.011l2.062,0.017l1.604,0.014
				c0.027,0.027,0.055,0.06,0.074,0.086v2.929v2.931c-0.02,0.026-0.047,0.058-0.074,0.085l-1.606,0.013l-2.064,0.018l-1.354,0.012
				l-0.393,1.296l-0.146,0.482c-0.271,0.896-0.852,2.26-1.351,3.172l-0.207,0.378l-0.663,1.209l0.974,0.976l1.419,1.424
				c0.564,0.566,0.949,0.974,1.157,1.203c-0.28,0.333-1.051,1.105-2.068,2.123l-0.08,0.08c-0.982,0.984-1.73,1.733-2.075,2.021
				c-0.266-0.224-0.792-0.748-1.192-1.148c-1.819-1.812-1.928-1.92-2.729-1.92c-0.473,0-0.673,0.1-1.788,0.652
				c-0.932,0.463-1.607,0.738-2.494,1.018l-0.631,0.199l-1.276,0.401l-0.011,1.339l-0.018,2.063l-0.013,1.604
				c-0.02,0.02-0.042,0.04-0.063,0.056c-0.341,0.019-1.255,0.021-2.764,0.026l-0.574,0.001c-1.377,0-2.264-0.013-2.556-0.023
				c-0.024-0.012-0.055-0.031-0.076-0.052l-0.014-1.616l-0.017-2.064l-0.012-1.354l-1.296-0.394l-0.483-0.146
				c-0.878-0.266-2.165-0.812-3.13-1.33l-0.435-0.232l-1.204-0.646l-0.967,0.964l-1.423,1.418c-0.566,0.563-0.975,0.949-1.204,1.157
				c-0.351-0.292-1.192-1.136-2.148-2.094l-0.067-0.068c-0.975-0.975-1.717-1.72-2.006-2.064c0.226-0.269,0.754-0.799,1.156-1.202
				l1.396-1.4l0.934-0.937l-0.59-1.185l-0.449-0.901c-0.458-0.919-0.771-1.684-1.045-2.558l-0.203-0.648l-0.401-1.278l-1.341-0.012
				l-2.064-0.016l-1.603-0.014c-0.027-0.026-0.055-0.059-0.074-0.085V26.12v-2.93c0.02-0.026,0.047-0.058,0.073-0.085l1.605-0.013
				l2.062-0.018l1.347-0.011l0.398-1.286l0.175-0.565c0.246-0.792,0.724-1.952,1.112-2.696l0.406-0.775l0.624-1.194l-0.947-0.956
				l-1.404-1.417c-0.436-0.439-0.963-0.972-1.177-1.231c0-0.005,0-0.011,0-0.017v-0.003c0.277-0.331,1.013-1.061,1.981-2.021
				l0.099-0.098c1.002-0.992,1.82-1.804,2.184-2.102c0.269,0.225,0.79,0.746,1.189,1.144c1.595,1.59,1.927,1.92,2.772,1.92
				c0.41,0,0.814-0.125,1.152-0.354c0.088-0.048,0.296-0.158,0.603-0.312c0.774-0.388,1.65-0.742,2.465-0.998L91.374,9.9
				l1.278-0.402l0.011-1.34l0.017-2.063l0.014-1.607c0.025-0.025,0.055-0.052,0.079-0.069h2.937H98.639 M99.008,2.578h-3.299h-3.301
				L92.077,2.71c-0.42,0.169-0.866,0.586-1.068,0.997l-0.153,0.312l-0.017,2.062l-0.017,2.062l-0.649,0.204
				c-0.912,0.287-1.872,0.677-2.736,1.108c-0.407,0.204-0.764,0.394-0.793,0.421s-0.091,0.05-0.138,0.05s-0.709-0.622-1.473-1.383
				c-1.62-1.615-1.737-1.695-2.498-1.695c-0.795,0-0.813,0.013-3.472,2.649c-2.655,2.632-2.623,2.589-2.625,3.424
				c-0.001,0.791,0.063,0.887,1.711,2.549l1.403,1.417l-0.405,0.776c-0.44,0.842-0.963,2.107-1.24,3.006l-0.175,0.565l-2.063,0.017
				l-2.063,0.017l-0.315,0.155c-0.401,0.197-0.828,0.658-0.998,1.079l-0.129,0.319v3.299v3.301l0.129,0.318
				c0.17,0.421,0.597,0.882,0.998,1.079l0.315,0.155l2.062,0.017l2.062,0.018l0.203,0.648c0.303,0.965,0.651,1.819,1.153,2.826
				l0.449,0.902l-1.396,1.4c-1.627,1.633-1.706,1.748-1.706,2.509c0,0.806-0.021,0.776,2.624,3.427
				c2.447,2.453,2.536,2.527,3.157,2.645c0.084,0.016,0.177,0.022,0.272,0.022c0.294,0,0.624-0.07,0.878-0.197
				c0.133-0.065,0.801-0.686,1.647-1.528l1.424-1.419l0.435,0.233c1.076,0.577,2.469,1.169,3.468,1.47l0.482,0.146l0.017,2.064
				l0.018,2.065l0.153,0.312c0.281,0.573,0.875,1.008,1.507,1.104c0.137,0.021,1.347,0.035,2.81,0.035c0.189,0,0.383,0,0.579-0.001
				c3.104-0.01,3.106-0.01,3.424-0.137c0.421-0.169,0.883-0.595,1.08-0.997l0.155-0.315l0.017-2.063l0.018-2.062l0.63-0.198
				c0.972-0.307,1.746-0.622,2.759-1.125c0.511-0.253,0.946-0.46,0.97-0.46s0.666,0.622,1.43,1.383
				c1.612,1.609,1.736,1.694,2.486,1.694c0.004,0,0.008,0,0.011,0c0.815,0,0.781,0.026,3.454-2.65
				c2.47-2.474,2.498-2.507,2.617-3.138c0.063-0.333-0.01-0.808-0.176-1.142c-0.065-0.133-0.686-0.802-1.529-1.648l-1.419-1.423
				l0.208-0.379c0.557-1.02,1.189-2.509,1.496-3.522l0.146-0.482l2.064-0.018l2.064-0.017l0.315-0.155
				c0.402-0.197,0.828-0.658,0.997-1.079l0.13-0.318v-3.3v-3.301l-0.13-0.318c-0.169-0.42-0.595-0.882-0.997-1.079l-0.315-0.154
				l-2.062-0.018l-2.063-0.017l-0.203-0.648c-0.306-0.973-0.652-1.824-1.151-2.828l-0.449-0.902l1.394-1.398
				c1.624-1.629,1.7-1.742,1.703-2.51c0.004-0.794-0.009-0.81-2.647-3.473c-2.632-2.656-2.587-2.622-3.424-2.623
				c-0.01,0-0.019,0-0.028,0c-0.766,0-0.881,0.082-2.495,1.69c-0.766,0.761-1.412,1.384-1.438,1.384s-0.421-0.189-0.878-0.421
				c-0.937-0.475-1.872-0.858-2.826-1.158l-0.649-0.204l-0.017-2.062L100.56,4.02l-0.153-0.316
				c-0.197-0.401-0.658-0.828-1.079-0.998L99.008,2.578L99.008,2.578z"/>
		</g>
		<path id="path19" fill="#FF0000" d="M94.937,34.88c-0.508-0.054-1.456-0.259-1.932-0.417c-3.063-1.016-5.286-3.556-5.927-6.772
			c-0.177-0.891-0.176-2.301,0.001-3.193c0.724-3.636,3.427-6.338,7.067-7.063c0.882-0.176,2.295-0.175,3.189,0.001
			c2.417,0.478,4.43,1.82,5.764,3.847c1.927,2.926,1.927,6.703,0,9.63c-1.324,2.011-3.361,3.374-5.73,3.837
			C96.782,34.863,95.45,34.935,94.937,34.88L94.937,34.88z M96.922,32.891c1.388-0.242,2.715-0.929,3.7-1.914
			c0.985-0.984,1.671-2.312,1.913-3.7c0.106-0.608,0.106-1.753,0-2.361c-0.499-2.862-2.683-5.062-5.57-5.609
			c-0.605-0.115-1.843-0.115-2.447,0c-2.19,0.415-3.969,1.75-4.95,3.714c-0.49,0.982-0.704,1.915-0.704,3.076
			c0,1.177,0.214,2.097,0.723,3.106c0.979,1.942,2.792,3.298,4.931,3.685C95.09,32.992,96.335,32.994,96.922,32.891L96.922,32.891z"
			/>
	</g>
</g>
</svg>
