<?xml version="1.0" encoding="utf-8"?>
<!-- Generator: Adobe Illustrator 16.0.0, SVG Export Plug-In . SVG Version: 6.00 Build 0)  -->
<!DOCTYPE svg PUBLIC "-//W3C//DTD SVG 1.1//EN" "http://www.w3.org/Graphics/SVG/1.1/DTD/svg11.dtd">
<svg version="1.1" xmlns="http://www.w3.org/2000/svg" xmlns:xlink="http://www.w3.org/1999/xlink" x="0px" y="0px" width="128px"
	 height="128px" viewBox="0 0 128 128" enable-background="new 0 0 128 128" xml:space="preserve">
<g id="Calque_1" display="none">
	<g id="Calque_1_2_" display="inline">
		<g id="Calque_1_1_" display="none">
		</g>
		<line fill="none" stroke="#FF0000" stroke-width="11" stroke-miterlimit="10" x1="5.1" y1="23.43" x2="58.226" y2="23.43"/>
		<polygon fill="#FF0000" points="59.673,98.5 5.1,98.5 5.1,87.5 49.771,87.5 49.771,93.469 57.501,94.107 		"/>
		<line fill="none" stroke="#FF0000" stroke-width="11" stroke-miterlimit="10" x1="58.226" y1="35.064" x2="86.372" y2="35.064"/>
		<line fill="none" stroke="#FF0000" stroke-width="11" stroke-miterlimit="10" x1="14.986" y1="49.512" x2="42.757" y2="49.512"/>
		<polygon fill="#FF0000" points="57.127,68.146 42.757,68.146 42.757,57.147 65.837,57.147 56.636,65.693 		"/>
		<path fill="none" stroke="#FF0000" stroke-width="5" stroke-linecap="round" stroke-linejoin="round" stroke-miterlimit="10" d="
			M56.148,111.905l-45.126,0.002c-3.316,0-6.004-2.915-6.004-6.509V15.383c0-3.594,2.688-6.507,6.004-6.507h107.083
			c3.319,0,6.006,2.914,6.006,6.507v90.016c0,3.594-2.16,6.479-5.479,6.479l-3.063,0.001"/>
	</g>
</g>
<g id="Calque_2_1_">
	<path fill="none" stroke="#FF0000" stroke-width="5" stroke-linecap="round" stroke-miterlimit="10" d="M126,69.637H64.598
		c-1.902,0-3.443-1.67-3.443-3.731V7.135"/>
	<line fill="none" stroke="#FF0000" stroke-width="11" stroke-miterlimit="10" x1="66.526" y1="17.747" x2="114.742" y2="17.747"/>
	<line fill="none" stroke="#FF0000" stroke-width="11" stroke-miterlimit="10" x1="73.324" y1="34.476" x2="98.514" y2="34.476"/>
	<line fill="none" stroke="#FF0000" stroke-width="11" stroke-miterlimit="10" x1="95.334" y1="48.277" x2="120.521" y2="48.277"/>
	<g id="Calque_2">
	</g>
</g>
<g id="Calque_3">
	<g id="Calque_1_3_" xmlns:serif="http://www.serif.com/">
		<g id="path17">
			<path fill="none" stroke="#FF0000" stroke-width="5" stroke-linecap="round" stroke-linejoin="round" stroke-miterlimit="10" d="
				M73.772,76.807l0.755,2.406l2.522,0.021l3.88,0.032l3.017,0.024c0.05,0.052,0.103,0.112,0.139,0.161v11.022
				c-0.036,0.05-0.089,0.11-0.139,0.161l-3.022,0.024l-3.884,0.032l-2.547,0.021l-0.738,2.438l-0.273,0.908
				c-0.511,1.686-1.604,4.253-2.541,5.967l-0.39,0.711l-1.246,2.274l1.831,1.836l2.67,2.676c1.062,1.066,1.786,1.833,2.177,2.266
				c-0.527,0.624-1.978,2.079-3.891,3.994l-0.15,0.151c-1.849,1.851-3.255,3.26-3.903,3.802c-0.502-0.42-1.489-1.406-2.244-2.159
				c-3.422-3.409-3.626-3.612-5.135-3.612c-0.888,0-1.265,0.188-3.362,1.227c-1.753,0.87-3.025,1.389-4.693,1.915l-1.186,0.374
				l-2.402,0.756l-0.019,2.519l-0.034,3.88l-0.023,3.018c-0.038,0.036-0.079,0.073-0.117,0.104
				c-0.643,0.035-2.363,0.039-5.202,0.048l-1.08,0.003c-2.59,0-4.257-0.023-4.808-0.044c-0.046-0.021-0.102-0.059-0.144-0.099
				l-0.026-3.041l-0.031-3.883l-0.022-2.547l-2.437-0.739l-0.911-0.275c-1.65-0.499-4.072-1.526-5.887-2.501l-0.818-0.438
				l-2.264-1.217l-1.82,1.813l-2.678,2.668c-1.064,1.06-1.832,1.787-2.264,2.178c-0.66-0.548-2.243-2.136-4.042-3.939l-0.126-0.128
				c-1.833-1.834-3.229-3.235-3.773-3.885c0.425-0.504,1.419-1.502,2.176-2.263l2.624-2.633l1.757-1.763l-1.11-2.228l-0.846-1.697
				c-0.861-1.729-1.448-3.167-1.965-4.811l-0.383-1.221l-0.755-2.405l-2.521-0.02l-3.884-0.031l-3.016-0.024
				c-0.051-0.049-0.103-0.11-0.139-0.159V79.451c0.036-0.05,0.088-0.109,0.138-0.16l3.019-0.024l3.88-0.032l2.532-0.021l0.749-2.419
				l0.33-1.063c0.461-1.491,1.361-3.674,2.092-5.072l0.765-1.461l1.174-2.246l-1.783-1.799l-2.642-2.665
				c-0.82-0.827-1.811-1.828-2.213-2.316v-0.037c0.521-0.623,1.905-1.995,3.727-3.801l0.187-0.184
				c1.883-1.867,3.423-3.394,4.108-3.954c0.503,0.423,1.486,1.404,2.237,2.152c3,2.99,3.625,3.612,5.216,3.612
				c0.771,0,1.531-0.236,2.167-0.665c0.165-0.09,0.557-0.298,1.133-0.586c1.459-0.729,3.105-1.396,4.639-1.878l1.22-0.384
				l2.403-0.756l0.021-2.52l0.032-3.879l0.025-3.024c0.047-0.049,0.104-0.099,0.15-0.131H48.76"/>
			<path fill="none" stroke="#FF0000" stroke-width="5" stroke-linecap="round" stroke-linejoin="round" stroke-miterlimit="10" d="
				M48.76,44.137c0.048,0.036,0.109,0.088,0.16,0.139l0.024,3.017l0.033,3.879l0.021,2.52l2.405,0.756l1.219,0.384"/>
		</g>
		<path id="path19" fill="none" stroke="#FF0000" stroke-width="5" stroke-miterlimit="10" d="M41.726,101.442
			c-0.956-0.101-2.74-0.486-3.635-0.783c-5.761-1.911-9.944-6.69-11.148-12.741c-0.333-1.676-0.332-4.328,0.001-6.008
			c1.362-6.839,6.447-11.922,13.294-13.288c1.661-0.331,4.318-0.329,6,0.002c4.548,0.899,8.333,3.425,10.843,7.235
			c3.624,5.506,3.624,12.61,0,18.116c-2.493,3.784-6.324,6.35-10.782,7.221C45.198,101.41,42.692,101.546,41.726,101.442z"/>
	</g>
</g>
</svg>
