<?xml version="1.0" encoding="utf-8"?>
<!-- Generator: Adobe Illustrator 16.0.0, SVG Export Plug-In . SVG Version: 6.00 Build 0)  -->
<!DOCTYPE svg PUBLIC "-//W3C//DTD SVG 1.1//EN" "http://www.w3.org/Graphics/SVG/1.1/DTD/svg11.dtd">
<svg version="1.1" id="Calque_2" xmlns="http://www.w3.org/2000/svg" xmlns:xlink="http://www.w3.org/1999/xlink" x="0px" y="0px"
	 width="128px" height="128px" viewBox="0 0 128 128" enable-background="new 0 0 128 128" xml:space="preserve">
<g>
	<path fill="none" d="M65.085,64.747c9.406,0,15.547-12.935,16.563-26.153h-30.49c-0.851,0.106-1.718,0.198-2.616,0.25
		C49.617,51.975,55.738,64.747,65.085,64.747z"/>
	<path fill="none" d="M94.971,113.764c0.194-3.279,0.781-14.628,0.146-23.755l4.739-0.331c0.594,8.51,0.178,18.561-0.064,23.021
		c8.268-0.072,10.908-3.268,11.493-4.19c1.052-23.229-16.774-32.349-18.325-33.098l-9.646-3.521L67.88,80.636l-5.938-0.091
		l-15.506-8.65l-9.566,3.518c-1.507,0.727-19.394,9.841-18.328,33.113c0.541,0.854,3.165,4.105,11.531,4.174
		c-0.264-4.405-0.719-14.237-0.156-22.852l4.739,0.309c-0.606,9.287,0.032,20.393,0.246,23.604"/>
	<path fill="#FF0000" d="M35.814,38.594h6.227c0,0.002,0,0.004,0,0.006c-1.305,2.819-1.772,7.667,4.469,13.882
		c3.377,9.688,9.662,17.016,18.575,17.016c8.739,0,15.188-7.482,18.631-17.413c5.837-6.035,5.343-10.733,4.063-13.491h6.232
		c1.215,0,2.199-0.984,2.199-2.199c0-1.214-0.984-2.199-2.199-2.199H91.07c0.016-0.334,0.023-0.671,0.023-1.009
		c0-10.568-6.177-19.661-15.054-23.763c0.026,1.039,0.032,2.212,0.032,3.533v3.8c0,10.968-0.596,11.62-10.622,11.62
		c-10.028,0-10.623-0.652-10.623-11.62v-3.8c0-1.326,0.009-2.498,0.042-3.54c-8.881,4.101-15.063,13.198-15.063,23.77
		c0,0.341,0.03,0.673,0.046,1.009h-4.039c-1.214,0-2.199,0.985-2.199,2.199C33.615,37.609,34.6,38.594,35.814,38.594z
		 M51.157,38.594h30.489c-1.016,13.218-7.155,26.153-16.563,26.153c-9.347,0-15.468-12.772-16.543-25.903
		C49.439,38.792,50.306,38.7,51.157,38.594z"/>
	<path fill="#FF0000" d="M94.734,117.467c14.753,0.546,21-7.177,21.123-7.512l0.123-0.33l0.02-0.354
		c1.55-27.435-20.904-38.105-21.131-38.209l-14.21-5.197l-12.675,7.414h-6.221l-12.676-7.422L35.13,70.989l-0.173,0.071
		c-0.229,0.104-22.684,10.775-21.134,38.211l0.021,0.354l0.12,0.331c0.119,0.321,2.909,7.502,16.378,7.502
		c0.5,0,4.135,0.021,4.667,0l-0.107-3.698c-0.213-3.213-0.852-14.316-0.246-23.605l-4.739-0.309
		c-0.563,8.614-0.108,18.446,0.156,22.853c-8.366-0.067-10.99-3.319-11.531-4.173c-1.065-23.273,16.821-32.39,18.328-33.114
		l9.566-3.517l15.506,8.649l5.938,0.091l15.434-8.746l9.646,3.521c1.552,0.75,19.378,9.869,18.325,33.098
		c-0.586,0.924-3.227,4.118-11.493,4.19c0.241-4.46,0.657-14.511,0.065-23.021l-4.74,0.331c0.637,9.127,0.05,20.477-0.146,23.754
		L94.734,117.467z"/>
	<path fill="#FF0000" d="M73.372,8.367c-0.083-1.763-0.28-2.937-0.769-3.485c-0.77-0.865-3.1-0.907-7.153-0.907
		c-3.994,0-6.394,0-7.163,0.853c-0.487,0.541-0.682,1.733-0.763,3.539c0,0,0,0-0.001,0c-0.055,1.239-0.059,2.759-0.059,4.589v3.8
		h0.002c0,4.501,0,7.218,0.823,8.129c0.77,0.852,3.175,0.852,7.161,0.852c3.985,0,6.391,0,7.159-0.852
		c0.824-0.911,0.824-3.627,0.824-8.129v-3.8C73.434,11.121,73.43,9.603,73.372,8.367"/>
</g>
<line fill="none" stroke="#FF0000" stroke-width="5" stroke-linecap="round" stroke-linejoin="round" stroke-miterlimit="10" x1="49.417" y1="97.435" x2="79.416" y2="124.092"/>
<line fill="none" stroke="#FF0000" stroke-width="5" stroke-linecap="round" stroke-linejoin="round" stroke-miterlimit="10" x1="79.417" y1="97.435" x2="49.417" y2="124.092"/>
</svg>
