<?xml version="1.0" encoding="utf-8"?>
<!-- Generator: Adobe Illustrator 16.0.0, SVG Export Plug-In . SVG Version: 6.00 Build 0)  -->
<!DOCTYPE svg PUBLIC "-//W3C//DTD SVG 1.1//EN" "http://www.w3.org/Graphics/SVG/1.1/DTD/svg11.dtd">
<svg version="1.1" xmlns="http://www.w3.org/2000/svg" xmlns:xlink="http://www.w3.org/1999/xlink" x="0px" y="0px" width="128px"
	 height="128px" viewBox="0 0 128 128" enable-background="new 0 0 128 128" xml:space="preserve">
<g id="Calque_1">
	<g>
		<path fill="none" stroke="#FF0000" stroke-width="5" stroke-linecap="round" stroke-linejoin="round" stroke-miterlimit="10" d="
			M63.833,50.691h34.003c5.138,0,9.341,4.202,9.341,9.34v53.801c0,5.137-4.203,9.342-9.341,9.342H21.924V63.951"/>
		<g>
			<path fill="none" stroke="#FF0000" stroke-width="5" stroke-linecap="round" stroke-linejoin="round" d="M93.917,99.68v3.754
				c0,0.657-0.104,1.297-0.296,1.901"/>
			
				<line fill="none" stroke="#FF0000" stroke-width="5" stroke-linecap="round" stroke-linejoin="round" stroke-dasharray="5.9187,5.9187" x1="84.436" y1="109.912" x2="33.219" y2="109.912"/>
			
				<line fill="none" stroke="#FF0000" stroke-width="5" stroke-linecap="round" stroke-linejoin="round" x1="27.608" y1="109.912" x2="21.924" y2="109.912"/>
		</g>
		<g>
			
				<line fill="none" stroke="#FF0000" stroke-width="5" stroke-linecap="round" stroke-linejoin="round" x1="21.924" y1="63.95" x2="27.608" y2="63.95"/>
			
				<path fill="none" stroke="#FF0000" stroke-width="5" stroke-linecap="round" stroke-linejoin="round" stroke-dasharray="5.9188,5.9188" d="
				M38.82,63.95h48.618c0.895,0,1.752,0.192,2.534,0.537"/>
			<path fill="none" stroke="#FF0000" stroke-width="5" stroke-linecap="round" stroke-linejoin="round" d="M93.621,68.53
				c0.192,0.604,0.296,1.242,0.296,1.9v3.755"/>
		</g>
		<path fill="none" stroke="#FF0000" stroke-width="5" stroke-linecap="round" stroke-linejoin="round" stroke-miterlimit="10" d="
			M107.178,99.68H91.689c-7.011,0-12.748-5.735-12.748-12.748l0,0c0-7.01,5.737-12.748,12.748-12.748h15.488"/>
		
			<circle fill="none" stroke="#FF0000" stroke-width="5" stroke-linecap="round" stroke-linejoin="round" cx="89.974" cy="86.932" r="1.823"/>
	</g>
	<g>
		<path fill="none" stroke="#FF0000" stroke-width="5" stroke-miterlimit="10" d="M115.212,14.525c0.935,0,1.835,0.135,2.696,0.366
			c0.004-0.122,0.019-0.242,0.019-0.366c0-5.742-4.655-10.396-10.396-10.396S97.134,8.783,97.134,14.525
			c0,4.807,3.268,8.84,7.699,10.03"/>
		<path fill="none" stroke="#FF0000" stroke-width="5" stroke-miterlimit="10" d="M117.908,14.891
			c-0.194,5.571-4.76,10.03-10.378,10.03c-0.935,0-1.836-0.135-2.697-0.366c-0.004,0.123-0.019,0.243-0.019,0.366
			c0,5.742,4.655,10.396,10.397,10.396c5.74,0,10.396-4.654,10.396-10.396C125.608,20.114,122.34,16.08,117.908,14.891z"/>
		<path fill="none" stroke="#FF0000" stroke-width="5" stroke-miterlimit="10" d="M104.833,24.555
			c0.861,0.231,1.763,0.366,2.697,0.366c5.618,0,10.184-4.459,10.378-10.03"/>
	</g>
	
		<polyline fill="none" stroke="#FF0000" stroke-width="5" stroke-linecap="round" stroke-linejoin="round" stroke-miterlimit="10" points="
		64.532,23.702 78.941,13.865 81.274,20.785 	"/>
	
		<polyline fill="none" stroke="#FF0000" stroke-width="5" stroke-linecap="round" stroke-linejoin="round" stroke-miterlimit="10" points="
		99.314,47.42 88.15,21.444 64.83,31.824 	"/>
	<path fill="none" stroke="#FF0000" stroke-width="5" stroke-linecap="round" stroke-linejoin="round" stroke-miterlimit="10" d="
		M64.85,39.181l11.399-5.545c0,0,1.647,7.601,9.886,4.943l3.838,8.841"/>
</g>
<g id="Calque_2_3_">
	<g>
		<path fill="none" stroke="#FF0000" stroke-width="5" stroke-linecap="round" stroke-linejoin="round" stroke-miterlimit="10" d="
			M56.654,55.605c0,0.578-0.469,1.049-1.049,1.049H5.548c-0.579,0-1.048-0.471-1.048-1.049V5.548C4.5,4.969,4.969,4.5,5.548,4.5
			h50.058c0.58,0,1.049,0.469,1.049,1.048L56.654,55.605L56.654,55.605z"/>
		<circle fill="#FF0000" cx="16.424" cy="17.481" r="3.704"/>
		<line fill="none" stroke="#FF0000" stroke-width="4" stroke-miterlimit="10" x1="24.219" y1="17.481" x2="46.231" y2="17.481"/>
		<circle fill="#FF0000" cx="16.424" cy="30.577" r="3.704"/>
		<line fill="none" stroke="#FF0000" stroke-width="4" stroke-miterlimit="10" x1="24.219" y1="30.578" x2="46.231" y2="30.578"/>
		<circle fill="#FF0000" cx="16.424" cy="43.673" r="3.704"/>
		<line fill="none" stroke="#FF0000" stroke-width="4" stroke-miterlimit="10" x1="24.219" y1="43.672" x2="46.231" y2="43.672"/>
	</g>
</g>
</svg>
