<?xml version="1.0" encoding="utf-8"?>
<!-- Generator: Adobe Illustrator 16.0.0, SVG Export Plug-In . SVG Version: 6.00 Build 0)  -->
<!DOCTYPE svg PUBLIC "-//W3C//DTD SVG 1.1//EN" "http://www.w3.org/Graphics/SVG/1.1/DTD/svg11.dtd">
<svg version="1.1" xmlns="http://www.w3.org/2000/svg" xmlns:xlink="http://www.w3.org/1999/xlink" x="0px" y="0px" width="128px"
	 height="128px" viewBox="0 0 128 128" enable-background="new 0 0 128 128" xml:space="preserve">
<g id="Calque_1">
	<g id="Calque_1_1_" display="none">
	</g>
	<line fill="none" stroke="#FF0000" stroke-width="11" stroke-miterlimit="10" x1="5.1" y1="23.43" x2="58.226" y2="23.43"/>
	<polygon fill="#FF0000" points="59.673,98.5 5.1,98.5 5.1,87.5 49.771,87.5 49.771,93.469 57.501,94.107 	"/>
	<line fill="none" stroke="#FF0000" stroke-width="11" stroke-miterlimit="10" x1="58.226" y1="35.064" x2="86.372" y2="35.064"/>
	<line fill="none" stroke="#FF0000" stroke-width="11" stroke-miterlimit="10" x1="14.986" y1="49.512" x2="42.757" y2="49.512"/>
	<polygon fill="#FF0000" points="57.127,68.147 42.757,68.147 42.757,57.147 65.837,57.147 56.636,65.694 	"/>
	<path fill="none" stroke="#FF0000" stroke-width="5" stroke-linecap="round" stroke-linejoin="round" stroke-miterlimit="10" d="
		M56.148,111.905l-45.126,0.002c-3.316,0-6.004-2.915-6.004-6.508V15.383c0-3.594,2.688-6.507,6.004-6.507h107.084
		c3.319,0,6.005,2.914,6.005,6.507v90.016c0,3.593-2.16,6.479-5.479,6.479l-3.064,0.001"/>
</g>
<g id="Calque_2">
	<g id="path17">
		<path fill="#FF0000" d="M90.607,52.317c0.042,0.031,0.094,0.076,0.138,0.12l0.021,2.606l0.029,3.351l0.018,2.177l2.077,0.653
			l1.054,0.332c1.403,0.441,2.756,0.997,4.14,1.697c1.566,0.794,1.987,1.007,2.778,1.007c1.311,0,1.547-0.236,4.448-3.121
			c0.661-0.658,1.532-1.524,1.955-1.876h0.03h0.006c0.537,0.45,1.721,1.644,3.278,3.215l0.161,0.163
			c1.674,1.689,2.945,2.972,3.418,3.551c-0.363,0.434-1.223,1.295-1.877,1.951l-2.266,2.272l-1.518,1.521l0.957,1.925l0.73,1.468
			c0.74,1.484,1.246,2.729,1.695,4.158l0.332,1.055l0.652,2.078l2.179,0.018l3.352,0.028l2.606,0.021
			c0.044,0.044,0.09,0.096,0.12,0.14v4.761v4.762c-0.03,0.043-0.077,0.095-0.12,0.139l-2.611,0.021l-3.355,0.027l-2.201,0.02
			l-0.639,2.105l-0.236,0.785c-0.441,1.455-1.385,3.673-2.194,5.154l-0.337,0.615l-1.077,1.965l1.582,1.586l2.306,2.313
			c0.918,0.921,1.544,1.583,1.881,1.956c-0.455,0.541-1.708,1.796-3.361,3.451l-0.13,0.131c-1.597,1.599-2.813,2.816-3.373,3.284
			c-0.433-0.363-1.287-1.215-1.938-1.866c-2.956-2.944-3.133-3.121-4.438-3.121c-0.766,0-1.092,0.163-2.904,1.061
			c-1.515,0.752-2.613,1.2-4.055,1.654l-1.025,0.323l-2.074,0.653l-0.018,2.176l-0.028,3.353l-0.021,2.606
			c-0.032,0.031-0.068,0.063-0.102,0.089c-0.554,0.031-2.041,0.035-4.492,0.044l-0.934,0.001c-2.238,0-3.678-0.02-4.154-0.037
			c-0.039-0.02-0.088-0.052-0.123-0.085l-0.023-2.627l-0.026-3.355l-0.019-2.2l-2.105-0.639l-0.787-0.239
			c-1.426-0.431-3.518-1.319-5.086-2.161l-0.707-0.379l-1.957-1.05l-1.572,1.566l-2.313,2.305c-0.92,0.916-1.583,1.544-1.957,1.881
			c-0.57-0.474-1.938-1.845-3.492-3.402l-0.109-0.111c-1.583-1.584-2.79-2.795-3.26-3.355c0.368-0.437,1.226-1.298,1.88-1.954
			l2.268-2.275l1.518-1.523l-0.959-1.924l-0.729-1.467c-0.745-1.493-1.252-2.736-1.698-4.156l-0.331-1.054l-0.652-2.078
			l-2.179-0.019l-3.355-0.026l-2.605-0.021c-0.044-0.044-0.089-0.096-0.12-0.139v-4.763v-4.762c0.031-0.043,0.076-0.095,0.119-0.139
			l2.608-0.021l3.352-0.027l2.188-0.018l0.647-2.091l0.286-0.919c0.398-1.288,1.175-3.173,1.808-4.382l0.66-1.262l1.015-1.94
			l-1.541-1.554l-2.282-2.303c-0.708-0.714-1.565-1.579-1.913-2.001c0-0.009,0-0.019,0-0.028v-0.004
			c0.45-0.539,1.646-1.724,3.221-3.284l0.16-0.159c1.628-1.613,2.958-2.932,3.549-3.417c0.436,0.366,1.284,1.213,1.933,1.859
			c2.593,2.583,3.132,3.121,4.506,3.121c0.667,0,1.323-0.204,1.873-0.575c0.142-0.078,0.48-0.257,0.979-0.506
			c1.261-0.63,2.683-1.206,4.008-1.622l1.054-0.332l2.076-0.653l0.02-2.177l0.026-3.351l0.022-2.613
			c0.04-0.042,0.089-0.085,0.129-0.113h4.771H90.607 M91.208,49.324h-5.362h-5.364l-0.538,0.217
			c-0.684,0.274-1.408,0.952-1.738,1.621l-0.247,0.506l-0.028,3.351l-0.027,3.351l-1.055,0.332c-1.482,0.466-3.043,1.098-4.447,1.8
			c-0.661,0.332-1.242,0.64-1.289,0.685c-0.047,0.044-0.147,0.081-0.224,0.081c-0.075,0-1.153-1.012-2.394-2.248
			c-2.634-2.625-2.823-2.754-4.06-2.754c-1.292,0-1.32,0.021-5.643,4.305c-4.316,4.278-4.263,4.208-4.266,5.565
			c-0.002,1.286,0.102,1.44,2.78,4.143l2.282,2.303l-0.66,1.263c-0.715,1.368-1.564,3.426-2.016,4.885l-0.284,0.919l-3.353,0.027
			l-3.353,0.027l-0.513,0.253c-0.652,0.32-1.346,1.069-1.622,1.754l-0.209,0.518v5.363v5.364l0.209,0.518
			c0.276,0.685,0.97,1.434,1.622,1.754l0.513,0.253l3.351,0.026l3.35,0.028l0.331,1.055c0.492,1.567,1.058,2.955,1.874,4.594
			l0.73,1.466l-2.268,2.275c-2.646,2.654-2.773,2.841-2.773,4.078c0,1.31-0.036,1.262,4.264,5.57
			c3.978,3.986,4.123,4.106,5.132,4.298c0.137,0.025,0.287,0.037,0.442,0.037c0.479,0,1.016-0.116,1.428-0.321
			c0.217-0.107,1.301-1.114,2.678-2.484l2.313-2.306l0.706,0.38c1.75,0.938,4.014,1.898,5.637,2.389l0.785,0.237l0.026,3.355
			l0.028,3.356l0.248,0.508c0.459,0.931,1.424,1.638,2.451,1.794c0.223,0.034,2.189,0.058,4.566,0.058c0.307,0,0.622,0,0.94-0.001
			c5.044-0.017,5.048-0.017,5.565-0.224c0.685-0.274,1.435-0.967,1.755-1.62l0.252-0.513l0.027-3.352l0.028-3.352l1.023-0.322
			c1.58-0.498,2.84-1.011,4.485-1.828c0.829-0.411,1.538-0.748,1.575-0.748c0.038,0,1.084,1.012,2.324,2.248
			c2.621,2.616,2.822,2.754,4.042,2.754c0.006,0,0.012,0,0.017,0c1.326-0.001,1.27,0.043,5.613-4.308
			c4.016-4.021,4.061-4.075,4.255-5.101c0.103-0.541-0.017-1.313-0.286-1.854c-0.106-0.217-1.114-1.303-2.484-2.68l-2.307-2.313
			l0.336-0.616c0.906-1.657,1.935-4.078,2.434-5.726l0.237-0.783l3.355-0.028l3.356-0.027l0.512-0.252
			c0.653-0.32,1.346-1.07,1.621-1.755l0.211-0.518v-5.363v-5.364L123.9,81.71c-0.275-0.684-0.968-1.435-1.621-1.755l-0.512-0.251
			l-3.352-0.028l-3.352-0.027l-0.332-1.055c-0.496-1.58-1.059-2.963-1.871-4.596l-0.729-1.467l2.266-2.273
			c2.64-2.646,2.763-2.83,2.768-4.078c0.006-1.29-0.015-1.316-4.303-5.644c-4.278-4.317-4.204-4.262-5.565-4.264
			c-0.016,0-0.03,0-0.045,0c-1.246,0-1.433,0.135-4.057,2.748c-1.244,1.237-2.295,2.25-2.336,2.25c-0.042,0-0.684-0.308-1.426-0.684
			c-1.522-0.772-3.043-1.396-4.594-1.883l-1.056-0.332l-0.027-3.351l-0.027-3.351l-0.249-0.514c-0.32-0.652-1.07-1.346-1.754-1.622
			L91.208,49.324L91.208,49.324z"/>
	</g>
	<path id="path19" fill="#FF0000" d="M84.591,101.827c-0.825-0.087-2.368-0.421-3.141-0.677c-4.978-1.651-8.591-5.78-9.632-11.008
		c-0.287-1.447-0.287-3.74,0.002-5.19c1.176-5.909,5.569-10.301,11.485-11.481c1.435-0.285,3.731-0.284,5.185,0.002
		c3.93,0.777,7.199,2.959,9.368,6.252c3.132,4.756,3.132,10.895,0,15.651c-2.153,3.27-5.464,5.485-9.314,6.237
		C87.591,101.799,85.426,101.916,84.591,101.827L84.591,101.827z M87.816,98.594c2.256-0.394,4.414-1.51,6.014-3.11
		c1.602-1.601,2.718-3.758,3.11-6.014c0.173-0.989,0.173-2.851,0-3.839c-0.811-4.652-4.36-8.227-9.054-9.117
		c-0.983-0.187-2.994-0.187-3.978,0c-3.56,0.676-6.45,2.846-8.046,6.037c-0.797,1.596-1.144,3.112-1.144,4.999
		c0,1.913,0.349,3.407,1.174,5.049c1.592,3.158,4.538,5.36,8.014,5.99C84.84,98.757,86.863,98.761,87.816,98.594L87.816,98.594z"/>
	<polygon fill="#FF0000" points="-27.407,80.003 -27.407,80.003 -27.407,80.003 	"/>
</g>
</svg>
