<?xml version="1.0" encoding="utf-8"?>
<!-- Generator: Adobe Illustrator 16.0.0, SVG Export Plug-In . SVG Version: 6.00 Build 0)  -->
<!DOCTYPE svg PUBLIC "-//W3C//DTD SVG 1.1//EN" "http://www.w3.org/Graphics/SVG/1.1/DTD/svg11.dtd">
<svg version="1.1" id="Calque_1" xmlns="http://www.w3.org/2000/svg" xmlns:xlink="http://www.w3.org/1999/xlink" x="0px" y="0px"
	 width="128px" height="128px" viewBox="0 0 128 128" enable-background="new 0 0 128 128" xml:space="preserve">
<g id="Calque_2" display="none">
</g>
<g>
	<path fill="none" stroke="#FF0000" stroke-width="5" stroke-linecap="round" stroke-linejoin="round" stroke-miterlimit="10" d="
		M66.684,74.294v17.958c0,0,0.57-3.925-18.396-19.055"/>
	<path fill="none" stroke="#FF0000" stroke-width="5" stroke-linecap="round" stroke-linejoin="round" stroke-miterlimit="10" d="
		M103.479,71.66C84.513,86.788,83.175,92.252,83.175,92.252V58.045h7.249L74.929,36.967"/>
	<path fill="none" stroke="#FF0000" stroke-width="5" stroke-linecap="round" stroke-linejoin="round" stroke-miterlimit="10" d="
		M26.004,75.148l6.934,17.701l3.581-5.762l0.942,0.546c0,0,12.771,3.98,29.333,29.107v6.196"/>
	<path fill="none" stroke="#FF0000" stroke-width="5" stroke-linecap="round" stroke-linejoin="round" stroke-miterlimit="10" d="
		M103.673,71.538l-3.136-5.045l25.854,2.176l-9.471,24.183l-3.582-5.761l-0.941,0.545c0,0-12.769,3.98-29.333,29.105v6.198"/>
</g>
<path fill="#FF0000" d="M66.404,1.222H4.155c-1.657,0-3,1.343-3,3v62.25c0,1.656,1.343,3,3,3h62.25c1.658,0,3-1.344,3-3V4.222
	C69.404,2.565,68.063,1.222,66.404,1.222z M16.384,54.794c-2.768,0-5.011-2.242-5.011-5.01s2.243-5.01,5.011-5.01
	c2.767,0,5.01,2.242,5.01,5.01S19.151,54.794,16.384,54.794z M16.384,39.557c-2.768,0-5.011-2.243-5.011-5.01
	c0-2.768,2.243-5.011,5.011-5.011c2.767,0,5.01,2.243,5.01,5.011C21.394,37.314,19.151,39.557,16.384,39.557z M16.384,24.319
	c-2.768,0-5.011-2.243-5.011-5.01c0-2.768,2.243-5.011,5.011-5.011c2.767,0,5.01,2.243,5.01,5.011
	C21.394,22.076,19.151,24.319,16.384,24.319z M55.012,53.943H31.284c-2.305,0-4.174-1.87-4.174-4.176s1.869-4.176,4.174-4.176
	h23.728c2.305,0,4.174,1.87,4.174,4.176S57.316,53.943,55.012,53.943z M55.012,38.705H31.284c-2.305,0-4.174-1.869-4.174-4.176
	c0-2.305,1.869-4.175,4.174-4.175h23.728c2.305,0,4.174,1.87,4.174,4.175C59.186,36.835,57.316,38.705,55.012,38.705z
	 M55.012,23.467H31.284c-2.305,0-4.174-1.87-4.174-4.175s1.869-4.175,4.174-4.175h23.728c2.305,0,4.174,1.87,4.174,4.175
	S57.316,23.467,55.012,23.467z"/>
</svg>
