<?xml version="1.0" encoding="utf-8"?>
<!-- Generator: Adobe Illustrator 16.0.0, SVG Export Plug-In . SVG Version: 6.00 Build 0)  -->
<!DOCTYPE svg PUBLIC "-//W3C//DTD SVG 1.1//EN" "http://www.w3.org/Graphics/SVG/1.1/DTD/svg11.dtd">
<svg version="1.1" id="Calque_2" xmlns="http://www.w3.org/2000/svg" xmlns:xlink="http://www.w3.org/1999/xlink" x="0px" y="0px"
	 width="128px" height="128px" viewBox="0 0 128 128" enable-background="new 0 0 128 128" xml:space="preserve">
<g>
	<path fill="none" stroke="#FF0000" stroke-width="5" stroke-miterlimit="10" d="M63.423,29.402
		c-25.619,0-47.973,13.925-59.946,34.609c11.972,20.687,34.326,34.615,59.946,34.615c25.617,0,47.972-13.931,59.944-34.615
		C111.395,43.327,89.04,29.402,63.423,29.402z"/>
</g>
<g>
	<path fill="none" stroke="#FF0000" stroke-width="5" stroke-linecap="round" stroke-linejoin="round" stroke-miterlimit="10" d="
		M63.422,88.873C49.709,88.829,38.606,77.7,38.606,63.978c0-13.721,11.104-24.851,24.815-24.894
		c13.712,0.043,24.815,11.172,24.815,24.894C88.237,77.7,77.134,88.829,63.422,88.873z"/>
	<path fill="none" stroke="#FF0000" stroke-width="5" stroke-linecap="round" stroke-linejoin="round" stroke-miterlimit="10" d="
		M63.422,88.829c-8.32-4.472-14.061-14.984-14.061-24.851S55.102,43.6,63.422,39.127c8.319,4.473,14.06,14.984,14.06,24.851
		S71.741,84.357,63.422,88.829z"/>
	
		<line fill="none" stroke="#FF0000" stroke-width="5" stroke-linecap="round" stroke-linejoin="round" stroke-miterlimit="10" x1="38.606" y1="63.978" x2="88.237" y2="63.978"/>
	
		<line fill="none" stroke="#FF0000" stroke-width="5" stroke-linecap="round" stroke-linejoin="round" stroke-miterlimit="10" x1="63.422" y1="39.084" x2="63.422" y2="88.829"/>
</g>
</svg>
