<?xml version="1.0" encoding="utf-8"?>
<!-- Generator: Adobe Illustrator 16.0.0, SVG Export Plug-In . SVG Version: 6.00 Build 0)  -->
<!DOCTYPE svg PUBLIC "-//W3C//DTD SVG 1.1//EN" "http://www.w3.org/Graphics/SVG/1.1/DTD/svg11.dtd">
<svg version="1.1" xmlns="http://www.w3.org/2000/svg" xmlns:xlink="http://www.w3.org/1999/xlink" x="0px" y="0px" width="128px"
	 height="128px" viewBox="0 0 128 128" enable-background="new 0 0 128 128" xml:space="preserve">
<g id="Calque_3">
	<g>
		<path fill="none" stroke="#FF0000" stroke-width="5" stroke-linecap="round" stroke-linejoin="round" stroke-miterlimit="10" d="
			M61.137,96.43l14.224,7.816L114.76,79.87c0.458-0.285,0.984-0.434,1.518-0.434c1.914,0,3.587,1.304,4.049,3.16l0.402,1.593
			c0.512,2.064-0.26,4.228-1.968,5.496l-41.64,30.923c-1.162,0.867-2.472,1.506-3.87,1.892l-1.968,0.546
			c-1.328,0.373-2.738,0.337-4.043-0.097l-41.272-13.69c-1.879-0.622-3.936-0.473-5.708,0.416l-13.146,6.447"/>
		<path fill="none" stroke="#FF0000" stroke-width="5" stroke-linecap="round" stroke-linejoin="round" stroke-miterlimit="10" d="
			M10.455,89.037L36.968,80c1.114-0.373,2.299-0.485,3.46-0.338l45.528,5.768c2.058,0.26,3.532,2.093,3.354,4.154l-0.213,2.471
			c-0.195,2.217-2.027,3.929-4.256,3.972L61.137,96.43l-9.56-0.34"/>
		<path fill="none" stroke="#FF0000" stroke-width="5" stroke-linecap="round" stroke-linejoin="round" stroke-miterlimit="10" d="
			M84.072,85.189l17.685-7.018c0.95-0.336,1.988-0.337,2.942-0.003l0,0c2.171,0.76,3.624,2.81,3.624,5.109v0.573"/>
	</g>
	<g id="Calque_2">
	</g>
</g>
<g id="Calque_2_1_">
	<g id="Calque_1_1_" xmlns:serif="http://www.serif.com/">
		<g id="path17">
			<path fill="none" stroke="#FF0000" stroke-width="5" stroke-linecap="round" stroke-linejoin="round" stroke-miterlimit="10" d="
				M18.913,71.597l-3.639-0.029l-5.605-0.044l-4.353-0.035c-0.073-0.071-0.148-0.159-0.201-0.229V55.347
				c0.052-0.071,0.127-0.158,0.2-0.23l4.357-0.036l5.6-0.046l3.655-0.029l1.081-3.492l0.476-1.535c0.666-2.152,1.964-5.3,3.02-7.32
				l1.103-2.108l1.695-3.241l-2.574-2.597l-3.812-3.846c-1.183-1.193-2.614-2.638-3.195-3.343v-0.054
				c0.752-0.899,2.75-2.879,5.38-5.486l0.268-0.265c2.719-2.695,4.941-4.898,5.929-5.707c0.727,0.611,2.146,2.027,3.229,3.106
				c4.331,4.316,5.232,5.214,7.528,5.214c1.113,0,2.211-0.341,3.128-0.96c0.238-0.13,0.804-0.43,1.635-0.846
				c2.105-1.052,4.482-2.015,6.695-2.71l1.761-0.554l3.469-1.092l0.03-3.637l0.046-5.598l0.036-4.365
				c0.068-0.07,0.149-0.142,0.215-0.189h15.913"/>
			<path fill="none" stroke="#FF0000" stroke-width="5" stroke-linecap="round" stroke-linejoin="round" stroke-miterlimit="10" d="
				M71.982,4.379c0.07,0.052,0.158,0.127,0.23,0.2l0.035,4.354l0.047,5.598l0.029,3.637l3.471,1.091l1.76,0.554
				c2.346,0.737,4.605,1.665,6.916,2.836c2.617,1.326,3.318,1.682,4.643,1.682c2.188,0,2.584-0.394,7.43-5.214
				c1.104-1.099,2.561-2.547,3.268-3.134h0.063c0.896,0.752,2.875,2.746,5.477,5.371l0.27,0.272c2.795,2.822,4.92,4.965,5.709,5.933
				c-0.605,0.724-2.041,2.163-3.135,3.259l-3.785,3.797l-2.535,2.542l1.602,3.214l1.223,2.452c1.232,2.48,2.078,4.559,2.832,6.947
				l0.553,1.761l1.09,3.472l3.641,0.03l5.6,0.046l4.354,0.036c0.072,0.073,0.147,0.161,0.199,0.233v12.908"/>
		</g>
		<path id="path19_2_" fill="none" stroke="#FF0000" stroke-width="5" stroke-miterlimit="10" d="M40.495,67.567
			c-0.481-2.418-0.48-6.247,0.002-8.671c1.965-9.871,9.304-17.207,19.187-19.178c2.396-0.478,6.232-0.476,8.66,0.003
			c6.564,1.297,12.027,4.943,15.65,10.443c3.771,5.729,4.823,12.659,3.156,19.059"/>
	</g>
</g>
</svg>
