<?xml version="1.0" encoding="utf-8"?>
<!-- Generator: Adobe Illustrator 16.0.0, SVG Export Plug-In . SVG Version: 6.00 Build 0)  -->
<!DOCTYPE svg PUBLIC "-//W3C//DTD SVG 1.1//EN" "http://www.w3.org/Graphics/SVG/1.1/DTD/svg11.dtd">
<svg version="1.1" xmlns="http://www.w3.org/2000/svg" xmlns:xlink="http://www.w3.org/1999/xlink" x="0px" y="0px" width="128px"
	 height="128px" viewBox="0 0 128 128" enable-background="new 0 0 128 128" xml:space="preserve">
<g id="Calque_1" xmlns:serif="http://www.serif.com/">
	<g id="Calque_1_1_">
		<g id="Calque_2" display="none">
			<g display="inline">
				<path fill="#FFFFFF" d="M63.518,82.317c6.719,0,11.104-9.238,11.829-18.679H53.57c-0.606,0.076-1.227,0.142-1.867,0.179
					C52.471,73.195,56.842,82.317,63.518,82.317z"/>
				<path fill="#FFFFFF" d="M83.425,89.933l-6.89-2.515l-11.021,6.245l-4.24-0.064l-11.074-6.178l-6.833,2.514
					c-1.076,0.52-13.851,7.027-13.089,23.647c0.386,0.61,2.261,2.933,8.235,2.982c-0.188-3.147-0.513-10.169-0.111-16.322
					l3.384,0.222c-0.433,6.633,0.023,14.564,0.175,16.857c3.927,3.477,12.146,5.587,21.645,5.504
					c9.27-0.066,17.488-2.212,21.256-5.502c0.141-2.342,0.56-10.447,0.105-16.966l3.383-0.236
					c0.426,6.078,0.129,13.257-0.045,16.442c5.906-0.053,7.791-2.334,8.209-2.993C97.264,96.98,84.531,90.468,83.425,89.933z"/>
				<path fill="#FFFFFF" d="M42.612,63.639h4.447c0,0.002,0,0.002,0,0.004c-0.932,2.014-1.266,5.476,3.192,9.915
					c2.411,6.918,6.899,12.151,13.266,12.151c6.241,0,10.847-5.344,13.306-12.436c4.17-4.312,3.815-7.666,2.902-9.637h4.451
					c0.867,0,1.57-0.703,1.57-1.569c0-0.867-0.703-1.571-1.57-1.571h-2.102c0.012-0.238,0.018-0.479,0.018-0.721
					c0-7.547-4.412-14.042-10.752-16.971c0.018,0.742,0.021,1.58,0.021,2.523v2.714c0,7.833-0.426,8.299-7.586,8.299
					c-7.162,0-7.586-0.466-7.586-8.299v-2.714c0-0.947,0.006-1.784,0.029-2.528c-6.341,2.931-10.756,9.428-10.756,16.978
					c0,0.244,0.021,0.481,0.033,0.721h-2.885c-0.867,0-1.57,0.704-1.57,1.571C41.042,62.936,41.746,63.639,42.612,63.639z
					 M53.57,63.639h21.775c-0.727,9.439-5.109,18.679-11.83,18.679c-6.676,0-11.047-9.122-11.814-18.5
					C52.343,63.78,52.963,63.715,53.57,63.639z"/>
				<path fill="#FFFFFF" d="M84.789,86.827L74.64,83.116l-9.051,5.295h-4.444l-9.053-5.301l-9.968,3.665L42,86.826
					c-0.163,0.074-16.201,7.694-15.094,27.289l0.016,0.254l0.085,0.235c0.085,0.229,2.078,5.356,11.697,5.356
					c0.357,0,0.728-0.01,1.107-0.024c4.559,3.957,13.142,6.283,23.33,6.283c0.162,0,0.324-0.002,0.487-0.002
					c7.991-0.056,18.138-1.752,23.388-6.279c10.537,0.39,12.674-5.096,12.764-5.336l0.086-0.233l0.017-0.254
					C100.986,94.522,84.951,86.901,84.789,86.827z M96.512,113.57c-0.418,0.66-2.304,2.94-8.209,2.993
					c0.174-3.187,0.471-10.363,0.047-16.441l-3.385,0.235c0.455,6.519,0.036,14.625-0.104,16.966
					c-3.768,3.291-11.986,5.436-21.256,5.502c-9.498,0.083-17.719-2.027-21.646-5.504c-0.152-2.295-0.608-10.225-0.176-16.857
					l-3.384-0.222c-0.402,6.151-0.077,13.174,0.111,16.322c-5.975-0.048-7.849-2.371-8.235-2.981
					c-0.76-16.621,12.014-23.132,13.09-23.648l6.832-2.512l11.074,6.176l4.241,0.064l11.022-6.245l6.89,2.515
					C84.531,90.468,97.264,96.98,96.512,113.57z"/>
				<path fill="#FFFFFF" d="M69.438,42.051c-0.062-1.259-0.201-2.097-0.55-2.489c-0.552-0.617-2.215-0.647-5.108-0.647
					c-2.854,0-4.566,0-5.117,0.609c-0.348,0.386-0.486,1.237-0.543,2.527c1.781-0.588,3.682-0.911,5.656-0.911
					C65.753,41.139,67.654,41.461,69.438,42.051z"/>
				<path fill="#FFFFFF" d="M58.076,48.042c0,3.215,0,5.155,0.588,5.806c0.55,0.608,2.267,0.608,5.113,0.608
					c2.848,0,4.563,0,5.112-0.608c0.589-0.65,0.589-2.59,0.589-5.806v-2.714c0-1.311-0.003-2.395-0.045-3.277
					c-1.781-0.588-3.684-0.911-5.66-0.911c-1.976,0-3.875,0.322-5.658,0.911c-0.039,0.885-0.043,1.971-0.043,3.277v2.714H58.076z"/>
			</g>
		</g>
		<g id="Calque_3" display="none">
			<g display="inline">
				<path fill="#FFFFFF" d="M74.07,61.403c2.701-12.93-5.551-20.22-16.293-20.22c-19.254,0-15.895,21.097-15.895,21.097
					c0.021,0.003,0.042,0.003,0.062,0.005c-0.879,1.988-1.139,5.326,3.036,9.582c2.384,6.978,6.875,12.276,13.267,12.276
					c6.156,0,10.71-5.225,13.174-12.189C76.393,66.941,75.218,63.195,74.07,61.403z M58.246,80.769
					c-6.643,0-10.994-9.078-11.758-18.41c8.352-0.491,13.879-4.447,16.852-7.351c1.414,2.541,4.339,4.246,6.773,5.285
					C69.869,70.304,65.379,80.769,58.246,80.769z"/>
			</g>
			<g display="inline">
				<path fill="#FFFFFF" d="M54.545,119.894c-0.578-0.18-1.059-0.633-1.243-1.243l-9.751-32.179c-0.166-0.549-0.07-1.115,0.22-1.563
					l-6.06,2.229c-0.881,0.424-14.895,7.461-13.905,25.306c0.158,0.366,1.949,4.08,9.868,4.08c0.328-0.001,0.675-0.013,1.027-0.023
					c0.025-0.001,0.051-0.003,0.075-0.003c0.451,0,0.888,0.163,1.229,0.46c3.661,3.179,10.42,5.231,18.481,5.694l-0.14-0.145
					L54.545,119.894z"/>
				<path fill="#FFFFFF" d="M78.804,87.152l-5.956-2.19c0.286,0.448,0.383,1.014,0.217,1.559l-9.855,32.529
					c-0.184,0.608-0.661,1.06-1.237,1.24l0.169,2.219l-0.1,0.102c6.773-0.458,14.369-2.107,18.486-5.653
					c0.357-0.312,0.817-0.462,1.293-0.454c0.34,0.012,0.674,0.021,0.994,0.021c7.871-0.001,9.689-3.672,9.868-4.082
					C93.662,94.81,79.99,87.732,78.804,87.152z"/>
				<path fill="#FFFFFF" d="M80.314,83.718c-0.045-0.021-0.086-0.039-0.133-0.055l-9.688-3.564c-0.947-0.351-2,0.113-2.383,1.047
					l-1.283,3.123c-0.191,0.474-0.188,1,0.018,1.47c0.207,0.466,0.594,0.83,1.071,1.004l1.044,0.385l-6.278,20.724l-0.646-11.295
					c-0.01-0.17-0.043-0.338-0.098-0.492l1.733-2.458c0.323-0.462,0.424-1.044,0.272-1.587c-0.033-0.113-0.039-0.133-1.215-3.18
					c-0.297-0.771-1.056-1.25-1.873-1.197c-0.197,0.008-1.156,0.013-2.613,0.013c-1.459,0-2.418-0.005-2.615-0.013
					c-0.813-0.063-1.573,0.424-1.872,1.191c-1.444,3.717-1.444,3.717-1.13,4.438c0.051,0.117,0.113,0.229,0.188,0.334l1.732,2.457
					c-0.053,0.158-0.085,0.322-0.096,0.494l-0.623,10.897l-6.174-20.374l0.932-0.342c0.479-0.176,0.865-0.54,1.07-1.008
					c0.205-0.467,0.209-0.998,0.016-1.473l-1.293-3.121c-0.387-0.93-1.438-1.39-2.381-1.041l-9.569,3.518
					c-0.023,0.007-0.045,0.015-0.066,0.025l-0.124,0.049c-0.023,0.013-0.046,0.021-0.068,0.031
					c-0.172,0.078-17.283,8.168-16.109,28.967l0.014,0.252c0.01,0.187,0.048,0.365,0.111,0.541l0.085,0.232
					c0.247,0.672,2.712,6.563,13.404,6.563c0.146,0,0.296-0.003,0.448-0.005c5.016,3.968,13.647,6.229,23.86,6.229h0.008
					l0.498-0.002c3.848-0.026,16.688-0.565,23.906-6.228c0.139,0.002,0.279,0.004,0.416,0.004c10.704-0.002,13.156-5.896,13.4-6.566
					l0.085-0.234c0.063-0.17,0.103-0.351,0.11-0.531l0.015-0.254C97.604,91.859,80.486,83.795,80.314,83.718z M54.348,92.38
					c-0.007-0.015,1.158-3.011,1.158-3.011c0.137,0.021,5.342,0.021,5.479,0c0,0,1.146,2.964,1.156,3.011l-1.852,2.629h-4.088
					L54.348,92.38z M92.683,112.441c-0.179,0.411-1.997,4.081-9.868,4.082c-0.318,0-0.654-0.011-0.994-0.021
					c-0.475-0.008-0.936,0.144-1.293,0.454c-4.117,3.546-11.713,5.195-18.486,5.653l-3.795,2.426l-3.758-2.384
					c-8.063-0.462-14.822-2.516-18.482-5.694c-0.342-0.297-0.778-0.46-1.229-0.46c-0.024,0-0.051,0.002-0.075,0.003
					c-0.352,0.015-0.699,0.021-1.027,0.022c-7.919,0-9.71-3.713-9.868-4.079c-0.989-17.845,13.024-24.882,13.905-25.306l6.06-2.229
					c-0.29,0.448-0.386,1.016-0.22,1.563l9.751,32.18c0.186,0.609,0.666,1.063,1.243,1.242l1.778-23.373h3.841l1.806,23.769
					c0.577-0.181,1.055-0.633,1.237-1.241l9.856-32.527c0.166-0.545,0.07-1.11-0.219-1.56l5.958,2.19
					C79.99,87.732,93.662,94.81,92.683,112.441z"/>
				<path fill="#FFFFFF" d="M59.316,93.274l0.717-1.018c-0.105-0.27-0.221-0.57-0.332-0.855c-0.377,0-0.853,0-1.455,0
					c-0.606,0-1.084,0-1.461,0c-0.118,0.309-0.232,0.6-0.332,0.854l0.721,1.021L59.316,93.274L59.316,93.274z"/>
				<path fill="#FFFFFF" d="M60.289,95.009l1.851-2.629c-0.013-0.047-1.157-3.011-1.157-3.011c-0.135,0.021-5.34,0.021-5.477,0
					c0,0-1.165,2.996-1.159,3.011l1.854,2.629H60.289z"/>
			</g>
			<g display="inline">
				<path fill="#FFFFFF" d="M82.41,52.884c0,0.362-0.293,0.656-0.654,0.656h-2.869c-0.361,0-0.654-0.294-0.654-0.656v-2.868
					c0-0.362,0.293-0.656,0.654-0.656h2.869c0.361,0,0.654,0.293,0.654,0.656V52.884z"/>
				<path fill="#FFFFFF" d="M88.517,52.884c0,0.362-0.292,0.656-0.655,0.656h-2.869c-0.361,0-0.654-0.294-0.654-0.656v-2.868
					c0-0.362,0.293-0.656,0.654-0.656h2.869c0.363,0,0.655,0.293,0.655,0.656V52.884z"/>
				<path fill="#FFFFFF" d="M94.581,52.884c0,0.362-0.294,0.656-0.655,0.656h-2.868c-0.362,0-0.655-0.294-0.655-0.656v-2.868
					c0-0.362,0.293-0.656,0.655-0.656h2.868c0.361,0,0.655,0.293,0.655,0.656V52.884z"/>
			</g>
			<g display="inline">
				<path fill="#FFFFFF" d="M74.844,60.666c0,0.292-0.009,0.582-0.02,0.871h6.31v7.728l6.293-7.728h16.999V41.361H68.389v3.266
					C72.338,48.495,74.844,54.242,74.844,60.666z"/>
				<path fill="#FFFFFF" d="M105.789,37.79H67.025c-1.238,0-2.207,1.043-2.207,2.375v2.516c1.285,0.754,2.482,0.88,3.57,1.947
					v-3.267h36.035v20.176H87.427l-6.293,7.728v-7.728l-7.063-0.134c-0.043,1.22,0.578,2.546,0.361,3.705h3.131v14.195
					l11.563-14.195h16.664c1.237,0,2.206-1.044,2.206-2.375V40.166C107.994,38.834,107.027,37.79,105.789,37.79z"/>
			</g>
		</g>
		<path fill="#FFFFFF" stroke="#FF0000" stroke-width="5" stroke-miterlimit="10" d="M78.455,60c0,4.173-1.039,8.031-2.799,11.156
			c-2.633,4.674-6.877,9.794-11.664,9.794c-4.709,0-8.894-5.021-11.532-9.566c-1.841-3.164-2.931-7.106-2.931-11.383
			c0-10.418,6.476-14.975,14.463-14.975C71.979,45.026,78.455,49.582,78.455,60z"/>
	</g>
	<g id="Calque_2_1_">
		<path fill="#FFFFFF" stroke="#FF0000" stroke-width="5" stroke-miterlimit="10" d="M52.387,83.733c0,0,3.582,7.021,11.454,7.021
			c7.873,0,11.162-7.021,11.162-7.021s25.95,6.303,25.95,29.488c0,0-6.666,6.006-12.618,3.389c0,0-6.062,5.951-24.343,5.951
			c-18.28,0-23.748-5.713-23.748-5.713s-7.142,0.713-11.904-4.049C28.342,112.802,26.438,90.519,52.387,83.733z"/>
		<path fill="#FFFFFF" stroke="#FF0000" stroke-width="5" stroke-miterlimit="10" d="M39.28,105.367c0,0-0.701,4.815,0.966,11.481"
			/>
		<path fill="#FFFFFF" stroke="#FF0000" stroke-width="5" stroke-miterlimit="10" d="M88.385,105.367c0,0,0.189,4.101-0.049,11.243"
			/>
	</g>
	<path id="path19_1_" fill="none" stroke="#FF0000" stroke-width="5" stroke-miterlimit="10" d="M36.847,80.946
		c-2.108-3.356-3.626-7.146-4.44-11.235c-0.644-3.235-0.643-8.358,0.002-11.601c2.629-13.206,12.448-23.021,25.67-25.658
		c3.206-0.64,8.338-0.637,11.586,0.004c8.782,1.736,16.091,6.613,20.938,13.971c6.996,10.63,6.996,24.35,0,34.981"/>
	<g id="Calque_2_2_">
	</g>
</g>
<g id="Calque_2_3_">
	<path fill="none" stroke="#FF0000" stroke-width="5" stroke-linecap="round" stroke-linejoin="round" stroke-miterlimit="10" d="
		M22.24,105.523l-0.183-0.186c-2.644-2.646-4.66-4.669-5.446-5.605c0.614-0.729,2.048-2.168,3.141-3.266l3.788-3.801l2.536-2.544
		l-1.602-3.216l-1.22-2.448c-1.243-2.495-2.091-4.571-2.836-6.943l-0.553-1.761l-1.09-3.473l-3.639-0.029l-5.605-0.044l-4.353-0.035
		c-0.073-0.071-0.148-0.159-0.201-0.229V56.032c0.052-0.072,0.127-0.159,0.2-0.231l4.357-0.036l5.6-0.046l3.655-0.03l1.081-3.491
		l0.476-1.536c0.666-2.152,1.964-5.3,3.02-7.32l1.103-2.108l1.695-3.241l-2.574-2.597l-3.812-3.846
		c-1.183-1.193-2.614-2.638-3.195-3.343v-0.054c0.752-0.899,2.75-2.879,5.38-5.486l0.268-0.265c2.719-2.695,4.941-4.898,5.929-5.707
		c0.727,0.611,2.146,2.027,3.229,3.106c4.331,4.316,5.232,5.214,7.528,5.214c1.113,0,2.211-0.341,3.128-0.96
		c0.238-0.13,0.804-0.43,1.635-0.846c2.105-1.052,4.482-2.015,6.695-2.71l1.761-0.554l3.469-1.092l0.03-3.637l0.046-5.598
		l0.036-4.365c0.068-0.07,0.149-0.142,0.215-0.189h15.913"/>
	<path fill="none" stroke="#FF0000" stroke-width="5" stroke-linecap="round" stroke-linejoin="round" stroke-miterlimit="10" d="
		M71.845,5.064c0.07,0.052,0.158,0.127,0.23,0.2l0.035,4.354l0.047,5.598l0.029,3.637l3.471,1.091l1.76,0.554
		c2.346,0.737,4.605,1.665,6.916,2.836c2.617,1.326,3.318,1.682,4.643,1.682c2.188,0,2.584-0.394,7.43-5.214
		c1.104-1.099,2.561-2.547,3.268-3.134h0.063c0.896,0.752,2.875,2.746,5.477,5.371l0.27,0.272c2.795,2.822,4.92,4.965,5.709,5.933
		c-0.605,0.724-2.041,2.163-3.135,3.259l-3.785,3.797l-2.535,2.542l1.602,3.214l1.223,2.452c1.232,2.48,2.078,4.558,2.832,6.947
		l0.553,1.761l1.09,3.472l3.641,0.03l5.6,0.046l4.354,0.036c0.072,0.073,0.147,0.161,0.199,0.233v15.909
		c-0.052,0.071-0.127,0.158-0.199,0.231l-4.362,0.035l-5.605,0.047l-3.676,0.031l-1.065,3.519l-0.396,1.311
		c-0.736,2.434-2.313,6.139-3.666,8.611l-0.563,1.027l-1.799,3.282l2.644,2.649l3.854,3.862c1.531,1.538,2.578,2.646,3.142,3.271
		c-0.761,0.9-2.854,3-5.614,5.765l-0.218,0.218"/>
</g>
</svg>
