<?xml version="1.0" encoding="utf-8"?>
<!-- Generator: Adobe Illustrator 16.0.0, SVG Export Plug-In . SVG Version: 6.00 Build 0)  -->
<!DOCTYPE svg PUBLIC "-//W3C//DTD SVG 1.1//EN" "http://www.w3.org/Graphics/SVG/1.1/DTD/svg11.dtd">
<svg version="1.1" id="Calque_1" xmlns="http://www.w3.org/2000/svg" xmlns:xlink="http://www.w3.org/1999/xlink" x="0px" y="0px"
	 width="128px" height="128px" viewBox="0 0 128 128" enable-background="new 0 0 128 128" xml:space="preserve">
<g id="Calque_2" display="none">
	<g display="inline">
		<path fill="none" d="M65.085,64.747c9.406,0,15.547-12.935,16.563-26.153h-30.49c-0.851,0.106-1.718,0.198-2.616,0.25
			C49.617,51.975,55.738,64.747,65.085,64.747z"/>
		<path fill="none" d="M92.959,75.411l-9.646-3.521L67.88,80.636l-5.938-0.091l-15.506-8.65l-9.566,3.521
			c-1.507,0.729-19.394,9.841-18.328,33.11c0.541,0.854,3.165,4.105,11.531,4.177c-0.264-4.405-0.719-14.237-0.156-22.854
			l4.739,0.312c-0.606,9.284,0.032,20.393,0.246,23.604c5.498,4.866,17.007,7.821,30.305,7.706
			c12.979-0.095,24.488-3.097,29.764-7.702c0.194-3.279,0.781-14.629,0.146-23.757l4.738-0.329
			c0.595,8.51,0.179,18.563-0.063,23.021c8.269-0.072,10.908-3.269,11.493-4.19C112.336,85.279,94.51,76.16,92.959,75.411z"/>
		<path fill="#FF0000" d="M42.041,37.594c0,0.002,0,1.004,0,1.006c-1.305,2.819-1.772,7.667,4.469,13.882
			c3.377,9.688,9.662,17.016,18.575,17.016c8.739,0,15.188-7.482,18.631-17.413c5.837-6.035,5.343-11.733,4.063-14.491H42.041z
			 M81.646,38.594c-1.019,13.218-7.155,26.153-16.563,26.153c-9.347,0-15.468-12.772-16.543-25.903L81.646,38.594z"/>
		<path fill="#FF0000" d="M94.869,71.063l-14.21-5.194l-12.675,7.411h-6.221l-12.676-7.422L35.13,70.989l-0.173,0.071
			c-0.229,0.104-22.684,10.772-21.134,38.211l0.021,0.354l0.12,0.331c0.119,0.321,2.909,7.502,16.378,7.502
			c0.5,0,1.019-0.015,1.55-0.035c6.384,5.541,18.402,8.797,32.667,8.797c0.229,0,0.455-0.002,0.685-0.003
			c11.188-0.078,25.396-2.453,32.745-8.793c14.756,0.546,17.746-7.134,17.869-7.469l0.123-0.33l0.021-0.354
			C117.55,81.837,95.096,71.166,94.869,71.063z M111.283,108.508c-0.586,0.924-3.227,4.118-11.493,4.19
			c0.241-4.46,0.657-14.511,0.065-23.021l-4.74,0.331c0.637,9.127,0.05,20.477-0.146,23.754c-5.273,4.608-16.783,7.61-29.763,7.705
			c-13.298,0.115-24.808-2.84-30.305-7.707c-0.213-3.213-0.852-14.316-0.246-23.604l-4.739-0.311
			c-0.563,8.612-0.108,18.444,0.156,22.854c-8.366-0.067-10.99-3.319-11.531-4.174c-1.065-23.272,16.821-32.392,18.328-33.113
			l9.566-3.518l15.506,8.647l5.938,0.091l15.434-8.744l9.646,3.521C94.51,76.16,112.336,85.279,111.283,108.508z"/>
	</g>
	<path display="inline" fill="#FFFFFF" d="M18.496,121.471"/>
</g>
<g id="Calque_5" display="none">
	<g display="inline">
		<path fill="#FF0000" d="M87.629,39.398h6.232c1.215,0,2.199-0.984,2.199-2.199c0-1.214-0.984-2.199-2.199-2.199H90.92
			c0.016-0.334,0.023-0.671,0.023-1.009c0-10.568-6.178-19.661-15.055-23.763c0.024,1.039,0.03,2.212,0.03,3.533v3.8
			c0,10.968-0.597,11.62-10.622,11.62c-10.028,0-10.623-0.652-10.623-11.62v-3.8c0-1.326,0.009-2.498,0.042-3.54
			c-8.881,4.101-15.063,13.198-15.063,23.77c0,0.341,0.03,0.673,0.046,1.009H35.66c-1.214,0-2.199,0.985-2.199,2.199
			c0.001,1.214,0.986,2.199,2.2,2.199h6.227c0,0.002,0,0.004,0,0.006L87.629,39.398z"/>
		<path fill="#FF0000" d="M73.223,9.171c-0.084-1.763-0.281-2.937-0.77-3.485c-0.77-0.865-3.1-0.907-7.153-0.907
			c-3.994,0-6.394,0-7.163,0.853c-0.487,0.541-0.682,1.733-0.763,3.539c0,0,0,0-0.001,0c-0.055,1.239-0.059,2.759-0.059,4.589v3.8
			h0.002c0,4.501,0,7.218,0.823,8.129c0.77,0.852,3.175,0.852,7.161,0.852c3.985,0,6.392,0,7.159-0.852
			c0.824-0.911,0.824-3.627,0.824-8.129v-3.8C73.283,11.925,73.279,10.407,73.223,9.171"/>
	</g>
</g>
<g id="Calque_4" display="none">
	
		<image display="inline" overflow="visible" enable-background="new    " width="1501" height="1343" xlink:href="C2C9DCCF.jpeg"  transform="matrix(0.9993 0 0 0.9993 -565 -516.6099)">
	</image>
</g>
<g>
	<path fill="#FF0000" d="M57.937,25.903L53.711,7.718c0,0-2.537-7.188,4.227-7.188c6.766,0,8.57,0,10.573,0
		c2.468,0,6.764,1.269,4.649,8.033c-2.113,6.769-4.228,17.337-4.228,17.337"/>
	<path fill="#FF0000" d="M76.967,8.141c14.377,4.232,19.874,29.075,19.874,29.075s5.499-0.741,5.499,5.261
		c0,6-5.919,5.188-5.919,5.188H30.874c0,0-6.343,1.075-6.343-5.27c0-6.344,6.343-5.073,6.343-5.073s1.268-19.031,19.03-29.181"/>
</g>
<path fill="none" stroke="#FF0000" stroke-width="5" stroke-linecap="round" stroke-linejoin="round" stroke-miterlimit="10" d="
	M64,124.886c-46.667,0-50.895-8.936-50.895-8.936s-5.705-28,30.629-37.5c0,0,5.86,9.936,20.146,9.936H64
	c14.285,0,20.146-9.936,20.146-9.936c36.334,9.5,30.629,37.5,30.629,37.5S110.667,124.886,64,124.886z"/>
<path fill="none" stroke="#FF0000" stroke-width="5" stroke-linecap="round" stroke-linejoin="round" stroke-miterlimit="10" d="
	M83.643,43.729c0,5.844-1.455,11.245-3.918,15.62c-3.687,6.545-9.629,13.713-16.332,13.713c-6.593,0-12.451-7.031-16.147-13.396
	c-2.574-4.43-4.102-9.951-4.102-15.938"/>
</svg>
