<?xml version="1.0" encoding="utf-8"?>
<!-- Generator: Adobe Illustrator 16.0.0, SVG Export Plug-In . SVG Version: 6.00 Build 0)  -->
<!DOCTYPE svg PUBLIC "-//W3C//DTD SVG 1.1//EN" "http://www.w3.org/Graphics/SVG/1.1/DTD/svg11.dtd">
<svg version="1.1" id="Calque_1" xmlns="http://www.w3.org/2000/svg" xmlns:xlink="http://www.w3.org/1999/xlink" x="0px" y="0px"
	 width="128px" height="128px" viewBox="0 0 128 128" enable-background="new 0 0 128 128" xml:space="preserve">
<g id="Calque_1_1_">
</g>
<g>
	<path fill="none" stroke="#FF0000" stroke-width="5" stroke-miterlimit="10" d="M72.245,47.687l2.036,2.04
		c-1.717,4.503-0.763,9.793,2.866,13.422c2.576,2.576,5.989,3.804,9.364,3.685c0.646-0.023,1.122-0.425,1.409-1.021
		c0.484-1.008,0.229-2.218-0.561-3.009l-4.042-4.041c-0.727-0.726-0.727-1.903,0-2.631l4.653-4.652c0.727-0.727,1.904-0.727,2.63,0
		l4.044,4.044c0.786,0.787,1.991,1.046,3,0.573c0.595-0.28,0.999-0.747,1.022-1.387c0.144-3.695-1.329-7.436-4.416-10.081
		c-3.623-3.105-8.496-3.824-12.698-2.198l-3.508-3.513"/>
	<path fill="none" stroke="#FF0000" stroke-width="5" stroke-miterlimit="10" d="M65.381,26.226l-3.103-3.108
		c1.627-4.203,0.908-9.076-2.198-12.699C57.436,7.331,53.694,5.86,50,6.002c-0.639,0.024-1.107,0.429-1.387,1.023
		c-0.474,1.009-0.214,2.212,0.574,3l4.043,4.044c0.727,0.725,0.727,1.904,0,2.63l-4.653,4.653c-0.727,0.726-1.903,0.726-2.63,0
		l-4.042-4.041c-0.79-0.791-2-1.045-3.008-0.562c-0.596,0.286-0.998,0.764-1.021,1.41c-0.118,3.375,1.109,6.787,3.685,9.364
		c3.629,3.629,8.918,4.583,13.422,2.865l1.767,1.77"/>
	<g>
		<polyline fill="none" stroke="#FF0000" stroke-width="5" stroke-linejoin="round" stroke-miterlimit="10" points="70.506,29.708 
			83.836,16.292 85.042,11.333 93.135,5.938 98.125,10.929 92.865,19.157 87.693,20.335 74.363,33.75 		"/>
		<path fill="none" stroke="#FF0000" stroke-width="5" stroke-miterlimit="10" d="M73.062,39.856l-8.633-8.632l2.832-2.833
			c0.373-0.373,0.977-0.373,1.349,0l7.284,7.283c0.373,0.373,0.373,0.978,0,1.349L73.062,39.856z"/>
		<path fill="none" stroke="#FF0000" stroke-width="5" stroke-miterlimit="10" d="M40.459,64.022L40.459,64.022
			c-3.124-3.124-3.124-8.19,0-11.313l22.022-22.083c0.373-0.373,0.976-0.373,1.349,0l9.965,9.964c0.372,0.374,0.372,0.977,0,1.35
			L51.773,64.022C48.649,67.146,43.583,67.146,40.459,64.022z"/>
		<line fill="none" stroke="#FF0000" stroke-width="5" stroke-miterlimit="10" x1="64.834" y1="39.451" x2="46.866" y2="57.48"/>
	</g>
</g>
<g>
	<circle fill="none" stroke="#FF0000" stroke-width="5" stroke-miterlimit="10" cx="24.919" cy="78.611" r="9.793"/>
	<circle fill="none" stroke="#FF0000" stroke-width="5" stroke-miterlimit="10" cx="65.712" cy="78.611" r="9.794"/>
	<circle fill="none" stroke="#FF0000" stroke-width="5" stroke-miterlimit="10" cx="106.504" cy="78.611" r="9.794"/>
	<path fill="none" stroke="#FF0000" stroke-width="5" stroke-linejoin="round" stroke-miterlimit="10" d="M2.795,107.577
		l12.786-7.953l0,0l0,0c1.931,5.552,0.548,11.38-0.512,17.088l-1.253,6.751c-0.255,1.375,0.649,2.794,2.258,3.222
		c2.05,0.545,4.113-0.553,4.424-2.231l2.286-11.993c0.382-2.006,3.889-2.006,4.271,0l2.285,11.993
		c0.313,1.679,2.375,2.776,4.425,2.231c1.608-0.428,2.514-1.847,2.259-3.222l-1.254-6.751c-1.06-5.708-2.443-11.536-0.513-17.088
		l0,0l9.225-9.763h0.104l12.787,9.763l0,0l0,0c1.93,5.552,0.547,11.38-0.513,17.088l-1.253,6.751
		c-0.255,1.375,0.65,2.794,2.259,3.222c2.05,0.545,4.113-0.553,4.424-2.231l2.286-11.993c0.382-2.006,3.889-2.006,4.271,0
		l2.286,11.993c0.312,1.679,2.374,2.776,4.425,2.231c1.608-0.428,2.514-1.847,2.259-3.222l-1.254-6.751
		c-1.06-5.708-2.443-11.536-0.513-17.088l0,0l12.787-9.763h0.104l9.226,9.763l0,0l0,0c1.93,5.552,0.549,11.38-0.513,17.088
		l-1.253,6.751c-0.256,1.375,0.648,2.794,2.258,3.222c2.05,0.545,4.113-0.553,4.425-2.231l2.287-11.993
		c0.382-2.006,3.887-2.006,4.269,0l2.285,11.993c0.313,1.679,2.375,2.776,4.425,2.231c1.61-0.428,2.515-1.847,2.26-3.222
		l-1.255-6.751c-1.06-5.708-2.441-11.536-0.511-17.088l0,0l12.784,7.953"/>
</g>
</svg>
