<?xml version="1.0" encoding="utf-8"?>
<!-- Generator: Adobe Illustrator 16.0.0, SVG Export Plug-In . SVG Version: 6.00 Build 0)  -->
<!DOCTYPE svg PUBLIC "-//W3C//DTD SVG 1.1//EN" "http://www.w3.org/Graphics/SVG/1.1/DTD/svg11.dtd">
<svg version="1.1" id="Calque_1" xmlns="http://www.w3.org/2000/svg" xmlns:xlink="http://www.w3.org/1999/xlink" x="0px" y="0px"
	 width="128px" height="128px" viewBox="0 0 128 128" enable-background="new 0 0 128 128" xml:space="preserve">
<g id="Calque_2" display="none">
</g>
<g>
	<path fill="none" stroke="#FF0000" stroke-width="5" stroke-linecap="round" stroke-linejoin="round" stroke-miterlimit="10" d="
		M25.871,81.3c7.763,0,14.633,3.749,18.957,9.52c0.667-12.492,10.977-22.42,23.632-22.42c7.65,0,14.434,3.638,18.767,9.266
		c1.753-11.358,11.542-20.062,23.39-20.062c5.446,0,10.45,1.856,14.452,4.945c-9.674-22.706-32.193-38.629-58.435-38.629
		c-35.066,0-63.493,28.427-63.493,63.492c0,3.066,0.23,6.08,0.65,9.029C7.226,87.584,15.805,81.3,25.871,81.3z"/>
</g>
<path fill="none" stroke="#FF0000" stroke-width="5" stroke-linecap="round" stroke-linejoin="round" stroke-miterlimit="10" d="
	M84.359,26.44c-0.113-0.824-0.172-1.666-0.172-2.521c0-10.118,8.201-18.319,18.319-18.319c10.117,0,18.318,8.201,18.318,18.319
	c0,7.563-4.583,14.056-11.124,16.852"/>
<line fill="none" stroke="#FF0000" stroke-width="5" stroke-linecap="round" stroke-linejoin="round" stroke-miterlimit="10" x1="61.331" y1="69.498" x2="78.683" y2="126.247"/>
</svg>
