<?xml version="1.0" encoding="utf-8"?>
<!-- Generator: Adobe Illustrator 16.0.0, SVG Export Plug-In . SVG Version: 6.00 Build 0)  -->
<!DOCTYPE svg PUBLIC "-//W3C//DTD SVG 1.1//EN" "http://www.w3.org/Graphics/SVG/1.1/DTD/svg11.dtd">
<svg version="1.1" xmlns="http://www.w3.org/2000/svg" xmlns:xlink="http://www.w3.org/1999/xlink" x="0px" y="0px" width="128px"
	 height="128px" viewBox="0 0 128 128" enable-background="new 0 0 128 128" xml:space="preserve">
<g id="Calque_1">
	<g id="Calque_3" display="none">
		<g id="Icones" display="inline">
			<g id="Artboard" transform="translate(-1260.000000, -550.000000)">
				<g id="icone-signature-du-contrat-franchise" transform="translate(1249.000000, 539.000000)">
					<g id="Rectangle">
					</g>
					<defs>
						<filter id="Adobe_OpacityMaskFilter" filterUnits="userSpaceOnUse" x="8.244" y="4.833" width="127.507" height="130.113">
							<feColorMatrix  type="matrix" values="1 0 0 0 0  0 1 0 0 0  0 0 1 0 0  0 0 0 1 0"/>
						</filter>
					</defs>
					<mask maskUnits="userSpaceOnUse" x="8.244" y="4.833" width="127.507" height="130.113" id="mask-2_1_">
						<g filter="url(#Adobe_OpacityMaskFilter)">
							<rect id="path-1_1_" x="0.227" y="-3.553" fill="#FFFFFF" width="145.788" height="145.79"/>
						</g>
					</mask>
					<g id="Group-16" mask="url(#mask-2_1_)">
						<g transform="translate(11.000000, 11.000000)">
							<path id="Fill-1" fill="#FF0000" d="M25.004,14.605c-0.838,0-1.518,0.652-1.518,1.458c0,0.802,0.68,1.458,1.518,1.458h50.905
								c0.837,0,1.519-0.656,1.519-1.458c0-0.805-0.682-1.458-1.519-1.458H25.004z"/>
							<path id="Fill-3" fill="#FF0000" d="M12.546,14.605H11.83c-0.806,0-1.463,0.652-1.463,1.458c0,0.802,0.658,1.458,1.463,1.458
								h0.716c0.809,0,1.464-0.656,1.464-1.458C14.01,15.259,13.355,14.605,12.546,14.605"/>
							<path id="Fill-5" fill="#FF0000" d="M75.183,29.185c0.836,0,1.517-0.654,1.517-1.458c0-0.802-0.681-1.458-1.517-1.458h-63.3
								c-0.835,0-1.516,0.654-1.516,1.458c0,0.805,0.681,1.458,1.516,1.458H75.183z"/>
							<path id="Fill-7" fill="#FF0000" d="M75.183,40.847c0.836,0,1.517-0.655,1.517-1.458c0-0.805-0.681-1.458-1.517-1.458h-63.3
								c-0.835,0-1.516,0.653-1.516,1.458c0,0.802,0.681,1.458,1.516,1.458H75.183z"/>
							<path id="Fill-9" fill="#FF0000" d="M42.326,53.24c0.866,0,1.571-0.654,1.571-1.458c0-0.804-0.705-1.458-1.571-1.458h-1.231
								c-0.866,0-1.572,0.655-1.572,1.458c0,0.805,0.706,1.458,1.572,1.458H42.326z"/>
							<path id="Fill-11" fill="#FF0000" d="M30.702,53.24c0.846,0,1.532-0.654,1.532-1.458c0-0.804-0.686-1.458-1.532-1.458H11.9
								c-0.846,0-1.535,0.655-1.535,1.458c0,0.805,0.689,1.458,1.535,1.458H30.702z"/>
							<g id="Group-15">
								<g id="Clip-14">
								</g>
								<defs>
									
										<filter id="Adobe_OpacityMaskFilter_1_" filterUnits="userSpaceOnUse" x="-2.756" y="-6.167" width="127.507" height="130.113">
										<feColorMatrix  type="matrix" values="1 0 0 0 0  0 1 0 0 0  0 0 1 0 0  0 0 0 1 0"/>
									</filter>
								</defs>
								<mask maskUnits="userSpaceOnUse" x="-2.756" y="-6.167" width="127.507" height="130.113" id="mask-4_1_">
									<g filter="url(#Adobe_OpacityMaskFilter_1_)">
										<polygon id="path-3_1_" fill="#FFFFFF" points="-2.756,-6.167 124.749,-6.167 124.749,123.946 -2.756,123.946 										
											"/>
									</g>
								</mask>
								<path id="Fill-13" mask="url(#mask-4_1_)" fill="#FF0000" d="M96.854,21.812l12.757,7.373L70.428,97.137l-12.758-7.373
									L96.854,21.812z M103.517,10.261l12.756,7.376l-5.146,8.922l-12.76-7.374L103.517,10.261z M107.972,2.533
									c2.033-3.519,6.546-4.728,10.063-2.699c1.706,0.986,2.924,2.576,3.432,4.479c0.51,1.901,0.249,3.89-0.735,5.596
									l-2.944,5.102l-12.757-7.373L107.972,2.533z M56.965,92.858l11.136,6.438l-12,7.931L56.965,92.858z M87.604,120.917H23.065
									V99.611c0-0.835-0.678-1.516-1.513-1.516H0.274V-3.136h87.327v34.925L77.393,49.493H52.975
									c-0.833,0-1.513,0.682-1.513,1.516c0,0.837,0.68,1.517,1.513,1.517h22.671l-5.09,8.821H12.35
									c-0.835,0-1.513,0.681-1.513,1.518c0,0.833,0.678,1.515,1.513,1.515h56.46l-5.087,8.824H12.35
									c-0.835,0-1.513,0.68-1.513,1.513c0,0.839,0.678,1.519,1.513,1.519h49.625L54.289,89.56
									c-0.115,0.199-0.182,0.418-0.195,0.654l-1.193,19.857c-0.037,0.575,0.253,1.112,0.751,1.401
									c0.181,0.106,0.385,0.171,0.608,0.193c0.528,0.004,13.235,0.011,21.631,0.013c0.835,0,1.514-0.681,1.514-1.518
									c0-0.834-0.679-1.517-1.514-1.517H59.456l12.367-8.179c0.191-0.13,0.358-0.305,0.471-0.501l15.311-26.55V120.917
									L87.604,120.917z M20.037,118.771L2.414,101.128h17.623V118.771z M-1.243-6.167c-0.833,0-1.513,0.681-1.513,1.516V99.611
									c0,0.399,0.164,0.79,0.444,1.074l22.791,22.817c0.286,0.286,0.668,0.443,1.072,0.443h67.567
									c0.832,0,1.513-0.679,1.513-1.515V68.163l32.72-56.74c1.39-2.407,1.759-5.211,1.041-7.897
									c-0.719-2.684-2.439-4.927-4.842-6.318c-4.967-2.871-11.337-1.161-14.199,3.81L90.632,26.54v-31.19
									c0-0.835-0.681-1.516-1.513-1.516H-1.243z"/>
							</g>
						</g>
					</g>
				</g>
			</g>
		</g>
	</g>
</g>
<g id="Calque_3_2_">
	
		<line fill="none" stroke="#FF0000" stroke-width="5" stroke-linecap="round" stroke-linejoin="round" stroke-miterlimit="10" x1="52.558" y1="17.26" x2="52.558" y2="69.396"/>
	<path fill="none" stroke="#FF0000" stroke-width="5" stroke-linecap="round" stroke-linejoin="round" stroke-miterlimit="10" d="
		M40.631,55.266c0,0.717-0.582,1.3-1.299,1.3H10.214c-0.718,0-1.3-0.583-1.3-1.3V30.154c0-0.718,0.582-1.299,1.3-1.299h29.117
		c0.717,0,1.299,0.582,1.299,1.299V55.266z"/>
	<path fill="none" stroke="#FF0000" stroke-width="5" stroke-linecap="round" stroke-linejoin="round" stroke-miterlimit="10" d="
		M40.631,74.062v-9.097c0-0.719-0.582-1.3-1.299-1.3H10.214c-0.718,0-1.3,0.581-1.3,1.3v25.111c0,0.719,0.582,1.299,1.3,1.299
		h24.431C34.646,91.375,34.157,82.039,40.631,74.062z"/>
	
		<line fill="none" stroke="#FF0000" stroke-width="5" stroke-linecap="round" stroke-linejoin="round" stroke-miterlimit="10" x1="1.833" y1="98.895" x2="40.623" y2="98.895"/>
	<path fill="none" stroke="#FF0000" stroke-width="5" stroke-linecap="round" stroke-linejoin="round" stroke-miterlimit="10" d="
		M59.246,65.448h9.379l7.591-39.59h29.412l1.917,41.722h15.985v27.919h-2.984c0,0-1.173-10.337-12.073-10.337
		c-11.511,0-12.116,9.337-12.116,9.337H81.2c0,0-0.083-2.939-0.083-6.884c0-3.305-2.344-18.744-19.183-18.744h-2.688V65.448z"/>
	<circle fill="none" stroke="#FF0000" stroke-width="5" stroke-miterlimit="10" cx="59.707" cy="89.934" r="14.477"/>
	<circle fill="none" stroke="#FF0000" stroke-width="5" stroke-miterlimit="10" cx="107.718" cy="101.411" r="6.62"/>
	<path fill="none" stroke="#FF0000" stroke-width="5" stroke-linejoin="round" stroke-miterlimit="10" d="M82.083,32.933h17.311
		v29.039h-7.199l-3.235,5.177h-4.528c0,0-0.7-4.449-7.25-6.309L82.083,32.933z"/>
</g>
<g id="Calque_2" display="none">
	<g id="Calque_2_1_" display="inline">
		<g id="Calque_3_1_">
			<g>
				
					<path fill="#FFFFFF" stroke="#FF0000" stroke-width="5" stroke-linecap="round" stroke-linejoin="round" stroke-miterlimit="10" d="
					M56.654,55.605c0,0.578-0.469,1.049-1.049,1.049H5.548c-0.579,0-1.048-0.471-1.048-1.049V5.548C4.5,4.969,4.969,4.5,5.548,4.5
					h50.058c0.58,0,1.049,0.469,1.049,1.048V55.605L56.654,55.605z"/>
				<circle fill="#FF0000" cx="16.424" cy="17.481" r="3.704"/>
				<line fill="none" stroke="#FF0000" stroke-width="4" stroke-miterlimit="10" x1="24.219" y1="17.48" x2="46.23" y2="17.48"/>
				<circle fill="#FF0000" cx="16.424" cy="30.577" r="3.704"/>
				<line fill="none" stroke="#FF0000" stroke-width="4" stroke-miterlimit="10" x1="24.219" y1="30.578" x2="46.23" y2="30.578"/>
				<circle fill="#FF0000" cx="16.424" cy="43.673" r="3.704"/>
				<line fill="none" stroke="#FF0000" stroke-width="4" stroke-miterlimit="10" x1="24.219" y1="43.672" x2="46.23" y2="43.672"/>
			</g>
		</g>
	</g>
</g>
</svg>
