<?xml version="1.0" encoding="utf-8"?>
<!-- Generator: Adobe Illustrator 16.0.0, SVG Export Plug-In . SVG Version: 6.00 Build 0)  -->
<!DOCTYPE svg PUBLIC "-//W3C//DTD SVG 1.1//EN" "http://www.w3.org/Graphics/SVG/1.1/DTD/svg11.dtd">
<svg version="1.1" xmlns="http://www.w3.org/2000/svg" xmlns:xlink="http://www.w3.org/1999/xlink" x="0px" y="0px" width="128px"
	 height="128px" viewBox="0 0 128 128" enable-background="new 0 0 128 128" xml:space="preserve">
<g id="Calque_1" display="none">
	<g id="Calque_6">
		
			<image display="inline" overflow="visible" enable-background="new    " width="228" height="228" xlink:href="C8BC75A9.jpeg"  transform="matrix(0.5614 0 0 0.5614 0 0)">
		</image>
	</g>
	<g id="Calque_7" display="inline">
	</g>
	
		<image display="inline" overflow="visible" width="256" height="256" xlink:href="C8BC75AB.jpg"  transform="matrix(1 0 0 1 -64 -63.1099)">
	</image>
</g>
<g id="Calque_2">
	<circle fill="none" stroke="#FF0000" stroke-width="5" stroke-miterlimit="10" cx="64.795" cy="64.59" r="63.243"/>
	<circle fill="none" stroke="#FF0000" stroke-width="5" stroke-miterlimit="10" cx="65.165" cy="68.235" r="12.475"/>
	<path fill="none" stroke="#FF0000" stroke-width="5" stroke-linecap="round" stroke-linejoin="round" stroke-miterlimit="10" d="
		M64.98,47.069c18.096,0,34.18,8.285,44.396,21.129c0.078-1.078,0.119-2.168,0.119-3.265c0-24.528-19.884-44.411-44.411-44.411
		S20.673,40.405,20.673,64.934c0,1.017,0.037,2.022,0.104,3.022C31.002,55.25,46.998,47.069,64.98,47.069z"/>
	<g>
		<path fill="none" stroke="#FF0000" stroke-width="5" stroke-linecap="round" stroke-linejoin="round" stroke-miterlimit="10" d="
			M108.421,76.687c-3.131-1.188-6.524-1.845-10.071-1.845c-15.678,0-28.388,12.709-28.388,28.389c0,2.306,0.281,4.544,0.801,6.69
			C89.101,107.663,103.985,94.258,108.421,76.687z"/>
		<path fill="none" stroke="#FF0000" stroke-width="5" stroke-linecap="round" stroke-linejoin="round" stroke-miterlimit="10" d="
			M31.219,74.842c-3.212,0-6.296,0.542-9.175,1.524c4.261,17.425,18.778,30.819,36.792,33.429c0.5-2.109,0.772-4.305,0.772-6.564
			C59.607,87.551,46.897,74.842,31.219,74.842z"/>
	</g>
</g>
</svg>
