<?xml version="1.0" encoding="utf-8"?>
<!-- Generator: Adobe Illustrator 16.0.0, SVG Export Plug-In . SVG Version: 6.00 Build 0)  -->
<!DOCTYPE svg PUBLIC "-//W3C//DTD SVG 1.1//EN" "http://www.w3.org/Graphics/SVG/1.1/DTD/svg11.dtd">
<svg version="1.1" xmlns="http://www.w3.org/2000/svg" xmlns:xlink="http://www.w3.org/1999/xlink" x="0px" y="0px" width="128px"
	 height="128px" viewBox="0 0 128 128" enable-background="new 0 0 128 128" xml:space="preserve">
<g id="Calque_2" display="none">
	
		<image display="inline" overflow="visible" width="600" height="620" xlink:href="B13DF1E7.jpg"  transform="matrix(0.3654 -0.3654 0.3654 0.3654 -153.2754 60.0884)">
	</image>
</g>
<g id="Livello_1" inkscape:version="1.0 (4035a4fb49, 2020-05-01)" sodipodi:docname="iconHome.svg" xmlns:cc="http://creativecommons.org/ns#" xmlns:dc="http://purl.org/dc/elements/1.1/" xmlns:inkscape="http://www.inkscape.org/namespaces/inkscape" xmlns:rdf="http://www.w3.org/1999/02/22-rdf-syntax-ns#" xmlns:sodipodi="http://sodipodi.sourceforge.net/DTD/sodipodi-0.dtd" xmlns:svg="http://www.w3.org/2000/svg">
	
		<sodipodi:namedview  id="namedview7" inkscape:window-width="1519" inkscape:pageshadow="2" inkscape:window-x="0" inkscape:window-y="0" inkscape:pageopacity="0" inkscape:window-height="845" inkscape:window-maximized="0" inkscape:current-layer="Livello_1" inkscape:zoom="2.8710938" bordercolor="#666666" guidetolerance="10" objecttolerance="10" borderopacity="1" showgrid="false" inkscape:cx="7.8240306" pagecolor="#ffffff" inkscape:cy="41.675131" gridtolerance="10">
		</sodipodi:namedview>
	<title  id="title2"></title>
	<g>
		<g>
			<path fill="none" stroke="#FF0000" stroke-width="3" stroke-linecap="round" stroke-linejoin="round" stroke-miterlimit="10" d="
				M31.346,32.476c5.886-12.973,18.975-22.052,34.083-22.052l0,0c20.568,0,37.397,16.828,37.397,37.395v16.001"/>
			<path fill="none" stroke="#FF0000" stroke-width="3" stroke-linecap="round" stroke-linejoin="round" stroke-miterlimit="10" d="
				M102.827,72.021c-5.405,1.268-7.385-2.049-7.416-7.112c-0.032-5.063-0.438-17.091-0.438-17.091
				c0-16.292-13.251-29.545-29.543-29.545c-13.412,0-24.765,8.982-28.359,21.248c0,0-3.956,6.621-7.332-0.133"/>
			<path fill="none" stroke="#FF0000" stroke-width="3" stroke-linecap="round" stroke-linejoin="round" stroke-miterlimit="10" d="
				M29.739,50.477c9.416,5.515,13.996-7.483,17.285-14.13c3.288-6.646,10.652-10.221,18.406-10.221
				c11.963,0,21.695,9.729,21.695,21.693c0,0-1.22,21.664,6.296,29.901"/>
			<path fill="none" stroke="#FF0000" stroke-width="3" stroke-linecap="round" stroke-linejoin="round" stroke-miterlimit="10" d="
				M29.739,59.782c8.118,1.891,14.372-1.769,17.971-5.813c2.835-3.187,3.461-6.534,3.461-6.534
				c2.581-9.47,6.625-13.461,14.259-13.461c7.634,0,13.844,6.211,13.844,13.844c0,0-0.341,22.39,4.634,27.521"/>
			<path fill="none" stroke="#FF0000" stroke-width="3" stroke-linecap="round" stroke-linejoin="round" stroke-miterlimit="10" d="
				M29.739,69.729c27.084,1.12,29.697-21.91,29.697-21.91c0-3.303,2.689-5.993,5.994-5.993c3.304,0,5.993,2.69,5.993,5.993"/>
			<path fill="none" stroke="#FF0000" stroke-width="3" stroke-linecap="round" stroke-linejoin="round" stroke-miterlimit="10" d="
				M65.43,50.477c0,0,3.016,24.543-35.691,28.393"/>
			<path fill="none" stroke="#FF0000" stroke-width="3" stroke-linecap="round" stroke-linejoin="round" stroke-miterlimit="10" d="
				M73.76,76.201c0,0,4.104,5.001,10.936,8.598"/>
			<path fill="none" stroke="#FF0000" stroke-width="3" stroke-linecap="round" stroke-linejoin="round" stroke-miterlimit="10" d="
				M28.331,87.439c0,0,30.444-2.508,38.755-16.904"/>
			<path fill="none" stroke="#FF0000" stroke-width="3" stroke-linecap="round" stroke-linejoin="round" stroke-miterlimit="10" d="
				M72.49,54.657c0,0-2.634,8.358,1.27,13.377"/>
			<path fill="none" stroke="#FF0000" stroke-width="3" stroke-linecap="round" stroke-linejoin="round" stroke-miterlimit="10" d="
				M30.649,96.458c0,0,25.358-3.063,37.461-14.693"/>
			<path fill="none" stroke="#FF0000" stroke-width="3" stroke-linecap="round" stroke-linejoin="round" stroke-miterlimit="10" d="
				M72.69,86.884c0,0,3.23,3.67,9.183,6.808"/>
			<path fill="none" stroke="#FF0000" stroke-width="3" stroke-linecap="round" stroke-linejoin="round" stroke-miterlimit="10" d="
				M34.917,104.308c0,0,23.923-3.209,31.365-11.552c0,0,4.827,5.252,13.172,9.432"/>
			<path fill="none" stroke="#FF0000" stroke-width="3" stroke-linecap="round" stroke-linejoin="round" stroke-miterlimit="10" d="
				M40.598,111.446c0,0,19.608-3.85,24.886-8.286c0,0,7.423,4.407,13.742,7.355"/>
			<path fill="none" stroke="#FF0000" stroke-width="3" stroke-linecap="round" stroke-linejoin="round" stroke-miterlimit="10" d="
				M50.581,117.072c0,0,11.245-8.083,28.648,0.683"/>
		</g>
		<g>
			<path fill="none" stroke="#FF0000" stroke-width="3" stroke-linecap="round" stroke-linejoin="round" stroke-miterlimit="10" d="
				M112.698,117.127c0,2.679-2.191,4.871-4.868,4.871H84.326c-2.681,0-4.872-2.192-4.872-4.871V97.89
				c0-2.676,2.191-4.868,4.872-4.868h23.504c2.677,0,4.868,2.192,4.868,4.868V117.127z"/>
			<path fill="none" stroke="#FF0000" stroke-width="3" stroke-linecap="round" stroke-linejoin="round" stroke-miterlimit="10" d="
				M84.692,93.021v-3.93c0-6.262,5.121-11.385,11.384-11.385l0,0c6.265,0,11.386,5.123,11.386,11.385v3.93"/>
			<path fill="none" stroke="#FF0000" stroke-width="3" stroke-linecap="round" stroke-linejoin="round" stroke-miterlimit="10" d="
				M100.445,105.485c0-2.413-1.956-4.372-4.369-4.372c-2.411,0-4.369,1.959-4.369,4.372c0,1.725,1.002,3.209,2.453,3.92v2.58
				c0,1.055,0.861,1.918,1.916,1.918s1.92-0.863,1.92-1.918v-2.58C99.447,108.694,100.445,107.21,100.445,105.485z"/>
		</g>
	</g>
</g>
</svg>
