<?xml version="1.0" encoding="utf-8"?>
<!-- Generator: Adobe Illustrator 16.0.0, SVG Export Plug-In . SVG Version: 6.00 Build 0)  -->
<!DOCTYPE svg PUBLIC "-//W3C//DTD SVG 1.1//EN" "http://www.w3.org/Graphics/SVG/1.1/DTD/svg11.dtd">
<svg version="1.1" xmlns="http://www.w3.org/2000/svg" xmlns:xlink="http://www.w3.org/1999/xlink" x="0px" y="0px" width="128px"
	 height="128px" viewBox="0 0 128 128" enable-background="new 0 0 128 128" xml:space="preserve">
<g id="Calque_4">
	<g>
		<path fill="none" stroke="#FF0000" stroke-miterlimit="10" d="M80.84,83.496c-0.001,3.205-0.923,6.411-2.766,9.21
			c-2.536,3.851-6.436,6.46-10.972,7.347c-1.122,0.218-3.673,0.357-4.656,0.251c-0.972-0.102-2.789-0.496-3.699-0.797
			c-5.862-1.945-10.119-6.81-11.345-12.967c-0.169-0.85-0.253-1.946-0.253-3.044"/>
		<path fill="none" stroke="#FF0000" stroke-width="5" stroke-miterlimit="10" d="M22.45,83.496v5.646
			c0.037,0.05,0.091,0.112,0.142,0.163l3.07,0.024l3.951,0.03l2.566,0.021l0.769,2.449l0.39,1.242c0.525,1.672,1.123,3.136,2,4.896
			l0.86,1.726l1.13,2.269l-1.788,1.793l-2.671,2.68c-0.771,0.774-1.782,1.789-2.215,2.303c0.554,0.661,1.975,2.087,3.84,3.953
			l0.129,0.131c1.831,1.835,3.441,3.449,4.114,4.009c0.438-0.398,1.22-1.138,2.304-2.216l2.724-2.716l1.854-1.846l2.304,1.238
			l0.833,0.446c1.847,0.991,4.312,2.038,5.99,2.545l0.928,0.281l2.48,0.752l0.021,2.592l0.032,3.952l0.025,3.095
			c0.043,0.04,0.099,0.078,0.146,0.101c0.56,0.021,2.257,0.044,4.893,0.044l1.1-0.002c2.889-0.009,4.64-0.015,5.293-0.051
			c0.039-0.03,0.081-0.067,0.118-0.104l0.024-3.071l0.034-3.948l0.02-2.563l2.444-0.771l1.207-0.38
			c1.697-0.535,2.992-1.063,4.775-1.948c2.136-1.058,2.52-1.249,3.423-1.249c1.536,0,1.744,0.208,5.227,3.677
			c0.768,0.766,1.772,1.77,2.283,2.198c0.66-0.553,2.092-1.986,3.973-3.87l0.154-0.153c1.945-1.95,3.422-3.429,3.958-4.065
			c-0.397-0.438-1.135-1.22-2.215-2.305l-2.717-2.725l-1.864-1.867l1.269-2.315l0.396-0.724c0.954-1.744,2.066-4.356,2.585-6.072
			l0.279-0.924l0.751-2.48l2.592-0.022l3.953-0.033l3.076-0.024c0.051-0.053,0.104-0.113,0.141-0.164v-5.646"/>
		<path fill="none" stroke="#FF0000" stroke-width="5" stroke-miterlimit="10" d="M47.149,83.496c0,1.098,0.084,2.194,0.253,3.044
			c1.226,6.157,5.482,11.021,11.345,12.967c0.91,0.301,2.728,0.695,3.699,0.797c0.983,0.106,3.534-0.033,4.656-0.251
			c4.536-0.887,8.436-3.496,10.972-7.347c1.843-2.799,2.765-6.005,2.766-9.21"/>
	</g>
</g>
<g id="Calque_1">
	<g id="Calque_3">
		<path fill="none" stroke="#FF0000" stroke-width="5" stroke-miterlimit="10" d="M120.271,71.846c0,3.708-2.781,6.713-6.209,6.713
			H15c-3.43,0-6.208-3.007-6.208-6.713V11.591c0-3.706,2.779-6.712,6.208-6.712h99.063c3.428,0,6.207,3.005,6.207,6.712v60.254
			H120.271L120.271,71.846z"/>
		<g>
			<path fill="none" stroke="#FF0000" stroke-width="5" stroke-miterlimit="10" d="M85.363,41.123
				c2.149,1.476,4.766,2.344,7.588,2.344c7.316,0,13.246-5.813,13.246-12.982s-5.93-12.981-13.246-12.981
				c-2.822,0-5.439,0.869-7.588,2.343"/>
			<path fill="none" stroke="#FF0000" stroke-width="5" stroke-miterlimit="10" d="M79.708,30.484c0-4.403,2.235-8.29,5.655-10.637
				c-2.149-1.476-4.766-2.343-7.589-2.343c-7.314,0-13.245,5.812-13.245,12.981c0,7.17,5.931,12.981,13.245,12.981
				c2.823,0,5.441-0.867,7.589-2.343C81.944,38.774,79.708,34.886,79.708,30.484z"/>
			<path fill="none" stroke="#FF0000" stroke-width="5" stroke-miterlimit="10" d="M85.363,19.847
				c-3.419,2.347-5.657,6.234-5.657,10.637c0,4.402,2.237,8.29,5.657,10.638"/>
		</g>
		<path fill="#FF0000" d="M53.216,67.429c0,0.834-0.927,1.511-2.069,1.511H33.025c-1.142,0-2.069-0.677-2.069-1.511v-3.025
			c0-0.834,0.928-1.512,2.069-1.512h18.123c1.144,0,2.069,0.678,2.069,1.512V67.429z"/>
		<path fill="#FF0000" d="M79.708,67.429c0,0.834-0.929,1.511-2.072,1.511h-18.12c-1.144,0-2.071-0.677-2.071-1.511v-3.025
			c0-0.834,0.927-1.512,2.071-1.512h18.123c1.142,0,2.069,0.678,2.069,1.512V67.429L79.708,67.429z"/>
		<path fill="#FF0000" d="M106.197,67.429c0,0.834-0.927,1.511-2.071,1.511h-18.12c-1.143,0-2.069-0.677-2.069-1.511v-3.025
			c0-0.834,0.927-1.512,2.069-1.512h18.122c1.143,0,2.07,0.678,2.07,1.512L106.197,67.429L106.197,67.429z"/>
		<g>
			<path fill="none" stroke="#FF0000" stroke-width="4" stroke-linecap="round" stroke-linejoin="round" stroke-miterlimit="10" d="
				M40.671,34.105c0,0.785-0.72,1.424-1.609,1.424H20.674c-0.888,0-1.608-0.638-1.608-1.424V17.831c0-0.787,0.72-1.424,1.608-1.424
				h18.387c0.889,0,1.609,0.637,1.609,1.424L40.671,34.105L40.671,34.105z"/>
			
				<line fill="none" stroke="#FF0000" stroke-width="4" stroke-linecap="round" stroke-linejoin="round" stroke-miterlimit="10" x1="32.674" y1="16.407" x2="32.674" y2="35.37"/>
			
				<polyline fill="none" stroke="#FF0000" stroke-width="4" stroke-linecap="round" stroke-linejoin="round" stroke-miterlimit="10" points="
				27.133,35.37 27.133,22.535 19.386,22.535 			"/>
			
				<line fill="none" stroke="#FF0000" stroke-width="4" stroke-linecap="round" stroke-linejoin="round" stroke-miterlimit="10" x1="19.066" y1="28.952" x2="27.133" y2="28.952"/>
			
				<line fill="none" stroke="#FF0000" stroke-width="4" stroke-linecap="round" stroke-linejoin="round" stroke-miterlimit="10" x1="32.674" y1="22.535" x2="40.671" y2="22.535"/>
			
				<line fill="none" stroke="#FF0000" stroke-width="4" stroke-linecap="round" stroke-linejoin="round" stroke-miterlimit="10" x1="32.674" y1="28.952" x2="40.671" y2="28.952"/>
		</g>
	</g>
</g>
<g id="Calque_2_3_" display="none">
	<g id="Calque_2_1_" display="inline">
		<g id="Calque_3_1_">
			<g>
				
					<path fill="#FFFFFF" stroke="#FF0000" stroke-width="5" stroke-linecap="round" stroke-linejoin="round" stroke-miterlimit="10" d="
					M56.654,55.605c0,0.578-0.469,1.049-1.049,1.049H5.548c-0.579,0-1.048-0.471-1.048-1.049V5.548C4.5,4.969,4.969,4.5,5.548,4.5
					h50.058c0.58,0,1.049,0.469,1.049,1.048L56.654,55.605L56.654,55.605z"/>
				<circle fill="#FF0000" cx="16.424" cy="17.481" r="3.704"/>
				<line fill="none" stroke="#FF0000" stroke-width="4" stroke-miterlimit="10" x1="24.219" y1="17.481" x2="46.231" y2="17.481"/>
				<circle fill="#FF0000" cx="16.424" cy="30.577" r="3.704"/>
				<line fill="none" stroke="#FF0000" stroke-width="4" stroke-miterlimit="10" x1="24.219" y1="30.578" x2="46.231" y2="30.578"/>
				<circle fill="#FF0000" cx="16.424" cy="43.673" r="3.704"/>
				<line fill="none" stroke="#FF0000" stroke-width="4" stroke-miterlimit="10" x1="24.219" y1="43.672" x2="46.231" y2="43.672"/>
			</g>
		</g>
	</g>
</g>
</svg>
