<?xml version="1.0" encoding="utf-8"?>
<!-- Generator: Adobe Illustrator 16.0.0, SVG Export Plug-In . SVG Version: 6.00 Build 0)  -->
<!DOCTYPE svg PUBLIC "-//W3C//DTD SVG 1.1//EN" "http://www.w3.org/Graphics/SVG/1.1/DTD/svg11.dtd">
<svg version="1.1" xmlns="http://www.w3.org/2000/svg" xmlns:xlink="http://www.w3.org/1999/xlink" x="0px" y="0px" width="128px"
	 height="128px" viewBox="0 0 128 128" enable-background="new 0 0 128 128" xml:space="preserve">
<g id="Calque_1">
	<g>
		<path fill="none" stroke="#FF0000" stroke-width="5" stroke-linecap="round" stroke-linejoin="round" stroke-miterlimit="10" d="
			M64.704,13.017h34.62c3.588,0,6.523,2.937,6.523,6.525v44.856c0,3.588-2.936,6.523-6.523,6.523H66.525H27.659
			c-3.587,0-6.524-2.935-6.524-6.523"/>
		
			<polyline fill="none" stroke="#FF0000" stroke-width="5" stroke-linecap="round" stroke-linejoin="round" stroke-miterlimit="10" points="
			65.035,25.884 105.848,25.884 105.848,37.681 65.035,37.681 		"/>
	</g>
	
		<circle fill="none" stroke="#FF0000" stroke-width="5" stroke-linecap="round" stroke-linejoin="round" stroke-miterlimit="10" cx="90.98" cy="58.431" r="5.135"/>
	<g>
		<g>
			<path fill="none" stroke="#FF0000" stroke-width="5" stroke-linecap="round" stroke-linejoin="round" stroke-miterlimit="10" d="
				M60.643,98.457l14.155,7.781l39.208-24.258c0.453-0.283,0.979-0.431,1.51-0.431c1.904,0,3.567,1.296,4.027,3.142l0.4,1.588
				c0.509,2.051-0.26,4.205-1.957,5.467L76.549,122.52c-1.156,0.861-2.459,1.498-3.852,1.883l-1.959,0.541
				c-1.319,0.373-2.725,0.339-4.021-0.094l-41.072-13.623c-1.869-0.621-3.917-0.473-5.679,0.41l-13.081,6.418"/>
			<path fill="none" stroke="#FF0000" stroke-width="5" stroke-linecap="round" stroke-linejoin="round" stroke-miterlimit="10" d="
				M10.207,91.102l26.384-8.992c1.108-0.37,2.289-0.483,3.445-0.336l45.307,5.738c2.046,0.258,3.515,2.082,3.339,4.135l-0.214,2.459
				c-0.194,2.205-2.017,3.91-4.233,3.951l-23.59,0.4l-9.513-0.334"/>
			<path fill="none" stroke="#FF0000" stroke-width="5" stroke-linecap="round" stroke-linejoin="round" stroke-miterlimit="10" d="
				M83.467,87.273l17.598-6.984c0.947-0.334,1.98-0.336,2.929-0.004l0,0c2.159,0.756,3.606,2.797,3.606,5.086v0.57"/>
		</g>
	</g>
	<g id="Calque_2">
	</g>
</g>
<g id="Calque_2_1_">
	<g id="Calque_3_1_">
		<g>
			<path fill="none" stroke="#FF0000" stroke-width="5" stroke-linecap="round" stroke-linejoin="round" stroke-miterlimit="10" d="
				M56.654,55.605c0,0.578-0.469,1.049-1.049,1.049H5.548c-0.579,0-1.048-0.471-1.048-1.049V5.548C4.5,4.969,4.969,4.5,5.548,4.5
				h50.058c0.58,0,1.049,0.469,1.049,1.048L56.654,55.605L56.654,55.605z"/>
			<circle fill="#FF0000" cx="16.424" cy="17.481" r="3.704"/>
			<line fill="none" stroke="#FF0000" stroke-width="4" stroke-miterlimit="10" x1="24.219" y1="17.481" x2="46.231" y2="17.481"/>
			<circle fill="#FF0000" cx="16.424" cy="30.577" r="3.704"/>
			<line fill="none" stroke="#FF0000" stroke-width="4" stroke-miterlimit="10" x1="24.219" y1="30.578" x2="46.231" y2="30.578"/>
			<circle fill="#FF0000" cx="16.424" cy="43.673" r="3.704"/>
			<line fill="none" stroke="#FF0000" stroke-width="4" stroke-miterlimit="10" x1="24.219" y1="43.672" x2="46.231" y2="43.672"/>
		</g>
	</g>
</g>
</svg>
