<?xml version="1.0" encoding="utf-8"?>
<!-- Generator: Adobe Illustrator 16.0.0, SVG Export Plug-In . SVG Version: 6.00 Build 0)  -->
<!DOCTYPE svg PUBLIC "-//W3C//DTD SVG 1.1//EN" "http://www.w3.org/Graphics/SVG/1.1/DTD/svg11.dtd">
<svg version="1.1" id="Calque_1" xmlns:serif="http://www.serif.com/"
	 xmlns="http://www.w3.org/2000/svg" xmlns:xlink="http://www.w3.org/1999/xlink" x="0px" y="0px" width="128px" height="128px"
	 viewBox="0 0 128 128" enable-background="new 0 0 128 128" xml:space="preserve">
<path fill="none" stroke="#FF0000" stroke-width="5" stroke-linecap="round" stroke-linejoin="round" stroke-miterlimit="10" d="
	M56.398,125.253c-27.473,0-49.826-22.354-49.826-49.823c0-27.477,22.353-49.828,49.826-49.828c27.475,0,49.827,22.352,49.827,49.828
	C106.225,102.898,83.873,125.253,56.398,125.253z"/>
<path fill="none" stroke="#FF0000" stroke-width="10" stroke-linecap="round" stroke-linejoin="round" stroke-miterlimit="10" d="
	M56.398,111.898c-20.11,0-36.475-16.361-36.475-36.474c0-20.111,16.365-36.475,36.475-36.475c20.111,0,36.474,16.364,36.474,36.475
	C92.869,95.541,76.509,111.898,56.398,111.898z"/>
<path fill="none" stroke="#FF0000" stroke-width="2.8892" stroke-linecap="round" stroke-linejoin="round" stroke-miterlimit="10" d="
	M55.774,96.501c-11.621,0-21.077-9.454-21.077-21.076c0-11.621,9.457-21.077,21.077-21.077S76.85,63.804,76.85,75.425
	C76.849,87.049,67.395,96.501,55.774,96.501z"/>
<circle fill="#FF0000" cx="56.398" cy="75.429" r="9.768"/>
<path fill="none" stroke="#FFFFFF" stroke-width="5" stroke-linecap="round" stroke-linejoin="round" stroke-miterlimit="10" d="
	M56.398,75.43l59.899-59.903"/>
<polygon fill="#FF0000" points="111.421,20.403 111.3,7.048 93.801,24.548 93.923,37.903 107.277,38.023 124.777,20.525 "/>
</svg>
