<?xml version="1.0" encoding="utf-8"?>
<!-- Generator: Adobe Illustrator 16.0.0, SVG Export Plug-In . SVG Version: 6.00 Build 0)  -->
<!DOCTYPE svg PUBLIC "-//W3C//DTD SVG 1.1//EN" "http://www.w3.org/Graphics/SVG/1.1/DTD/svg11.dtd">
<svg version="1.1" xmlns="http://www.w3.org/2000/svg" xmlns:xlink="http://www.w3.org/1999/xlink" x="0px" y="0px" width="128px"
	 height="128px" viewBox="0 0 128 128" enable-background="new 0 0 128 128" xml:space="preserve">
<g id="Calque_1">
	<g id="Calque_2" display="none">
	</g>
	<g>
		<g>
			<path fill="none" stroke="#FF0000" stroke-width="5" stroke-linecap="round" stroke-linejoin="round" stroke-miterlimit="10" d="
				M75,38.82h13.954c1.89,0,3.438,1.545,3.438,3.438V57.18"/>
			<path fill="none" stroke="#FF0000" stroke-width="5" stroke-linecap="round" stroke-linejoin="round" stroke-miterlimit="10" d="
				M69.02,98.018H54.085H43.332H8.462c-1.891,0-3.438-1.549-3.438-3.441v-8.857V57.18"/>
			
				<line fill="none" stroke="#FF0000" stroke-width="5" stroke-linecap="round" stroke-linejoin="round" stroke-miterlimit="10" x1="69.02" y1="85.719" x2="5.024" y2="85.719"/>
			
				<polygon fill="none" stroke="#FF0000" stroke-width="5" stroke-linecap="round" stroke-linejoin="round" stroke-miterlimit="10" points="
				57.535,110.746 54.085,110.746 54.085,98.014 43.332,98.014 43.332,110.746 40.017,110.746 29.83,112.711 29.83,123.184 
				67.368,123.184 67.368,112.711 			"/>
		</g>
		<path fill="none" stroke="#FF0000" stroke-width="5" stroke-linecap="round" stroke-linejoin="round" stroke-miterlimit="10" d="
			M103.381,79.17c0-1.277,1.045-2.32,2.324-2.32h15.743c1.276,0,2.324,1.043,2.324,2.32v33.861v7.834
			c0,1.275-1.048,2.318-2.324,2.318h-15.743c-1.279,0-2.324-1.043-2.324-2.318V79.17"/>
		<path fill="none" stroke="#FF0000" stroke-width="5" stroke-linecap="round" stroke-linejoin="round" stroke-miterlimit="10" d="
			M113.779,76.85V60.618c0-1.891-1.549-3.438-3.438-3.438H72.456c-1.894,0-3.437,1.547-3.437,3.438v59.126
			c0,1.893,1.543,3.439,3.437,3.439h33.073h4.812"/>
	</g>
	<path fill="#FF0000" stroke="#FF0000" stroke-width="2" stroke-miterlimit="10" d="M61.119,34.662
		c-1.718,0-3.325,0.476-4.707,1.292l-12.605-15.09c1.613-1.668,2.611-3.934,2.611-6.443c0-5.127-4.156-9.277-9.28-9.277
		s-9.277,4.15-9.28,9.277h0.003c0,2.503,0.989,4.765,2.596,6.434L17.855,35.947c-1.378-0.813-2.979-1.286-4.697-1.286
		c-5.127,0-9.283,4.153-9.283,9.28c0,5.126,4.156,9.28,9.283,9.28c5.126,0,9.28-4.153,9.28-9.28c0-2.5-0.995-4.769-2.602-6.437
		l12.599-15.093c1.038,0.612,2.203,1.026,3.449,1.193v11.149c-4.53,0.615-8.022,4.487-8.025,9.188h0.003
		c0,5.126,4.153,9.28,9.277,9.28c5.127,0,9.28-4.153,9.28-9.28c0-4.697-3.492-8.569-8.022-9.188V23.605
		c1.239-0.167,2.401-0.581,3.433-1.187l12.608,15.093c-1.607,1.669-2.602,3.931-2.602,6.434c0,5.124,4.159,9.277,9.283,9.277
		c5.124,0,9.28-4.153,9.28-9.277C70.398,38.815,66.242,34.662,61.119,34.662z M30.374,14.421c0.006-3.739,3.032-6.759,6.765-6.765
		c3.736,0.006,6.755,3.025,6.765,6.765c-0.009,3.736-3.032,6.761-6.765,6.764c-3.733-0.003-6.758-3.028-6.768-6.764H30.374z
		 M13.158,50.706C9.422,50.7,6.403,47.678,6.39,43.942c0.013-3.736,3.032-6.758,6.768-6.768c3.739,0.009,6.761,3.031,6.768,6.768
		C19.919,47.678,16.897,50.7,13.158,50.706z M43.903,43.942c-0.009,3.736-3.032,6.758-6.765,6.764
		c-3.733-0.006-6.758-3.028-6.768-6.764h0.003c0.006-3.736,3.032-6.762,6.765-6.771C40.871,37.18,43.894,40.206,43.903,43.942z
		 M61.119,50.706c-3.736-0.006-6.762-3.028-6.768-6.761c0.006-3.739,3.031-6.765,6.768-6.768c3.737,0.003,6.754,3.028,6.768,6.768
		C67.873,47.678,64.855,50.7,61.119,50.706z"/>
</g>
<g id="Calque_3_1_">
</g>
</svg>
