<?xml version="1.0" encoding="utf-8"?>
<!-- Generator: Adobe Illustrator 16.0.0, SVG Export Plug-In . SVG Version: 6.00 Build 0)  -->
<!DOCTYPE svg PUBLIC "-//W3C//DTD SVG 1.1//EN" "http://www.w3.org/Graphics/SVG/1.1/DTD/svg11.dtd">
<svg version="1.1" id="Calque_2" xmlns="http://www.w3.org/2000/svg" xmlns:xlink="http://www.w3.org/1999/xlink" x="0px" y="0px"
	 width="128px" height="128px" viewBox="0 0 128 128" enable-background="new 0 0 128 128" xml:space="preserve">
<path fill="none" stroke="#FF0000" stroke-width="5" stroke-miterlimit="10" d="M124.279,99.16c0,3.689-2.992,6.678-6.679,6.678
	H11.066c-3.688,0-6.677-2.99-6.677-6.678V30.217c0-3.688,2.989-6.678,6.677-6.678h106.535c3.687,0,6.676,2.99,6.676,6.678V99.16
	H124.279z"/>
<g>
	<path fill="none" stroke="#FF0000" stroke-width="5" stroke-miterlimit="10" d="M94.412,96.957
		c2.171,1.521,4.813,2.417,7.666,2.417c7.394,0,13.387-5.992,13.387-13.384c0-7.393-5.993-13.384-13.387-13.384
		c-2.853,0-5.495,0.896-7.666,2.417"/>
	<path fill="#FF0000" stroke="#FF0000" stroke-width="5" stroke-miterlimit="10" d="M88.694,85.99c0-4.538,2.259-8.547,5.715-10.965
		c-2.171-1.522-4.814-2.417-7.669-2.417c-7.392,0-13.384,5.989-13.384,13.382c0,7.392,5.992,13.384,13.384,13.384
		c2.854,0,5.498-0.895,7.669-2.415C90.955,94.536,88.694,90.528,88.694,85.99z"/>
	<path fill="none" stroke="#FF0000" stroke-width="5" stroke-miterlimit="10" d="M94.412,75.025
		c-3.457,2.418-5.718,6.427-5.718,10.965s2.261,8.546,5.718,10.969"/>
</g>
<rect x="4.389" y="37.712" fill="#FF0000" stroke="#FF0000" stroke-width="5" stroke-miterlimit="10" width="119.887" height="11.765"/>
</svg>
