<?xml version="1.0" encoding="UTF-8" standalone="no"?>
<svg
   xmlns:dc="http://purl.org/dc/elements/1.1/"
   xmlns:cc="http://creativecommons.org/ns#"
   xmlns:rdf="http://www.w3.org/1999/02/22-rdf-syntax-ns#"
   xmlns:svg="http://www.w3.org/2000/svg"
   xmlns="http://www.w3.org/2000/svg"
   xmlns:sodipodi="http://sodipodi.sourceforge.net/DTD/sodipodi-0.dtd"
   xmlns:inkscape="http://www.inkscape.org/namespaces/inkscape"
   enable-background="new 0 0 48 48"
   height="48px"
   version="1.1"
   viewBox="0 0 48 48"
   width="48px"
   xml:space="preserve"
   id="svg13"
   sodipodi:docname="iconImputation.svg"
   inkscape:version="1.0.1 (3bc2e813f5, 2020-09-07)"><metadata
     id="metadata19"><rdf:RDF><cc:Work
         rdf:about=""><dc:format>image/svg+xml</dc:format><dc:type
           rdf:resource="http://purl.org/dc/dcmitype/StillImage" /></cc:Work></rdf:RDF></metadata><defs
     id="defs17" /><sodipodi:namedview
     pagecolor="#ffffff"
     bordercolor="#666666"
     borderopacity="1"
     objecttolerance="10"
     gridtolerance="10"
     guidetolerance="10"
     inkscape:pageopacity="0"
     inkscape:pageshadow="2"
     inkscape:window-width="1920"
     inkscape:window-height="1017"
     id="namedview15"
     showgrid="false"
     inkscape:zoom="15.3125"
     inkscape:cx="24"
     inkscape:cy="24"
     inkscape:window-x="-8"
     inkscape:window-y="-8"
     inkscape:window-maximized="1"
     inkscape:current-layer="svg13" /><g
     id="Layer_5"
     style="stroke:none;stroke-opacity:1;fill:#fe0000;fill-opacity:1"><g
       id="g10"
       style="stroke:none;stroke-opacity:1;fill:#fe0000;fill-opacity:1"><path
         d="M42.882,13.581l2.59-2.592l-6.078-6.08l-2.596,2.595C39.201,9.112,41.271,11.177,42.882,13.581z"
         fill="#241F20"
         id="path2"
         style="stroke:none;stroke-opacity:1;fill:#fe0000;fill-opacity:1" /><path
         d="M23.327,6.355c-11.486,0-20.798,9.312-20.798,20.798c0,11.486,9.312,20.799,20.798,20.799    c11.486,0,20.798-9.312,20.798-20.799C44.125,15.667,34.812,6.355,23.327,6.355z M23.327,45.431    c-10.094,0-18.277-8.183-18.277-18.277c0-10.093,8.184-18.277,18.277-18.277c10.094,0,18.277,8.184,18.277,18.277    C41.604,37.248,33.421,45.431,23.327,45.431z"
         fill="#241F20"
         id="path4"
         style="stroke:none;stroke-opacity:1;fill:#fe0000;fill-opacity:1" /><path
         d="M19.028,4.284c1.387-0.292,2.824-0.45,4.298-0.45c1.475,0,2.912,0.158,4.298,0.45v-1.57h1.229V0.048H17.8    v2.667h1.229V4.284z"
         fill="#241F20"
         id="path6"
         style="stroke:none;stroke-opacity:1;fill:#fe0000;fill-opacity:1" /><path
         d="M23.327,11.447v15.756h15.756C39.083,18.502,32.028,11.447,23.327,11.447z"
         fill="#241F20"
         id="path8"
         style="stroke:none;stroke-opacity:1;fill:#fe0000;fill-opacity:1" /></g></g></svg>
