<?xml version="1.0" encoding="utf-8"?>
<!-- Generator: Adobe Illustrator 16.0.0, SVG Export Plug-In . SVG Version: 6.00 Build 0)  -->
<!DOCTYPE svg PUBLIC "-//W3C//DTD SVG 1.1//EN" "http://www.w3.org/Graphics/SVG/1.1/DTD/svg11.dtd">
<svg version="1.1" xmlns="http://www.w3.org/2000/svg" xmlns:xlink="http://www.w3.org/1999/xlink" x="0px" y="0px" width="128px"
	 height="128px" viewBox="0 0 128 128" enable-background="new 0 0 128 128" xml:space="preserve">
<g id="Calque_3">
	<g id="Calque_3_2_">
		
			<line fill="none" stroke="#FF0000" stroke-width="3" stroke-linecap="round" stroke-linejoin="round" stroke-miterlimit="10" x1="77.102" y1="68.427" x2="77.102" y2="91.194"/>
		<path fill="none" stroke="#FF0000" stroke-width="3" stroke-linecap="round" stroke-linejoin="round" stroke-miterlimit="10" d="
			M69.653,94.107v-5.68c0-0.449-0.362-0.813-0.81-0.813H50.662c-0.448,0-0.812,0.363-0.812,0.813v15.679
			c0,0.449,0.363,0.811,0.812,0.811h15.254C65.917,104.917,65.611,99.088,69.653,94.107z"/>
		
			<line fill="none" stroke="#FF0000" stroke-width="3" stroke-linecap="round" stroke-linejoin="round" stroke-miterlimit="10" x1="45.429" y1="109.612" x2="69.649" y2="109.612"/>
		<path fill="none" stroke="#FF0000" stroke-width="3" stroke-linecap="round" stroke-linejoin="round" stroke-miterlimit="10" d="
			M81.276,88.729h5.856l4.74-24.72h18.364l1.197,26.052h9.98v17.433h-1.863c0,0-0.731-6.454-7.538-6.454
			c-7.188,0-7.564,5.829-7.564,5.829h-9.464c0,0-0.052-1.835-0.052-4.298c0-2.063-1.464-11.704-11.979-11.704h-1.679V88.729z"/>
		<circle fill="none" stroke="#FF0000" stroke-width="3" stroke-miterlimit="10" cx="81.564" cy="104.018" r="9.04"/>
		<circle fill="none" stroke="#FF0000" stroke-width="3" stroke-miterlimit="10" cx="111.543" cy="111.185" r="4.134"/>
		<path fill="none" stroke="#FF0000" stroke-width="3" stroke-linejoin="round" stroke-miterlimit="10" d="M95.537,68.427h10.809
			v18.132h-4.495l-2.02,3.231h-2.828c0,0-0.437-2.776-4.527-3.938L95.537,68.427z"/>
	</g>
</g>
<g id="Calque_2">
	<g>
		<path fill="none" stroke="#FF0000" stroke-width="5" stroke-linecap="round" stroke-miterlimit="10" d="M90.9,58.874v-29.02
			H71.804c-2.592,0-4.692-2.1-4.692-4.692V7.081H13.493c-2.591,0-4.692,2.102-4.692,4.692v105.074c0,2.592,2.101,4.692,4.692,4.692
			h57.749"/>
	</g>
	
		<line fill="none" stroke="#FF0000" stroke-width="5" stroke-linecap="round" stroke-linejoin="round" stroke-miterlimit="10" x1="68.682" y1="7.081" x2="90.9" y2="28.657"/>
	<g>
		<g>
			<path fill="none" stroke="#FF0000" stroke-width="3" stroke-linecap="round" stroke-linejoin="round" stroke-miterlimit="10" d="
				M36.424,56.925c-2.051,0-3.712-1.661-3.712-3.71l0,0c0-2.05,1.661-3.71,3.712-3.71h5.4c2.049,0,3.71,1.66,3.71,3.71l0,0"/>
			<path fill="none" stroke="#FF0000" stroke-width="3" stroke-linecap="round" stroke-linejoin="round" stroke-miterlimit="10" d="
				M36.424,56.925h5.4c2.049,0,3.71,1.66,3.71,3.709l0,0c0,2.049-1.662,3.71-3.71,3.71h-5.4c-2.051,0-3.712-1.661-3.712-3.71"/>
		</g>
		
			<line fill="none" stroke="#FF0000" stroke-width="3" stroke-linecap="round" stroke-linejoin="round" stroke-miterlimit="10" x1="39.123" y1="49.504" x2="39.123" y2="46.044"/>
		
			<line fill="none" stroke="#FF0000" stroke-width="3" stroke-linecap="round" stroke-linejoin="round" stroke-miterlimit="10" x1="39.123" y1="67.805" x2="39.123" y2="64.346"/>
	</g>
	<path fill="none" stroke="#FF0000" stroke-width="3" stroke-miterlimit="10" d="M46.717,26.688c0,1.258-1.02,2.279-2.278,2.279
		H33.843c-1.259,0-2.279-1.02-2.279-2.279v-2.393c0-1.258,1.02-2.278,2.279-2.278h10.595c1.258,0,2.278,1.02,2.278,2.278V26.688z"/>
	<circle fill="none" stroke="#FF0000" stroke-width="3" stroke-miterlimit="10" cx="39.123" cy="56.924" r="23.031"/>
	<circle fill="none" stroke="#FF0000" stroke-width="3" stroke-miterlimit="10" cx="39.123" cy="56.924" r="18.385"/>
	<line fill="none" stroke="#FF0000" stroke-width="3" stroke-miterlimit="10" x1="36.236" y1="28.967" x2="36.236" y2="34.413"/>
	<line fill="none" stroke="#FF0000" stroke-width="3" stroke-miterlimit="10" x1="42.046" y1="28.967" x2="42.046" y2="34.413"/>
	<path fill="none" stroke="#FF0000" stroke-width="3" stroke-linejoin="round" stroke-miterlimit="10" d="M53.153,39.169
		l5.963-6.179c0.35-0.362,0.926-0.372,1.289-0.023l2.733,2.638c0.361,0.35,0.372,0.926,0.022,1.289l-5.999,6.215"/>
</g>
</svg>
