<?xml version="1.0" encoding="utf-8"?>
<!-- Generator: Adobe Illustrator 16.0.0, SVG Export Plug-In . SVG Version: 6.00 Build 0)  -->
<!DOCTYPE svg PUBLIC "-//W3C//DTD SVG 1.1//EN" "http://www.w3.org/Graphics/SVG/1.1/DTD/svg11.dtd">
<svg version="1.1" xmlns="http://www.w3.org/2000/svg" xmlns:xlink="http://www.w3.org/1999/xlink" x="0px" y="0px" width="128px"
	 height="128px" viewBox="0 0 128 128" enable-background="new 0 0 128 128" xml:space="preserve">
<g id="Calque_2" display="none">
	<g display="inline">
		<path fill="none" d="M65.085,64.747c9.406,0,15.547-12.935,16.563-26.153h-30.49c-0.851,0.106-1.718,0.198-2.616,0.25
			C49.617,51.975,55.738,64.747,65.085,64.747z"/>
		<path fill="none" d="M92.959,75.411l-9.646-3.521l-15.433,8.746l-5.938-0.091l-15.506-8.65l-9.566,3.517
			c-1.507,0.726-19.394,9.841-18.328,33.114c0.541,0.854,3.165,4.105,11.531,4.173c-0.264-4.405-0.719-14.237-0.156-22.852
			l4.739,0.309c-0.606,9.288,0.032,20.393,0.246,23.605c5.498,4.867,17.007,7.822,30.305,7.707
			c12.979-0.095,24.489-3.097,29.763-7.705c0.195-3.278,0.782-14.627,0.146-23.754l4.74-0.331c0.593,8.51,0.177,18.561-0.065,23.021
			c8.268-0.072,10.908-3.267,11.493-4.19C112.336,85.28,94.51,76.16,92.959,75.411z"/>
		<path fill="#FF0000" d="M35.814,38.594h6.227c0,0.002,0,0.004,0,0.006c-1.305,2.819-1.772,7.667,4.469,13.882
			c3.377,9.688,9.662,17.016,18.575,17.016c8.739,0,15.188-7.482,18.631-17.413c5.837-6.035,5.342-10.733,4.063-13.491h6.233
			c1.215,0,2.199-0.984,2.199-2.199c0-1.214-0.984-2.199-2.199-2.199h-2.942c0.016-0.334,0.024-0.671,0.024-1.009
			c0-10.568-6.177-19.661-15.054-23.763c0.027,1.039,0.032,2.212,0.032,3.533v3.8c0,10.968-0.595,11.62-10.622,11.62
			c-10.028,0-10.623-0.652-10.623-11.62v-3.8c0-1.326,0.009-2.498,0.042-3.54c-8.881,4.101-15.063,13.198-15.063,23.77
			c0,0.341,0.03,0.673,0.046,1.009h-4.039c-1.214,0-2.199,0.985-2.199,2.199C33.615,37.609,34.6,38.594,35.814,38.594z
			 M51.157,38.594h30.49c-1.016,13.218-7.156,26.153-16.563,26.153c-9.347,0-15.468-12.772-16.543-25.903
			C49.439,38.792,50.306,38.7,51.157,38.594z"/>
		<path fill="#FF0000" d="M94.869,71.062l-14.21-5.197L67.985,73.28h-6.222l-12.676-7.422l-13.957,5.131l-0.173,0.072
			c-0.229,0.104-22.684,10.775-21.134,38.211l0.021,0.353l0.12,0.331c0.119,0.321,2.909,7.502,16.378,7.502
			c0.5,0,1.019-0.015,1.55-0.035c6.384,5.541,18.402,8.797,32.666,8.797c0.227,0,0.455-0.002,0.682-0.003
			c11.191-0.079,25.396-2.454,32.748-8.793c14.753,0.546,17.747-7.134,17.87-7.469l0.122-0.33l0.02-0.353
			C117.55,81.837,95.096,71.166,94.869,71.062z M111.283,108.508c-0.585,0.924-3.226,4.118-11.493,4.19
			c0.242-4.46,0.658-14.511,0.065-23.021l-4.74,0.331c0.637,9.127,0.05,20.476-0.146,23.754c-5.273,4.608-16.784,7.61-29.763,7.705
			c-13.298,0.115-24.808-2.84-30.305-7.707c-0.213-3.213-0.852-14.317-0.246-23.605l-4.739-0.309
			c-0.563,8.614-0.108,18.446,0.156,22.852c-8.366-0.067-10.99-3.319-11.531-4.173c-1.065-23.273,16.821-32.389,18.328-33.114
			l9.566-3.517l15.506,8.65l5.938,0.091l15.433-8.746l9.646,3.521C94.51,76.16,112.336,85.28,111.283,108.508z"/>
		<path fill="#FF0000" d="M73.372,8.367c-0.083-1.763-0.28-2.937-0.768-3.485c-0.77-0.865-3.1-0.907-7.154-0.907
			c-3.994,0-6.394,0-7.163,0.853c-0.487,0.541-0.682,1.733-0.763,3.539c2.496-0.824,5.156-1.275,7.922-1.275
			C68.214,7.091,70.876,7.542,73.372,8.367z"/>
		<path fill="#FF0000" d="M57.466,16.756c0,4.501,0,7.218,0.823,8.129c0.77,0.852,3.175,0.852,7.161,0.852s6.391,0,7.16-0.852
			c0.823-0.911,0.823-3.627,0.823-8.129v-3.8c0-1.835-0.003-3.353-0.062-4.589c-2.496-0.824-5.158-1.275-7.926-1.275
			c-2.766,0-5.426,0.451-7.922,1.275c-0.055,1.239-0.059,2.759-0.059,4.589V16.756z"/>
	</g>
</g>
<g id="Calque_3">
	<g>
		<path fill="#FF0000" d="M79.862,35.464c3.781-18.104-7.774-28.311-22.815-28.311c-26.96,0-22.255,29.539-22.255,29.539
			c0.029,0.003,0.058,0.004,0.087,0.007c-1.231,2.785-1.595,7.457,4.25,13.417c3.339,9.769,9.626,17.191,18.576,17.191
			c8.62,0,14.997-7.316,18.445-17.069C83.111,43.219,81.468,37.973,79.862,35.464z M57.705,62.58
			c-9.302,0-15.394-12.712-16.463-25.778c11.693-0.688,19.433-6.228,23.595-10.293c1.979,3.558,6.074,5.944,9.485,7.399
			C73.98,47.924,67.692,62.58,57.705,62.58z"/>
	</g>
	<g>
		<path fill="none" d="M52.523,117.361c-0.81-0.251-1.482-0.886-1.742-1.741L37.128,70.565c-0.232-0.767-0.098-1.562,0.309-2.188
			l-8.486,3.121C27.718,72.092,8.096,81.945,9.481,106.93c0.221,0.513,2.729,5.712,13.817,5.712
			c0.459-0.002,0.944-0.015,1.438-0.032c0.035-0.002,0.071-0.004,0.105-0.004c0.631,0,1.243,0.228,1.721,0.643
			c5.126,4.449,14.591,7.326,25.879,7.973l-0.196-0.2L52.523,117.361z"/>
		<path fill="none" d="M86.489,71.517l-8.341-3.067c0.403,0.626,0.537,1.418,0.305,2.182l-13.801,45.545
			c-0.257,0.853-0.926,1.485-1.732,1.739l0.236,3.105l-0.139,0.142c9.483-0.642,20.119-2.95,25.884-7.917
			c0.502-0.433,1.146-0.645,1.812-0.635c0.475,0.017,0.942,0.031,1.391,0.031c11.021-0.002,13.567-5.14,13.817-5.714
			C107.293,82.239,88.15,72.329,86.489,71.517z"/>
		<path fill="#FF0000" d="M88.603,66.707c-0.062-0.028-0.121-0.053-0.184-0.075l-13.565-4.993c-1.327-0.489-2.801,0.161-3.337,1.467
			l-1.795,4.373c-0.271,0.661-0.263,1.401,0.024,2.056c0.288,0.652,0.829,1.162,1.499,1.407l1.462,0.539l-8.791,29.015
			l-0.904-15.813c-0.014-0.24-0.06-0.473-0.135-0.692l2.426-3.442c0.455-0.646,0.595-1.46,0.382-2.221
			c-0.044-0.16-0.052-0.186-1.699-4.453c-0.416-1.078-1.477-1.751-2.623-1.675c-0.276,0.009-1.619,0.016-3.659,0.016
			c-2.043,0-3.385-0.007-3.663-0.016c-1.139-0.087-2.203,0.593-2.621,1.668c-2.023,5.204-2.023,5.204-1.583,6.215
			c0.072,0.165,0.159,0.32,0.263,0.466l2.427,3.442c-0.074,0.22-0.121,0.452-0.134,0.692l-0.873,15.258l-8.645-28.526l1.304-0.479
			c0.671-0.247,1.213-0.756,1.5-1.411c0.286-0.654,0.294-1.398,0.021-2.06l-1.811-4.371c-0.541-1.302-2.014-1.945-3.333-1.459
			L27.158,66.56c-0.032,0.011-0.063,0.022-0.093,0.035l-0.174,0.071c-0.033,0.016-0.064,0.028-0.095,0.042
			c-0.242,0.11-24.2,11.438-22.556,40.562l0.02,0.349c0.015,0.26,0.067,0.514,0.156,0.758l0.12,0.326
			c0.345,0.942,3.797,9.191,18.767,9.191c0.206,0,0.415-0.003,0.628-0.007c7.023,5.556,19.108,8.725,33.408,8.725h0.011l0.697-0.002
			c5.388-0.04,23.369-0.793,33.475-8.721c0.195,0.004,0.39,0.005,0.581,0.005c14.989-0.001,18.423-8.256,18.763-9.195l0.121-0.328
			c0.087-0.239,0.14-0.49,0.154-0.745l0.02-0.355C112.81,78.107,88.846,66.816,88.603,66.707z M52.245,78.835
			c-0.009-0.019,1.623-4.214,1.623-4.214c0.191,0.027,7.479,0.027,7.669,0c0,0,1.603,4.151,1.62,4.214l-2.592,3.682H54.84
			L52.245,78.835z M105.921,106.928c-0.25,0.574-2.796,5.712-13.817,5.714c-0.448,0-0.916-0.015-1.391-0.031
			c-0.665-0.01-1.31,0.202-1.812,0.635c-5.765,4.967-16.4,7.275-25.884,7.917l-5.315,3.396l-5.261-3.338
			c-11.288-0.646-20.753-3.523-25.879-7.973c-0.478-0.415-1.089-0.643-1.721-0.643c-0.034,0-0.071,0.002-0.105,0.004
			c-0.494,0.018-0.979,0.03-1.438,0.032c-11.088,0-13.596-5.199-13.817-5.712C8.096,81.945,27.718,72.092,28.951,71.498l8.486-3.121
			c-0.406,0.627-0.541,1.422-0.309,2.188l13.653,45.055c0.26,0.855,0.933,1.49,1.742,1.741l2.49-32.728h5.376l2.53,33.281
			c0.807-0.254,1.476-0.887,1.732-1.739l13.801-45.545c0.232-0.764,0.099-1.556-0.305-2.182l8.341,3.067
			C88.15,72.329,107.293,82.239,105.921,106.928z"/>
		<path fill="#FFFFFF" d="M59.201,80.09l1.003-1.424c-0.146-0.378-0.307-0.8-0.463-1.2c-0.527,0.001-1.194,0.001-2.038,0.001
			c-0.849,0-1.517,0-2.045-0.001c-0.167,0.433-0.326,0.841-0.464,1.196l1.007,1.428H59.201z"/>
		<path fill="#FFFFFF" d="M60.564,82.517l2.592-3.682c-0.018-0.063-1.62-4.214-1.62-4.214c-0.19,0.027-7.478,0.027-7.669,0
			c0,0-1.631,4.195-1.623,4.214l2.596,3.682H60.564z"/>
	</g>
	<g>
		<path fill="#FF0000" d="M91.54,23.535c0,0.507-0.41,0.918-0.918,0.918h-4.017c-0.507,0-0.918-0.411-0.918-0.918v-4.016
			c0-0.507,0.411-0.918,0.918-0.918h4.017c0.508,0,0.918,0.411,0.918,0.918V23.535z"/>
		<path fill="#FF0000" d="M100.089,23.535c0,0.507-0.41,0.918-0.918,0.918h-4.017c-0.507,0-0.918-0.411-0.918-0.918v-4.016
			c0-0.507,0.411-0.918,0.918-0.918h4.017c0.508,0,0.918,0.411,0.918,0.918V23.535z"/>
		<path fill="#FF0000" d="M108.58,23.535c0,0.507-0.41,0.918-0.918,0.918h-4.016c-0.508,0-0.918-0.411-0.918-0.918v-4.016
			c0-0.507,0.41-0.918,0.918-0.918h4.016c0.508,0,0.918,0.411,0.918,0.918V23.535z"/>
	</g>
	<g>
		<path fill="none" d="M80.944,34.431c0,0.41-0.013,0.815-0.027,1.221h8.834v10.819l8.811-10.819h23.801V7.402H71.906v4.573
			C77.435,17.391,80.944,25.438,80.944,34.431z"/>
		<path fill="#FF0000" d="M124.273,2.402H69.995c-1.732,0-3.089,1.461-3.089,3.326V9.25c1.8,1.056,3.477,1.233,5,2.726V7.402h50.456
			v28.25H98.562l-8.811,10.819V35.652l-9.889-0.188c-0.061,1.708,0.808,3.566,0.505,5.188h4.384v19.877l16.188-19.877h23.335
			c1.732,0,3.089-1.461,3.089-3.326V5.729C127.362,3.863,126.006,2.402,124.273,2.402z"/>
	</g>
</g>
</svg>
