<?xml version="1.0" encoding="utf-8"?>
<!-- Generator: Adobe Illustrator 16.0.0, SVG Export Plug-In . SVG Version: 6.00 Build 0)  -->
<!DOCTYPE svg PUBLIC "-//W3C//DTD SVG 1.1//EN" "http://www.w3.org/Graphics/SVG/1.1/DTD/svg11.dtd">
<svg version="1.1" xmlns="http://www.w3.org/2000/svg" xmlns:xlink="http://www.w3.org/1999/xlink" x="0px" y="0px" width="128px"
	 height="128px" viewBox="0 0 128 128" enable-background="new 0 0 128 128" xml:space="preserve">
<g id="Calque_1">
	<g id="Calque_1_1_" xmlns:serif="http://www.serif.com/">
		<g id="path17">
			<path fill="none" stroke="#FF0000" stroke-width="5" stroke-linecap="round" stroke-linejoin="round" stroke-miterlimit="10" d="
				M66.304,5.142c0.07,0.052,5.823,0.127,5.896,0.2l0.035,4.354l0.047,5.598l0.029,3.637l3.471,1.091l1.76,0.554
				c2.346,0.737,4.605,1.665,6.916,2.836c2.617,1.326,3.318,1.682,4.643,1.682c2.188,0,2.584-0.394,7.43-5.214
				c1.104-1.099,2.561-2.547,3.268-3.134h0.063c0.896,0.752,2.875,2.746,5.477,5.371l0.27,0.272c2.795,2.822,4.92,4.965,5.709,5.933
				c-0.605,0.724-2.041,2.163-3.135,3.259l-3.785,3.797l-2.535,2.542l1.602,3.214l1.223,2.452c1.232,2.48,2.078,4.558,2.832,6.947
				l0.553,1.761l1.09,3.472l3.641,0.03l5.6,0.046l4.354,0.036c0.072,0.073,0.147,0.161,0.199,0.233V72.02
				c-0.052,0.071-0.127,0.158-0.199,0.231l-4.362,0.035l-5.605,0.047l-3.676,0.031l-1.065,3.519l-0.396,1.311
				c-0.736,2.434-2.313,6.139-3.666,8.611l-0.563,1.027l-1.799,3.281l2.644,2.65l3.854,3.862c1.531,1.538,2.578,2.646,3.142,3.271
				c-0.761,0.9-2.854,3-5.614,5.765l-0.218,0.218c-2.668,2.671-4.698,4.705-5.635,5.487c-0.724-0.606-2.149-2.03-3.237-3.117
				c-4.939-4.919-5.234-5.214-7.412-5.214c-1.281,0-1.826,0.271-4.854,1.771c-2.529,1.256-4.365,2.004-6.773,2.764l-1.711,0.539
				l-3.467,1.092l-0.027,3.635l-0.049,5.6l-0.033,4.354c-0.055,0.053-0.113,0.106-0.168,0.149c-0.928,0.051-3.41,0.059-7.508,0.07
				l-1.559,0.004c-3.738,0-6.145-0.033-6.939-0.063c-0.067-0.031-0.147-0.085-0.208-0.142l-0.036-4.39l-0.046-5.604l-0.03-3.676
				l-3.518-1.066l-1.315-0.398c-2.382-0.72-5.877-2.203-8.497-3.609l-1.18-0.633l-3.268-1.756l-2.627,2.617l-3.864,3.852
				c-1.537,1.528-2.644,2.578-3.268,3.143c-0.952-0.792-3.237-3.082-5.834-5.686l-0.183-0.186c-2.644-2.646-4.66-4.669-5.446-5.605
				c0.614-0.729,2.048-2.168,3.141-3.266l3.788-3.801L26.2,90.2l-1.602-3.216l-1.22-2.448c-1.243-2.495-2.091-4.571-2.836-6.943
				l-0.553-1.761l-1.09-3.473L15.26,72.33l-5.605-0.044l-4.353-0.035c-0.073-0.071-0.148-0.159-0.201-0.229V67"/>
		</g>
		<path id="path19_1_" fill="none" stroke="#FF0000" stroke-width="5" stroke-linecap="round" stroke-miterlimit="10" d="
			M68.33,40.484c6.564,1.297,12.027,4.943,15.65,10.443c5.229,7.945,5.229,18.2,0,26.146c-3.599,5.461-9.127,9.163-15.562,10.42
			c-1.591,0.31-5.208,0.506-6.603,0.356c-1.379-0.146-3.955-0.703-5.245-1.131c-8.315-2.759-14.352-9.656-16.09-18.389"/>
	</g>
	<g id="Calque_2">
	</g>
</g>
<g id="Calque_2_2_">
	<g id="Calque_2_1_">
		<g id="Calque_3_1_">
			<g>
				
					<path fill="#FFFFFF" stroke="#FF0000" stroke-width="5" stroke-linecap="round" stroke-linejoin="round" stroke-miterlimit="10" d="
					M56.654,55.605c0,0.578-0.469,1.049-1.049,1.049H5.548c-0.579,0-1.048-0.471-1.048-1.049V5.548C4.5,4.969,4.969,4.5,5.548,4.5
					h50.058c0.58,0,1.049,0.469,1.049,1.048V55.605L56.654,55.605z"/>
				<circle fill="#FF0000" cx="16.424" cy="17.481" r="3.704"/>
				<line fill="none" stroke="#FF0000" stroke-width="4" stroke-miterlimit="10" x1="24.219" y1="17.481" x2="46.23" y2="17.481"/>
				<circle fill="#FF0000" cx="16.424" cy="30.577" r="3.704"/>
				<line fill="none" stroke="#FF0000" stroke-width="4" stroke-miterlimit="10" x1="24.219" y1="30.578" x2="46.23" y2="30.578"/>
				<circle fill="#FF0000" cx="16.424" cy="43.673" r="3.704"/>
				<line fill="none" stroke="#FF0000" stroke-width="4" stroke-miterlimit="10" x1="24.219" y1="43.672" x2="46.23" y2="43.672"/>
			</g>
		</g>
	</g>
</g>
</svg>
