<?xml version="1.0" encoding="utf-8"?>
<!-- Generator: Adobe Illustrator 16.0.0, SVG Export Plug-In . SVG Version: 6.00 Build 0)  -->
<!DOCTYPE svg PUBLIC "-//W3C//DTD SVG 1.1//EN" "http://www.w3.org/Graphics/SVG/1.1/DTD/svg11.dtd">
<svg version="1.1" xmlns="http://www.w3.org/2000/svg" xmlns:xlink="http://www.w3.org/1999/xlink" x="0px" y="0px" width="128px"
	 height="128px" viewBox="0 0 128 128" enable-background="new 0 0 128 128" xml:space="preserve">
<g id="Livello_1" xmlns:sodipodi="http://sodipodi.sourceforge.net/DTD/sodipodi-0.dtd" xmlns:inkscape="http://www.inkscape.org/namespaces/inkscape" xmlns:rdf="http://www.w3.org/1999/02/22-rdf-syntax-ns#" xmlns:cc="http://creativecommons.org/ns#" xmlns:svg="http://www.w3.org/2000/svg" xmlns:dc="http://purl.org/dc/elements/1.1/" sodipodi:docname="iconHome.svg" inkscape:version="1.0 (4035a4fb49, 2020-05-01)" display="none">
	
		<sodipodi:namedview  id="namedview7" objecttolerance="10" gridtolerance="10" pagecolor="#ffffff" inkscape:cy="41.675131" borderopacity="1" showgrid="false" inkscape:zoom="2.8710938" inkscape:cx="7.8240306" guidetolerance="10" bordercolor="#666666" inkscape:window-height="845" inkscape:current-layer="Livello_1" inkscape:window-y="0" inkscape:window-width="1519" inkscape:window-x="0" inkscape:pageopacity="0" inkscape:window-maximized="0" inkscape:pageshadow="2">
		</sodipodi:namedview>
	<title  id="title2"></title>
	
		<circle display="inline" fill="none" stroke="#FF0000" stroke-width="5" stroke-linecap="round" stroke-linejoin="round" stroke-miterlimit="10" cx="36.769" cy="35.648" r="33.069"/>
	
		<path display="inline" fill="none" stroke="#FF0000" stroke-width="5" stroke-linecap="round" stroke-linejoin="round" stroke-miterlimit="10" d="
		M36.766,16.466c4.911-0.001,9.822,1.873,13.568,5.618c3.743,3.745,5.616,8.654,5.618,13.563"/>
	
		<path display="inline" fill="none" stroke="#FF0000" stroke-width="5" stroke-linecap="round" stroke-linejoin="round" stroke-miterlimit="10" d="
		M123.689,116.043l-6.524,6.527c-1.444,1.443-3.81,1.443-5.252,0L57.036,68.719c-1.444-1.443-1.444-3.807,0-5.253l6.525-6.525
		c1.445-1.445,3.806-1.445,5.251,0l54.877,53.852C125.135,112.234,125.135,114.6,123.689,116.043z"/>
</g>
<g id="Calque_2">
	<g>
		
			<circle fill="none" stroke="#FF0000" stroke-width="5" stroke-linecap="round" stroke-linejoin="round" stroke-miterlimit="10" cx="36.867" cy="37.105" r="31.395"/>
		
			<line fill="none" stroke="#FF0000" stroke-width="5" stroke-linecap="round" stroke-linejoin="round" stroke-miterlimit="10" x1="59.066" y1="59.305" x2="68.926" y2="69.166"/>
		<path fill="none" stroke="#FF0000" stroke-width="5" stroke-linecap="round" stroke-linejoin="round" stroke-miterlimit="10" d="
			M119.101,113.722l-5.618,5.616c-1.53,1.531-4.035,1.531-5.563,0L66.118,77.539c-1.53-1.53-1.53-4.032,0-5.563l5.618-5.619
			c1.53-1.53,4.033-1.53,5.563,0l41.801,41.799C120.631,109.687,120.631,112.189,119.101,113.722z"/>
	</g>
</g>
</svg>
