<?xml version="1.0" encoding="utf-8"?>
<!-- Generator: Adobe Illustrator 16.0.0, SVG Export Plug-In . SVG Version: 6.00 Build 0)  -->
<!DOCTYPE svg PUBLIC "-//W3C//DTD SVG 1.1//EN" "http://www.w3.org/Graphics/SVG/1.1/DTD/svg11.dtd">
<svg version="1.1" xmlns="http://www.w3.org/2000/svg" xmlns:xlink="http://www.w3.org/1999/xlink" x="0px" y="0px" width="128px"
	 height="128px" viewBox="0 0 128 128" enable-background="new 0 0 128 128" xml:space="preserve">
<g id="Calque_3" display="none">
	<g id="Icones" display="inline">
		<g id="Artboard" transform="translate(-1260.000000, -550.000000)">
			<g id="icone-signature-du-contrat-franchise" transform="translate(1249.000000, 539.000000)">
				<g id="Rectangle">
				</g>
				<defs>
					<filter id="Adobe_OpacityMaskFilter" filterUnits="userSpaceOnUse" x="17.792" y="14.53" width="118.208" height="120.625">
						<feColorMatrix  type="matrix" values="1 0 0 0 0  0 1 0 0 0  0 0 1 0 0  0 0 0 1 0"/>
					</filter>
				</defs>
				<mask maskUnits="userSpaceOnUse" x="17.792" y="14.53" width="118.208" height="120.625" id="mask-2_1_">
					<g filter="url(#Adobe_OpacityMaskFilter)">
						<rect id="path-1_1_" x="10.359" y="6.755" fill="#FFFFFF" width="135.157" height="135.158"/>
					</g>
				</mask>
				<g id="Group-16" mask="url(#mask-2_1_)">
					<g transform="translate(11.000000, 11.000000)">
						<path id="Fill-1" fill="#FF0000" d="M32.528,22.787c-0.777,0-1.407,0.605-1.407,1.352c0,0.744,0.63,1.352,1.407,1.352h47.193
							c0.775,0,1.407-0.608,1.407-1.352c0-0.746-0.632-1.352-1.407-1.352H32.528z"/>
						<path id="Fill-3" fill="#FF0000" d="M20.978,22.787h-0.664c-0.747,0-1.357,0.605-1.357,1.352c0,0.744,0.61,1.352,1.357,1.352
							h0.664c0.75,0,1.357-0.608,1.357-1.352C22.335,23.393,21.728,22.787,20.978,22.787"/>
						<path id="Fill-5" fill="#FF0000" d="M79.047,36.303c0.776,0,1.406-0.606,1.406-1.352c0-0.744-0.63-1.352-1.406-1.352H20.363
							c-0.774,0-1.406,0.607-1.406,1.352c0,0.746,0.632,1.352,1.406,1.352H79.047z"/>
						<path id="Fill-7" fill="#FF0000" d="M79.047,47.115c0.776,0,1.406-0.607,1.406-1.352c0-0.746-0.63-1.352-1.406-1.352H20.363
							c-0.774,0-1.406,0.605-1.406,1.352c0,0.744,0.632,1.352,1.406,1.352H79.047z"/>
						<path id="Fill-9" fill="#FF0000" d="M48.586,58.604c0.803,0,1.457-0.606,1.457-1.352c0-0.745-0.654-1.352-1.457-1.352h-1.141
							c-0.803,0-1.457,0.607-1.457,1.352c0,0.746,0.654,1.352,1.457,1.352H48.586z"/>
						<path id="Fill-11" fill="#FF0000" d="M37.81,58.604c0.784,0,1.42-0.606,1.42-1.352c0-0.745-0.636-1.352-1.42-1.352H20.379
							c-0.784,0-1.423,0.607-1.423,1.352c0,0.746,0.639,1.352,1.423,1.352H37.81z"/>
						<g id="Group-15">
							<g id="Clip-14">
							</g>
							<defs>
								
									<filter id="Adobe_OpacityMaskFilter_1_" filterUnits="userSpaceOnUse" x="6.792" y="3.53" width="118.208" height="120.625">
									<feColorMatrix  type="matrix" values="1 0 0 0 0  0 1 0 0 0  0 0 1 0 0  0 0 0 1 0"/>
								</filter>
							</defs>
							<mask maskUnits="userSpaceOnUse" x="6.792" y="3.53" width="118.208" height="120.625" id="mask-4_1_">
								<g filter="url(#Adobe_OpacityMaskFilter_1_)">
									<polygon id="path-3_1_" fill="#FFFFFF" points="6.792,3.53 124.999,3.53 124.999,124.154 6.792,124.154 									"/>
								</g>
							</mask>
							<path id="Fill-13" mask="url(#mask-4_1_)" fill="#FF0000" d="M99.139,29.468l11.826,6.835L74.639,99.3l-11.828-6.835
								L99.139,29.468z M105.315,18.76l11.825,6.838l-4.77,8.272l-11.829-6.836L105.315,18.76z M109.446,11.595
								c1.884-3.262,6.068-4.383,9.328-2.502c1.581,0.914,2.71,2.388,3.181,4.152c0.473,1.763,0.231,3.606-0.682,5.188l-2.729,4.73
								l-11.827-6.835L109.446,11.595z M62.158,95.334l10.324,5.968l-11.124,7.352L62.158,95.334z M90.563,121.345H30.73v-19.751
								c0-0.773-0.629-1.405-1.403-1.405H9.601V6.34h80.96v32.378l-9.465,16.413H58.459c-0.773,0-1.403,0.632-1.403,1.405
								c0,0.776,0.63,1.407,1.403,1.407h21.017l-4.717,8.177H20.796c-0.774,0-1.403,0.632-1.403,1.407
								c0,0.773,0.629,1.405,1.403,1.405h52.343l-4.716,8.18H20.796c-0.774,0-1.403,0.63-1.403,1.402
								c0,0.778,0.629,1.408,1.403,1.408h46.006l-7.125,12.354c-0.106,0.184-0.168,0.387-0.181,0.606l-1.106,18.409
								c-0.034,0.533,0.235,1.031,0.697,1.3c0.168,0.098,0.357,0.158,0.564,0.178c0.489,0.005,12.27,0.01,20.053,0.012
								c0.775,0,1.403-0.631,1.403-1.406c0-0.774-0.628-1.406-1.403-1.406H64.467l11.464-7.582c0.179-0.121,0.332-0.283,0.437-0.465
								l14.195-24.614V121.345z M27.923,119.357L11.585,103h16.338V119.357z M8.195,3.53c-0.772,0-1.403,0.631-1.403,1.405v96.659
								c0,0.371,0.152,0.732,0.412,0.996l21.129,21.153c0.265,0.266,0.619,0.411,0.994,0.411h62.64c0.771,0,1.402-0.629,1.402-1.404
								V72.439l30.334-52.602c1.288-2.231,1.631-4.831,0.965-7.321c-0.666-2.488-2.261-4.568-4.489-5.858
								c-4.604-2.661-10.509-1.076-13.163,3.532L93.369,33.851V4.935c0-0.774-0.631-1.405-1.402-1.405H8.195z"/>
						</g>
					</g>
				</g>
			</g>
		</g>
	</g>
</g>
<g id="Calque_2">
	
		<polyline fill="none" stroke="#FF0000" stroke-width="5" stroke-linecap="round" stroke-linejoin="round" stroke-miterlimit="10" points="
		10.312,43.342 10.312,76.273 75.258,76.273 75.258,11.137 64.813,11.137 64.813,43.309 57.027,43.309 57.027,28.161 41.155,43.309 
		41.155,28.091 25.417,43.342 25.417,28.161 10.312,43.342 	"/>
	<path fill="none" stroke="#FF0000" stroke-width="5" stroke-linecap="round" stroke-linejoin="round" stroke-miterlimit="10" d="
		M38.161,63.397c0,0.923-0.748,1.671-1.671,1.671H22.005c-0.923,0-1.671-0.748-1.671-1.671v-5.292c0-0.923,0.748-1.671,1.671-1.671
		H36.49c0.923,0,1.671,0.748,1.671,1.671V63.397z"/>
</g>
<g id="Calque_4">
	<g>
		<path fill="none" stroke="#FF0000" stroke-width="5" stroke-linecap="round" stroke-linejoin="round" stroke-miterlimit="10" d="
			M16.127,89.166v12.547h17.898c1.657,0,3,1.343,3,3v18.037h61.276c1.657,0,3-1.343,3-3V96.5"/>
		<path fill="none" stroke="#FF0000" stroke-width="5" stroke-linecap="round" stroke-linejoin="round" stroke-miterlimit="10" d="
			M101.301,42.5V6.53c0-1.657-1.343-3-3-3H19.127c-1.657,0-3,1.343-3,3v16.485"/>
		<path fill="none" stroke="#FF0000" stroke-width="5" stroke-linecap="round" stroke-linejoin="round" stroke-miterlimit="10" d="
			M16.127,101.713"/>
		<path fill="none" stroke="#FF0000" stroke-width="5" stroke-linecap="round" stroke-linejoin="round" stroke-miterlimit="10" d="
			M37.025,122.75"/>
		<path fill="none" stroke="#FF0000" stroke-width="5" stroke-linecap="round" stroke-linejoin="round" stroke-miterlimit="10" d="
			M37.025,122.75v-18.037c0-1.657-1.343-3-3-3H16.127L37.025,122.75z"/>
	</g>
</g>
<g id="Calque_5">
	<path fill="none" stroke="#FF0000" stroke-width="5" stroke-linecap="round" stroke-linejoin="round" stroke-miterlimit="10" d="
		M113.096,35.375L78.535,98.112l-2.193,13.684l12.794-7.24l34.736-62.95c0,0,1.582-5.483-3.188-7.951
		C115.912,31.187,113.096,35.375,113.096,35.375z"/>
	
		<line fill="none" stroke="#FF0000" stroke-width="5" stroke-linecap="round" stroke-linejoin="round" stroke-miterlimit="10" x1="78.535" y1="98.112" x2="89.136" y2="104.556"/>
	
		<line fill="none" stroke="#FF0000" stroke-width="5" stroke-linecap="round" stroke-linejoin="round" stroke-miterlimit="10" x1="110.582" y1="39.939" x2="120.519" y2="45.919"/>
	
		<line fill="none" stroke="#FF0000" stroke-width="5" stroke-linecap="round" stroke-linejoin="round" stroke-miterlimit="10" x1="106.766" y1="48.112" x2="116.701" y2="54.091"/>
	
		<line fill="none" stroke="#FF0000" stroke-width="5" stroke-linecap="round" stroke-linejoin="round" stroke-miterlimit="10" x1="76.342" y1="111.796" x2="94.954" y2="111.796"/>
</g>
</svg>
