<?xml version="1.0" encoding="utf-8"?>
<!-- Generator: Adobe Illustrator 16.0.0, SVG Export Plug-In . SVG Version: 6.00 Build 0)  -->
<!DOCTYPE svg PUBLIC "-//W3C//DTD SVG 1.1//EN" "http://www.w3.org/Graphics/SVG/1.1/DTD/svg11.dtd">
<svg version="1.1" xmlns="http://www.w3.org/2000/svg" xmlns:xlink="http://www.w3.org/1999/xlink" x="0px" y="0px" width="128px"
	 height="128px" viewBox="0 0 128 128" enable-background="new 0 0 128 128" xml:space="preserve">
<g id="Calque_3">
	<g>
		<g>
			<path fill="none" stroke="#FF0000" stroke-width="5" stroke-linecap="round" stroke-linejoin="round" stroke-miterlimit="10" d="
				M84.93,39.787c-14.306-7.47-30.854-6.218-43.57,1.842l12.553,19.764c5.889-3.735,13.555-4.316,20.182-0.855L84.93,39.787z"/>
			<path fill="none" stroke="#FF0000" stroke-width="5" stroke-linecap="round" stroke-linejoin="round" stroke-miterlimit="10" d="
				M21.174,80.286c0.651,15.042,9.084,29.338,23.39,36.807L55.4,96.343c-6.624-3.459-10.53-10.074-10.834-17.039L21.174,80.286z"/>
			<path fill="none" stroke="#FF0000" stroke-width="5" stroke-linecap="round" stroke-linejoin="round" stroke-miterlimit="10" d="
				M88.133,115.253c6.259-3.97,11.59-9.589,15.267-16.63c3.679-7.043,5.242-14.63,4.919-22.037l-23.391,0.999
				c0.148,3.429-0.575,6.941-2.278,10.203s-4.172,5.864-7.068,7.702L88.133,115.253z"/>
		</g>
		
			<circle fill="none" stroke="#FF0000" stroke-width="5" stroke-linecap="round" stroke-linejoin="round" stroke-miterlimit="10" cx="64.747" cy="78.441" r="12.099"/>
	</g>
	<path fill="none" stroke="#FF0000" stroke-width="2" stroke-linecap="round" stroke-linejoin="round" stroke-miterlimit="10" d="
		M17.32,63.675H6.289c0-14.694,5.529-28.695,14.496-38.144l8.055,7.539C21.793,40.466,17.32,51.79,17.32,63.675z"/>
	<path fill="none" stroke="#FF0000" stroke-width="3" stroke-linecap="round" stroke-linejoin="round" stroke-miterlimit="10" d="
		M34.285,27.536l-7.249-8.315c3.878-3.261,9.312-6.608,15.208-9.01c6.085-2.479,12.518-3.886,17.944-4.232l0.497,11.021
		C51.383,17.519,41.256,21.577,34.285,27.536z"/>
	<path fill="none" stroke="#FF0000" stroke-width="4" stroke-linecap="round" stroke-linejoin="round" stroke-miterlimit="10" d="
		M94.854,28.107C87.68,22.026,77.389,17.67,68.271,17.028l0.61-11.014c11.668,0.782,24.397,6.169,33.448,13.979L94.854,28.107z"/>
	<path fill="none" stroke="#FF0000" stroke-width="5" stroke-linecap="round" stroke-linejoin="round" stroke-miterlimit="10" d="
		M121.711,63.675H110.68c0-11.408-4.161-22.392-10.42-29.464l8.261-7.313C116.564,35.991,121.711,49.571,121.711,63.675z"/>
	<path fill="none" stroke="#FF0000" stroke-width="5" stroke-linecap="round" stroke-linejoin="round" stroke-miterlimit="10" d="
		M99.357,25.284"/>
</g>
<g id="Calque_2_1_">
</g>
</svg>
