<?xml version="1.0" encoding="utf-8"?>
<!-- Generator: Adobe Illustrator 16.0.0, SVG Export Plug-In . SVG Version: 6.00 Build 0)  -->
<!DOCTYPE svg PUBLIC "-//W3C//DTD SVG 1.1//EN" "http://www.w3.org/Graphics/SVG/1.1/DTD/svg11.dtd">
<svg version="1.1" xmlns="http://www.w3.org/2000/svg" xmlns:xlink="http://www.w3.org/1999/xlink" x="0px" y="0px" width="128px"
	 height="128px" viewBox="0 0 128 128" enable-background="new 0 0 128 128" xml:space="preserve">
<g id="Calque_2_1_">
	<path fill="none" stroke="#FF0000" stroke-width="5" stroke-linecap="round" stroke-linejoin="round" stroke-miterlimit="10" d="
		M63.787,33.433c0,0-0.991-16.799,15.035-16.799c16.025,0,35.83,0,35.83,0s7.347,0.21,7.347,8.816c0,8.606,0,78.715,0,78.715
		s0.075,6.19-8.606,6.19c-10.076,0-33.432,0-37.533,0c-4.104,0-11.831,4.011-11.831,15.137c0,0-0.241-15.137-12.349-15.137
		c-10.705,0-38.204,0-38.204,0S5.5,111.243,5.5,101.018C5.5,89.262,5.5,64,5.5,64"/>
	
		<line fill="none" stroke="#FF0000" stroke-width="5" stroke-linecap="round" stroke-linejoin="round" stroke-miterlimit="10" x1="63.787" y1="33.433" x2="63.787" y2="119.488"/>
	<g>
		<path fill="none" stroke="#FF0000" stroke-width="5" stroke-linecap="round" stroke-linejoin="round" stroke-miterlimit="10" d="
			M109.939,47.162c0-5.448-4.463-9.908-9.91-9.908H85.412c-5.449,0-9.906,4.462-9.906,9.908v5.842c0,5.452,4.458,9.907,9.906,9.907
			h14.617c5.447,0,9.908,4.46,9.908,9.909v5.842c0,5.456-4.461,9.908-9.908,9.908H85.412c-5.449,0-9.906-4.457-9.906-9.908"/>
		
			<line fill="none" stroke="#FF0000" stroke-width="5" stroke-linecap="round" stroke-linejoin="round" stroke-miterlimit="10" x1="92.723" y1="37.254" x2="92.723" y2="27.162"/>
		
			<line fill="none" stroke="#FF0000" stroke-width="5" stroke-linecap="round" stroke-linejoin="round" stroke-miterlimit="10" x1="92.723" y1="98.668" x2="92.723" y2="88.57"/>
	</g>
	
		<line fill="none" stroke="#FF0000" stroke-width="5" stroke-linecap="round" stroke-linejoin="round" stroke-miterlimit="10" x1="21.01" y1="86.712" x2="42.9" y2="86.712"/>
</g>
<g id="Calque_1">
	<g id="Calque_1_1_">
		<g id="Calque_4">
		</g>
		<g>
			<path fill="#FF0000" d="M45.242,20.377c0.019,0.008,0.033,0.016,0.051,0.024"/>
		</g>
	</g>
	<g id="Calque_2">
		<g id="Calque_3_2_">
			<g id="Calque_3">
				<g>
					
						<path fill="none" stroke="#FF0000" stroke-width="5" stroke-linecap="round" stroke-linejoin="round" stroke-miterlimit="10" d="
						M56.654,55.605c0,0.578-0.469,1.049-1.049,1.049H5.548c-0.579,0-1.048-0.471-1.048-1.049V5.548C4.5,4.969,4.969,4.5,5.548,4.5
						h50.058c0.58,0,1.049,0.469,1.049,1.048L56.654,55.605L56.654,55.605z"/>
					<circle fill="#FF0000" cx="16.424" cy="17.481" r="3.704"/>
					<line fill="none" stroke="#FF0000" stroke-width="4" stroke-miterlimit="10" x1="24.219" y1="17.48" x2="46.23" y2="17.48"/>
					<circle fill="#FF0000" cx="16.424" cy="30.577" r="3.704"/>
					<line fill="none" stroke="#FF0000" stroke-width="4" stroke-miterlimit="10" x1="24.219" y1="30.578" x2="46.23" y2="30.578"/>
					<circle fill="#FF0000" cx="16.424" cy="43.673" r="3.704"/>
					<line fill="none" stroke="#FF0000" stroke-width="4" stroke-miterlimit="10" x1="24.219" y1="43.672" x2="46.23" y2="43.672"/>
				</g>
			</g>
		</g>
	</g>
</g>
</svg>
