<?xml version="1.0" encoding="utf-8"?>
<!-- Generator: Adobe Illustrator 16.0.0, SVG Export Plug-In . SVG Version: 6.00 Build 0)  -->
<!DOCTYPE svg PUBLIC "-//W3C//DTD SVG 1.1//EN" "http://www.w3.org/Graphics/SVG/1.1/DTD/svg11.dtd">
<svg version="1.1" id="Calque_1" xmlns="http://www.w3.org/2000/svg" xmlns:xlink="http://www.w3.org/1999/xlink" x="0px" y="0px"
	 width="128px" height="128px" viewBox="0 0 128 128" enable-background="new 0 0 128 128" xml:space="preserve">
<g id="Calque_1_1_" display="none">
</g>
<polyline fill="none" stroke="#FF0000" stroke-width="5" stroke-linecap="round" stroke-linejoin="round" stroke-miterlimit="10" points="
	59.643,115.378 79.464,125.984 79.464,97 "/>
<polyline fill="none" stroke="#FF0000" stroke-width="5" stroke-linecap="round" stroke-linejoin="round" stroke-miterlimit="10" points="
	88.574,50.424 114.633,23.309 15.539,23.309 52.231,59.904 52.393,76.336 "/>
<path fill="none" stroke="#FF0000" stroke-width="5" stroke-miterlimit="10" d="M123.331,7.709c0-1.672-1.354-3.026-3.024-3.026
	H9.186c-1.672,0-3.025,1.354-3.025,3.026v12.573c0,1.672,1.353,3.026,3.025,3.026h111.121c1.672,0,3.024-1.354,3.024-3.026V7.709z"
	/>
<g>
	<path fill="#FF0000" d="M39.388,124.269c-3.42,0-6.649-1.317-9.093-3.709L5.501,96.294c-2.481-2.429-3.869-5.679-3.906-9.151
		c-0.038-3.473,1.279-6.751,3.708-9.233c2.465-2.519,5.765-3.906,9.291-3.906c3.419,0,6.649,1.317,9.092,3.71L39.54,93.228
		L76.437,58.31c2.425-2.294,5.597-3.557,8.934-3.557c3.61,0,6.964,1.443,9.444,4.064c2.387,2.522,3.648,5.822,3.553,9.294
		c-0.096,3.471-1.537,6.697-4.06,9.084l-45.984,43.517C45.899,123.005,42.726,124.269,39.388,124.269z M14.594,78.003
		c-2.441,0-4.726,0.96-6.432,2.704C6.48,82.426,5.568,84.695,5.594,87.1s0.986,4.654,2.705,6.335L33.093,117.7
		c1.692,1.656,3.928,2.568,6.295,2.568c2.311,0,4.507-0.875,6.186-2.463l45.983-43.518c1.747-1.652,2.745-3.886,2.811-6.288
		c0.066-2.403-0.807-4.688-2.46-6.435c-1.717-1.814-4.038-2.813-6.538-2.813c-2.31,0-4.506,0.875-6.184,2.462L39.493,98.778
		L20.889,80.571C19.197,78.915,16.961,78.003,14.594,78.003z"/>
</g>
</svg>
