<?xml version="1.0" encoding="utf-8"?>
<!-- Generator: Adobe Illustrator 16.0.0, SVG Export Plug-In . SVG Version: 6.00 Build 0)  -->
<!DOCTYPE svg PUBLIC "-//W3C//DTD SVG 1.1//EN" "http://www.w3.org/Graphics/SVG/1.1/DTD/svg11.dtd">
<svg version="1.1" id="Calque_2" xmlns="http://www.w3.org/2000/svg" xmlns:xlink="http://www.w3.org/1999/xlink" x="0px" y="0px"
	 width="128px" height="128px" viewBox="0 0 128 128" enable-background="new 0 0 128 128" xml:space="preserve">
<path fill="none" stroke="#FF0000" stroke-width="5" stroke-linecap="round" stroke-linejoin="round" stroke-miterlimit="10" d="
	M116.034,96.421H10.7c-3.177,0-5.775-2.601-5.775-5.774V19.898c0-3.177,2.598-5.775,5.775-5.775h105.334
	c3.177,0,5.774,2.598,5.774,5.775v70.749C121.811,93.82,119.211,96.421,116.034,96.421z"/>
<path fill="none" stroke="#FF0000" stroke-width="5" stroke-linecap="round" stroke-linejoin="round" stroke-miterlimit="10" d="
	M90.402,110.732H70.186V96.421H57.859v14.313H36.333c-2.297,0-4.173,1.877-4.173,4.175c0,2.296,1.876,4.174,4.173,4.174h54.069
	c2.298,0,4.174-1.878,4.174-4.174C94.575,112.611,92.699,110.732,90.402,110.732z"/>
<path fill="none" stroke="#FF0000" stroke-width="5" stroke-linecap="round" stroke-linejoin="round" stroke-miterlimit="10" d="
	M45.774,73.344l36.124-19.22c4.543,2.806,10.414,3.194,15.469,0.505c5.818-3.096,8.863-9.363,8.133-15.536l-11.794,6.276
	c-1.655,0.88-3.729,0.247-4.609-1.408l-1.916-3.601c-0.88-1.655-0.247-3.729,1.407-4.609l11.921-6.341
	c-4.714-4.28-11.79-5.372-17.733-2.211c-5.056,2.69-8.013,7.774-8.227,13.11L38.426,59.528c-4.543-2.803-10.414-3.193-15.469-0.501
	c-5.818,3.094-8.863,9.362-8.131,15.534l11.794-6.275c1.654-0.881,3.729-0.247,4.609,1.407l1.916,3.602
	c0.879,1.654,0.246,3.727-1.408,4.608l-11.92,6.341c4.714,4.279,11.789,5.372,17.732,2.212
	C42.605,83.765,45.561,78.68,45.774,73.344z"/>
</svg>
