<?xml version="1.0" encoding="utf-8"?>
<!-- Generator: Adobe Illustrator 16.0.0, SVG Export Plug-In . SVG Version: 6.00 Build 0)  -->
<!DOCTYPE svg PUBLIC "-//W3C//DTD SVG 1.1//EN" "http://www.w3.org/Graphics/SVG/1.1/DTD/svg11.dtd">
<svg version="1.1" xmlns="http://www.w3.org/2000/svg" xmlns:xlink="http://www.w3.org/1999/xlink" x="0px" y="0px" width="128px"
	 height="128px" viewBox="0 0 128 128" enable-background="new 0 0 128 128" xml:space="preserve">
<g id="Calque_2" display="none">
	<g display="inline">
		<path fill="none" stroke="#000000" stroke-width="2" stroke-linecap="round" stroke-linejoin="round" stroke-miterlimit="10" d="
			M-293.012-69.888c2.487-5.484,8.021-9.322,14.408-9.322l0,0c8.694,0,15.809,7.114,15.809,15.808v6.764"/>
		<path fill="none" stroke="#000000" stroke-width="2" stroke-linecap="round" stroke-linejoin="round" stroke-miterlimit="10" d="
			M-262.794-53.17c-2.285,0.536-3.122-0.866-3.135-3.007c-0.014-2.14-0.185-7.225-0.185-7.225c0-6.887-5.602-12.49-12.49-12.49
			c-5.669,0-10.469,3.797-11.989,8.982c0,0-1.671,2.799-3.099-0.056"/>
		<path fill="none" stroke="#000000" stroke-width="2" stroke-linecap="round" stroke-linejoin="round" stroke-miterlimit="10" d="
			M-293.691-62.278c3.979,2.331,5.917-3.164,7.307-5.973c1.39-2.81,4.503-4.321,7.781-4.321c5.057,0,9.172,4.113,9.172,9.17
			c0,0-0.871,15.484,6.638,13.839"/>
		<path fill="none" stroke="#000000" stroke-width="2" stroke-linecap="round" stroke-linejoin="round" stroke-miterlimit="10" d="
			M-293.691-58.345c3.432,0.799,6.076-0.747,7.597-2.457c1.198-1.347,1.463-2.762,1.463-2.762c1.091-4.003,2.8-5.69,6.027-5.69
			c3.228,0,5.852,2.626,5.852,5.853c0,0-0.143,9.465,1.959,11.634"/>
		<path fill="none" stroke="#000000" stroke-width="2" stroke-linecap="round" stroke-linejoin="round" stroke-miterlimit="10" d="
			M-293.691-54.141c11.449,0.474,12.554-9.262,12.554-9.262c0-1.396,1.137-2.534,2.533-2.534c1.397,0,2.534,1.137,2.534,2.534"/>
		<path fill="none" stroke="#000000" stroke-width="2" stroke-linecap="round" stroke-linejoin="round" stroke-miterlimit="10" d="
			M-278.604-62.278c0,0,1.274,10.375-15.088,12.002"/>
		<path fill="none" stroke="#000000" stroke-width="2" stroke-linecap="round" stroke-linejoin="round" stroke-miterlimit="10" d="
			M-275.082-51.404c0,0,4.986,6.076,12.123,5.037"/>
		<path fill="none" stroke="#000000" stroke-width="2" stroke-linecap="round" stroke-linejoin="round" stroke-miterlimit="10" d="
			M-294.287-46.653c0,0,12.87-1.061,16.383-7.146"/>
		<path fill="none" stroke="#000000" stroke-width="2" stroke-linecap="round" stroke-linejoin="round" stroke-miterlimit="10" d="
			M-275.618-60.511c0,0-1.114,3.533,0.537,5.655"/>
		<path fill="none" stroke="#000000" stroke-width="2" stroke-linecap="round" stroke-linejoin="round" stroke-miterlimit="10" d="
			M-293.307-42.84c0,0,10.72-1.295,15.837-6.212"/>
		<path fill="none" stroke="#000000" stroke-width="2" stroke-linecap="round" stroke-linejoin="round" stroke-miterlimit="10" d="
			M-275.533-46.888c0,0,4.16,4.731,11.342,4.731"/>
		<path fill="none" stroke="#000000" stroke-width="2" stroke-linecap="round" stroke-linejoin="round" stroke-miterlimit="10" d="
			M-291.502-39.521c0,0,10.113-1.357,13.259-4.884c0,0,4.513,4.908,11.722,5.941"/>
		<path fill="none" stroke="#000000" stroke-width="2" stroke-linecap="round" stroke-linejoin="round" stroke-miterlimit="10" d="
			M-289.101-36.504c0,0,8.289-1.627,10.521-3.503c0,0,7.591,4.508,9.215,4.186"/>
		<path fill="none" stroke="#000000" stroke-width="2" stroke-linecap="round" stroke-linejoin="round" stroke-miterlimit="10" d="
			M-284.881-34.126c0,0,4.943-3.553,12.548,0.517"/>
	</g>
	<g display="inline">
		<path fill="none" stroke="#000000" stroke-width="2" stroke-linecap="round" stroke-linejoin="round" stroke-miterlimit="10" d="
			M-293.012,156.404c2.487-5.483,8.021-9.323,14.408-9.323l0,0c8.694,0,15.809,7.114,15.809,15.81v6.763"/>
		<path fill="none" stroke="#000000" stroke-width="2" stroke-linecap="round" stroke-linejoin="round" stroke-miterlimit="10" d="
			M-262.794,173.122c-2.285,0.535-3.122-0.867-3.135-3.007c-0.014-2.141-0.185-7.225-0.185-7.225c0-6.888-5.602-12.489-12.49-12.489
			c-5.669,0-10.469,3.797-11.989,8.981c0,0-1.671,2.799-3.099-0.057"/>
		<path fill="none" stroke="#000000" stroke-width="2" stroke-linecap="round" stroke-linejoin="round" stroke-miterlimit="10" d="
			M-293.691,164.014c3.979,2.332,5.917-3.164,7.307-5.974c1.39-2.81,4.503-4.321,7.781-4.321c5.057,0,9.172,4.114,9.172,9.172
			c0,0-0.871,15.484,6.638,13.839"/>
		<path fill="none" stroke="#000000" stroke-width="2" stroke-linecap="round" stroke-linejoin="round" stroke-miterlimit="10" d="
			M-293.691,167.947c3.432,0.8,6.076-0.748,7.597-2.457c1.198-1.347,1.463-2.762,1.463-2.762c1.091-4.004,2.8-5.69,6.027-5.69
			c3.228,0,5.852,2.625,5.852,5.853c0,0-0.143,9.465,1.959,11.634"/>
		<path fill="none" stroke="#000000" stroke-width="2" stroke-linecap="round" stroke-linejoin="round" stroke-miterlimit="10" d="
			M-293.691,172.151c11.449,0.475,12.554-9.261,12.554-9.261c0-1.397,1.137-2.534,2.533-2.534c1.397,0,2.534,1.137,2.534,2.534"/>
		<path fill="none" stroke="#000000" stroke-width="2" stroke-linecap="round" stroke-linejoin="round" stroke-miterlimit="10" d="
			M-278.604,164.014c0,0,1.274,10.376-15.088,12.002"/>
		<path fill="none" stroke="#000000" stroke-width="2" stroke-linecap="round" stroke-linejoin="round" stroke-miterlimit="10" d="
			M-275.082,174.888c0,0,1.654,2.016,4.42,3.527"/>
		<path fill="none" stroke="#000000" stroke-width="2" stroke-linecap="round" stroke-linejoin="round" stroke-miterlimit="10" d="
			M-294.287,179.639c0,0,12.87-1.06,16.383-7.146"/>
		<path fill="none" stroke="#000000" stroke-width="2" stroke-linecap="round" stroke-linejoin="round" stroke-miterlimit="10" d="
			M-275.618,165.781c0,0-1.114,3.534,0.537,5.655"/>
		<path fill="none" stroke="#000000" stroke-width="2" stroke-linecap="round" stroke-linejoin="round" stroke-miterlimit="10" d="
			M-293.307,183.451c0,0,10.72-1.295,15.837-6.211"/>
		<path fill="none" stroke="#000000" stroke-width="2" stroke-linecap="round" stroke-linejoin="round" stroke-miterlimit="10" d="
			M-275.533,179.404c0,0,1.04,1.182,2.976,2.364"/>
		<path fill="none" stroke="#000000" stroke-width="2" stroke-linecap="round" stroke-linejoin="round" stroke-miterlimit="10" d="
			M-291.502,186.771c0,0,10.113-1.357,13.259-4.884c0,0,1.26,1.45,3.796,2.994"/>
		<path fill="none" stroke="#000000" stroke-width="2" stroke-linecap="round" stroke-linejoin="round" stroke-miterlimit="10" d="
			M-289.101,189.788c0,0,8.289-1.626,10.521-3.503c0,0,1.025,0.616,2.54,1.438"/>
		<path fill="none" stroke="#000000" stroke-width="2" stroke-linecap="round" stroke-linejoin="round" stroke-miterlimit="10" d="
			M-284.881,192.167c0,0,2.479-1.908,6.977-1.265"/>
	</g>
	<g display="inline">
		<path fill="none" stroke="#000000" stroke-width="2" stroke-linecap="round" stroke-linejoin="round" stroke-miterlimit="10" d="
			M-293.012,5.748c2.487-5.484,8.021-9.322,14.408-9.322l0,0c8.694,0,15.809,7.114,15.809,15.809v6.764"/>
		<path fill="none" stroke="#000000" stroke-width="2" stroke-linecap="round" stroke-linejoin="round" stroke-miterlimit="10" d="
			M-262.794,22.466c-2.285,0.536-3.122-0.866-3.135-3.007c-0.014-2.14-0.185-7.225-0.185-7.225c0-6.887-5.602-12.49-12.49-12.49
			c-5.669,0-10.469,3.797-11.989,8.982c0,0-1.671,2.799-3.099-0.057"/>
		<path fill="none" stroke="#000000" stroke-width="2" stroke-linecap="round" stroke-linejoin="round" stroke-miterlimit="10" d="
			M-293.691,13.358c3.979,2.331,5.917-3.164,7.307-5.974c1.39-2.81,4.503-4.321,7.781-4.321c5.057,0,9.172,4.113,9.172,9.171
			c0,0-0.42,7.471,1.839,11.482"/>
		<path fill="none" stroke="#000000" stroke-width="2" stroke-linecap="round" stroke-linejoin="round" stroke-miterlimit="10" d="
			M-293.691,17.292c3.432,0.799,6.076-0.748,7.597-2.457c1.198-1.348,1.463-2.763,1.463-2.763c1.091-4.003,2.8-5.69,6.027-5.69
			c3.228,0,5.852,2.626,5.852,5.853c0,0-0.143,9.465,1.959,11.635"/>
		<path fill="none" stroke="#000000" stroke-width="2" stroke-linecap="round" stroke-linejoin="round" stroke-miterlimit="10" d="
			M-293.691,21.495c11.449,0.476,12.554-9.261,12.554-9.261c0-1.396,1.137-2.533,2.533-2.533c1.397,0,2.534,1.137,2.534,2.533"/>
		<path fill="none" stroke="#000000" stroke-width="2" stroke-linecap="round" stroke-linejoin="round" stroke-miterlimit="10" d="
			M-278.604,13.358c0,0,1.274,10.375-15.088,12.002"/>
		<path fill="none" stroke="#000000" stroke-width="2" stroke-linecap="round" stroke-linejoin="round" stroke-miterlimit="10" d="
			M-275.082,24.232c0,0,0.582,0.71,1.634,1.604"/>
		<path fill="none" stroke="#000000" stroke-width="2" stroke-linecap="round" stroke-linejoin="round" stroke-miterlimit="10" d="
			M-294.287,28.983c0,0,12.87-1.061,16.383-7.146"/>
		<path fill="none" stroke="#000000" stroke-width="2" stroke-linecap="round" stroke-linejoin="round" stroke-miterlimit="10" d="
			M-275.618,15.125c0,0-1.114,3.533,0.537,5.655"/>
		<path fill="none" stroke="#000000" stroke-width="2" stroke-linecap="round" stroke-linejoin="round" stroke-miterlimit="10" d="
			M-293.307,32.796c0,0,10.72-1.295,15.837-6.212"/>
		<path fill="none" stroke="#000000" stroke-width="2" stroke-linecap="round" stroke-linejoin="round" stroke-miterlimit="10" d="
			M-291.502,36.115c0,0,10.113-1.357,13.259-4.884c0,0,0.429,0.466,1.233,1.142"/>
		<path fill="none" stroke="#000000" stroke-width="2" stroke-linecap="round" stroke-linejoin="round" stroke-miterlimit="10" d="
			M-289.101,39.133c0,0,8.289-1.627,10.521-3.503c0,0,0.964,0.572,2.279,1.295"/>
		<path fill="none" stroke="#000000" stroke-width="2" stroke-linecap="round" stroke-linejoin="round" stroke-miterlimit="10" d="
			M-284.881,41.511c0,0,4.943-3.553,12.548,0.517"/>
	</g>
	<g display="inline">
		<g>
			<path fill="none" stroke="#000000" stroke-width="2" stroke-linecap="round" stroke-linejoin="round" stroke-miterlimit="10" d="
				M-217.702-69.888c2.487-5.484,8.021-9.322,14.408-9.322l0,0c8.695,0,15.809,7.114,15.809,15.808v6.764"/>
			<path fill="none" stroke="#000000" stroke-width="2" stroke-linecap="round" stroke-linejoin="round" stroke-miterlimit="10" d="
				M-218.384-66.969c0.712,1.416,1.474,1.438,2.071,1.107"/>
			<path fill="none" stroke="#000000" stroke-width="2" stroke-linecap="round" stroke-linejoin="round" stroke-miterlimit="10" d="
				M-189.082-53.153c0.424,0.13,0.957,0.137,1.597-0.014"/>
			<path fill="none" stroke="#000000" stroke-width="2" stroke-linecap="round" stroke-linejoin="round" stroke-miterlimit="10" d="
				M-212.249-72.098c2.265-2.344,5.444-3.797,8.954-3.797c6.891,0,12.494,5.602,12.494,12.493c0,0,0.08,2.446,0.13,4.661"/>
			<path fill="none" stroke="#000000" stroke-width="2" stroke-linecap="round" stroke-linejoin="round" stroke-miterlimit="10" d="
				M-191.269-50.563c0.928,0.914,2.165,1.353,3.783,1"/>
			<path fill="none" stroke="#000000" stroke-width="2" stroke-linecap="round" stroke-linejoin="round" stroke-miterlimit="10" d="
				M-208.509-71.091c1.482-0.978,3.316-1.482,5.214-1.482c5.057,0,9.17,4.115,9.17,9.17c0,0-0.085,1.554,0.037,3.626"/>
			<path fill="none" stroke="#000000" stroke-width="2" stroke-linecap="round" stroke-linejoin="round" stroke-miterlimit="10" d="
				M-218.384-62.28c1.813,1.065,3.201,0.503,4.309-0.69"/>
			<path fill="none" stroke="#000000" stroke-width="2" stroke-linecap="round" stroke-linejoin="round" stroke-miterlimit="10" d="
				M-197.239-58.31c0-0.007,0-0.007,0-0.007c-0.237-2.668-0.201-5.085-0.201-5.085c0-3.229-2.625-5.854-5.855-5.854
				c-1.409,0-2.531,0.324-3.438,1.021"/>
			<path fill="none" stroke="#000000" stroke-width="2" stroke-linecap="round" stroke-linejoin="round" stroke-miterlimit="10" d="
				M-218.384-58.346c3.431,0.798,6.078-0.748,7.603-2.46c0.597-0.668,0.964-1.359,1.18-1.884"/>
			<path fill="none" stroke="#000000" stroke-width="2" stroke-linecap="round" stroke-linejoin="round" stroke-miterlimit="10" d="
				M-218.381-54.141c11.45,0.474,12.555-9.262,12.555-9.262c0-1.396,1.136-2.534,2.533-2.534s2.534,1.137,2.534,2.534"/>
			<path fill="none" stroke="#000000" stroke-width="2" stroke-linecap="round" stroke-linejoin="round" stroke-miterlimit="10" d="
				M-203.293-62.278c0,0,1.275,10.375-15.088,12.002"/>
			<path fill="none" stroke="#000000" stroke-width="2" stroke-linecap="round" stroke-linejoin="round" stroke-miterlimit="10" d="
				M-199.771-51.404c0,0,4.986,6.076,12.123,5.037"/>
			<path fill="none" stroke="#000000" stroke-width="2" stroke-linecap="round" stroke-linejoin="round" stroke-miterlimit="10" d="
				M-218.976-46.653c0,0,12.869-1.061,16.382-7.146"/>
			<path fill="none" stroke="#000000" stroke-width="2" stroke-linecap="round" stroke-linejoin="round" stroke-miterlimit="10" d="
				M-200.308-60.511c0,0-1.114,3.533,0.537,5.655"/>
			<path fill="none" stroke="#000000" stroke-width="2" stroke-linecap="round" stroke-linejoin="round" stroke-miterlimit="10" d="
				M-202.158-49.052c-0.884,0.848-1.941,1.596-3.078,2.243"/>
			<path fill="none" stroke="#000000" stroke-width="2" stroke-linecap="round" stroke-linejoin="round" stroke-miterlimit="10" d="
				M-213.012-43.824c-2.84,0.726-4.984,0.985-4.984,0.985"/>
			<path fill="none" stroke="#000000" stroke-width="2" stroke-linecap="round" stroke-linejoin="round" stroke-miterlimit="10" d="
				M-200.224-46.888c0,0,4.161,4.731,11.344,4.731"/>
			<path fill="none" stroke="#000000" stroke-width="2" stroke-linecap="round" stroke-linejoin="round" stroke-miterlimit="10" d="
				M-203.366-43.982c0.158-0.129,0.302-0.272,0.431-0.424c0,0,4.517,4.913,11.724,5.941"/>
			<path fill="none" stroke="#000000" stroke-width="2" stroke-linecap="round" stroke-linejoin="round" stroke-miterlimit="10" d="
				M-212.371-40.242c-2.172,0.496-3.82,0.719-3.82,0.719"/>
			<path fill="none" stroke="#000000" stroke-width="2" stroke-linecap="round" stroke-linejoin="round" stroke-miterlimit="10" d="
				M-205.1-38.969c0.763-0.332,1.403-0.684,1.827-1.036c0,0,7.596,4.51,9.221,4.187"/>
			<path fill="none" stroke="#000000" stroke-width="2" stroke-linecap="round" stroke-linejoin="round" stroke-miterlimit="10" d="
				M-213.789-36.502c0,0,2.834-0.561,5.639-1.395"/>
			<path fill="none" stroke="#000000" stroke-width="2" stroke-linecap="round" stroke-linejoin="round" stroke-miterlimit="10" d="
				M-209.571-34.126c0,0,6.274-3.06,12.548,0.517"/>
		</g>
		
			<circle fill="none" stroke="#000000" stroke-width="2" stroke-linecap="round" stroke-linejoin="round" stroke-miterlimit="10" cx="-211.566" cy="-67.218" r="4.94"/>
		
			<circle fill="none" stroke="#000000" stroke-width="2" stroke-linecap="round" stroke-linejoin="round" stroke-miterlimit="10" cx="-193.709" cy="-54.856" r="4.94"/>
		
			<circle fill="none" stroke="#000000" stroke-width="2" stroke-linecap="round" stroke-linejoin="round" stroke-miterlimit="10" cx="-208.17" cy="-42.84" r="4.94"/>
	</g>
	<g display="inline">
		<path fill="none" stroke="#000000" stroke-width="2" stroke-linecap="round" stroke-linejoin="round" stroke-miterlimit="10" d="
			M-142.337-69.888c2.488-5.484,8.021-9.322,14.408-9.322l0,0c8.695,0,15.809,7.114,15.809,15.808v6.764"/>
		<path fill="none" stroke="#000000" stroke-width="2" stroke-linecap="round" stroke-linejoin="round" stroke-miterlimit="10" d="
			M-112.12-53.17c-2.284,0.536-3.12-0.866-3.135-3.007c-0.013-2.14-0.185-7.225-0.185-7.225c0-6.887-5.603-12.49-12.489-12.49
			c-5.669,0-10.469,3.797-11.988,8.982c0,0-1.672,2.799-3.1-0.056"/>
		<path fill="none" stroke="#000000" stroke-width="2" stroke-linecap="round" stroke-linejoin="round" stroke-miterlimit="10" d="
			M-143.017-62.278c3.98,2.331,5.917-3.164,7.307-5.973c1.39-2.81,4.503-4.321,7.781-4.321c5.057,0,9.171,4.113,9.171,9.17
			c0,0-0.515,9.158,2.662,12.64"/>
		<path fill="none" stroke="#000000" stroke-width="2" stroke-linecap="round" stroke-linejoin="round" stroke-miterlimit="10" d="
			M-143.017-58.345c3.432,0.799,6.076-0.747,7.597-2.457c1.198-1.347,1.463-2.762,1.463-2.762c1.091-4.003,2.8-5.69,6.028-5.69
			c3.227,0,5.853,2.626,5.853,5.853c0,0-0.144,9.465,1.959,11.634"/>
		<path fill="none" stroke="#000000" stroke-width="2" stroke-linecap="round" stroke-linejoin="round" stroke-miterlimit="10" d="
			M-143.017-54.141c11.45,0.474,12.555-9.262,12.555-9.262c0-1.396,1.136-2.534,2.533-2.534c1.397,0,2.534,1.137,2.534,2.534"/>
		<path fill="none" stroke="#000000" stroke-width="2" stroke-linecap="round" stroke-linejoin="round" stroke-miterlimit="10" d="
			M-127.929-62.278c0,0,1.275,10.375-15.088,12.002"/>
		<path fill="none" stroke="#000000" stroke-width="2" stroke-linecap="round" stroke-linejoin="round" stroke-miterlimit="10" d="
			M-124.406-51.404c0,0,1.734,2.114,4.622,3.635"/>
		<path fill="none" stroke="#000000" stroke-width="2" stroke-linecap="round" stroke-linejoin="round" stroke-miterlimit="10" d="
			M-143.612-46.653c0,0,12.87-1.061,16.384-7.146"/>
		<path fill="none" stroke="#000000" stroke-width="2" stroke-linecap="round" stroke-linejoin="round" stroke-miterlimit="10" d="
			M-124.944-60.511c0,0-1.113,3.533,0.538,5.655"/>
		<path fill="none" stroke="#000000" stroke-width="2" stroke-linecap="round" stroke-linejoin="round" stroke-miterlimit="10" d="
			M-142.632-42.84c0,0,10.72-1.295,15.837-6.212"/>
		<path fill="none" stroke="#000000" stroke-width="2" stroke-linecap="round" stroke-linejoin="round" stroke-miterlimit="10" d="
			M-124.859-46.888c0,0,1.366,1.551,3.882,2.878"/>
		<path fill="none" stroke="#000000" stroke-width="2" stroke-linecap="round" stroke-linejoin="round" stroke-miterlimit="10" d="
			M-140.827-39.521c0,0,10.113-1.357,13.259-4.884c0,0,2.041,2.219,5.568,3.987"/>
		<path fill="none" stroke="#000000" stroke-width="2" stroke-linecap="round" stroke-linejoin="round" stroke-miterlimit="10" d="
			M-138.426-36.504c0,0,8.289-1.627,10.521-3.503c0,0,3.138,1.863,5.81,3.109"/>
		<path fill="none" stroke="#000000" stroke-width="2" stroke-linecap="round" stroke-linejoin="round" stroke-miterlimit="10" d="
			M-134.206-34.126c0,0,4.754-3.417,12.111,0.289"/>
	</g>
	<g display="inline">
		<path fill="none" stroke="#000000" stroke-width="2" stroke-linecap="round" stroke-linejoin="round" stroke-miterlimit="10" d="
			M-107.946-34.103c0,1.132-0.926,2.059-2.059,2.059h-9.936c-1.133,0-2.06-0.926-2.06-2.059v-8.132c0-1.132,0.927-2.058,2.06-2.058
			h9.936c1.133,0,2.059,0.926,2.059,2.058V-34.103z"/>
		<path fill="none" stroke="#000000" stroke-width="2" stroke-linecap="round" stroke-linejoin="round" stroke-miterlimit="10" d="
			M-119.786-44.293v-1.661c0-2.647,2.166-4.813,4.813-4.813l0,0c2.647,0,4.813,2.166,4.813,4.813v1.661"/>
		<path fill="none" stroke="#000000" stroke-width="2" stroke-linecap="round" stroke-linejoin="round" stroke-miterlimit="10" d="
			M-113.126-39.025c0-1.02-0.827-1.848-1.847-1.848c-1.021,0-1.848,0.828-1.848,1.848c0,0.729,0.424,1.357,1.037,1.658v1.091
			c0,0.446,0.364,0.811,0.811,0.811s0.812-0.365,0.812-0.811v-1.091C-113.549-37.668-113.126-38.296-113.126-39.025z"/>
	</g>
	<g display="inline">
		<g>
			<path fill="none" stroke="#000000" stroke-width="2" stroke-linecap="round" stroke-linejoin="round" stroke-miterlimit="10" d="
				M-66.972-69.888c2.487-5.484,8.021-9.322,14.408-9.322l0,0c8.694,0,15.809,7.114,15.809,15.808v6.764"/>
			<path fill="none" stroke="#000000" stroke-width="2" stroke-linecap="round" stroke-linejoin="round" stroke-miterlimit="10" d="
				M-36.755-53.17c-2.285,0.536-3.121-0.866-3.135-3.007c-0.014-2.14-0.184-7.225-0.184-7.225c0-6.887-5.604-12.49-12.49-12.49
				c-5.67,0-10.47,3.797-11.988,8.982c0,0-1.672,2.799-3.1-0.056"/>
			<path fill="none" stroke="#000000" stroke-width="2" stroke-linecap="round" stroke-linejoin="round" stroke-miterlimit="10" d="
				M-67.651-62.278c3.98,2.331,5.917-3.164,7.307-5.973s4.503-4.321,7.781-4.321c5.057,0,9.17,4.113,9.17,9.17
				c0,0-0.527,9.404,2.792,12.776"/>
			<path fill="none" stroke="#000000" stroke-width="2" stroke-linecap="round" stroke-linejoin="round" stroke-miterlimit="10" d="
				M-67.651-58.345c3.431,0.799,6.075-0.747,7.597-2.457c1.197-1.347,1.463-2.762,1.463-2.762c1.09-4.003,2.801-5.69,6.028-5.69
				c3.227,0,5.853,2.626,5.853,5.853c0,0-0.144,9.465,1.958,11.634"/>
			<path fill="none" stroke="#000000" stroke-width="2" stroke-linecap="round" stroke-linejoin="round" stroke-miterlimit="10" d="
				M-67.651-54.141c11.449,0.474,12.554-9.262,12.554-9.262c0-1.396,1.137-2.534,2.534-2.534c1.396,0,2.533,1.137,2.533,2.534"/>
			<path fill="none" stroke="#000000" stroke-width="2" stroke-linecap="round" stroke-linejoin="round" stroke-miterlimit="10" d="
				M-52.563-62.278c0,0,1.274,10.375-15.088,12.002"/>
			<path fill="none" stroke="#000000" stroke-width="2" stroke-linecap="round" stroke-linejoin="round" stroke-miterlimit="10" d="
				M-49.042-51.404c0,0,1.393,1.695,3.758,3.142"/>
			<path fill="none" stroke="#000000" stroke-width="2" stroke-linecap="round" stroke-linejoin="round" stroke-miterlimit="10" d="
				M-68.247-46.653c0,0,12.87-1.061,16.383-7.146"/>
			<path fill="none" stroke="#000000" stroke-width="2" stroke-linecap="round" stroke-linejoin="round" stroke-miterlimit="10" d="
				M-49.579-60.511c0,0-1.113,3.533,0.537,5.655"/>
			<path fill="none" stroke="#000000" stroke-width="2" stroke-linecap="round" stroke-linejoin="round" stroke-miterlimit="10" d="
				M-67.267-42.84c0,0,10.72-1.295,15.837-6.212"/>
			<path fill="none" stroke="#000000" stroke-width="2" stroke-linecap="round" stroke-linejoin="round" stroke-miterlimit="10" d="
				M-49.494-46.888c0,0,1.039,1.182,2.976,2.363"/>
			<path fill="none" stroke="#000000" stroke-width="2" stroke-linecap="round" stroke-linejoin="round" stroke-miterlimit="10" d="
				M-65.463-39.521c0,0,10.113-1.357,13.26-4.884c0,0,1.517,1.649,4.196,3.237"/>
			<path fill="none" stroke="#000000" stroke-width="2" stroke-linecap="round" stroke-linejoin="round" stroke-miterlimit="10" d="
				M-63.062-36.504c0,0,8.289-1.627,10.521-3.503c0,0,2.231,1.325,4.533,2.488"/>
			<path fill="none" stroke="#000000" stroke-width="2" stroke-linecap="round" stroke-linejoin="round" stroke-miterlimit="10" d="
				M-58.841-34.126c0,0,4.213-3.056,10.898-0.25"/>
		</g>
		<g>
			<path fill="none" stroke="#000000" stroke-width="2" stroke-linecap="round" stroke-linejoin="round" stroke-miterlimit="10" d="
				M-34.425-34.281c0,1.09-0.891,1.98-1.98,1.98h-9.556c-1.089,0-1.981-0.891-1.981-1.98v-7.82c0-1.09,0.893-1.98,1.981-1.98h9.556
				c1.09,0,1.98,0.891,1.98,1.98V-34.281z"/>
			<path fill="none" stroke="#000000" stroke-width="2" stroke-linecap="round" stroke-linejoin="round" stroke-miterlimit="10" d="
				M-45.813-44.082v-1.598c0-2.546,2.084-4.629,4.629-4.629l0,0c1.245,0,2.378,0.498,3.212,1.303"/>
			<path fill="none" stroke="#000000" stroke-width="2" stroke-linecap="round" stroke-linejoin="round" stroke-miterlimit="10" d="
				M-39.406-39.015c0-0.98-0.795-1.776-1.777-1.776c-0.98,0-1.775,0.795-1.775,1.776c0,0.701,0.406,1.306,0.996,1.594v1.049
				c0,0.429,0.351,0.78,0.779,0.78c0.43,0,0.78-0.351,0.78-0.78v-1.049C-39.813-37.709-39.406-38.314-39.406-39.015z"/>
		</g>
	</g>
	
		<circle display="inline" fill="none" stroke="#000000" stroke-width="2" stroke-linecap="round" stroke-linejoin="round" stroke-miterlimit="10" cx="-267.427" cy="33.298" r="9.585"/>
	
		<polyline display="inline" fill="none" stroke="#000000" stroke-width="2" stroke-linecap="round" stroke-linejoin="round" stroke-miterlimit="10" points="
		-272.254,33.298 -268.972,38.344 -262.599,29.985 	"/>
	<g display="inline">
		<g>
			<path fill="none" stroke="#000000" stroke-width="2" stroke-linecap="round" stroke-linejoin="round" stroke-miterlimit="10" d="
				M-218.408,5.748c2.488-5.484,8.022-9.322,14.408-9.322l0,0c8.696,0,15.809,7.114,15.809,15.809v6.764"/>
			<path fill="none" stroke="#000000" stroke-width="2" stroke-linecap="round" stroke-linejoin="round" stroke-miterlimit="10" d="
				M-188.191,22.466c-2.284,0.536-3.121-0.866-3.134-3.007c-0.013-2.14-0.185-7.225-0.185-7.225c0-6.887-5.603-12.49-12.49-12.49
				c-5.67,0-10.468,3.797-11.988,8.982c0,0-1.672,2.799-3.099-0.057"/>
			<path fill="none" stroke="#000000" stroke-width="2" stroke-linecap="round" stroke-linejoin="round" stroke-miterlimit="10" d="
				M-219.087,13.358c3.98,2.331,5.917-3.164,7.306-5.974c1.39-2.81,4.504-4.321,7.781-4.321c5.057,0,9.171,4.113,9.171,9.171
				c0,0-0.42,7.471,1.839,11.482"/>
			<path fill="none" stroke="#000000" stroke-width="2" stroke-linecap="round" stroke-linejoin="round" stroke-miterlimit="10" d="
				M-219.087,17.292c3.431,0.799,6.076-0.748,7.597-2.457c1.197-1.348,1.462-2.763,1.462-2.763c1.091-4.003,2.801-5.69,6.028-5.69
				c3.228,0,5.853,2.626,5.853,5.853c0,0-0.144,9.465,1.958,11.635"/>
			<path fill="none" stroke="#000000" stroke-width="2" stroke-linecap="round" stroke-linejoin="round" stroke-miterlimit="10" d="
				M-219.087,21.495c11.449,0.476,12.555-9.261,12.555-9.261c0-1.396,1.136-2.533,2.533-2.533c1.397,0,2.534,1.137,2.534,2.533"/>
			<path fill="none" stroke="#000000" stroke-width="2" stroke-linecap="round" stroke-linejoin="round" stroke-miterlimit="10" d="
				M-204,13.358c0,0,1.275,10.375-15.087,12.002"/>
			<path fill="none" stroke="#000000" stroke-width="2" stroke-linecap="round" stroke-linejoin="round" stroke-miterlimit="10" d="
				M-200.478,24.232c0,0,0.583,0.71,1.635,1.604"/>
			<path fill="none" stroke="#000000" stroke-width="2" stroke-linecap="round" stroke-linejoin="round" stroke-miterlimit="10" d="
				M-219.682,28.983c0,0,12.87-1.061,16.383-7.146"/>
			<path fill="none" stroke="#000000" stroke-width="2" stroke-linecap="round" stroke-linejoin="round" stroke-miterlimit="10" d="
				M-201.015,15.125c0,0-1.113,3.533,0.537,5.655"/>
			<path fill="none" stroke="#000000" stroke-width="2" stroke-linecap="round" stroke-linejoin="round" stroke-miterlimit="10" d="
				M-218.703,32.796c0,0,10.72-1.295,15.837-6.212"/>
			<path fill="none" stroke="#000000" stroke-width="2" stroke-linecap="round" stroke-linejoin="round" stroke-miterlimit="10" d="
				M-216.899,36.115c0,0,10.114-1.357,13.259-4.884c0,0,0.429,0.466,1.233,1.142"/>
			<path fill="none" stroke="#000000" stroke-width="2" stroke-linecap="round" stroke-linejoin="round" stroke-miterlimit="10" d="
				M-214.497,39.133c0,0,8.289-1.627,10.521-3.503c0,0,0.964,0.572,2.279,1.295"/>
			<path fill="none" stroke="#000000" stroke-width="2" stroke-linecap="round" stroke-linejoin="round" stroke-miterlimit="10" d="
				M-210.276,41.511c0,0,4.942-3.553,12.547,0.517"/>
		</g>
		<g>
			
				<circle fill="none" stroke="#000000" stroke-width="2" stroke-linecap="round" stroke-linejoin="round" stroke-miterlimit="10" cx="-192.823" cy="33.298" r="9.584"/>
			
				<line fill="none" stroke="#000000" stroke-width="2" stroke-linecap="round" stroke-linejoin="round" stroke-miterlimit="10" x1="-189.254" y1="29.729" x2="-196.39" y2="36.866"/>
			
				<line fill="none" stroke="#000000" stroke-width="2" stroke-linecap="round" stroke-linejoin="round" stroke-miterlimit="10" x1="-189.254" y1="36.866" x2="-196.39" y2="29.729"/>
		</g>
	</g>
	<g display="inline">
		<g>
			<path fill="none" stroke="#000000" stroke-width="2" stroke-linecap="round" stroke-linejoin="round" stroke-miterlimit="10" d="
				M-143.804,5.748c2.488-5.484,8.022-9.322,14.409-9.322l0,0c8.694,0,15.809,7.114,15.809,15.809v6.764"/>
			<path fill="none" stroke="#000000" stroke-width="2" stroke-linecap="round" stroke-linejoin="round" stroke-miterlimit="10" d="
				M-113.586,22.466c-2.285,0.536-3.122-0.866-3.136-3.007c-0.014-2.14-0.185-7.225-0.185-7.225c0-6.887-5.603-12.49-12.49-12.49
				c-5.669,0-10.468,3.797-11.988,8.982c0,0-1.672,2.799-3.099-0.057"/>
			<path fill="none" stroke="#000000" stroke-width="2" stroke-linecap="round" stroke-linejoin="round" stroke-miterlimit="10" d="
				M-144.483,13.358c3.98,2.331,5.917-3.164,7.307-5.974s4.503-4.321,7.781-4.321c5.057,0,9.171,4.113,9.171,9.171
				c0,0-0.42,7.471,1.84,11.482"/>
			<path fill="none" stroke="#000000" stroke-width="2" stroke-linecap="round" stroke-linejoin="round" stroke-miterlimit="10" d="
				M-144.483,17.292c3.431,0.799,6.076-0.748,7.597-2.457c1.198-1.348,1.463-2.763,1.463-2.763c1.09-4.003,2.8-5.69,6.027-5.69
				c3.228,0,5.852,2.626,5.852,5.853c0,0-0.143,9.465,1.959,11.635"/>
			<path fill="none" stroke="#000000" stroke-width="2" stroke-linecap="round" stroke-linejoin="round" stroke-miterlimit="10" d="
				M-144.483,21.495c11.449,0.476,12.554-9.261,12.554-9.261c0-1.396,1.137-2.533,2.533-2.533c1.397,0,2.535,1.137,2.535,2.533"/>
			<path fill="none" stroke="#000000" stroke-width="2" stroke-linecap="round" stroke-linejoin="round" stroke-miterlimit="10" d="
				M-129.395,13.358c0,0,1.274,10.375-15.088,12.002"/>
			<path fill="none" stroke="#000000" stroke-width="2" stroke-linecap="round" stroke-linejoin="round" stroke-miterlimit="10" d="
				M-125.874,24.232c0,0,0.583,0.71,1.634,1.604"/>
			<path fill="none" stroke="#000000" stroke-width="2" stroke-linecap="round" stroke-linejoin="round" stroke-miterlimit="10" d="
				M-145.078,28.983c0,0,12.87-1.061,16.383-7.146"/>
			<path fill="none" stroke="#000000" stroke-width="2" stroke-linecap="round" stroke-linejoin="round" stroke-miterlimit="10" d="
				M-126.411,15.125c0,0-1.113,3.533,0.537,5.655"/>
			<path fill="none" stroke="#000000" stroke-width="2" stroke-linecap="round" stroke-linejoin="round" stroke-miterlimit="10" d="
				M-144.098,32.796c0,0,10.72-1.295,15.836-6.212"/>
			<path fill="none" stroke="#000000" stroke-width="2" stroke-linecap="round" stroke-linejoin="round" stroke-miterlimit="10" d="
				M-142.294,36.115c0,0,10.113-1.357,13.26-4.884c0,0,0.428,0.466,1.232,1.142"/>
			<path fill="none" stroke="#000000" stroke-width="2" stroke-linecap="round" stroke-linejoin="round" stroke-miterlimit="10" d="
				M-139.893,39.133c0,0,8.29-1.627,10.521-3.503c0,0,0.964,0.572,2.279,1.295"/>
			<path fill="none" stroke="#000000" stroke-width="2" stroke-linecap="round" stroke-linejoin="round" stroke-miterlimit="10" d="
				M-135.673,41.511c0,0,4.944-3.553,12.548,0.517"/>
		</g>
		
			<circle fill="none" stroke="#000000" stroke-width="2" stroke-linecap="round" stroke-linejoin="round" stroke-miterlimit="10" cx="-118.219" cy="33.298" r="9.584"/>
		
			<line fill="none" stroke="#000000" stroke-width="2" stroke-linecap="round" stroke-linejoin="round" stroke-miterlimit="10" x1="-113.173" y1="33.298" x2="-123.265" y2="33.298"/>
		
			<line fill="none" stroke="#000000" stroke-width="2" stroke-linecap="round" stroke-linejoin="round" stroke-miterlimit="10" x1="-118.219" y1="38.344" x2="-118.219" y2="28.252"/>
	</g>
	<g display="inline">
		<g>
			<path fill="none" stroke="#000000" stroke-width="2" stroke-linecap="round" stroke-linejoin="round" stroke-miterlimit="10" d="
				M-69.2,5.748c2.487-5.484,8.022-9.322,14.408-9.322l0,0c8.696,0,15.81,7.114,15.81,15.809v6.764"/>
			<path fill="none" stroke="#000000" stroke-width="2" stroke-linecap="round" stroke-linejoin="round" stroke-miterlimit="10" d="
				M-38.982,22.466c-2.284,0.536-3.121-0.866-3.135-3.007c-0.014-2.14-0.185-7.225-0.185-7.225c0-6.887-5.603-12.49-12.49-12.49
				c-5.669,0-10.468,3.797-11.988,8.982c0,0-1.672,2.799-3.099-0.057"/>
			<path fill="none" stroke="#000000" stroke-width="2" stroke-linecap="round" stroke-linejoin="round" stroke-miterlimit="10" d="
				M-69.879,13.358c3.979,2.331,5.917-3.164,7.306-5.974c1.392-2.81,4.504-4.321,7.781-4.321c5.058,0,9.172,4.113,9.172,9.171
				c0,0-0.42,7.471,1.839,11.482"/>
			<path fill="none" stroke="#000000" stroke-width="2" stroke-linecap="round" stroke-linejoin="round" stroke-miterlimit="10" d="
				M-69.879,17.292c3.431,0.799,6.075-0.748,7.597-2.457c1.198-1.348,1.463-2.763,1.463-2.763c1.091-4.003,2.801-5.69,6.027-5.69
				c3.228,0,5.853,2.626,5.853,5.853c0,0-0.144,9.465,1.959,11.635"/>
			<path fill="none" stroke="#000000" stroke-width="2" stroke-linecap="round" stroke-linejoin="round" stroke-miterlimit="10" d="
				M-69.879,21.495c11.449,0.476,12.554-9.261,12.554-9.261c0-1.396,1.137-2.533,2.533-2.533c1.397,0,2.534,1.137,2.534,2.533"/>
			<path fill="none" stroke="#000000" stroke-width="2" stroke-linecap="round" stroke-linejoin="round" stroke-miterlimit="10" d="
				M-54.792,13.358c0,0,1.274,10.375-15.087,12.002"/>
			<path fill="none" stroke="#000000" stroke-width="2" stroke-linecap="round" stroke-linejoin="round" stroke-miterlimit="10" d="
				M-51.27,24.232c0,0,0.583,0.71,1.635,1.604"/>
			<path fill="none" stroke="#000000" stroke-width="2" stroke-linecap="round" stroke-linejoin="round" stroke-miterlimit="10" d="
				M-70.474,28.983c0,0,12.869-1.061,16.382-7.146"/>
			<path fill="none" stroke="#000000" stroke-width="2" stroke-linecap="round" stroke-linejoin="round" stroke-miterlimit="10" d="
				M-51.807,15.125c0,0-1.114,3.533,0.537,5.655"/>
			<path fill="none" stroke="#000000" stroke-width="2" stroke-linecap="round" stroke-linejoin="round" stroke-miterlimit="10" d="
				M-69.494,32.796c0,0,10.72-1.295,15.836-6.212"/>
			<path fill="none" stroke="#000000" stroke-width="2" stroke-linecap="round" stroke-linejoin="round" stroke-miterlimit="10" d="
				M-67.69,36.115c0,0,10.113-1.357,13.26-4.884c0,0,0.428,0.466,1.232,1.142"/>
			<path fill="none" stroke="#000000" stroke-width="2" stroke-linecap="round" stroke-linejoin="round" stroke-miterlimit="10" d="
				M-65.289,39.133c0,0,8.289-1.627,10.521-3.503c0,0,0.964,0.572,2.278,1.295"/>
			<path fill="none" stroke="#000000" stroke-width="2" stroke-linecap="round" stroke-linejoin="round" stroke-miterlimit="10" d="
				M-61.068,41.511c0,0,4.942-3.553,12.548,0.517"/>
		</g>
		
			<circle fill="none" stroke="#000000" stroke-width="2" stroke-linecap="round" stroke-linejoin="round" stroke-miterlimit="10" cx="-43.614" cy="33.298" r="9.584"/>
		
			<line fill="none" stroke="#000000" stroke-width="2" stroke-linecap="round" stroke-linejoin="round" stroke-miterlimit="10" x1="-38.568" y1="33.298" x2="-48.66" y2="33.298"/>
	</g>
	<g display="inline">
		<g>
			<path fill="none" stroke="#000000" stroke-width="2" stroke-linecap="round" stroke-linejoin="round" stroke-miterlimit="10" d="
				M-289.524,84.324c1.888-4.163,6.088-7.076,10.936-7.076l0,0c6.6,0,11.999,5.4,11.999,12v5.133"/>
			<path fill="none" stroke="#000000" stroke-width="2" stroke-linecap="round" stroke-linejoin="round" stroke-miterlimit="10" d="
				M-266.59,97.014c-1.733,0.406-2.368-0.658-2.379-2.283c-0.01-1.624-0.14-5.482-0.14-5.482c0-5.229-4.253-9.481-9.48-9.481
				c-4.303,0-7.946,2.883-9.099,6.818c0,0-1.27,2.125-2.353-0.043"/>
			<path fill="none" stroke="#000000" stroke-width="2" stroke-linecap="round" stroke-linejoin="round" stroke-miterlimit="10" d="
				M-290.041,90.101c3.021,1.77,4.491-2.402,5.546-4.535c1.055-2.132,3.418-3.279,5.906-3.279c3.839,0,6.961,3.123,6.961,6.962
				c0,0-0.661,11.752,5.038,10.503"/>
			<path fill="none" stroke="#000000" stroke-width="2" stroke-linecap="round" stroke-linejoin="round" stroke-miterlimit="10" d="
				M-290.041,93.086c2.604,0.606,4.612-0.568,5.766-1.866c0.91-1.021,1.11-2.096,1.11-2.096c0.828-3.038,2.126-4.318,4.575-4.318
				c2.45,0,4.442,1.992,4.442,4.442c0,0-0.108,7.183,1.487,8.83"/>
			<path fill="none" stroke="#000000" stroke-width="2" stroke-linecap="round" stroke-linejoin="round" stroke-miterlimit="10" d="
				M-290.041,96.276c8.69,0.36,9.529-7.028,9.529-7.028c0-1.061,0.863-1.924,1.923-1.924c1.061,0,1.923,0.863,1.923,1.924"/>
			<path fill="none" stroke="#000000" stroke-width="2" stroke-linecap="round" stroke-linejoin="round" stroke-miterlimit="10" d="
				M-278.589,90.101c0,0,0.968,7.874-11.452,9.11"/>
			<path fill="none" stroke="#000000" stroke-width="2" stroke-linecap="round" stroke-linejoin="round" stroke-miterlimit="10" d="
				M-275.916,98.354c0,0,3.785,4.612,9.202,3.824"/>
			<path fill="none" stroke="#000000" stroke-width="2" stroke-linecap="round" stroke-linejoin="round" stroke-miterlimit="10" d="
				M-290.492,101.96c0,0,9.768-0.805,12.435-5.424"/>
			<path fill="none" stroke="#000000" stroke-width="2" stroke-linecap="round" stroke-linejoin="round" stroke-miterlimit="10" d="
				M-276.323,91.442c0,0-0.845,2.682,0.407,4.291"/>
			<path fill="none" stroke="#000000" stroke-width="2" stroke-linecap="round" stroke-linejoin="round" stroke-miterlimit="10" d="
				M-289.749,104.854c0,0,8.137-0.982,12.021-4.715"/>
			<path fill="none" stroke="#000000" stroke-width="2" stroke-linecap="round" stroke-linejoin="round" stroke-miterlimit="10" d="
				M-276.258,101.781c0,0,3.158,3.592,8.61,3.592"/>
			<path fill="none" stroke="#000000" stroke-width="2" stroke-linecap="round" stroke-linejoin="round" stroke-miterlimit="10" d="
				M-288.379,107.373c0,0,7.676-1.03,10.064-3.707c0,0,3.426,3.726,8.897,4.51"/>
			<path fill="none" stroke="#000000" stroke-width="2" stroke-linecap="round" stroke-linejoin="round" stroke-miterlimit="10" d="
				M-286.557,109.663c0,0,6.292-1.234,7.986-2.659c0,0,5.761,3.423,6.994,3.178"/>
			<path fill="none" stroke="#000000" stroke-width="2" stroke-linecap="round" stroke-linejoin="round" stroke-miterlimit="10" d="
				M-283.353,111.469c0,0,3.751-2.696,9.524,0.392"/>
		</g>
		<path fill="none" stroke="#000000" stroke-width="2" stroke-linecap="round" stroke-linejoin="round" stroke-miterlimit="10" d="
			M-268.564,74.025h4.708c3.214,0,5.844,2.63,5.844,5.844v4.937"/>
		<path fill="none" stroke="#000000" stroke-width="2" stroke-linecap="round" stroke-linejoin="round" stroke-miterlimit="10" d="
			M-299.07,84.806v-4.937c0-3.214,2.63-5.844,5.844-5.844h4.613"/>
		<path fill="none" stroke="#000000" stroke-width="2" stroke-linecap="round" stroke-linejoin="round" stroke-miterlimit="10" d="
			M-288.613,115.083h-4.613c-3.214,0-5.844-2.63-5.844-5.844v-4.385"/>
		<path fill="none" stroke="#000000" stroke-width="2" stroke-linecap="round" stroke-linejoin="round" stroke-miterlimit="10" d="
			M-258.011,104.854v4.385c0,3.214-2.63,5.844-5.844,5.844h-4.708"/>
	</g>
	<g display="inline">
		<g>
			<path fill="none" stroke="#000000" stroke-width="2" stroke-linecap="round" stroke-linejoin="round" stroke-miterlimit="10" d="
				M-218.449,80.829c2.488-5.487,8.019-9.321,14.407-9.321c4.343,0,8.299,1.777,11.162,4.646c2.87,2.862,4.646,6.812,4.646,11.163
				v3.912"/>
			<path fill="none" stroke="#000000" stroke-width="2" stroke-linecap="round" stroke-linejoin="round" stroke-miterlimit="10" d="
				M-219.125,83.749c1.425,2.856,3.101,0.058,3.101,0.058c1.517-5.185,6.314-8.982,11.983-8.982c6.89,0,12.493,5.603,12.493,12.493
				c0,0,0.064,1.928,0.122,3.912"/>
			<path fill="none" stroke="#000000" stroke-width="2" stroke-linecap="round" stroke-linejoin="round" stroke-miterlimit="10" d="
				M-191.621,100.494c0.871,0.676,1.985,0.971,3.388,0.662"/>
			<path fill="none" stroke="#000000" stroke-width="2" stroke-linecap="round" stroke-linejoin="round" stroke-miterlimit="10" d="
				M-219.125,88.439c3.978,2.33,5.913-3.164,7.308-5.977c1.388-2.806,4.502-4.315,7.775-4.315c5.063,0,9.177,4.113,9.177,9.17
				c0,0-0.093,1.697,0.051,3.912"/>
			<path fill="none" stroke="#000000" stroke-width="2" stroke-linecap="round" stroke-linejoin="round" stroke-miterlimit="10" d="
				M-213.019,91.229c0.575-0.396,1.072-0.848,1.489-1.315c1.201-1.345,1.46-2.763,1.46-2.763c1.093-3.999,2.805-5.689,6.028-5.689
				c3.229,0,5.854,2.626,5.854,5.855c0,0-0.029,1.748,0.115,3.912"/>
			<path fill="none" stroke="#000000" stroke-width="2" stroke-linecap="round" stroke-linejoin="round" stroke-miterlimit="10" d="
				M-207.984,91.229c1.201-2.049,1.41-3.912,1.41-3.912c0-1.402,1.136-2.539,2.532-2.539c1.402,0,2.539,1.137,2.539,2.539"/>
			<path fill="none" stroke="#000000" stroke-width="2" stroke-linecap="round" stroke-linejoin="round" stroke-miterlimit="10" d="
				M-204.042,88.439c0,0,0.143,1.172-0.288,2.79"/>
			<path fill="none" stroke="#000000" stroke-width="2" stroke-linecap="round" stroke-linejoin="round" stroke-miterlimit="10" d="
				M-199.36,100.494c1.87,1.711,5.869,4.604,10.969,3.855"/>
			<path fill="none" stroke="#000000" stroke-width="2" stroke-linecap="round" stroke-linejoin="round" stroke-miterlimit="10" d="
				M-219.722,104.062c0,0,7.423-0.611,12.529-3.567"/>
			<path fill="none" stroke="#000000" stroke-width="2" stroke-linecap="round" stroke-linejoin="round" stroke-miterlimit="10" d="
				M-201.058,90.209c0,0-0.129,0.402-0.229,1.021"/>
			<path fill="none" stroke="#000000" stroke-width="2" stroke-linecap="round" stroke-linejoin="round" stroke-miterlimit="10" d="
				M-218.742,107.877c0,0,10.72-1.296,15.836-6.212"/>
			<path fill="none" stroke="#000000" stroke-width="2" stroke-linecap="round" stroke-linejoin="round" stroke-miterlimit="10" d="
				M-200.97,103.829c0,0,4.162,4.731,11.344,4.731"/>
			<path fill="none" stroke="#000000" stroke-width="2" stroke-linecap="round" stroke-linejoin="round" stroke-miterlimit="10" d="
				M-216.938,111.196c0,0,10.113-1.357,13.259-4.885c0,0,4.514,4.908,11.723,5.942"/>
			<path fill="none" stroke="#000000" stroke-width="2" stroke-linecap="round" stroke-linejoin="round" stroke-miterlimit="10" d="
				M-214.537,114.214c0,0,8.29-1.628,10.521-3.504c0,0,7.591,4.509,9.215,4.188"/>
			<path fill="none" stroke="#000000" stroke-width="2" stroke-linecap="round" stroke-linejoin="round" stroke-miterlimit="10" d="
				M-210.316,116.592c0,0,4.942-3.553,12.548,0.516"/>
		</g>
		
			<rect x="-227.763" y="91.231" fill="none" stroke="#000000" stroke-width="2" stroke-linecap="round" stroke-linejoin="round" stroke-miterlimit="10" width="47.574" height="9.26"/>
		<g>
			
				<circle fill="none" stroke="#000000" stroke-width="2" stroke-linecap="round" stroke-linejoin="round" stroke-miterlimit="10" cx="-220.049" cy="95.861" r="1.236"/>
			
				<circle fill="none" stroke="#000000" stroke-width="2" stroke-linecap="round" stroke-linejoin="round" stroke-miterlimit="10" cx="-214.692" cy="95.861" r="1.236"/>
			
				<circle fill="none" stroke="#000000" stroke-width="2" stroke-linecap="round" stroke-linejoin="round" stroke-miterlimit="10" cx="-209.334" cy="95.861" r="1.236"/>
			
				<circle fill="none" stroke="#000000" stroke-width="2" stroke-linecap="round" stroke-linejoin="round" stroke-miterlimit="10" cx="-203.976" cy="95.861" r="1.236"/>
			
				<circle fill="none" stroke="#000000" stroke-width="2" stroke-linecap="round" stroke-linejoin="round" stroke-miterlimit="10" cx="-198.619" cy="95.861" r="1.236"/>
			
				<circle fill="none" stroke="#000000" stroke-width="2" stroke-linecap="round" stroke-linejoin="round" stroke-miterlimit="10" cx="-193.261" cy="95.861" r="1.236"/>
			
				<circle fill="none" stroke="#000000" stroke-width="2" stroke-linecap="round" stroke-linejoin="round" stroke-miterlimit="10" cx="-187.903" cy="95.861" r="1.236"/>
		</g>
	</g>
	<g display="inline">
		<g>
			<path fill="none" stroke="#000000" stroke-width="2" stroke-linecap="round" stroke-linejoin="round" stroke-miterlimit="10" d="
				M-142.622,80.674c2.488-5.483,8.021-9.321,14.409-9.321l0,0c8.694,0,15.808,7.113,15.808,15.808v6.764"/>
			<path fill="none" stroke="#000000" stroke-width="2" stroke-linecap="round" stroke-linejoin="round" stroke-miterlimit="10" d="
				M-115.133,96.438c-0.277-0.533-0.401-1.24-0.406-2.054c-0.014-2.14-0.185-7.225-0.185-7.225c0-6.887-5.604-12.49-12.489-12.49
				c-5.67,0-10.469,3.798-11.989,8.982c0,0-1.672,2.799-3.099-0.056"/>
			<path fill="none" stroke="#000000" stroke-width="2" stroke-linecap="round" stroke-linejoin="round" stroke-miterlimit="10" d="
				M-112.405,97.392c-1.416,0.333-2.276-0.08-2.728-0.953"/>
			<path fill="none" stroke="#000000" stroke-width="2" stroke-linecap="round" stroke-linejoin="round" stroke-miterlimit="10" d="
				M-143.301,88.285c3.98,2.33,5.917-3.165,7.307-5.975c1.39-2.81,4.503-4.321,7.782-4.321c5.057,0,9.17,4.113,9.17,9.171
				c0,0-0.43,7.666,1.93,11.638"/>
			<path fill="none" stroke="#000000" stroke-width="2" stroke-linecap="round" stroke-linejoin="round" stroke-miterlimit="10" d="
				M-143.301,92.218c3.431,0.799,6.075-0.748,7.597-2.457c1.198-1.348,1.464-2.762,1.464-2.762c1.09-4.004,2.8-5.691,6.028-5.691
				c3.227,0,5.853,2.626,5.853,5.853c0,0-0.145,9.465,1.958,11.635"/>
			<path fill="none" stroke="#000000" stroke-width="2" stroke-linecap="round" stroke-linejoin="round" stroke-miterlimit="10" d="
				M-143.301,96.422c11.449,0.475,12.554-9.262,12.554-9.262c0-1.396,1.137-2.533,2.534-2.533c1.396,0,2.533,1.137,2.533,2.533"/>
			<path fill="none" stroke="#000000" stroke-width="2" stroke-linecap="round" stroke-linejoin="round" stroke-miterlimit="10" d="
				M-128.213,88.285c0,0,1.274,10.374-15.088,12.001"/>
			<path fill="none" stroke="#000000" stroke-width="2" stroke-linecap="round" stroke-linejoin="round" stroke-miterlimit="10" d="
				M-124.691,99.158c0,0,0.558,0.681,1.567,1.546"/>
			<path fill="none" stroke="#000000" stroke-width="2" stroke-linecap="round" stroke-linejoin="round" stroke-miterlimit="10" d="
				M-143.896,103.909c0,0,12.869-1.06,16.383-7.146"/>
			<path fill="none" stroke="#000000" stroke-width="2" stroke-linecap="round" stroke-linejoin="round" stroke-miterlimit="10" d="
				M-125.228,90.051c0,0-1.114,3.533,0.536,5.655"/>
			<path fill="none" stroke="#000000" stroke-width="2" stroke-linecap="round" stroke-linejoin="round" stroke-miterlimit="10" d="
				M-142.916,107.722c0,0,10.72-1.295,15.837-6.212"/>
			<path fill="none" stroke="#000000" stroke-width="2" stroke-linecap="round" stroke-linejoin="round" stroke-miterlimit="10" d="
				M-125.144,103.674c0,0,0.698,0.795,2.017,1.731"/>
			<path fill="none" stroke="#000000" stroke-width="2" stroke-linecap="round" stroke-linejoin="round" stroke-miterlimit="10" d="
				M-141.112,111.041c0,0,10.114-1.357,13.259-4.884c0,0,1.354,1.472,3.762,2.974"/>
			<path fill="none" stroke="#000000" stroke-width="2" stroke-linecap="round" stroke-linejoin="round" stroke-miterlimit="10" d="
				M-138.711,114.059c0,0,8.29-1.627,10.521-3.503c0,0,2.238,1.329,4.544,2.492"/>
			<path fill="none" stroke="#000000" stroke-width="2" stroke-linecap="round" stroke-linejoin="round" stroke-miterlimit="10" d="
				M-134.49,116.438c0,0,4.943-3.554,12.548,0.516"/>
		</g>
		<path fill="none" stroke="#000000" stroke-width="2" stroke-linecap="round" stroke-linejoin="round" stroke-miterlimit="10" d="
			M-114.973,98.014c0,0,0.21,1.388,8.124,1.388c0,0-1.061,3.264,0,7.016c1.061,3.754,0.489,7.099,0.489,7.099
			s-3.968,3.371-8.613,4.822c-4.646-1.451-8.613-4.822-8.613-4.822s-0.571-3.345,0.489-7.099c1.061-3.752,0-7.016,0-7.016
			C-115.183,99.401-114.973,98.014-114.973,98.014z"/>
	</g>
	<g display="inline">
		<g>
			<path fill="none" stroke="#000000" stroke-width="2" stroke-linecap="round" stroke-linejoin="round" stroke-miterlimit="10" d="
				M-67.012,80.109c2.487-5.483,8.021-9.322,14.409-9.322l0,0c8.693,0,15.808,7.114,15.808,15.809v6.764"/>
			<path fill="none" stroke="#000000" stroke-width="2" stroke-linecap="round" stroke-linejoin="round" stroke-miterlimit="10" d="
				M-36.795,96.828c-2.284,0.535-3.121-0.867-3.135-3.008c-0.014-2.14-0.184-7.225-0.184-7.225c0-6.887-5.604-12.489-12.49-12.489
				c-5.67,0-10.47,3.797-11.988,8.981c0,0-1.672,2.8-3.1-0.057"/>
			<path fill="none" stroke="#000000" stroke-width="2" stroke-linecap="round" stroke-linejoin="round" stroke-miterlimit="10" d="
				M-67.691,87.72c3.98,2.331,5.917-3.164,7.307-5.974s4.503-4.321,7.781-4.321c5.057,0,9.171,4.114,9.171,9.171
				c0,0-0.871,15.484,6.638,13.84"/>
			<path fill="none" stroke="#000000" stroke-width="2" stroke-linecap="round" stroke-linejoin="round" stroke-miterlimit="10" d="
				M-44.792,98.229"/>
			<path fill="none" stroke="#000000" stroke-width="2" stroke-linecap="round" stroke-linejoin="round" stroke-miterlimit="10" d="
				M-67.691,91.652c3.432,0.8,6.075-0.747,7.597-2.457c1.198-1.347,1.464-2.762,1.464-2.762c1.09-4.003,2.8-5.69,6.027-5.69
				s5.853,2.626,5.853,5.853c0,0-0.115,7.606,1.376,10.745"/>
			<path fill="none" stroke="#000000" stroke-width="2" stroke-linecap="round" stroke-linejoin="round" stroke-miterlimit="10" d="
				M-67.691,95.857c11.449,0.475,12.554-9.262,12.554-9.262c0-1.396,1.137-2.533,2.534-2.533c1.396,0,2.533,1.137,2.533,2.533"/>
			<path fill="none" stroke="#000000" stroke-width="2" stroke-linecap="round" stroke-linejoin="round" stroke-miterlimit="10" d="
				M-52.603,87.72c0,0,1.273,10.375-15.089,12.002"/>
			<path fill="none" stroke="#000000" stroke-width="2" stroke-linecap="round" stroke-linejoin="round" stroke-miterlimit="10" d="
				M-39.4,103.691c0.818,0.066,1.55,0.07,2.441-0.06"/>
			<path fill="none" stroke="#000000" stroke-width="2" stroke-linecap="round" stroke-linejoin="round" stroke-miterlimit="10" d="
				M-49.081,98.594c0,0,0.059,0.073,0.175,0.201"/>
			<path fill="none" stroke="#000000" stroke-width="2" stroke-linecap="round" stroke-linejoin="round" stroke-miterlimit="10" d="
				M-68.286,103.345c0,0,12.869-1.06,16.383-7.146"/>
			<path fill="none" stroke="#000000" stroke-width="2" stroke-linecap="round" stroke-linejoin="round" stroke-miterlimit="10" d="
				M-49.619,89.486c0,0-1.112,3.534,0.538,5.656"/>
			<path fill="none" stroke="#000000" stroke-width="2" stroke-linecap="round" stroke-linejoin="round" stroke-miterlimit="10" d="
				M-67.307,107.157c0,0,10.72-1.295,15.837-6.211"/>
			<path fill="none" stroke="#000000" stroke-width="2" stroke-linecap="round" stroke-linejoin="round" stroke-miterlimit="10" d="
				M-40.913,107.608c0.852,0.147,1.76,0.233,2.724,0.233"/>
			<path fill="none" stroke="#000000" stroke-width="2" stroke-linecap="round" stroke-linejoin="round" stroke-miterlimit="10" d="
				M-65.503,110.477c0,0,10.114-1.357,13.26-4.884c0,0,4.514,4.908,11.723,5.942"/>
			<path fill="none" stroke="#000000" stroke-width="2" stroke-linecap="round" stroke-linejoin="round" stroke-miterlimit="10" d="
				M-63.101,113.494c0,0,8.289-1.627,10.521-3.503c0,0,7.591,4.509,9.215,4.187"/>
			<path fill="none" stroke="#000000" stroke-width="2" stroke-linecap="round" stroke-linejoin="round" stroke-miterlimit="10" d="
				M-58.881,115.873c0,0,4.943-3.553,12.548,0.516"/>
		</g>
		<g>
			
				<circle fill="none" stroke="#000000" stroke-width="2" stroke-linecap="round" stroke-linejoin="round" stroke-miterlimit="10" cx="-45.254" cy="103.443" r="5.859"/>
			<path fill="none" stroke="#000000" stroke-width="2" stroke-linecap="round" stroke-linejoin="round" stroke-miterlimit="10" d="
				M-45.255,100.044c0.87,0,1.74,0.332,2.404,0.995c0.663,0.663,0.996,1.534,0.996,2.403"/>
			
				<line fill="none" stroke="#000000" stroke-width="2" stroke-linecap="round" stroke-linejoin="round" stroke-miterlimit="10" x1="-41.111" y1="107.586" x2="-39.271" y2="109.426"/>
			<path fill="none" stroke="#000000" stroke-width="2" stroke-linecap="round" stroke-linejoin="round" stroke-miterlimit="10" d="
				M-30.309,118.143l-0.245,0.246c-0.507,0.507-1.336,0.507-1.842,0l-6.998-6.998c-0.506-0.506-0.506-1.335,0-1.841l0.246-0.246
				c0.506-0.507,1.334-0.507,1.841,0l6.998,6.998C-29.802,116.809-29.802,117.637-30.309,118.143z"/>
		</g>
	</g>
	<g display="inline">
		
			<polygon fill="none" stroke="#000000" stroke-width="2" stroke-linecap="round" stroke-linejoin="round" stroke-miterlimit="10" points="
			-269.365,176.474 -260.519,191.797 -278.211,191.797 		"/>
		
			<line fill="none" stroke="#000000" stroke-width="2" stroke-linecap="round" stroke-linejoin="round" stroke-miterlimit="10" x1="-269.365" y1="181.985" x2="-269.365" y2="186.285"/>
		
			<line fill="none" stroke="#000000" stroke-width="2" stroke-linecap="round" stroke-linejoin="round" stroke-miterlimit="10" x1="-269.365" y1="189.081" x2="-269.365" y2="189.543"/>
	</g>
	<g display="inline">
		<g>
			<path fill="none" stroke="#000000" stroke-width="2" stroke-linecap="round" stroke-linejoin="round" stroke-miterlimit="10" d="
				M-191.671,194.847h-22.468c-0.792,0-1.438-0.647-1.438-1.438v-48.161c0-0.791,0.647-1.438,1.438-1.438h22.468
				c0.791,0,1.438,0.647,1.438,1.438v48.161C-190.233,194.199-190.881,194.847-191.671,194.847z"/>
			
				<circle fill="none" stroke="#000000" stroke-width="2" stroke-linecap="round" stroke-linejoin="round" stroke-miterlimit="10" cx="-202.905" cy="189.3" r="2.309"/>
			
				<line fill="none" stroke="#000000" stroke-width="2" stroke-linecap="round" stroke-linejoin="round" stroke-miterlimit="10" x1="-215.578" y1="150.449" x2="-190.233" y2="150.449"/>
			
				<line fill="none" stroke="#000000" stroke-width="2" stroke-linecap="round" stroke-linejoin="round" stroke-miterlimit="10" x1="-215.578" y1="183.622" x2="-190.233" y2="183.622"/>
			
				<line fill="none" stroke="#000000" stroke-width="2" stroke-linecap="round" stroke-linejoin="round" stroke-miterlimit="10" x1="-204.114" y1="147.129" x2="-201.696" y2="147.129"/>
		</g>
		<g>
			<path fill="none" stroke="#000000" stroke-width="2" stroke-linecap="round" stroke-linejoin="round" stroke-miterlimit="10" d="
				M-211.833,158.94c1.535-3.384,4.949-5.751,8.888-5.751l0,0c5.364,0,9.751,4.388,9.751,9.751v4.172"/>
			<path fill="none" stroke="#000000" stroke-width="2" stroke-linecap="round" stroke-linejoin="round" stroke-miterlimit="10" d="
				M-193.193,169.252c-1.409,0.331-1.925-0.534-1.933-1.854s-0.114-4.457-0.114-4.457c0-4.248-3.457-7.704-7.705-7.704
				c-3.497,0-6.458,2.343-7.396,5.54c0,0-1.031,1.727-1.912-0.034"/>
			<path fill="none" stroke="#000000" stroke-width="2" stroke-linecap="round" stroke-linejoin="round" stroke-miterlimit="10" d="
				M-212.251,163.634c2.456,1.438,3.649-1.951,4.507-3.685c0.858-1.733,2.778-2.666,4.8-2.666c3.12,0,5.657,2.538,5.657,5.657
				c0,0-0.538,9.552,4.094,8.537"/>
			<path fill="none" stroke="#000000" stroke-width="2" stroke-linecap="round" stroke-linejoin="round" stroke-miterlimit="10" d="
				M-212.251,166.061c2.117,0.493,3.748-0.461,4.686-1.516c0.74-0.831,0.903-1.704,0.903-1.704c0.672-2.47,1.727-3.51,3.718-3.51
				c1.991,0,3.61,1.618,3.61,3.609c0,0-0.089,5.838,1.208,7.177"/>
			<path fill="none" stroke="#000000" stroke-width="2" stroke-linecap="round" stroke-linejoin="round" stroke-miterlimit="10" d="
				M-212.251,168.653c7.063,0.293,7.744-5.713,7.744-5.713c0-0.861,0.701-1.563,1.563-1.563s1.563,0.701,1.563,1.563"/>
			<path fill="none" stroke="#000000" stroke-width="2" stroke-linecap="round" stroke-linejoin="round" stroke-miterlimit="10" d="
				M-202.944,163.634c0,0,0.786,6.399-9.307,7.403"/>
			<path fill="none" stroke="#000000" stroke-width="2" stroke-linecap="round" stroke-linejoin="round" stroke-miterlimit="10" d="
				M-200.772,170.342c0,0,3.076,3.748,7.478,3.107"/>
			<path fill="none" stroke="#000000" stroke-width="2" stroke-linecap="round" stroke-linejoin="round" stroke-miterlimit="10" d="
				M-212.618,173.272c0,0,7.939-0.654,10.106-4.408"/>
			<path fill="none" stroke="#000000" stroke-width="2" stroke-linecap="round" stroke-linejoin="round" stroke-miterlimit="10" d="
				M-201.104,164.725c0,0-0.687,2.179,0.332,3.487"/>
			<path fill="none" stroke="#000000" stroke-width="2" stroke-linecap="round" stroke-linejoin="round" stroke-miterlimit="10" d="
				M-212.014,175.624c0,0,6.612-0.8,9.769-3.831"/>
			<path fill="none" stroke="#000000" stroke-width="2" stroke-linecap="round" stroke-linejoin="round" stroke-miterlimit="10" d="
				M-201.051,173.128c0,0,2.567,2.918,6.998,2.918"/>
			<path fill="none" stroke="#000000" stroke-width="2" stroke-linecap="round" stroke-linejoin="round" stroke-miterlimit="10" d="
				M-210.901,177.672c0,0,6.239-0.838,8.179-3.013c0,0,2.784,3.027,7.231,3.665"/>
			<path fill="none" stroke="#000000" stroke-width="2" stroke-linecap="round" stroke-linejoin="round" stroke-miterlimit="10" d="
				M-209.419,179.533c0,0,5.113-1.004,6.49-2.162c0,0,4.682,2.782,5.684,2.584"/>
			<path fill="none" stroke="#000000" stroke-width="2" stroke-linecap="round" stroke-linejoin="round" stroke-miterlimit="10" d="
				M-206.816,181c0,0,3.049-2.191,7.74,0.317"/>
		</g>
	</g>
	<g display="inline">
		<g>
			<path fill="none" stroke="#000000" stroke-width="2" stroke-linecap="round" stroke-linejoin="round" stroke-miterlimit="10" d="
				M-138.009,160.108c1.805-3.978,5.818-6.762,10.45-6.762l0,0c6.306,0,11.465,5.158,11.465,11.465v4.905"/>
			<path fill="none" stroke="#000000" stroke-width="2" stroke-linecap="round" stroke-linejoin="round" stroke-miterlimit="10" d="
				M-116.094,172.231c-1.657,0.389-2.264-0.628-2.273-2.181c-0.01-1.552-0.134-5.239-0.134-5.239c0-4.995-4.063-9.059-9.058-9.059
				c-4.112,0-7.592,2.754-8.694,6.515c0,0-1.212,2.029-2.248-0.041"/>
			<path fill="none" stroke="#000000" stroke-width="2" stroke-linecap="round" stroke-linejoin="round" stroke-miterlimit="10" d="
				M-138.501,165.626c2.887,1.691,4.292-2.294,5.299-4.332c1.008-2.037,3.266-3.134,5.643-3.134c3.667,0,6.651,2.983,6.651,6.651
				c0,0-0.631,11.229,4.814,10.036"/>
			<path fill="none" stroke="#000000" stroke-width="2" stroke-linecap="round" stroke-linejoin="round" stroke-miterlimit="10" d="
				M-138.501,168.479c2.489,0.579,4.407-0.542,5.51-1.783c0.869-0.976,1.061-2.003,1.061-2.003c0.792-2.902,2.031-4.126,4.372-4.126
				s4.245,1.903,4.245,4.244c0,0-0.104,6.863,1.42,8.438"/>
			<path fill="none" stroke="#000000" stroke-width="2" stroke-linecap="round" stroke-linejoin="round" stroke-miterlimit="10" d="
				M-138.501,171.527c8.304,0.345,9.105-6.716,9.105-6.716c0-1.013,0.825-1.838,1.837-1.838c1.014,0,1.838,0.825,1.838,1.838"/>
			<path fill="none" stroke="#000000" stroke-width="2" stroke-linecap="round" stroke-linejoin="round" stroke-miterlimit="10" d="
				M-127.559,165.626c0,0,0.924,7.524-10.942,8.705"/>
			<path fill="none" stroke="#000000" stroke-width="2" stroke-linecap="round" stroke-linejoin="round" stroke-miterlimit="10" d="
				M-125.005,173.513c0,0,3.616,4.407,8.792,3.653"/>
			<path fill="none" stroke="#000000" stroke-width="2" stroke-linecap="round" stroke-linejoin="round" stroke-miterlimit="10" d="
				M-138.933,176.959c0,0,9.334-0.77,11.882-5.184"/>
			<path fill="none" stroke="#000000" stroke-width="2" stroke-linecap="round" stroke-linejoin="round" stroke-miterlimit="10" d="
				M-125.394,166.908c0,0-0.809,2.563,0.389,4.102"/>
			<path fill="none" stroke="#000000" stroke-width="2" stroke-linecap="round" stroke-linejoin="round" stroke-miterlimit="10" d="
				M-138.222,179.724c0,0,7.775-0.939,11.486-4.505"/>
			<path fill="none" stroke="#000000" stroke-width="2" stroke-linecap="round" stroke-linejoin="round" stroke-miterlimit="10" d="
				M-125.332,176.788c0,0,3.017,3.431,8.226,3.431"/>
			<path fill="none" stroke="#000000" stroke-width="2" stroke-linecap="round" stroke-linejoin="round" stroke-miterlimit="10" d="
				M-136.914,182.13c0,0,7.334-0.983,9.616-3.542c0,0,3.273,3.56,8.501,4.311"/>
			<path fill="none" stroke="#000000" stroke-width="2" stroke-linecap="round" stroke-linejoin="round" stroke-miterlimit="10" d="
				M-135.172,184.318c0,0,6.012-1.18,7.631-2.54c0,0,5.504,3.27,6.682,3.036"/>
			<path fill="none" stroke="#000000" stroke-width="2" stroke-linecap="round" stroke-linejoin="round" stroke-miterlimit="10" d="
				M-132.111,186.043c0,0,3.585-2.576,9.101,0.375"/>
		</g>
		<g>
			<g>
				<g>
					<g>
						<path fill="none" stroke="#000000" stroke-width="2" stroke-linecap="round" stroke-linejoin="round" d="M-149.755,172.879
							c-0.546-4.027-0.006-8.252,1.79-12.229c5.094-11.286,18.366-16.312,29.655-11.234"/>
						<g>
							<polygon points="-121.046,152.118 -113.874,152.058 -117.512,145.876 							"/>
						</g>
					</g>
				</g>
			</g>
			<g>
				<g>
					<g>
						<path fill="none" stroke="#000000" stroke-width="2" stroke-linecap="round" stroke-linejoin="round" d="M-105.434,165.866
							c0.791,4.328,0.32,8.934-1.627,13.247c-5.099,11.296-18.388,16.319-29.684,11.222c-0.994-0.448-1.939-0.96-2.833-1.528"/>
						<g>
							<polygon points="-136.482,186.545 -143.585,185.55 -140.896,192.199 							"/>
						</g>
					</g>
				</g>
			</g>
		</g>
	</g>
	<g display="inline">
		<g>
			<path fill="none" stroke="#000000" stroke-width="2" stroke-linecap="round" stroke-linejoin="round" stroke-miterlimit="10" d="
				M-36.756,157.44c0.506,1.543,0.78,3.188,0.78,4.896v6.764"/>
			<path fill="none" stroke="#000000" stroke-width="2" stroke-linecap="round" stroke-linejoin="round" stroke-miterlimit="10" d="
				M-65.188,153.981c2.801-4.468,7.771-7.453,13.404-7.453l0,0c5.281,0,9.979,2.624,12.854,6.633"/>
			<path fill="none" stroke="#000000" stroke-width="2" stroke-linecap="round" stroke-linejoin="round" stroke-miterlimit="10" d="
				M-65.187,160.03c-0.521,0.114-1.123-0.132-1.687-1.258"/>
			<path fill="none" stroke="#000000" stroke-width="2" stroke-linecap="round" stroke-linejoin="round" stroke-miterlimit="10" d="
				M-41.319,155.524c-2.231-3.417-6.089-5.679-10.465-5.679c-4.773,0-8.93,2.692-11.031,6.637"/>
			<path fill="none" stroke="#000000" stroke-width="2" stroke-linecap="round" stroke-linejoin="round" stroke-miterlimit="10" d="
				M-35.976,172.567c-2.284,0.536-3.121-0.866-3.135-3.007c-0.014-2.14-0.185-7.225-0.185-7.225c0-0.778-0.071-1.541-0.208-2.281"/>
			<path fill="none" stroke="#000000" stroke-width="2" stroke-linecap="round" stroke-linejoin="round" stroke-miterlimit="10" d="
				M-42.613,162.336c0,0-0.871,15.484,6.638,13.84"/>
			<path fill="none" stroke="#000000" stroke-width="2" stroke-linecap="round" stroke-linejoin="round" stroke-miterlimit="10" d="
				M-59.898,158.181c0.114-0.244,0.226-0.478,0.333-0.694c1.39-2.81,4.503-4.321,7.781-4.321c3.481,0,6.516,1.95,8.069,4.814"/>
			<path fill="none" stroke="#000000" stroke-width="2" stroke-linecap="round" stroke-linejoin="round" stroke-miterlimit="10" d="
				M-66.873,163.46c1.656,0.97,2.959,0.584,4.015-0.397"/>
			<path fill="none" stroke="#000000" stroke-width="2" stroke-linecap="round" stroke-linejoin="round" stroke-miterlimit="10" d="
				M-45.854,165.709c0.155,2.943,0.604,6.945,1.88,8.262"/>
			<path fill="none" stroke="#000000" stroke-width="2" stroke-linecap="round" stroke-linejoin="round" stroke-miterlimit="10" d="
				M-57.555,161.307c1.1-3.38,2.787-4.823,5.771-4.823c2.668,0,4.924,1.794,5.626,4.239"/>
			<path fill="none" stroke="#000000" stroke-width="2" stroke-linecap="round" stroke-linejoin="round" stroke-miterlimit="10" d="
				M-66.873,167.394c3.003,0.699,5.403-0.397,6.975-1.828"/>
			<path fill="none" stroke="#000000" stroke-width="2" stroke-linecap="round" stroke-linejoin="round" stroke-miterlimit="10" d="
				M-54.841,164.356c0.427-1.178,0.522-2.021,0.522-2.021c0-1.396,1.137-2.533,2.534-2.533c1.396,0,2.533,1.137,2.533,2.533"/>
			<path fill="none" stroke="#000000" stroke-width="2" stroke-linecap="round" stroke-linejoin="round" stroke-miterlimit="10" d="
				M-66.873,171.598c4.713,0.195,7.673-1.34,9.524-3.213"/>
			<path fill="none" stroke="#000000" stroke-width="2" stroke-linecap="round" stroke-linejoin="round" stroke-miterlimit="10" d="
				M-58.615,173.407c-2.07,0.96-4.761,1.707-8.258,2.056"/>
			<path fill="none" stroke="#000000" stroke-width="2" stroke-linecap="round" stroke-linejoin="round" stroke-miterlimit="10" d="
				M-51.784,163.46c0,0,0.169,1.378-0.408,3.209"/>
			<path fill="none" stroke="#000000" stroke-width="2" stroke-linecap="round" stroke-linejoin="round" stroke-miterlimit="10" d="
				M-38.71,179.453c0.82,0.067,1.679,0.048,2.571-0.081"/>
			<path fill="none" stroke="#000000" stroke-width="2" stroke-linecap="round" stroke-linejoin="round" stroke-miterlimit="10" d="
				M-56.343,176.247c1.588-0.745,3.053-1.678,4.151-2.84"/>
			<path fill="none" stroke="#000000" stroke-width="2" stroke-linecap="round" stroke-linejoin="round" stroke-miterlimit="10" d="
				M-67.467,179.085c0,0,1.321-0.109,3.233-0.458"/>
			<path fill="none" stroke="#000000" stroke-width="2" stroke-linecap="round" stroke-linejoin="round" stroke-miterlimit="10" d="
				M-48.995,169.318c0.138,0.555,0.367,1.094,0.733,1.563"/>
			<path fill="none" stroke="#000000" stroke-width="2" stroke-linecap="round" stroke-linejoin="round" stroke-miterlimit="10" d="
				M-62.11,182.061c3.56-0.863,8.468-2.5,11.46-5.375"/>
			<path fill="none" stroke="#000000" stroke-width="2" stroke-linecap="round" stroke-linejoin="round" stroke-miterlimit="10" d="
				M-48.715,178.851c0,0,2.167,2.462,6.07,3.834"/>
			<path fill="none" stroke="#000000" stroke-width="2" stroke-linecap="round" stroke-linejoin="round" stroke-miterlimit="10" d="
				M-64.684,186.217c0,0,10.114-1.357,13.259-4.884c0,0,4.514,4.908,11.723,5.941"/>
			<path fill="none" stroke="#000000" stroke-width="2" stroke-linecap="round" stroke-linejoin="round" stroke-miterlimit="10" d="
				M-62.282,189.234c0,0,8.289-1.628,10.521-3.503c0,0,7.592,4.508,9.216,4.187"/>
			<path fill="none" stroke="#000000" stroke-width="2" stroke-linecap="round" stroke-linejoin="round" stroke-miterlimit="10" d="
				M-58.062,191.612c0,0,4.943-3.553,12.548,0.516"/>
		</g>
		
			<line fill="none" stroke="#000000" stroke-width="2" stroke-linecap="round" stroke-linejoin="round" stroke-miterlimit="10" x1="-31.978" y1="149.368" x2="-73.024" y2="190.396"/>
		
			<line fill="none" stroke="#000000" stroke-width="2" stroke-linecap="round" stroke-linejoin="round" stroke-miterlimit="10" x1="-31.987" y1="190.406" x2="-73.015" y2="149.358"/>
	</g>
	<g display="inline">
		<g>
			<path fill="none" stroke="#FF0000" stroke-width="3" stroke-linecap="round" stroke-linejoin="round" stroke-miterlimit="10" d="
				M16.732,188.059c5.886-12.973,18.975-22.052,34.083-22.052l0,0c20.568,0,37.397,16.828,37.397,37.395v16.001"/>
			<path fill="none" stroke="#FF0000" stroke-width="3" stroke-linecap="round" stroke-linejoin="round" stroke-miterlimit="10" d="
				M88.213,227.604c-5.405,1.268-7.385-2.049-7.416-7.112c-0.032-5.063-0.438-17.091-0.438-17.091
				c0-16.292-13.251-29.546-29.543-29.546c-13.412,0-24.765,8.982-28.359,21.248c0,0-3.956,6.621-7.332-0.133"/>
			<path fill="none" stroke="#FF0000" stroke-width="3" stroke-linecap="round" stroke-linejoin="round" stroke-miterlimit="10" d="
				M15.125,206.06c9.416,5.515,13.996-7.483,17.285-14.13c3.288-6.646,10.652-10.221,18.406-10.221
				c11.963,0,21.695,9.729,21.695,21.692c0,0-1.22,21.664,6.296,29.901"/>
			<path fill="none" stroke="#FF0000" stroke-width="3" stroke-linecap="round" stroke-linejoin="round" stroke-miterlimit="10" d="
				M15.125,215.365c8.118,1.891,14.372-1.77,17.971-5.813c2.835-3.188,3.461-6.535,3.461-6.535
				c2.581-9.469,6.625-13.461,14.259-13.461c7.634,0,13.844,6.211,13.844,13.845c0,0-0.341,22.39,4.634,27.521"/>
			<path fill="none" stroke="#FF0000" stroke-width="3" stroke-linecap="round" stroke-linejoin="round" stroke-miterlimit="10" d="
				M15.125,225.312c27.084,1.12,29.697-21.91,29.697-21.91c0-3.304,2.689-5.993,5.994-5.993c3.304,0,5.993,2.689,5.993,5.993"/>
			<path fill="none" stroke="#FF0000" stroke-width="3" stroke-linecap="round" stroke-linejoin="round" stroke-miterlimit="10" d="
				M50.815,206.06c0,0,3.016,24.543-35.691,28.393"/>
			<path fill="none" stroke="#FF0000" stroke-width="3" stroke-linecap="round" stroke-linejoin="round" stroke-miterlimit="10" d="
				M59.146,231.784c0,0,4.104,5.001,10.936,8.598"/>
			<path fill="none" stroke="#FF0000" stroke-width="3" stroke-linecap="round" stroke-linejoin="round" stroke-miterlimit="10" d="
				M13.717,243.022c0,0,30.444-2.508,38.755-16.904"/>
			<path fill="none" stroke="#FF0000" stroke-width="3" stroke-linecap="round" stroke-linejoin="round" stroke-miterlimit="10" d="
				M57.876,210.24c0,0-2.634,8.357,1.27,13.377"/>
			<path fill="none" stroke="#FF0000" stroke-width="3" stroke-linecap="round" stroke-linejoin="round" stroke-miterlimit="10" d="
				M16.035,252.041c0,0,25.358-3.063,37.461-14.693"/>
			<path fill="none" stroke="#FF0000" stroke-width="3" stroke-linecap="round" stroke-linejoin="round" stroke-miterlimit="10" d="
				M58.076,242.467c0,0,3.23,3.67,9.183,6.808"/>
			<path fill="none" stroke="#FF0000" stroke-width="3" stroke-linecap="round" stroke-linejoin="round" stroke-miterlimit="10" d="
				M20.303,259.891c0,0,23.923-3.209,31.365-11.552c0,0,4.827,5.252,13.172,9.432"/>
			<path fill="none" stroke="#FF0000" stroke-width="3" stroke-linecap="round" stroke-linejoin="round" stroke-miterlimit="10" d="
				M25.984,267.029c0,0,19.608-3.85,24.886-8.286c0,0,7.423,4.407,13.742,7.355"/>
			<path fill="none" stroke="#FF0000" stroke-width="3" stroke-linecap="round" stroke-linejoin="round" stroke-miterlimit="10" d="
				M35.966,272.655c0,0,11.245-8.083,28.648,0.683"/>
		</g>
		<g>
			<path fill="none" stroke="#FF0000" stroke-width="3" stroke-linecap="round" stroke-linejoin="round" stroke-miterlimit="10" d="
				M98.084,272.71c0,2.679-2.191,4.871-4.868,4.871H69.712c-2.681,0-4.872-2.192-4.872-4.871v-19.237
				c0-2.676,2.191-4.868,4.872-4.868h23.504c2.677,0,4.868,2.192,4.868,4.868V272.71z"/>
			<path fill="none" stroke="#FF0000" stroke-width="3" stroke-linecap="round" stroke-linejoin="round" stroke-miterlimit="10" d="
				M70.078,248.604v-3.93c0-6.262,5.121-11.385,11.384-11.385l0,0c6.265,0,11.386,5.123,11.386,11.385v3.93"/>
			<path fill="none" stroke="#FF0000" stroke-width="3" stroke-linecap="round" stroke-linejoin="round" stroke-miterlimit="10" d="
				M85.831,261.068c0-2.413-1.956-4.372-4.369-4.372c-2.411,0-4.369,1.959-4.369,4.372c0,1.725,1.002,3.209,2.453,3.92v2.58
				c0,1.055,0.861,1.918,1.916,1.918s1.92-0.863,1.92-1.918v-2.58C84.833,264.277,85.831,262.793,85.831,261.068z"/>
		</g>
	</g>
	<g display="inline">
		<g id="path17_1_">
			<path fill="#FFFFFF" d="M88.798,159.977c0.025,0.02,0.058,0.047,0.085,0.074l0.013,1.604l0.018,2.063l0.011,1.34l1.278,0.4
				l0.647,0.205c0.864,0.271,1.696,0.613,2.548,1.045c0.964,0.488,1.222,0.619,1.709,0.619c0.807,0,0.952-0.146,2.737-1.922
				c0.406-0.404,0.942-0.938,1.202-1.152h0.02h0.003c0.331,0.275,1.059,1.01,2.017,1.977l0.1,0.102
				c1.029,1.039,1.812,1.828,2.103,2.184c-0.224,0.268-0.752,0.797-1.154,1.201l-1.395,1.398l-0.934,0.936l0.59,1.184l0.449,0.904
				c0.455,0.914,0.766,1.678,1.043,2.559l0.204,0.648l0.401,1.279l1.341,0.01l2.062,0.018l1.604,0.014
				c0.027,0.027,0.055,0.059,0.074,0.086v2.928v2.932c-0.02,0.025-0.047,0.057-0.074,0.084l-1.606,0.014l-2.064,0.018l-1.354,0.012
				l-0.393,1.295l-0.146,0.482c-0.271,0.896-0.852,2.26-1.351,3.172l-0.207,0.379l-0.663,1.209l0.974,0.975l1.419,1.424
				c0.564,0.566,0.949,0.975,1.157,1.203c-0.28,0.334-1.051,1.105-2.068,2.123l-0.08,0.08c-0.982,0.984-1.73,1.734-2.075,2.021
				c-0.266-0.223-0.792-0.748-1.192-1.148c-1.819-1.811-1.928-1.92-2.729-1.92c-0.473,0-0.673,0.1-1.788,0.652
				c-0.932,0.463-1.607,0.738-2.494,1.018l-0.631,0.199l-1.276,0.402l-0.011,1.338l-0.018,2.063l-0.013,1.604
				c-0.02,0.02-0.042,0.041-0.063,0.057c-0.341,0.018-1.255,0.021-2.764,0.025l-0.574,0.002c-1.377,0-2.264-0.014-2.556-0.023
				c-0.024-0.012-0.055-0.031-0.076-0.053l-0.014-1.615l-0.017-2.064l-0.012-1.354l-1.296-0.395l-0.483-0.146
				c-0.878-0.266-2.165-0.811-3.13-1.33l-0.435-0.232l-1.204-0.646l-0.967,0.965l-1.423,1.418c-0.566,0.563-0.975,0.949-1.204,1.156
				c-0.351-0.291-1.192-1.135-2.148-2.094l-0.067-0.068c-0.975-0.975-1.717-1.719-2.006-2.064c0.226-0.268,0.754-0.799,1.156-1.201
				l1.396-1.4l0.934-0.938l-0.59-1.184l-0.449-0.902c-0.458-0.918-0.771-1.684-1.045-2.557l-0.203-0.648l-0.401-1.279l-1.341-0.012
				l-2.064-0.016l-1.603-0.014c-0.027-0.025-0.055-0.059-0.074-0.084v-2.932v-2.93c0.02-0.025,0.047-0.057,0.073-0.084l1.605-0.014
				l2.062-0.018l1.347-0.01l0.398-1.287l0.175-0.564c0.246-0.793,0.724-1.953,1.112-2.697l0.406-0.775l0.624-1.193l-0.947-0.957
				l-1.404-1.416c-0.436-0.439-0.963-0.973-1.177-1.232c0-0.004,0-0.01,0-0.016v-0.004c0.277-0.33,1.013-1.061,1.981-2.02
				l0.099-0.098c1.002-0.992,1.82-1.805,2.184-2.102c0.269,0.225,0.79,0.746,1.189,1.143c1.595,1.59,1.927,1.92,2.772,1.92
				c0.41,0,0.814-0.125,1.152-0.354c0.088-0.047,0.296-0.158,0.603-0.311c0.774-0.389,1.65-0.742,2.465-0.998l0.648-0.203
				l1.278-0.402l0.011-1.34l0.017-2.063l0.014-1.607c0.025-0.025,0.055-0.053,0.079-0.07h2.937H88.798"/>
		</g>
	</g>
	<g display="inline">
		<g id="path17">
			<path fill="#FF0000" d="M88.762,160.002c0.025,0.02,0.058,0.047,0.085,0.074l0.013,1.602l0.018,2.063l0.011,1.34l1.278,0.402
				l0.647,0.203c0.864,0.271,1.696,0.613,2.548,1.045c0.964,0.488,1.222,0.619,1.709,0.619c0.807,0,0.952-0.145,2.737-1.92
				c0.406-0.404,0.942-0.938,1.202-1.154h0.02h0.003c0.331,0.277,1.059,1.012,2.017,1.979l0.1,0.1
				c1.029,1.039,1.812,1.828,2.103,2.186c-0.224,0.266-0.752,0.797-1.154,1.201l-1.395,1.396l-0.934,0.938l0.59,1.184l0.449,0.902
				c0.455,0.914,0.766,1.68,1.043,2.559l0.204,0.648l0.401,1.279l1.341,0.012l2.062,0.016l1.604,0.014
				c0.027,0.027,0.055,0.061,0.074,0.086v2.93v2.93c-0.02,0.027-0.047,0.059-0.074,0.086l-1.606,0.012l-2.064,0.018l-1.354,0.012
				l-0.393,1.297l-0.146,0.482c-0.271,0.895-0.852,2.26-1.351,3.172l-0.207,0.377l-0.663,1.209l0.974,0.977l1.419,1.424
				c0.564,0.566,0.949,0.973,1.157,1.203c-0.28,0.332-1.051,1.105-2.068,2.123l-0.08,0.08c-0.982,0.984-1.73,1.732-2.075,2.021
				c-0.266-0.225-0.792-0.748-1.192-1.148c-1.819-1.813-1.928-1.92-2.729-1.92c-0.473,0-0.673,0.1-1.788,0.652
				c-0.932,0.463-1.607,0.738-2.494,1.018l-0.631,0.199l-1.276,0.4l-0.011,1.34l-0.018,2.063l-0.013,1.604
				c-0.02,0.02-0.042,0.039-0.063,0.055c-0.341,0.02-1.255,0.021-2.764,0.027h-0.574c-1.377,0-2.264-0.012-2.556-0.023
				c-0.024-0.012-0.055-0.031-0.076-0.051l-0.014-1.617l-0.017-2.064l-0.012-1.354l-1.296-0.393l-0.483-0.146
				c-0.878-0.266-2.165-0.813-3.13-1.33l-0.435-0.232l-1.204-0.646l-0.967,0.963l-1.423,1.418c-0.566,0.564-0.975,0.949-1.204,1.158
				c-0.351-0.293-1.192-1.137-2.148-2.094l-0.067-0.068c-0.975-0.975-1.717-1.721-2.006-2.064c0.226-0.27,0.754-0.799,1.156-1.203
				l1.396-1.4l0.934-0.936l-0.59-1.186l-0.449-0.9c-0.458-0.92-0.771-1.684-1.045-2.559l-0.203-0.648l-0.401-1.277l-1.341-0.012
				l-2.064-0.016l-1.603-0.014c-0.027-0.027-0.055-0.059-0.074-0.086v-2.93v-2.93c0.02-0.027,0.047-0.059,0.073-0.086l1.605-0.012
				l2.062-0.018l1.347-0.012l0.398-1.285l0.175-0.566c0.246-0.791,0.724-1.951,1.112-2.695l0.406-0.775l0.624-1.195l-0.947-0.955
				l-1.404-1.418c-0.436-0.439-0.963-0.971-1.177-1.23c0-0.006,0-0.012,0-0.018v-0.002c0.277-0.332,1.013-1.061,1.981-2.021
				l0.099-0.098c1.002-0.992,1.82-1.803,2.184-2.102c0.269,0.225,0.79,0.746,1.189,1.145c1.595,1.59,1.927,1.92,2.772,1.92
				c0.41,0,0.814-0.125,1.152-0.354c0.088-0.049,0.296-0.158,0.603-0.313c0.774-0.387,1.65-0.742,2.465-0.998l0.648-0.203
				l1.278-0.402l0.011-1.34l0.017-2.063l0.014-1.607c0.025-0.025,0.055-0.051,0.079-0.068h2.937H88.762 M89.131,158.16h-3.299
				h-3.301l-0.331,0.133c-0.42,0.17-0.866,0.586-1.068,0.998l-0.153,0.311l-0.017,2.063l-0.017,2.061l-0.649,0.205
				c-0.912,0.287-1.872,0.676-2.736,1.107c-0.407,0.205-0.764,0.395-0.793,0.422s-0.091,0.049-0.138,0.049s-0.709-0.621-1.473-1.383
				c-1.62-1.615-1.737-1.695-2.498-1.695c-0.795,0-0.813,0.014-3.472,2.65c-2.655,2.631-2.623,2.588-2.625,3.424
				c-0.001,0.791,0.063,0.887,1.711,2.549l1.403,1.416l-0.405,0.777c-0.44,0.842-0.963,2.107-1.24,3.006l-0.175,0.564l-2.063,0.018
				l-2.063,0.016l-0.315,0.156c-0.401,0.197-0.828,0.658-0.998,1.078l-0.129,0.32v3.299v3.301l0.129,0.318
				c0.17,0.42,0.597,0.881,0.998,1.078l0.315,0.156l2.062,0.016l2.062,0.018l0.203,0.648c0.303,0.965,0.651,1.82,1.153,2.826
				l0.449,0.902l-1.396,1.4c-1.627,1.633-1.706,1.748-1.706,2.51c0,0.805-0.021,0.775,2.624,3.426
				c2.447,2.453,2.536,2.527,3.157,2.645c0.084,0.016,0.177,0.023,0.272,0.023c0.294,0,0.624-0.07,0.878-0.197
				c0.133-0.066,0.801-0.686,1.647-1.529l1.424-1.418l0.435,0.232c1.076,0.578,2.469,1.17,3.468,1.471l0.482,0.146l0.017,2.064
				l0.018,2.064l0.153,0.313c0.281,0.572,0.875,1.008,1.507,1.104c0.137,0.021,1.347,0.035,2.81,0.035c0.189,0,0.383,0,0.579,0
				c3.104-0.01,3.106-0.01,3.424-0.137c0.421-0.17,0.883-0.596,1.08-0.998l0.155-0.314l0.017-2.063l0.018-2.063l0.63-0.197
				c0.972-0.307,1.746-0.623,2.759-1.125c0.511-0.254,0.946-0.461,0.97-0.461s0.666,0.623,1.43,1.383
				c1.612,1.609,1.736,1.695,2.486,1.695c0.004,0,0.008,0,0.011,0c0.815,0,0.781,0.025,3.454-2.65
				c2.47-2.475,2.498-2.508,2.617-3.139c0.063-0.332-0.01-0.807-0.176-1.141c-0.065-0.133-0.686-0.803-1.529-1.648l-1.419-1.424
				l0.208-0.379c0.557-1.02,1.189-2.508,1.496-3.521l0.146-0.482l2.064-0.018l2.064-0.018l0.315-0.154
				c0.402-0.197,0.828-0.658,0.997-1.08l0.13-0.318v-3.299v-3.301l-0.13-0.318c-0.169-0.42-0.595-0.883-0.997-1.08l-0.315-0.154
				l-2.062-0.018l-2.063-0.016l-0.203-0.648c-0.306-0.973-0.652-1.824-1.151-2.828l-0.449-0.902l1.394-1.398
				c1.624-1.629,1.7-1.742,1.703-2.51c0.004-0.795-0.009-0.811-2.647-3.473c-2.632-2.656-2.587-2.623-3.424-2.623
				c-0.01,0-0.019,0-0.028,0c-0.766,0-0.881,0.082-2.495,1.689c-0.766,0.762-1.412,1.385-1.438,1.385s-0.421-0.189-0.878-0.422
				c-0.937-0.475-1.872-0.857-2.826-1.158l-0.649-0.203l-0.017-2.063l-0.017-2.061l-0.153-0.316
				c-0.197-0.402-0.658-0.828-1.079-0.998L89.131,158.16L89.131,158.16z"/>
		</g>
		<path id="path19" fill="#FF0000" d="M85.06,190.463c-0.508-0.053-1.456-0.258-1.932-0.416c-3.063-1.016-5.286-3.557-5.927-6.773
			c-0.177-0.891-0.176-2.301,0.001-3.193c0.724-3.635,3.427-6.338,7.067-7.063c0.882-0.176,2.295-0.176,3.189,0
			c2.417,0.479,4.43,1.82,5.764,3.848c1.927,2.926,1.927,6.703,0,9.629c-1.324,2.012-3.361,3.375-5.73,3.838
			C86.905,190.445,85.573,190.518,85.06,190.463L85.06,190.463z M87.045,188.475c1.388-0.242,2.715-0.93,3.7-1.914
			s1.671-2.313,1.913-3.701c0.106-0.607,0.106-1.752,0-2.361c-0.499-2.861-2.683-5.061-5.57-5.609c-0.605-0.115-1.843-0.115-2.447,0
			c-2.19,0.416-3.969,1.75-4.95,3.715c-0.49,0.982-0.704,1.914-0.704,3.076c0,1.176,0.214,2.096,0.723,3.105
			c0.979,1.943,2.792,3.299,4.931,3.686C85.213,188.574,86.458,188.576,87.045,188.475L87.045,188.475z"/>
	</g>
	
		<image display="inline" overflow="visible" width="408" height="252" xlink:href="9907E749.jpg"  transform="matrix(1 0 0 1 165 -48.293)">
	</image>
</g>
<g id="Livello_1" inkscape:version="1.0 (4035a4fb49, 2020-05-01)" sodipodi:docname="iconHome.svg" xmlns:cc="http://creativecommons.org/ns#" xmlns:dc="http://purl.org/dc/elements/1.1/" xmlns:inkscape="http://www.inkscape.org/namespaces/inkscape" xmlns:rdf="http://www.w3.org/1999/02/22-rdf-syntax-ns#" xmlns:sodipodi="http://sodipodi.sourceforge.net/DTD/sodipodi-0.dtd" xmlns:svg="http://www.w3.org/2000/svg">
	
		<sodipodi:namedview  id="namedview7" inkscape:window-width="1519" inkscape:pageshadow="2" inkscape:window-x="0" inkscape:window-y="0" inkscape:pageopacity="0" inkscape:window-height="845" inkscape:window-maximized="0" inkscape:current-layer="Livello_1" inkscape:zoom="2.8710938" bordercolor="#666666" guidetolerance="10" objecttolerance="10" borderopacity="1" showgrid="false" inkscape:cx="7.8240306" pagecolor="#ffffff" inkscape:cy="41.675131" gridtolerance="10">
		</sodipodi:namedview>
	<title  id="title2"></title>
	<g>
		
			<circle fill="none" stroke="#FF0000" stroke-width="5" stroke-linecap="round" stroke-linejoin="round" stroke-miterlimit="10" cx="53.675" cy="35.014" r="24.707"/>
		<path fill="none" stroke="#FF0000" stroke-width="5" stroke-linecap="round" stroke-linejoin="round" stroke-miterlimit="10" d="
			M67.324,77.707h6.897c0,0-0.243-2.605,0-5.874c0.161-2.164,0.832-5.188,0.864-5.895c0.081-1.772-13.533-6.218-21.412-6.218
			c-22.071,0-39.966,17.894-39.966,39.966h52.616V78.707C66.324,78.154,66.771,77.707,67.324,77.707z"/>
	</g>
</g>
<g id="Calque_3">
	<g>
		<path fill="none" stroke="#FF0000" stroke-width="5" stroke-linecap="round" stroke-linejoin="round" stroke-miterlimit="10" d="
			M116.456,113.574c0,4.037-3.302,7.343-7.343,7.343H73.671c-4.041,0-7.347-3.306-7.347-7.343V84.566
			c0-4.041,3.306-7.344,7.347-7.344h35.442c4.041,0,7.343,3.303,7.343,7.344V113.574z"/>
		<path fill="none" stroke="#FF0000" stroke-width="5" stroke-linecap="round" stroke-linejoin="round" stroke-miterlimit="10" d="
			M74.222,77.223v-5.926c0-9.444,7.727-17.17,17.17-17.17l0,0c9.444,0,17.167,7.727,17.167,17.17v5.926"/>
		<path fill="none" stroke="#FF0000" stroke-width="5" stroke-linecap="round" stroke-linejoin="round" stroke-miterlimit="10" d="
			M97.979,96.013c0-3.637-2.951-6.591-6.588-6.591c-3.64,0-6.591,2.954-6.591,6.591c0,2.603,1.512,4.843,3.699,5.915v3.892
			c0,1.592,1.3,2.895,2.892,2.895c1.593,0,2.896-1.303,2.896-2.895v-3.892C96.471,100.855,97.979,98.615,97.979,96.013z"/>
	</g>
</g>
</svg>
