<?xml version="1.0" encoding="utf-8"?>
<!-- Generator: Adobe Illustrator 16.0.0, SVG Export Plug-In . SVG Version: 6.00 Build 0)  -->
<!DOCTYPE svg PUBLIC "-//W3C//DTD SVG 1.1//EN" "http://www.w3.org/Graphics/SVG/1.1/DTD/svg11.dtd">
<svg version="1.1" id="Calque_1" xmlns="http://www.w3.org/2000/svg" xmlns:xlink="http://www.w3.org/1999/xlink" x="0px" y="0px"
	 width="128px" height="128px" viewBox="0 0 128 128" enable-background="new 0 0 128 128" xml:space="preserve">
<g id="Calque_3" display="none">
	<g display="inline">
		<g>
			
				<circle fill="none" stroke="#FF0000" stroke-width="5" stroke-linecap="round" stroke-linejoin="round" stroke-miterlimit="10" cx="59.272" cy="69.415" r="7.812"/>
			
				<circle fill="none" stroke="#FF0000" stroke-width="5" stroke-linecap="round" stroke-linejoin="round" stroke-miterlimit="10" cx="59.272" cy="69.415" r="7.812"/>
			
				<circle fill="none" stroke="#FF0000" stroke-width="5" stroke-linecap="round" stroke-linejoin="round" stroke-miterlimit="10" cx="59.273" cy="69.415" r="22.62"/>
			
				<circle fill="none" stroke="#FF0000" stroke-width="5" stroke-linecap="round" stroke-linejoin="round" stroke-miterlimit="10" cx="59.273" cy="69.415" r="38.346"/>
			
				<circle fill="none" stroke="#FF0000" stroke-width="5" stroke-linecap="round" stroke-linejoin="round" stroke-miterlimit="10" cx="59.273" cy="69.415" r="54.632"/>
		</g>
		
			<line fill="none" stroke="#FF0000" stroke-width="5" stroke-linecap="round" stroke-linejoin="round" stroke-miterlimit="10" x1="113.904" y1="16.864" x2="124.872" y2="16.864"/>
		
			<line fill="none" stroke="#FF0000" stroke-width="5" stroke-linecap="round" stroke-linejoin="round" stroke-miterlimit="10" x1="113.904" y1="16.864" x2="113.904" y2="5.898"/>
		
			<line fill="none" stroke="#FF0000" stroke-width="5" stroke-linecap="round" stroke-linejoin="round" stroke-miterlimit="10" x1="59.272" y1="69.415" x2="113.904" y2="16.864"/>
	</g>
</g>
<g id="Calque_2_1_" display="none">
	<g display="inline">
		<path fill="none" stroke="#FF0000" stroke-width="5" stroke-linecap="round" stroke-linejoin="round" stroke-miterlimit="10" d="
			M211.38,143.066v-38.012h5.935V94.807H173.5v10.248h5.932v38.012c-13.17,6.057-22.314,19.354-22.314,34.801
			c0,21.146,17.145,38.294,38.294,38.294c21.146,0,38.29-17.146,38.29-38.294C233.698,162.421,224.55,149.121,211.38,143.066z"/>
		<path fill="none" stroke="#FF0000" stroke-width="5" stroke-linecap="round" stroke-linejoin="round" stroke-miterlimit="10" d="
			M226.302,177.277c0,17.063-13.831,30.896-30.894,30.896c-17.067,0-30.898-13.833-30.898-30.896c0,0,5.887-20.31,32.211-9.277
			C223.044,179.032,226.302,177.277,226.302,177.277z"/>
		
			<circle fill="none" stroke="#FF0000" stroke-width="5" stroke-linecap="round" stroke-linejoin="round" stroke-miterlimit="10" cx="213.662" cy="160.402" r="4.315"/>
	</g>
</g>
<g id="Calque_5" display="none">
</g>
<polygon fill="#D5D5D5" points="5.018,43.352 4.842,43.655 4.492,43.655 4.316,43.352 4.492,43.048 4.842,43.048 "/>
<path fill="#FF0000" d="M92.888,51.954h-3.977V9.539c0-1.154-0.939-2.09-2.096-2.09c-1.146,0-2.082,0.936-2.082,2.09v5.437
	c0,3.347-2.717,6.068-6.061,6.068c-3.348,0-6.067-2.722-6.067-6.068V9.539c0-1.154-0.938-2.09-2.091-2.09
	c-1.148,0-2.082,0.936-2.082,2.09v5.437c0,3.347-2.72,6.068-6.06,6.068c-3.349,0-6.071-2.722-6.071-6.068V9.539
	c0-1.154-0.938-2.09-2.096-2.09c-1.144,0-2.076,0.936-2.076,2.09v14.972h-3.978V9.539c0-3.346,2.716-6.067,6.054-6.067
	c3.35,0,6.074,2.722,6.074,6.067v5.437c0,1.152,0.938,2.091,2.093,2.091c1.146,0,2.082-0.938,2.082-2.091V9.539
	c0-3.346,2.716-6.067,6.06-6.067c3.347,0,6.066,2.722,6.066,6.067v5.437c0,1.152,0.939,2.091,2.092,2.091
	c1.148,0,2.082-0.938,2.082-2.091V9.539c0-3.346,2.721-6.067,6.061-6.067c3.352,0,6.07,2.722,6.07,6.067v42.415H92.888z"/>
<g>
	<path fill="none" stroke="#FF0000" stroke-width="5" stroke-miterlimit="10" d="M78.982,124.469
		c0.209,0.026,0.418,0.063,0.629,0.063h27.277c1.309,0,2.617-0.501,3.615-1.499c0.998-0.999,1.496-2.308,1.496-3.617V67.701
		c1.02,0,2.036-0.389,2.813-1.165c0.776-0.777,1.166-1.795,1.166-2.813c0-1.019-0.39-2.036-1.166-2.813
		c-0.775-0.777-1.795-1.166-2.813-1.166H74.498c-1.018,0-2.035,0.389-2.813,1.166c-0.777,0.776-1.166,1.794-1.166,2.813
		c0,1.018,0.389,2.035,1.166,2.813c0.775,0.776,1.795,1.165,2.813,1.165v26.005"/>
	<path fill="none" stroke="#FF0000" stroke-width="5" stroke-linecap="round" stroke-linejoin="round" stroke-miterlimit="10" d="
		M74.498,119.413V93.706l-14.64-14.642V42.56c3.127,0,5.683-2.557,5.683-5.684c0-3.125-2.556-5.683-5.683-5.683H37.127
		c-3.125,0-5.682,2.558-5.682,5.683c0,3.127,2.557,5.684,5.682,5.684v36.506h0.002l-26.061,26.061
		c-3.154,3.152-4.277,8.012-2.465,12.387s6.041,7.019,10.501,7.019h58.778c0.369,0,0.735-0.024,1.101-0.063
		c-1.09-0.135-2.148-0.601-2.986-1.438C74.996,122.031,74.498,120.725,74.498,119.413z"/>
	<path fill="none" stroke="#FF0000" stroke-width="5" stroke-miterlimit="10" d="M74.498,93.706v25.707
		c0,1.312,0.498,2.618,1.497,3.617c0.838,0.838,1.897,1.304,2.987,1.438"/>
</g>
<rect x="97.611" y="83.624" fill="#FF0000" width="5.113" height="1.989"/>
<rect x="97.611" y="79.646" fill="#FF0000" width="5.113" height="1.987"/>
<rect x="97.611" y="75.668" fill="#FF0000" width="5.113" height="1.989"/>
<rect x="97.611" y="71.689" fill="#FF0000" width="5.113" height="1.99"/>
<rect x="97.611" y="99.537" fill="#FF0000" width="5.113" height="1.989"/>
<rect x="97.611" y="95.56" fill="#FF0000" width="5.113" height="1.987"/>
<rect x="97.611" y="91.581" fill="#FF0000" width="5.113" height="1.989"/>
<rect x="97.611" y="87.603" fill="#FF0000" width="5.113" height="1.99"/>
<rect x="97.611" y="115.45" fill="#FF0000" width="5.113" height="1.989"/>
<rect x="97.611" y="111.473" fill="#FF0000" width="5.113" height="1.987"/>
<rect x="97.611" y="107.494" fill="#FF0000" width="5.113" height="1.989"/>
<rect x="97.611" y="103.516" fill="#FF0000" width="5.113" height="1.99"/>
</svg>
